<svg id="Layer_1" data-name="Layer 1" xmlns="http://www.w3.org/2000/svg" viewBox="0 0 100 100"><title>pattern</title><rect width="1" height="2"/><rect x="1" y="2" width="1" height="2"/><rect x="2" y="4" width="1" height="2"/><rect x="3" y="6" width="1" height="2"/><rect x="4" y="8" width="1" height="2"/><rect x="10" width="1" height="2"/><rect x="11" y="2" width="1" height="2"/><rect x="12" y="4" width="1" height="2"/><rect x="13" y="6" width="1" height="2"/><rect x="14" y="8" width="1" height="2"/><rect x="20" width="1" height="2"/><rect x="21" y="2" width="1" height="2"/><rect x="22" y="4" width="1" height="2"/><rect x="23" y="6" width="1" height="2"/><rect x="24" y="8" width="1" height="2"/><rect x="30" width="1" height="2"/><rect x="31" y="2" width="1" height="2"/><rect x="32" y="4" width="1" height="2"/><rect x="33" y="6" width="1" height="2"/><rect x="34" y="8" width="1" height="2"/><rect x="40" width="1" height="2"/><rect x="41" y="2" width="1" height="2"/><rect x="42" y="4" width="1" height="2"/><rect x="43" y="6" width="1" height="2"/><rect x="44" y="8" width="1" height="2"/><rect x="50" width="1" height="2"/><rect x="51" y="2" width="1" height="2"/><rect x="52" y="4" width="1" height="2"/><rect x="53" y="6" width="1" height="2"/><rect x="54" y="8" width="1" height="2"/><rect x="60" width="1" height="2"/><rect x="61" y="2" width="1" height="2"/><rect x="62" y="4" width="1" height="2"/><rect x="63" y="6" width="1" height="2"/><rect x="64" y="8" width="1" height="2"/><rect x="70" width="1" height="2"/><rect x="71" y="2" width="1" height="2"/><rect x="72" y="4" width="1" height="2"/><rect x="73" y="6" width="1" height="2"/><rect x="74" y="8" width="1" height="2"/><rect x="80" width="1" height="2"/><rect x="81" y="2" width="1" height="2"/><rect x="82" y="4" width="1" height="2"/><rect x="83" y="6" width="1" height="2"/><rect x="84" y="8" width="1" height="2"/><rect x="90" width="1" height="2"/><rect x="91" y="2" width="1" height="2"/><rect x="92" y="4" width="1" height="2"/><rect x="93" y="6" width="1" height="2"/><rect x="94" y="8" width="1" height="2"/><rect x="5" y="10" width="1" height="2"/><rect x="6" y="12" width="1" height="2"/><rect x="7" y="14" width="1" height="2"/><rect x="8" y="16" width="1" height="2"/><rect x="9" y="18" width="1" height="2"/><rect x="15" y="10" width="1" height="2"/><rect x="16" y="12" width="1" height="2"/><rect x="17" y="14" width="1" height="2"/><rect x="18" y="16" width="1" height="2"/><rect x="19" y="18" width="1" height="2"/><rect x="25" y="10" width="1" height="2"/><rect x="26" y="12" width="1" height="2"/><rect x="27" y="14" width="1" height="2"/><rect x="28" y="16" width="1" height="2"/><rect x="29" y="18" width="1" height="2"/><rect x="35" y="10" width="1" height="2"/><rect x="36" y="12" width="1" height="2"/><rect x="37" y="14" width="1" height="2"/><rect x="38" y="16" width="1" height="2"/><rect x="39" y="18" width="1" height="2"/><rect x="45" y="10" width="1" height="2"/><rect x="46" y="12" width="1" height="2"/><rect x="47" y="14" width="1" height="2"/><rect x="48" y="16" width="1" height="2"/><rect x="49" y="18" width="1" height="2"/><rect x="55" y="10" width="1" height="2"/><rect x="56" y="12" width="1" height="2"/><rect x="57" y="14" width="1" height="2"/><rect x="58" y="16" width="1" height="2"/><rect x="59" y="18" width="1" height="2"/><rect x="65" y="10" width="1" height="2"/><rect x="66" y="12" width="1" height="2"/><rect x="67" y="14" width="1" height="2"/><rect x="68" y="16" width="1" height="2"/><rect x="69" y="18" width="1" height="2"/><rect x="75" y="10" width="1" height="2"/><rect x="76" y="12" width="1" height="2"/><rect x="77" y="14" width="1" height="2"/><rect x="78" y="16" width="1" height="2"/><rect x="79" y="18" width="1" height="2"/><rect x="85" y="10" width="1" height="2"/><rect x="86" y="12" width="1" height="2"/><rect x="87" y="14" width="1" height="2"/><rect x="88" y="16" width="1" height="2"/><rect x="89" y="18" width="1" height="2"/><rect x="95" y="10" width="1" height="2"/><rect x="96" y="12" width="1" height="2"/><rect x="97" y="14" width="1" height="2"/><rect x="98" y="16" width="1" height="2"/><rect x="99" y="18" width="1" height="2"/><rect y="20" width="1" height="2"/><rect x="1" y="22" width="1" height="2"/><rect x="2" y="24" width="1" height="2"/><rect x="3" y="26" width="1" height="2"/><rect x="4" y="28" width="1" height="2"/><rect x="10" y="20" width="1" height="2"/><rect x="11" y="22" width="1" height="2"/><rect x="12" y="24" width="1" height="2"/><rect x="13" y="26" width="1" height="2"/><rect x="14" y="28" width="1" height="2"/><rect x="20" y="20" width="1" height="2"/><rect x="21" y="22" width="1" height="2"/><rect x="22" y="24" width="1" height="2"/><rect x="23" y="26" width="1" height="2"/><rect x="24" y="28" width="1" height="2"/><rect x="30" y="20" width="1" height="2"/><rect x="31" y="22" width="1" height="2"/><rect x="32" y="24" width="1" height="2"/><rect x="33" y="26" width="1" height="2"/><rect x="34" y="28" width="1" height="2"/><rect x="40" y="20" width="1" height="2"/><rect x="41" y="22" width="1" height="2"/><rect x="42" y="24" width="1" height="2"/><rect x="43" y="26" width="1" height="2"/><rect x="44" y="28" width="1" height="2"/><rect x="50" y="20" width="1" height="2"/><rect x="51" y="22" width="1" height="2"/><rect x="52" y="24" width="1" height="2"/><rect x="53" y="26" width="1" height="2"/><rect x="54" y="28" width="1" height="2"/><rect x="60" y="20" width="1" height="2"/><rect x="61" y="22" width="1" height="2"/><rect x="62" y="24" width="1" height="2"/><rect x="63" y="26" width="1" height="2"/><rect x="64" y="28" width="1" height="2"/><rect x="70" y="20" width="1" height="2"/><rect x="71" y="22" width="1" height="2"/><rect x="72" y="24" width="1" height="2"/><rect x="73" y="26" width="1" height="2"/><rect x="74" y="28" width="1" height="2"/><rect x="80" y="20" width="1" height="2"/><rect x="81" y="22" width="1" height="2"/><rect x="82" y="24" width="1" height="2"/><rect x="83" y="26" width="1" height="2"/><rect x="84" y="28" width="1" height="2"/><rect x="90" y="20" width="1" height="2"/><rect x="91" y="22" width="1" height="2"/><rect x="92" y="24" width="1" height="2"/><rect x="93" y="26" width="1" height="2"/><rect x="94" y="28" width="1" height="2"/><rect x="5" y="30" width="1" height="2"/><rect x="6" y="32" width="1" height="2"/><rect x="7" y="34" width="1" height="2"/><rect x="8" y="36" width="1" height="2"/><rect x="9" y="38" width="1" height="2"/><rect x="15" y="30" width="1" height="2"/><rect x="16" y="32" width="1" height="2"/><rect x="17" y="34" width="1" height="2"/><rect x="18" y="36" width="1" height="2"/><rect x="19" y="38" width="1" height="2"/><rect x="25" y="30" width="1" height="2"/><rect x="26" y="32" width="1" height="2"/><rect x="27" y="34" width="1" height="2"/><rect x="28" y="36" width="1" height="2"/><rect x="29" y="38" width="1" height="2"/><rect x="35" y="30" width="1" height="2"/><rect x="36" y="32" width="1" height="2"/><rect x="37" y="34" width="1" height="2"/><rect x="38" y="36" width="1" height="2"/><rect x="39" y="38" width="1" height="2"/><rect x="45" y="30" width="1" height="2"/><rect x="46" y="32" width="1" height="2"/><rect x="47" y="34" width="1" height="2"/><rect x="48" y="36" width="1" height="2"/><rect x="49" y="38" width="1" height="2"/><rect x="55" y="30" width="1" height="2"/><rect x="56" y="32" width="1" height="2"/><rect x="57" y="34" width="1" height="2"/><rect x="58" y="36" width="1" height="2"/><rect x="59" y="38" width="1" height="2"/><rect x="65" y="30" width="1" height="2"/><rect x="66" y="32" width="1" height="2"/><rect x="67" y="34" width="1" height="2"/><rect x="68" y="36" width="1" height="2"/><rect x="69" y="38" width="1" height="2"/><rect x="75" y="30" width="1" height="2"/><rect x="76" y="32" width="1" height="2"/><rect x="77" y="34" width="1" height="2"/><rect x="78" y="36" width="1" height="2"/><rect x="79" y="38" width="1" height="2"/><rect x="85" y="30" width="1" height="2"/><rect x="86" y="32" width="1" height="2"/><rect x="87" y="34" width="1" height="2"/><rect x="88" y="36" width="1" height="2"/><rect x="89" y="38" width="1" height="2"/><rect x="95" y="30" width="1" height="2"/><rect x="96" y="32" width="1" height="2"/><rect x="97" y="34" width="1" height="2"/><rect x="98" y="36" width="1" height="2"/><rect x="99" y="38" width="1" height="2"/><rect y="40" width="1" height="2"/><rect x="1" y="42" width="1" height="2"/><rect x="2" y="44" width="1" height="2"/><rect x="3" y="46" width="1" height="2"/><rect x="4" y="48" width="1" height="2"/><rect x="10" y="40" width="1" height="2"/><rect x="11" y="42" width="1" height="2"/><rect x="12" y="44" width="1" height="2"/><rect x="13" y="46" width="1" height="2"/><rect x="14" y="48" width="1" height="2"/><rect x="20" y="40" width="1" height="2"/><rect x="21" y="42" width="1" height="2"/><rect x="22" y="44" width="1" height="2"/><rect x="23" y="46" width="1" height="2"/><rect x="24" y="48" width="1" height="2"/><rect x="30" y="40" width="1" height="2"/><rect x="31" y="42" width="1" height="2"/><rect x="32" y="44" width="1" height="2"/><rect x="33" y="46" width="1" height="2"/><rect x="34" y="48" width="1" height="2"/><rect x="40" y="40" width="1" height="2"/><rect x="41" y="42" width="1" height="2"/><rect x="42" y="44" width="1" height="2"/><rect x="43" y="46" width="1" height="2"/><rect x="44" y="48" width="1" height="2"/><rect x="50" y="40" width="1" height="2"/><rect x="51" y="42" width="1" height="2"/><rect x="52" y="44" width="1" height="2"/><rect x="53" y="46" width="1" height="2"/><rect x="54" y="48" width="1" height="2"/><rect x="60" y="40" width="1" height="2"/><rect x="61" y="42" width="1" height="2"/><rect x="62" y="44" width="1" height="2"/><rect x="63" y="46" width="1" height="2"/><rect x="64" y="48" width="1" height="2"/><rect x="70" y="40" width="1" height="2"/><rect x="71" y="42" width="1" height="2"/><rect x="72" y="44" width="1" height="2"/><rect x="73" y="46" width="1" height="2"/><rect x="74" y="48" width="1" height="2"/><rect x="80" y="40" width="1" height="2"/><rect x="81" y="42" width="1" height="2"/><rect x="82" y="44" width="1" height="2"/><rect x="83" y="46" width="1" height="2"/><rect x="84" y="48" width="1" height="2"/><rect x="90" y="40" width="1" height="2"/><rect x="91" y="42" width="1" height="2"/><rect x="92" y="44" width="1" height="2"/><rect x="93" y="46" width="1" height="2"/><rect x="94" y="48" width="1" height="2"/><rect x="5" y="50" width="1" height="2"/><rect x="6" y="52" width="1" height="2"/><rect x="7" y="54" width="1" height="2"/><rect x="8" y="56" width="1" height="2"/><rect x="9" y="58" width="1" height="2"/><rect x="15" y="50" width="1" height="2"/><rect x="16" y="52" width="1" height="2"/><rect x="17" y="54" width="1" height="2"/><rect x="18" y="56" width="1" height="2"/><rect x="19" y="58" width="1" height="2"/><rect x="25" y="50" width="1" height="2"/><rect x="26" y="52" width="1" height="2"/><rect x="27" y="54" width="1" height="2"/><rect x="28" y="56" width="1" height="2"/><rect x="29" y="58" width="1" height="2"/><rect x="35" y="50" width="1" height="2"/><rect x="36" y="52" width="1" height="2"/><rect x="37" y="54" width="1" height="2"/><rect x="38" y="56" width="1" height="2"/><rect x="39" y="58" width="1" height="2"/><rect x="45" y="50" width="1" height="2"/><rect x="46" y="52" width="1" height="2"/><rect x="47" y="54" width="1" height="2"/><rect x="48" y="56" width="1" height="2"/><rect x="49" y="58" width="1" height="2"/><rect x="55" y="50" width="1" height="2"/><rect x="56" y="52" width="1" height="2"/><rect x="57" y="54" width="1" height="2"/><rect x="58" y="56" width="1" height="2"/><rect x="59" y="58" width="1" height="2"/><rect x="65" y="50" width="1" height="2"/><rect x="66" y="52" width="1" height="2"/><rect x="67" y="54" width="1" height="2"/><rect x="68" y="56" width="1" height="2"/><rect x="69" y="58" width="1" height="2"/><rect x="75" y="50" width="1" height="2"/><rect x="76" y="52" width="1" height="2"/><rect x="77" y="54" width="1" height="2"/><rect x="78" y="56" width="1" height="2"/><rect x="79" y="58" width="1" height="2"/><rect x="85" y="50" width="1" height="2"/><rect x="86" y="52" width="1" height="2"/><rect x="87" y="54" width="1" height="2"/><rect x="88" y="56" width="1" height="2"/><rect x="89" y="58" width="1" height="2"/><rect x="95" y="50" width="1" height="2"/><rect x="96" y="52" width="1" height="2"/><rect x="97" y="54" width="1" height="2"/><rect x="98" y="56" width="1" height="2"/><rect x="99" y="58" width="1" height="2"/><rect y="60" width="1" height="2"/><rect x="1" y="62" width="1" height="2"/><rect x="2" y="64" width="1" height="2"/><rect x="3" y="66" width="1" height="2"/><rect x="4" y="68" width="1" height="2"/><rect x="10" y="60" width="1" height="2"/><rect x="11" y="62" width="1" height="2"/><rect x="12" y="64" width="1" height="2"/><rect x="13" y="66" width="1" height="2"/><rect x="14" y="68" width="1" height="2"/><rect x="20" y="60" width="1" height="2"/><rect x="21" y="62" width="1" height="2"/><rect x="22" y="64" width="1" height="2"/><rect x="23" y="66" width="1" height="2"/><rect x="24" y="68" width="1" height="2"/><rect x="30" y="60" width="1" height="2"/><rect x="31" y="62" width="1" height="2"/><rect x="32" y="64" width="1" height="2"/><rect x="33" y="66" width="1" height="2"/><rect x="34" y="68" width="1" height="2"/><rect x="40" y="60" width="1" height="2"/><rect x="41" y="62" width="1" height="2"/><rect x="42" y="64" width="1" height="2"/><rect x="43" y="66" width="1" height="2"/><rect x="44" y="68" width="1" height="2"/><rect x="50" y="60" width="1" height="2"/><rect x="51" y="62" width="1" height="2"/><rect x="52" y="64" width="1" height="2"/><rect x="53" y="66" width="1" height="2"/><rect x="54" y="68" width="1" height="2"/><rect x="60" y="60" width="1" height="2"/><rect x="61" y="62" width="1" height="2"/><rect x="62" y="64" width="1" height="2"/><rect x="63" y="66" width="1" height="2"/><rect x="64" y="68" width="1" height="2"/><rect x="70" y="60" width="1" height="2"/><rect x="71" y="62" width="1" height="2"/><rect x="72" y="64" width="1" height="2"/><rect x="73" y="66" width="1" height="2"/><rect x="74" y="68" width="1" height="2"/><rect x="80" y="60" width="1" height="2"/><rect x="81" y="62" width="1" height="2"/><rect x="82" y="64" width="1" height="2"/><rect x="83" y="66" width="1" height="2"/><rect x="84" y="68" width="1" height="2"/><rect x="90" y="60" width="1" height="2"/><rect x="91" y="62" width="1" height="2"/><rect x="92" y="64" width="1" height="2"/><rect x="93" y="66" width="1" height="2"/><rect x="94" y="68" width="1" height="2"/><rect x="5" y="70" width="1" height="2"/><rect x="6" y="72" width="1" height="2"/><rect x="7" y="74" width="1" height="2"/><rect x="8" y="76" width="1" height="2"/><rect x="9" y="78" width="1" height="2"/><rect x="15" y="70" width="1" height="2"/><rect x="16" y="72" width="1" height="2"/><rect x="17" y="74" width="1" height="2"/><rect x="18" y="76" width="1" height="2"/><rect x="19" y="78" width="1" height="2"/><rect x="25" y="70" width="1" height="2"/><rect x="26" y="72" width="1" height="2"/><rect x="27" y="74" width="1" height="2"/><rect x="28" y="76" width="1" height="2"/><rect x="29" y="78" width="1" height="2"/><rect x="35" y="70" width="1" height="2"/><rect x="36" y="72" width="1" height="2"/><rect x="37" y="74" width="1" height="2"/><rect x="38" y="76" width="1" height="2"/><rect x="39" y="78" width="1" height="2"/><rect x="45" y="70" width="1" height="2"/><rect x="46" y="72" width="1" height="2"/><rect x="47" y="74" width="1" height="2"/><rect x="48" y="76" width="1" height="2"/><rect x="49" y="78" width="1" height="2"/><rect x="55" y="70" width="1" height="2"/><rect x="56" y="72" width="1" height="2"/><rect x="57" y="74" width="1" height="2"/><rect x="58" y="76" width="1" height="2"/><rect x="59" y="78" width="1" height="2"/><rect x="65" y="70" width="1" height="2"/><rect x="66" y="72" width="1" height="2"/><rect x="67" y="74" width="1" height="2"/><rect x="68" y="76" width="1" height="2"/><rect x="69" y="78" width="1" height="2"/><rect x="75" y="70" width="1" height="2"/><rect x="76" y="72" width="1" height="2"/><rect x="77" y="74" width="1" height="2"/><rect x="78" y="76" width="1" height="2"/><rect x="79" y="78" width="1" height="2"/><rect x="85" y="70" width="1" height="2"/><rect x="86" y="72" width="1" height="2"/><rect x="87" y="74" width="1" height="2"/><rect x="88" y="76" width="1" height="2"/><rect x="89" y="78" width="1" height="2"/><rect x="95" y="70" width="1" height="2"/><rect x="96" y="72" width="1" height="2"/><rect x="97" y="74" width="1" height="2"/><rect x="98" y="76" width="1" height="2"/><rect x="99" y="78" width="1" height="2"/><rect y="80" width="1" height="2"/><rect x="1" y="82" width="1" height="2"/><rect x="2" y="84" width="1" height="2"/><rect x="3" y="86" width="1" height="2"/><rect x="4" y="88" width="1" height="2"/><rect x="10" y="80" width="1" height="2"/><rect x="11" y="82" width="1" height="2"/><rect x="12" y="84" width="1" height="2"/><rect x="13" y="86" width="1" height="2"/><rect x="14" y="88" width="1" height="2"/><rect x="20" y="80" width="1" height="2"/><rect x="21" y="82" width="1" height="2"/><rect x="22" y="84" width="1" height="2"/><rect x="23" y="86" width="1" height="2"/><rect x="24" y="88" width="1" height="2"/><rect x="30" y="80" width="1" height="2"/><rect x="31" y="82" width="1" height="2"/><rect x="32" y="84" width="1" height="2"/><rect x="33" y="86" width="1" height="2"/><rect x="34" y="88" width="1" height="2"/><rect x="40" y="80" width="1" height="2"/><rect x="41" y="82" width="1" height="2"/><rect x="42" y="84" width="1" height="2"/><rect x="43" y="86" width="1" height="2"/><rect x="44" y="88" width="1" height="2"/><rect x="50" y="80" width="1" height="2"/><rect x="51" y="82" width="1" height="2"/><rect x="52" y="84" width="1" height="2"/><rect x="53" y="86" width="1" height="2"/><rect x="54" y="88" width="1" height="2"/><rect x="60" y="80" width="1" height="2"/><rect x="61" y="82" width="1" height="2"/><rect x="62" y="84" width="1" height="2"/><rect x="63" y="86" width="1" height="2"/><rect x="64" y="88" width="1" height="2"/><rect x="70" y="80" width="1" height="2"/><rect x="71" y="82" width="1" height="2"/><rect x="72" y="84" width="1" height="2"/><rect x="73" y="86" width="1" height="2"/><rect x="74" y="88" width="1" height="2"/><rect x="80" y="80" width="1" height="2"/><rect x="81" y="82" width="1" height="2"/><rect x="82" y="84" width="1" height="2"/><rect x="83" y="86" width="1" height="2"/><rect x="84" y="88" width="1" height="2"/><rect x="90" y="80" width="1" height="2"/><rect x="91" y="82" width="1" height="2"/><rect x="92" y="84" width="1" height="2"/><rect x="93" y="86" width="1" height="2"/><rect x="94" y="88" width="1" height="2"/><rect x="5" y="90" width="1" height="2"/><rect x="6" y="92" width="1" height="2"/><rect x="7" y="94" width="1" height="2"/><rect x="8" y="96" width="1" height="2"/><rect x="9" y="98" width="1" height="2"/><rect x="15" y="90" width="1" height="2"/><rect x="16" y="92" width="1" height="2"/><rect x="17" y="94" width="1" height="2"/><rect x="18" y="96" width="1" height="2"/><rect x="19" y="98" width="1" height="2"/><rect x="25" y="90" width="1" height="2"/><rect x="26" y="92" width="1" height="2"/><rect x="27" y="94" width="1" height="2"/><rect x="28" y="96" width="1" height="2"/><rect x="29" y="98" width="1" height="2"/><rect x="35" y="90" width="1" height="2"/><rect x="36" y="92" width="1" height="2"/><rect x="37" y="94" width="1" height="2"/><rect x="38" y="96" width="1" height="2"/><rect x="39" y="98" width="1" height="2"/><rect x="45" y="90" width="1" height="2"/><rect x="46" y="92" width="1" height="2"/><rect x="47" y="94" width="1" height="2"/><rect x="48" y="96" width="1" height="2"/><rect x="49" y="98" width="1" height="2"/><rect x="55" y="90" width="1" height="2"/><rect x="56" y="92" width="1" height="2"/><rect x="57" y="94" width="1" height="2"/><rect x="58" y="96" width="1" height="2"/><rect x="59" y="98" width="1" height="2"/><rect x="65" y="90" width="1" height="2"/><rect x="66" y="92" width="1" height="2"/><rect x="67" y="94" width="1" height="2"/><rect x="68" y="96" width="1" height="2"/><rect x="69" y="98" width="1" height="2"/><rect x="75" y="90" width="1" height="2"/><rect x="76" y="92" width="1" height="2"/><rect x="77" y="94" width="1" height="2"/><rect x="78" y="96" width="1" height="2"/><rect x="79" y="98" width="1" height="2"/><rect x="85" y="90" width="1" height="2"/><rect x="86" y="92" width="1" height="2"/><rect x="87" y="94" width="1" height="2"/><rect x="88" y="96" width="1" height="2"/><rect x="89" y="98" width="1" height="2"/><rect x="95" y="90" width="1" height="2"/><rect x="96" y="92" width="1" height="2"/><rect x="97" y="94" width="1" height="2"/><rect x="98" y="96" width="1" height="2"/><rect x="99" y="98" width="1" height="2"/></svg>