<svg id="Layer_1" data-name="Layer 1" xmlns="http://www.w3.org/2000/svg" viewBox="0 0 100 100"><title>pattern</title><rect width="1" height="1"/><rect x="1" y="1" width="1" height="1"/><rect x="2" y="2" width="1" height="1"/><rect x="3" y="3" width="1" height="1"/><rect x="4" y="4" width="1" height="1"/><rect x="5" y="5" width="1" height="1"/><rect x="6" y="6" width="1" height="1"/><rect x="7" y="7" width="1" height="1"/><rect x="8" y="8" width="1" height="1"/><rect x="9" y="9" width="2" height="1"/><rect x="18" y="1" width="1" height="1"/><rect x="17" y="2" width="1" height="1"/><rect x="16" y="3" width="1" height="1"/><rect x="15" y="4" width="1" height="1"/><rect x="14" y="5" width="1" height="1"/><rect x="13" y="6" width="1" height="1"/><rect x="12" y="7" width="1" height="1"/><rect x="11" y="8" width="1" height="1"/><rect x="19" width="2" height="1"/><rect x="21" y="1" width="1" height="1"/><rect x="22" y="2" width="1" height="1"/><rect x="23" y="3" width="1" height="1"/><rect x="24" y="4" width="1" height="1"/><rect x="25" y="5" width="1" height="1"/><rect x="26" y="6" width="1" height="1"/><rect x="27" y="7" width="1" height="1"/><rect x="28" y="8" width="1" height="1"/><rect x="29" y="9" width="2" height="1"/><rect x="38" y="1" width="1" height="1"/><rect x="37" y="2" width="1" height="1"/><rect x="36" y="3" width="1" height="1"/><rect x="35" y="4" width="1" height="1"/><rect x="34" y="5" width="1" height="1"/><rect x="33" y="6" width="1" height="1"/><rect x="32" y="7" width="1" height="1"/><rect x="31" y="8" width="1" height="1"/><rect x="39" width="2" height="1"/><rect x="41" y="1" width="1" height="1"/><rect x="42" y="2" width="1" height="1"/><rect x="43" y="3" width="1" height="1"/><rect x="44" y="4" width="1" height="1"/><rect x="45" y="5" width="1" height="1"/><rect x="46" y="6" width="1" height="1"/><rect x="47" y="7" width="1" height="1"/><rect x="48" y="8" width="1" height="1"/><rect x="49" y="9" width="2" height="1"/><rect x="58" y="1" width="1" height="1"/><rect x="57" y="2" width="1" height="1"/><rect x="56" y="3" width="1" height="1"/><rect x="55" y="4" width="1" height="1"/><rect x="54" y="5" width="1" height="1"/><rect x="53" y="6" width="1" height="1"/><rect x="52" y="7" width="1" height="1"/><rect x="51" y="8" width="1" height="1"/><rect x="59" width="2" height="1"/><rect x="61" y="1" width="1" height="1"/><rect x="62" y="2" width="1" height="1"/><rect x="63" y="3" width="1" height="1"/><rect x="64" y="4" width="1" height="1"/><rect x="65" y="5" width="1" height="1"/><rect x="66" y="6" width="1" height="1"/><rect x="67" y="7" width="1" height="1"/><rect x="68" y="8" width="1" height="1"/><rect x="69" y="9" width="2" height="1"/><rect x="78" y="1" width="1" height="1"/><rect x="77" y="2" width="1" height="1"/><rect x="76" y="3" width="1" height="1"/><rect x="75" y="4" width="1" height="1"/><rect x="74" y="5" width="1" height="1"/><rect x="73" y="6" width="1" height="1"/><rect x="72" y="7" width="1" height="1"/><rect x="71" y="8" width="1" height="1"/><rect x="79" width="2" height="1"/><rect x="81" y="1" width="1" height="1"/><rect x="82" y="2" width="1" height="1"/><rect x="83" y="3" width="1" height="1"/><rect x="84" y="4" width="1" height="1"/><rect x="85" y="5" width="1" height="1"/><rect x="86" y="6" width="1" height="1"/><rect x="87" y="7" width="1" height="1"/><rect x="88" y="8" width="1" height="1"/><rect x="89" y="9" width="2" height="1"/><rect x="99" width="1" height="1"/><rect x="98" y="1" width="1" height="1"/><rect x="97" y="2" width="1" height="1"/><rect x="96" y="3" width="1" height="1"/><rect x="95" y="4" width="1" height="1"/><rect x="94" y="5" width="1" height="1"/><rect x="93" y="6" width="1" height="1"/><rect x="92" y="7" width="1" height="1"/><rect x="91" y="8" width="1" height="1"/><rect y="10" width="1" height="1"/><rect x="1" y="11" width="1" height="1"/><rect x="2" y="12" width="1" height="1"/><rect x="3" y="13" width="1" height="1"/><rect x="4" y="14" width="1" height="1"/><rect x="5" y="15" width="1" height="1"/><rect x="6" y="16" width="1" height="1"/><rect x="7" y="17" width="1" height="1"/><rect x="8" y="18" width="1" height="1"/><rect x="9" y="19" width="2" height="1"/><rect x="18" y="11" width="1" height="1"/><rect x="17" y="12" width="1" height="1"/><rect x="16" y="13" width="1" height="1"/><rect x="15" y="14" width="1" height="1"/><rect x="14" y="15" width="1" height="1"/><rect x="13" y="16" width="1" height="1"/><rect x="12" y="17" width="1" height="1"/><rect x="11" y="18" width="1" height="1"/><rect x="19" y="10" width="2" height="1"/><rect x="21" y="11" width="1" height="1"/><rect x="22" y="12" width="1" height="1"/><rect x="23" y="13" width="1" height="1"/><rect x="24" y="14" width="1" height="1"/><rect x="25" y="15" width="1" height="1"/><rect x="26" y="16" width="1" height="1"/><rect x="27" y="17" width="1" height="1"/><rect x="28" y="18" width="1" height="1"/><rect x="29" y="19" width="2" height="1"/><rect x="38" y="11" width="1" height="1"/><rect x="37" y="12" width="1" height="1"/><rect x="36" y="13" width="1" height="1"/><rect x="35" y="14" width="1" height="1"/><rect x="34" y="15" width="1" height="1"/><rect x="33" y="16" width="1" height="1"/><rect x="32" y="17" width="1" height="1"/><rect x="31" y="18" width="1" height="1"/><rect x="39" y="10" width="2" height="1"/><rect x="41" y="11" width="1" height="1"/><rect x="42" y="12" width="1" height="1"/><rect x="43" y="13" width="1" height="1"/><rect x="44" y="14" width="1" height="1"/><rect x="45" y="15" width="1" height="1"/><rect x="46" y="16" width="1" height="1"/><rect x="47" y="17" width="1" height="1"/><rect x="48" y="18" width="1" height="1"/><rect x="49" y="19" width="2" height="1"/><rect x="58" y="11" width="1" height="1"/><rect x="57" y="12" width="1" height="1"/><rect x="56" y="13" width="1" height="1"/><rect x="55" y="14" width="1" height="1"/><rect x="54" y="15" width="1" height="1"/><rect x="53" y="16" width="1" height="1"/><rect x="52" y="17" width="1" height="1"/><rect x="51" y="18" width="1" height="1"/><rect x="59" y="10" width="2" height="1"/><rect x="61" y="11" width="1" height="1"/><rect x="62" y="12" width="1" height="1"/><rect x="63" y="13" width="1" height="1"/><rect x="64" y="14" width="1" height="1"/><rect x="65" y="15" width="1" height="1"/><rect x="66" y="16" width="1" height="1"/><rect x="67" y="17" width="1" height="1"/><rect x="68" y="18" width="1" height="1"/><rect x="69" y="19" width="2" height="1"/><rect x="78" y="11" width="1" height="1"/><rect x="77" y="12" width="1" height="1"/><rect x="76" y="13" width="1" height="1"/><rect x="75" y="14" width="1" height="1"/><rect x="74" y="15" width="1" height="1"/><rect x="73" y="16" width="1" height="1"/><rect x="72" y="17" width="1" height="1"/><rect x="71" y="18" width="1" height="1"/><rect x="79" y="10" width="2" height="1"/><rect x="81" y="11" width="1" height="1"/><rect x="82" y="12" width="1" height="1"/><rect x="83" y="13" width="1" height="1"/><rect x="84" y="14" width="1" height="1"/><rect x="85" y="15" width="1" height="1"/><rect x="86" y="16" width="1" height="1"/><rect x="87" y="17" width="1" height="1"/><rect x="88" y="18" width="1" height="1"/><rect x="89" y="19" width="2" height="1"/><rect x="99" y="10" width="1" height="1"/><rect x="98" y="11" width="1" height="1"/><rect x="97" y="12" width="1" height="1"/><rect x="96" y="13" width="1" height="1"/><rect x="95" y="14" width="1" height="1"/><rect x="94" y="15" width="1" height="1"/><rect x="93" y="16" width="1" height="1"/><rect x="92" y="17" width="1" height="1"/><rect x="91" y="18" width="1" height="1"/><rect y="20" width="1" height="1"/><rect x="1" y="21" width="1" height="1"/><rect x="2" y="22" width="1" height="1"/><rect x="3" y="23" width="1" height="1"/><rect x="4" y="24" width="1" height="1"/><rect x="5" y="25" width="1" height="1"/><rect x="6" y="26" width="1" height="1"/><rect x="7" y="27" width="1" height="1"/><rect x="8" y="28" width="1" height="1"/><rect x="9" y="29" width="2" height="1"/><rect x="18" y="21" width="1" height="1"/><rect x="17" y="22" width="1" height="1"/><rect x="16" y="23" width="1" height="1"/><rect x="15" y="24" width="1" height="1"/><rect x="14" y="25" width="1" height="1"/><rect x="13" y="26" width="1" height="1"/><rect x="12" y="27" width="1" height="1"/><rect x="11" y="28" width="1" height="1"/><rect x="19" y="20" width="2" height="1"/><rect x="21" y="21" width="1" height="1"/><rect x="22" y="22" width="1" height="1"/><rect x="23" y="23" width="1" height="1"/><rect x="24" y="24" width="1" height="1"/><rect x="25" y="25" width="1" height="1"/><rect x="26" y="26" width="1" height="1"/><rect x="27" y="27" width="1" height="1"/><rect x="28" y="28" width="1" height="1"/><rect x="29" y="29" width="2" height="1"/><rect x="38" y="21" width="1" height="1"/><rect x="37" y="22" width="1" height="1"/><rect x="36" y="23" width="1" height="1"/><rect x="35" y="24" width="1" height="1"/><rect x="34" y="25" width="1" height="1"/><rect x="33" y="26" width="1" height="1"/><rect x="32" y="27" width="1" height="1"/><rect x="31" y="28" width="1" height="1"/><rect x="39" y="20" width="2" height="1"/><rect x="41" y="21" width="1" height="1"/><rect x="42" y="22" width="1" height="1"/><rect x="43" y="23" width="1" height="1"/><rect x="44" y="24" width="1" height="1"/><rect x="45" y="25" width="1" height="1"/><rect x="46" y="26" width="1" height="1"/><rect x="47" y="27" width="1" height="1"/><rect x="48" y="28" width="1" height="1"/><rect x="49" y="29" width="2" height="1"/><rect x="58" y="21" width="1" height="1"/><rect x="57" y="22" width="1" height="1"/><rect x="56" y="23" width="1" height="1"/><rect x="55" y="24" width="1" height="1"/><rect x="54" y="25" width="1" height="1"/><rect x="53" y="26" width="1" height="1"/><rect x="52" y="27" width="1" height="1"/><rect x="51" y="28" width="1" height="1"/><rect x="59" y="20" width="2" height="1"/><rect x="61" y="21" width="1" height="1"/><rect x="62" y="22" width="1" height="1"/><rect x="63" y="23" width="1" height="1"/><rect x="64" y="24" width="1" height="1"/><rect x="65" y="25" width="1" height="1"/><rect x="66" y="26" width="1" height="1"/><rect x="67" y="27" width="1" height="1"/><rect x="68" y="28" width="1" height="1"/><rect x="69" y="29" width="2" height="1"/><rect x="78" y="21" width="1" height="1"/><rect x="77" y="22" width="1" height="1"/><rect x="76" y="23" width="1" height="1"/><rect x="75" y="24" width="1" height="1"/><rect x="74" y="25" width="1" height="1"/><rect x="73" y="26" width="1" height="1"/><rect x="72" y="27" width="1" height="1"/><rect x="71" y="28" width="1" height="1"/><rect x="79" y="20" width="2" height="1"/><rect x="81" y="21" width="1" height="1"/><rect x="82" y="22" width="1" height="1"/><rect x="83" y="23" width="1" height="1"/><rect x="84" y="24" width="1" height="1"/><rect x="85" y="25" width="1" height="1"/><rect x="86" y="26" width="1" height="1"/><rect x="87" y="27" width="1" height="1"/><rect x="88" y="28" width="1" height="1"/><rect x="89" y="29" width="2" height="1"/><rect x="99" y="20" width="1" height="1"/><rect x="98" y="21" width="1" height="1"/><rect x="97" y="22" width="1" height="1"/><rect x="96" y="23" width="1" height="1"/><rect x="95" y="24" width="1" height="1"/><rect x="94" y="25" width="1" height="1"/><rect x="93" y="26" width="1" height="1"/><rect x="92" y="27" width="1" height="1"/><rect x="91" y="28" width="1" height="1"/><rect y="30" width="1" height="1"/><rect x="1" y="31" width="1" height="1"/><rect x="2" y="32" width="1" height="1"/><rect x="3" y="33" width="1" height="1"/><rect x="4" y="34" width="1" height="1"/><rect x="5" y="35" width="1" height="1"/><rect x="6" y="36" width="1" height="1"/><rect x="7" y="37" width="1" height="1"/><rect x="8" y="38" width="1" height="1"/><rect x="9" y="39" width="2" height="1"/><rect x="18" y="31" width="1" height="1"/><rect x="17" y="32" width="1" height="1"/><rect x="16" y="33" width="1" height="1"/><rect x="15" y="34" width="1" height="1"/><rect x="14" y="35" width="1" height="1"/><rect x="13" y="36" width="1" height="1"/><rect x="12" y="37" width="1" height="1"/><rect x="11" y="38" width="1" height="1"/><rect x="19" y="30" width="2" height="1"/><rect x="21" y="31" width="1" height="1"/><rect x="22" y="32" width="1" height="1"/><rect x="23" y="33" width="1" height="1"/><rect x="24" y="34" width="1" height="1"/><rect x="25" y="35" width="1" height="1"/><rect x="26" y="36" width="1" height="1"/><rect x="27" y="37" width="1" height="1"/><rect x="28" y="38" width="1" height="1"/><rect x="29" y="39" width="2" height="1"/><rect x="38" y="31" width="1" height="1"/><rect x="37" y="32" width="1" height="1"/><rect x="36" y="33" width="1" height="1"/><rect x="35" y="34" width="1" height="1"/><rect x="34" y="35" width="1" height="1"/><rect x="33" y="36" width="1" height="1"/><rect x="32" y="37" width="1" height="1"/><rect x="31" y="38" width="1" height="1"/><rect x="39" y="30" width="2" height="1"/><rect x="41" y="31" width="1" height="1"/><rect x="42" y="32" width="1" height="1"/><rect x="43" y="33" width="1" height="1"/><rect x="44" y="34" width="1" height="1"/><rect x="45" y="35" width="1" height="1"/><rect x="46" y="36" width="1" height="1"/><rect x="47" y="37" width="1" height="1"/><rect x="48" y="38" width="1" height="1"/><rect x="49" y="39" width="2" height="1"/><rect x="58" y="31" width="1" height="1"/><rect x="57" y="32" width="1" height="1"/><rect x="56" y="33" width="1" height="1"/><rect x="55" y="34" width="1" height="1"/><rect x="54" y="35" width="1" height="1"/><rect x="53" y="36" width="1" height="1"/><rect x="52" y="37" width="1" height="1"/><rect x="51" y="38" width="1" height="1"/><rect x="59" y="30" width="2" height="1"/><rect x="61" y="31" width="1" height="1"/><rect x="62" y="32" width="1" height="1"/><rect x="63" y="33" width="1" height="1"/><rect x="64" y="34" width="1" height="1"/><rect x="65" y="35" width="1" height="1"/><rect x="66" y="36" width="1" height="1"/><rect x="67" y="37" width="1" height="1"/><rect x="68" y="38" width="1" height="1"/><rect x="69" y="39" width="2" height="1"/><rect x="78" y="31" width="1" height="1"/><rect x="77" y="32" width="1" height="1"/><rect x="76" y="33" width="1" height="1"/><rect x="75" y="34" width="1" height="1"/><rect x="74" y="35" width="1" height="1"/><rect x="73" y="36" width="1" height="1"/><rect x="72" y="37" width="1" height="1"/><rect x="71" y="38" width="1" height="1"/><rect x="79" y="30" width="2" height="1"/><rect x="81" y="31" width="1" height="1"/><rect x="82" y="32" width="1" height="1"/><rect x="83" y="33" width="1" height="1"/><rect x="84" y="34" width="1" height="1"/><rect x="85" y="35" width="1" height="1"/><rect x="86" y="36" width="1" height="1"/><rect x="87" y="37" width="1" height="1"/><rect x="88" y="38" width="1" height="1"/><rect x="89" y="39" width="2" height="1"/><rect x="99" y="30" width="1" height="1"/><rect x="98" y="31" width="1" height="1"/><rect x="97" y="32" width="1" height="1"/><rect x="96" y="33" width="1" height="1"/><rect x="95" y="34" width="1" height="1"/><rect x="94" y="35" width="1" height="1"/><rect x="93" y="36" width="1" height="1"/><rect x="92" y="37" width="1" height="1"/><rect x="91" y="38" width="1" height="1"/><rect y="40" width="1" height="1"/><rect x="1" y="41" width="1" height="1"/><rect x="2" y="42" width="1" height="1"/><rect x="3" y="43" width="1" height="1"/><rect x="4" y="44" width="1" height="1"/><rect x="5" y="45" width="1" height="1"/><rect x="6" y="46" width="1" height="1"/><rect x="7" y="47" width="1" height="1"/><rect x="8" y="48" width="1" height="1"/><rect x="9" y="49" width="2" height="1"/><rect x="18" y="41" width="1" height="1"/><rect x="17" y="42" width="1" height="1"/><rect x="16" y="43" width="1" height="1"/><rect x="15" y="44" width="1" height="1"/><rect x="14" y="45" width="1" height="1"/><rect x="13" y="46" width="1" height="1"/><rect x="12" y="47" width="1" height="1"/><rect x="11" y="48" width="1" height="1"/><rect x="19" y="40" width="2" height="1"/><rect x="21" y="41" width="1" height="1"/><rect x="22" y="42" width="1" height="1"/><rect x="23" y="43" width="1" height="1"/><rect x="24" y="44" width="1" height="1"/><rect x="25" y="45" width="1" height="1"/><rect x="26" y="46" width="1" height="1"/><rect x="27" y="47" width="1" height="1"/><rect x="28" y="48" width="1" height="1"/><rect x="29" y="49" width="2" height="1"/><rect x="38" y="41" width="1" height="1"/><rect x="37" y="42" width="1" height="1"/><rect x="36" y="43" width="1" height="1"/><rect x="35" y="44" width="1" height="1"/><rect x="34" y="45" width="1" height="1"/><rect x="33" y="46" width="1" height="1"/><rect x="32" y="47" width="1" height="1"/><rect x="31" y="48" width="1" height="1"/><rect x="39" y="40" width="2" height="1"/><rect x="41" y="41" width="1" height="1"/><rect x="42" y="42" width="1" height="1"/><rect x="43" y="43" width="1" height="1"/><rect x="44" y="44" width="1" height="1"/><rect x="45" y="45" width="1" height="1"/><rect x="46" y="46" width="1" height="1"/><rect x="47" y="47" width="1" height="1"/><rect x="48" y="48" width="1" height="1"/><rect x="49" y="49" width="2" height="1"/><rect x="58" y="41" width="1" height="1"/><rect x="57" y="42" width="1" height="1"/><rect x="56" y="43" width="1" height="1"/><rect x="55" y="44" width="1" height="1"/><rect x="54" y="45" width="1" height="1"/><rect x="53" y="46" width="1" height="1"/><rect x="52" y="47" width="1" height="1"/><rect x="51" y="48" width="1" height="1"/><rect x="59" y="40" width="2" height="1"/><rect x="61" y="41" width="1" height="1"/><rect x="62" y="42" width="1" height="1"/><rect x="63" y="43" width="1" height="1"/><rect x="64" y="44" width="1" height="1"/><rect x="65" y="45" width="1" height="1"/><rect x="66" y="46" width="1" height="1"/><rect x="67" y="47" width="1" height="1"/><rect x="68" y="48" width="1" height="1"/><rect x="69" y="49" width="2" height="1"/><rect x="78" y="41" width="1" height="1"/><rect x="77" y="42" width="1" height="1"/><rect x="76" y="43" width="1" height="1"/><rect x="75" y="44" width="1" height="1"/><rect x="74" y="45" width="1" height="1"/><rect x="73" y="46" width="1" height="1"/><rect x="72" y="47" width="1" height="1"/><rect x="71" y="48" width="1" height="1"/><rect x="79" y="40" width="2" height="1"/><rect x="81" y="41" width="1" height="1"/><rect x="82" y="42" width="1" height="1"/><rect x="83" y="43" width="1" height="1"/><rect x="84" y="44" width="1" height="1"/><rect x="85" y="45" width="1" height="1"/><rect x="86" y="46" width="1" height="1"/><rect x="87" y="47" width="1" height="1"/><rect x="88" y="48" width="1" height="1"/><rect x="89" y="49" width="2" height="1"/><rect x="99" y="40" width="1" height="1"/><rect x="98" y="41" width="1" height="1"/><rect x="97" y="42" width="1" height="1"/><rect x="96" y="43" width="1" height="1"/><rect x="95" y="44" width="1" height="1"/><rect x="94" y="45" width="1" height="1"/><rect x="93" y="46" width="1" height="1"/><rect x="92" y="47" width="1" height="1"/><rect x="91" y="48" width="1" height="1"/><rect y="50" width="1" height="1"/><rect x="1" y="51" width="1" height="1"/><rect x="2" y="52" width="1" height="1"/><rect x="3" y="53" width="1" height="1"/><rect x="4" y="54" width="1" height="1"/><rect x="5" y="55" width="1" height="1"/><rect x="6" y="56" width="1" height="1"/><rect x="7" y="57" width="1" height="1"/><rect x="8" y="58" width="1" height="1"/><rect x="9" y="59" width="2" height="1"/><rect x="18" y="51" width="1" height="1"/><rect x="17" y="52" width="1" height="1"/><rect x="16" y="53" width="1" height="1"/><rect x="15" y="54" width="1" height="1"/><rect x="14" y="55" width="1" height="1"/><rect x="13" y="56" width="1" height="1"/><rect x="12" y="57" width="1" height="1"/><rect x="11" y="58" width="1" height="1"/><rect x="19" y="50" width="2" height="1"/><rect x="21" y="51" width="1" height="1"/><rect x="22" y="52" width="1" height="1"/><rect x="23" y="53" width="1" height="1"/><rect x="24" y="54" width="1" height="1"/><rect x="25" y="55" width="1" height="1"/><rect x="26" y="56" width="1" height="1"/><rect x="27" y="57" width="1" height="1"/><rect x="28" y="58" width="1" height="1"/><rect x="29" y="59" width="2" height="1"/><rect x="38" y="51" width="1" height="1"/><rect x="37" y="52" width="1" height="1"/><rect x="36" y="53" width="1" height="1"/><rect x="35" y="54" width="1" height="1"/><rect x="34" y="55" width="1" height="1"/><rect x="33" y="56" width="1" height="1"/><rect x="32" y="57" width="1" height="1"/><rect x="31" y="58" width="1" height="1"/><rect x="39" y="50" width="2" height="1"/><rect x="41" y="51" width="1" height="1"/><rect x="42" y="52" width="1" height="1"/><rect x="43" y="53" width="1" height="1"/><rect x="44" y="54" width="1" height="1"/><rect x="45" y="55" width="1" height="1"/><rect x="46" y="56" width="1" height="1"/><rect x="47" y="57" width="1" height="1"/><rect x="48" y="58" width="1" height="1"/><rect x="49" y="59" width="2" height="1"/><rect x="58" y="51" width="1" height="1"/><rect x="57" y="52" width="1" height="1"/><rect x="56" y="53" width="1" height="1"/><rect x="55" y="54" width="1" height="1"/><rect x="54" y="55" width="1" height="1"/><rect x="53" y="56" width="1" height="1"/><rect x="52" y="57" width="1" height="1"/><rect x="51" y="58" width="1" height="1"/><rect x="59" y="50" width="2" height="1"/><rect x="61" y="51" width="1" height="1"/><rect x="62" y="52" width="1" height="1"/><rect x="63" y="53" width="1" height="1"/><rect x="64" y="54" width="1" height="1"/><rect x="65" y="55" width="1" height="1"/><rect x="66" y="56" width="1" height="1"/><rect x="67" y="57" width="1" height="1"/><rect x="68" y="58" width="1" height="1"/><rect x="69" y="59" width="2" height="1"/><rect x="78" y="51" width="1" height="1"/><rect x="77" y="52" width="1" height="1"/><rect x="76" y="53" width="1" height="1"/><rect x="75" y="54" width="1" height="1"/><rect x="74" y="55" width="1" height="1"/><rect x="73" y="56" width="1" height="1"/><rect x="72" y="57" width="1" height="1"/><rect x="71" y="58" width="1" height="1"/><rect x="79" y="50" width="2" height="1"/><rect x="81" y="51" width="1" height="1"/><rect x="82" y="52" width="1" height="1"/><rect x="83" y="53" width="1" height="1"/><rect x="84" y="54" width="1" height="1"/><rect x="85" y="55" width="1" height="1"/><rect x="86" y="56" width="1" height="1"/><rect x="87" y="57" width="1" height="1"/><rect x="88" y="58" width="1" height="1"/><rect x="89" y="59" width="2" height="1"/><rect x="99" y="50" width="1" height="1"/><rect x="98" y="51" width="1" height="1"/><rect x="97" y="52" width="1" height="1"/><rect x="96" y="53" width="1" height="1"/><rect x="95" y="54" width="1" height="1"/><rect x="94" y="55" width="1" height="1"/><rect x="93" y="56" width="1" height="1"/><rect x="92" y="57" width="1" height="1"/><rect x="91" y="58" width="1" height="1"/><rect y="60" width="1" height="1"/><rect x="1" y="61" width="1" height="1"/><rect x="2" y="62" width="1" height="1"/><rect x="3" y="63" width="1" height="1"/><rect x="4" y="64" width="1" height="1"/><rect x="5" y="65" width="1" height="1"/><rect x="6" y="66" width="1" height="1"/><rect x="7" y="67" width="1" height="1"/><rect x="8" y="68" width="1" height="1"/><rect x="9" y="69" width="2" height="1"/><rect x="18" y="61" width="1" height="1"/><rect x="17" y="62" width="1" height="1"/><rect x="16" y="63" width="1" height="1"/><rect x="15" y="64" width="1" height="1"/><rect x="14" y="65" width="1" height="1"/><rect x="13" y="66" width="1" height="1"/><rect x="12" y="67" width="1" height="1"/><rect x="11" y="68" width="1" height="1"/><rect x="19" y="60" width="2" height="1"/><rect x="21" y="61" width="1" height="1"/><rect x="22" y="62" width="1" height="1"/><rect x="23" y="63" width="1" height="1"/><rect x="24" y="64" width="1" height="1"/><rect x="25" y="65" width="1" height="1"/><rect x="26" y="66" width="1" height="1"/><rect x="27" y="67" width="1" height="1"/><rect x="28" y="68" width="1" height="1"/><rect x="29" y="69" width="2" height="1"/><rect x="38" y="61" width="1" height="1"/><rect x="37" y="62" width="1" height="1"/><rect x="36" y="63" width="1" height="1"/><rect x="35" y="64" width="1" height="1"/><rect x="34" y="65" width="1" height="1"/><rect x="33" y="66" width="1" height="1"/><rect x="32" y="67" width="1" height="1"/><rect x="31" y="68" width="1" height="1"/><rect x="39" y="60" width="2" height="1"/><rect x="41" y="61" width="1" height="1"/><rect x="42" y="62" width="1" height="1"/><rect x="43" y="63" width="1" height="1"/><rect x="44" y="64" width="1" height="1"/><rect x="45" y="65" width="1" height="1"/><rect x="46" y="66" width="1" height="1"/><rect x="47" y="67" width="1" height="1"/><rect x="48" y="68" width="1" height="1"/><rect x="49" y="69" width="2" height="1"/><rect x="58" y="61" width="1" height="1"/><rect x="57" y="62" width="1" height="1"/><rect x="56" y="63" width="1" height="1"/><rect x="55" y="64" width="1" height="1"/><rect x="54" y="65" width="1" height="1"/><rect x="53" y="66" width="1" height="1"/><rect x="52" y="67" width="1" height="1"/><rect x="51" y="68" width="1" height="1"/><rect x="59" y="60" width="2" height="1"/><rect x="61" y="61" width="1" height="1"/><rect x="62" y="62" width="1" height="1"/><rect x="63" y="63" width="1" height="1"/><rect x="64" y="64" width="1" height="1"/><rect x="65" y="65" width="1" height="1"/><rect x="66" y="66" width="1" height="1"/><rect x="67" y="67" width="1" height="1"/><rect x="68" y="68" width="1" height="1"/><rect x="69" y="69" width="2" height="1"/><rect x="78" y="61" width="1" height="1"/><rect x="77" y="62" width="1" height="1"/><rect x="76" y="63" width="1" height="1"/><rect x="75" y="64" width="1" height="1"/><rect x="74" y="65" width="1" height="1"/><rect x="73" y="66" width="1" height="1"/><rect x="72" y="67" width="1" height="1"/><rect x="71" y="68" width="1" height="1"/><rect x="79" y="60" width="2" height="1"/><rect x="81" y="61" width="1" height="1"/><rect x="82" y="62" width="1" height="1"/><rect x="83" y="63" width="1" height="1"/><rect x="84" y="64" width="1" height="1"/><rect x="85" y="65" width="1" height="1"/><rect x="86" y="66" width="1" height="1"/><rect x="87" y="67" width="1" height="1"/><rect x="88" y="68" width="1" height="1"/><rect x="89" y="69" width="2" height="1"/><rect x="99" y="60" width="1" height="1"/><rect x="98" y="61" width="1" height="1"/><rect x="97" y="62" width="1" height="1"/><rect x="96" y="63" width="1" height="1"/><rect x="95" y="64" width="1" height="1"/><rect x="94" y="65" width="1" height="1"/><rect x="93" y="66" width="1" height="1"/><rect x="92" y="67" width="1" height="1"/><rect x="91" y="68" width="1" height="1"/><rect y="70" width="1" height="1"/><rect x="1" y="71" width="1" height="1"/><rect x="2" y="72" width="1" height="1"/><rect x="3" y="73" width="1" height="1"/><rect x="4" y="74" width="1" height="1"/><rect x="5" y="75" width="1" height="1"/><rect x="6" y="76" width="1" height="1"/><rect x="7" y="77" width="1" height="1"/><rect x="8" y="78" width="1" height="1"/><rect x="9" y="79" width="2" height="1"/><rect x="18" y="71" width="1" height="1"/><rect x="17" y="72" width="1" height="1"/><rect x="16" y="73" width="1" height="1"/><rect x="15" y="74" width="1" height="1"/><rect x="14" y="75" width="1" height="1"/><rect x="13" y="76" width="1" height="1"/><rect x="12" y="77" width="1" height="1"/><rect x="11" y="78" width="1" height="1"/><rect x="19" y="70" width="2" height="1"/><rect x="21" y="71" width="1" height="1"/><rect x="22" y="72" width="1" height="1"/><rect x="23" y="73" width="1" height="1"/><rect x="24" y="74" width="1" height="1"/><rect x="25" y="75" width="1" height="1"/><rect x="26" y="76" width="1" height="1"/><rect x="27" y="77" width="1" height="1"/><rect x="28" y="78" width="1" height="1"/><rect x="29" y="79" width="2" height="1"/><rect x="38" y="71" width="1" height="1"/><rect x="37" y="72" width="1" height="1"/><rect x="36" y="73" width="1" height="1"/><rect x="35" y="74" width="1" height="1"/><rect x="34" y="75" width="1" height="1"/><rect x="33" y="76" width="1" height="1"/><rect x="32" y="77" width="1" height="1"/><rect x="31" y="78" width="1" height="1"/><rect x="39" y="70" width="2" height="1"/><rect x="41" y="71" width="1" height="1"/><rect x="42" y="72" width="1" height="1"/><rect x="43" y="73" width="1" height="1"/><rect x="44" y="74" width="1" height="1"/><rect x="45" y="75" width="1" height="1"/><rect x="46" y="76" width="1" height="1"/><rect x="47" y="77" width="1" height="1"/><rect x="48" y="78" width="1" height="1"/><rect x="49" y="79" width="2" height="1"/><rect x="58" y="71" width="1" height="1"/><rect x="57" y="72" width="1" height="1"/><rect x="56" y="73" width="1" height="1"/><rect x="55" y="74" width="1" height="1"/><rect x="54" y="75" width="1" height="1"/><rect x="53" y="76" width="1" height="1"/><rect x="52" y="77" width="1" height="1"/><rect x="51" y="78" width="1" height="1"/><rect x="59" y="70" width="2" height="1"/><rect x="61" y="71" width="1" height="1"/><rect x="62" y="72" width="1" height="1"/><rect x="63" y="73" width="1" height="1"/><rect x="64" y="74" width="1" height="1"/><rect x="65" y="75" width="1" height="1"/><rect x="66" y="76" width="1" height="1"/><rect x="67" y="77" width="1" height="1"/><rect x="68" y="78" width="1" height="1"/><rect x="69" y="79" width="2" height="1"/><rect x="78" y="71" width="1" height="1"/><rect x="77" y="72" width="1" height="1"/><rect x="76" y="73" width="1" height="1"/><rect x="75" y="74" width="1" height="1"/><rect x="74" y="75" width="1" height="1"/><rect x="73" y="76" width="1" height="1"/><rect x="72" y="77" width="1" height="1"/><rect x="71" y="78" width="1" height="1"/><rect x="79" y="70" width="2" height="1"/><rect x="81" y="71" width="1" height="1"/><rect x="82" y="72" width="1" height="1"/><rect x="83" y="73" width="1" height="1"/><rect x="84" y="74" width="1" height="1"/><rect x="85" y="75" width="1" height="1"/><rect x="86" y="76" width="1" height="1"/><rect x="87" y="77" width="1" height="1"/><rect x="88" y="78" width="1" height="1"/><rect x="89" y="79" width="2" height="1"/><rect x="99" y="70" width="1" height="1"/><rect x="98" y="71" width="1" height="1"/><rect x="97" y="72" width="1" height="1"/><rect x="96" y="73" width="1" height="1"/><rect x="95" y="74" width="1" height="1"/><rect x="94" y="75" width="1" height="1"/><rect x="93" y="76" width="1" height="1"/><rect x="92" y="77" width="1" height="1"/><rect x="91" y="78" width="1" height="1"/><rect y="80" width="1" height="1"/><rect x="1" y="81" width="1" height="1"/><rect x="2" y="82" width="1" height="1"/><rect x="3" y="83" width="1" height="1"/><rect x="4" y="84" width="1" height="1"/><rect x="5" y="85" width="1" height="1"/><rect x="6" y="86" width="1" height="1"/><rect x="7" y="87" width="1" height="1"/><rect x="8" y="88" width="1" height="1"/><rect x="9" y="89" width="2" height="1"/><rect x="18" y="81" width="1" height="1"/><rect x="17" y="82" width="1" height="1"/><rect x="16" y="83" width="1" height="1"/><rect x="15" y="84" width="1" height="1"/><rect x="14" y="85" width="1" height="1"/><rect x="13" y="86" width="1" height="1"/><rect x="12" y="87" width="1" height="1"/><rect x="11" y="88" width="1" height="1"/><rect x="19" y="80" width="2" height="1"/><rect x="21" y="81" width="1" height="1"/><rect x="22" y="82" width="1" height="1"/><rect x="23" y="83" width="1" height="1"/><rect x="24" y="84" width="1" height="1"/><rect x="25" y="85" width="1" height="1"/><rect x="26" y="86" width="1" height="1"/><rect x="27" y="87" width="1" height="1"/><rect x="28" y="88" width="1" height="1"/><rect x="29" y="89" width="2" height="1"/><rect x="38" y="81" width="1" height="1"/><rect x="37" y="82" width="1" height="1"/><rect x="36" y="83" width="1" height="1"/><rect x="35" y="84" width="1" height="1"/><rect x="34" y="85" width="1" height="1"/><rect x="33" y="86" width="1" height="1"/><rect x="32" y="87" width="1" height="1"/><rect x="31" y="88" width="1" height="1"/><rect x="39" y="80" width="2" height="1"/><rect x="41" y="81" width="1" height="1"/><rect x="42" y="82" width="1" height="1"/><rect x="43" y="83" width="1" height="1"/><rect x="44" y="84" width="1" height="1"/><rect x="45" y="85" width="1" height="1"/><rect x="46" y="86" width="1" height="1"/><rect x="47" y="87" width="1" height="1"/><rect x="48" y="88" width="1" height="1"/><rect x="49" y="89" width="2" height="1"/><rect x="58" y="81" width="1" height="1"/><rect x="57" y="82" width="1" height="1"/><rect x="56" y="83" width="1" height="1"/><rect x="55" y="84" width="1" height="1"/><rect x="54" y="85" width="1" height="1"/><rect x="53" y="86" width="1" height="1"/><rect x="52" y="87" width="1" height="1"/><rect x="51" y="88" width="1" height="1"/><rect x="59" y="80" width="2" height="1"/><rect x="61" y="81" width="1" height="1"/><rect x="62" y="82" width="1" height="1"/><rect x="63" y="83" width="1" height="1"/><rect x="64" y="84" width="1" height="1"/><rect x="65" y="85" width="1" height="1"/><rect x="66" y="86" width="1" height="1"/><rect x="67" y="87" width="1" height="1"/><rect x="68" y="88" width="1" height="1"/><rect x="69" y="89" width="2" height="1"/><rect x="78" y="81" width="1" height="1"/><rect x="77" y="82" width="1" height="1"/><rect x="76" y="83" width="1" height="1"/><rect x="75" y="84" width="1" height="1"/><rect x="74" y="85" width="1" height="1"/><rect x="73" y="86" width="1" height="1"/><rect x="72" y="87" width="1" height="1"/><rect x="71" y="88" width="1" height="1"/><rect x="79" y="80" width="2" height="1"/><rect x="81" y="81" width="1" height="1"/><rect x="82" y="82" width="1" height="1"/><rect x="83" y="83" width="1" height="1"/><rect x="84" y="84" width="1" height="1"/><rect x="85" y="85" width="1" height="1"/><rect x="86" y="86" width="1" height="1"/><rect x="87" y="87" width="1" height="1"/><rect x="88" y="88" width="1" height="1"/><rect x="89" y="89" width="2" height="1"/><rect x="99" y="80" width="1" height="1"/><rect x="98" y="81" width="1" height="1"/><rect x="97" y="82" width="1" height="1"/><rect x="96" y="83" width="1" height="1"/><rect x="95" y="84" width="1" height="1"/><rect x="94" y="85" width="1" height="1"/><rect x="93" y="86" width="1" height="1"/><rect x="92" y="87" width="1" height="1"/><rect x="91" y="88" width="1" height="1"/><rect y="90" width="1" height="1"/><rect x="1" y="91" width="1" height="1"/><rect x="2" y="92" width="1" height="1"/><rect x="3" y="93" width="1" height="1"/><rect x="4" y="94" width="1" height="1"/><rect x="5" y="95" width="1" height="1"/><rect x="6" y="96" width="1" height="1"/><rect x="7" y="97" width="1" height="1"/><rect x="8" y="98" width="1" height="1"/><rect x="9" y="99" width="2" height="1"/><rect x="18" y="91" width="1" height="1"/><rect x="17" y="92" width="1" height="1"/><rect x="16" y="93" width="1" height="1"/><rect x="15" y="94" width="1" height="1"/><rect x="14" y="95" width="1" height="1"/><rect x="13" y="96" width="1" height="1"/><rect x="12" y="97" width="1" height="1"/><rect x="11" y="98" width="1" height="1"/><rect x="19" y="90" width="2" height="1"/><rect x="21" y="91" width="1" height="1"/><rect x="22" y="92" width="1" height="1"/><rect x="23" y="93" width="1" height="1"/><rect x="24" y="94" width="1" height="1"/><rect x="25" y="95" width="1" height="1"/><rect x="26" y="96" width="1" height="1"/><rect x="27" y="97" width="1" height="1"/><rect x="28" y="98" width="1" height="1"/><rect x="29" y="99" width="2" height="1"/><rect x="38" y="91" width="1" height="1"/><rect x="37" y="92" width="1" height="1"/><rect x="36" y="93" width="1" height="1"/><rect x="35" y="94" width="1" height="1"/><rect x="34" y="95" width="1" height="1"/><rect x="33" y="96" width="1" height="1"/><rect x="32" y="97" width="1" height="1"/><rect x="31" y="98" width="1" height="1"/><rect x="39" y="90" width="2" height="1"/><rect x="41" y="91" width="1" height="1"/><rect x="42" y="92" width="1" height="1"/><rect x="43" y="93" width="1" height="1"/><rect x="44" y="94" width="1" height="1"/><rect x="45" y="95" width="1" height="1"/><rect x="46" y="96" width="1" height="1"/><rect x="47" y="97" width="1" height="1"/><rect x="48" y="98" width="1" height="1"/><rect x="49" y="99" width="2" height="1"/><rect x="58" y="91" width="1" height="1"/><rect x="57" y="92" width="1" height="1"/><rect x="56" y="93" width="1" height="1"/><rect x="55" y="94" width="1" height="1"/><rect x="54" y="95" width="1" height="1"/><rect x="53" y="96" width="1" height="1"/><rect x="52" y="97" width="1" height="1"/><rect x="51" y="98" width="1" height="1"/><rect x="59" y="90" width="2" height="1"/><rect x="61" y="91" width="1" height="1"/><rect x="62" y="92" width="1" height="1"/><rect x="63" y="93" width="1" height="1"/><rect x="64" y="94" width="1" height="1"/><rect x="65" y="95" width="1" height="1"/><rect x="66" y="96" width="1" height="1"/><rect x="67" y="97" width="1" height="1"/><rect x="68" y="98" width="1" height="1"/><rect x="69" y="99" width="2" height="1"/><rect x="78" y="91" width="1" height="1"/><rect x="77" y="92" width="1" height="1"/><rect x="76" y="93" width="1" height="1"/><rect x="75" y="94" width="1" height="1"/><rect x="74" y="95" width="1" height="1"/><rect x="73" y="96" width="1" height="1"/><rect x="72" y="97" width="1" height="1"/><rect x="71" y="98" width="1" height="1"/><rect x="79" y="90" width="2" height="1"/><rect x="81" y="91" width="1" height="1"/><rect x="82" y="92" width="1" height="1"/><rect x="83" y="93" width="1" height="1"/><rect x="84" y="94" width="1" height="1"/><rect x="85" y="95" width="1" height="1"/><rect x="86" y="96" width="1" height="1"/><rect x="87" y="97" width="1" height="1"/><rect x="88" y="98" width="1" height="1"/><rect x="89" y="99" width="2" height="1"/><rect x="99" y="90" width="1" height="1"/><rect x="98" y="91" width="1" height="1"/><rect x="97" y="92" width="1" height="1"/><rect x="96" y="93" width="1" height="1"/><rect x="95" y="94" width="1" height="1"/><rect x="94" y="95" width="1" height="1"/><rect x="93" y="96" width="1" height="1"/><rect x="92" y="97" width="1" height="1"/><rect x="91" y="98" width="1" height="1"/></svg>