<svg id="Layer_1" data-name="Layer 1" xmlns="http://www.w3.org/2000/svg" viewBox="0 0 100 100"><title>pattern-71-71</title><rect x="6" width="1" height="1"/><rect x="2" y="2" width="1" height="1"/><rect x="7" y="2" width="1" height="1"/><rect x="8" y="5" width="1" height="1"/><rect x="6" y="5" width="1" height="1"/><rect x="4" y="4" width="1" height="1"/><rect x="1" y="6" width="1" height="1"/><rect x="4" y="7" width="1" height="1"/><rect x="9" y="7" width="1" height="1"/><rect x="9" y="9" width="1" height="1"/><rect x="13" width="1" height="1"/><rect x="20" width="1" height="1"/><rect x="26" width="1" height="1"/><rect x="32" width="1" height="1"/><rect x="38" width="1" height="1"/><rect x="40" width="1" height="1"/><rect x="45" width="1" height="1"/><rect x="47" width="1" height="1"/><rect x="62" width="1" height="1"/><rect x="68" width="1" height="1"/><rect x="71" width="1" height="1"/><rect x="89" width="1" height="1"/><rect x="94" width="1" height="1"/><rect x="79" y="1" width="1" height="1"/><rect x="74" y="1" width="1" height="1"/><rect x="54" y="1" width="1" height="1"/><rect x="41" y="1" width="1" height="1"/><rect x="33" y="1" width="1" height="1"/><rect x="11" y="2" width="1" height="1"/><rect x="15" y="2" width="1" height="1"/><rect x="21" y="2" width="1" height="1"/><rect x="26" y="2" width="1" height="1"/><rect x="50" y="2" width="1" height="1"/><rect x="56" y="2" width="1" height="1"/><rect x="59" y="2" width="1" height="1"/><rect x="84" y="2" width="1" height="1"/><rect x="97" y="3" width="1" height="1"/><rect x="95" y="3" width="1" height="1"/><rect x="90" y="3" width="1" height="1"/><rect x="80" y="3" width="1" height="1"/><rect x="76" y="3" width="1" height="1"/><rect x="71" y="3" width="1" height="1"/><rect x="66" y="3" width="1" height="1"/><rect x="63" y="3" width="1" height="1"/><rect x="46" y="3" width="1" height="1"/><rect x="43" y="3" width="1" height="1"/><rect x="28" y="3" width="1" height="1"/><rect x="23" y="3" width="1" height="1"/><rect x="18" y="3" width="1" height="1"/><rect x="12" y="5" width="1" height="1"/><rect x="29" y="4" width="1" height="1"/><rect x="35" y="4" width="1" height="1"/><rect x="67" y="4" width="1" height="1"/><rect x="72" y="4" width="1" height="1"/><rect x="81" y="4" width="1" height="1"/><rect x="86" y="4" width="1" height="1"/><rect x="91" y="4" width="1" height="1"/><rect x="97" y="5" width="1" height="1"/><rect x="59" y="5" width="1" height="1"/><rect x="55" y="5" width="1" height="1"/><rect x="51" y="5" width="1" height="1"/><rect x="49" y="5" width="1" height="1"/><rect x="37" y="5" width="1" height="1"/><rect x="31" y="5" width="1" height="1"/><rect x="14" y="6" width="1" height="1"/><rect x="23" y="6" width="1" height="1"/><rect x="39" y="6" width="1" height="1"/><rect x="46" y="6" width="1" height="1"/><rect x="63" y="6" width="1" height="1"/><rect x="76" y="6" width="1" height="1"/><rect x="83" y="6" width="1" height="1"/><rect x="87" y="6" width="1" height="1"/><rect x="93" y="6" width="1" height="1"/><rect x="73" y="7" width="1" height="1"/><rect x="68" y="7" width="1" height="1"/><rect x="57" y="7" width="1" height="1"/><rect x="44" y="7" width="1" height="1"/><rect x="19" y="7" width="1" height="1"/><rect x="17" y="7" width="1" height="1"/><rect x="20" y="8" width="1" height="1"/><rect x="26" y="8" width="1" height="1"/><rect x="30" y="8" width="1" height="1"/><rect x="33" y="8" width="1" height="1"/><rect x="40" y="8" width="1" height="1"/><rect x="47" y="8" width="1" height="1"/><rect x="52" y="8" width="1" height="1"/><rect x="58" y="8" width="1" height="1"/><rect x="77" y="8" width="1" height="1"/><rect x="90" y="8" width="1" height="1"/><rect x="97" y="8" width="1" height="1"/><rect x="94" y="9" width="1" height="1"/><rect x="92" y="10" width="1" height="1"/><rect x="87" y="11" width="1" height="1"/><rect x="80" y="11" width="1" height="1"/><rect x="76" y="11" width="1" height="1"/><rect x="62" y="11" width="1" height="1"/><rect x="54" y="11" width="1" height="1"/><rect x="38" y="11" width="1" height="1"/><rect x="29" y="11" width="1" height="1"/><rect x="26" y="11" width="1" height="1"/><rect x="15" y="11" width="1" height="1"/><rect x="5" y="11" width="1" height="1"/><rect y="11" width="1" height="1"/><rect x="2" y="12" width="1" height="1"/><rect x="7" y="12" width="1" height="1"/><rect x="17" y="12" width="1" height="1"/><rect x="20" y="12" width="1" height="1"/><rect x="31" y="12" width="1" height="1"/><rect x="40" y="12" width="1" height="1"/><rect x="43" y="12" width="1" height="1"/><rect x="58" y="12" width="1" height="1"/><rect x="63" y="12" width="1" height="1"/><rect x="66" y="12" width="1" height="1"/><rect x="69" y="12" width="1" height="1"/><rect x="89" y="12" width="1" height="1"/><rect x="97" y="12" width="1" height="1"/><rect x="98" y="13" width="1" height="1"/><rect x="92" y="13" width="1" height="1"/><rect x="84" y="13" width="1" height="1"/><rect x="72" y="13" width="1" height="1"/><rect x="45" y="13" width="1" height="1"/><rect x="22" y="13" width="1" height="1"/><rect x="9" y="13" width="1" height="1"/><rect x="4" y="14" width="1" height="1"/><rect x="12" y="14" width="1" height="1"/><rect x="15" y="14" width="1" height="1"/><rect x="26" y="14" width="1" height="1"/><rect x="32" y="14" width="1" height="1"/><rect x="49" y="14" width="1" height="1"/><rect x="52" y="14" width="1" height="1"/><rect x="54" y="14" width="1" height="1"/><rect x="70" y="14" width="1" height="1"/><rect x="76" y="14" width="1" height="1"/><rect x="81" y="14" width="1" height="1"/><rect x="95" y="15" width="1" height="1"/><rect x="89" y="15" width="1" height="1"/><rect x="66" y="15" width="1" height="1"/><rect x="63" y="15" width="1" height="1"/><rect x="59" y="15" width="1" height="1"/><rect x="38" y="15" width="1" height="1"/><rect x="35" y="15" width="1" height="1"/><rect x="28" y="15" width="1" height="1"/><rect x="19" y="15" width="1" height="1"/><rect y="15" width="1" height="1"/><rect x="7" y="16" width="1" height="1"/><rect x="20" y="16" width="1" height="1"/><rect x="23" y="16" width="1" height="1"/><rect x="41" y="16" width="1" height="1"/><rect x="44" y="16" width="1" height="1"/><rect x="72" y="16" width="1" height="1"/><rect x="77" y="16" width="1" height="1"/><rect x="84" y="16" width="1" height="1"/><rect x="90" y="16" width="1" height="1"/><rect x="96" y="16" width="1" height="1"/><rect x="99" y="16" width="1" height="1"/><rect x="79" y="17" width="1" height="1"/><rect x="66" y="17" width="1" height="1"/><rect x="56" y="17" width="1" height="1"/><rect x="53" y="17" width="1" height="1"/><rect x="48" y="17" width="1" height="1"/><rect x="29" y="17" width="1" height="1"/><rect x="16" y="17" width="1" height="1"/><rect x="1" y="17" width="1" height="1"/><rect x="4" y="18" width="1" height="1"/><rect x="9" y="18" width="1" height="1"/><rect x="27" y="18" width="1" height="1"/><rect x="32" y="18" width="1" height="1"/><rect x="35" y="18" width="1" height="1"/><rect x="46" y="18" width="1" height="1"/><rect x="51" y="18" width="1" height="1"/><rect x="60" y="18" width="1" height="1"/><rect x="63" y="18" width="1" height="1"/><rect x="74" y="18" width="1" height="1"/><rect x="85" y="18" width="1" height="1"/><rect x="92" y="18" width="1" height="1"/><rect x="99" y="18" width="1" height="1"/><rect x="81" y="19" width="1" height="1"/><rect x="77" y="19" width="1" height="1"/><rect x="68" y="19" width="1" height="1"/><rect x="38" y="19" width="1" height="1"/><rect x="24" y="19" width="1" height="1"/><rect x="14" y="19" width="1" height="1"/><rect x="12" y="19" width="1" height="1"/><rect x="6" y="19" width="1" height="1"/><rect y="20" width="1" height="1"/><rect x="18" y="20" width="1" height="1"/><rect x="39" y="20" width="1" height="1"/><rect x="43" y="20" width="1" height="1"/><rect x="48" y="20" width="1" height="1"/><rect x="54" y="20" width="1" height="1"/><rect x="70" y="20" width="1" height="1"/><rect x="87" y="20" width="1" height="1"/><rect x="95" y="20" width="1" height="1"/><rect x="88" y="21" width="1" height="1"/><rect x="81" y="21" width="1" height="1"/><rect x="57" y="21" width="1" height="1"/><rect x="35" y="21" width="1" height="1"/><rect x="29" y="21" width="1" height="1"/><rect x="19" y="21" width="1" height="1"/><rect x="7" y="21" width="1" height="1"/><rect x="10" y="22" width="1" height="1"/><rect x="15" y="22" width="1" height="1"/><rect x="22" y="22" width="1" height="1"/><rect x="32" y="22" width="1" height="1"/><rect x="40" y="22" width="1" height="1"/><rect x="50" y="22" width="1" height="1"/><rect x="55" y="22" width="1" height="1"/><rect x="63" y="22" width="1" height="1"/><rect x="66" y="22" width="1" height="1"/><rect x="71" y="22" width="1" height="1"/><rect x="77" y="22" width="1" height="1"/><rect x="84" y="22" width="1" height="1"/><rect x="98" y="22" width="1" height="1"/><rect x="95" y="23" width="1" height="1"/><rect x="92" y="23" width="1" height="1"/><rect x="74" y="23" width="1" height="1"/><rect x="60" y="23" width="1" height="1"/><rect x="45" y="23" width="1" height="1"/><rect x="27" y="23" width="1" height="1"/><rect x="25" y="23" width="1" height="1"/><rect x="13" y="23" width="1" height="1"/><rect x="3" y="23" width="1" height="1"/><rect y="24" width="1" height="1"/><rect x="7" y="24" width="1" height="1"/><rect x="35" y="24" width="1" height="1"/><rect x="40" y="24" width="1" height="1"/><rect x="52" y="24" width="1" height="1"/><rect x="57" y="24" width="1" height="1"/><rect x="67" y="24" width="1" height="1"/><rect x="78" y="24" width="1" height="1"/><rect x="81" y="24" width="1" height="1"/><rect x="86" y="24" width="1" height="1"/><rect x="89" y="24" width="1" height="1"/><rect x="96" y="25" width="1" height="1"/><rect x="74" y="25" width="1" height="1"/><rect x="70" y="25" width="1" height="1"/><rect x="60" y="25" width="1" height="1"/><rect x="48" y="25" width="1" height="1"/><rect x="45" y="25" width="1" height="1"/><rect x="41" y="25" width="1" height="1"/><rect x="31" y="25" width="1" height="1"/><rect x="27" y="25" width="1" height="1"/><rect x="18" y="25" width="1" height="1"/><rect x="15" y="25" width="1" height="1"/><rect x="3" y="25" width="1" height="1"/><rect x="10" y="26" width="1" height="1"/><rect x="13" y="26" width="1" height="1"/><rect x="20" y="26" width="1" height="1"/><rect x="63" y="26" width="1" height="1"/><rect x="68" y="26" width="1" height="1"/><rect x="83" y="26" width="1" height="1"/><rect x="91" y="26" width="1" height="1"/><rect x="99" y="27" width="1" height="1"/><rect x="94" y="27" width="1" height="1"/><rect x="89" y="27" width="1" height="1"/><rect x="77" y="27" width="1" height="1"/><rect x="57" y="27" width="1" height="1"/><rect x="52" y="27" width="1" height="1"/><rect x="38" y="27" width="1" height="1"/><rect x="35" y="27" width="1" height="1"/><rect x="25" y="27" width="1" height="1"/><rect x="22" y="27" width="1" height="1"/><rect x="8" y="27" width="1" height="1"/><rect x="2" y="28" width="1" height="1"/><rect x="3" y="29" width="1" height="1"/><rect x="10" y="29" width="1" height="1"/><rect x="15" y="28" width="1" height="1"/><rect x="27" y="28" width="1" height="1"/><rect x="29" y="28" width="1" height="1"/><rect x="41" y="28" width="1" height="1"/><rect x="42" y="29" width="1" height="1"/><rect x="46" y="28" width="1" height="1"/><rect x="48" y="29" width="1" height="1"/><rect x="53" y="28" width="1" height="1"/><rect x="57" y="29" width="1" height="1"/><rect x="59" y="29" width="1" height="1"/><rect x="64" y="28" width="1" height="1"/><rect x="69" y="29" width="1" height="1"/><rect x="72" y="28" width="1" height="1"/><rect x="77" y="29" width="1" height="1"/><rect x="80" y="28" width="1" height="1"/><rect x="84" y="28" width="1" height="1"/><rect x="95" y="29" width="1" height="1"/><rect x="89" y="30" width="1" height="1"/><rect x="86" y="30" width="1" height="1"/><rect x="66" y="30" width="1" height="1"/><rect x="55" y="30" width="1" height="1"/><rect x="34" y="30" width="1" height="1"/><rect x="30" y="30" width="1" height="1"/><rect x="24" y="30" width="1" height="1"/><rect x="16" y="30" width="1" height="1"/><rect x="6" y="31" width="1" height="1"/><rect x="18" y="31" width="1" height="1"/><rect x="21" y="31" width="1" height="1"/><rect x="31" y="31" width="1" height="1"/><rect x="36" y="31" width="1" height="1"/><rect x="39" y="31" width="1" height="1"/><rect x="43" y="31" width="1" height="1"/><rect x="64" y="31" width="1" height="1"/><rect x="73" y="31" width="1" height="1"/><rect x="82" y="31" width="1" height="1"/><rect x="93" y="31" width="1" height="1"/><rect x="94" y="32" width="1" height="1"/><rect x="89" y="32" width="1" height="1"/><rect x="83" y="32" width="1" height="1"/><rect x="74" y="32" width="1" height="1"/><rect x="59" y="32" width="1" height="1"/><rect x="50" y="32" width="1" height="1"/><rect x="45" y="32" width="1" height="1"/><rect x="12" y="32" width="1" height="1"/><rect x="7" y="32" width="1" height="1"/><rect x="1" y="32" width="1" height="1"/><rect x="23" y="33" width="1" height="1"/><rect x="26" y="33" width="1" height="1"/><rect x="47" y="33" width="1" height="1"/><rect x="60" y="33" width="1" height="1"/><rect x="66" y="33" width="1" height="1"/><rect x="76" y="33" width="1" height="1"/><rect x="97" y="34" width="1" height="1"/><rect x="85" y="34" width="1" height="1"/><rect x="80" y="34" width="1" height="1"/><rect x="69" y="34" width="1" height="1"/><rect x="54" y="34" width="1" height="1"/><rect x="51" y="34" width="1" height="1"/><rect x="39" y="34" width="1" height="1"/><rect x="36" y="34" width="1" height="1"/><rect x="31" y="34" width="1" height="1"/><rect x="18" y="34" width="1" height="1"/><rect x="14" y="34" width="1" height="1"/><rect x="9" y="34" width="1" height="1"/><rect x="2" y="34" width="1" height="1"/><rect x="20" y="35" width="1" height="1"/><rect x="43" y="35" width="1" height="1"/><rect x="56" y="35" width="1" height="1"/><rect x="63" y="35" width="1" height="1"/><rect x="74" y="35" width="1" height="1"/><rect x="89" y="35" width="1" height="1"/><rect x="94" y="35" width="1" height="1"/><rect x="77" y="36" width="1" height="1"/><rect x="69" y="36" width="1" height="1"/><rect x="66" y="36" width="1" height="1"/><rect x="58" y="36" width="1" height="1"/><rect x="46" y="36" width="1" height="1"/><rect x="32" y="36" width="1" height="1"/><rect x="26" y="36" width="1" height="1"/><rect x="23" y="36" width="1" height="1"/><rect x="11" y="36" width="1" height="1"/><rect x="6" y="36" width="1" height="1"/><rect x="3" y="36" width="1" height="1"/><rect x="14" y="37" width="1" height="1"/><rect x="20" y="37" width="1" height="1"/><rect x="33" y="37" width="1" height="1"/><rect x="39" y="37" width="1" height="1"/><rect x="49" y="37" width="1" height="1"/><rect x="63" y="37" width="1" height="1"/><rect x="75" y="37" width="1" height="1"/><rect x="79" y="37" width="1" height="1"/><rect x="82" y="37" width="1" height="1"/><rect x="85" y="37" width="1" height="1"/><rect x="91" y="37" width="1" height="1"/><rect x="95" y="37" width="1" height="1"/><rect x="89" y="38" width="1" height="1"/><rect x="70" y="38" width="1" height="1"/><rect x="59" y="38" width="1" height="1"/><rect x="60" y="40" width="1" height="1"/><rect x="61" y="42" width="1" height="1"/><rect x="63" y="41" width="1" height="1"/><rect x="65" y="41" width="1" height="1"/><rect x="67" y="42" width="1" height="1"/><rect x="69" y="41" width="1" height="1"/><rect x="72" y="40" width="1" height="1"/><rect x="74" y="41" width="1" height="1"/><rect x="76" y="43" width="1" height="1"/><rect x="76" y="45" width="1" height="1"/><rect x="71" y="45" width="1" height="1"/><rect x="69" y="44" width="1" height="1"/><rect x="69" y="47" width="1" height="1"/><rect x="65" y="46" width="1" height="1"/><rect x="63" y="47" width="1" height="1"/><rect x="61" y="46" width="1" height="1"/><rect x="59" y="47" width="1" height="1"/><rect x="59" y="50" width="1" height="1"/><rect x="62" y="51" width="1" height="1"/><rect x="65" y="49" width="1" height="1"/><rect x="65" y="52" width="1" height="1"/><rect x="65" y="55" width="1" height="1"/><rect x="65" y="58" width="1" height="1"/><polygon points="62 56 62 55 61 55 61 56 61 57 62 57 62 56"/><rect x="60" y="60" width="1" height="1"/><rect x="62" y="60" width="1" height="1"/><rect x="64" y="61" width="1" height="1"/><rect x="62" y="64" width="1" height="1"/><rect x="59" y="64" width="1" height="1"/><rect x="60" y="67" width="1" height="1"/><rect x="61" y="69" width="1" height="1"/><rect x="59" y="70" width="1" height="1"/><rect x="62" y="72" width="1" height="1"/><rect x="64" y="72" width="1" height="1"/><rect x="63" y="65" width="1" height="1"/><rect x="65" y="67" width="1" height="1"/><rect x="67" y="65" width="1" height="1"/><rect x="68" y="67" width="1" height="1"/><rect x="69" y="69" width="1" height="1"/><rect x="71" y="69" width="1" height="1"/><rect x="73" y="69" width="1" height="1"/><rect x="71" y="64" width="1" height="1"/><rect x="68" y="72" width="1" height="1"/><rect x="67" y="71" width="1" height="1"/><rect x="76" y="70" width="1" height="1"/><rect x="77" y="67" width="1" height="1"/><rect x="80" y="66" width="1" height="1"/><rect x="81" y="68" width="1" height="1"/><rect x="79" y="71" width="1" height="1"/><rect x="80" y="72" width="1" height="1"/><rect x="74" y="74" width="1" height="1"/><rect x="76" y="75" width="1" height="1"/><rect x="78" y="76" width="1" height="1"/><rect x="75" y="78" width="1" height="1"/><rect x="76" y="81" width="1" height="1"/><rect x="76" y="84" width="1" height="1"/><rect x="77" y="85" width="1" height="1"/><rect x="76" y="89" width="1" height="1"/><rect x="77" y="92" width="1" height="1"/><rect x="78" y="95" width="1" height="1"/><rect x="79" y="96" width="1" height="1"/><rect x="81" y="98" width="1" height="1"/><rect x="81" y="94" width="1" height="1"/><rect x="81" y="91" width="1" height="1"/><rect x="80" y="89" width="1" height="1"/><rect x="81" y="86" width="1" height="1"/><rect x="80" y="84" width="1" height="1"/><rect x="79" y="80" width="1" height="1"/><rect x="81" y="80" width="1" height="1"/><rect x="83" y="81" width="1" height="1"/><rect x="85" y="81" width="1" height="1"/><rect x="85" y="77" width="1" height="1"/><rect x="83" y="76" width="1" height="1"/><rect x="82" y="75" width="1" height="1"/><rect x="83" y="70" width="1" height="1"/><rect x="85" y="71" width="1" height="1"/><rect x="86" y="72" width="1" height="1"/><rect x="86" y="67" width="1" height="1"/><rect x="89" y="67" width="1" height="1"/><rect x="92" y="66" width="1" height="1"/><rect x="94" y="67" width="1" height="1"/><rect x="95" y="68" width="1" height="1"/><rect x="96" y="70" width="1" height="1"/><rect x="99" y="70" width="1" height="1"/><rect x="93" y="72" width="1" height="1"/><rect x="91" y="71" width="1" height="1"/><rect x="89" y="70" width="1" height="1"/><rect x="88" y="75" width="1" height="1"/><rect x="89" y="76" width="1" height="1"/><rect x="92" y="75" width="1" height="1"/><rect x="95" y="74" width="1" height="1"/><rect x="98" y="74" width="1" height="1"/><rect x="98" y="77" width="1" height="1"/><rect x="99" y="80" width="1" height="1"/><rect x="96" y="80" width="1" height="1"/><rect x="95" y="79" width="1" height="1"/><rect x="94" y="77" width="1" height="1"/><rect x="91" y="78" width="1" height="1"/><rect x="91" y="81" width="1" height="1"/><rect x="89" y="83" width="1" height="1"/><rect x="90" y="84" width="1" height="1"/><rect x="91" y="85" width="1" height="1"/><rect x="86" y="83" width="1" height="1"/><rect x="85" y="87" width="1" height="1"/><rect x="86" y="88" width="1" height="1"/><rect x="88" y="89" width="1" height="1"/><rect x="90" y="89" width="1" height="1"/><rect x="94" y="85" width="1" height="1"/><rect x="98" y="84" width="1" height="1"/><rect x="95" y="87" width="1" height="1"/><rect x="96" y="88" width="1" height="1"/><rect x="97" y="90" width="1" height="1"/><rect x="97" y="92" width="1" height="1"/><rect x="93" y="92" width="1" height="1"/><rect x="90" y="92" width="1" height="1"/><rect x="85" y="91" width="1" height="1"/><rect x="86" y="93" width="1" height="1"/><rect x="84" y="94" width="1" height="1"/><rect x="84" y="97" width="1" height="1"/><rect x="87" y="99" width="1" height="1"/><rect x="88" y="96" width="1" height="1"/><rect x="91" y="96" width="1" height="1"/><rect x="94" y="95" width="1" height="1"/><rect x="98" y="95" width="1" height="1"/><rect x="98" y="99" width="1" height="1"/><rect x="95" y="98" width="1" height="1"/><rect x="92" y="99" width="1" height="1"/><rect x="67" y="62" width="1" height="1"/><rect x="69" y="58" width="1" height="1"/><rect x="69" y="55" width="1" height="1"/><rect x="68" y="53" width="1" height="1"/><rect x="69" y="51" width="1" height="1"/><rect x="72" y="52" width="1" height="1"/><rect x="73" y="47" width="1" height="1"/><rect x="74" y="48" width="1" height="1"/><rect x="78" y="48" width="1" height="1"/><rect x="79" y="44" width="1" height="1"/><rect x="79" y="40" width="1" height="1"/><rect x="82" y="40" width="1" height="1"/><rect x="83" y="41" width="1" height="1"/><rect x="85" y="43" width="1" height="1"/><rect x="87" y="42" width="1" height="1"/><rect x="89" y="41" width="1" height="1"/><rect x="91" y="42" width="1" height="1"/><rect x="95" y="42" width="1" height="1"/><rect x="96" y="39" width="1" height="1"/><rect x="98" y="40" width="1" height="1"/><rect x="97" y="43" width="1" height="1"/><rect x="98" y="44" width="1" height="1"/><rect x="98" y="47" width="1" height="1"/><rect x="91" y="47" width="1" height="1"/><rect x="91" y="44" width="1" height="1"/><rect x="86" y="46" width="1" height="1"/><rect x="81" y="46" width="1" height="1"/><rect x="83" y="48" width="1" height="1"/><rect x="85" y="49" width="1" height="1"/><rect x="87" y="50" width="1" height="1"/><rect x="92" y="48" width="1" height="1"/><rect x="93" y="50" width="1" height="1"/><rect x="95" y="49" width="1" height="1"/><rect x="98" y="51" width="1" height="1"/><rect x="99" y="53" width="1" height="1"/><rect x="98" y="55" width="1" height="1"/><rect x="99" y="57" width="1" height="1"/><rect x="95" y="55" width="1" height="1"/><rect x="92" y="54" width="1" height="1"/><rect x="89" y="52" width="1" height="1"/><rect x="89" y="54" width="1" height="1"/><rect x="84" y="53" width="1" height="1"/><rect x="80" y="49" width="1" height="1"/><rect x="80" y="52" width="1" height="1"/><rect x="77" y="52" width="1" height="1"/><rect x="76" y="51" width="1" height="1"/><rect x="81" y="54" width="1" height="1"/><rect x="85" y="55" width="1" height="1"/><rect x="86" y="56" width="1" height="1"/><rect x="73" y="55" width="1" height="1"/><rect x="73" y="57" width="1" height="1"/><rect x="77" y="56" width="1" height="1"/><rect x="79" y="57" width="1" height="1"/><rect x="81" y="59" width="1" height="1"/><rect x="84" y="59" width="1" height="1"/><rect x="85" y="60" width="1" height="1"/><rect x="88" y="59" width="1" height="1"/><rect x="90" y="58" width="1" height="1"/><rect x="94" y="58" width="1" height="1"/><rect x="95" y="59" width="1" height="1"/><rect x="96" y="60" width="1" height="1"/><rect x="97" y="62" width="1" height="1"/><rect x="99" y="63" width="1" height="1"/><rect x="93" y="63" width="1" height="1"/><rect x="90" y="60" width="1" height="1"/><rect x="77" y="59" width="1" height="1"/><rect x="71" y="59" width="1" height="1"/><rect x="72" y="60" width="1" height="1"/><rect x="74" y="61" width="1" height="1"/><rect x="75" y="63" width="1" height="1"/><rect x="76" y="64" width="1" height="1"/><rect x="79" y="63" width="1" height="1"/><rect x="82" y="63" width="1" height="1"/><rect x="83" y="65" width="1" height="1"/><rect x="86" y="64" width="1" height="1"/><rect x="89" y="64" width="1" height="1"/><rect x="52" y="38" width="1" height="1"/><rect x="43" y="38" width="1" height="1"/><rect x="30" y="38" width="1" height="1"/><rect x="27" y="38" width="1" height="1"/><rect x="18" y="38" width="1" height="1"/><rect x="8" y="38" width="1" height="1"/><rect x="1" y="39" width="1" height="1"/><rect x="1" y="42" width="1" height="1"/><rect x="1" y="48" width="1" height="1"/><rect x="1" y="54" width="1" height="1"/><rect y="58" width="1" height="1"/><rect x="2" y="58" width="1" height="1"/><rect x="3" y="60" width="1" height="1"/><rect x="1" y="64" width="1" height="1"/><rect x="2" y="67" width="1" height="1"/><rect x="3" y="69" width="1" height="1"/><rect x="1" y="70" width="1" height="1"/><rect x="4" y="71" width="1" height="1"/><rect x="5" y="72" width="1" height="1"/><rect x="7" y="74" width="1" height="1"/><rect x="2" y="75" width="1" height="1"/><rect x="1" y="79" width="1" height="1"/><rect x="3" y="79" width="1" height="1"/><rect x="3" y="81" width="1" height="1"/><rect x="4" y="84" width="1" height="1"/><rect x="5" y="86" width="1" height="1"/><rect y="85" width="1" height="1"/><rect x="1" y="87" width="1" height="1"/><rect x="1" y="90" width="1" height="1"/><rect x="1" y="94" width="1" height="1"/><rect x="1" y="97" width="1" height="1"/><rect x="3" y="99" width="1" height="1"/><rect x="5" y="99" width="1" height="1"/><rect x="4" y="94" width="1" height="1"/><rect x="4" y="90" width="1" height="1"/><rect x="6" y="92" width="1" height="1"/><rect x="7" y="94" width="1" height="1"/><rect x="7" y="97" width="1" height="1"/><rect x="9" y="98" width="1" height="1"/><rect x="12" y="99" width="1" height="1"/><rect x="15" y="98" width="1" height="1"/><rect x="14" y="96" width="1" height="1"/><rect x="10" y="94" width="1" height="1"/><rect x="13" y="93" width="1" height="1"/><rect x="12" y="91" width="1" height="1"/><rect x="9" y="89" width="1" height="1"/><rect x="7" y="88" width="1" height="1"/><rect x="10" y="86" width="1" height="1"/><rect x="8" y="83" width="1" height="1"/><rect x="10" y="82" width="1" height="1"/><rect x="12" y="82" width="1" height="1"/><rect x="8" y="80" width="1" height="1"/><rect x="6" y="77" width="1" height="1"/><rect x="4" y="76" width="1" height="1"/><rect x="9" y="76" width="1" height="1"/><rect x="11" y="77" width="1" height="1"/><rect x="13" y="78" width="1" height="1"/><rect x="16" y="79" width="1" height="1"/><rect x="16" y="81" width="1" height="1"/><rect x="14" y="84" width="1" height="1"/><rect x="17" y="84" width="1" height="1"/><rect x="18" y="85" width="1" height="1"/><rect x="14" y="87" width="1" height="1"/><rect x="15" y="88" width="1" height="1"/><rect x="17" y="89" width="1" height="1"/><rect x="16" y="92" width="1" height="1"/><rect x="18" y="93" width="1" height="1"/><rect x="19" y="96" width="1" height="1"/><rect x="20" y="99" width="1" height="1"/><rect x="22" y="98" width="1" height="1"/><rect x="27" y="98" width="1" height="1"/><rect x="26" y="96" width="1" height="1"/><rect x="24" y="94" width="1" height="1"/><rect x="26" y="93" width="1" height="1"/><rect x="24" y="90" width="1" height="1"/><rect x="25" y="87" width="1" height="1"/><rect x="27" y="88" width="1" height="1"/><rect x="28" y="90" width="1" height="1"/><rect x="30" y="94" width="1" height="1"/><rect x="31" y="96" width="1" height="1"/><rect x="33" y="97" width="1" height="1"/><rect x="34" y="99" width="1" height="1"/><rect x="37" y="97" width="1" height="1"/><rect x="36" y="94" width="1" height="1"/><rect x="34" y="93" width="1" height="1"/><rect x="31" y="91" width="1" height="1"/><rect x="33" y="90" width="1" height="1"/><rect x="35" y="90" width="1" height="1"/><rect x="32" y="87" width="1" height="1"/><rect x="30" y="85" width="1" height="1"/><rect x="30" y="83" width="1" height="1"/><rect x="26" y="84" width="1" height="1"/><rect x="25" y="83" width="1" height="1"/><rect x="25" y="80" width="1" height="1"/><rect x="25" y="77" width="1" height="1"/><rect x="23" y="76" width="1" height="1"/><rect x="25" y="74" width="1" height="1"/><rect x="21" y="73" width="1" height="1"/><rect x="18" y="73" width="1" height="1"/><rect x="16" y="72" width="1" height="1"/><rect x="14" y="70" width="1" height="1"/><rect x="19" y="70" width="1" height="1"/><rect x="17" y="68" width="1" height="1"/><rect x="16" y="66" width="1" height="1"/><rect x="15" y="64" width="1" height="1"/><rect x="14" y="63" width="1" height="1"/><rect x="14" y="60" width="1" height="1"/><rect x="10" y="59" width="1" height="1"/><rect x="6" y="58" width="1" height="1"/><rect x="5" y="56" width="1" height="1"/><rect x="9" y="56" width="1" height="1"/><rect x="11" y="56" width="1" height="1"/><rect x="13" y="57" width="1" height="1"/><rect x="3" y="54" width="1" height="1"/><rect x="8" y="53" width="1" height="1"/><rect x="7" y="51" width="1" height="1"/><rect x="5" y="49" width="1" height="1"/><rect x="3" y="50" width="1" height="1"/><rect x="10" y="50" width="1" height="1"/><rect x="13" y="51" width="1" height="1"/><rect x="14" y="53" width="1" height="1"/><rect x="17" y="55" width="1" height="1"/><rect x="18" y="59" width="1" height="1"/><rect x="18" y="63" width="1" height="1"/><rect x="21" y="63" width="1" height="1"/><rect x="21" y="66" width="1" height="1"/><rect x="22" y="67" width="1" height="1"/><rect x="23" y="69" width="1" height="1"/><rect x="25" y="71" width="1" height="1"/><rect x="28" y="74" width="1" height="1"/><rect x="28" y="78" width="1" height="1"/><rect x="29" y="80" width="1" height="1"/><rect x="32" y="81" width="1" height="1"/><rect x="35" y="83" width="1" height="1"/><rect x="35" y="86" width="1" height="1"/><rect x="38" y="88" width="1" height="1"/><rect x="39" y="90" width="1" height="1"/><rect x="40" y="92" width="1" height="1"/><rect x="41" y="94" width="1" height="1"/><rect x="40" y="98" width="1" height="1"/><rect x="43" y="98" width="1" height="1"/><rect x="46" y="98" width="1" height="1"/><rect x="49" y="98" width="1" height="1"/><rect x="52" y="99" width="1" height="1"/><rect x="54" y="99" width="1" height="1"/><rect x="57" y="99" width="1" height="1"/><rect x="52" y="96" width="1" height="1"/><rect x="50" y="95" width="1" height="1"/><rect x="46" y="95" width="1" height="1"/><rect x="43" y="95" width="1" height="1"/><rect x="46" y="92" width="1" height="1"/><rect x="44" y="90" width="1" height="1"/><rect x="42" y="89" width="1" height="1"/><rect x="42" y="86" width="1" height="1"/><rect x="40" y="84" width="1" height="1"/><rect x="38" y="83" width="1" height="1"/><rect x="36" y="80" width="1" height="1"/><rect x="32" y="78" width="1" height="1"/><rect x="34" y="77" width="1" height="1"/><rect x="31" y="75" width="1" height="1"/><rect x="34" y="74" width="1" height="1"/><rect x="30" y="72" width="1" height="1"/><rect x="28" y="69" width="1" height="1"/><rect x="27" y="66" width="1" height="1"/><rect x="25" y="65" width="1" height="1"/><rect x="24" y="62" width="1" height="1"/><rect x="26" y="62" width="1" height="1"/><rect x="23" y="60" width="1" height="1"/><rect x="20" y="58" width="1" height="1"/><rect x="22" y="57" width="1" height="1"/><rect x="21" y="55" width="1" height="1"/><rect x="19" y="53" width="1" height="1"/><rect x="17" y="51" width="1" height="1"/><rect x="18" y="48" width="1" height="1"/><rect x="17" y="46" width="1" height="1"/><rect x="15" y="47" width="1" height="1"/><rect x="13" y="46" width="1" height="1"/><rect x="11" y="47" width="1" height="1"/><rect x="9" y="45" width="1" height="1"/><rect x="7" y="44" width="1" height="1"/><rect x="3" y="44" width="1" height="1"/><rect x="4" y="46" width="1" height="1"/><rect x="5" y="40" width="1" height="1"/><rect x="7" y="41" width="1" height="1"/><rect x="11" y="42" width="1" height="1"/><rect x="13" y="41" width="1" height="1"/><rect x="12" y="39" width="1" height="1"/><rect x="15" y="43" width="1" height="1"/><rect x="18" y="42" width="1" height="1"/><rect x="20" y="43" width="1" height="1"/><rect x="21" y="44" width="1" height="1"/><rect x="25" y="44" width="1" height="1"/><rect x="24" y="41" width="1" height="1"/><rect x="23" y="40" width="1" height="1"/><rect x="23" y="47" width="1" height="1"/><rect x="20" y="49" width="1" height="1"/><rect x="23" y="50" width="1" height="1"/><rect x="25" y="51" width="1" height="1"/><rect x="26" y="52" width="1" height="1"/><rect x="26" y="55" width="1" height="1"/><rect x="26" y="57" width="1" height="1"/><rect x="29" y="59" width="1" height="1"/><rect x="29" y="61" width="1" height="1"/><rect x="30" y="64" width="1" height="1"/><rect x="31" y="66" width="1" height="1"/><rect x="33" y="67" width="1" height="1"/><rect x="33" y="70" width="1" height="1"/><rect x="36" y="70" width="1" height="1"/><rect x="38" y="67" width="1" height="1"/><rect x="36" y="65" width="1" height="1"/><rect x="35" y="64" width="1" height="1"/><rect x="34" y="62" width="1" height="1"/><rect x="33" y="60" width="1" height="1"/><rect x="33" y="57" width="1" height="1"/><rect x="32" y="56" width="1" height="1"/><rect x="30" y="55" width="1" height="1"/><rect x="30" y="52" width="1" height="1"/><rect x="27" y="49" width="1" height="1"/><rect x="27" y="47" width="1" height="1"/><rect x="30" y="45" width="1" height="1"/><rect x="29" y="43" width="1" height="1"/><rect x="28" y="42" width="1" height="1"/><rect x="32" y="41" width="1" height="1"/><rect x="36" y="41" width="1" height="1"/><rect x="36" y="39" width="1" height="1"/><rect x="39" y="40" width="1" height="1"/><rect x="42" y="41" width="1" height="1"/><rect x="42" y="44" width="1" height="1"/><rect x="40" y="44" width="1" height="1"/><rect x="39" y="43" width="1" height="1"/><rect x="34" y="43" width="1" height="1"/><rect x="34" y="46" width="1" height="1"/><rect x="36" y="47" width="1" height="1"/><rect x="38" y="48" width="1" height="1"/><rect x="40" y="50" width="1" height="1"/><rect x="33" y="50" width="1" height="1"/><rect x="31" y="48" width="1" height="1"/><rect x="35" y="51" width="1" height="1"/><rect x="36" y="52" width="1" height="1"/><rect x="37" y="54" width="1" height="1"/><rect x="37" y="58" width="1" height="1"/><rect x="38" y="60" width="1" height="1"/><rect x="40" y="56" width="1" height="1"/><rect x="40" y="52" width="1" height="1"/><rect x="43" y="53" width="1" height="1"/><rect x="43" y="50" width="1" height="1"/><rect x="43" y="46" width="1" height="1"/><rect x="46" y="43" width="1" height="1"/><rect x="47" y="44" width="1" height="1"/><rect x="47" y="39" width="1" height="1"/><rect x="49" y="40" width="1" height="1"/><rect x="51" y="42" width="1" height="1"/><rect x="54" y="42" width="1" height="1"/><rect x="56" y="42" width="1" height="1"/><rect x="55" y="39" width="1" height="1"/><rect x="57" y="44" width="1" height="1"/><rect x="53" y="46" width="1" height="1"/><rect x="56" y="47" width="1" height="1"/><rect x="50" y="50" width="1" height="1"/><rect x="49" y="54" width="1" height="1"/><rect x="50" y="57" width="1" height="1"/><rect x="52" y="54" width="1" height="1"/><rect x="53" y="51" width="1" height="1"/><rect x="53" y="56" width="1" height="1"/><rect x="53" y="59" width="1" height="1"/><rect x="53" y="62" width="1" height="1"/><rect x="50" y="63" width="1" height="1"/><rect x="51" y="65" width="1" height="1"/><rect x="54" y="65" width="1" height="1"/><rect x="51" y="68" width="1" height="1"/><rect x="52" y="69" width="1" height="1"/><rect x="47" y="71" width="1" height="1"/><rect x="49" y="72" width="1" height="1"/><rect x="51" y="73" width="1" height="1"/><rect x="49" y="75" width="1" height="1"/><rect x="50" y="77" width="1" height="1"/><rect x="49" y="80" width="1" height="1"/><rect x="50" y="82" width="1" height="1"/><rect x="52" y="81" width="1" height="1"/><rect x="53" y="84" width="1" height="1"/><rect x="55" y="84" width="1" height="1"/><rect x="57" y="86" width="1" height="1"/><rect x="56" y="81" width="1" height="1"/><rect x="56" y="78" width="1" height="1"/><rect x="53" y="78" width="1" height="1"/><rect x="54" y="74" width="1" height="1"/><rect x="56" y="73" width="1" height="1"/><rect x="55" y="71" width="1" height="1"/><rect x="56" y="68" width="1" height="1"/><rect x="57" y="63" width="1" height="1"/><rect x="56" y="59" width="1" height="1"/><rect x="58" y="58" width="1" height="1"/><rect x="58" y="54" width="1" height="1"/><rect x="56" y="54" width="1" height="1"/><rect x="56" y="51" width="1" height="1"/><rect x="50" y="46" width="1" height="1"/><rect x="47" y="47" width="1" height="1"/><rect x="47" y="49" width="1" height="1"/><rect x="47" y="52" width="1" height="1"/><rect x="46" y="55" width="1" height="1"/><rect x="45" y="58" width="1" height="1"/><rect x="47" y="58" width="1" height="1"/><rect x="41" y="57" width="1" height="1"/><rect x="42" y="59" width="1" height="1"/><rect x="43" y="62" width="1" height="1"/><rect x="44" y="63" width="1" height="1"/><rect x="41" y="63" width="1" height="1"/><rect x="41" y="67" width="1" height="1"/><rect x="44" y="66" width="1" height="1"/><rect x="46" y="65" width="1" height="1"/><rect x="47" y="61" width="1" height="1"/><rect x="48" y="68" width="1" height="1"/><rect x="45" y="69" width="1" height="1"/><rect x="43" y="70" width="1" height="1"/><rect x="40" y="70" width="1" height="1"/><rect x="37" y="72" width="1" height="1"/><rect x="40" y="73" width="1" height="1"/><rect x="37" y="76" width="1" height="1"/><rect x="39" y="78" width="1" height="1"/><rect x="40" y="80" width="1" height="1"/><rect x="43" y="78" width="1" height="1"/><rect x="42" y="75" width="1" height="1"/><rect x="45" y="75" width="1" height="1"/><rect x="45" y="78" width="1" height="1"/><rect x="46" y="80" width="1" height="1"/><rect x="46" y="83" width="1" height="1"/><rect x="47" y="84" width="1" height="1"/><rect x="47" y="88" width="1" height="1"/><rect x="50" y="87" width="1" height="1"/><rect x="50" y="89" width="1" height="1"/><rect x="50" y="92" width="1" height="1"/><rect x="53" y="92" width="1" height="1"/><rect x="53" y="88" width="1" height="1"/><rect x="55" y="89" width="1" height="1"/><rect x="57" y="89" width="1" height="1"/><rect x="59" y="91" width="1" height="1"/><rect x="58" y="95" width="1" height="1"/><rect x="56" y="95" width="1" height="1"/><rect x="60" y="93" width="1" height="1"/><rect x="61" y="95" width="1" height="1"/><rect x="62" y="97" width="1" height="1"/><rect x="66" y="99" width="1" height="1"/><rect x="67" y="96" width="1" height="1"/><rect x="65" y="94" width="1" height="1"/><rect x="64" y="92" width="1" height="1"/><rect x="62" y="90" width="1" height="1"/><rect x="62" y="87" width="1" height="1"/><rect x="62" y="84" width="1" height="1"/><rect x="61" y="83" width="1" height="1"/><rect x="60" y="80" width="1" height="1"/><rect x="59" y="79" width="1" height="1"/><rect x="60" y="75" width="1" height="1"/><rect x="62" y="76" width="1" height="1"/><rect x="63" y="78" width="1" height="1"/><rect x="65" y="77" width="1" height="1"/><rect x="67" y="76" width="1" height="1"/><rect x="68" y="79" width="1" height="1"/><rect x="65" y="82" width="1" height="1"/><rect x="67" y="83" width="1" height="1"/><rect x="69" y="82" width="1" height="1"/><rect x="70" y="85" width="1" height="1"/><rect x="68" y="86" width="1" height="1"/><rect x="65" y="87" width="1" height="1"/><rect x="66" y="89" width="1" height="1"/><rect x="69" y="91" width="1" height="1"/><rect x="70" y="95" width="1" height="1"/><rect x="70" y="97" width="1" height="1"/><rect x="72" y="99" width="1" height="1"/><rect x="74" y="98" width="1" height="1"/><rect x="75" y="94" width="1" height="1"/><rect x="73" y="92" width="1" height="1"/><rect x="72" y="91" width="1" height="1"/><rect x="71" y="88" width="1" height="1"/><rect x="74" y="88" width="1" height="1"/><rect x="72" y="84" width="1" height="1"/><rect x="73" y="81" width="1" height="1"/><rect x="72" y="79" width="1" height="1"/><rect x="71" y="76" width="1" height="1"/><rect x="70" y="74" width="1" height="1"/><rect x="43" y="83" width="1" height="1"/><rect x="22" y="94" width="1" height="1"/><rect x="21" y="91" width="1" height="1"/><rect x="21" y="88" width="1" height="1"/><rect x="20" y="85" width="1" height="1"/><rect x="20" y="80" width="1" height="1"/><rect x="22" y="80" width="1" height="1"/><rect x="19" y="77" width="1" height="1"/><rect x="17" y="76" width="1" height="1"/><rect x="13" y="74" width="1" height="1"/><rect x="11" y="72" width="1" height="1"/><rect x="9" y="69" width="1" height="1"/><rect x="8" y="68" width="1" height="1"/><rect x="6" y="66" width="1" height="1"/><rect x="5" y="64" width="1" height="1"/><rect x="5" y="62" width="1" height="1"/><rect x="9" y="62" width="1" height="1"/><rect x="11" y="61" width="1" height="1"/><rect x="10" y="65" width="1" height="1"/><rect x="12" y="68" width="1" height="1"/><rect x="4" y="39" width="1" height="1"/><rect x="84" y="9" width="1" height="1"/><rect x="79" y="9" width="1" height="1"/><rect x="73" y="9" width="1" height="1"/><rect x="69" y="9" width="1" height="1"/><rect x="64" y="9" width="1" height="1"/><rect x="60" y="9" width="1" height="1"/><rect x="50" y="9" width="1" height="1"/><rect x="34" y="9" width="1" height="1"/><rect x="22" y="9" width="1" height="1"/><rect x="12" y="10" width="1" height="1"/><rect x="36" y="10" width="1" height="1"/><rect x="43" y="10" width="1" height="1"/><rect x="48" y="10" width="1" height="1"/><rect x="82" y="10" width="1" height="1"/></svg>