<svg id="Layer_1" data-name="Layer 1" xmlns="http://www.w3.org/2000/svg" viewBox="0 0 100 100"><title>pattern</title><rect x="3" y="1" width="4" height="1"/><rect x="8" y="3" width="1" height="4"/><rect x="3" y="8" width="4" height="1"/><rect x="1" y="3" width="1" height="4"/><rect x="4" y="4" width="2" height="2"/><rect x="13" y="1" width="4" height="1"/><rect x="18" y="3" width="1" height="4"/><rect x="13" y="8" width="4" height="1"/><rect x="11" y="3" width="1" height="4"/><rect x="14" y="4" width="2" height="2"/><rect x="23" y="1" width="4" height="1"/><rect x="28" y="3" width="1" height="4"/><rect x="23" y="8" width="4" height="1"/><rect x="21" y="3" width="1" height="4"/><rect x="24" y="4" width="2" height="2"/><rect x="33" y="1" width="4" height="1"/><rect x="38" y="3" width="1" height="4"/><rect x="33" y="8" width="4" height="1"/><rect x="31" y="3" width="1" height="4"/><rect x="34" y="4" width="2" height="2"/><rect x="43" y="1" width="4" height="1"/><rect x="48" y="3" width="1" height="4"/><rect x="43" y="8" width="4" height="1"/><rect x="41" y="3" width="1" height="4"/><rect x="44" y="4" width="2" height="2"/><rect x="53" y="1" width="4" height="1"/><rect x="58" y="3" width="1" height="4"/><rect x="53" y="8" width="4" height="1"/><rect x="51" y="3" width="1" height="4"/><rect x="54" y="4" width="2" height="2"/><rect x="63" y="1" width="4" height="1"/><rect x="68" y="3" width="1" height="4"/><rect x="63" y="8" width="4" height="1"/><rect x="61" y="3" width="1" height="4"/><rect x="64" y="4" width="2" height="2"/><rect x="73" y="1" width="4" height="1"/><rect x="78" y="3" width="1" height="4"/><rect x="73" y="8" width="4" height="1"/><rect x="71" y="3" width="1" height="4"/><rect x="74" y="4" width="2" height="2"/><rect x="83" y="1" width="4" height="1"/><rect x="88" y="3" width="1" height="4"/><rect x="83" y="8" width="4" height="1"/><rect x="81" y="3" width="1" height="4"/><rect x="84" y="4" width="2" height="2"/><rect x="93" y="1" width="4" height="1"/><rect x="98" y="3" width="1" height="4"/><rect x="93" y="8" width="4" height="1"/><rect x="91" y="3" width="1" height="4"/><rect x="94" y="4" width="2" height="2"/><rect x="3" y="11" width="4" height="1"/><rect x="8" y="13" width="1" height="4"/><rect x="3" y="18" width="4" height="1"/><rect x="1" y="13" width="1" height="4"/><rect x="4" y="14" width="2" height="2"/><rect x="13" y="11" width="4" height="1"/><rect x="18" y="13" width="1" height="4"/><rect x="13" y="18" width="4" height="1"/><rect x="11" y="13" width="1" height="4"/><rect x="14" y="14" width="2" height="2"/><rect x="23" y="11" width="4" height="1"/><rect x="28" y="13" width="1" height="4"/><rect x="23" y="18" width="4" height="1"/><rect x="21" y="13" width="1" height="4"/><rect x="24" y="14" width="2" height="2"/><rect x="33" y="11" width="4" height="1"/><rect x="38" y="13" width="1" height="4"/><rect x="33" y="18" width="4" height="1"/><rect x="31" y="13" width="1" height="4"/><rect x="34" y="14" width="2" height="2"/><rect x="43" y="11" width="4" height="1"/><rect x="48" y="13" width="1" height="4"/><rect x="43" y="18" width="4" height="1"/><rect x="41" y="13" width="1" height="4"/><rect x="44" y="14" width="2" height="2"/><rect x="53" y="11" width="4" height="1"/><rect x="58" y="13" width="1" height="4"/><rect x="53" y="18" width="4" height="1"/><rect x="51" y="13" width="1" height="4"/><rect x="54" y="14" width="2" height="2"/><rect x="63" y="11" width="4" height="1"/><rect x="68" y="13" width="1" height="4"/><rect x="63" y="18" width="4" height="1"/><rect x="61" y="13" width="1" height="4"/><rect x="64" y="14" width="2" height="2"/><rect x="73" y="11" width="4" height="1"/><rect x="78" y="13" width="1" height="4"/><rect x="73" y="18" width="4" height="1"/><rect x="71" y="13" width="1" height="4"/><rect x="74" y="14" width="2" height="2"/><rect x="83" y="11" width="4" height="1"/><rect x="88" y="13" width="1" height="4"/><rect x="83" y="18" width="4" height="1"/><rect x="81" y="13" width="1" height="4"/><rect x="84" y="14" width="2" height="2"/><rect x="93" y="11" width="4" height="1"/><rect x="98" y="13" width="1" height="4"/><rect x="93" y="18" width="4" height="1"/><rect x="91" y="13" width="1" height="4"/><rect x="94" y="14" width="2" height="2"/><rect x="3" y="21" width="4" height="1"/><rect x="8" y="23" width="1" height="4"/><rect x="3" y="28" width="4" height="1"/><rect x="1" y="23" width="1" height="4"/><rect x="4" y="24" width="2" height="2"/><rect x="13" y="21" width="4" height="1"/><rect x="18" y="23" width="1" height="4"/><rect x="13" y="28" width="4" height="1"/><rect x="11" y="23" width="1" height="4"/><rect x="14" y="24" width="2" height="2"/><rect x="23" y="21" width="4" height="1"/><rect x="28" y="23" width="1" height="4"/><rect x="23" y="28" width="4" height="1"/><rect x="21" y="23" width="1" height="4"/><rect x="24" y="24" width="2" height="2"/><rect x="33" y="21" width="4" height="1"/><rect x="38" y="23" width="1" height="4"/><rect x="33" y="28" width="4" height="1"/><rect x="31" y="23" width="1" height="4"/><rect x="34" y="24" width="2" height="2"/><rect x="43" y="21" width="4" height="1"/><rect x="48" y="23" width="1" height="4"/><rect x="43" y="28" width="4" height="1"/><rect x="41" y="23" width="1" height="4"/><rect x="44" y="24" width="2" height="2"/><rect x="53" y="21" width="4" height="1"/><rect x="58" y="23" width="1" height="4"/><rect x="53" y="28" width="4" height="1"/><rect x="51" y="23" width="1" height="4"/><rect x="54" y="24" width="2" height="2"/><rect x="63" y="21" width="4" height="1"/><rect x="68" y="23" width="1" height="4"/><rect x="63" y="28" width="4" height="1"/><rect x="61" y="23" width="1" height="4"/><rect x="64" y="24" width="2" height="2"/><rect x="73" y="21" width="4" height="1"/><rect x="78" y="23" width="1" height="4"/><rect x="73" y="28" width="4" height="1"/><rect x="71" y="23" width="1" height="4"/><rect x="74" y="24" width="2" height="2"/><rect x="83" y="21" width="4" height="1"/><rect x="88" y="23" width="1" height="4"/><rect x="83" y="28" width="4" height="1"/><rect x="81" y="23" width="1" height="4"/><rect x="84" y="24" width="2" height="2"/><rect x="93" y="21" width="4" height="1"/><rect x="98" y="23" width="1" height="4"/><rect x="93" y="28" width="4" height="1"/><rect x="91" y="23" width="1" height="4"/><rect x="94" y="24" width="2" height="2"/><rect x="3" y="31" width="4" height="1"/><rect x="8" y="33" width="1" height="4"/><rect x="3" y="38" width="4" height="1"/><rect x="1" y="33" width="1" height="4"/><rect x="4" y="34" width="2" height="2"/><rect x="13" y="31" width="4" height="1"/><rect x="18" y="33" width="1" height="4"/><rect x="13" y="38" width="4" height="1"/><rect x="11" y="33" width="1" height="4"/><rect x="14" y="34" width="2" height="2"/><rect x="23" y="31" width="4" height="1"/><rect x="28" y="33" width="1" height="4"/><rect x="23" y="38" width="4" height="1"/><rect x="21" y="33" width="1" height="4"/><rect x="24" y="34" width="2" height="2"/><rect x="33" y="31" width="4" height="1"/><rect x="38" y="33" width="1" height="4"/><rect x="33" y="38" width="4" height="1"/><rect x="31" y="33" width="1" height="4"/><rect x="34" y="34" width="2" height="2"/><rect x="43" y="31" width="4" height="1"/><rect x="48" y="33" width="1" height="4"/><rect x="43" y="38" width="4" height="1"/><rect x="41" y="33" width="1" height="4"/><rect x="44" y="34" width="2" height="2"/><rect x="53" y="31" width="4" height="1"/><rect x="58" y="33" width="1" height="4"/><rect x="53" y="38" width="4" height="1"/><rect x="51" y="33" width="1" height="4"/><rect x="54" y="34" width="2" height="2"/><rect x="63" y="31" width="4" height="1"/><rect x="68" y="33" width="1" height="4"/><rect x="63" y="38" width="4" height="1"/><rect x="61" y="33" width="1" height="4"/><rect x="64" y="34" width="2" height="2"/><rect x="73" y="31" width="4" height="1"/><rect x="78" y="33" width="1" height="4"/><rect x="73" y="38" width="4" height="1"/><rect x="71" y="33" width="1" height="4"/><rect x="74" y="34" width="2" height="2"/><rect x="83" y="31" width="4" height="1"/><rect x="88" y="33" width="1" height="4"/><rect x="83" y="38" width="4" height="1"/><rect x="81" y="33" width="1" height="4"/><rect x="84" y="34" width="2" height="2"/><rect x="93" y="31" width="4" height="1"/><rect x="98" y="33" width="1" height="4"/><rect x="93" y="38" width="4" height="1"/><rect x="91" y="33" width="1" height="4"/><rect x="94" y="34" width="2" height="2"/><rect x="3" y="41" width="4" height="1"/><rect x="8" y="43" width="1" height="4"/><rect x="3" y="48" width="4" height="1"/><rect x="1" y="43" width="1" height="4"/><rect x="4" y="44" width="2" height="2"/><rect x="13" y="41" width="4" height="1"/><rect x="18" y="43" width="1" height="4"/><rect x="13" y="48" width="4" height="1"/><rect x="11" y="43" width="1" height="4"/><rect x="14" y="44" width="2" height="2"/><rect x="23" y="41" width="4" height="1"/><rect x="28" y="43" width="1" height="4"/><rect x="23" y="48" width="4" height="1"/><rect x="21" y="43" width="1" height="4"/><rect x="24" y="44" width="2" height="2"/><rect x="33" y="41" width="4" height="1"/><rect x="38" y="43" width="1" height="4"/><rect x="33" y="48" width="4" height="1"/><rect x="31" y="43" width="1" height="4"/><rect x="34" y="44" width="2" height="2"/><rect x="43" y="41" width="4" height="1"/><rect x="48" y="43" width="1" height="4"/><rect x="43" y="48" width="4" height="1"/><rect x="41" y="43" width="1" height="4"/><rect x="44" y="44" width="2" height="2"/><rect x="53" y="41" width="4" height="1"/><rect x="58" y="43" width="1" height="4"/><rect x="53" y="48" width="4" height="1"/><rect x="51" y="43" width="1" height="4"/><rect x="54" y="44" width="2" height="2"/><rect x="63" y="41" width="4" height="1"/><rect x="68" y="43" width="1" height="4"/><rect x="63" y="48" width="4" height="1"/><rect x="61" y="43" width="1" height="4"/><rect x="64" y="44" width="2" height="2"/><rect x="73" y="41" width="4" height="1"/><rect x="78" y="43" width="1" height="4"/><rect x="73" y="48" width="4" height="1"/><rect x="71" y="43" width="1" height="4"/><rect x="74" y="44" width="2" height="2"/><rect x="83" y="41" width="4" height="1"/><rect x="88" y="43" width="1" height="4"/><rect x="83" y="48" width="4" height="1"/><rect x="81" y="43" width="1" height="4"/><rect x="84" y="44" width="2" height="2"/><rect x="93" y="41" width="4" height="1"/><rect x="98" y="43" width="1" height="4"/><rect x="93" y="48" width="4" height="1"/><rect x="91" y="43" width="1" height="4"/><rect x="94" y="44" width="2" height="2"/><rect x="3" y="51" width="4" height="1"/><rect x="8" y="53" width="1" height="4"/><rect x="3" y="58" width="4" height="1"/><rect x="1" y="53" width="1" height="4"/><rect x="4" y="54" width="2" height="2"/><rect x="13" y="51" width="4" height="1"/><rect x="18" y="53" width="1" height="4"/><rect x="13" y="58" width="4" height="1"/><rect x="11" y="53" width="1" height="4"/><rect x="14" y="54" width="2" height="2"/><rect x="23" y="51" width="4" height="1"/><rect x="28" y="53" width="1" height="4"/><rect x="23" y="58" width="4" height="1"/><rect x="21" y="53" width="1" height="4"/><rect x="24" y="54" width="2" height="2"/><rect x="33" y="51" width="4" height="1"/><rect x="38" y="53" width="1" height="4"/><rect x="33" y="58" width="4" height="1"/><rect x="31" y="53" width="1" height="4"/><rect x="34" y="54" width="2" height="2"/><rect x="43" y="51" width="4" height="1"/><rect x="48" y="53" width="1" height="4"/><rect x="43" y="58" width="4" height="1"/><rect x="41" y="53" width="1" height="4"/><rect x="44" y="54" width="2" height="2"/><rect x="53" y="51" width="4" height="1"/><rect x="58" y="53" width="1" height="4"/><rect x="53" y="58" width="4" height="1"/><rect x="51" y="53" width="1" height="4"/><rect x="54" y="54" width="2" height="2"/><rect x="63" y="51" width="4" height="1"/><rect x="68" y="53" width="1" height="4"/><rect x="63" y="58" width="4" height="1"/><rect x="61" y="53" width="1" height="4"/><rect x="64" y="54" width="2" height="2"/><rect x="73" y="51" width="4" height="1"/><rect x="78" y="53" width="1" height="4"/><rect x="73" y="58" width="4" height="1"/><rect x="71" y="53" width="1" height="4"/><rect x="74" y="54" width="2" height="2"/><rect x="83" y="51" width="4" height="1"/><rect x="88" y="53" width="1" height="4"/><rect x="83" y="58" width="4" height="1"/><rect x="81" y="53" width="1" height="4"/><rect x="84" y="54" width="2" height="2"/><rect x="93" y="51" width="4" height="1"/><rect x="98" y="53" width="1" height="4"/><rect x="93" y="58" width="4" height="1"/><rect x="91" y="53" width="1" height="4"/><rect x="94" y="54" width="2" height="2"/><rect x="3" y="61" width="4" height="1"/><rect x="8" y="63" width="1" height="4"/><rect x="3" y="68" width="4" height="1"/><rect x="1" y="63" width="1" height="4"/><rect x="4" y="64" width="2" height="2"/><rect x="13" y="61" width="4" height="1"/><rect x="18" y="63" width="1" height="4"/><rect x="13" y="68" width="4" height="1"/><rect x="11" y="63" width="1" height="4"/><rect x="14" y="64" width="2" height="2"/><rect x="23" y="61" width="4" height="1"/><rect x="28" y="63" width="1" height="4"/><rect x="23" y="68" width="4" height="1"/><rect x="21" y="63" width="1" height="4"/><rect x="24" y="64" width="2" height="2"/><rect x="33" y="61" width="4" height="1"/><rect x="38" y="63" width="1" height="4"/><rect x="33" y="68" width="4" height="1"/><rect x="31" y="63" width="1" height="4"/><rect x="34" y="64" width="2" height="2"/><rect x="43" y="61" width="4" height="1"/><rect x="48" y="63" width="1" height="4"/><rect x="43" y="68" width="4" height="1"/><rect x="41" y="63" width="1" height="4"/><rect x="44" y="64" width="2" height="2"/><rect x="53" y="61" width="4" height="1"/><rect x="58" y="63" width="1" height="4"/><rect x="53" y="68" width="4" height="1"/><rect x="51" y="63" width="1" height="4"/><rect x="54" y="64" width="2" height="2"/><rect x="63" y="61" width="4" height="1"/><rect x="68" y="63" width="1" height="4"/><rect x="63" y="68" width="4" height="1"/><rect x="61" y="63" width="1" height="4"/><rect x="64" y="64" width="2" height="2"/><rect x="73" y="61" width="4" height="1"/><rect x="78" y="63" width="1" height="4"/><rect x="73" y="68" width="4" height="1"/><rect x="71" y="63" width="1" height="4"/><rect x="74" y="64" width="2" height="2"/><rect x="83" y="61" width="4" height="1"/><rect x="88" y="63" width="1" height="4"/><rect x="83" y="68" width="4" height="1"/><rect x="81" y="63" width="1" height="4"/><rect x="84" y="64" width="2" height="2"/><rect x="93" y="61" width="4" height="1"/><rect x="98" y="63" width="1" height="4"/><rect x="93" y="68" width="4" height="1"/><rect x="91" y="63" width="1" height="4"/><rect x="94" y="64" width="2" height="2"/><rect x="3" y="71" width="4" height="1"/><rect x="8" y="73" width="1" height="4"/><rect x="3" y="78" width="4" height="1"/><rect x="1" y="73" width="1" height="4"/><rect x="4" y="74" width="2" height="2"/><rect x="13" y="71" width="4" height="1"/><rect x="18" y="73" width="1" height="4"/><rect x="13" y="78" width="4" height="1"/><rect x="11" y="73" width="1" height="4"/><rect x="14" y="74" width="2" height="2"/><rect x="23" y="71" width="4" height="1"/><rect x="28" y="73" width="1" height="4"/><rect x="23" y="78" width="4" height="1"/><rect x="21" y="73" width="1" height="4"/><rect x="24" y="74" width="2" height="2"/><rect x="33" y="71" width="4" height="1"/><rect x="38" y="73" width="1" height="4"/><rect x="33" y="78" width="4" height="1"/><rect x="31" y="73" width="1" height="4"/><rect x="34" y="74" width="2" height="2"/><rect x="43" y="71" width="4" height="1"/><rect x="48" y="73" width="1" height="4"/><rect x="43" y="78" width="4" height="1"/><rect x="41" y="73" width="1" height="4"/><rect x="44" y="74" width="2" height="2"/><rect x="53" y="71" width="4" height="1"/><rect x="58" y="73" width="1" height="4"/><rect x="53" y="78" width="4" height="1"/><rect x="51" y="73" width="1" height="4"/><rect x="54" y="74" width="2" height="2"/><rect x="63" y="71" width="4" height="1"/><rect x="68" y="73" width="1" height="4"/><rect x="63" y="78" width="4" height="1"/><rect x="61" y="73" width="1" height="4"/><rect x="64" y="74" width="2" height="2"/><rect x="73" y="71" width="4" height="1"/><rect x="78" y="73" width="1" height="4"/><rect x="73" y="78" width="4" height="1"/><rect x="71" y="73" width="1" height="4"/><rect x="74" y="74" width="2" height="2"/><rect x="83" y="71" width="4" height="1"/><rect x="88" y="73" width="1" height="4"/><rect x="83" y="78" width="4" height="1"/><rect x="81" y="73" width="1" height="4"/><rect x="84" y="74" width="2" height="2"/><rect x="93" y="71" width="4" height="1"/><rect x="98" y="73" width="1" height="4"/><rect x="93" y="78" width="4" height="1"/><rect x="91" y="73" width="1" height="4"/><rect x="94" y="74" width="2" height="2"/><rect x="3" y="81" width="4" height="1"/><rect x="8" y="83" width="1" height="4"/><rect x="3" y="88" width="4" height="1"/><rect x="1" y="83" width="1" height="4"/><rect x="4" y="84" width="2" height="2"/><rect x="13" y="81" width="4" height="1"/><rect x="18" y="83" width="1" height="4"/><rect x="13" y="88" width="4" height="1"/><rect x="11" y="83" width="1" height="4"/><rect x="14" y="84" width="2" height="2"/><rect x="23" y="81" width="4" height="1"/><rect x="28" y="83" width="1" height="4"/><rect x="23" y="88" width="4" height="1"/><rect x="21" y="83" width="1" height="4"/><rect x="24" y="84" width="2" height="2"/><rect x="33" y="81" width="4" height="1"/><rect x="38" y="83" width="1" height="4"/><rect x="33" y="88" width="4" height="1"/><rect x="31" y="83" width="1" height="4"/><rect x="34" y="84" width="2" height="2"/><rect x="43" y="81" width="4" height="1"/><rect x="48" y="83" width="1" height="4"/><rect x="43" y="88" width="4" height="1"/><rect x="41" y="83" width="1" height="4"/><rect x="44" y="84" width="2" height="2"/><rect x="53" y="81" width="4" height="1"/><rect x="58" y="83" width="1" height="4"/><rect x="53" y="88" width="4" height="1"/><rect x="51" y="83" width="1" height="4"/><rect x="54" y="84" width="2" height="2"/><rect x="63" y="81" width="4" height="1"/><rect x="68" y="83" width="1" height="4"/><rect x="63" y="88" width="4" height="1"/><rect x="61" y="83" width="1" height="4"/><rect x="64" y="84" width="2" height="2"/><rect x="73" y="81" width="4" height="1"/><rect x="78" y="83" width="1" height="4"/><rect x="73" y="88" width="4" height="1"/><rect x="71" y="83" width="1" height="4"/><rect x="74" y="84" width="2" height="2"/><rect x="83" y="81" width="4" height="1"/><rect x="88" y="83" width="1" height="4"/><rect x="83" y="88" width="4" height="1"/><rect x="81" y="83" width="1" height="4"/><rect x="84" y="84" width="2" height="2"/><rect x="93" y="81" width="4" height="1"/><rect x="98" y="83" width="1" height="4"/><rect x="93" y="88" width="4" height="1"/><rect x="91" y="83" width="1" height="4"/><rect x="94" y="84" width="2" height="2"/><rect x="3" y="91" width="4" height="1"/><rect x="8" y="93" width="1" height="4"/><rect x="3" y="98" width="4" height="1"/><rect x="1" y="93" width="1" height="4"/><rect x="4" y="94" width="2" height="2"/><rect x="13" y="91" width="4" height="1"/><rect x="18" y="93" width="1" height="4"/><rect x="13" y="98" width="4" height="1"/><rect x="11" y="93" width="1" height="4"/><rect x="14" y="94" width="2" height="2"/><rect x="23" y="91" width="4" height="1"/><rect x="28" y="93" width="1" height="4"/><rect x="23" y="98" width="4" height="1"/><rect x="21" y="93" width="1" height="4"/><rect x="24" y="94" width="2" height="2"/><rect x="33" y="91" width="4" height="1"/><rect x="38" y="93" width="1" height="4"/><rect x="33" y="98" width="4" height="1"/><rect x="31" y="93" width="1" height="4"/><rect x="34" y="94" width="2" height="2"/><rect x="43" y="91" width="4" height="1"/><rect x="48" y="93" width="1" height="4"/><rect x="43" y="98" width="4" height="1"/><rect x="41" y="93" width="1" height="4"/><rect x="44" y="94" width="2" height="2"/><rect x="53" y="91" width="4" height="1"/><rect x="58" y="93" width="1" height="4"/><rect x="53" y="98" width="4" height="1"/><rect x="51" y="93" width="1" height="4"/><rect x="54" y="94" width="2" height="2"/><rect x="63" y="91" width="4" height="1"/><rect x="68" y="93" width="1" height="4"/><rect x="63" y="98" width="4" height="1"/><rect x="61" y="93" width="1" height="4"/><rect x="64" y="94" width="2" height="2"/><rect x="73" y="91" width="4" height="1"/><rect x="78" y="93" width="1" height="4"/><rect x="73" y="98" width="4" height="1"/><rect x="71" y="93" width="1" height="4"/><rect x="74" y="94" width="2" height="2"/><rect x="83" y="91" width="4" height="1"/><rect x="88" y="93" width="1" height="4"/><rect x="83" y="98" width="4" height="1"/><rect x="81" y="93" width="1" height="4"/><rect x="84" y="94" width="2" height="2"/><rect x="93" y="91" width="4" height="1"/><rect x="98" y="93" width="1" height="4"/><rect x="93" y="98" width="4" height="1"/><rect x="91" y="93" width="1" height="4"/><rect x="94" y="94" width="2" height="2"/></svg>