<svg id="Layer_1" data-name="Layer 1" xmlns="http://www.w3.org/2000/svg" viewBox="0 0 100 100"><title>pattern</title><rect width="1" height="5"/><rect x="6" y="30" width="1" height="5"/><rect x="8" y="40" width="1" height="5"/><polygon points="9 50 10 50 10 49 10 48 15 48 15 47 10 47 10 45 9 45 9 48 5 48 5 49 9 49 9 50"/><polygon points="10 95 9 95 9 98 5 98 5 99 9 99 9 100 10 100 10 99 10 98 15 98 15 97 10 97 10 95"/><rect x="8" y="90" width="1" height="5"/><rect x="6" y="80" width="1" height="5"/><rect x="10" width="1" height="5"/><polygon points="11 10 12 10 12 8 15 8 15 7 12 7 12 5 11 5 11 7 10 7 10 8 11 8 11 10"/><rect x="12" y="10" width="1" height="5"/><rect x="14" y="20" width="1" height="5"/><rect x="16" y="30" width="1" height="5"/><rect x="18" y="40" width="1" height="5"/><polygon points="19 50 20 50 20 47 20 46 25 46 25 45 20 45 19 45 19 46 15 46 15 47 19 47 19 50"/><polygon points="19 95 19 96 15 96 15 97 19 97 19 100 20 100 20 97 20 96 25 96 25 95 20 95 19 95"/><rect x="18" y="90" width="1" height="5"/><polygon points="18 85 17 85 17 86 15 86 15 87 17 87 17 90 18 90 18 87 20 87 20 86 18 86 18 85"/><rect x="16" y="80" width="1" height="5"/><rect x="14" y="70" width="1" height="5"/><rect x="12" y="60" width="1" height="5"/><rect x="10" y="50" width="1" height="5"/><polygon points="21 10 22 10 22 6 25 6 25 5 22 5 21 5 21 0 20 0 20 5 20 6 21 6 21 10"/><polygon points="23 20 24 20 24 16 25 16 25 15 24 15 23 15 23 10 22 10 22 15 20 15 20 16 23 16 23 20"/><polygon points="29 90 28 90 28 94 25 94 25 95 28 95 29 95 29 100 30 100 30 95 30 94 29 94 29 90"/><polygon points="27 80 26 80 26 84 25 84 25 85 26 85 27 85 27 90 28 90 28 85 30 85 30 84 27 84 27 80"/><polygon points="25 70 24 70 24 75 20 75 20 76 25 76 25 80 26 80 26 75 30 75 30 74 25 74 25 70"/><polygon points="31 5 31 4 35 4 35 3 31 3 31 0 30 0 30 3 30 4 25 4 25 5 30 5 31 5"/><rect x="31" y="5" width="1" height="5"/><polygon points="32 15 33 15 33 14 35 14 35 13 33 13 33 10 32 10 32 13 30 13 30 14 32 14 32 15"/><rect x="33" y="15" width="1" height="5"/><polygon points="34 25 35 25 35 24 35 23 40 23 40 22 35 22 35 20 34 20 34 23 30 23 30 24 34 24 34 25"/><rect x="35" y="25" width="1" height="5"/><rect x="37" y="35" width="1" height="5"/><polygon points="38 45 39 45 39 43 40 43 40 42 39 42 39 40 38 40 38 42 35 42 35 43 38 43 38 45"/><rect x="39" y="45" width="1" height="5"/><rect x="39" y="95" width="1" height="5"/><polygon points="39 90 38 90 38 92 35 92 35 93 38 93 38 95 39 95 39 93 40 93 40 92 39 92 39 90"/><rect x="37" y="85" width="1" height="5"/><polygon points="37 80 36 80 36 82 35 82 35 83 36 83 36 85 37 85 37 83 40 83 40 82 37 82 37 80"/><rect x="35" y="75" width="1" height="5"/><polygon points="35 70 34 70 34 73 30 73 30 74 34 74 34 75 35 75 35 74 35 73 40 73 40 72 35 72 35 70"/><rect x="33" y="65" width="1" height="5"/><polygon points="33 60 32 60 32 63 30 63 30 64 32 64 32 65 33 65 33 64 35 64 35 63 33 63 33 60"/><rect x="31" y="55" width="1" height="5"/><polygon points="40 5 41 5 41 2 45 2 45 1 41 1 41 0 40 0 40 1 40 2 35 2 35 3 40 3 40 5"/><rect x="41" y="5" width="1" height="5"/><polygon points="42 15 43 15 43 12 45 12 45 11 43 11 43 10 42 10 42 11 40 11 40 12 42 12 42 15"/><rect x="43" y="15" width="1" height="5"/><polygon points="44 25 45 25 45 22 45 21 50 21 50 20 45 20 44 20 44 21 40 21 40 22 44 22 44 25"/><polygon points="46 35 47 35 47 31 50 31 50 30 47 30 46 30 46 25 45 25 45 30 45 31 46 31 46 35"/><polygon points="48 45 49 45 49 41 50 41 50 40 49 40 48 40 48 35 47 35 47 40 45 40 45 41 48 41 48 45"/><polygon points="50 95 49 95 49 100 50 100 55 100 55 99 50 99 50 95"/><rect x="43" y="65" width="1" height="5"/><rect x="41" y="55" width="1" height="5"/><polygon points="50 5 51 5 51 0 50 0 45 0 45 1 50 1 50 5"/><rect x="56" y="30" width="1" height="5"/><rect x="58" y="40" width="1" height="5"/><polygon points="60 95 59 95 59 98 55 98 55 99 59 99 59 100 60 100 60 99 60 98 65 98 65 97 60 97 60 95"/><rect x="58" y="90" width="1" height="5"/><polygon points="58 85 57 85 57 88 55 88 55 89 57 89 57 90 58 90 58 89 60 89 60 88 58 88 58 85"/><rect x="56" y="80" width="1" height="5"/><polygon points="56 75 55 75 55 78 55 79 50 79 50 80 55 80 56 80 56 79 60 79 60 78 56 78 56 75"/><polygon points="54 65 53 65 53 69 50 69 50 70 53 70 54 70 54 75 55 75 55 70 55 69 54 69 54 65"/><polygon points="52 55 51 55 51 59 50 59 50 60 51 60 52 60 52 65 53 65 53 60 55 60 55 59 52 59 52 55"/><rect x="60" width="1" height="5"/><polygon points="61 10 62 10 62 8 65 8 65 7 62 7 62 5 61 5 61 7 60 7 60 8 61 8 61 10"/><rect x="62" y="10" width="1" height="5"/><polygon points="63 20 64 20 64 18 65 18 65 17 64 17 64 15 63 15 63 17 60 17 60 18 63 18 63 20"/><rect x="64" y="20" width="1" height="5"/><polygon points="65 30 66 30 66 27 70 27 70 26 66 26 66 25 65 25 65 26 65 27 60 27 60 28 65 28 65 30"/><rect x="66" y="30" width="1" height="5"/><rect x="68" y="40" width="1" height="5"/><polygon points="69 95 69 96 65 96 65 97 69 97 69 100 70 100 70 97 70 96 75 96 75 95 70 95 69 95"/><rect x="68" y="90" width="1" height="5"/><polygon points="68 85 67 85 67 86 65 86 65 87 67 87 67 90 68 90 68 87 70 87 70 86 68 86 68 85"/><rect x="66" y="80" width="1" height="5"/><polygon points="66 75 65 75 65 76 65 77 60 77 60 78 65 78 65 80 66 80 66 77 70 77 70 76 66 76 66 75"/><rect x="64" y="70" width="1" height="5"/><rect x="62" y="60" width="1" height="5"/><polygon points="62 55 61 55 61 57 60 57 60 58 61 58 61 60 62 60 62 58 65 58 65 57 62 57 62 55"/><rect x="60" y="50" width="1" height="5"/><polygon points="71 10 72 10 72 6 75 6 75 5 72 5 71 5 71 0 70 0 70 5 70 6 71 6 71 10"/><polygon points="73 20 74 20 74 16 75 16 75 15 74 15 73 15 73 10 72 10 72 15 70 15 70 16 73 16 73 20"/><polygon points="79 90 78 90 78 94 75 94 75 95 78 95 79 95 79 100 80 100 80 95 80 94 79 94 79 90"/><polygon points="77 80 76 80 76 84 75 84 75 85 76 85 77 85 77 90 78 90 78 85 80 85 80 84 77 84 77 80"/><polygon points="81 5 81 4 85 4 85 3 81 3 81 0 80 0 80 3 80 4 75 4 75 5 80 5 81 5"/><rect x="81" y="5" width="1" height="5"/><rect x="83" y="15" width="1" height="5"/><rect x="85" y="25" width="1" height="5"/><rect x="87" y="35" width="1" height="5"/><rect x="89" y="45" width="1" height="5"/><rect x="89" y="95" width="1" height="5"/><polygon points="89 90 88 90 88 92 85 92 85 93 88 93 88 95 89 95 89 93 90 93 90 92 89 92 89 90"/><rect x="87" y="85" width="1" height="5"/><rect x="85" y="75" width="1" height="5"/><rect x="83" y="65" width="1" height="5"/><rect x="81" y="55" width="1" height="5"/><polygon points="81 50 80 50 80 53 80 54 75 54 75 55 80 55 81 55 81 54 85 54 85 53 81 53 81 50"/><rect x="91" y="5" width="1" height="5"/><rect x="93" y="15" width="1" height="5"/><rect x="99" y="95" width="1" height="5"/><rect x="93" y="65" width="1" height="5"/><rect x="91" y="55" width="1" height="5"/><polygon points="91 50 90 50 90 51 90 52 85 52 85 53 90 53 90 55 91 55 91 52 95 52 95 51 91 51 91 50"/><rect x="95" width="5" height="1"/><polygon points="95 2 95 1 91 1 91 0 90 0 90 1 90 2 85 2 85 3 90 3 90 5 91 5 91 2 95 2"/><rect x="65" y="6" width="5" height="1"/><rect x="55" y="8" width="5" height="1"/><polygon points="50 9 50 10 51 10 52 10 52 15 53 15 53 10 55 10 55 9 52 9 52 5 51 5 51 9 50 9"/><polygon points="5 10 5 9 2 9 2 5 1 5 1 9 0 9 0 10 1 10 2 10 2 15 3 15 3 10 5 10"/><rect x="5" y="8" width="5" height="1"/><rect x="15" y="6" width="5" height="1"/><rect x="95" y="10" width="5" height="1"/><polygon points="90 11 90 12 92 12 92 15 93 15 93 12 95 12 95 11 93 11 93 10 92 10 92 11 90 11"/><rect x="85" y="12" width="5" height="1"/><polygon points="80 13 80 14 82 14 82 15 83 15 83 14 85 14 85 13 83 13 83 10 82 10 82 13 80 13"/><rect x="75" y="14" width="5" height="1"/><rect x="65" y="16" width="5" height="1"/><rect x="55" y="18" width="5" height="1"/><polygon points="50 19 50 20 53 20 54 20 54 25 55 25 55 20 55 19 54 19 54 15 53 15 53 19 50 19"/><polygon points="5 19 4 19 4 15 3 15 3 19 0 19 0 20 3 20 4 20 4 25 5 25 5 20 5 19"/><rect x="5" y="18" width="5" height="1"/><polygon points="15 18 15 17 14 17 14 15 13 15 13 17 10 17 10 18 13 18 13 20 14 20 14 18 15 18"/><rect x="15" y="16" width="5" height="1"/><rect x="25" y="14" width="5" height="1"/><rect x="35" y="12" width="5" height="1"/><rect x="45" y="10" width="5" height="1"/><polygon points="90 21 90 22 94 22 94 25 95 25 95 22 95 21 100 21 100 20 95 20 94 20 94 21 90 21"/><polygon points="80 23 80 24 84 24 84 25 85 25 85 24 85 23 90 23 90 22 85 22 85 20 84 20 84 23 80 23"/><polygon points="70 25 70 26 75 26 75 30 76 30 76 25 80 25 80 24 75 24 75 20 74 20 74 25 70 25"/><polygon points="55 29 50 29 50 30 55 30 56 30 56 29 60 29 60 28 56 28 56 25 55 25 55 28 55 29"/><polygon points="10 29 10 28 6 28 6 25 5 25 5 28 5 29 0 29 0 30 5 30 6 30 6 29 10 29"/><polygon points="20 27 20 26 16 26 16 25 15 25 15 26 15 27 10 27 10 28 15 28 15 30 16 30 16 27 20 27"/><polygon points="30 25 30 24 25 24 25 20 24 20 24 25 20 25 20 26 25 26 25 30 26 30 26 25 30 25"/><polygon points="95 31 96 31 96 35 97 35 97 31 100 31 100 30 97 30 96 30 96 25 95 25 95 30 95 31"/><rect x="90" y="31" width="5" height="1"/><polygon points="85 32 85 33 86 33 86 35 87 35 87 33 90 33 90 32 87 32 87 30 86 30 86 32 85 32"/><rect x="80" y="33" width="5" height="1"/><polygon points="75 34 75 35 76 35 77 35 77 40 78 40 78 35 80 35 80 34 77 34 77 30 76 30 76 34 75 34"/><rect x="70" y="35" width="5" height="1"/><polygon points="65 36 65 37 67 37 67 40 68 40 68 37 70 37 70 36 68 36 68 35 67 35 67 36 65 36"/><rect x="60" y="37" width="5" height="1"/><polygon points="55 38 55 39 57 39 57 40 58 40 58 39 60 39 60 38 58 38 58 35 57 35 57 38 55 38"/><rect x="50" y="39" width="5" height="1"/><rect y="39" width="5" height="1"/><polygon points="10 39 10 38 8 38 8 35 7 35 7 38 5 38 5 39 7 39 7 40 8 40 8 39 10 39"/><rect x="10" y="37" width="5" height="1"/><polygon points="20 37 20 36 18 36 18 35 17 35 17 36 15 36 15 37 17 37 17 40 18 40 18 37 20 37"/><rect x="20" y="35" width="5" height="1"/><polygon points="30 35 30 34 27 34 27 30 26 30 26 34 25 34 25 35 26 35 27 35 27 40 28 40 28 35 30 35"/><rect x="30" y="33" width="5" height="1"/><polygon points="40 33 40 32 37 32 37 30 36 30 36 32 35 32 35 33 36 33 36 35 37 35 37 33 40 33"/><rect x="40" y="31" width="5" height="1"/><polygon points="95 40 95 41 98 41 98 45 99 45 99 41 100 41 100 40 99 40 98 40 98 35 97 35 97 40 95 40"/><rect x="90" y="41" width="5" height="1"/><polygon points="85 42 85 43 88 43 88 45 89 45 89 43 90 43 90 42 89 42 89 40 88 40 88 42 85 42"/><rect x="80" y="43" width="5" height="1"/><polygon points="75 44 75 45 78 45 79 45 79 50 80 50 80 45 80 44 79 44 79 40 78 40 78 44 75 44"/><polygon points="65 46 65 47 69 47 69 50 70 50 70 47 70 46 75 46 75 45 70 45 69 45 69 46 65 46"/><polygon points="55 48 55 49 59 49 59 50 60 50 60 49 60 48 65 48 65 47 60 47 60 45 59 45 59 48 55 48"/><polygon points="5 50 5 49 0 49 0 50 0 55 1 55 1 50 5 50"/><polygon points="29 45 29 50 30 50 30 45 30 44 29 44 29 40 28 40 28 44 25 44 25 45 28 45 29 45"/><rect x="30" y="43" width="5" height="1"/><rect x="40" y="41" width="5" height="1"/><polygon points="95 50 95 51 100 51 100 50 100 45 99 45 99 50 95 50"/><polygon points="71 55 71 50 70 50 70 55 70 56 71 56 71 60 72 60 72 56 75 56 75 55 72 55 71 55"/><rect x="65" y="56" width="5" height="1"/><rect x="55" y="58" width="5" height="1"/><polygon points="5 60 5 59 2 59 2 55 1 55 1 59 0 59 0 60 1 60 2 60 2 65 3 65 3 60 5 60"/><rect x="5" y="58" width="5" height="1"/><polygon points="15 58 15 57 12 57 12 55 11 55 11 57 10 57 10 58 11 58 11 60 12 60 12 58 15 58"/><rect x="15" y="56" width="5" height="1"/><polygon points="25 56 25 55 22 55 21 55 21 50 20 50 20 55 20 56 21 56 21 60 22 60 22 56 25 56"/><polygon points="35 54 35 53 31 53 31 50 30 50 30 53 30 54 25 54 25 55 30 55 31 55 31 54 35 54"/><polygon points="45 52 45 51 41 51 41 50 40 50 40 51 40 52 35 52 35 53 40 53 40 55 41 55 41 52 45 52"/><polygon points="45 50 45 51 50 51 50 55 51 55 51 50 55 50 55 49 50 49 50 45 49 45 49 50 45 50"/><rect x="95" y="60" width="5" height="1"/><polygon points="90 61 90 62 92 62 92 65 93 65 93 62 95 62 95 61 93 61 93 60 92 60 92 61 90 61"/><rect x="85" y="62" width="5" height="1"/><polygon points="80 63 80 64 82 64 82 65 83 65 83 64 85 64 85 63 83 63 83 60 82 60 82 63 80 63"/><rect x="75" y="64" width="5" height="1"/><polygon points="70 65 70 66 73 66 73 70 74 70 74 66 75 66 75 65 74 65 73 65 73 60 72 60 72 65 70 65"/><rect x="65" y="66" width="5" height="1"/><polygon points="60 67 60 68 63 68 63 70 64 70 64 68 65 68 65 67 64 67 64 65 63 65 63 67 60 67"/><rect x="55" y="68" width="5" height="1"/><polygon points="5 69 4 69 4 65 3 65 3 69 0 69 0 70 3 70 4 70 4 75 5 75 5 70 5 69"/><rect x="5" y="68" width="5" height="1"/><polygon points="15 68 15 67 14 67 14 65 13 65 13 67 10 67 10 68 13 68 13 70 14 70 14 68 15 68"/><rect x="15" y="66" width="5" height="1"/><polygon points="25 66 25 65 24 65 23 65 23 60 22 60 22 65 20 65 20 66 23 66 23 70 24 70 24 66 25 66"/><rect x="25" y="64" width="5" height="1"/><rect x="35" y="62" width="5" height="1"/><polygon points="45 62 45 61 43 61 43 60 42 60 42 61 40 61 40 62 42 62 42 65 43 65 43 62 45 62"/><rect x="45" y="60" width="5" height="1"/><polygon points="90 71 90 72 94 72 94 75 95 75 95 72 95 71 100 71 100 70 95 70 94 70 94 71 90 71"/><polygon points="80 73 80 74 84 74 84 75 85 75 85 74 85 73 90 73 90 72 85 72 85 70 84 70 84 73 80 73"/><polygon points="70 75 70 76 75 76 75 80 76 80 76 75 80 75 80 74 75 74 75 70 74 70 74 75 70 75"/><polygon points="10 79 10 78 6 78 6 75 5 75 5 78 5 79 0 79 0 80 5 80 6 80 6 79 10 79"/><polygon points="20 77 20 76 16 76 16 75 15 75 15 76 15 77 10 77 10 78 15 78 15 80 16 80 16 77 20 77"/><polygon points="45 71 50 71 50 70 45 70 44 70 44 71 40 71 40 72 44 72 44 75 45 75 45 72 45 71"/><polygon points="95 81 96 81 96 85 97 85 97 81 100 81 100 80 97 80 96 80 96 75 95 75 95 80 95 81"/><rect x="90" y="81" width="5" height="1"/><polygon points="85 82 85 83 86 83 86 85 87 85 87 83 90 83 90 82 87 82 87 80 86 80 86 82 85 82"/><rect x="80" y="83" width="5" height="1"/><rect x="70" y="85" width="5" height="1"/><rect x="60" y="87" width="5" height="1"/><rect x="50" y="89" width="5" height="1"/><rect y="89" width="5" height="1"/><polygon points="10 89 10 88 8 88 8 85 7 85 7 88 5 88 5 89 7 89 7 90 8 90 8 89 10 89"/><rect x="10" y="87" width="5" height="1"/><rect x="20" y="85" width="5" height="1"/><rect x="30" y="83" width="5" height="1"/><rect x="40" y="81" width="5" height="1"/><polygon points="50 81 50 80 47 80 46 80 46 75 45 75 45 80 45 81 46 81 46 85 47 85 47 81 50 81"/><polygon points="95 90 95 91 98 91 98 95 99 95 99 91 100 91 100 90 99 90 98 90 98 85 97 85 97 90 95 90"/><rect x="90" y="91" width="5" height="1"/><rect x="80" y="93" width="5" height="1"/><rect y="99" width="5" height="1"/><rect x="30" y="93" width="5" height="1"/><rect x="40" y="91" width="5" height="1"/><polygon points="50 91 50 90 49 90 48 90 48 85 47 85 47 90 45 90 45 91 48 91 48 95 49 95 49 91 50 91"/></svg>