<svg id="Layer_1" data-name="Layer 1" xmlns="http://www.w3.org/2000/svg" viewBox="0 0 100 100"><title>pattern</title><rect x="1" y="1" width="5" height="5"/><rect x="6" y="6" width="2" height="2"/><rect x="8" y="8" width="1" height="1"/><rect x="11" y="11" width="5" height="5"/><rect x="16" y="16" width="2" height="2"/><rect x="18" y="18" width="1" height="1"/><rect x="14" y="4" width="5" height="5" transform="translate(33 13) rotate(180)"/><rect x="12" y="2" width="2" height="2" transform="translate(26 6) rotate(180)"/><rect x="11" y="1" width="1" height="1" transform="translate(23 3) rotate(180)"/><rect x="4" y="14" width="5" height="5" transform="translate(13 33) rotate(180)"/><rect x="2" y="12" width="2" height="2" transform="translate(6 26) rotate(180)"/><rect x="1" y="11" width="1" height="1" transform="translate(3 23) rotate(180)"/><rect x="31" y="11" width="5" height="5"/><rect x="36" y="16" width="2" height="2"/><rect x="38" y="18" width="1" height="1"/><rect x="24" y="14" width="5" height="5" transform="translate(53 33) rotate(180)"/><rect x="22" y="12" width="2" height="2" transform="translate(46 26) rotate(180)"/><rect x="21" y="11" width="1" height="1" transform="translate(43 23) rotate(180)"/><rect x="51" y="11" width="5" height="5"/><rect x="56" y="16" width="2" height="2"/><rect x="58" y="18" width="1" height="1"/><rect x="44" y="14" width="5" height="5" transform="translate(93 33) rotate(180)"/><rect x="42" y="12" width="2" height="2" transform="translate(86 26) rotate(180)"/><rect x="41" y="11" width="1" height="1" transform="translate(83 23) rotate(180)"/><rect x="71" y="11" width="5" height="5"/><rect x="76" y="16" width="2" height="2"/><rect x="78" y="18" width="1" height="1"/><rect x="64" y="14" width="5" height="5" transform="translate(133 33) rotate(180)"/><rect x="62" y="12" width="2" height="2" transform="translate(126 26) rotate(180)"/><rect x="61" y="11" width="1" height="1" transform="translate(123 23) rotate(180)"/><rect x="91" y="11" width="5" height="5"/><rect x="96" y="16" width="2" height="2"/><rect x="98" y="18" width="1" height="1"/><rect x="84" y="14" width="5" height="5" transform="translate(173 33) rotate(180)"/><rect x="82" y="12" width="2" height="2" transform="translate(166 26) rotate(180)"/><rect x="81" y="11" width="1" height="1" transform="translate(163 23) rotate(180)"/><rect x="21" y="1" width="5" height="5"/><rect x="26" y="6" width="2" height="2"/><rect x="28" y="8" width="1" height="1"/><rect x="34" y="4" width="5" height="5" transform="translate(73 13) rotate(180)"/><rect x="32" y="2" width="2" height="2" transform="translate(66 6) rotate(180)"/><rect x="31" y="1" width="1" height="1" transform="translate(63 3) rotate(180)"/><rect x="41" y="1" width="5" height="5"/><rect x="46" y="6" width="2" height="2"/><rect x="48" y="8" width="1" height="1"/><rect x="54" y="4" width="5" height="5" transform="translate(113 13) rotate(180)"/><rect x="52" y="2" width="2" height="2" transform="translate(106 6) rotate(180)"/><rect x="51" y="1" width="1" height="1" transform="translate(103 3) rotate(180)"/><rect x="61" y="1" width="5" height="5"/><rect x="66" y="6" width="2" height="2"/><rect x="68" y="8" width="1" height="1"/><rect x="74" y="4" width="5" height="5" transform="translate(153 13) rotate(180)"/><rect x="72" y="2" width="2" height="2" transform="translate(146 6) rotate(180)"/><rect x="71" y="1" width="1" height="1" transform="translate(143 3) rotate(180)"/><rect x="81" y="1" width="5" height="5"/><rect x="86" y="6" width="2" height="2"/><rect x="88" y="8" width="1" height="1"/><rect x="94" y="4" width="5" height="5" transform="translate(193 13) rotate(180)"/><rect x="92" y="2" width="2" height="2" transform="translate(186 6) rotate(180)"/><rect x="91" y="1" width="1" height="1" transform="translate(183 3) rotate(180)"/><rect x="1" y="21" width="5" height="5"/><rect x="6" y="26" width="2" height="2"/><rect x="8" y="28" width="1" height="1"/><rect x="11" y="31" width="5" height="5"/><rect x="16" y="36" width="2" height="2"/><rect x="18" y="38" width="1" height="1"/><rect x="14" y="24" width="5" height="5" transform="translate(33 53) rotate(180)"/><rect x="12" y="22" width="2" height="2" transform="translate(26 46) rotate(180)"/><rect x="11" y="21" width="1" height="1" transform="translate(23 43) rotate(180)"/><rect x="4" y="34" width="5" height="5" transform="translate(13 73) rotate(180)"/><rect x="2" y="32" width="2" height="2" transform="translate(6 66) rotate(180)"/><rect x="1" y="31" width="1" height="1" transform="translate(3 63) rotate(180)"/><rect x="31" y="31" width="5" height="5"/><rect x="36" y="36" width="2" height="2"/><rect x="38" y="38" width="1" height="1"/><rect x="24" y="34" width="5" height="5" transform="translate(53 73) rotate(180)"/><rect x="22" y="32" width="2" height="2" transform="translate(46 66) rotate(180)"/><rect x="21" y="31" width="1" height="1" transform="translate(43 63) rotate(180)"/><rect x="51" y="31" width="5" height="5"/><rect x="56" y="36" width="2" height="2"/><rect x="58" y="38" width="1" height="1"/><rect x="44" y="34" width="5" height="5" transform="translate(93 73) rotate(180)"/><rect x="42" y="32" width="2" height="2" transform="translate(86 66) rotate(180)"/><rect x="41" y="31" width="1" height="1" transform="translate(83 63) rotate(180)"/><rect x="71" y="31" width="5" height="5"/><rect x="76" y="36" width="2" height="2"/><rect x="78" y="38" width="1" height="1"/><rect x="64" y="34" width="5" height="5" transform="translate(133 73) rotate(180)"/><rect x="62" y="32" width="2" height="2" transform="translate(126 66) rotate(180)"/><rect x="61" y="31" width="1" height="1" transform="translate(123 63) rotate(180)"/><rect x="91" y="31" width="5" height="5"/><rect x="96" y="36" width="2" height="2"/><rect x="98" y="38" width="1" height="1"/><rect x="84" y="34" width="5" height="5" transform="translate(173 73) rotate(180)"/><rect x="82" y="32" width="2" height="2" transform="translate(166 66) rotate(180)"/><rect x="81" y="31" width="1" height="1" transform="translate(163 63) rotate(180)"/><rect x="21" y="21" width="5" height="5"/><rect x="26" y="26" width="2" height="2"/><rect x="28" y="28" width="1" height="1"/><rect x="34" y="24" width="5" height="5" transform="translate(73 53) rotate(180)"/><rect x="32" y="22" width="2" height="2" transform="translate(66 46) rotate(180)"/><rect x="31" y="21" width="1" height="1" transform="translate(63 43) rotate(180)"/><rect x="41" y="21" width="5" height="5"/><rect x="46" y="26" width="2" height="2"/><rect x="48" y="28" width="1" height="1"/><rect x="54" y="24" width="5" height="5" transform="translate(113 53) rotate(180)"/><rect x="52" y="22" width="2" height="2" transform="translate(106 46) rotate(180)"/><rect x="51" y="21" width="1" height="1" transform="translate(103 43) rotate(180)"/><rect x="61" y="21" width="5" height="5"/><rect x="66" y="26" width="2" height="2"/><rect x="68" y="28" width="1" height="1"/><rect x="74" y="24" width="5" height="5" transform="translate(153 53) rotate(180)"/><rect x="72" y="22" width="2" height="2" transform="translate(146 46) rotate(180)"/><rect x="71" y="21" width="1" height="1" transform="translate(143 43) rotate(180)"/><rect x="81" y="21" width="5" height="5"/><rect x="86" y="26" width="2" height="2"/><rect x="88" y="28" width="1" height="1"/><rect x="94" y="24" width="5" height="5" transform="translate(193 53) rotate(180)"/><rect x="92" y="22" width="2" height="2" transform="translate(186 46) rotate(180)"/><rect x="91" y="21" width="1" height="1" transform="translate(183 43) rotate(180)"/><rect x="1" y="41" width="5" height="5"/><rect x="6" y="46" width="2" height="2"/><rect x="8" y="48" width="1" height="1"/><rect x="11" y="51" width="5" height="5"/><rect x="16" y="56" width="2" height="2"/><rect x="18" y="58" width="1" height="1"/><rect x="14" y="44" width="5" height="5" transform="translate(33 93) rotate(180)"/><rect x="12" y="42" width="2" height="2" transform="translate(26 86) rotate(180)"/><rect x="11" y="41" width="1" height="1" transform="translate(23 83) rotate(180)"/><rect x="4" y="54" width="5" height="5" transform="translate(13 113) rotate(180)"/><rect x="2" y="52" width="2" height="2" transform="translate(6 106) rotate(180)"/><rect x="1" y="51" width="1" height="1" transform="translate(3 103) rotate(180)"/><rect x="31" y="51" width="5" height="5"/><rect x="36" y="56" width="2" height="2"/><rect x="38" y="58" width="1" height="1"/><rect x="24" y="54" width="5" height="5" transform="translate(53 113) rotate(180)"/><rect x="22" y="52" width="2" height="2" transform="translate(46 106) rotate(180)"/><rect x="21" y="51" width="1" height="1" transform="translate(43 103) rotate(180)"/><rect x="51" y="51" width="5" height="5"/><rect x="56" y="56" width="2" height="2"/><rect x="58" y="58" width="1" height="1"/><rect x="44" y="54" width="5" height="5" transform="translate(93 113) rotate(180)"/><rect x="42" y="52" width="2" height="2" transform="translate(86 106) rotate(180)"/><rect x="41" y="51" width="1" height="1" transform="translate(83 103) rotate(180)"/><rect x="71" y="51" width="5" height="5"/><rect x="76" y="56" width="2" height="2"/><rect x="78" y="58" width="1" height="1"/><rect x="64" y="54" width="5" height="5" transform="translate(133 113) rotate(180)"/><rect x="62" y="52" width="2" height="2" transform="translate(126 106) rotate(180)"/><rect x="61" y="51" width="1" height="1" transform="translate(123 103) rotate(180)"/><rect x="91" y="51" width="5" height="5"/><rect x="96" y="56" width="2" height="2"/><rect x="98" y="58" width="1" height="1"/><rect x="84" y="54" width="5" height="5" transform="translate(173 113) rotate(180)"/><rect x="82" y="52" width="2" height="2" transform="translate(166 106) rotate(180)"/><rect x="81" y="51" width="1" height="1" transform="translate(163 103) rotate(180)"/><rect x="21" y="41" width="5" height="5"/><rect x="26" y="46" width="2" height="2"/><rect x="28" y="48" width="1" height="1"/><rect x="34" y="44" width="5" height="5" transform="translate(73 93) rotate(180)"/><rect x="32" y="42" width="2" height="2" transform="translate(66 86) rotate(180)"/><rect x="31" y="41" width="1" height="1" transform="translate(63 83) rotate(180)"/><rect x="41" y="41" width="5" height="5"/><rect x="46" y="46" width="2" height="2"/><rect x="48" y="48" width="1" height="1"/><rect x="54" y="44" width="5" height="5" transform="translate(113 93) rotate(180)"/><rect x="52" y="42" width="2" height="2" transform="translate(106 86) rotate(180)"/><rect x="51" y="41" width="1" height="1" transform="translate(103 83) rotate(180)"/><rect x="61" y="41" width="5" height="5"/><rect x="66" y="46" width="2" height="2"/><rect x="68" y="48" width="1" height="1"/><rect x="74" y="44" width="5" height="5" transform="translate(153 93) rotate(180)"/><rect x="72" y="42" width="2" height="2" transform="translate(146 86) rotate(180)"/><rect x="71" y="41" width="1" height="1" transform="translate(143 83) rotate(180)"/><rect x="81" y="41" width="5" height="5"/><rect x="86" y="46" width="2" height="2"/><rect x="88" y="48" width="1" height="1"/><rect x="94" y="44" width="5" height="5" transform="translate(193 93) rotate(180)"/><rect x="92" y="42" width="2" height="2" transform="translate(186 86) rotate(180)"/><rect x="91" y="41" width="1" height="1" transform="translate(183 83) rotate(180)"/><rect x="1" y="61" width="5" height="5"/><rect x="6" y="66" width="2" height="2"/><rect x="8" y="68" width="1" height="1"/><rect x="11" y="71" width="5" height="5"/><rect x="16" y="76" width="2" height="2"/><rect x="18" y="78" width="1" height="1"/><rect x="14" y="64" width="5" height="5" transform="translate(33 133) rotate(180)"/><rect x="12" y="62" width="2" height="2" transform="translate(26 126) rotate(180)"/><rect x="11" y="61" width="1" height="1" transform="translate(23 123) rotate(180)"/><rect x="4" y="74" width="5" height="5" transform="translate(13 153) rotate(180)"/><rect x="2" y="72" width="2" height="2" transform="translate(6 146) rotate(180)"/><rect x="1" y="71" width="1" height="1" transform="translate(3 143) rotate(180)"/><rect x="31" y="71" width="5" height="5"/><rect x="36" y="76" width="2" height="2"/><rect x="38" y="78" width="1" height="1"/><rect x="24" y="74" width="5" height="5" transform="translate(53 153) rotate(180)"/><rect x="22" y="72" width="2" height="2" transform="translate(46 146) rotate(180)"/><rect x="21" y="71" width="1" height="1" transform="translate(43 143) rotate(180)"/><rect x="51" y="71" width="5" height="5"/><rect x="56" y="76" width="2" height="2"/><rect x="58" y="78" width="1" height="1"/><rect x="44" y="74" width="5" height="5" transform="translate(93 153) rotate(180)"/><rect x="42" y="72" width="2" height="2" transform="translate(86 146) rotate(180)"/><rect x="41" y="71" width="1" height="1" transform="translate(83 143) rotate(180)"/><rect x="71" y="71" width="5" height="5"/><rect x="76" y="76" width="2" height="2"/><rect x="78" y="78" width="1" height="1"/><rect x="64" y="74" width="5" height="5" transform="translate(133 153) rotate(180)"/><rect x="62" y="72" width="2" height="2" transform="translate(126 146) rotate(180)"/><rect x="61" y="71" width="1" height="1" transform="translate(123 143) rotate(180)"/><rect x="91" y="71" width="5" height="5"/><rect x="96" y="76" width="2" height="2"/><rect x="98" y="78" width="1" height="1"/><rect x="84" y="74" width="5" height="5" transform="translate(173 153) rotate(180)"/><rect x="82" y="72" width="2" height="2" transform="translate(166 146) rotate(180)"/><rect x="81" y="71" width="1" height="1" transform="translate(163 143) rotate(180)"/><rect x="21" y="61" width="5" height="5"/><rect x="26" y="66" width="2" height="2"/><rect x="28" y="68" width="1" height="1"/><rect x="34" y="64" width="5" height="5" transform="translate(73 133) rotate(180)"/><rect x="32" y="62" width="2" height="2" transform="translate(66 126) rotate(180)"/><rect x="31" y="61" width="1" height="1" transform="translate(63 123) rotate(180)"/><rect x="41" y="61" width="5" height="5"/><rect x="46" y="66" width="2" height="2"/><rect x="48" y="68" width="1" height="1"/><rect x="54" y="64" width="5" height="5" transform="translate(113 133) rotate(180)"/><rect x="52" y="62" width="2" height="2" transform="translate(106 126) rotate(180)"/><rect x="51" y="61" width="1" height="1" transform="translate(103 123) rotate(180)"/><rect x="61" y="61" width="5" height="5"/><rect x="66" y="66" width="2" height="2"/><rect x="68" y="68" width="1" height="1"/><rect x="74" y="64" width="5" height="5" transform="translate(153 133) rotate(180)"/><rect x="72" y="62" width="2" height="2" transform="translate(146 126) rotate(180)"/><rect x="71" y="61" width="1" height="1" transform="translate(143 123) rotate(180)"/><rect x="81" y="61" width="5" height="5"/><rect x="86" y="66" width="2" height="2"/><rect x="88" y="68" width="1" height="1"/><rect x="94" y="64" width="5" height="5" transform="translate(193 133) rotate(180)"/><rect x="92" y="62" width="2" height="2" transform="translate(186 126) rotate(180)"/><rect x="91" y="61" width="1" height="1" transform="translate(183 123) rotate(180)"/><rect x="1" y="81" width="5" height="5"/><rect x="6" y="86" width="2" height="2"/><rect x="8" y="88" width="1" height="1"/><rect x="11" y="91" width="5" height="5"/><rect x="16" y="96" width="2" height="2"/><rect x="18" y="98" width="1" height="1"/><rect x="14" y="84" width="5" height="5" transform="translate(33 173) rotate(180)"/><rect x="12" y="82" width="2" height="2" transform="translate(26 166) rotate(180)"/><rect x="11" y="81" width="1" height="1" transform="translate(23 163) rotate(180)"/><rect x="4" y="94" width="5" height="5" transform="translate(13 193) rotate(180)"/><rect x="2" y="92" width="2" height="2" transform="translate(6 186) rotate(180)"/><rect x="1" y="91" width="1" height="1" transform="translate(3 183) rotate(180)"/><rect x="31" y="91" width="5" height="5"/><rect x="36" y="96" width="2" height="2"/><rect x="38" y="98" width="1" height="1"/><rect x="24" y="94" width="5" height="5" transform="translate(53 193) rotate(180)"/><rect x="22" y="92" width="2" height="2" transform="translate(46 186) rotate(180)"/><rect x="21" y="91" width="1" height="1" transform="translate(43 183) rotate(180)"/><rect x="51" y="91" width="5" height="5"/><rect x="56" y="96" width="2" height="2"/><rect x="58" y="98" width="1" height="1"/><rect x="44" y="94" width="5" height="5" transform="translate(93 193) rotate(180)"/><rect x="42" y="92" width="2" height="2" transform="translate(86 186) rotate(180)"/><rect x="41" y="91" width="1" height="1" transform="translate(83 183) rotate(180)"/><rect x="71" y="91" width="5" height="5"/><rect x="76" y="96" width="2" height="2"/><rect x="78" y="98" width="1" height="1"/><rect x="64" y="94" width="5" height="5" transform="translate(133 193) rotate(180)"/><rect x="62" y="92" width="2" height="2" transform="translate(126 186) rotate(180)"/><rect x="61" y="91" width="1" height="1" transform="translate(123 183) rotate(180)"/><rect x="91" y="91" width="5" height="5"/><rect x="96" y="96" width="2" height="2"/><rect x="98" y="98" width="1" height="1"/><rect x="84" y="94" width="5" height="5" transform="translate(173 193) rotate(180)"/><rect x="82" y="92" width="2" height="2" transform="translate(166 186) rotate(180)"/><rect x="81" y="91" width="1" height="1" transform="translate(163 183) rotate(180)"/><rect x="21" y="81" width="5" height="5"/><rect x="26" y="86" width="2" height="2"/><rect x="28" y="88" width="1" height="1"/><rect x="34" y="84" width="5" height="5" transform="translate(73 173) rotate(180)"/><rect x="32" y="82" width="2" height="2" transform="translate(66 166) rotate(180)"/><rect x="31" y="81" width="1" height="1" transform="translate(63 163) rotate(180)"/><rect x="41" y="81" width="5" height="5"/><rect x="46" y="86" width="2" height="2"/><rect x="48" y="88" width="1" height="1"/><rect x="54" y="84" width="5" height="5" transform="translate(113 173) rotate(180)"/><rect x="52" y="82" width="2" height="2" transform="translate(106 166) rotate(180)"/><rect x="51" y="81" width="1" height="1" transform="translate(103 163) rotate(180)"/><rect x="61" y="81" width="5" height="5"/><rect x="66" y="86" width="2" height="2"/><rect x="68" y="88" width="1" height="1"/><rect x="74" y="84" width="5" height="5" transform="translate(153 173) rotate(180)"/><rect x="72" y="82" width="2" height="2" transform="translate(146 166) rotate(180)"/><rect x="71" y="81" width="1" height="1" transform="translate(143 163) rotate(180)"/><rect x="81" y="81" width="5" height="5"/><rect x="86" y="86" width="2" height="2"/><rect x="88" y="88" width="1" height="1"/><rect x="94" y="84" width="5" height="5" transform="translate(193 173) rotate(180)"/><rect x="92" y="82" width="2" height="2" transform="translate(186 166) rotate(180)"/><rect x="91" y="81" width="1" height="1" transform="translate(183 163) rotate(180)"/></svg>