<svg id="Layer_1" data-name="Layer 1" xmlns="http://www.w3.org/2000/svg" viewBox="0 0 100 100"><title>pattern</title><rect width="1" height="5"/><rect x="4" width="1" height="5"/><rect x="5" y="5" width="1" height="5"/><rect x="8" width="1" height="5"/><polygon points="31 10 29 10 29 5 28 5 28 10 25 10 25 11 30 11 30 14 25 14 25 15 31 15 31 10"/><rect x="34" y="10" width="1" height="5"/><rect x="35" y="15" width="1" height="5"/><polygon points="38 15 39 15 39 10 40 10 40 9 35 9 35 10 38 10 38 15"/><polygon points="40 20 40 19 45 19 45 18 40 18 40 15 39 15 39 20 40 20"/><rect x="15" width="5" height="1"/><rect x="10" y="1" width="5" height="1"/><rect x="15" y="4" width="5" height="1"/><polygon points="15 8 15 9 20 9 20 10 21 10 21 5 20 5 20 8 15 8"/><polygon points="10 9 10 6 15 6 15 5 9 5 9 10 10 10 10 11 5 11 5 12 10 12 10 15 11 15 11 10 14 10 14 15 15 15 15 9 10 9"/><rect x="20" y="11" width="5" height="1"/><rect x="25" y="18" width="5" height="1"/><rect x="21" width="1" height="5"/><rect x="24" y="5" width="1" height="5"/><rect x="25" width="1" height="5"/><rect x="30" y="8" width="5" height="1"/><rect x="35" y="5" width="5" height="1"/><polygon points="35 4 30 4 30 1 35 1 35 0 29 0 29 5 35 5 35 4"/><polygon points="40 2 40 5 41 5 41 0 40 0 40 1 35 1 35 2 40 2"/><rect y="18" width="5" height="1"/><rect x="5" y="15" width="5" height="1"/><rect y="14" width="5" height="1"/><polygon points="2 10 2 5 1 5 1 10 0 10 0 11 5 11 5 10 2 10"/><rect x="44" width="1" height="5"/><rect x="45" y="5" width="1" height="5"/><rect x="48" width="1" height="5"/><rect x="11" y="15" width="1" height="5"/><rect x="18" y="10" width="1" height="5"/><polygon points="71 10 69 10 69 5 68 5 68 10 65 10 65 11 70 11 70 14 65 14 65 15 71 15 71 10"/><rect x="74" y="10" width="1" height="5"/><rect x="75" y="15" width="1" height="5"/><polygon points="79 20 80 20 80 19 85 19 85 18 80 18 80 15 79 15 79 20"/><rect x="60" y="11" width="5" height="1"/><rect x="65" y="18" width="5" height="1"/><polygon points="48 20 48 25 49 25 49 20 50 20 50 19 45 19 45 20 48 20"/><rect x="45" y="15" width="5" height="1"/><rect x="40" y="14" width="5" height="1"/><polygon points="50 12 50 15 51 15 51 10 54 10 54 15 55 15 55 9 50 9 50 6 55 6 55 5 49 5 49 10 50 10 50 11 45 11 45 12 50 12"/><polygon points="40 10 40 11 45 11 45 10 42 10 42 5 41 5 41 10 40 10"/><rect x="51" y="15" width="1" height="5"/><rect x="58" y="10" width="1" height="5"/><polygon points="88 20 88 25 89 25 89 20 90 20 90 19 85 19 85 20 88 20"/><rect x="85" y="15" width="5" height="1"/><rect x="80" y="14" width="5" height="1"/><polygon points="80 10 80 11 85 11 85 10 82 10 82 5 81 5 81 10 80 10"/><rect x="91" y="15" width="1" height="5"/><rect x="98" y="10" width="1" height="5"/><rect x="55" width="5" height="1"/><rect x="50" y="1" width="5" height="1"/><rect x="55" y="4" width="5" height="1"/><polygon points="55 8 55 9 60 9 60 10 61 10 61 5 60 5 60 8 55 8"/><rect x="84" width="1" height="5"/><rect x="85" y="5" width="1" height="5"/><rect x="88" width="1" height="5"/><polygon points="89 10 90 10 90 11 85 11 85 12 90 12 90 15 91 15 91 10 94 10 94 15 95 15 95 9 90 9 90 6 95 6 95 5 89 5 89 10"/><rect x="95" width="5" height="1"/><rect x="90" y="1" width="5" height="1"/><rect x="95" y="4" width="5" height="1"/><rect x="95" y="8" width="5" height="1"/><rect x="61" width="1" height="5"/><rect x="64" y="5" width="1" height="5"/><rect x="65" width="1" height="5"/><polygon points="75 9 75 10 78 10 78 15 79 15 79 10 80 10 80 9 75 9"/><rect x="70" y="8" width="5" height="1"/><rect x="75" y="5" width="5" height="1"/><polygon points="75 4 70 4 70 1 75 1 75 0 69 0 69 5 75 5 75 4"/><polygon points="80 2 80 5 81 5 81 0 80 0 80 1 75 1 75 2 80 2"/><rect y="20" width="1" height="5"/><rect x="4" y="20" width="1" height="5"/><rect x="5" y="25" width="1" height="5"/><polygon points="8 25 9 25 9 20 10 20 10 19 5 19 5 20 8 20 8 25"/><polygon points="31 30 29 30 29 25 28 25 28 30 25 30 25 31 30 31 30 34 25 34 25 35 31 35 31 30"/><rect x="34" y="30" width="1" height="5"/><rect x="35" y="35" width="1" height="5"/><polygon points="38 35 39 35 39 30 40 30 40 29 35 29 35 30 38 30 38 35"/><rect x="10" y="21" width="5" height="1"/><rect x="15" y="24" width="5" height="1"/><polygon points="15 28 15 29 20 29 20 30 21 30 21 25 20 25 20 28 15 28"/><polygon points="10 29 10 26 15 26 15 25 9 25 9 30 10 30 10 31 5 31 5 32 10 32 10 35 11 35 11 30 14 30 14 35 15 35 15 29 10 29"/><rect x="20" y="31" width="5" height="1"/><rect x="25" y="38" width="5" height="1"/><polygon points="22 20 25 20 25 19 20 19 20 16 25 16 25 15 19 15 19 20 16 20 16 15 15 15 15 21 20 21 20 20 21 20 21 25 22 25 22 20"/><rect x="24" y="25" width="1" height="5"/><rect x="25" y="20" width="1" height="5"/><rect x="30" y="28" width="5" height="1"/><rect x="35" y="25" width="5" height="1"/><polygon points="35 24 30 24 30 21 35 21 35 20 32 20 32 15 31 15 31 20 29 20 29 25 35 25 35 24"/><rect y="38" width="5" height="1"/><rect x="5" y="35" width="5" height="1"/><rect y="34" width="5" height="1"/><polygon points="2 30 2 25 1 25 1 30 0 30 0 31 5 31 5 30 2 30"/><polygon points="40 20 40 21 35 21 35 22 40 22 40 25 41 25 41 20 40 20"/><rect x="44" y="20" width="1" height="5"/><rect x="45" y="25" width="1" height="5"/><polygon points="50 30 50 31 45 31 45 32 50 32 50 35 51 35 51 30 54 30 54 35 55 35 55 29 50 29 50 26 55 26 55 25 49 25 49 30 50 30"/><rect x="11" y="35" width="1" height="5"/><rect x="18" y="30" width="1" height="5"/><rect x="74" y="30" width="1" height="5"/><rect x="75" y="35" width="1" height="5"/><polygon points="79 40 80 40 80 39 85 39 85 38 80 38 80 35 79 35 79 40"/><polygon points="70 31 70 34 65 34 65 35 71 35 71 30 69 30 69 25 68 25 68 30 65 30 65 31 70 31"/><rect x="60" y="31" width="5" height="1"/><rect x="65" y="38" width="5" height="1"/><polygon points="48 40 48 45 49 45 49 40 50 40 50 39 45 39 45 40 48 40"/><polygon points="45 39 45 38 40 38 40 35 39 35 39 40 40 40 40 39 45 39"/><rect x="45" y="35" width="5" height="1"/><rect x="40" y="34" width="5" height="1"/><polygon points="45 31 45 30 42 30 42 25 41 25 41 30 40 30 40 31 45 31"/><rect x="51" y="35" width="1" height="5"/><rect x="58" y="30" width="1" height="5"/><polygon points="88 40 88 45 89 45 89 40 90 40 90 39 85 39 85 40 88 40"/><rect x="85" y="35" width="5" height="1"/><rect x="80" y="34" width="5" height="1"/><polygon points="80 30 80 31 85 31 85 30 82 30 82 25 81 25 81 30 80 30"/><rect x="91" y="35" width="1" height="5"/><rect x="98" y="30" width="1" height="5"/><polygon points="60 21 60 20 61 20 61 25 62 25 62 20 65 20 65 19 60 19 60 16 65 16 65 15 59 15 59 20 56 20 56 15 55 15 55 21 60 21"/><rect x="50" y="21" width="5" height="1"/><rect x="55" y="24" width="5" height="1"/><polygon points="55 28 55 29 60 29 60 30 61 30 61 25 60 25 60 28 55 28"/><rect x="84" y="20" width="1" height="5"/><rect x="85" y="25" width="1" height="5"/><polygon points="90 30 90 31 85 31 85 32 90 32 90 35 91 35 91 30 94 30 94 35 95 35 95 29 90 29 90 26 95 26 95 25 89 25 89 30 90 30"/><polygon points="100 21 100 15 99 15 99 20 96 20 96 15 95 15 95 21 100 21"/><rect x="90" y="21" width="5" height="1"/><rect x="95" y="24" width="5" height="1"/><rect x="95" y="28" width="5" height="1"/><rect x="64" y="25" width="1" height="5"/><rect x="65" y="20" width="1" height="5"/><polygon points="75 29 75 30 78 30 78 35 79 35 79 30 80 30 80 29 75 29"/><rect x="70" y="28" width="5" height="1"/><rect x="75" y="25" width="5" height="1"/><polygon points="75 24 70 24 70 21 75 21 75 20 72 20 72 15 71 15 71 20 69 20 69 25 75 25 75 24"/><polygon points="75 21 75 22 80 22 80 25 81 25 81 20 80 20 80 21 75 21"/><rect y="40" width="1" height="5"/><rect x="4" y="40" width="1" height="5"/><rect x="5" y="45" width="1" height="5"/><polygon points="8 45 9 45 9 40 10 40 10 39 5 39 5 40 8 40 8 45"/><polygon points="31 50 29 50 29 45 28 45 28 50 25 50 25 51 30 51 30 54 25 54 25 55 31 55 31 50"/><rect x="34" y="50" width="1" height="5"/><rect x="35" y="55" width="1" height="5"/><polygon points="38 55 39 55 39 50 40 50 40 49 35 49 35 50 38 50 38 55"/><polygon points="39 60 40 60 40 59 45 59 45 58 40 58 40 55 39 55 39 60"/><rect x="10" y="41" width="5" height="1"/><rect x="15" y="44" width="5" height="1"/><polygon points="15 48 15 49 20 49 20 50 21 50 21 45 20 45 20 48 15 48"/><polygon points="10 49 10 46 15 46 15 45 9 45 9 50 10 50 10 51 5 51 5 52 10 52 10 55 11 55 11 50 14 50 14 55 15 55 15 49 10 49"/><rect x="20" y="51" width="5" height="1"/><rect x="25" y="58" width="5" height="1"/><polygon points="22 40 25 40 25 39 20 39 20 36 25 36 25 35 19 35 19 40 16 40 16 35 15 35 15 41 20 41 20 40 21 40 21 45 22 45 22 40"/><rect x="24" y="45" width="1" height="5"/><rect x="25" y="40" width="1" height="5"/><rect x="30" y="48" width="5" height="1"/><rect x="35" y="45" width="5" height="1"/><polygon points="35 44 30 44 30 41 35 41 35 40 32 40 32 35 31 35 31 40 29 40 29 45 35 45 35 44"/><rect y="58" width="5" height="1"/><rect x="5" y="55" width="5" height="1"/><rect y="54" width="5" height="1"/><polygon points="2 50 2 45 1 45 1 50 0 50 0 51 5 51 5 50 2 50"/><polygon points="40 40 40 41 35 41 35 42 40 42 40 45 41 45 41 40 40 40"/><rect x="44" y="40" width="1" height="5"/><rect x="45" y="45" width="1" height="5"/><rect x="11" y="55" width="1" height="5"/><rect x="18" y="50" width="1" height="5"/><rect x="74" y="50" width="1" height="5"/><rect x="75" y="55" width="1" height="5"/><polygon points="79 60 80 60 80 59 85 59 85 58 80 58 80 55 79 55 79 60"/><rect x="60" y="51" width="5" height="1"/><rect x="65" y="58" width="5" height="1"/><polygon points="60 59 60 56 65 56 65 55 59 55 59 60 56 60 56 55 55 55 55 61 60 61 60 60 61 60 61 65 62 65 62 60 65 60 65 59 60 59"/><polygon points="50 60 50 59 45 59 45 60 48 60 48 65 49 65 49 60 50 60"/><rect x="45" y="55" width="5" height="1"/><rect x="40" y="54" width="5" height="1"/><polygon points="45 51 45 50 42 50 42 45 41 45 41 50 40 50 40 51 45 51"/><rect x="51" y="55" width="1" height="5"/><rect x="58" y="50" width="1" height="5"/><polygon points="88 60 88 65 89 65 89 60 90 60 90 59 85 59 85 60 88 60"/><rect x="85" y="55" width="5" height="1"/><rect x="80" y="54" width="5" height="1"/><polygon points="80 50 80 51 85 51 85 50 82 50 82 45 81 45 81 50 80 50"/><rect x="91" y="55" width="1" height="5"/><rect x="98" y="50" width="1" height="5"/><polygon points="60 41 60 40 61 40 61 45 62 45 62 40 65 40 65 39 60 39 60 36 65 36 65 35 59 35 59 40 56 40 56 35 55 35 55 41 60 41"/><rect x="50" y="41" width="5" height="1"/><rect x="55" y="44" width="5" height="1"/><polygon points="55 48 55 49 60 49 60 50 61 50 61 45 60 45 60 48 55 48"/><polygon points="50 49 50 46 55 46 55 45 49 45 49 50 50 50 50 51 45 51 45 52 50 52 50 55 51 55 51 50 54 50 54 55 55 55 55 49 50 49"/><rect x="84" y="40" width="1" height="5"/><rect x="85" y="45" width="1" height="5"/><polygon points="90 50 90 51 85 51 85 52 90 52 90 55 91 55 91 50 94 50 94 55 95 55 95 49 90 49 90 46 95 46 95 45 89 45 89 50 90 50"/><polygon points="100 41 100 35 99 35 99 40 96 40 96 35 95 35 95 41 100 41"/><rect x="90" y="41" width="5" height="1"/><rect x="95" y="44" width="5" height="1"/><rect x="95" y="48" width="5" height="1"/><rect x="64" y="45" width="1" height="5"/><rect x="65" y="40" width="1" height="5"/><polygon points="68 50 65 50 65 51 70 51 70 54 65 54 65 55 71 55 71 50 69 50 69 45 68 45 68 50"/><polygon points="75 49 75 50 78 50 78 55 79 55 79 50 80 50 80 49 75 49"/><rect x="70" y="48" width="5" height="1"/><rect x="75" y="45" width="5" height="1"/><polygon points="75 41 75 42 80 42 80 45 81 45 81 40 80 40 80 41 75 41"/><polygon points="69 40 69 45 75 45 75 44 70 44 70 41 75 41 75 40 72 40 72 35 71 35 71 40 69 40"/><rect y="60" width="1" height="5"/><rect x="4" y="60" width="1" height="5"/><rect x="5" y="65" width="1" height="5"/><polygon points="8 65 9 65 9 60 10 60 10 59 5 59 5 60 8 60 8 65"/><polygon points="29 70 29 65 28 65 28 70 25 70 25 71 30 71 30 74 25 74 25 75 31 75 31 70 29 70"/><rect x="34" y="70" width="1" height="5"/><rect x="35" y="75" width="1" height="5"/><polygon points="39 80 40 80 40 79 45 79 45 78 40 78 40 75 39 75 39 80"/><rect x="10" y="61" width="5" height="1"/><rect x="15" y="64" width="5" height="1"/><polygon points="15 68 15 69 20 69 20 70 21 70 21 65 20 65 20 68 15 68"/><polygon points="10 69 10 66 15 66 15 65 9 65 9 70 10 70 10 71 5 71 5 72 10 72 10 75 11 75 11 70 14 70 14 75 15 75 15 69 10 69"/><rect x="20" y="71" width="5" height="1"/><rect x="25" y="78" width="5" height="1"/><polygon points="20 79 20 76 25 76 25 75 19 75 19 80 16 80 16 75 15 75 15 81 20 81 20 80 21 80 21 85 22 85 22 80 25 80 25 79 20 79"/><polygon points="22 60 25 60 25 59 20 59 20 56 25 56 25 55 19 55 19 60 16 60 16 55 15 55 15 61 20 61 20 60 21 60 21 65 22 65 22 60"/><rect x="24" y="65" width="1" height="5"/><rect x="25" y="60" width="1" height="5"/><polygon points="35 69 35 70 38 70 38 75 39 75 39 70 40 70 40 69 35 69"/><rect x="30" y="68" width="5" height="1"/><rect x="35" y="65" width="5" height="1"/><polygon points="30 64 30 61 35 61 35 60 32 60 32 55 31 55 31 60 29 60 29 65 35 65 35 64 30 64"/><rect y="78" width="5" height="1"/><rect x="5" y="75" width="5" height="1"/><rect y="74" width="5" height="1"/><polygon points="2 70 2 65 1 65 1 70 0 70 0 71 5 71 5 70 2 70"/><polygon points="40 60 40 61 35 61 35 62 40 62 40 65 41 65 41 60 40 60"/><rect x="44" y="60" width="1" height="5"/><rect x="45" y="65" width="1" height="5"/><rect x="11" y="75" width="1" height="5"/><rect x="18" y="70" width="1" height="5"/><polygon points="69 70 69 65 68 65 68 70 65 70 65 71 70 71 70 74 65 74 65 75 71 75 71 70 69 70"/><rect x="74" y="70" width="1" height="5"/><rect x="75" y="75" width="1" height="5"/><polygon points="79 80 80 80 80 79 85 79 85 78 80 78 80 75 79 75 79 80"/><rect x="60" y="71" width="5" height="1"/><rect x="65" y="78" width="5" height="1"/><polygon points="60 79 60 76 65 76 65 75 59 75 59 80 56 80 56 75 55 75 55 81 60 81 60 80 61 80 61 85 62 85 62 80 65 80 65 79 60 79"/><polygon points="48 80 48 85 49 85 49 80 50 80 50 79 45 79 45 80 48 80"/><rect x="45" y="75" width="5" height="1"/><rect x="40" y="74" width="5" height="1"/><polygon points="42 70 42 65 41 65 41 70 40 70 40 71 45 71 45 70 42 70"/><rect x="51" y="75" width="1" height="5"/><rect x="58" y="70" width="1" height="5"/><polygon points="88 80 88 85 89 85 89 80 90 80 90 79 85 79 85 80 88 80"/><rect x="85" y="75" width="5" height="1"/><rect x="80" y="74" width="5" height="1"/><polygon points="80 70 80 71 85 71 85 70 82 70 82 65 81 65 81 70 80 70"/><rect x="91" y="75" width="1" height="5"/><rect x="98" y="70" width="1" height="5"/><rect x="50" y="61" width="5" height="1"/><rect x="55" y="64" width="5" height="1"/><polygon points="50 69 50 66 55 66 55 65 49 65 49 70 50 70 50 71 45 71 45 72 50 72 50 75 51 75 51 70 54 70 54 75 55 75 55 69 50 69"/><rect x="84" y="60" width="1" height="5"/><rect x="85" y="65" width="1" height="5"/><polygon points="90 70 90 71 85 71 85 72 90 72 90 75 91 75 91 70 94 70 94 75 95 75 95 69 90 69 90 66 95 66 95 65 89 65 89 70 90 70"/><polygon points="100 61 100 55 99 55 99 60 96 60 96 55 95 55 95 61 100 61"/><rect x="90" y="61" width="5" height="1"/><rect x="95" y="64" width="5" height="1"/><rect x="95" y="68" width="5" height="1"/><polygon points="60 68 55 68 55 69 60 69 60 70 61 70 61 65 60 65 60 68"/><rect x="64" y="65" width="1" height="5"/><rect x="65" y="60" width="1" height="5"/><polygon points="75 69 75 70 78 70 78 75 79 75 79 70 80 70 80 69 75 69"/><rect x="70" y="68" width="5" height="1"/><rect x="75" y="65" width="5" height="1"/><polygon points="75 61 75 62 80 62 80 65 81 65 81 60 80 60 80 61 75 61"/><polygon points="69 60 69 65 75 65 75 64 70 64 70 61 75 61 75 60 72 60 72 55 71 55 71 60 69 60"/><rect y="80" width="1" height="5"/><rect x="4" y="80" width="1" height="5"/><rect x="5" y="85" width="1" height="5"/><polygon points="8 85 9 85 9 80 10 80 10 79 5 79 5 80 8 80 8 85"/><polygon points="10 86 15 86 15 85 9 85 9 90 10 90 10 91 5 91 5 92 10 92 10 95 11 95 11 90 14 90 14 95 15 95 15 89 10 89 10 86"/><rect x="31" y="95" width="1" height="5"/><rect x="34" y="90" width="1" height="5"/><rect x="35" y="95" width="1" height="5"/><polygon points="39 100 40 100 40 99 45 99 45 98 40 98 40 95 39 95 39 100"/><rect x="10" y="81" width="5" height="1"/><rect x="15" y="84" width="5" height="1"/><rect x="20" y="91" width="5" height="1"/><rect x="25" y="98" width="5" height="1"/><polygon points="20 88 15 88 15 89 20 89 20 90 21 90 21 85 20 85 20 88"/><rect x="24" y="85" width="1" height="5"/><rect x="25" y="80" width="1" height="5"/><polygon points="28 90 25 90 25 91 30 91 30 94 25 94 25 95 31 95 31 90 29 90 29 85 28 85 28 90"/><polygon points="40 90 40 89 35 89 35 90 38 90 38 95 39 95 39 90 40 90"/><rect x="30" y="88" width="5" height="1"/><rect x="35" y="85" width="5" height="1"/><polygon points="30 84 30 81 35 81 35 80 32 80 32 75 31 75 31 80 29 80 29 85 35 85 35 84 30 84"/><rect x="5" y="99" width="5" height="1"/><rect y="98" width="5" height="1"/><rect x="5" y="95" width="5" height="1"/><rect y="94" width="5" height="1"/><polygon points="2 90 2 85 1 85 1 90 0 90 0 91 5 91 5 90 2 90"/><polygon points="40 80 40 81 35 81 35 82 40 82 40 85 41 85 41 80 40 80"/><rect x="44" y="80" width="1" height="5"/><rect x="45" y="85" width="1" height="5"/><polygon points="50 86 55 86 55 85 49 85 49 90 50 90 50 91 45 91 45 92 50 92 50 95 51 95 51 90 54 90 54 95 55 95 55 89 50 89 50 86"/><rect x="11" y="95" width="1" height="5"/><rect x="15" y="95" width="1" height="5"/><rect x="18" y="90" width="1" height="5"/><polygon points="19 100 25 100 25 99 20 99 20 96 25 96 25 95 19 95 19 100"/><rect x="71" y="95" width="1" height="5"/><rect x="74" y="90" width="1" height="5"/><rect x="75" y="95" width="1" height="5"/><polygon points="79 100 80 100 80 99 85 99 85 98 80 98 80 95 79 95 79 100"/><rect x="60" y="91" width="5" height="1"/><rect x="65" y="98" width="5" height="1"/><rect x="45" y="99" width="5" height="1"/><rect x="45" y="95" width="5" height="1"/><rect x="40" y="94" width="5" height="1"/><polygon points="45 91 45 90 42 90 42 85 41 85 41 90 40 90 40 91 45 91"/><rect x="51" y="95" width="1" height="5"/><rect x="55" y="95" width="1" height="5"/><rect x="58" y="90" width="1" height="5"/><polygon points="59 100 65 100 65 99 60 99 60 96 65 96 65 95 59 95 59 100"/><rect x="85" y="99" width="5" height="1"/><rect x="85" y="95" width="5" height="1"/><rect x="80" y="94" width="5" height="1"/><polygon points="85 91 85 90 82 90 82 85 81 85 81 90 80 90 80 91 85 91"/><rect x="91" y="95" width="1" height="5"/><rect x="95" y="95" width="1" height="5"/><rect x="98" y="90" width="1" height="5"/><rect x="99" y="95" width="1" height="5"/><rect x="50" y="81" width="5" height="1"/><rect x="55" y="84" width="5" height="1"/><polygon points="80 80 80 81 75 81 75 82 80 82 80 85 81 85 81 80 80 80"/><rect x="84" y="80" width="1" height="5"/><rect x="85" y="85" width="1" height="5"/><polygon points="90 90 90 91 85 91 85 92 90 92 90 95 91 95 91 90 94 90 94 95 95 95 95 89 90 89 90 86 95 86 95 85 89 85 89 90 90 90"/><polygon points="100 81 100 75 99 75 99 80 96 80 96 75 95 75 95 81 100 81"/><rect x="90" y="81" width="5" height="1"/><rect x="95" y="84" width="5" height="1"/><rect x="95" y="88" width="5" height="1"/><polygon points="60 88 55 88 55 89 60 89 60 90 61 90 61 85 60 85 60 88"/><rect x="64" y="85" width="1" height="5"/><rect x="65" y="80" width="1" height="5"/><polygon points="68 90 65 90 65 91 70 91 70 94 65 94 65 95 71 95 71 90 69 90 69 85 68 85 68 90"/><polygon points="80 90 80 89 75 89 75 90 78 90 78 95 79 95 79 90 80 90"/><rect x="70" y="88" width="5" height="1"/><rect x="75" y="85" width="5" height="1"/><polygon points="70 84 70 81 75 81 75 80 72 80 72 75 71 75 71 80 69 80 69 85 75 85 75 84 70 84"/></svg>