<svg id="Layer_1" data-name="Layer 1" xmlns="http://www.w3.org/2000/svg" viewBox="0 0 100 100"><title>pattern</title><rect width="3" height="3"/><rect x="7" width="6" height="3"/><rect y="7" width="3" height="6"/><rect x="7" y="7" width="6" height="6"/><rect x="4" y="4" width="2" height="2"/><rect x="17" width="6" height="3"/><rect x="17" y="7" width="6" height="6"/><rect x="14" y="4" width="2" height="2"/><rect x="27" width="6" height="3"/><rect x="27" y="7" width="6" height="6"/><rect x="24" y="4" width="2" height="2"/><rect x="37" width="6" height="3"/><rect x="37" y="7" width="6" height="6"/><rect x="34" y="4" width="2" height="2"/><rect x="47" width="6" height="3"/><rect x="47" y="7" width="6" height="6"/><rect x="44" y="4" width="2" height="2"/><rect x="57" width="6" height="3"/><rect x="57" y="7" width="6" height="6"/><rect x="54" y="4" width="2" height="2"/><rect x="67" width="6" height="3"/><rect x="67" y="7" width="6" height="6"/><rect x="64" y="4" width="2" height="2"/><rect x="77" width="6" height="3"/><rect x="77" y="7" width="6" height="6"/><rect x="74" y="4" width="2" height="2"/><rect x="87" width="6" height="3"/><rect x="87" y="7" width="6" height="6"/><rect x="84" y="4" width="2" height="2"/><rect x="97" width="3" height="3"/><rect x="97" y="7" width="3" height="6"/><rect x="94" y="4" width="2" height="2"/><rect y="17" width="3" height="6"/><rect x="7" y="17" width="6" height="6"/><rect x="4" y="14" width="2" height="2"/><rect x="17" y="17" width="6" height="6"/><rect x="14" y="14" width="2" height="2"/><rect x="27" y="17" width="6" height="6"/><rect x="24" y="14" width="2" height="2"/><rect x="37" y="17" width="6" height="6"/><rect x="34" y="14" width="2" height="2"/><rect x="47" y="17" width="6" height="6"/><rect x="44" y="14" width="2" height="2"/><rect x="57" y="17" width="6" height="6"/><rect x="54" y="14" width="2" height="2"/><rect x="67" y="17" width="6" height="6"/><rect x="64" y="14" width="2" height="2"/><rect x="77" y="17" width="6" height="6"/><rect x="74" y="14" width="2" height="2"/><rect x="87" y="17" width="6" height="6"/><rect x="84" y="14" width="2" height="2"/><rect x="97" y="17" width="3" height="6"/><rect x="94" y="14" width="2" height="2"/><rect y="27" width="3" height="6"/><rect x="7" y="27" width="6" height="6"/><rect x="4" y="24" width="2" height="2"/><rect x="17" y="27" width="6" height="6"/><rect x="14" y="24" width="2" height="2"/><rect x="27" y="27" width="6" height="6"/><rect x="24" y="24" width="2" height="2"/><rect x="37" y="27" width="6" height="6"/><rect x="34" y="24" width="2" height="2"/><rect x="47" y="27" width="6" height="6"/><rect x="44" y="24" width="2" height="2"/><rect x="57" y="27" width="6" height="6"/><rect x="54" y="24" width="2" height="2"/><rect x="67" y="27" width="6" height="6"/><rect x="64" y="24" width="2" height="2"/><rect x="77" y="27" width="6" height="6"/><rect x="74" y="24" width="2" height="2"/><rect x="87" y="27" width="6" height="6"/><rect x="84" y="24" width="2" height="2"/><rect x="97" y="27" width="3" height="6"/><rect x="94" y="24" width="2" height="2"/><rect y="37" width="3" height="6"/><rect x="7" y="37" width="6" height="6"/><rect x="4" y="34" width="2" height="2"/><rect x="17" y="37" width="6" height="6"/><rect x="14" y="34" width="2" height="2"/><rect x="27" y="37" width="6" height="6"/><rect x="24" y="34" width="2" height="2"/><rect x="37" y="37" width="6" height="6"/><rect x="34" y="34" width="2" height="2"/><rect x="47" y="37" width="6" height="6"/><rect x="44" y="34" width="2" height="2"/><rect x="57" y="37" width="6" height="6"/><rect x="54" y="34" width="2" height="2"/><rect x="67" y="37" width="6" height="6"/><rect x="64" y="34" width="2" height="2"/><rect x="77" y="37" width="6" height="6"/><rect x="74" y="34" width="2" height="2"/><rect x="87" y="37" width="6" height="6"/><rect x="84" y="34" width="2" height="2"/><rect x="97" y="37" width="3" height="6"/><rect x="94" y="34" width="2" height="2"/><rect y="47" width="3" height="6"/><rect x="7" y="47" width="6" height="6"/><rect x="4" y="44" width="2" height="2"/><rect x="17" y="47" width="6" height="6"/><rect x="14" y="44" width="2" height="2"/><rect x="27" y="47" width="6" height="6"/><rect x="24" y="44" width="2" height="2"/><rect x="37" y="47" width="6" height="6"/><rect x="34" y="44" width="2" height="2"/><rect x="47" y="47" width="6" height="6"/><rect x="44" y="44" width="2" height="2"/><rect x="57" y="47" width="6" height="6"/><rect x="54" y="44" width="2" height="2"/><rect x="67" y="47" width="6" height="6"/><rect x="64" y="44" width="2" height="2"/><rect x="77" y="47" width="6" height="6"/><rect x="74" y="44" width="2" height="2"/><rect x="87" y="47" width="6" height="6"/><rect x="84" y="44" width="2" height="2"/><rect x="97" y="47" width="3" height="6"/><rect x="94" y="44" width="2" height="2"/><rect y="57" width="3" height="6"/><rect x="7" y="57" width="6" height="6"/><rect x="4" y="54" width="2" height="2"/><rect x="17" y="57" width="6" height="6"/><rect x="14" y="54" width="2" height="2"/><rect x="27" y="57" width="6" height="6"/><rect x="24" y="54" width="2" height="2"/><rect x="37" y="57" width="6" height="6"/><rect x="34" y="54" width="2" height="2"/><rect x="47" y="57" width="6" height="6"/><rect x="44" y="54" width="2" height="2"/><rect x="57" y="57" width="6" height="6"/><rect x="54" y="54" width="2" height="2"/><rect x="67" y="57" width="6" height="6"/><rect x="64" y="54" width="2" height="2"/><rect x="77" y="57" width="6" height="6"/><rect x="74" y="54" width="2" height="2"/><rect x="87" y="57" width="6" height="6"/><rect x="84" y="54" width="2" height="2"/><rect x="97" y="57" width="3" height="6"/><rect x="94" y="54" width="2" height="2"/><rect y="67" width="3" height="6"/><rect x="7" y="67" width="6" height="6"/><rect x="4" y="64" width="2" height="2"/><rect x="17" y="67" width="6" height="6"/><rect x="14" y="64" width="2" height="2"/><rect x="27" y="67" width="6" height="6"/><rect x="24" y="64" width="2" height="2"/><rect x="37" y="67" width="6" height="6"/><rect x="34" y="64" width="2" height="2"/><rect x="47" y="67" width="6" height="6"/><rect x="44" y="64" width="2" height="2"/><rect x="57" y="67" width="6" height="6"/><rect x="54" y="64" width="2" height="2"/><rect x="67" y="67" width="6" height="6"/><rect x="64" y="64" width="2" height="2"/><rect x="77" y="67" width="6" height="6"/><rect x="74" y="64" width="2" height="2"/><rect x="87" y="67" width="6" height="6"/><rect x="84" y="64" width="2" height="2"/><rect x="97" y="67" width="3" height="6"/><rect x="94" y="64" width="2" height="2"/><rect y="77" width="3" height="6"/><rect x="7" y="77" width="6" height="6"/><rect x="4" y="74" width="2" height="2"/><rect x="17" y="77" width="6" height="6"/><rect x="14" y="74" width="2" height="2"/><rect x="27" y="77" width="6" height="6"/><rect x="24" y="74" width="2" height="2"/><rect x="37" y="77" width="6" height="6"/><rect x="34" y="74" width="2" height="2"/><rect x="47" y="77" width="6" height="6"/><rect x="44" y="74" width="2" height="2"/><rect x="57" y="77" width="6" height="6"/><rect x="54" y="74" width="2" height="2"/><rect x="67" y="77" width="6" height="6"/><rect x="64" y="74" width="2" height="2"/><rect x="77" y="77" width="6" height="6"/><rect x="74" y="74" width="2" height="2"/><rect x="87" y="77" width="6" height="6"/><rect x="84" y="74" width="2" height="2"/><rect x="97" y="77" width="3" height="6"/><rect x="94" y="74" width="2" height="2"/><rect y="87" width="3" height="6"/><rect x="7" y="87" width="6" height="6"/><rect x="4" y="84" width="2" height="2"/><rect x="17" y="87" width="6" height="6"/><rect x="14" y="84" width="2" height="2"/><rect x="27" y="87" width="6" height="6"/><rect x="24" y="84" width="2" height="2"/><rect x="37" y="87" width="6" height="6"/><rect x="34" y="84" width="2" height="2"/><rect x="47" y="87" width="6" height="6"/><rect x="44" y="84" width="2" height="2"/><rect x="57" y="87" width="6" height="6"/><rect x="54" y="84" width="2" height="2"/><rect x="67" y="87" width="6" height="6"/><rect x="64" y="84" width="2" height="2"/><rect x="77" y="87" width="6" height="6"/><rect x="74" y="84" width="2" height="2"/><rect x="87" y="87" width="6" height="6"/><rect x="84" y="84" width="2" height="2"/><rect x="97" y="87" width="3" height="6"/><rect x="94" y="84" width="2" height="2"/><rect y="97" width="3" height="3"/><rect x="7" y="97" width="6" height="3"/><rect x="4" y="94" width="2" height="2"/><rect x="17" y="97" width="6" height="3"/><rect x="14" y="94" width="2" height="2"/><rect x="27" y="97" width="6" height="3"/><rect x="24" y="94" width="2" height="2"/><rect x="37" y="97" width="6" height="3"/><rect x="34" y="94" width="2" height="2"/><rect x="47" y="97" width="6" height="3"/><rect x="44" y="94" width="2" height="2"/><rect x="57" y="97" width="6" height="3"/><rect x="54" y="94" width="2" height="2"/><rect x="67" y="97" width="6" height="3"/><rect x="64" y="94" width="2" height="2"/><rect x="77" y="97" width="6" height="3"/><rect x="74" y="94" width="2" height="2"/><rect x="87" y="97" width="6" height="3"/><rect x="84" y="94" width="2" height="2"/><rect x="97" y="97" width="3" height="3"/><rect x="94" y="94" width="2" height="2"/></svg>