<svg id="Layer_1" data-name="Layer 1" xmlns="http://www.w3.org/2000/svg" viewBox="0 0 100 100"><title>pattern</title><rect width="1" height="4"/><rect x="1" y="4" width="1" height="4"/><rect x="2" width="1" height="4"/><rect x="3" y="4" width="1" height="4"/><rect x="4" width="1" height="4"/><rect x="5" y="4" width="1" height="4"/><rect x="6" width="1" height="4"/><rect x="7" y="4" width="1" height="4"/><rect x="8" width="1" height="4"/><polygon points="10 4 9 4 9 8 10 8 10 10 11 10 11 6 10 6 10 4"/><rect x="11" y="2" width="1" height="4"/><rect x="12" y="6" width="1" height="4"/><rect x="13" y="2" width="1" height="4"/><rect x="14" y="6" width="1" height="4"/><rect x="15" y="2" width="1" height="4"/><rect x="16" y="6" width="1" height="4"/><rect x="17" y="2" width="1" height="4"/><rect x="18" y="6" width="1" height="4"/><polygon points="20 0 20 2 19 2 19 6 20 6 20 4 21 4 21 0 20 0"/><rect x="21" y="4" width="1" height="4"/><rect x="22" width="1" height="4"/><rect x="23" y="4" width="1" height="4"/><rect x="24" width="1" height="4"/><rect x="25" y="4" width="1" height="4"/><rect x="26" width="1" height="4"/><rect x="27" y="4" width="1" height="4"/><rect x="28" width="1" height="4"/><polygon points="30 4 29 4 29 8 30 8 30 10 31 10 31 6 30 6 30 4"/><rect x="31" y="2" width="1" height="4"/><rect x="32" y="6" width="1" height="4"/><rect x="33" y="2" width="1" height="4"/><rect x="34" y="6" width="1" height="4"/><rect x="35" y="2" width="1" height="4"/><rect x="36" y="6" width="1" height="4"/><rect x="37" y="2" width="1" height="4"/><rect x="38" y="6" width="1" height="4"/><polygon points="40 0 40 2 39 2 39 6 40 6 40 4 41 4 41 0 40 0"/><rect x="41" y="4" width="1" height="4"/><rect x="42" width="1" height="4"/><rect x="43" y="4" width="1" height="4"/><rect x="44" width="1" height="4"/><rect x="45" y="4" width="1" height="4"/><rect x="46" width="1" height="4"/><rect x="47" y="4" width="1" height="4"/><rect x="48" width="1" height="4"/><polygon points="50 4 49 4 49 8 50 8 50 10 51 10 51 6 50 6 50 4"/><rect x="51" y="2" width="1" height="4"/><rect x="52" y="6" width="1" height="4"/><rect x="53" y="2" width="1" height="4"/><rect x="54" y="6" width="1" height="4"/><rect x="55" y="2" width="1" height="4"/><rect x="56" y="6" width="1" height="4"/><rect x="57" y="2" width="1" height="4"/><rect x="58" y="6" width="1" height="4"/><polygon points="60 0 60 2 59 2 59 6 60 6 60 4 61 4 61 0 60 0"/><rect x="61" y="4" width="1" height="4"/><rect x="62" width="1" height="4"/><rect x="63" y="4" width="1" height="4"/><rect x="64" width="1" height="4"/><rect x="65" y="4" width="1" height="4"/><rect x="66" width="1" height="4"/><rect x="67" y="4" width="1" height="4"/><rect x="68" width="1" height="4"/><polygon points="70 4 69 4 69 8 70 8 70 10 71 10 71 6 70 6 70 4"/><rect x="71" y="2" width="1" height="4"/><rect x="72" y="6" width="1" height="4"/><rect x="73" y="2" width="1" height="4"/><rect x="74" y="6" width="1" height="4"/><rect x="75" y="2" width="1" height="4"/><rect x="76" y="6" width="1" height="4"/><rect x="77" y="2" width="1" height="4"/><rect x="78" y="6" width="1" height="4"/><polygon points="80 0 80 2 79 2 79 6 80 6 80 4 81 4 81 0 80 0"/><rect x="81" y="4" width="1" height="4"/><rect x="82" width="1" height="4"/><rect x="83" y="4" width="1" height="4"/><rect x="84" width="1" height="4"/><rect x="85" y="4" width="1" height="4"/><rect x="86" width="1" height="4"/><rect x="87" y="4" width="1" height="4"/><rect x="88" width="1" height="4"/><polygon points="90 4 89 4 89 8 90 8 90 10 91 10 91 6 90 6 90 4"/><rect x="91" y="2" width="1" height="4"/><rect x="92" y="6" width="1" height="4"/><rect x="93" y="2" width="1" height="4"/><rect x="94" y="6" width="1" height="4"/><rect x="95" y="2" width="1" height="4"/><rect x="96" y="6" width="1" height="4"/><rect x="97" y="2" width="1" height="4"/><rect x="98" y="6" width="1" height="4"/><rect x="99" y="2" width="1" height="4"/><rect y="10" width="1" height="4"/><rect x="1" y="14" width="1" height="4"/><rect x="2" y="10" width="1" height="4"/><rect x="3" y="14" width="1" height="4"/><rect x="4" y="10" width="1" height="4"/><rect x="5" y="14" width="1" height="4"/><rect x="6" y="10" width="1" height="4"/><rect x="7" y="14" width="1" height="4"/><rect x="8" y="10" width="1" height="4"/><polygon points="10 14 9 14 9 18 10 18 10 20 11 20 11 16 10 16 10 14"/><rect x="11" y="12" width="1" height="4"/><rect x="12" y="16" width="1" height="4"/><rect x="13" y="12" width="1" height="4"/><rect x="14" y="16" width="1" height="4"/><rect x="15" y="12" width="1" height="4"/><rect x="16" y="16" width="1" height="4"/><rect x="17" y="12" width="1" height="4"/><rect x="18" y="16" width="1" height="4"/><polygon points="20 10 20 12 19 12 19 16 20 16 20 14 21 14 21 10 20 10"/><rect x="21" y="14" width="1" height="4"/><rect x="22" y="10" width="1" height="4"/><rect x="23" y="14" width="1" height="4"/><rect x="24" y="10" width="1" height="4"/><rect x="25" y="14" width="1" height="4"/><rect x="26" y="10" width="1" height="4"/><rect x="27" y="14" width="1" height="4"/><rect x="28" y="10" width="1" height="4"/><polygon points="30 14 29 14 29 18 30 18 30 20 31 20 31 16 30 16 30 14"/><rect x="31" y="12" width="1" height="4"/><rect x="32" y="16" width="1" height="4"/><rect x="33" y="12" width="1" height="4"/><rect x="34" y="16" width="1" height="4"/><rect x="35" y="12" width="1" height="4"/><rect x="36" y="16" width="1" height="4"/><rect x="37" y="12" width="1" height="4"/><rect x="38" y="16" width="1" height="4"/><polygon points="40 10 40 12 39 12 39 16 40 16 40 14 41 14 41 10 40 10"/><rect x="41" y="14" width="1" height="4"/><rect x="42" y="10" width="1" height="4"/><rect x="43" y="14" width="1" height="4"/><rect x="44" y="10" width="1" height="4"/><rect x="45" y="14" width="1" height="4"/><rect x="46" y="10" width="1" height="4"/><rect x="47" y="14" width="1" height="4"/><rect x="48" y="10" width="1" height="4"/><polygon points="50 14 49 14 49 18 50 18 50 20 51 20 51 16 50 16 50 14"/><rect x="51" y="12" width="1" height="4"/><rect x="52" y="16" width="1" height="4"/><rect x="53" y="12" width="1" height="4"/><rect x="54" y="16" width="1" height="4"/><rect x="55" y="12" width="1" height="4"/><rect x="56" y="16" width="1" height="4"/><rect x="57" y="12" width="1" height="4"/><rect x="58" y="16" width="1" height="4"/><polygon points="60 10 60 12 59 12 59 16 60 16 60 14 61 14 61 10 60 10"/><rect x="61" y="14" width="1" height="4"/><rect x="62" y="10" width="1" height="4"/><rect x="63" y="14" width="1" height="4"/><rect x="64" y="10" width="1" height="4"/><rect x="65" y="14" width="1" height="4"/><rect x="66" y="10" width="1" height="4"/><rect x="67" y="14" width="1" height="4"/><rect x="68" y="10" width="1" height="4"/><polygon points="70 14 69 14 69 18 70 18 70 20 71 20 71 16 70 16 70 14"/><rect x="71" y="12" width="1" height="4"/><rect x="72" y="16" width="1" height="4"/><rect x="73" y="12" width="1" height="4"/><rect x="74" y="16" width="1" height="4"/><rect x="75" y="12" width="1" height="4"/><rect x="76" y="16" width="1" height="4"/><rect x="77" y="12" width="1" height="4"/><rect x="78" y="16" width="1" height="4"/><polygon points="80 10 80 12 79 12 79 16 80 16 80 14 81 14 81 10 80 10"/><rect x="81" y="14" width="1" height="4"/><rect x="82" y="10" width="1" height="4"/><rect x="83" y="14" width="1" height="4"/><rect x="84" y="10" width="1" height="4"/><rect x="85" y="14" width="1" height="4"/><rect x="86" y="10" width="1" height="4"/><rect x="87" y="14" width="1" height="4"/><rect x="88" y="10" width="1" height="4"/><polygon points="90 14 89 14 89 18 90 18 90 20 91 20 91 16 90 16 90 14"/><rect x="91" y="12" width="1" height="4"/><rect x="92" y="16" width="1" height="4"/><rect x="93" y="12" width="1" height="4"/><rect x="94" y="16" width="1" height="4"/><rect x="95" y="12" width="1" height="4"/><rect x="96" y="16" width="1" height="4"/><rect x="97" y="12" width="1" height="4"/><rect x="98" y="16" width="1" height="4"/><rect x="99" y="12" width="1" height="4"/><rect y="20" width="1" height="4"/><rect x="1" y="24" width="1" height="4"/><rect x="2" y="20" width="1" height="4"/><rect x="3" y="24" width="1" height="4"/><rect x="4" y="20" width="1" height="4"/><rect x="5" y="24" width="1" height="4"/><rect x="6" y="20" width="1" height="4"/><rect x="7" y="24" width="1" height="4"/><rect x="8" y="20" width="1" height="4"/><polygon points="10 24 9 24 9 28 10 28 10 30 11 30 11 26 10 26 10 24"/><rect x="11" y="22" width="1" height="4"/><rect x="12" y="26" width="1" height="4"/><rect x="13" y="22" width="1" height="4"/><rect x="14" y="26" width="1" height="4"/><rect x="15" y="22" width="1" height="4"/><rect x="16" y="26" width="1" height="4"/><rect x="17" y="22" width="1" height="4"/><rect x="18" y="26" width="1" height="4"/><polygon points="20 20 20 22 19 22 19 26 20 26 20 24 21 24 21 20 20 20"/><rect x="21" y="24" width="1" height="4"/><rect x="22" y="20" width="1" height="4"/><rect x="23" y="24" width="1" height="4"/><rect x="24" y="20" width="1" height="4"/><rect x="25" y="24" width="1" height="4"/><rect x="26" y="20" width="1" height="4"/><rect x="27" y="24" width="1" height="4"/><rect x="28" y="20" width="1" height="4"/><polygon points="30 24 29 24 29 28 30 28 30 30 31 30 31 26 30 26 30 24"/><rect x="31" y="22" width="1" height="4"/><rect x="32" y="26" width="1" height="4"/><rect x="33" y="22" width="1" height="4"/><rect x="34" y="26" width="1" height="4"/><rect x="35" y="22" width="1" height="4"/><rect x="36" y="26" width="1" height="4"/><rect x="37" y="22" width="1" height="4"/><rect x="38" y="26" width="1" height="4"/><polygon points="40 20 40 22 39 22 39 26 40 26 40 24 41 24 41 20 40 20"/><rect x="41" y="24" width="1" height="4"/><rect x="42" y="20" width="1" height="4"/><rect x="43" y="24" width="1" height="4"/><rect x="44" y="20" width="1" height="4"/><rect x="45" y="24" width="1" height="4"/><rect x="46" y="20" width="1" height="4"/><rect x="47" y="24" width="1" height="4"/><rect x="48" y="20" width="1" height="4"/><polygon points="50 24 49 24 49 28 50 28 50 30 51 30 51 26 50 26 50 24"/><rect x="51" y="22" width="1" height="4"/><rect x="52" y="26" width="1" height="4"/><rect x="53" y="22" width="1" height="4"/><rect x="54" y="26" width="1" height="4"/><rect x="55" y="22" width="1" height="4"/><rect x="56" y="26" width="1" height="4"/><rect x="57" y="22" width="1" height="4"/><rect x="58" y="26" width="1" height="4"/><polygon points="60 20 60 22 59 22 59 26 60 26 60 24 61 24 61 20 60 20"/><rect x="61" y="24" width="1" height="4"/><rect x="62" y="20" width="1" height="4"/><rect x="63" y="24" width="1" height="4"/><rect x="64" y="20" width="1" height="4"/><rect x="65" y="24" width="1" height="4"/><rect x="66" y="20" width="1" height="4"/><rect x="67" y="24" width="1" height="4"/><rect x="68" y="20" width="1" height="4"/><polygon points="70 24 69 24 69 28 70 28 70 30 71 30 71 26 70 26 70 24"/><rect x="71" y="22" width="1" height="4"/><rect x="72" y="26" width="1" height="4"/><rect x="73" y="22" width="1" height="4"/><rect x="74" y="26" width="1" height="4"/><rect x="75" y="22" width="1" height="4"/><rect x="76" y="26" width="1" height="4"/><rect x="77" y="22" width="1" height="4"/><rect x="78" y="26" width="1" height="4"/><polygon points="80 20 80 22 79 22 79 26 80 26 80 24 81 24 81 20 80 20"/><rect x="81" y="24" width="1" height="4"/><rect x="82" y="20" width="1" height="4"/><rect x="83" y="24" width="1" height="4"/><rect x="84" y="20" width="1" height="4"/><rect x="85" y="24" width="1" height="4"/><rect x="86" y="20" width="1" height="4"/><rect x="87" y="24" width="1" height="4"/><rect x="88" y="20" width="1" height="4"/><polygon points="90 24 89 24 89 28 90 28 90 30 91 30 91 26 90 26 90 24"/><rect x="91" y="22" width="1" height="4"/><rect x="92" y="26" width="1" height="4"/><rect x="93" y="22" width="1" height="4"/><rect x="94" y="26" width="1" height="4"/><rect x="95" y="22" width="1" height="4"/><rect x="96" y="26" width="1" height="4"/><rect x="97" y="22" width="1" height="4"/><rect x="98" y="26" width="1" height="4"/><rect x="99" y="22" width="1" height="4"/><rect y="30" width="1" height="4"/><rect x="1" y="34" width="1" height="4"/><rect x="2" y="30" width="1" height="4"/><rect x="3" y="34" width="1" height="4"/><rect x="4" y="30" width="1" height="4"/><rect x="5" y="34" width="1" height="4"/><rect x="6" y="30" width="1" height="4"/><rect x="7" y="34" width="1" height="4"/><rect x="8" y="30" width="1" height="4"/><polygon points="10 34 9 34 9 38 10 38 10 40 11 40 11 36 10 36 10 34"/><rect x="11" y="32" width="1" height="4"/><rect x="12" y="36" width="1" height="4"/><rect x="13" y="32" width="1" height="4"/><rect x="14" y="36" width="1" height="4"/><rect x="15" y="32" width="1" height="4"/><rect x="16" y="36" width="1" height="4"/><rect x="17" y="32" width="1" height="4"/><rect x="18" y="36" width="1" height="4"/><polygon points="20 30 20 32 19 32 19 36 20 36 20 34 21 34 21 30 20 30"/><rect x="21" y="34" width="1" height="4"/><rect x="22" y="30" width="1" height="4"/><rect x="23" y="34" width="1" height="4"/><rect x="24" y="30" width="1" height="4"/><rect x="25" y="34" width="1" height="4"/><rect x="26" y="30" width="1" height="4"/><rect x="27" y="34" width="1" height="4"/><rect x="28" y="30" width="1" height="4"/><polygon points="30 34 29 34 29 38 30 38 30 40 31 40 31 36 30 36 30 34"/><rect x="31" y="32" width="1" height="4"/><rect x="32" y="36" width="1" height="4"/><rect x="33" y="32" width="1" height="4"/><rect x="34" y="36" width="1" height="4"/><rect x="35" y="32" width="1" height="4"/><rect x="36" y="36" width="1" height="4"/><rect x="37" y="32" width="1" height="4"/><rect x="38" y="36" width="1" height="4"/><polygon points="40 30 40 32 39 32 39 36 40 36 40 34 41 34 41 30 40 30"/><rect x="41" y="34" width="1" height="4"/><rect x="42" y="30" width="1" height="4"/><rect x="43" y="34" width="1" height="4"/><rect x="44" y="30" width="1" height="4"/><rect x="45" y="34" width="1" height="4"/><rect x="46" y="30" width="1" height="4"/><rect x="47" y="34" width="1" height="4"/><rect x="48" y="30" width="1" height="4"/><polygon points="50 34 49 34 49 38 50 38 50 40 51 40 51 36 50 36 50 34"/><rect x="51" y="32" width="1" height="4"/><rect x="52" y="36" width="1" height="4"/><rect x="53" y="32" width="1" height="4"/><rect x="54" y="36" width="1" height="4"/><rect x="55" y="32" width="1" height="4"/><rect x="56" y="36" width="1" height="4"/><rect x="57" y="32" width="1" height="4"/><rect x="58" y="36" width="1" height="4"/><polygon points="60 30 60 32 59 32 59 36 60 36 60 34 61 34 61 30 60 30"/><rect x="61" y="34" width="1" height="4"/><rect x="62" y="30" width="1" height="4"/><rect x="63" y="34" width="1" height="4"/><rect x="64" y="30" width="1" height="4"/><rect x="65" y="34" width="1" height="4"/><rect x="66" y="30" width="1" height="4"/><rect x="67" y="34" width="1" height="4"/><rect x="68" y="30" width="1" height="4"/><polygon points="70 34 69 34 69 38 70 38 70 40 71 40 71 36 70 36 70 34"/><rect x="71" y="32" width="1" height="4"/><rect x="72" y="36" width="1" height="4"/><rect x="73" y="32" width="1" height="4"/><rect x="74" y="36" width="1" height="4"/><rect x="75" y="32" width="1" height="4"/><rect x="76" y="36" width="1" height="4"/><rect x="77" y="32" width="1" height="4"/><rect x="78" y="36" width="1" height="4"/><polygon points="80 30 80 32 79 32 79 36 80 36 80 34 81 34 81 30 80 30"/><rect x="81" y="34" width="1" height="4"/><rect x="82" y="30" width="1" height="4"/><rect x="83" y="34" width="1" height="4"/><rect x="84" y="30" width="1" height="4"/><rect x="85" y="34" width="1" height="4"/><rect x="86" y="30" width="1" height="4"/><rect x="87" y="34" width="1" height="4"/><rect x="88" y="30" width="1" height="4"/><polygon points="90 34 89 34 89 38 90 38 90 40 91 40 91 36 90 36 90 34"/><rect x="91" y="32" width="1" height="4"/><rect x="92" y="36" width="1" height="4"/><rect x="93" y="32" width="1" height="4"/><rect x="94" y="36" width="1" height="4"/><rect x="95" y="32" width="1" height="4"/><rect x="96" y="36" width="1" height="4"/><rect x="97" y="32" width="1" height="4"/><rect x="98" y="36" width="1" height="4"/><rect x="99" y="32" width="1" height="4"/><rect y="40" width="1" height="4"/><rect x="1" y="44" width="1" height="4"/><rect x="2" y="40" width="1" height="4"/><rect x="3" y="44" width="1" height="4"/><rect x="4" y="40" width="1" height="4"/><rect x="5" y="44" width="1" height="4"/><rect x="6" y="40" width="1" height="4"/><rect x="7" y="44" width="1" height="4"/><rect x="8" y="40" width="1" height="4"/><polygon points="10 44 9 44 9 48 10 48 10 50 11 50 11 46 10 46 10 44"/><rect x="11" y="42" width="1" height="4"/><rect x="12" y="46" width="1" height="4"/><rect x="13" y="42" width="1" height="4"/><rect x="14" y="46" width="1" height="4"/><rect x="15" y="42" width="1" height="4"/><rect x="16" y="46" width="1" height="4"/><rect x="17" y="42" width="1" height="4"/><rect x="18" y="46" width="1" height="4"/><polygon points="20 40 20 42 19 42 19 46 20 46 20 44 21 44 21 40 20 40"/><rect x="21" y="44" width="1" height="4"/><rect x="22" y="40" width="1" height="4"/><rect x="23" y="44" width="1" height="4"/><rect x="24" y="40" width="1" height="4"/><rect x="25" y="44" width="1" height="4"/><rect x="26" y="40" width="1" height="4"/><rect x="27" y="44" width="1" height="4"/><rect x="28" y="40" width="1" height="4"/><polygon points="30 44 29 44 29 48 30 48 30 50 31 50 31 46 30 46 30 44"/><rect x="31" y="42" width="1" height="4"/><rect x="32" y="46" width="1" height="4"/><rect x="33" y="42" width="1" height="4"/><rect x="34" y="46" width="1" height="4"/><rect x="35" y="42" width="1" height="4"/><rect x="36" y="46" width="1" height="4"/><rect x="37" y="42" width="1" height="4"/><rect x="38" y="46" width="1" height="4"/><polygon points="40 40 40 42 39 42 39 46 40 46 40 44 41 44 41 40 40 40"/><rect x="41" y="44" width="1" height="4"/><rect x="42" y="40" width="1" height="4"/><rect x="43" y="44" width="1" height="4"/><rect x="44" y="40" width="1" height="4"/><rect x="45" y="44" width="1" height="4"/><rect x="46" y="40" width="1" height="4"/><rect x="47" y="44" width="1" height="4"/><rect x="48" y="40" width="1" height="4"/><polygon points="50 44 49 44 49 48 50 48 50 50 51 50 51 46 50 46 50 44"/><rect x="51" y="42" width="1" height="4"/><rect x="52" y="46" width="1" height="4"/><rect x="53" y="42" width="1" height="4"/><rect x="54" y="46" width="1" height="4"/><rect x="55" y="42" width="1" height="4"/><rect x="56" y="46" width="1" height="4"/><rect x="57" y="42" width="1" height="4"/><rect x="58" y="46" width="1" height="4"/><polygon points="60 40 60 42 59 42 59 46 60 46 60 44 61 44 61 40 60 40"/><rect x="61" y="44" width="1" height="4"/><rect x="62" y="40" width="1" height="4"/><rect x="63" y="44" width="1" height="4"/><rect x="64" y="40" width="1" height="4"/><rect x="65" y="44" width="1" height="4"/><rect x="66" y="40" width="1" height="4"/><rect x="67" y="44" width="1" height="4"/><rect x="68" y="40" width="1" height="4"/><polygon points="70 44 69 44 69 48 70 48 70 50 71 50 71 46 70 46 70 44"/><rect x="71" y="42" width="1" height="4"/><rect x="72" y="46" width="1" height="4"/><rect x="73" y="42" width="1" height="4"/><rect x="74" y="46" width="1" height="4"/><rect x="75" y="42" width="1" height="4"/><rect x="76" y="46" width="1" height="4"/><rect x="77" y="42" width="1" height="4"/><rect x="78" y="46" width="1" height="4"/><polygon points="80 40 80 42 79 42 79 46 80 46 80 44 81 44 81 40 80 40"/><rect x="81" y="44" width="1" height="4"/><rect x="82" y="40" width="1" height="4"/><rect x="83" y="44" width="1" height="4"/><rect x="84" y="40" width="1" height="4"/><rect x="85" y="44" width="1" height="4"/><rect x="86" y="40" width="1" height="4"/><rect x="87" y="44" width="1" height="4"/><rect x="88" y="40" width="1" height="4"/><polygon points="90 44 89 44 89 48 90 48 90 50 91 50 91 46 90 46 90 44"/><rect x="91" y="42" width="1" height="4"/><rect x="92" y="46" width="1" height="4"/><rect x="93" y="42" width="1" height="4"/><rect x="94" y="46" width="1" height="4"/><rect x="95" y="42" width="1" height="4"/><rect x="96" y="46" width="1" height="4"/><rect x="97" y="42" width="1" height="4"/><rect x="98" y="46" width="1" height="4"/><rect x="99" y="42" width="1" height="4"/><rect y="50" width="1" height="4"/><rect x="1" y="54" width="1" height="4"/><rect x="2" y="50" width="1" height="4"/><rect x="3" y="54" width="1" height="4"/><rect x="4" y="50" width="1" height="4"/><rect x="5" y="54" width="1" height="4"/><rect x="6" y="50" width="1" height="4"/><rect x="7" y="54" width="1" height="4"/><rect x="8" y="50" width="1" height="4"/><polygon points="10 54 9 54 9 58 10 58 10 60 11 60 11 56 10 56 10 54"/><rect x="11" y="52" width="1" height="4"/><rect x="12" y="56" width="1" height="4"/><rect x="13" y="52" width="1" height="4"/><rect x="14" y="56" width="1" height="4"/><rect x="15" y="52" width="1" height="4"/><rect x="16" y="56" width="1" height="4"/><rect x="17" y="52" width="1" height="4"/><rect x="18" y="56" width="1" height="4"/><polygon points="20 50 20 52 19 52 19 56 20 56 20 54 21 54 21 50 20 50"/><rect x="21" y="54" width="1" height="4"/><rect x="22" y="50" width="1" height="4"/><rect x="23" y="54" width="1" height="4"/><rect x="24" y="50" width="1" height="4"/><rect x="25" y="54" width="1" height="4"/><rect x="26" y="50" width="1" height="4"/><rect x="27" y="54" width="1" height="4"/><rect x="28" y="50" width="1" height="4"/><polygon points="30 54 29 54 29 58 30 58 30 60 31 60 31 56 30 56 30 54"/><rect x="31" y="52" width="1" height="4"/><rect x="32" y="56" width="1" height="4"/><rect x="33" y="52" width="1" height="4"/><rect x="34" y="56" width="1" height="4"/><rect x="35" y="52" width="1" height="4"/><rect x="36" y="56" width="1" height="4"/><rect x="37" y="52" width="1" height="4"/><rect x="38" y="56" width="1" height="4"/><polygon points="40 50 40 52 39 52 39 56 40 56 40 54 41 54 41 50 40 50"/><rect x="41" y="54" width="1" height="4"/><rect x="42" y="50" width="1" height="4"/><rect x="43" y="54" width="1" height="4"/><rect x="44" y="50" width="1" height="4"/><rect x="45" y="54" width="1" height="4"/><rect x="46" y="50" width="1" height="4"/><rect x="47" y="54" width="1" height="4"/><rect x="48" y="50" width="1" height="4"/><polygon points="50 54 49 54 49 58 50 58 50 60 51 60 51 56 50 56 50 54"/><rect x="51" y="52" width="1" height="4"/><rect x="52" y="56" width="1" height="4"/><rect x="53" y="52" width="1" height="4"/><rect x="54" y="56" width="1" height="4"/><rect x="55" y="52" width="1" height="4"/><rect x="56" y="56" width="1" height="4"/><rect x="57" y="52" width="1" height="4"/><rect x="58" y="56" width="1" height="4"/><polygon points="60 50 60 52 59 52 59 56 60 56 60 54 61 54 61 50 60 50"/><rect x="61" y="54" width="1" height="4"/><rect x="62" y="50" width="1" height="4"/><rect x="63" y="54" width="1" height="4"/><rect x="64" y="50" width="1" height="4"/><rect x="65" y="54" width="1" height="4"/><rect x="66" y="50" width="1" height="4"/><rect x="67" y="54" width="1" height="4"/><rect x="68" y="50" width="1" height="4"/><polygon points="70 54 69 54 69 58 70 58 70 60 71 60 71 56 70 56 70 54"/><rect x="71" y="52" width="1" height="4"/><rect x="72" y="56" width="1" height="4"/><rect x="73" y="52" width="1" height="4"/><rect x="74" y="56" width="1" height="4"/><rect x="75" y="52" width="1" height="4"/><rect x="76" y="56" width="1" height="4"/><rect x="77" y="52" width="1" height="4"/><rect x="78" y="56" width="1" height="4"/><polygon points="80 50 80 52 79 52 79 56 80 56 80 54 81 54 81 50 80 50"/><rect x="81" y="54" width="1" height="4"/><rect x="82" y="50" width="1" height="4"/><rect x="83" y="54" width="1" height="4"/><rect x="84" y="50" width="1" height="4"/><rect x="85" y="54" width="1" height="4"/><rect x="86" y="50" width="1" height="4"/><rect x="87" y="54" width="1" height="4"/><rect x="88" y="50" width="1" height="4"/><polygon points="90 54 89 54 89 58 90 58 90 60 91 60 91 56 90 56 90 54"/><rect x="91" y="52" width="1" height="4"/><rect x="92" y="56" width="1" height="4"/><rect x="93" y="52" width="1" height="4"/><rect x="94" y="56" width="1" height="4"/><rect x="95" y="52" width="1" height="4"/><rect x="96" y="56" width="1" height="4"/><rect x="97" y="52" width="1" height="4"/><rect x="98" y="56" width="1" height="4"/><rect x="99" y="52" width="1" height="4"/><rect y="60" width="1" height="4"/><rect x="1" y="64" width="1" height="4"/><rect x="2" y="60" width="1" height="4"/><rect x="3" y="64" width="1" height="4"/><rect x="4" y="60" width="1" height="4"/><rect x="5" y="64" width="1" height="4"/><rect x="6" y="60" width="1" height="4"/><rect x="7" y="64" width="1" height="4"/><rect x="8" y="60" width="1" height="4"/><polygon points="10 64 9 64 9 68 10 68 10 70 11 70 11 66 10 66 10 64"/><rect x="11" y="62" width="1" height="4"/><rect x="12" y="66" width="1" height="4"/><rect x="13" y="62" width="1" height="4"/><rect x="14" y="66" width="1" height="4"/><rect x="15" y="62" width="1" height="4"/><rect x="16" y="66" width="1" height="4"/><rect x="17" y="62" width="1" height="4"/><rect x="18" y="66" width="1" height="4"/><polygon points="20 60 20 62 19 62 19 66 20 66 20 64 21 64 21 60 20 60"/><rect x="21" y="64" width="1" height="4"/><rect x="22" y="60" width="1" height="4"/><rect x="23" y="64" width="1" height="4"/><rect x="24" y="60" width="1" height="4"/><rect x="25" y="64" width="1" height="4"/><rect x="26" y="60" width="1" height="4"/><rect x="27" y="64" width="1" height="4"/><rect x="28" y="60" width="1" height="4"/><polygon points="30 64 29 64 29 68 30 68 30 70 31 70 31 66 30 66 30 64"/><rect x="31" y="62" width="1" height="4"/><rect x="32" y="66" width="1" height="4"/><rect x="33" y="62" width="1" height="4"/><rect x="34" y="66" width="1" height="4"/><rect x="35" y="62" width="1" height="4"/><rect x="36" y="66" width="1" height="4"/><rect x="37" y="62" width="1" height="4"/><rect x="38" y="66" width="1" height="4"/><polygon points="40 60 40 62 39 62 39 66 40 66 40 64 41 64 41 60 40 60"/><rect x="41" y="64" width="1" height="4"/><rect x="42" y="60" width="1" height="4"/><rect x="43" y="64" width="1" height="4"/><rect x="44" y="60" width="1" height="4"/><rect x="45" y="64" width="1" height="4"/><rect x="46" y="60" width="1" height="4"/><rect x="47" y="64" width="1" height="4"/><rect x="48" y="60" width="1" height="4"/><polygon points="50 64 49 64 49 68 50 68 50 70 51 70 51 66 50 66 50 64"/><rect x="51" y="62" width="1" height="4"/><rect x="52" y="66" width="1" height="4"/><rect x="53" y="62" width="1" height="4"/><rect x="54" y="66" width="1" height="4"/><rect x="55" y="62" width="1" height="4"/><rect x="56" y="66" width="1" height="4"/><rect x="57" y="62" width="1" height="4"/><rect x="58" y="66" width="1" height="4"/><polygon points="60 60 60 62 59 62 59 66 60 66 60 64 61 64 61 60 60 60"/><rect x="61" y="64" width="1" height="4"/><rect x="62" y="60" width="1" height="4"/><rect x="63" y="64" width="1" height="4"/><rect x="64" y="60" width="1" height="4"/><rect x="65" y="64" width="1" height="4"/><rect x="66" y="60" width="1" height="4"/><rect x="67" y="64" width="1" height="4"/><rect x="68" y="60" width="1" height="4"/><polygon points="70 64 69 64 69 68 70 68 70 70 71 70 71 66 70 66 70 64"/><rect x="71" y="62" width="1" height="4"/><rect x="72" y="66" width="1" height="4"/><rect x="73" y="62" width="1" height="4"/><rect x="74" y="66" width="1" height="4"/><rect x="75" y="62" width="1" height="4"/><rect x="76" y="66" width="1" height="4"/><rect x="77" y="62" width="1" height="4"/><rect x="78" y="66" width="1" height="4"/><polygon points="80 60 80 62 79 62 79 66 80 66 80 64 81 64 81 60 80 60"/><rect x="81" y="64" width="1" height="4"/><rect x="82" y="60" width="1" height="4"/><rect x="83" y="64" width="1" height="4"/><rect x="84" y="60" width="1" height="4"/><rect x="85" y="64" width="1" height="4"/><rect x="86" y="60" width="1" height="4"/><rect x="87" y="64" width="1" height="4"/><rect x="88" y="60" width="1" height="4"/><polygon points="90 64 89 64 89 68 90 68 90 70 91 70 91 66 90 66 90 64"/><rect x="91" y="62" width="1" height="4"/><rect x="92" y="66" width="1" height="4"/><rect x="93" y="62" width="1" height="4"/><rect x="94" y="66" width="1" height="4"/><rect x="95" y="62" width="1" height="4"/><rect x="96" y="66" width="1" height="4"/><rect x="97" y="62" width="1" height="4"/><rect x="98" y="66" width="1" height="4"/><rect x="99" y="62" width="1" height="4"/><rect y="70" width="1" height="4"/><rect x="1" y="74" width="1" height="4"/><rect x="2" y="70" width="1" height="4"/><rect x="3" y="74" width="1" height="4"/><rect x="4" y="70" width="1" height="4"/><rect x="5" y="74" width="1" height="4"/><rect x="6" y="70" width="1" height="4"/><rect x="7" y="74" width="1" height="4"/><rect x="8" y="70" width="1" height="4"/><polygon points="10 74 9 74 9 78 10 78 10 80 11 80 11 76 10 76 10 74"/><rect x="11" y="72" width="1" height="4"/><rect x="12" y="76" width="1" height="4"/><rect x="13" y="72" width="1" height="4"/><rect x="14" y="76" width="1" height="4"/><rect x="15" y="72" width="1" height="4"/><rect x="16" y="76" width="1" height="4"/><rect x="17" y="72" width="1" height="4"/><rect x="18" y="76" width="1" height="4"/><polygon points="20 70 20 72 19 72 19 76 20 76 20 74 21 74 21 70 20 70"/><rect x="21" y="74" width="1" height="4"/><rect x="22" y="70" width="1" height="4"/><rect x="23" y="74" width="1" height="4"/><rect x="24" y="70" width="1" height="4"/><rect x="25" y="74" width="1" height="4"/><rect x="26" y="70" width="1" height="4"/><rect x="27" y="74" width="1" height="4"/><rect x="28" y="70" width="1" height="4"/><polygon points="30 74 29 74 29 78 30 78 30 80 31 80 31 76 30 76 30 74"/><rect x="31" y="72" width="1" height="4"/><rect x="32" y="76" width="1" height="4"/><rect x="33" y="72" width="1" height="4"/><rect x="34" y="76" width="1" height="4"/><rect x="35" y="72" width="1" height="4"/><rect x="36" y="76" width="1" height="4"/><rect x="37" y="72" width="1" height="4"/><rect x="38" y="76" width="1" height="4"/><polygon points="40 70 40 72 39 72 39 76 40 76 40 74 41 74 41 70 40 70"/><rect x="41" y="74" width="1" height="4"/><rect x="42" y="70" width="1" height="4"/><rect x="43" y="74" width="1" height="4"/><rect x="44" y="70" width="1" height="4"/><rect x="45" y="74" width="1" height="4"/><rect x="46" y="70" width="1" height="4"/><rect x="47" y="74" width="1" height="4"/><rect x="48" y="70" width="1" height="4"/><polygon points="50 74 49 74 49 78 50 78 50 80 51 80 51 76 50 76 50 74"/><rect x="51" y="72" width="1" height="4"/><rect x="52" y="76" width="1" height="4"/><rect x="53" y="72" width="1" height="4"/><rect x="54" y="76" width="1" height="4"/><rect x="55" y="72" width="1" height="4"/><rect x="56" y="76" width="1" height="4"/><rect x="57" y="72" width="1" height="4"/><rect x="58" y="76" width="1" height="4"/><polygon points="60 70 60 72 59 72 59 76 60 76 60 74 61 74 61 70 60 70"/><rect x="61" y="74" width="1" height="4"/><rect x="62" y="70" width="1" height="4"/><rect x="63" y="74" width="1" height="4"/><rect x="64" y="70" width="1" height="4"/><rect x="65" y="74" width="1" height="4"/><rect x="66" y="70" width="1" height="4"/><rect x="67" y="74" width="1" height="4"/><rect x="68" y="70" width="1" height="4"/><polygon points="70 74 69 74 69 78 70 78 70 80 71 80 71 76 70 76 70 74"/><rect x="71" y="72" width="1" height="4"/><rect x="72" y="76" width="1" height="4"/><rect x="73" y="72" width="1" height="4"/><rect x="74" y="76" width="1" height="4"/><rect x="75" y="72" width="1" height="4"/><rect x="76" y="76" width="1" height="4"/><rect x="77" y="72" width="1" height="4"/><rect x="78" y="76" width="1" height="4"/><polygon points="80 70 80 72 79 72 79 76 80 76 80 74 81 74 81 70 80 70"/><rect x="81" y="74" width="1" height="4"/><rect x="82" y="70" width="1" height="4"/><rect x="83" y="74" width="1" height="4"/><rect x="84" y="70" width="1" height="4"/><rect x="85" y="74" width="1" height="4"/><rect x="86" y="70" width="1" height="4"/><rect x="87" y="74" width="1" height="4"/><rect x="88" y="70" width="1" height="4"/><polygon points="90 74 89 74 89 78 90 78 90 80 91 80 91 76 90 76 90 74"/><rect x="91" y="72" width="1" height="4"/><rect x="92" y="76" width="1" height="4"/><rect x="93" y="72" width="1" height="4"/><rect x="94" y="76" width="1" height="4"/><rect x="95" y="72" width="1" height="4"/><rect x="96" y="76" width="1" height="4"/><rect x="97" y="72" width="1" height="4"/><rect x="98" y="76" width="1" height="4"/><rect x="99" y="72" width="1" height="4"/><rect y="80" width="1" height="4"/><rect x="1" y="84" width="1" height="4"/><rect x="2" y="80" width="1" height="4"/><rect x="3" y="84" width="1" height="4"/><rect x="4" y="80" width="1" height="4"/><rect x="5" y="84" width="1" height="4"/><rect x="6" y="80" width="1" height="4"/><rect x="7" y="84" width="1" height="4"/><rect x="8" y="80" width="1" height="4"/><polygon points="10 84 9 84 9 88 10 88 10 90 11 90 11 86 10 86 10 84"/><rect x="11" y="82" width="1" height="4"/><rect x="12" y="86" width="1" height="4"/><rect x="13" y="82" width="1" height="4"/><rect x="14" y="86" width="1" height="4"/><rect x="15" y="82" width="1" height="4"/><rect x="16" y="86" width="1" height="4"/><rect x="17" y="82" width="1" height="4"/><rect x="18" y="86" width="1" height="4"/><polygon points="20 80 20 82 19 82 19 86 20 86 20 84 21 84 21 80 20 80"/><rect x="21" y="84" width="1" height="4"/><rect x="22" y="80" width="1" height="4"/><rect x="23" y="84" width="1" height="4"/><rect x="24" y="80" width="1" height="4"/><rect x="25" y="84" width="1" height="4"/><rect x="26" y="80" width="1" height="4"/><rect x="27" y="84" width="1" height="4"/><rect x="28" y="80" width="1" height="4"/><polygon points="30 84 29 84 29 88 30 88 30 90 31 90 31 86 30 86 30 84"/><rect x="31" y="82" width="1" height="4"/><rect x="32" y="86" width="1" height="4"/><rect x="33" y="82" width="1" height="4"/><rect x="34" y="86" width="1" height="4"/><rect x="35" y="82" width="1" height="4"/><rect x="36" y="86" width="1" height="4"/><rect x="37" y="82" width="1" height="4"/><rect x="38" y="86" width="1" height="4"/><polygon points="40 80 40 82 39 82 39 86 40 86 40 84 41 84 41 80 40 80"/><rect x="41" y="84" width="1" height="4"/><rect x="42" y="80" width="1" height="4"/><rect x="43" y="84" width="1" height="4"/><rect x="44" y="80" width="1" height="4"/><rect x="45" y="84" width="1" height="4"/><rect x="46" y="80" width="1" height="4"/><rect x="47" y="84" width="1" height="4"/><rect x="48" y="80" width="1" height="4"/><polygon points="50 84 49 84 49 88 50 88 50 90 51 90 51 86 50 86 50 84"/><rect x="51" y="82" width="1" height="4"/><rect x="52" y="86" width="1" height="4"/><rect x="53" y="82" width="1" height="4"/><rect x="54" y="86" width="1" height="4"/><rect x="55" y="82" width="1" height="4"/><rect x="56" y="86" width="1" height="4"/><rect x="57" y="82" width="1" height="4"/><rect x="58" y="86" width="1" height="4"/><polygon points="60 80 60 82 59 82 59 86 60 86 60 84 61 84 61 80 60 80"/><rect x="61" y="84" width="1" height="4"/><rect x="62" y="80" width="1" height="4"/><rect x="63" y="84" width="1" height="4"/><rect x="64" y="80" width="1" height="4"/><rect x="65" y="84" width="1" height="4"/><rect x="66" y="80" width="1" height="4"/><rect x="67" y="84" width="1" height="4"/><rect x="68" y="80" width="1" height="4"/><polygon points="70 84 69 84 69 88 70 88 70 90 71 90 71 86 70 86 70 84"/><rect x="71" y="82" width="1" height="4"/><rect x="72" y="86" width="1" height="4"/><rect x="73" y="82" width="1" height="4"/><rect x="74" y="86" width="1" height="4"/><rect x="75" y="82" width="1" height="4"/><rect x="76" y="86" width="1" height="4"/><rect x="77" y="82" width="1" height="4"/><rect x="78" y="86" width="1" height="4"/><polygon points="80 80 80 82 79 82 79 86 80 86 80 84 81 84 81 80 80 80"/><rect x="81" y="84" width="1" height="4"/><rect x="82" y="80" width="1" height="4"/><rect x="83" y="84" width="1" height="4"/><rect x="84" y="80" width="1" height="4"/><rect x="85" y="84" width="1" height="4"/><rect x="86" y="80" width="1" height="4"/><rect x="87" y="84" width="1" height="4"/><rect x="88" y="80" width="1" height="4"/><polygon points="90 84 89 84 89 88 90 88 90 90 91 90 91 86 90 86 90 84"/><rect x="91" y="82" width="1" height="4"/><rect x="92" y="86" width="1" height="4"/><rect x="93" y="82" width="1" height="4"/><rect x="94" y="86" width="1" height="4"/><rect x="95" y="82" width="1" height="4"/><rect x="96" y="86" width="1" height="4"/><rect x="97" y="82" width="1" height="4"/><rect x="98" y="86" width="1" height="4"/><rect x="99" y="82" width="1" height="4"/><rect y="90" width="1" height="4"/><rect x="1" y="94" width="1" height="4"/><rect x="2" y="90" width="1" height="4"/><rect x="3" y="94" width="1" height="4"/><rect x="4" y="90" width="1" height="4"/><rect x="5" y="94" width="1" height="4"/><rect x="6" y="90" width="1" height="4"/><rect x="7" y="94" width="1" height="4"/><rect x="8" y="90" width="1" height="4"/><polygon points="10 94 9 94 9 98 10 98 10 100 11 100 11 96 10 96 10 94"/><rect x="11" y="92" width="1" height="4"/><rect x="12" y="96" width="1" height="4"/><rect x="13" y="92" width="1" height="4"/><rect x="14" y="96" width="1" height="4"/><rect x="15" y="92" width="1" height="4"/><rect x="16" y="96" width="1" height="4"/><rect x="17" y="92" width="1" height="4"/><rect x="18" y="96" width="1" height="4"/><polygon points="20 90 20 92 19 92 19 96 20 96 20 94 21 94 21 90 20 90"/><rect x="21" y="94" width="1" height="4"/><rect x="22" y="90" width="1" height="4"/><rect x="23" y="94" width="1" height="4"/><rect x="24" y="90" width="1" height="4"/><rect x="25" y="94" width="1" height="4"/><rect x="26" y="90" width="1" height="4"/><rect x="27" y="94" width="1" height="4"/><rect x="28" y="90" width="1" height="4"/><polygon points="30 94 29 94 29 98 30 98 30 100 31 100 31 96 30 96 30 94"/><rect x="31" y="92" width="1" height="4"/><rect x="32" y="96" width="1" height="4"/><rect x="33" y="92" width="1" height="4"/><rect x="34" y="96" width="1" height="4"/><rect x="35" y="92" width="1" height="4"/><rect x="36" y="96" width="1" height="4"/><rect x="37" y="92" width="1" height="4"/><rect x="38" y="96" width="1" height="4"/><polygon points="40 90 40 92 39 92 39 96 40 96 40 94 41 94 41 90 40 90"/><rect x="41" y="94" width="1" height="4"/><rect x="42" y="90" width="1" height="4"/><rect x="43" y="94" width="1" height="4"/><rect x="44" y="90" width="1" height="4"/><rect x="45" y="94" width="1" height="4"/><rect x="46" y="90" width="1" height="4"/><rect x="47" y="94" width="1" height="4"/><rect x="48" y="90" width="1" height="4"/><polygon points="50 94 49 94 49 98 50 98 50 100 51 100 51 96 50 96 50 94"/><rect x="51" y="92" width="1" height="4"/><rect x="52" y="96" width="1" height="4"/><rect x="53" y="92" width="1" height="4"/><rect x="54" y="96" width="1" height="4"/><rect x="55" y="92" width="1" height="4"/><rect x="56" y="96" width="1" height="4"/><rect x="57" y="92" width="1" height="4"/><rect x="58" y="96" width="1" height="4"/><polygon points="60 90 60 92 59 92 59 96 60 96 60 94 61 94 61 90 60 90"/><rect x="61" y="94" width="1" height="4"/><rect x="62" y="90" width="1" height="4"/><rect x="63" y="94" width="1" height="4"/><rect x="64" y="90" width="1" height="4"/><rect x="65" y="94" width="1" height="4"/><rect x="66" y="90" width="1" height="4"/><rect x="67" y="94" width="1" height="4"/><rect x="68" y="90" width="1" height="4"/><polygon points="70 94 69 94 69 98 70 98 70 100 71 100 71 96 70 96 70 94"/><rect x="71" y="92" width="1" height="4"/><rect x="72" y="96" width="1" height="4"/><rect x="73" y="92" width="1" height="4"/><rect x="74" y="96" width="1" height="4"/><rect x="75" y="92" width="1" height="4"/><rect x="76" y="96" width="1" height="4"/><rect x="77" y="92" width="1" height="4"/><rect x="78" y="96" width="1" height="4"/><polygon points="80 90 80 92 79 92 79 96 80 96 80 94 81 94 81 90 80 90"/><rect x="81" y="94" width="1" height="4"/><rect x="82" y="90" width="1" height="4"/><rect x="83" y="94" width="1" height="4"/><rect x="84" y="90" width="1" height="4"/><rect x="85" y="94" width="1" height="4"/><rect x="86" y="90" width="1" height="4"/><rect x="87" y="94" width="1" height="4"/><rect x="88" y="90" width="1" height="4"/><polygon points="90 94 89 94 89 98 90 98 90 100 91 100 91 96 90 96 90 94"/><rect x="91" y="92" width="1" height="4"/><rect x="92" y="96" width="1" height="4"/><rect x="93" y="92" width="1" height="4"/><rect x="94" y="96" width="1" height="4"/><rect x="95" y="92" width="1" height="4"/><rect x="96" y="96" width="1" height="4"/><rect x="97" y="92" width="1" height="4"/><rect x="98" y="96" width="1" height="4"/><rect x="99" y="92" width="1" height="4"/></svg>