<svg id="Layer_1" data-name="Layer 1" xmlns="http://www.w3.org/2000/svg" viewBox="0 0 100 100"><title>pattern</title><polygon points="1 4 3 4 3 3 4 3 4 1 3 1 3 0 1 0 1 1 0 1 0 3 1 3 1 4"/><polygon points="7 4 9 4 9 3 10 3 10 1 9 1 9 0 7 0 7 1 6 1 6 3 7 3 7 4"/><path d="M12,9h2V8h2V9h2V8h1V6H18V4h1V2H18V1H16V2H14V1H12V2H11V4h1V6H11V8h1Zm2-5h2V6H14Z"/><path d="M4,19V18H6v1H8V18H9V16H8V14H9V12H8V11H6v1H4V11H2v1H1v2H2v2H1v2H2v1Zm0-5H6v2H4Z"/><polygon points="7 6 7 7 6 7 6 9 7 9 7 10 9 10 9 9 10 9 10 7 9 7 9 6 7 6"/><polygon points="1 10 3 10 3 9 4 9 4 7 3 7 3 6 1 6 1 7 0 7 0 9 1 9 1 10"/><rect x="4" y="4" width="2" height="2"/><polygon points="10 13 11 13 11 14 13 14 13 13 14 13 14 11 13 11 13 10 11 10 11 11 10 11 10 13"/><polygon points="19 10 17 10 17 11 16 11 16 13 17 13 17 14 19 14 19 13 20 13 20 11 19 11 19 10"/><polygon points="17 16 17 17 16 17 16 19 17 19 17 20 19 20 19 19 20 19 20 17 19 17 19 16 17 16"/><polygon points="11 16 11 17 10 17 10 19 11 19 11 20 13 20 13 19 14 19 14 17 13 17 13 16 11 16"/><rect x="14" y="14" width="2" height="2"/><path d="M22,16H21v2h1v1h2V18h2v1h2V18h1V16H28V14h1V12H28V11H26v1H24V11H22v1H21v2h1Zm2-2h2v2H24Z"/><polygon points="30 13 31 13 31 14 33 14 33 13 34 13 34 11 33 11 33 10 31 10 31 11 30 11 30 13"/><polygon points="39 10 37 10 37 11 36 11 36 13 37 13 37 14 39 14 39 13 40 13 40 11 39 11 39 10"/><polygon points="37 16 37 17 36 17 36 19 37 19 37 20 39 20 39 19 40 19 40 17 39 17 39 16 37 16"/><polygon points="31 16 31 17 30 17 30 19 31 19 31 20 33 20 33 19 34 19 34 17 33 17 33 16 31 16"/><rect x="34" y="14" width="2" height="2"/><path d="M42,16H41v2h1v1h2V18h2v1h2V18h1V16H48V14h1V12H48V11H46v1H44V11H42v1H41v2h1Zm2-2h2v2H44Z"/><polygon points="50 13 51 13 51 14 53 14 53 13 54 13 54 11 53 11 53 10 51 10 51 11 50 11 50 13"/><polygon points="59 10 57 10 57 11 56 11 56 13 57 13 57 14 59 14 59 13 60 13 60 11 59 11 59 10"/><polygon points="57 16 57 17 56 17 56 19 57 19 57 20 59 20 59 19 60 19 60 17 59 17 59 16 57 16"/><polygon points="51 16 51 17 50 17 50 19 51 19 51 20 53 20 53 19 54 19 54 17 53 17 53 16 51 16"/><rect x="54" y="14" width="2" height="2"/><path d="M62,16H61v2h1v1h2V18h2v1h2V18h1V16H68V14h1V12H68V11H66v1H64V11H62v1H61v2h1Zm2-2h2v2H64Z"/><polygon points="70 13 71 13 71 14 73 14 73 13 74 13 74 11 73 11 73 10 71 10 71 11 70 11 70 13"/><polygon points="79 10 77 10 77 11 76 11 76 13 77 13 77 14 79 14 79 13 80 13 80 11 79 11 79 10"/><polygon points="77 16 77 17 76 17 76 19 77 19 77 20 79 20 79 19 80 19 80 17 79 17 79 16 77 16"/><polygon points="71 16 71 17 70 17 70 19 71 19 71 20 73 20 73 19 74 19 74 17 73 17 73 16 71 16"/><rect x="74" y="14" width="2" height="2"/><path d="M82,16H81v2h1v1h2V18h2v1h2V18h1V16H88V14h1V12H88V11H86v1H84V11H82v1H81v2h1Zm2-2h2v2H84Z"/><polygon points="90 13 91 13 91 14 93 14 93 13 94 13 94 11 93 11 93 10 91 10 91 11 90 11 90 13"/><polygon points="99 11 99 10 97 10 97 11 96 11 96 13 97 13 97 14 99 14 99 13 100 13 100 11 99 11"/><polygon points="99 16 97 16 97 17 96 17 96 19 97 19 97 20 99 20 99 19 100 19 100 17 99 17 99 16"/><polygon points="91 16 91 17 90 17 90 19 91 19 91 20 93 20 93 19 94 19 94 17 93 17 93 16 91 16"/><rect x="94" y="14" width="2" height="2"/><polygon points="21 4 23 4 23 3 24 3 24 1 23 1 23 0 21 0 21 1 20 1 20 3 21 3 21 4"/><polygon points="27 4 29 4 29 3 30 3 30 1 29 1 29 0 27 0 27 1 26 1 26 3 27 3 27 4"/><path d="M32,9h2V8h2V9h2V8h1V6H38V4h1V2H38V1H36V2H34V1H32V2H31V4h1V6H31V8h1Zm2-5h2V6H34Z"/><polygon points="27 6 27 7 26 7 26 9 27 9 27 10 29 10 29 9 30 9 30 7 29 7 29 6 27 6"/><polygon points="21 10 23 10 23 9 24 9 24 7 23 7 23 6 21 6 21 7 20 7 20 9 21 9 21 10"/><rect x="24" y="4" width="2" height="2"/><polygon points="41 4 43 4 43 3 44 3 44 1 43 1 43 0 41 0 41 1 40 1 40 3 41 3 41 4"/><polygon points="47 4 49 4 49 3 50 3 50 1 49 1 49 0 47 0 47 1 46 1 46 3 47 3 47 4"/><path d="M52,9h2V8h2V9h2V8h1V6H58V4h1V2H58V1H56V2H54V1H52V2H51V4h1V6H51V8h1Zm2-5h2V6H54Z"/><polygon points="47 6 47 7 46 7 46 9 47 9 47 10 49 10 49 9 50 9 50 7 49 7 49 6 47 6"/><polygon points="41 10 43 10 43 9 44 9 44 7 43 7 43 6 41 6 41 7 40 7 40 9 41 9 41 10"/><rect x="44" y="4" width="2" height="2"/><polygon points="61 4 63 4 63 3 64 3 64 1 63 1 63 0 61 0 61 1 60 1 60 3 61 3 61 4"/><polygon points="67 4 69 4 69 3 70 3 70 1 69 1 69 0 67 0 67 1 66 1 66 3 67 3 67 4"/><path d="M72,9h2V8h2V9h2V8h1V6H78V4h1V2H78V1H76V2H74V1H72V2H71V4h1V6H71V8h1Zm2-5h2V6H74Z"/><polygon points="67 6 67 7 66 7 66 9 67 9 67 10 69 10 69 9 70 9 70 7 69 7 69 6 67 6"/><polygon points="61 10 63 10 63 9 64 9 64 7 63 7 63 6 61 6 61 7 60 7 60 9 61 9 61 10"/><rect x="64" y="4" width="2" height="2"/><polygon points="81 4 83 4 83 3 84 3 84 1 83 1 83 0 81 0 81 1 80 1 80 3 81 3 81 4"/><polygon points="87 4 89 4 89 3 90 3 90 1 89 1 89 0 87 0 87 1 86 1 86 3 87 3 87 4"/><path d="M92,9h2V8h2V9h2V8h1V6H98V4h1V2H98V1H96V2H94V1H92V2H91V4h1V6H91V8h1Zm2-5h2V6H94Z"/><polygon points="87 6 87 7 86 7 86 9 87 9 87 10 89 10 89 9 90 9 90 7 89 7 89 6 87 6"/><polygon points="81 10 83 10 83 9 84 9 84 7 83 7 83 6 81 6 81 7 80 7 80 9 81 9 81 10"/><rect x="84" y="4" width="2" height="2"/><polygon points="1 24 3 24 3 23 4 23 4 21 3 21 3 20 1 20 1 21 0 21 0 23 1 23 1 24"/><polygon points="7 20 7 21 6 21 6 23 7 23 7 24 9 24 9 23 10 23 10 21 9 21 9 20 7 20"/><path d="M14,21H12v1H11v2h1v2H11v2h1v1h2V28h2v1h2V28h1V26H18V24h1V22H18V21H16v1H14Zm2,3v2H14V24Z"/><path d="M4,39V38H6v1H8V38H9V36H8V34H9V32H8V31H6v1H4V31H2v1H1v2H2v2H1v2H2v1Zm0-5H6v2H4Z"/><polygon points="9 30 9 29 10 29 10 27 9 27 9 26 7 26 7 27 6 27 6 29 7 29 7 30 9 30"/><polygon points="1 30 3 30 3 29 4 29 4 27 3 27 3 26 1 26 1 27 0 27 0 29 1 29 1 30"/><rect x="4" y="24" width="2" height="2"/><polygon points="11 30 11 31 10 31 10 33 11 33 11 34 13 34 13 33 14 33 14 31 13 31 13 30 11 30"/><polygon points="17 30 17 31 16 31 16 33 17 33 17 34 19 34 19 33 20 33 20 31 19 31 19 30 17 30"/><polygon points="16 39 17 39 17 40 19 40 19 39 20 39 20 37 19 37 19 36 17 36 17 37 16 37 16 39"/><polygon points="11 36 11 37 10 37 10 39 11 39 11 40 13 40 13 39 14 39 14 37 13 37 13 36 11 36"/><rect x="14" y="34" width="2" height="2"/><path d="M24,31H22v1H21v2h1v2H21v2h1v1h2V38h2v1h2V38h1V36H28V34h1V32H28V31H26v1H24Zm2,3v2H24V34Z"/><polygon points="31 30 31 31 30 31 30 33 31 33 31 34 33 34 33 33 34 33 34 31 33 31 33 30 31 30"/><polygon points="37 30 37 31 36 31 36 33 37 33 37 34 39 34 39 33 40 33 40 31 39 31 39 30 37 30"/><polygon points="36 39 37 39 37 40 39 40 39 39 40 39 40 37 39 37 39 36 37 36 37 37 36 37 36 39"/><polygon points="31 36 31 37 30 37 30 39 31 39 31 40 33 40 33 39 34 39 34 37 33 37 33 36 31 36"/><rect x="34" y="34" width="2" height="2"/><path d="M44,31H42v1H41v2h1v2H41v2h1v1h2V38h2v1h2V38h1V36H48V34h1V32H48V31H46v1H44Zm2,3v2H44V34Z"/><polygon points="51 30 51 31 50 31 50 33 51 33 51 34 53 34 53 33 54 33 54 31 53 31 53 30 51 30"/><polygon points="57 30 57 31 56 31 56 33 57 33 57 34 59 34 59 33 60 33 60 31 59 31 59 30 57 30"/><polygon points="56 39 57 39 57 40 59 40 59 39 60 39 60 37 59 37 59 36 57 36 57 37 56 37 56 39"/><polygon points="51 36 51 37 50 37 50 39 51 39 51 40 53 40 53 39 54 39 54 37 53 37 53 36 51 36"/><rect x="54" y="34" width="2" height="2"/><path d="M64,31H62v1H61v2h1v2H61v2h1v1h2V38h2v1h2V38h1V36H68V34h1V32H68V31H66v1H64Zm2,3v2H64V34Z"/><polygon points="71 30 71 31 70 31 70 33 71 33 71 34 73 34 73 33 74 33 74 31 73 31 73 30 71 30"/><polygon points="77 30 77 31 76 31 76 33 77 33 77 34 79 34 79 33 80 33 80 31 79 31 79 30 77 30"/><polygon points="76 39 77 39 77 40 79 40 79 39 80 39 80 37 79 37 79 36 77 36 77 37 76 37 76 39"/><polygon points="71 36 71 37 70 37 70 39 71 39 71 40 73 40 73 39 74 39 74 37 73 37 73 36 71 36"/><rect x="74" y="34" width="2" height="2"/><path d="M84,31H82v1H81v2h1v2H81v2h1v1h2V38h2v1h2V38h1V36H88V34h1V32H88V31H86v1H84Zm2,3v2H84V34Z"/><polygon points="91 30 91 31 90 31 90 33 91 33 91 34 93 34 93 33 94 33 94 31 93 31 93 30 91 30"/><polygon points="99 30 97 30 97 31 96 31 96 33 97 33 97 34 99 34 99 33 100 33 100 31 99 31 99 30"/><polygon points="99 36 97 36 97 37 96 37 96 39 97 39 97 40 99 40 99 39 100 39 100 37 99 37 99 36"/><polygon points="93 40 93 39 94 39 94 37 93 37 93 36 91 36 91 37 90 37 90 39 91 39 91 40 93 40"/><rect x="94" y="34" width="2" height="2"/><polygon points="21 21 20 21 20 23 21 23 21 24 23 24 23 23 24 23 24 21 23 21 23 20 21 20 21 21"/><polygon points="27 20 27 21 26 21 26 23 27 23 27 24 29 24 29 23 30 23 30 21 29 21 29 20 27 20"/><path d="M34,21H32v1H31v2h1v2H31v2h1v1h2V28h2v1h2V28h1V26H38V24h1V22H38V21H36v1H34Zm2,3v2H34V24Z"/><polygon points="26 29 27 29 27 30 29 30 29 29 30 29 30 27 29 27 29 26 27 26 27 27 26 27 26 29"/><polygon points="21 26 21 27 20 27 20 29 21 29 21 30 23 30 23 29 24 29 24 27 23 27 23 26 21 26"/><rect x="24" y="24" width="2" height="2"/><polygon points="41 21 40 21 40 23 41 23 41 24 43 24 43 23 44 23 44 21 43 21 43 20 41 20 41 21"/><polygon points="47 20 47 21 46 21 46 23 47 23 47 24 49 24 49 23 50 23 50 21 49 21 49 20 47 20"/><path d="M54,21H52v1H51v2h1v2H51v2h1v1h2V28h2v1h2V28h1V26H58V24h1V22H58V21H56v1H54Zm2,3v2H54V24Z"/><polygon points="46 29 47 29 47 30 49 30 49 29 50 29 50 27 49 27 49 26 47 26 47 27 46 27 46 29"/><polygon points="41 26 41 27 40 27 40 29 41 29 41 30 43 30 43 29 44 29 44 27 43 27 43 26 41 26"/><rect x="44" y="24" width="2" height="2"/><polygon points="61 21 60 21 60 23 61 23 61 24 63 24 63 23 64 23 64 21 63 21 63 20 61 20 61 21"/><polygon points="67 20 67 21 66 21 66 23 67 23 67 24 69 24 69 23 70 23 70 21 69 21 69 20 67 20"/><path d="M74,21H72v1H71v2h1v2H71v2h1v1h2V28h2v1h2V28h1V26H78V24h1V22H78V21H76v1H74Zm2,3v2H74V24Z"/><polygon points="66 29 67 29 67 30 69 30 69 29 70 29 70 27 69 27 69 26 67 26 67 27 66 27 66 29"/><polygon points="61 26 61 27 60 27 60 29 61 29 61 30 63 30 63 29 64 29 64 27 63 27 63 26 61 26"/><rect x="64" y="24" width="2" height="2"/><polygon points="81 21 80 21 80 23 81 23 81 24 83 24 83 23 84 23 84 21 83 21 83 20 81 20 81 21"/><polygon points="87 20 87 21 86 21 86 23 87 23 87 24 89 24 89 23 90 23 90 21 89 21 89 20 87 20"/><path d="M96,21v1H94V21H92v1H91v2h1v2H91v2h1v1h2V28h2v1h2V28h1V26H98V24h1V22H98V21Zm0,5H94V24h2Z"/><polygon points="86 29 87 29 87 30 89 30 89 29 90 29 90 27 89 27 89 26 87 26 87 27 86 27 86 29"/><polygon points="81 26 81 27 80 27 80 29 81 29 81 30 83 30 83 29 84 29 84 27 83 27 83 26 81 26"/><rect x="84" y="24" width="2" height="2"/><polygon points="1 44 3 44 3 43 4 43 4 41 3 41 3 40 1 40 1 41 0 41 0 43 1 43 1 44"/><polygon points="7 40 7 41 6 41 6 43 7 43 7 44 9 44 9 43 10 43 10 41 9 41 9 40 7 40"/><path d="M16,49h2V48h1V46H18V44h1V42H18V41H16v1H14V41H12v1H11v2h1v2H11v2h1v1h2V48h2Zm-2-3V44h2v2Z"/><path d="M4,59V58H6v1H8V58H9V56H8V54H9V52H8V51H6v1H4V51H2v1H1v2H2v2H1v2H2v1Zm0-5H6v2H4Z"/><polygon points="9 50 9 49 10 49 10 47 9 47 9 46 7 46 7 47 6 47 6 49 7 49 7 50 9 50"/><polygon points="1 50 3 50 3 49 4 49 4 47 3 47 3 46 1 46 1 47 0 47 0 49 1 49 1 50"/><rect x="4" y="44" width="2" height="2"/><polygon points="14 51 13 51 13 50 11 50 11 51 10 51 10 53 11 53 11 54 13 54 13 53 14 53 14 51"/><polygon points="19 54 19 53 20 53 20 51 19 51 19 50 17 50 17 51 16 51 16 53 17 53 17 54 19 54"/><polygon points="20 57 19 57 19 56 17 56 17 57 16 57 16 59 17 59 17 60 19 60 19 59 20 59 20 57"/><polygon points="13 60 13 59 14 59 14 57 13 57 13 56 11 56 11 57 10 57 10 59 11 59 11 60 13 60"/><rect x="14" y="54" width="2" height="2"/><path d="M24,59V58h2v1h2V58h1V56H28V54h1V52H28V51H26v1H24V51H22v1H21v2h1v2H21v2h1v1Zm0-5h2v2H24Z"/><polygon points="34 51 33 51 33 50 31 50 31 51 30 51 30 53 31 53 31 54 33 54 33 53 34 53 34 51"/><polygon points="39 54 39 53 40 53 40 51 39 51 39 50 37 50 37 51 36 51 36 53 37 53 37 54 39 54"/><polygon points="40 57 39 57 39 56 37 56 37 57 36 57 36 59 37 59 37 60 39 60 39 59 40 59 40 57"/><polygon points="33 60 33 59 34 59 34 57 33 57 33 56 31 56 31 57 30 57 30 59 31 59 31 60 33 60"/><rect x="34" y="54" width="2" height="2"/><path d="M44,59V58h2v1h2V58h1V56H48V54h1V52H48V51H46v1H44V51H42v1H41v2h1v2H41v2h1v1Zm0-5h2v2H44Z"/><polygon points="54 51 53 51 53 50 51 50 51 51 50 51 50 53 51 53 51 54 53 54 53 53 54 53 54 51"/><polygon points="59 54 59 53 60 53 60 51 59 51 59 50 57 50 57 51 56 51 56 53 57 53 57 54 59 54"/><polygon points="60 57 59 57 59 56 57 56 57 57 56 57 56 59 57 59 57 60 59 60 59 59 60 59 60 57"/><polygon points="53 60 53 59 54 59 54 57 53 57 53 56 51 56 51 57 50 57 50 59 51 59 51 60 53 60"/><rect x="54" y="54" width="2" height="2"/><path d="M64,59V58h2v1h2V58h1V56H68V54h1V52H68V51H66v1H64V51H62v1H61v2h1v2H61v2h1v1Zm0-5h2v2H64Z"/><polygon points="74 51 73 51 73 50 71 50 71 51 70 51 70 53 71 53 71 54 73 54 73 53 74 53 74 51"/><polygon points="79 54 79 53 80 53 80 51 79 51 79 50 77 50 77 51 76 51 76 53 77 53 77 54 79 54"/><polygon points="80 57 79 57 79 56 77 56 77 57 76 57 76 59 77 59 77 60 79 60 79 59 80 59 80 57"/><polygon points="73 60 73 59 74 59 74 57 73 57 73 56 71 56 71 57 70 57 70 59 71 59 71 60 73 60"/><rect x="74" y="54" width="2" height="2"/><path d="M84,59V58h2v1h2V58h1V56H88V54h1V52H88V51H86v1H84V51H82v1H81v2h1v2H81v2h1v1Zm0-5h2v2H84Z"/><polygon points="91 50 91 51 90 51 90 53 91 53 91 54 93 54 93 53 94 53 94 51 93 51 93 50 91 50"/><polygon points="99 50 97 50 97 51 96 51 96 53 97 53 97 54 99 54 99 53 100 53 100 51 99 51 99 50"/><polygon points="99 56 97 56 97 57 96 57 96 59 97 59 97 60 99 60 99 59 100 59 100 57 99 57 99 56"/><polygon points="93 60 93 59 94 59 94 57 93 57 93 56 91 56 91 57 90 57 90 59 91 59 91 60 93 60"/><rect x="94" y="54" width="2" height="2"/><polygon points="20 43 21 43 21 44 23 44 23 43 24 43 24 41 23 41 23 40 21 40 21 41 20 41 20 43"/><polygon points="27 40 27 41 26 41 26 43 27 43 27 44 29 44 29 43 30 43 30 41 29 41 29 40 27 40"/><path d="M36,49h2V48h1V46H38V44h1V42H38V41H36v1H34V41H32v1H31v2h1v2H31v2h1v1h2V48h2Zm-2-3V44h2v2Z"/><polygon points="30 47 29 47 29 46 27 46 27 47 26 47 26 49 27 49 27 50 29 50 29 49 30 49 30 47"/><polygon points="21 46 21 47 20 47 20 49 21 49 21 50 23 50 23 49 24 49 24 47 23 47 23 46 21 46"/><rect x="24" y="44" width="2" height="2"/><polygon points="40 43 41 43 41 44 43 44 43 43 44 43 44 41 43 41 43 40 41 40 41 41 40 41 40 43"/><polygon points="47 40 47 41 46 41 46 43 47 43 47 44 49 44 49 43 50 43 50 41 49 41 49 40 47 40"/><path d="M56,49h2V48h1V46H58V44h1V42H58V41H56v1H54V41H52v1H51v2h1v2H51v2h1v1h2V48h2Zm-2-3V44h2v2Z"/><polygon points="50 47 49 47 49 46 47 46 47 47 46 47 46 49 47 49 47 50 49 50 49 49 50 49 50 47"/><polygon points="41 46 41 47 40 47 40 49 41 49 41 50 43 50 43 49 44 49 44 47 43 47 43 46 41 46"/><rect x="44" y="44" width="2" height="2"/><polygon points="60 43 61 43 61 44 63 44 63 43 64 43 64 41 63 41 63 40 61 40 61 41 60 41 60 43"/><polygon points="67 40 67 41 66 41 66 43 67 43 67 44 69 44 69 43 70 43 70 41 69 41 69 40 67 40"/><path d="M76,49h2V48h1V46H78V44h1V42H78V41H76v1H74V41H72v1H71v2h1v2H71v2h1v1h2V48h2Zm-2-3V44h2v2Z"/><polygon points="70 47 69 47 69 46 67 46 67 47 66 47 66 49 67 49 67 50 69 50 69 49 70 49 70 47"/><polygon points="61 46 61 47 60 47 60 49 61 49 61 50 63 50 63 49 64 49 64 47 63 47 63 46 61 46"/><rect x="64" y="44" width="2" height="2"/><polygon points="80 43 81 43 81 44 83 44 83 43 84 43 84 41 83 41 83 40 81 40 81 41 80 41 80 43"/><polygon points="90 41 89 41 89 40 87 40 87 41 86 41 86 43 87 43 87 44 89 44 89 43 90 43 90 41"/><path d="M96,41v1H94V41H92v1H91v2h1v2H91v2h1v1h2V48h2v1h2V48h1V46H98V44h1V42H98V41Zm0,5H94V44h2Z"/><polygon points="90 47 89 47 89 46 87 46 87 47 86 47 86 49 87 49 87 50 89 50 89 49 90 49 90 47"/><polygon points="81 46 81 47 80 47 80 49 81 49 81 50 83 50 83 49 84 49 84 47 83 47 83 46 81 46"/><rect x="84" y="44" width="2" height="2"/><polygon points="1 64 3 64 3 63 4 63 4 61 3 61 3 60 1 60 1 61 0 61 0 63 1 63 1 64"/><polygon points="7 60 7 61 6 61 6 63 7 63 7 64 9 64 9 63 10 63 10 61 9 61 9 60 7 60"/><path d="M16,69h2V68h1V66H18V64h1V62H18V61H16v1H14V61H12v1H11v2h1v2H11v2h1v1h2V68h2Zm-2-3V64h2v2Z"/><path d="M6,79H8V78H9V76H8V74H9V72H8V71H6v1H4V71H2v1H1v2H2v2H1v2H2v1H4V78H6ZM4,76V74H6v2Z"/><polygon points="9 70 9 69 10 69 10 67 9 67 9 66 7 66 7 67 6 67 6 69 7 69 7 70 9 70"/><polygon points="1 70 3 70 3 69 4 69 4 67 3 67 3 66 1 66 1 67 0 67 0 69 1 69 1 70"/><rect x="4" y="64" width="2" height="2"/><polygon points="14 71 13 71 13 70 11 70 11 71 10 71 10 73 11 73 11 74 13 74 13 73 14 73 14 71"/><polygon points="19 74 19 73 20 73 20 71 19 71 19 70 17 70 17 71 16 71 16 73 17 73 17 74 19 74"/><polygon points="19 79 20 79 20 77 19 77 19 76 17 76 17 77 16 77 16 79 17 79 17 80 19 80 19 79"/><polygon points="13 80 13 79 14 79 14 77 13 77 13 76 11 76 11 77 10 77 10 79 11 79 11 80 13 80"/><rect x="14" y="74" width="2" height="2"/><path d="M26,79h2V78h1V76H28V74h1V72H28V71H26v1H24V71H22v1H21v2h1v2H21v2h1v1h2V78h2Zm-2-3V74h2v2Z"/><polygon points="34 71 33 71 33 70 31 70 31 71 30 71 30 73 31 73 31 74 33 74 33 73 34 73 34 71"/><polygon points="39 74 39 73 40 73 40 71 39 71 39 70 37 70 37 71 36 71 36 73 37 73 37 74 39 74"/><polygon points="39 79 40 79 40 77 39 77 39 76 37 76 37 77 36 77 36 79 37 79 37 80 39 80 39 79"/><polygon points="33 80 33 79 34 79 34 77 33 77 33 76 31 76 31 77 30 77 30 79 31 79 31 80 33 80"/><rect x="34" y="74" width="2" height="2"/><path d="M46,79h2V78h1V76H48V74h1V72H48V71H46v1H44V71H42v1H41v2h1v2H41v2h1v1h2V78h2Zm-2-3V74h2v2Z"/><polygon points="54 71 53 71 53 70 51 70 51 71 50 71 50 73 51 73 51 74 53 74 53 73 54 73 54 71"/><polygon points="59 74 59 73 60 73 60 71 59 71 59 70 57 70 57 71 56 71 56 73 57 73 57 74 59 74"/><polygon points="59 79 60 79 60 77 59 77 59 76 57 76 57 77 56 77 56 79 57 79 57 80 59 80 59 79"/><polygon points="53 80 53 79 54 79 54 77 53 77 53 76 51 76 51 77 50 77 50 79 51 79 51 80 53 80"/><rect x="54" y="74" width="2" height="2"/><path d="M66,79h2V78h1V76H68V74h1V72H68V71H66v1H64V71H62v1H61v2h1v2H61v2h1v1h2V78h2Zm-2-3V74h2v2Z"/><polygon points="74 71 73 71 73 70 71 70 71 71 70 71 70 73 71 73 71 74 73 74 73 73 74 73 74 71"/><polygon points="79 74 79 73 80 73 80 71 79 71 79 70 77 70 77 71 76 71 76 73 77 73 77 74 79 74"/><polygon points="79 79 80 79 80 77 79 77 79 76 77 76 77 77 76 77 76 79 77 79 77 80 79 80 79 79"/><polygon points="73 80 73 79 74 79 74 77 73 77 73 76 71 76 71 77 70 77 70 79 71 79 71 80 73 80"/><rect x="74" y="74" width="2" height="2"/><path d="M86,79h2V78h1V76H88V74h1V72H88V71H86v1H84V71H82v1H81v2h1v2H81v2h1v1h2V78h2Zm-2-3V74h2v2Z"/><polygon points="91 70 91 71 90 71 90 73 91 73 91 74 93 74 93 73 94 73 94 71 93 71 93 70 91 70"/><polygon points="99 70 97 70 97 71 96 71 96 73 97 73 97 74 99 74 99 73 100 73 100 71 99 71 99 70"/><polygon points="99 76 97 76 97 77 96 77 96 79 97 79 97 80 99 80 99 79 100 79 100 77 99 77 99 76"/><polygon points="93 80 93 79 94 79 94 77 93 77 93 76 91 76 91 77 90 77 90 79 91 79 91 80 93 80"/><rect x="94" y="74" width="2" height="2"/><polygon points="24 61 23 61 23 60 21 60 21 61 20 61 20 63 21 63 21 64 23 64 23 63 24 63 24 61"/><polygon points="29 64 29 63 30 63 30 61 29 61 29 60 27 60 27 61 26 61 26 63 27 63 27 64 29 64"/><path d="M36,69h2V68h1V66H38V64h1V62H38V61H36v1H34V61H32v1H31v2h1v2H31v2h1v1h2V68h2Zm-2-3V64h2v2Z"/><polygon points="29 70 29 69 30 69 30 67 29 67 29 66 27 66 27 67 26 67 26 69 27 69 27 70 29 70"/><polygon points="23 70 23 69 24 69 24 67 23 67 23 66 21 66 21 67 20 67 20 69 21 69 21 70 23 70"/><rect x="24" y="64" width="2" height="2"/><polygon points="44 61 43 61 43 60 41 60 41 61 40 61 40 63 41 63 41 64 43 64 43 63 44 63 44 61"/><polygon points="49 64 49 63 50 63 50 61 49 61 49 60 47 60 47 61 46 61 46 63 47 63 47 64 49 64"/><path d="M56,69h2V68h1V66H58V64h1V62H58V61H56v1H54V61H52v1H51v2h1v2H51v2h1v1h2V68h2Zm-2-3V64h2v2Z"/><polygon points="49 70 49 69 50 69 50 67 49 67 49 66 47 66 47 67 46 67 46 69 47 69 47 70 49 70"/><polygon points="43 70 43 69 44 69 44 67 43 67 43 66 41 66 41 67 40 67 40 69 41 69 41 70 43 70"/><rect x="44" y="64" width="2" height="2"/><polygon points="64 61 63 61 63 60 61 60 61 61 60 61 60 63 61 63 61 64 63 64 63 63 64 63 64 61"/><polygon points="69 64 69 63 70 63 70 61 69 61 69 60 67 60 67 61 66 61 66 63 67 63 67 64 69 64"/><path d="M76,69h2V68h1V66H78V64h1V62H78V61H76v1H74V61H72v1H71v2h1v2H71v2h1v1h2V68h2Zm-2-3V64h2v2Z"/><polygon points="69 70 69 69 70 69 70 67 69 67 69 66 67 66 67 67 66 67 66 69 67 69 67 70 69 70"/><polygon points="63 70 63 69 64 69 64 67 63 67 63 66 61 66 61 67 60 67 60 69 61 69 61 70 63 70"/><rect x="64" y="64" width="2" height="2"/><polygon points="84 61 83 61 83 60 81 60 81 61 80 61 80 63 81 63 81 64 83 64 83 63 84 63 84 61"/><polygon points="89 64 89 63 90 63 90 61 89 61 89 60 87 60 87 61 86 61 86 63 87 63 87 64 89 64"/><path d="M96,61v1H94V61H92v1H91v2h1v2H91v2h1v1h2V68h2v1h2V68h1V66H98V64h1V62H98V61Zm0,5H94V64h2Z"/><polygon points="89 70 89 69 90 69 90 67 89 67 89 66 87 66 87 67 86 67 86 69 87 69 87 70 89 70"/><polygon points="83 70 83 69 84 69 84 67 83 67 83 66 81 66 81 67 80 67 80 69 81 69 81 70 83 70"/><rect x="84" y="64" width="2" height="2"/><polygon points="1 84 3 84 3 83 4 83 4 81 3 81 3 80 1 80 1 81 0 81 0 83 1 83 1 84"/><polygon points="9 84 9 83 10 83 10 81 9 81 9 80 7 80 7 81 6 81 6 83 7 83 7 84 9 84"/><path d="M18,84h1V82H18V81H16v1H14V81H12v1H11v2h1v2H11v2h1v1h2V88h2v1h2V88h1V86H18Zm-2,2H14V84h2Z"/><path d="M8,91H6v1H4V91H2v1H1v2H2v2H1v2H2v1H4V98H6v1H8V98H9V96H8V94H9V92H8ZM6,96H4V94H6Z"/><polygon points="10 87 9 87 9 86 7 86 7 87 6 87 6 89 7 89 7 90 9 90 9 89 10 89 10 87"/><polygon points="1 90 3 90 3 89 4 89 4 87 3 87 3 86 1 86 1 87 0 87 0 89 1 89 1 90"/><rect x="4" y="84" width="2" height="2"/><polygon points="13 94 13 93 14 93 14 91 13 91 13 90 11 90 11 91 10 91 10 93 11 93 11 94 13 94"/><polygon points="19 90 17 90 17 91 16 91 16 93 17 93 17 94 19 94 19 93 20 93 20 91 19 91 19 90"/><polygon points="19 96 17 96 17 97 16 97 16 99 17 99 17 100 19 100 19 99 20 99 20 97 19 97 19 96"/><polygon points="13 96 11 96 11 97 10 97 10 99 11 99 11 100 13 100 13 99 14 99 14 97 13 97 13 96"/><rect x="14" y="94" width="2" height="2"/><path d="M28,91H26v1H24V91H22v1H21v2h1v2H21v2h1v1h2V98h2v1h2V98h1V96H28V94h1V92H28Zm-2,5H24V94h2Z"/><polygon points="33 94 33 93 34 93 34 91 33 91 33 90 31 90 31 91 30 91 30 93 31 93 31 94 33 94"/><polygon points="39 90 37 90 37 91 36 91 36 93 37 93 37 94 39 94 39 93 40 93 40 91 39 91 39 90"/><polygon points="39 96 37 96 37 97 36 97 36 99 37 99 37 100 39 100 39 99 40 99 40 97 39 97 39 96"/><polygon points="33 96 31 96 31 97 30 97 30 99 31 99 31 100 33 100 33 99 34 99 34 97 33 97 33 96"/><rect x="34" y="94" width="2" height="2"/><path d="M48,91H46v1H44V91H42v1H41v2h1v2H41v2h1v1h2V98h2v1h2V98h1V96H48V94h1V92H48Zm-2,5H44V94h2Z"/><polygon points="53 94 53 93 54 93 54 91 53 91 53 90 51 90 51 91 50 91 50 93 51 93 51 94 53 94"/><polygon points="59 90 57 90 57 91 56 91 56 93 57 93 57 94 59 94 59 93 60 93 60 91 59 91 59 90"/><polygon points="59 96 57 96 57 97 56 97 56 99 57 99 57 100 59 100 59 99 60 99 60 97 59 97 59 96"/><polygon points="53 96 51 96 51 97 50 97 50 99 51 99 51 100 53 100 53 99 54 99 54 97 53 97 53 96"/><rect x="54" y="94" width="2" height="2"/><path d="M68,91H66v1H64V91H62v1H61v2h1v2H61v2h1v1h2V98h2v1h2V98h1V96H68V94h1V92H68Zm-2,5H64V94h2Z"/><polygon points="73 94 73 93 74 93 74 91 73 91 73 90 71 90 71 91 70 91 70 93 71 93 71 94 73 94"/><polygon points="79 90 77 90 77 91 76 91 76 93 77 93 77 94 79 94 79 93 80 93 80 91 79 91 79 90"/><polygon points="79 96 77 96 77 97 76 97 76 99 77 99 77 100 79 100 79 99 80 99 80 97 79 97 79 96"/><polygon points="73 96 71 96 71 97 70 97 70 99 71 99 71 100 73 100 73 99 74 99 74 97 73 97 73 96"/><rect x="74" y="94" width="2" height="2"/><path d="M88,91H86v1H84V91H82v1H81v2h1v2H81v2h1v1h2V98h2v1h2V98h1V96H88V94h1V92H88Zm-2,5H84V94h2Z"/><polygon points="93 94 93 93 94 93 94 91 93 91 93 90 91 90 91 91 90 91 90 93 91 93 91 94 93 94"/><polygon points="99 90 97 90 97 91 96 91 96 93 97 93 97 94 99 94 99 93 100 93 100 91 99 91 99 90"/><polygon points="99 96 97 96 97 97 96 97 96 99 97 99 97 100 99 100 99 99 100 99 100 97 99 97 99 96"/><polygon points="93 96 91 96 91 97 90 97 90 99 91 99 91 100 93 100 93 99 94 99 94 97 93 97 93 96"/><rect x="94" y="94" width="2" height="2"/><polygon points="23 84 23 83 24 83 24 81 23 81 23 80 21 80 21 81 20 81 20 83 21 83 21 84 23 84"/><polygon points="29 84 29 83 30 83 30 81 29 81 29 80 27 80 27 81 26 81 26 83 27 83 27 84 29 84"/><path d="M38,84h1V82H38V81H36v1H34V81H32v1H31v2h1v2H31v2h1v1h2V88h2v1h2V88h1V86H38Zm-2,2H34V84h2Z"/><polygon points="30 87 29 87 29 86 27 86 27 87 26 87 26 89 27 89 27 90 29 90 29 89 30 89 30 87"/><polygon points="21 90 23 90 23 89 24 89 24 87 23 87 23 86 21 86 21 87 20 87 20 89 21 89 21 90"/><rect x="24" y="84" width="2" height="2"/><polygon points="43 84 43 83 44 83 44 81 43 81 43 80 41 80 41 81 40 81 40 83 41 83 41 84 43 84"/><polygon points="49 84 49 83 50 83 50 81 49 81 49 80 47 80 47 81 46 81 46 83 47 83 47 84 49 84"/><path d="M58,84h1V82H58V81H56v1H54V81H52v1H51v2h1v2H51v2h1v1h2V88h2v1h2V88h1V86H58Zm-2,2H54V84h2Z"/><polygon points="50 87 49 87 49 86 47 86 47 87 46 87 46 89 47 89 47 90 49 90 49 89 50 89 50 87"/><polygon points="41 90 43 90 43 89 44 89 44 87 43 87 43 86 41 86 41 87 40 87 40 89 41 89 41 90"/><rect x="44" y="84" width="2" height="2"/><polygon points="63 84 63 83 64 83 64 81 63 81 63 80 61 80 61 81 60 81 60 83 61 83 61 84 63 84"/><polygon points="69 84 69 83 70 83 70 81 69 81 69 80 67 80 67 81 66 81 66 83 67 83 67 84 69 84"/><path d="M78,84h1V82H78V81H76v1H74V81H72v1H71v2h1v2H71v2h1v1h2V88h2v1h2V88h1V86H78Zm-2,2H74V84h2Z"/><polygon points="70 87 69 87 69 86 67 86 67 87 66 87 66 89 67 89 67 90 69 90 69 89 70 89 70 87"/><polygon points="61 90 63 90 63 89 64 89 64 87 63 87 63 86 61 86 61 87 60 87 60 89 61 89 61 90"/><rect x="64" y="84" width="2" height="2"/><polygon points="83 84 83 83 84 83 84 81 83 81 83 80 81 80 81 81 80 81 80 83 81 83 81 84 83 84"/><polygon points="89 84 89 83 90 83 90 81 89 81 89 80 87 80 87 81 86 81 86 83 87 83 87 84 89 84"/><path d="M96,81v1H94V81H92v1H91v2h1v2H91v2h1v1h2V88h2v1h2V88h1V86H98V84h1V82H98V81Zm0,5H94V84h2Z"/><polygon points="90 87 89 87 89 86 87 86 87 87 86 87 86 89 87 89 87 90 89 90 89 89 90 89 90 87"/><polygon points="81 90 83 90 83 89 84 89 84 87 83 87 83 86 81 86 81 87 80 87 80 89 81 89 81 90"/><rect x="84" y="84" width="2" height="2"/></svg>