<svg id="Layer_1" data-name="Layer 1" xmlns="http://www.w3.org/2000/svg" viewBox="0 0 100 100"><title>pattern</title><rect width="1" height="5"/><rect x="1" y="5" width="1" height="5"/><rect x="4" width="1" height="5"/><rect x="5" y="5" width="1" height="5"/><rect x="6" width="1" height="5"/><rect x="7" y="5" width="1" height="5"/><rect x="2" width="1" height="5"/><rect x="3" y="5" width="1" height="5"/><rect x="8" width="1" height="5"/><rect x="9" y="5" width="1" height="5"/><rect x="10" width="1" height="5"/><rect x="11" y="5" width="1" height="5"/><rect x="14" width="1" height="5"/><rect x="15" y="5" width="1" height="5"/><rect x="16" width="1" height="5"/><rect x="17" y="5" width="1" height="5"/><rect x="12" width="1" height="5"/><rect x="13" y="5" width="1" height="5"/><rect x="18" width="1" height="5"/><rect x="19" y="5" width="1" height="5"/><rect x="20" width="1" height="5"/><rect x="21" y="5" width="1" height="5"/><rect x="24" width="1" height="5"/><rect x="25" y="5" width="1" height="5"/><rect x="26" width="1" height="5"/><rect x="27" y="5" width="1" height="5"/><rect x="22" width="1" height="5"/><rect x="23" y="5" width="1" height="5"/><rect x="28" width="1" height="5"/><rect x="29" y="5" width="1" height="5"/><rect x="30" width="1" height="5"/><rect x="31" y="5" width="1" height="5"/><rect x="34" width="1" height="5"/><rect x="35" y="5" width="1" height="5"/><rect x="36" width="1" height="5"/><rect x="37" y="5" width="1" height="5"/><rect x="32" width="1" height="5"/><rect x="33" y="5" width="1" height="5"/><rect x="38" width="1" height="5"/><rect x="39" y="5" width="1" height="5"/><rect x="40" width="1" height="5"/><rect x="41" y="5" width="1" height="5"/><rect x="44" width="1" height="5"/><rect x="45" y="5" width="1" height="5"/><rect x="46" width="1" height="5"/><rect x="47" y="5" width="1" height="5"/><rect x="42" width="1" height="5"/><rect x="43" y="5" width="1" height="5"/><rect x="48" width="1" height="5"/><rect x="49" y="5" width="1" height="5"/><rect x="50" width="1" height="5"/><rect x="51" y="5" width="1" height="5"/><rect x="54" width="1" height="5"/><rect x="55" y="5" width="1" height="5"/><rect x="56" width="1" height="5"/><rect x="57" y="5" width="1" height="5"/><rect x="52" width="1" height="5"/><rect x="53" y="5" width="1" height="5"/><rect x="58" width="1" height="5"/><rect x="59" y="5" width="1" height="5"/><rect x="60" width="1" height="5"/><rect x="61" y="5" width="1" height="5"/><rect x="64" width="1" height="5"/><rect x="65" y="5" width="1" height="5"/><rect x="66" width="1" height="5"/><rect x="67" y="5" width="1" height="5"/><rect x="62" width="1" height="5"/><rect x="63" y="5" width="1" height="5"/><rect x="68" width="1" height="5"/><rect x="69" y="5" width="1" height="5"/><rect x="70" width="1" height="5"/><rect x="71" y="5" width="1" height="5"/><rect x="74" width="1" height="5"/><rect x="75" y="5" width="1" height="5"/><rect x="76" width="1" height="5"/><rect x="77" y="5" width="1" height="5"/><rect x="72" width="1" height="5"/><rect x="73" y="5" width="1" height="5"/><rect x="78" width="1" height="5"/><rect x="79" y="5" width="1" height="5"/><rect x="80" width="1" height="5"/><rect x="81" y="5" width="1" height="5"/><rect x="84" width="1" height="5"/><rect x="85" y="5" width="1" height="5"/><rect x="86" width="1" height="5"/><rect x="87" y="5" width="1" height="5"/><rect x="82" width="1" height="5"/><rect x="83" y="5" width="1" height="5"/><rect x="88" width="1" height="5"/><rect x="89" y="5" width="1" height="5"/><rect x="90" width="1" height="5"/><rect x="91" y="5" width="1" height="5"/><rect x="94" width="1" height="5"/><rect x="95" y="5" width="1" height="5"/><rect x="96" width="1" height="5"/><rect x="97" y="5" width="1" height="5"/><rect x="92" width="1" height="5"/><rect x="93" y="5" width="1" height="5"/><rect x="98" width="1" height="5"/><rect x="99" y="5" width="1" height="5"/><rect y="10" width="1" height="5"/><rect x="1" y="15" width="1" height="5"/><rect x="4" y="10" width="1" height="5"/><rect x="5" y="15" width="1" height="5"/><rect x="6" y="10" width="1" height="5"/><rect x="7" y="15" width="1" height="5"/><rect x="2" y="10" width="1" height="5"/><rect x="3" y="15" width="1" height="5"/><rect x="8" y="10" width="1" height="5"/><rect x="9" y="15" width="1" height="5"/><rect x="10" y="10" width="1" height="5"/><rect x="11" y="15" width="1" height="5"/><rect x="14" y="10" width="1" height="5"/><rect x="15" y="15" width="1" height="5"/><rect x="16" y="10" width="1" height="5"/><rect x="17" y="15" width="1" height="5"/><rect x="12" y="10" width="1" height="5"/><rect x="13" y="15" width="1" height="5"/><rect x="18" y="10" width="1" height="5"/><rect x="19" y="15" width="1" height="5"/><rect x="20" y="10" width="1" height="5"/><rect x="21" y="15" width="1" height="5"/><rect x="24" y="10" width="1" height="5"/><rect x="25" y="15" width="1" height="5"/><rect x="26" y="10" width="1" height="5"/><rect x="27" y="15" width="1" height="5"/><rect x="22" y="10" width="1" height="5"/><rect x="23" y="15" width="1" height="5"/><rect x="28" y="10" width="1" height="5"/><rect x="29" y="15" width="1" height="5"/><rect x="30" y="10" width="1" height="5"/><rect x="31" y="15" width="1" height="5"/><rect x="34" y="10" width="1" height="5"/><rect x="35" y="15" width="1" height="5"/><rect x="36" y="10" width="1" height="5"/><rect x="37" y="15" width="1" height="5"/><rect x="32" y="10" width="1" height="5"/><rect x="33" y="15" width="1" height="5"/><rect x="38" y="10" width="1" height="5"/><rect x="39" y="15" width="1" height="5"/><rect x="40" y="10" width="1" height="5"/><rect x="41" y="15" width="1" height="5"/><rect x="44" y="10" width="1" height="5"/><rect x="45" y="15" width="1" height="5"/><rect x="46" y="10" width="1" height="5"/><rect x="47" y="15" width="1" height="5"/><rect x="42" y="10" width="1" height="5"/><rect x="43" y="15" width="1" height="5"/><rect x="48" y="10" width="1" height="5"/><rect x="49" y="15" width="1" height="5"/><rect x="50" y="10" width="1" height="5"/><rect x="51" y="15" width="1" height="5"/><rect x="54" y="10" width="1" height="5"/><rect x="55" y="15" width="1" height="5"/><rect x="56" y="10" width="1" height="5"/><rect x="57" y="15" width="1" height="5"/><rect x="52" y="10" width="1" height="5"/><rect x="53" y="15" width="1" height="5"/><rect x="58" y="10" width="1" height="5"/><rect x="59" y="15" width="1" height="5"/><rect x="60" y="10" width="1" height="5"/><rect x="61" y="15" width="1" height="5"/><rect x="64" y="10" width="1" height="5"/><rect x="65" y="15" width="1" height="5"/><rect x="66" y="10" width="1" height="5"/><rect x="67" y="15" width="1" height="5"/><rect x="62" y="10" width="1" height="5"/><rect x="63" y="15" width="1" height="5"/><rect x="68" y="10" width="1" height="5"/><rect x="69" y="15" width="1" height="5"/><rect x="70" y="10" width="1" height="5"/><rect x="71" y="15" width="1" height="5"/><rect x="74" y="10" width="1" height="5"/><rect x="75" y="15" width="1" height="5"/><rect x="76" y="10" width="1" height="5"/><rect x="77" y="15" width="1" height="5"/><rect x="72" y="10" width="1" height="5"/><rect x="73" y="15" width="1" height="5"/><rect x="78" y="10" width="1" height="5"/><rect x="79" y="15" width="1" height="5"/><rect x="80" y="10" width="1" height="5"/><rect x="81" y="15" width="1" height="5"/><rect x="84" y="10" width="1" height="5"/><rect x="85" y="15" width="1" height="5"/><rect x="86" y="10" width="1" height="5"/><rect x="87" y="15" width="1" height="5"/><rect x="82" y="10" width="1" height="5"/><rect x="83" y="15" width="1" height="5"/><rect x="88" y="10" width="1" height="5"/><rect x="89" y="15" width="1" height="5"/><rect x="90" y="10" width="1" height="5"/><rect x="91" y="15" width="1" height="5"/><rect x="94" y="10" width="1" height="5"/><rect x="95" y="15" width="1" height="5"/><rect x="96" y="10" width="1" height="5"/><rect x="97" y="15" width="1" height="5"/><rect x="92" y="10" width="1" height="5"/><rect x="93" y="15" width="1" height="5"/><rect x="98" y="10" width="1" height="5"/><rect x="99" y="15" width="1" height="5"/><rect y="20" width="1" height="5"/><rect x="1" y="25" width="1" height="5"/><rect x="4" y="20" width="1" height="5"/><rect x="5" y="25" width="1" height="5"/><rect x="6" y="20" width="1" height="5"/><rect x="7" y="25" width="1" height="5"/><rect x="2" y="20" width="1" height="5"/><rect x="3" y="25" width="1" height="5"/><rect x="8" y="20" width="1" height="5"/><rect x="9" y="25" width="1" height="5"/><rect x="10" y="20" width="1" height="5"/><rect x="11" y="25" width="1" height="5"/><rect x="14" y="20" width="1" height="5"/><rect x="15" y="25" width="1" height="5"/><rect x="16" y="20" width="1" height="5"/><rect x="17" y="25" width="1" height="5"/><rect x="12" y="20" width="1" height="5"/><rect x="13" y="25" width="1" height="5"/><rect x="18" y="20" width="1" height="5"/><rect x="19" y="25" width="1" height="5"/><rect x="20" y="20" width="1" height="5"/><rect x="21" y="25" width="1" height="5"/><rect x="24" y="20" width="1" height="5"/><rect x="25" y="25" width="1" height="5"/><rect x="26" y="20" width="1" height="5"/><rect x="27" y="25" width="1" height="5"/><rect x="22" y="20" width="1" height="5"/><rect x="23" y="25" width="1" height="5"/><rect x="28" y="20" width="1" height="5"/><rect x="29" y="25" width="1" height="5"/><rect x="30" y="20" width="1" height="5"/><rect x="31" y="25" width="1" height="5"/><rect x="34" y="20" width="1" height="5"/><rect x="35" y="25" width="1" height="5"/><rect x="36" y="20" width="1" height="5"/><rect x="37" y="25" width="1" height="5"/><rect x="32" y="20" width="1" height="5"/><rect x="33" y="25" width="1" height="5"/><rect x="38" y="20" width="1" height="5"/><rect x="39" y="25" width="1" height="5"/><rect x="40" y="20" width="1" height="5"/><rect x="41" y="25" width="1" height="5"/><rect x="44" y="20" width="1" height="5"/><rect x="45" y="25" width="1" height="5"/><rect x="46" y="20" width="1" height="5"/><rect x="47" y="25" width="1" height="5"/><rect x="42" y="20" width="1" height="5"/><rect x="43" y="25" width="1" height="5"/><rect x="48" y="20" width="1" height="5"/><rect x="49" y="25" width="1" height="5"/><rect x="50" y="20" width="1" height="5"/><rect x="51" y="25" width="1" height="5"/><rect x="54" y="20" width="1" height="5"/><rect x="55" y="25" width="1" height="5"/><rect x="56" y="20" width="1" height="5"/><rect x="57" y="25" width="1" height="5"/><rect x="52" y="20" width="1" height="5"/><rect x="53" y="25" width="1" height="5"/><rect x="58" y="20" width="1" height="5"/><rect x="59" y="25" width="1" height="5"/><rect x="60" y="20" width="1" height="5"/><rect x="61" y="25" width="1" height="5"/><rect x="64" y="20" width="1" height="5"/><rect x="65" y="25" width="1" height="5"/><rect x="66" y="20" width="1" height="5"/><rect x="67" y="25" width="1" height="5"/><rect x="62" y="20" width="1" height="5"/><rect x="63" y="25" width="1" height="5"/><rect x="68" y="20" width="1" height="5"/><rect x="69" y="25" width="1" height="5"/><rect x="70" y="20" width="1" height="5"/><rect x="71" y="25" width="1" height="5"/><rect x="74" y="20" width="1" height="5"/><rect x="75" y="25" width="1" height="5"/><rect x="76" y="20" width="1" height="5"/><rect x="77" y="25" width="1" height="5"/><rect x="72" y="20" width="1" height="5"/><rect x="73" y="25" width="1" height="5"/><rect x="78" y="20" width="1" height="5"/><rect x="79" y="25" width="1" height="5"/><rect x="80" y="20" width="1" height="5"/><rect x="81" y="25" width="1" height="5"/><rect x="84" y="20" width="1" height="5"/><rect x="85" y="25" width="1" height="5"/><rect x="86" y="20" width="1" height="5"/><rect x="87" y="25" width="1" height="5"/><rect x="82" y="20" width="1" height="5"/><rect x="83" y="25" width="1" height="5"/><rect x="88" y="20" width="1" height="5"/><rect x="89" y="25" width="1" height="5"/><rect x="90" y="20" width="1" height="5"/><rect x="91" y="25" width="1" height="5"/><rect x="94" y="20" width="1" height="5"/><rect x="95" y="25" width="1" height="5"/><rect x="96" y="20" width="1" height="5"/><rect x="97" y="25" width="1" height="5"/><rect x="92" y="20" width="1" height="5"/><rect x="93" y="25" width="1" height="5"/><rect x="98" y="20" width="1" height="5"/><rect x="99" y="25" width="1" height="5"/><rect y="30" width="1" height="5"/><rect x="1" y="35" width="1" height="5"/><rect x="4" y="30" width="1" height="5"/><rect x="5" y="35" width="1" height="5"/><rect x="6" y="30" width="1" height="5"/><rect x="7" y="35" width="1" height="5"/><rect x="2" y="30" width="1" height="5"/><rect x="3" y="35" width="1" height="5"/><rect x="8" y="30" width="1" height="5"/><rect x="9" y="35" width="1" height="5"/><rect x="10" y="30" width="1" height="5"/><rect x="11" y="35" width="1" height="5"/><rect x="14" y="30" width="1" height="5"/><rect x="15" y="35" width="1" height="5"/><rect x="16" y="30" width="1" height="5"/><rect x="17" y="35" width="1" height="5"/><rect x="12" y="30" width="1" height="5"/><rect x="13" y="35" width="1" height="5"/><rect x="18" y="30" width="1" height="5"/><rect x="19" y="35" width="1" height="5"/><rect x="20" y="30" width="1" height="5"/><rect x="21" y="35" width="1" height="5"/><rect x="24" y="30" width="1" height="5"/><rect x="25" y="35" width="1" height="5"/><rect x="26" y="30" width="1" height="5"/><rect x="27" y="35" width="1" height="5"/><rect x="22" y="30" width="1" height="5"/><rect x="23" y="35" width="1" height="5"/><rect x="28" y="30" width="1" height="5"/><rect x="29" y="35" width="1" height="5"/><rect x="30" y="30" width="1" height="5"/><rect x="31" y="35" width="1" height="5"/><rect x="34" y="30" width="1" height="5"/><rect x="35" y="35" width="1" height="5"/><rect x="36" y="30" width="1" height="5"/><rect x="37" y="35" width="1" height="5"/><rect x="32" y="30" width="1" height="5"/><rect x="33" y="35" width="1" height="5"/><rect x="38" y="30" width="1" height="5"/><rect x="39" y="35" width="1" height="5"/><rect x="40" y="30" width="1" height="5"/><rect x="41" y="35" width="1" height="5"/><rect x="44" y="30" width="1" height="5"/><rect x="45" y="35" width="1" height="5"/><rect x="46" y="30" width="1" height="5"/><rect x="47" y="35" width="1" height="5"/><rect x="42" y="30" width="1" height="5"/><rect x="43" y="35" width="1" height="5"/><rect x="48" y="30" width="1" height="5"/><rect x="49" y="35" width="1" height="5"/><rect x="50" y="30" width="1" height="5"/><rect x="51" y="35" width="1" height="5"/><rect x="54" y="30" width="1" height="5"/><rect x="55" y="35" width="1" height="5"/><rect x="56" y="30" width="1" height="5"/><rect x="57" y="35" width="1" height="5"/><rect x="52" y="30" width="1" height="5"/><rect x="53" y="35" width="1" height="5"/><rect x="58" y="30" width="1" height="5"/><rect x="59" y="35" width="1" height="5"/><rect x="60" y="30" width="1" height="5"/><rect x="61" y="35" width="1" height="5"/><rect x="64" y="30" width="1" height="5"/><rect x="65" y="35" width="1" height="5"/><rect x="66" y="30" width="1" height="5"/><rect x="67" y="35" width="1" height="5"/><rect x="62" y="30" width="1" height="5"/><rect x="63" y="35" width="1" height="5"/><rect x="68" y="30" width="1" height="5"/><rect x="69" y="35" width="1" height="5"/><rect x="70" y="30" width="1" height="5"/><rect x="71" y="35" width="1" height="5"/><rect x="74" y="30" width="1" height="5"/><rect x="75" y="35" width="1" height="5"/><rect x="76" y="30" width="1" height="5"/><rect x="77" y="35" width="1" height="5"/><rect x="72" y="30" width="1" height="5"/><rect x="73" y="35" width="1" height="5"/><rect x="78" y="30" width="1" height="5"/><rect x="79" y="35" width="1" height="5"/><rect x="80" y="30" width="1" height="5"/><rect x="81" y="35" width="1" height="5"/><rect x="84" y="30" width="1" height="5"/><rect x="85" y="35" width="1" height="5"/><rect x="86" y="30" width="1" height="5"/><rect x="87" y="35" width="1" height="5"/><rect x="82" y="30" width="1" height="5"/><rect x="83" y="35" width="1" height="5"/><rect x="88" y="30" width="1" height="5"/><rect x="89" y="35" width="1" height="5"/><rect x="90" y="30" width="1" height="5"/><rect x="91" y="35" width="1" height="5"/><rect x="94" y="30" width="1" height="5"/><rect x="95" y="35" width="1" height="5"/><rect x="96" y="30" width="1" height="5"/><rect x="97" y="35" width="1" height="5"/><rect x="92" y="30" width="1" height="5"/><rect x="93" y="35" width="1" height="5"/><rect x="98" y="30" width="1" height="5"/><rect x="99" y="35" width="1" height="5"/><rect y="40" width="1" height="5"/><rect x="1" y="45" width="1" height="5"/><rect x="4" y="40" width="1" height="5"/><rect x="5" y="45" width="1" height="5"/><rect x="6" y="40" width="1" height="5"/><rect x="7" y="45" width="1" height="5"/><rect x="2" y="40" width="1" height="5"/><rect x="3" y="45" width="1" height="5"/><rect x="8" y="40" width="1" height="5"/><rect x="9" y="45" width="1" height="5"/><rect x="10" y="40" width="1" height="5"/><rect x="11" y="45" width="1" height="5"/><rect x="14" y="40" width="1" height="5"/><rect x="15" y="45" width="1" height="5"/><rect x="16" y="40" width="1" height="5"/><rect x="17" y="45" width="1" height="5"/><rect x="12" y="40" width="1" height="5"/><rect x="13" y="45" width="1" height="5"/><rect x="18" y="40" width="1" height="5"/><rect x="19" y="45" width="1" height="5"/><rect x="20" y="40" width="1" height="5"/><rect x="21" y="45" width="1" height="5"/><rect x="24" y="40" width="1" height="5"/><rect x="25" y="45" width="1" height="5"/><rect x="26" y="40" width="1" height="5"/><rect x="27" y="45" width="1" height="5"/><rect x="22" y="40" width="1" height="5"/><rect x="23" y="45" width="1" height="5"/><rect x="28" y="40" width="1" height="5"/><rect x="29" y="45" width="1" height="5"/><rect x="30" y="40" width="1" height="5"/><rect x="31" y="45" width="1" height="5"/><rect x="34" y="40" width="1" height="5"/><rect x="35" y="45" width="1" height="5"/><rect x="36" y="40" width="1" height="5"/><rect x="37" y="45" width="1" height="5"/><rect x="32" y="40" width="1" height="5"/><rect x="33" y="45" width="1" height="5"/><rect x="38" y="40" width="1" height="5"/><rect x="39" y="45" width="1" height="5"/><rect x="40" y="40" width="1" height="5"/><rect x="41" y="45" width="1" height="5"/><rect x="44" y="40" width="1" height="5"/><rect x="45" y="45" width="1" height="5"/><rect x="46" y="40" width="1" height="5"/><rect x="47" y="45" width="1" height="5"/><rect x="42" y="40" width="1" height="5"/><rect x="43" y="45" width="1" height="5"/><rect x="48" y="40" width="1" height="5"/><rect x="49" y="45" width="1" height="5"/><rect x="50" y="40" width="1" height="5"/><rect x="51" y="45" width="1" height="5"/><rect x="54" y="40" width="1" height="5"/><rect x="55" y="45" width="1" height="5"/><rect x="56" y="40" width="1" height="5"/><rect x="57" y="45" width="1" height="5"/><rect x="52" y="40" width="1" height="5"/><rect x="53" y="45" width="1" height="5"/><rect x="58" y="40" width="1" height="5"/><rect x="59" y="45" width="1" height="5"/><rect x="60" y="40" width="1" height="5"/><rect x="61" y="45" width="1" height="5"/><rect x="64" y="40" width="1" height="5"/><rect x="65" y="45" width="1" height="5"/><rect x="66" y="40" width="1" height="5"/><rect x="67" y="45" width="1" height="5"/><rect x="62" y="40" width="1" height="5"/><rect x="63" y="45" width="1" height="5"/><rect x="68" y="40" width="1" height="5"/><rect x="69" y="45" width="1" height="5"/><rect x="70" y="40" width="1" height="5"/><rect x="71" y="45" width="1" height="5"/><rect x="74" y="40" width="1" height="5"/><rect x="75" y="45" width="1" height="5"/><rect x="76" y="40" width="1" height="5"/><rect x="77" y="45" width="1" height="5"/><rect x="72" y="40" width="1" height="5"/><rect x="73" y="45" width="1" height="5"/><rect x="78" y="40" width="1" height="5"/><rect x="79" y="45" width="1" height="5"/><rect x="80" y="40" width="1" height="5"/><rect x="81" y="45" width="1" height="5"/><rect x="84" y="40" width="1" height="5"/><rect x="85" y="45" width="1" height="5"/><rect x="86" y="40" width="1" height="5"/><rect x="87" y="45" width="1" height="5"/><rect x="82" y="40" width="1" height="5"/><rect x="83" y="45" width="1" height="5"/><rect x="88" y="40" width="1" height="5"/><rect x="89" y="45" width="1" height="5"/><rect x="90" y="40" width="1" height="5"/><rect x="91" y="45" width="1" height="5"/><rect x="94" y="40" width="1" height="5"/><rect x="95" y="45" width="1" height="5"/><rect x="96" y="40" width="1" height="5"/><rect x="97" y="45" width="1" height="5"/><rect x="92" y="40" width="1" height="5"/><rect x="93" y="45" width="1" height="5"/><rect x="98" y="40" width="1" height="5"/><rect x="99" y="45" width="1" height="5"/><rect y="50" width="1" height="5"/><rect x="1" y="55" width="1" height="5"/><rect x="4" y="50" width="1" height="5"/><rect x="5" y="55" width="1" height="5"/><rect x="6" y="50" width="1" height="5"/><rect x="7" y="55" width="1" height="5"/><rect x="2" y="50" width="1" height="5"/><rect x="3" y="55" width="1" height="5"/><rect x="8" y="50" width="1" height="5"/><rect x="9" y="55" width="1" height="5"/><rect x="10" y="50" width="1" height="5"/><rect x="11" y="55" width="1" height="5"/><rect x="14" y="50" width="1" height="5"/><rect x="15" y="55" width="1" height="5"/><rect x="16" y="50" width="1" height="5"/><rect x="17" y="55" width="1" height="5"/><rect x="12" y="50" width="1" height="5"/><rect x="13" y="55" width="1" height="5"/><rect x="18" y="50" width="1" height="5"/><rect x="19" y="55" width="1" height="5"/><rect x="20" y="50" width="1" height="5"/><rect x="21" y="55" width="1" height="5"/><rect x="24" y="50" width="1" height="5"/><rect x="25" y="55" width="1" height="5"/><rect x="26" y="50" width="1" height="5"/><rect x="27" y="55" width="1" height="5"/><rect x="22" y="50" width="1" height="5"/><rect x="23" y="55" width="1" height="5"/><rect x="28" y="50" width="1" height="5"/><rect x="29" y="55" width="1" height="5"/><rect x="30" y="50" width="1" height="5"/><rect x="31" y="55" width="1" height="5"/><rect x="34" y="50" width="1" height="5"/><rect x="35" y="55" width="1" height="5"/><rect x="36" y="50" width="1" height="5"/><rect x="37" y="55" width="1" height="5"/><rect x="32" y="50" width="1" height="5"/><rect x="33" y="55" width="1" height="5"/><rect x="38" y="50" width="1" height="5"/><rect x="39" y="55" width="1" height="5"/><rect x="40" y="50" width="1" height="5"/><rect x="41" y="55" width="1" height="5"/><rect x="44" y="50" width="1" height="5"/><rect x="45" y="55" width="1" height="5"/><rect x="46" y="50" width="1" height="5"/><rect x="47" y="55" width="1" height="5"/><rect x="42" y="50" width="1" height="5"/><rect x="43" y="55" width="1" height="5"/><rect x="48" y="50" width="1" height="5"/><rect x="49" y="55" width="1" height="5"/><rect x="50" y="50" width="1" height="5"/><rect x="51" y="55" width="1" height="5"/><rect x="54" y="50" width="1" height="5"/><rect x="55" y="55" width="1" height="5"/><rect x="56" y="50" width="1" height="5"/><rect x="57" y="55" width="1" height="5"/><rect x="52" y="50" width="1" height="5"/><rect x="53" y="55" width="1" height="5"/><rect x="58" y="50" width="1" height="5"/><rect x="59" y="55" width="1" height="5"/><rect x="60" y="50" width="1" height="5"/><rect x="61" y="55" width="1" height="5"/><rect x="64" y="50" width="1" height="5"/><rect x="65" y="55" width="1" height="5"/><rect x="66" y="50" width="1" height="5"/><rect x="67" y="55" width="1" height="5"/><rect x="62" y="50" width="1" height="5"/><rect x="63" y="55" width="1" height="5"/><rect x="68" y="50" width="1" height="5"/><rect x="69" y="55" width="1" height="5"/><rect x="70" y="50" width="1" height="5"/><rect x="71" y="55" width="1" height="5"/><rect x="74" y="50" width="1" height="5"/><rect x="75" y="55" width="1" height="5"/><rect x="76" y="50" width="1" height="5"/><rect x="77" y="55" width="1" height="5"/><rect x="72" y="50" width="1" height="5"/><rect x="73" y="55" width="1" height="5"/><rect x="78" y="50" width="1" height="5"/><rect x="79" y="55" width="1" height="5"/><rect x="80" y="50" width="1" height="5"/><rect x="81" y="55" width="1" height="5"/><rect x="84" y="50" width="1" height="5"/><rect x="85" y="55" width="1" height="5"/><rect x="86" y="50" width="1" height="5"/><rect x="87" y="55" width="1" height="5"/><rect x="82" y="50" width="1" height="5"/><rect x="83" y="55" width="1" height="5"/><rect x="88" y="50" width="1" height="5"/><rect x="89" y="55" width="1" height="5"/><rect x="90" y="50" width="1" height="5"/><rect x="91" y="55" width="1" height="5"/><rect x="94" y="50" width="1" height="5"/><rect x="95" y="55" width="1" height="5"/><rect x="96" y="50" width="1" height="5"/><rect x="97" y="55" width="1" height="5"/><rect x="92" y="50" width="1" height="5"/><rect x="93" y="55" width="1" height="5"/><rect x="98" y="50" width="1" height="5"/><rect x="99" y="55" width="1" height="5"/><rect y="60" width="1" height="5"/><rect x="1" y="65" width="1" height="5"/><rect x="4" y="60" width="1" height="5"/><rect x="5" y="65" width="1" height="5"/><rect x="6" y="60" width="1" height="5"/><rect x="7" y="65" width="1" height="5"/><rect x="2" y="60" width="1" height="5"/><rect x="3" y="65" width="1" height="5"/><rect x="8" y="60" width="1" height="5"/><rect x="9" y="65" width="1" height="5"/><rect x="10" y="60" width="1" height="5"/><rect x="11" y="65" width="1" height="5"/><rect x="14" y="60" width="1" height="5"/><rect x="15" y="65" width="1" height="5"/><rect x="16" y="60" width="1" height="5"/><rect x="17" y="65" width="1" height="5"/><rect x="12" y="60" width="1" height="5"/><rect x="13" y="65" width="1" height="5"/><rect x="18" y="60" width="1" height="5"/><rect x="19" y="65" width="1" height="5"/><rect x="20" y="60" width="1" height="5"/><rect x="21" y="65" width="1" height="5"/><rect x="24" y="60" width="1" height="5"/><rect x="25" y="65" width="1" height="5"/><rect x="26" y="60" width="1" height="5"/><rect x="27" y="65" width="1" height="5"/><rect x="22" y="60" width="1" height="5"/><rect x="23" y="65" width="1" height="5"/><rect x="28" y="60" width="1" height="5"/><rect x="29" y="65" width="1" height="5"/><rect x="30" y="60" width="1" height="5"/><rect x="31" y="65" width="1" height="5"/><rect x="34" y="60" width="1" height="5"/><rect x="35" y="65" width="1" height="5"/><rect x="36" y="60" width="1" height="5"/><rect x="37" y="65" width="1" height="5"/><rect x="32" y="60" width="1" height="5"/><rect x="33" y="65" width="1" height="5"/><rect x="38" y="60" width="1" height="5"/><rect x="39" y="65" width="1" height="5"/><rect x="40" y="60" width="1" height="5"/><rect x="41" y="65" width="1" height="5"/><rect x="44" y="60" width="1" height="5"/><rect x="45" y="65" width="1" height="5"/><rect x="46" y="60" width="1" height="5"/><rect x="47" y="65" width="1" height="5"/><rect x="42" y="60" width="1" height="5"/><rect x="43" y="65" width="1" height="5"/><rect x="48" y="60" width="1" height="5"/><rect x="49" y="65" width="1" height="5"/><rect x="50" y="60" width="1" height="5"/><rect x="51" y="65" width="1" height="5"/><rect x="54" y="60" width="1" height="5"/><rect x="55" y="65" width="1" height="5"/><rect x="56" y="60" width="1" height="5"/><rect x="57" y="65" width="1" height="5"/><rect x="52" y="60" width="1" height="5"/><rect x="53" y="65" width="1" height="5"/><rect x="58" y="60" width="1" height="5"/><rect x="59" y="65" width="1" height="5"/><rect x="60" y="60" width="1" height="5"/><rect x="61" y="65" width="1" height="5"/><rect x="64" y="60" width="1" height="5"/><rect x="65" y="65" width="1" height="5"/><rect x="66" y="60" width="1" height="5"/><rect x="67" y="65" width="1" height="5"/><rect x="62" y="60" width="1" height="5"/><rect x="63" y="65" width="1" height="5"/><rect x="68" y="60" width="1" height="5"/><rect x="69" y="65" width="1" height="5"/><rect x="70" y="60" width="1" height="5"/><rect x="71" y="65" width="1" height="5"/><rect x="74" y="60" width="1" height="5"/><rect x="75" y="65" width="1" height="5"/><rect x="76" y="60" width="1" height="5"/><rect x="77" y="65" width="1" height="5"/><rect x="72" y="60" width="1" height="5"/><rect x="73" y="65" width="1" height="5"/><rect x="78" y="60" width="1" height="5"/><rect x="79" y="65" width="1" height="5"/><rect x="80" y="60" width="1" height="5"/><rect x="81" y="65" width="1" height="5"/><rect x="84" y="60" width="1" height="5"/><rect x="85" y="65" width="1" height="5"/><rect x="86" y="60" width="1" height="5"/><rect x="87" y="65" width="1" height="5"/><rect x="82" y="60" width="1" height="5"/><rect x="83" y="65" width="1" height="5"/><rect x="88" y="60" width="1" height="5"/><rect x="89" y="65" width="1" height="5"/><rect x="90" y="60" width="1" height="5"/><rect x="91" y="65" width="1" height="5"/><rect x="94" y="60" width="1" height="5"/><rect x="95" y="65" width="1" height="5"/><rect x="96" y="60" width="1" height="5"/><rect x="97" y="65" width="1" height="5"/><rect x="92" y="60" width="1" height="5"/><rect x="93" y="65" width="1" height="5"/><rect x="98" y="60" width="1" height="5"/><rect x="99" y="65" width="1" height="5"/><rect y="70" width="1" height="5"/><rect x="1" y="75" width="1" height="5"/><rect x="4" y="70" width="1" height="5"/><rect x="5" y="75" width="1" height="5"/><rect x="6" y="70" width="1" height="5"/><rect x="7" y="75" width="1" height="5"/><rect x="2" y="70" width="1" height="5"/><rect x="3" y="75" width="1" height="5"/><rect x="8" y="70" width="1" height="5"/><rect x="9" y="75" width="1" height="5"/><rect x="10" y="70" width="1" height="5"/><rect x="11" y="75" width="1" height="5"/><rect x="14" y="70" width="1" height="5"/><rect x="15" y="75" width="1" height="5"/><rect x="16" y="70" width="1" height="5"/><rect x="17" y="75" width="1" height="5"/><rect x="12" y="70" width="1" height="5"/><rect x="13" y="75" width="1" height="5"/><rect x="18" y="70" width="1" height="5"/><rect x="19" y="75" width="1" height="5"/><rect x="20" y="70" width="1" height="5"/><rect x="21" y="75" width="1" height="5"/><rect x="24" y="70" width="1" height="5"/><rect x="25" y="75" width="1" height="5"/><rect x="26" y="70" width="1" height="5"/><rect x="27" y="75" width="1" height="5"/><rect x="22" y="70" width="1" height="5"/><rect x="23" y="75" width="1" height="5"/><rect x="28" y="70" width="1" height="5"/><rect x="29" y="75" width="1" height="5"/><rect x="30" y="70" width="1" height="5"/><rect x="31" y="75" width="1" height="5"/><rect x="34" y="70" width="1" height="5"/><rect x="35" y="75" width="1" height="5"/><rect x="36" y="70" width="1" height="5"/><rect x="37" y="75" width="1" height="5"/><rect x="32" y="70" width="1" height="5"/><rect x="33" y="75" width="1" height="5"/><rect x="38" y="70" width="1" height="5"/><rect x="39" y="75" width="1" height="5"/><rect x="40" y="70" width="1" height="5"/><rect x="41" y="75" width="1" height="5"/><rect x="44" y="70" width="1" height="5"/><rect x="45" y="75" width="1" height="5"/><rect x="46" y="70" width="1" height="5"/><rect x="47" y="75" width="1" height="5"/><rect x="42" y="70" width="1" height="5"/><rect x="43" y="75" width="1" height="5"/><rect x="48" y="70" width="1" height="5"/><rect x="49" y="75" width="1" height="5"/><rect x="50" y="70" width="1" height="5"/><rect x="51" y="75" width="1" height="5"/><rect x="54" y="70" width="1" height="5"/><rect x="55" y="75" width="1" height="5"/><rect x="56" y="70" width="1" height="5"/><rect x="57" y="75" width="1" height="5"/><rect x="52" y="70" width="1" height="5"/><rect x="53" y="75" width="1" height="5"/><rect x="58" y="70" width="1" height="5"/><rect x="59" y="75" width="1" height="5"/><rect x="60" y="70" width="1" height="5"/><rect x="61" y="75" width="1" height="5"/><rect x="64" y="70" width="1" height="5"/><rect x="65" y="75" width="1" height="5"/><rect x="66" y="70" width="1" height="5"/><rect x="67" y="75" width="1" height="5"/><rect x="62" y="70" width="1" height="5"/><rect x="63" y="75" width="1" height="5"/><rect x="68" y="70" width="1" height="5"/><rect x="69" y="75" width="1" height="5"/><rect x="70" y="70" width="1" height="5"/><rect x="71" y="75" width="1" height="5"/><rect x="74" y="70" width="1" height="5"/><rect x="75" y="75" width="1" height="5"/><rect x="76" y="70" width="1" height="5"/><rect x="77" y="75" width="1" height="5"/><rect x="72" y="70" width="1" height="5"/><rect x="73" y="75" width="1" height="5"/><rect x="78" y="70" width="1" height="5"/><rect x="79" y="75" width="1" height="5"/><rect x="80" y="70" width="1" height="5"/><rect x="81" y="75" width="1" height="5"/><rect x="84" y="70" width="1" height="5"/><rect x="85" y="75" width="1" height="5"/><rect x="86" y="70" width="1" height="5"/><rect x="87" y="75" width="1" height="5"/><rect x="82" y="70" width="1" height="5"/><rect x="83" y="75" width="1" height="5"/><rect x="88" y="70" width="1" height="5"/><rect x="89" y="75" width="1" height="5"/><rect x="90" y="70" width="1" height="5"/><rect x="91" y="75" width="1" height="5"/><rect x="94" y="70" width="1" height="5"/><rect x="95" y="75" width="1" height="5"/><rect x="96" y="70" width="1" height="5"/><rect x="97" y="75" width="1" height="5"/><rect x="92" y="70" width="1" height="5"/><rect x="93" y="75" width="1" height="5"/><rect x="98" y="70" width="1" height="5"/><rect x="99" y="75" width="1" height="5"/><rect y="80" width="1" height="5"/><rect x="1" y="85" width="1" height="5"/><rect x="4" y="80" width="1" height="5"/><rect x="5" y="85" width="1" height="5"/><rect x="6" y="80" width="1" height="5"/><rect x="7" y="85" width="1" height="5"/><rect x="2" y="80" width="1" height="5"/><rect x="3" y="85" width="1" height="5"/><rect x="8" y="80" width="1" height="5"/><rect x="9" y="85" width="1" height="5"/><rect x="10" y="80" width="1" height="5"/><rect x="11" y="85" width="1" height="5"/><rect x="14" y="80" width="1" height="5"/><rect x="15" y="85" width="1" height="5"/><rect x="16" y="80" width="1" height="5"/><rect x="17" y="85" width="1" height="5"/><rect x="12" y="80" width="1" height="5"/><rect x="13" y="85" width="1" height="5"/><rect x="18" y="80" width="1" height="5"/><rect x="19" y="85" width="1" height="5"/><rect x="20" y="80" width="1" height="5"/><rect x="21" y="85" width="1" height="5"/><rect x="24" y="80" width="1" height="5"/><rect x="25" y="85" width="1" height="5"/><rect x="26" y="80" width="1" height="5"/><rect x="27" y="85" width="1" height="5"/><rect x="22" y="80" width="1" height="5"/><rect x="23" y="85" width="1" height="5"/><rect x="28" y="80" width="1" height="5"/><rect x="29" y="85" width="1" height="5"/><rect x="30" y="80" width="1" height="5"/><rect x="31" y="85" width="1" height="5"/><rect x="34" y="80" width="1" height="5"/><rect x="35" y="85" width="1" height="5"/><rect x="36" y="80" width="1" height="5"/><rect x="37" y="85" width="1" height="5"/><rect x="32" y="80" width="1" height="5"/><rect x="33" y="85" width="1" height="5"/><rect x="38" y="80" width="1" height="5"/><rect x="39" y="85" width="1" height="5"/><rect x="40" y="80" width="1" height="5"/><rect x="41" y="85" width="1" height="5"/><rect x="44" y="80" width="1" height="5"/><rect x="45" y="85" width="1" height="5"/><rect x="46" y="80" width="1" height="5"/><rect x="47" y="85" width="1" height="5"/><rect x="42" y="80" width="1" height="5"/><rect x="43" y="85" width="1" height="5"/><rect x="48" y="80" width="1" height="5"/><rect x="49" y="85" width="1" height="5"/><rect x="50" y="80" width="1" height="5"/><rect x="51" y="85" width="1" height="5"/><rect x="54" y="80" width="1" height="5"/><rect x="55" y="85" width="1" height="5"/><rect x="56" y="80" width="1" height="5"/><rect x="57" y="85" width="1" height="5"/><rect x="52" y="80" width="1" height="5"/><rect x="53" y="85" width="1" height="5"/><rect x="58" y="80" width="1" height="5"/><rect x="59" y="85" width="1" height="5"/><rect x="60" y="80" width="1" height="5"/><rect x="61" y="85" width="1" height="5"/><rect x="64" y="80" width="1" height="5"/><rect x="65" y="85" width="1" height="5"/><rect x="66" y="80" width="1" height="5"/><rect x="67" y="85" width="1" height="5"/><rect x="62" y="80" width="1" height="5"/><rect x="63" y="85" width="1" height="5"/><rect x="68" y="80" width="1" height="5"/><rect x="69" y="85" width="1" height="5"/><rect x="70" y="80" width="1" height="5"/><rect x="71" y="85" width="1" height="5"/><rect x="74" y="80" width="1" height="5"/><rect x="75" y="85" width="1" height="5"/><rect x="76" y="80" width="1" height="5"/><rect x="77" y="85" width="1" height="5"/><rect x="72" y="80" width="1" height="5"/><rect x="73" y="85" width="1" height="5"/><rect x="78" y="80" width="1" height="5"/><rect x="79" y="85" width="1" height="5"/><rect x="80" y="80" width="1" height="5"/><rect x="81" y="85" width="1" height="5"/><rect x="84" y="80" width="1" height="5"/><rect x="85" y="85" width="1" height="5"/><rect x="86" y="80" width="1" height="5"/><rect x="87" y="85" width="1" height="5"/><rect x="82" y="80" width="1" height="5"/><rect x="83" y="85" width="1" height="5"/><rect x="88" y="80" width="1" height="5"/><rect x="89" y="85" width="1" height="5"/><rect x="90" y="80" width="1" height="5"/><rect x="91" y="85" width="1" height="5"/><rect x="94" y="80" width="1" height="5"/><rect x="95" y="85" width="1" height="5"/><rect x="96" y="80" width="1" height="5"/><rect x="97" y="85" width="1" height="5"/><rect x="92" y="80" width="1" height="5"/><rect x="93" y="85" width="1" height="5"/><rect x="98" y="80" width="1" height="5"/><rect x="99" y="85" width="1" height="5"/><rect y="90" width="1" height="5"/><rect x="1" y="95" width="1" height="5"/><rect x="4" y="90" width="1" height="5"/><rect x="5" y="95" width="1" height="5"/><rect x="6" y="90" width="1" height="5"/><rect x="7" y="95" width="1" height="5"/><rect x="2" y="90" width="1" height="5"/><rect x="3" y="95" width="1" height="5"/><rect x="8" y="90" width="1" height="5"/><rect x="9" y="95" width="1" height="5"/><rect x="10" y="90" width="1" height="5"/><rect x="11" y="95" width="1" height="5"/><rect x="14" y="90" width="1" height="5"/><rect x="15" y="95" width="1" height="5"/><rect x="16" y="90" width="1" height="5"/><rect x="17" y="95" width="1" height="5"/><rect x="12" y="90" width="1" height="5"/><rect x="13" y="95" width="1" height="5"/><rect x="18" y="90" width="1" height="5"/><rect x="19" y="95" width="1" height="5"/><rect x="20" y="90" width="1" height="5"/><rect x="21" y="95" width="1" height="5"/><rect x="24" y="90" width="1" height="5"/><rect x="25" y="95" width="1" height="5"/><rect x="26" y="90" width="1" height="5"/><rect x="27" y="95" width="1" height="5"/><rect x="22" y="90" width="1" height="5"/><rect x="23" y="95" width="1" height="5"/><rect x="28" y="90" width="1" height="5"/><rect x="29" y="95" width="1" height="5"/><rect x="30" y="90" width="1" height="5"/><rect x="31" y="95" width="1" height="5"/><rect x="34" y="90" width="1" height="5"/><rect x="35" y="95" width="1" height="5"/><rect x="36" y="90" width="1" height="5"/><rect x="37" y="95" width="1" height="5"/><rect x="32" y="90" width="1" height="5"/><rect x="33" y="95" width="1" height="5"/><rect x="38" y="90" width="1" height="5"/><rect x="39" y="95" width="1" height="5"/><rect x="40" y="90" width="1" height="5"/><rect x="41" y="95" width="1" height="5"/><rect x="44" y="90" width="1" height="5"/><rect x="45" y="95" width="1" height="5"/><rect x="46" y="90" width="1" height="5"/><rect x="47" y="95" width="1" height="5"/><rect x="42" y="90" width="1" height="5"/><rect x="43" y="95" width="1" height="5"/><rect x="48" y="90" width="1" height="5"/><rect x="49" y="95" width="1" height="5"/><rect x="50" y="90" width="1" height="5"/><rect x="51" y="95" width="1" height="5"/><rect x="54" y="90" width="1" height="5"/><rect x="55" y="95" width="1" height="5"/><rect x="56" y="90" width="1" height="5"/><rect x="57" y="95" width="1" height="5"/><rect x="52" y="90" width="1" height="5"/><rect x="53" y="95" width="1" height="5"/><rect x="58" y="90" width="1" height="5"/><rect x="59" y="95" width="1" height="5"/><rect x="60" y="90" width="1" height="5"/><rect x="61" y="95" width="1" height="5"/><rect x="64" y="90" width="1" height="5"/><rect x="65" y="95" width="1" height="5"/><rect x="66" y="90" width="1" height="5"/><rect x="67" y="95" width="1" height="5"/><rect x="62" y="90" width="1" height="5"/><rect x="63" y="95" width="1" height="5"/><rect x="68" y="90" width="1" height="5"/><rect x="69" y="95" width="1" height="5"/><rect x="70" y="90" width="1" height="5"/><rect x="71" y="95" width="1" height="5"/><rect x="74" y="90" width="1" height="5"/><rect x="75" y="95" width="1" height="5"/><rect x="76" y="90" width="1" height="5"/><rect x="77" y="95" width="1" height="5"/><rect x="72" y="90" width="1" height="5"/><rect x="73" y="95" width="1" height="5"/><rect x="78" y="90" width="1" height="5"/><rect x="79" y="95" width="1" height="5"/><rect x="80" y="90" width="1" height="5"/><rect x="81" y="95" width="1" height="5"/><rect x="84" y="90" width="1" height="5"/><rect x="85" y="95" width="1" height="5"/><rect x="86" y="90" width="1" height="5"/><rect x="87" y="95" width="1" height="5"/><rect x="82" y="90" width="1" height="5"/><rect x="83" y="95" width="1" height="5"/><rect x="88" y="90" width="1" height="5"/><rect x="89" y="95" width="1" height="5"/><rect x="90" y="90" width="1" height="5"/><rect x="91" y="95" width="1" height="5"/><rect x="94" y="90" width="1" height="5"/><rect x="95" y="95" width="1" height="5"/><rect x="96" y="90" width="1" height="5"/><rect x="97" y="95" width="1" height="5"/><rect x="92" y="90" width="1" height="5"/><rect x="93" y="95" width="1" height="5"/><rect x="98" y="90" width="1" height="5"/><rect x="99" y="95" width="1" height="5"/></svg>