<svg id="Layer_1" data-name="Layer 1" xmlns="http://www.w3.org/2000/svg" viewBox="0 0 100 100"><title>pattern</title><rect width="5" height="5"/><rect x="5" y="5" width="5" height="5"/><rect x="10" width="5" height="5"/><rect x="15" y="5" width="5" height="5"/><rect x="20" width="5" height="5"/><rect x="25" y="5" width="5" height="5"/><rect x="30" width="5" height="5"/><rect x="35" y="5" width="5" height="5"/><rect x="40" width="5" height="5"/><rect x="45" y="5" width="5" height="5"/><rect x="50" width="5" height="5"/><rect x="55" y="5" width="5" height="5"/><rect x="60" width="5" height="5"/><rect x="65" y="5" width="5" height="5"/><rect x="70" width="5" height="5"/><rect x="75" y="5" width="5" height="5"/><rect x="80" width="5" height="5"/><rect x="85" y="5" width="5" height="5"/><rect x="90" width="5" height="5"/><rect x="95" y="5" width="5" height="5"/><rect y="10" width="5" height="5"/><rect x="5" y="15" width="5" height="5"/><rect x="10" y="10" width="5" height="5"/><rect x="15" y="15" width="5" height="5"/><rect x="20" y="10" width="5" height="5"/><rect x="25" y="15" width="5" height="5"/><rect x="30" y="10" width="5" height="5"/><rect x="35" y="15" width="5" height="5"/><rect x="40" y="10" width="5" height="5"/><rect x="45" y="15" width="5" height="5"/><rect x="50" y="10" width="5" height="5"/><rect x="55" y="15" width="5" height="5"/><rect x="60" y="10" width="5" height="5"/><rect x="65" y="15" width="5" height="5"/><rect x="70" y="10" width="5" height="5"/><rect x="75" y="15" width="5" height="5"/><rect x="80" y="10" width="5" height="5"/><rect x="85" y="15" width="5" height="5"/><rect x="90" y="10" width="5" height="5"/><rect x="95" y="15" width="5" height="5"/><rect y="20" width="5" height="5"/><rect x="5" y="25" width="5" height="5"/><rect x="10" y="20" width="5" height="5"/><rect x="15" y="25" width="5" height="5"/><rect x="20" y="20" width="5" height="5"/><rect x="25" y="25" width="5" height="5"/><rect x="30" y="20" width="5" height="5"/><rect x="35" y="25" width="5" height="5"/><rect x="40" y="20" width="5" height="5"/><rect x="45" y="25" width="5" height="5"/><rect x="50" y="20" width="5" height="5"/><rect x="55" y="25" width="5" height="5"/><rect x="60" y="20" width="5" height="5"/><rect x="65" y="25" width="5" height="5"/><rect x="70" y="20" width="5" height="5"/><rect x="75" y="25" width="5" height="5"/><rect x="80" y="20" width="5" height="5"/><rect x="85" y="25" width="5" height="5"/><rect x="90" y="20" width="5" height="5"/><rect x="95" y="25" width="5" height="5"/><rect y="30" width="5" height="5"/><rect x="5" y="35" width="5" height="5"/><rect x="10" y="30" width="5" height="5"/><rect x="15" y="35" width="5" height="5"/><rect x="20" y="30" width="5" height="5"/><rect x="25" y="35" width="5" height="5"/><rect x="30" y="30" width="5" height="5"/><rect x="35" y="35" width="5" height="5"/><rect x="40" y="30" width="5" height="5"/><rect x="45" y="35" width="5" height="5"/><rect x="50" y="30" width="5" height="5"/><rect x="55" y="35" width="5" height="5"/><rect x="60" y="30" width="5" height="5"/><rect x="65" y="35" width="5" height="5"/><rect x="70" y="30" width="5" height="5"/><rect x="75" y="35" width="5" height="5"/><rect x="80" y="30" width="5" height="5"/><rect x="85" y="35" width="5" height="5"/><rect x="90" y="30" width="5" height="5"/><rect x="95" y="35" width="5" height="5"/><rect y="40" width="5" height="5"/><rect x="5" y="45" width="5" height="5"/><rect x="10" y="40" width="5" height="5"/><rect x="15" y="45" width="5" height="5"/><rect x="20" y="40" width="5" height="5"/><rect x="25" y="45" width="5" height="5"/><rect x="30" y="40" width="5" height="5"/><rect x="35" y="45" width="5" height="5"/><rect x="40" y="40" width="5" height="5"/><rect x="45" y="45" width="5" height="5"/><rect x="50" y="40" width="5" height="5"/><rect x="55" y="45" width="5" height="5"/><rect x="60" y="40" width="5" height="5"/><rect x="65" y="45" width="5" height="5"/><rect x="70" y="40" width="5" height="5"/><rect x="75" y="45" width="5" height="5"/><rect x="80" y="40" width="5" height="5"/><rect x="85" y="45" width="5" height="5"/><rect x="90" y="40" width="5" height="5"/><rect x="95" y="45" width="5" height="5"/><rect y="50" width="5" height="5"/><rect x="5" y="55" width="5" height="5"/><rect x="10" y="50" width="5" height="5"/><rect x="15" y="55" width="5" height="5"/><rect x="20" y="50" width="5" height="5"/><rect x="25" y="55" width="5" height="5"/><rect x="30" y="50" width="5" height="5"/><rect x="35" y="55" width="5" height="5"/><rect x="40" y="50" width="5" height="5"/><rect x="45" y="55" width="5" height="5"/><rect x="50" y="50" width="5" height="5"/><rect x="55" y="55" width="5" height="5"/><rect x="60" y="50" width="5" height="5"/><rect x="65" y="55" width="5" height="5"/><rect x="70" y="50" width="5" height="5"/><rect x="75" y="55" width="5" height="5"/><rect x="80" y="50" width="5" height="5"/><rect x="85" y="55" width="5" height="5"/><rect x="90" y="50" width="5" height="5"/><rect x="95" y="55" width="5" height="5"/><rect y="60" width="5" height="5"/><rect x="5" y="65" width="5" height="5"/><rect x="10" y="60" width="5" height="5"/><rect x="15" y="65" width="5" height="5"/><rect x="20" y="60" width="5" height="5"/><rect x="25" y="65" width="5" height="5"/><rect x="30" y="60" width="5" height="5"/><rect x="35" y="65" width="5" height="5"/><rect x="40" y="60" width="5" height="5"/><rect x="45" y="65" width="5" height="5"/><rect x="50" y="60" width="5" height="5"/><rect x="55" y="65" width="5" height="5"/><rect x="60" y="60" width="5" height="5"/><rect x="65" y="65" width="5" height="5"/><rect x="70" y="60" width="5" height="5"/><rect x="75" y="65" width="5" height="5"/><rect x="80" y="60" width="5" height="5"/><rect x="85" y="65" width="5" height="5"/><rect x="90" y="60" width="5" height="5"/><rect x="95" y="65" width="5" height="5"/><rect y="70" width="5" height="5"/><rect x="5" y="75" width="5" height="5"/><rect x="10" y="70" width="5" height="5"/><rect x="15" y="75" width="5" height="5"/><rect x="20" y="70" width="5" height="5"/><rect x="25" y="75" width="5" height="5"/><rect x="30" y="70" width="5" height="5"/><rect x="35" y="75" width="5" height="5"/><rect x="40" y="70" width="5" height="5"/><rect x="45" y="75" width="5" height="5"/><rect x="50" y="70" width="5" height="5"/><rect x="55" y="75" width="5" height="5"/><rect x="60" y="70" width="5" height="5"/><rect x="65" y="75" width="5" height="5"/><rect x="70" y="70" width="5" height="5"/><rect x="75" y="75" width="5" height="5"/><rect x="80" y="70" width="5" height="5"/><rect x="85" y="75" width="5" height="5"/><rect x="90" y="70" width="5" height="5"/><rect x="95" y="75" width="5" height="5"/><rect y="80" width="5" height="5"/><rect x="5" y="85" width="5" height="5"/><rect x="10" y="80" width="5" height="5"/><rect x="15" y="85" width="5" height="5"/><rect x="20" y="80" width="5" height="5"/><rect x="25" y="85" width="5" height="5"/><rect x="30" y="80" width="5" height="5"/><rect x="35" y="85" width="5" height="5"/><rect x="40" y="80" width="5" height="5"/><rect x="45" y="85" width="5" height="5"/><rect x="50" y="80" width="5" height="5"/><rect x="55" y="85" width="5" height="5"/><rect x="60" y="80" width="5" height="5"/><rect x="65" y="85" width="5" height="5"/><rect x="70" y="80" width="5" height="5"/><rect x="75" y="85" width="5" height="5"/><rect x="80" y="80" width="5" height="5"/><rect x="85" y="85" width="5" height="5"/><rect x="90" y="80" width="5" height="5"/><rect x="95" y="85" width="5" height="5"/><rect y="90" width="5" height="5"/><rect x="5" y="95" width="5" height="5"/><rect x="10" y="90" width="5" height="5"/><rect x="15" y="95" width="5" height="5"/><rect x="20" y="90" width="5" height="5"/><rect x="25" y="95" width="5" height="5"/><rect x="30" y="90" width="5" height="5"/><rect x="35" y="95" width="5" height="5"/><rect x="40" y="90" width="5" height="5"/><rect x="45" y="95" width="5" height="5"/><rect x="50" y="90" width="5" height="5"/><rect x="55" y="95" width="5" height="5"/><rect x="60" y="90" width="5" height="5"/><rect x="65" y="95" width="5" height="5"/><rect x="70" y="90" width="5" height="5"/><rect x="75" y="95" width="5" height="5"/><rect x="80" y="90" width="5" height="5"/><rect x="85" y="95" width="5" height="5"/><rect x="90" y="90" width="5" height="5"/><rect x="95" y="95" width="5" height="5"/></svg>