<svg id="Layer_1" data-name="Layer 1" xmlns="http://www.w3.org/2000/svg" viewBox="0 0 100 100"><title>pattern</title><polygon points="6 5 6 4 7 4 7 3 8 3 8 2 9 2 9 1 10 1 10 0 5 0 5 4 4 4 4 3 3 3 3 2 2 2 2 1 1 1 1 0 0 0 0 5 4 5 4 6 3 6 3 7 2 7 2 8 1 8 1 9 0 9 0 10 5 10 5 6 6 6 6 7 7 7 7 8 8 8 8 9 9 9 9 10 10 10 10 5 6 5"/><polygon points="25 6 26 6 26 7 27 7 27 8 28 8 28 9 29 9 29 10 30 10 30 5 26 5 26 4 27 4 27 3 28 3 28 2 29 2 29 1 30 1 30 0 25 0 25 4 24 4 24 3 23 3 23 2 22 2 22 1 21 1 21 0 20 0 20 5 24 5 24 6 23 6 23 7 22 7 22 8 21 8 21 9 20 9 20 10 25 10 25 6"/><polygon points="45 6 46 6 46 7 47 7 47 8 48 8 48 9 49 9 49 10 50 10 50 5 46 5 46 4 47 4 47 3 48 3 48 2 49 2 49 1 50 1 50 0 45 0 45 4 44 4 44 3 43 3 43 2 42 2 42 1 41 1 41 0 40 0 40 5 44 5 44 6 43 6 43 7 42 7 42 8 41 8 41 9 40 9 40 10 45 10 45 6"/><polygon points="65 6 66 6 66 7 67 7 67 8 68 8 68 9 69 9 69 10 70 10 70 5 66 5 66 4 67 4 67 3 68 3 68 2 69 2 69 1 70 1 70 0 65 0 65 4 64 4 64 3 63 3 63 2 62 2 62 1 61 1 61 0 60 0 60 5 64 5 64 6 63 6 63 7 62 7 62 8 61 8 61 9 60 9 60 10 65 10 65 6"/><polygon points="85 6 86 6 86 7 87 7 87 8 88 8 88 9 89 9 89 10 90 10 90 5 86 5 86 4 87 4 87 3 88 3 88 2 89 2 89 1 90 1 90 0 85 0 85 4 84 4 84 3 83 3 83 2 82 2 82 1 81 1 81 0 80 0 80 5 84 5 84 6 83 6 83 7 82 7 82 8 81 8 81 9 80 9 80 10 85 10 85 6"/><polygon points="15 16 16 16 16 17 17 17 17 18 18 18 18 19 19 19 19 20 20 20 20 15 16 15 16 14 17 14 17 13 18 13 18 12 19 12 19 11 20 11 20 10 15 10 15 14 14 14 14 13 13 13 13 12 12 12 12 11 11 11 11 10 10 10 10 15 14 15 14 16 13 16 13 17 12 17 12 18 11 18 11 19 10 19 10 20 15 20 15 16"/><polygon points="34 15 34 16 33 16 33 17 32 17 32 18 31 18 31 19 30 19 30 20 35 20 35 16 36 16 36 17 37 17 37 18 38 18 38 19 39 19 39 20 40 20 40 15 36 15 36 14 37 14 37 13 38 13 38 12 39 12 39 11 40 11 40 10 35 10 35 14 34 14 34 13 33 13 33 12 32 12 32 11 31 11 31 10 30 10 30 15 34 15"/><polygon points="54 15 54 16 53 16 53 17 52 17 52 18 51 18 51 19 50 19 50 20 55 20 55 16 56 16 56 17 57 17 57 18 58 18 58 19 59 19 59 20 60 20 60 15 56 15 56 14 57 14 57 13 58 13 58 12 59 12 59 11 60 11 60 10 55 10 55 14 54 14 54 13 53 13 53 12 52 12 52 11 51 11 51 10 50 10 50 15 54 15"/><polygon points="74 15 74 16 73 16 73 17 72 17 72 18 71 18 71 19 70 19 70 20 75 20 75 16 76 16 76 17 77 17 77 18 78 18 78 19 79 19 79 20 80 20 80 15 76 15 76 14 77 14 77 13 78 13 78 12 79 12 79 11 80 11 80 10 75 10 75 14 74 14 74 13 73 13 73 12 72 12 72 11 71 11 71 10 70 10 70 15 74 15"/><polygon points="97 14 97 13 98 13 98 12 99 12 99 11 100 11 100 10 95 10 95 14 94 14 94 13 93 13 93 12 92 12 92 11 91 11 91 10 90 10 90 15 94 15 94 16 93 16 93 17 92 17 92 18 91 18 91 19 90 19 90 20 95 20 95 16 96 16 96 17 97 17 97 18 98 18 98 19 99 19 99 20 100 20 100 15 96 15 96 14 97 14"/><polygon points="6 25 6 24 7 24 7 23 8 23 8 22 9 22 9 21 10 21 10 20 5 20 5 24 4 24 4 23 3 23 3 22 2 22 2 21 1 21 1 20 0 20 0 25 4 25 4 26 3 26 3 27 2 27 2 28 1 28 1 29 0 29 0 30 5 30 5 26 6 26 6 27 7 27 7 28 8 28 8 29 9 29 9 30 10 30 10 25 6 25"/><polygon points="25 26 26 26 26 27 27 27 27 28 28 28 28 29 29 29 29 30 30 30 30 25 26 25 26 24 27 24 27 23 28 23 28 22 29 22 29 21 30 21 30 20 25 20 25 24 24 24 24 23 23 23 23 22 22 22 22 21 21 21 21 20 20 20 20 25 24 25 24 26 23 26 23 27 22 27 22 28 21 28 21 29 20 29 20 30 25 30 25 26"/><polygon points="44 25 44 26 43 26 43 27 42 27 42 28 41 28 41 29 40 29 40 30 45 30 45 26 46 26 46 27 47 27 47 28 48 28 48 29 49 29 49 30 50 30 50 25 46 25 46 24 47 24 47 23 48 23 48 22 49 22 49 21 50 21 50 20 45 20 45 24 44 24 44 23 43 23 43 22 42 22 42 21 41 21 41 20 40 20 40 25 44 25"/><polygon points="64 25 64 26 63 26 63 27 62 27 62 28 61 28 61 29 60 29 60 30 65 30 65 26 66 26 66 27 67 27 67 28 68 28 68 29 69 29 69 30 70 30 70 25 66 25 66 24 67 24 67 23 68 23 68 22 69 22 69 21 70 21 70 20 65 20 65 24 64 24 64 23 63 23 63 22 62 22 62 21 61 21 61 20 60 20 60 25 64 25"/><polygon points="85 24 84 24 84 23 83 23 83 22 82 22 82 21 81 21 81 20 80 20 80 25 84 25 84 26 83 26 83 27 82 27 82 28 81 28 81 29 80 29 80 30 85 30 85 26 86 26 86 27 87 27 87 28 88 28 88 29 89 29 89 30 90 30 90 25 86 25 86 24 87 24 87 23 88 23 88 22 89 22 89 21 90 21 90 20 85 20 85 24"/><polygon points="15 36 16 36 16 37 17 37 17 38 18 38 18 39 19 39 19 40 20 40 20 35 16 35 16 34 17 34 17 33 18 33 18 32 19 32 19 31 20 31 20 30 15 30 15 34 14 34 14 33 13 33 13 32 12 32 12 31 11 31 11 30 10 30 10 35 14 35 14 36 13 36 13 37 12 37 12 38 11 38 11 39 10 39 10 40 15 40 15 36"/><polygon points="35 36 36 36 36 37 37 37 37 38 38 38 38 39 39 39 39 40 40 40 40 35 36 35 36 34 37 34 37 33 38 33 38 32 39 32 39 31 40 31 40 30 35 30 35 34 34 34 34 33 33 33 33 32 32 32 32 31 31 31 31 30 30 30 30 35 34 35 34 36 33 36 33 37 32 37 32 38 31 38 31 39 30 39 30 40 35 40 35 36"/><polygon points="54 35 54 36 53 36 53 37 52 37 52 38 51 38 51 39 50 39 50 40 55 40 55 36 56 36 56 37 57 37 57 38 58 38 58 39 59 39 59 40 60 40 60 35 56 35 56 34 57 34 57 33 58 33 58 32 59 32 59 31 60 31 60 30 55 30 55 34 54 34 54 33 53 33 53 32 52 32 52 31 51 31 51 30 50 30 50 35 54 35"/><polygon points="75 34 74 34 74 33 73 33 73 32 72 32 72 31 71 31 71 30 70 30 70 35 74 35 74 36 73 36 73 37 72 37 72 38 71 38 71 39 70 39 70 40 75 40 75 36 76 36 76 37 77 37 77 38 78 38 78 39 79 39 79 40 80 40 80 35 76 35 76 34 77 34 77 33 78 33 78 32 79 32 79 31 80 31 80 30 75 30 75 34"/><polygon points="94 35 94 36 93 36 93 37 92 37 92 38 91 38 91 39 90 39 90 40 95 40 95 36 96 36 96 37 97 37 97 38 98 38 98 39 99 39 99 40 100 40 100 35 96 35 96 34 97 34 97 33 98 33 98 32 99 32 99 31 100 31 100 30 95 30 95 34 94 34 94 33 93 33 93 32 92 32 92 31 91 31 91 30 90 30 90 35 94 35"/><polygon points="6 45 6 44 7 44 7 43 8 43 8 42 9 42 9 41 10 41 10 40 5 40 5 44 4 44 4 43 3 43 3 42 2 42 2 41 1 41 1 40 0 40 0 45 4 45 4 46 3 46 3 47 2 47 2 48 1 48 1 49 0 49 0 50 5 50 5 46 6 46 6 47 7 47 7 48 8 48 8 49 9 49 9 50 10 50 10 45 6 45"/><polygon points="25 46 26 46 26 47 27 47 27 48 28 48 28 49 29 49 29 50 30 50 30 45 26 45 26 44 27 44 27 43 28 43 28 42 29 42 29 41 30 41 30 40 25 40 25 44 24 44 24 43 23 43 23 42 22 42 22 41 21 41 21 40 20 40 20 45 24 45 24 46 23 46 23 47 22 47 22 48 21 48 21 49 20 49 20 50 25 50 25 46"/><polygon points="45 46 46 46 46 47 47 47 47 48 48 48 48 49 49 49 49 50 50 50 50 45 46 45 46 44 47 44 47 43 48 43 48 42 49 42 49 41 50 41 50 40 45 40 45 44 44 44 44 43 43 43 43 42 42 42 42 41 41 41 41 40 40 40 40 45 44 45 44 46 43 46 43 47 42 47 42 48 41 48 41 49 40 49 40 50 45 50 45 46"/><polygon points="65 44 64 44 64 43 63 43 63 42 62 42 62 41 61 41 61 40 60 40 60 45 64 45 64 46 63 46 63 47 62 47 62 48 61 48 61 49 60 49 60 50 65 50 65 46 66 46 66 47 67 47 67 48 68 48 68 49 69 49 69 50 70 50 70 45 66 45 66 44 67 44 67 43 68 43 68 42 69 42 69 41 70 41 70 40 65 40 65 44"/><polygon points="85 44 84 44 84 43 83 43 83 42 82 42 82 41 81 41 81 40 80 40 80 45 84 45 84 46 83 46 83 47 82 47 82 48 81 48 81 49 80 49 80 50 85 50 85 46 86 46 86 47 87 47 87 48 88 48 88 49 89 49 89 50 90 50 90 45 86 45 86 44 87 44 87 43 88 43 88 42 89 42 89 41 90 41 90 40 85 40 85 44"/><polygon points="15 56 16 56 16 57 17 57 17 58 18 58 18 59 19 59 19 60 20 60 20 55 16 55 16 54 17 54 17 53 18 53 18 52 19 52 19 51 20 51 20 50 15 50 15 54 14 54 14 53 13 53 13 52 12 52 12 51 11 51 11 50 10 50 10 55 14 55 14 56 13 56 13 57 12 57 12 58 11 58 11 59 10 59 10 60 15 60 15 56"/><polygon points="35 56 36 56 36 57 37 57 37 58 38 58 38 59 39 59 39 60 40 60 40 55 36 55 36 54 37 54 37 53 38 53 38 52 39 52 39 51 40 51 40 50 35 50 35 54 34 54 34 53 33 53 33 52 32 52 32 51 31 51 31 50 30 50 30 55 34 55 34 56 33 56 33 57 32 57 32 58 31 58 31 59 30 59 30 60 35 60 35 56"/><polygon points="55 54 54 54 54 53 53 53 53 52 52 52 52 51 51 51 51 50 50 50 50 55 54 55 54 56 53 56 53 57 52 57 52 58 51 58 51 59 50 59 50 60 55 60 55 56 56 56 56 57 57 57 57 58 58 58 58 59 59 59 59 60 60 60 60 55 56 55 56 54 57 54 57 53 58 53 58 52 59 52 59 51 60 51 60 50 55 50 55 54"/><polygon points="75 54 74 54 74 53 73 53 73 52 72 52 72 51 71 51 71 50 70 50 70 55 74 55 74 56 73 56 73 57 72 57 72 58 71 58 71 59 70 59 70 60 75 60 75 56 76 56 76 57 77 57 77 58 78 58 78 59 79 59 79 60 80 60 80 55 76 55 76 54 77 54 77 53 78 53 78 52 79 52 79 51 80 51 80 50 75 50 75 54"/><polygon points="94 55 94 56 93 56 93 57 92 57 92 58 91 58 91 59 90 59 90 60 95 60 95 56 96 56 96 57 97 57 97 58 98 58 98 59 99 59 99 60 100 60 100 55 96 55 96 54 97 54 97 53 98 53 98 52 99 52 99 51 100 51 100 50 95 50 95 54 94 54 94 53 93 53 93 52 92 52 92 51 91 51 91 50 90 50 90 55 94 55"/><polygon points="6 65 6 64 7 64 7 63 8 63 8 62 9 62 9 61 10 61 10 60 5 60 5 64 4 64 4 63 3 63 3 62 2 62 2 61 1 61 1 60 0 60 0 65 4 65 4 66 3 66 3 67 2 67 2 68 1 68 1 69 0 69 0 70 5 70 5 66 6 66 6 67 7 67 7 68 8 68 8 69 9 69 9 70 10 70 10 65 6 65"/><polygon points="25 66 26 66 26 67 27 67 27 68 28 68 28 69 29 69 29 70 30 70 30 65 26 65 26 64 27 64 27 63 28 63 28 62 29 62 29 61 30 61 30 60 25 60 25 64 24 64 24 63 23 63 23 62 22 62 22 61 21 61 21 60 20 60 20 65 24 65 24 66 23 66 23 67 22 67 22 68 21 68 21 69 20 69 20 70 25 70 25 66"/><polygon points="46 65 46 64 47 64 47 63 48 63 48 62 49 62 49 61 50 61 50 60 45 60 45 64 44 64 44 63 43 63 43 62 42 62 42 61 41 61 41 60 40 60 40 65 44 65 44 66 43 66 43 67 42 67 42 68 41 68 41 69 40 69 40 70 45 70 45 66 46 66 46 67 47 67 47 68 48 68 48 69 49 69 49 70 50 70 50 65 46 65"/><polygon points="65 64 64 64 64 63 63 63 63 62 62 62 62 61 61 61 61 60 60 60 60 65 64 65 64 66 63 66 63 67 62 67 62 68 61 68 61 69 60 69 60 70 65 70 65 66 66 66 66 67 67 67 67 68 68 68 68 69 69 69 69 70 70 70 70 65 66 65 66 64 67 64 67 63 68 63 68 62 69 62 69 61 70 61 70 60 65 60 65 64"/><polygon points="85 64 84 64 84 63 83 63 83 62 82 62 82 61 81 61 81 60 80 60 80 65 84 65 84 66 83 66 83 67 82 67 82 68 81 68 81 69 80 69 80 70 85 70 85 66 86 66 86 67 87 67 87 68 88 68 88 69 89 69 89 70 90 70 90 65 86 65 86 64 87 64 87 63 88 63 88 62 89 62 89 61 90 61 90 60 85 60 85 64"/><polygon points="15 76 16 76 16 77 17 77 17 78 18 78 18 79 19 79 19 80 20 80 20 75 16 75 16 74 17 74 17 73 18 73 18 72 19 72 19 71 20 71 20 70 15 70 15 74 14 74 14 73 13 73 13 72 12 72 12 71 11 71 11 70 10 70 10 75 14 75 14 76 13 76 13 77 12 77 12 78 11 78 11 79 10 79 10 80 15 80 15 76"/><polygon points="36 75 36 74 37 74 37 73 38 73 38 72 39 72 39 71 40 71 40 70 35 70 35 74 34 74 34 73 33 73 33 72 32 72 32 71 31 71 31 70 30 70 30 75 34 75 34 76 33 76 33 77 32 77 32 78 31 78 31 79 30 79 30 80 35 80 35 76 36 76 36 77 37 77 37 78 38 78 38 79 39 79 39 80 40 80 40 75 36 75"/><polygon points="56 75 56 74 57 74 57 73 58 73 58 72 59 72 59 71 60 71 60 70 55 70 55 74 54 74 54 73 53 73 53 72 52 72 52 71 51 71 51 70 50 70 50 75 54 75 54 76 53 76 53 77 52 77 52 78 51 78 51 79 50 79 50 80 55 80 55 76 56 76 56 77 57 77 57 78 58 78 58 79 59 79 59 80 60 80 60 75 56 75"/><polygon points="75 74 74 74 74 73 73 73 73 72 72 72 72 71 71 71 71 70 70 70 70 75 74 75 74 76 73 76 73 77 72 77 72 78 71 78 71 79 70 79 70 80 75 80 75 76 76 76 76 77 77 77 77 78 78 78 78 79 79 79 79 80 80 80 80 75 76 75 76 74 77 74 77 73 78 73 78 72 79 72 79 71 80 71 80 70 75 70 75 74"/><polygon points="94 75 94 76 93 76 93 77 92 77 92 78 91 78 91 79 90 79 90 80 95 80 95 76 96 76 96 77 97 77 97 78 98 78 98 79 99 79 99 80 100 80 100 75 96 75 96 74 97 74 97 73 98 73 98 72 99 72 99 71 100 71 100 70 95 70 95 74 94 74 94 73 93 73 93 72 92 72 92 71 91 71 91 70 90 70 90 75 94 75"/><polygon points="6 85 6 84 7 84 7 83 8 83 8 82 9 82 9 81 10 81 10 80 5 80 5 84 4 84 4 83 3 83 3 82 2 82 2 81 1 81 1 80 0 80 0 85 4 85 4 86 3 86 3 87 2 87 2 88 1 88 1 89 0 89 0 90 5 90 5 86 6 86 6 87 7 87 7 88 8 88 8 89 9 89 9 90 10 90 10 85 6 85"/><polygon points="26 85 26 84 27 84 27 83 28 83 28 82 29 82 29 81 30 81 30 80 25 80 25 84 24 84 24 83 23 83 23 82 22 82 22 81 21 81 21 80 20 80 20 85 24 85 24 86 23 86 23 87 22 87 22 88 21 88 21 89 20 89 20 90 25 90 25 86 26 86 26 87 27 87 27 88 28 88 28 89 29 89 29 90 30 90 30 85 26 85"/><polygon points="46 85 46 84 47 84 47 83 48 83 48 82 49 82 49 81 50 81 50 80 45 80 45 84 44 84 44 83 43 83 43 82 42 82 42 81 41 81 41 80 40 80 40 85 44 85 44 86 43 86 43 87 42 87 42 88 41 88 41 89 40 89 40 90 45 90 45 86 46 86 46 87 47 87 47 88 48 88 48 89 49 89 49 90 50 90 50 85 46 85"/><polygon points="66 85 66 84 67 84 67 83 68 83 68 82 69 82 69 81 70 81 70 80 65 80 65 84 64 84 64 83 63 83 63 82 62 82 62 81 61 81 61 80 60 80 60 85 64 85 64 86 63 86 63 87 62 87 62 88 61 88 61 89 60 89 60 90 65 90 65 86 66 86 66 87 67 87 67 88 68 88 68 89 69 89 69 90 70 90 70 85 66 85"/><polygon points="85 84 84 84 84 83 83 83 83 82 82 82 82 81 81 81 81 80 80 80 80 85 84 85 84 86 83 86 83 87 82 87 82 88 81 88 81 89 80 89 80 90 85 90 85 86 86 86 86 87 87 87 87 88 88 88 88 89 89 89 89 90 90 90 90 85 86 85 86 84 87 84 87 83 88 83 88 82 89 82 89 81 90 81 90 80 85 80 85 84"/><polygon points="15 94 14 94 14 93 13 93 13 92 12 92 12 91 11 91 11 90 10 90 10 95 14 95 14 96 13 96 13 97 12 97 12 98 11 98 11 99 10 99 10 100 15 100 15 96 16 96 16 97 17 97 17 98 18 98 18 99 19 99 19 100 20 100 20 95 16 95 16 94 17 94 17 93 18 93 18 92 19 92 19 91 20 91 20 90 15 90 15 94"/><polygon points="35 94 34 94 34 93 33 93 33 92 32 92 32 91 31 91 31 90 30 90 30 95 34 95 34 96 33 96 33 97 32 97 32 98 31 98 31 99 30 99 30 100 35 100 35 96 36 96 36 97 37 97 37 98 38 98 38 99 39 99 39 100 40 100 40 95 36 95 36 94 37 94 37 93 38 93 38 92 39 92 39 91 40 91 40 90 35 90 35 94"/><polygon points="55 94 54 94 54 93 53 93 53 92 52 92 52 91 51 91 51 90 50 90 50 95 54 95 54 96 53 96 53 97 52 97 52 98 51 98 51 99 50 99 50 100 55 100 55 96 56 96 56 97 57 97 57 98 58 98 58 99 59 99 59 100 60 100 60 95 56 95 56 94 57 94 57 93 58 93 58 92 59 92 59 91 60 91 60 90 55 90 55 94"/><polygon points="75 94 74 94 74 93 73 93 73 92 72 92 72 91 71 91 71 90 70 90 70 95 74 95 74 96 73 96 73 97 72 97 72 98 71 98 71 99 70 99 70 100 75 100 75 96 76 96 76 97 77 97 77 98 78 98 78 99 79 99 79 100 80 100 80 95 76 95 76 94 77 94 77 93 78 93 78 92 79 92 79 91 80 91 80 90 75 90 75 94"/><polygon points="94 95 94 96 93 96 93 97 92 97 92 98 91 98 91 99 90 99 90 100 95 100 95 96 96 96 96 97 97 97 97 98 98 98 98 99 99 99 99 100 100 100 100 95 96 95 96 94 97 94 97 93 98 93 98 92 99 92 99 91 100 91 100 90 95 90 95 94 94 94 94 93 93 93 93 92 92 92 92 91 91 91 91 90 90 90 90 95 94 95"/><path d="M17,3H13V7h4ZM16,6H14V4h2Z"/><path d="M37,3H33V7h4ZM36,6H34V4h2Z"/><path d="M57,3H53V7h4ZM56,6H54V4h2Z"/><path d="M77,3H73V7h4ZM76,6H74V4h2Z"/><path d="M97,3H93V7h4ZM96,6H94V4h2Z"/><path d="M7,13H3v4H7ZM6,16H4V14H6Z"/><path d="M27,13H23v4h4Zm-1,3H24V14h2Z"/><path d="M47,13H43v4h4Zm-1,3H44V14h2Z"/><path d="M67,13H63v4h4Zm-1,3H64V14h2Z"/><path d="M83,17h4V13H83Zm1-3h2v2H84Z"/><path d="M17,23H13v4h4Zm-1,3H14V24h2Z"/><path d="M37,23H33v4h4Zm-1,3H34V24h2Z"/><path d="M57,23H53v4h4Zm-1,3H54V24h2Z"/><path d="M73,27h4V23H73Zm1-3h2v2H74Z"/><path d="M93,27h4V23H93Zm1-3h2v2H94Z"/><path d="M7,33H3v4H7ZM6,36H4V34H6Z"/><path d="M27,33H23v4h4Zm-1,3H24V34h2Z"/><path d="M47,33H43v4h4Zm-1,3H44V34h2Z"/><path d="M63,37h4V33H63Zm1-3h2v2H64Z"/><path d="M83,37h4V33H83Zm1-3h2v2H84Z"/><path d="M17,43H13v4h4Zm-1,3H14V44h2Z"/><path d="M37,43H33v4h4Zm-1,3H34V44h2Z"/><path d="M53,47h4V43H53Zm1-3h2v2H54Z"/><path d="M73,47h4V43H73Zm1-3h2v2H74Z"/><path d="M93,47h4V43H93Zm1-3h2v2H94Z"/><path d="M7,53H3v4H7ZM6,56H4V54H6Z"/><path d="M27,53H23v4h4Zm-1,3H24V54h2Z"/><path d="M43,57h4V53H43Zm1-3h2v2H44Z"/><path d="M63,57h4V53H63Zm1-3h2v2H64Z"/><path d="M83,57h4V53H83Zm1-3h2v2H84Z"/><path d="M17,63H13v4h4Zm-1,3H14V64h2Z"/><path d="M33,67h4V63H33Zm1-3h2v2H34Z"/><path d="M53,67h4V63H53Zm1-3h2v2H54Z"/><path d="M73,67h4V63H73Zm1-3h2v2H74Z"/><path d="M93,67h4V63H93Zm1-3h2v2H94Z"/><path d="M7,73H3v4H7ZM6,76H4V74H6Z"/><path d="M23,77h4V73H23Zm1-3h2v2H24Z"/><path d="M43,77h4V73H43Zm1-3h2v2H44Z"/><path d="M63,77h4V73H63Zm1-3h2v2H64Z"/><path d="M83,77h4V73H83Zm1-3h2v2H84Z"/><path d="M13,87h4V83H13Zm1-3h2v2H14Z"/><path d="M33,87h4V83H33Zm1-3h2v2H34Z"/><path d="M53,87h4V83H53Zm1-3h2v2H54Z"/><path d="M73,87h4V83H73Zm1-3h2v2H74Z"/><path d="M93,87h4V83H93Zm1-3h2v2H94Z"/><path d="M3,97H7V93H3Zm1-3H6v2H4Z"/><path d="M23,97h4V93H23Zm1-3h2v2H24Z"/><path d="M43,97h4V93H43Zm1-3h2v2H44Z"/><path d="M63,97h4V93H63Zm1-3h2v2H64Z"/><path d="M83,97h4V93H83Zm1-3h2v2H84Z"/></svg>