<svg id="Layer_1" data-name="Layer 1" xmlns="http://www.w3.org/2000/svg" viewBox="0 0 100 100"><title>pattern</title><polygon points="25 4 20 4 20 3 15 3 15 2 10 2 10 1 5 1 5 0 0 0 0 5 5 5 5 6 10 6 10 7 15 7 15 8 20 8 20 9 25 9 25 10 30 10 30 5 25 5 25 4"/><polygon points="55 4 50 4 50 3 45 3 45 2 40 2 40 1 35 1 35 0 30 0 30 5 35 5 35 6 40 6 40 7 45 7 45 8 50 8 50 9 55 9 55 10 60 10 60 5 55 5 55 4"/><polygon points="85 4 80 4 80 3 75 3 75 2 70 2 70 1 65 1 65 0 60 0 60 5 65 5 65 6 70 6 70 7 75 7 75 8 80 8 80 9 85 9 85 10 90 10 90 5 85 5 85 4"/><polygon points="95 1 95 0 90 0 90 5 95 5 95 6 100 6 100 1 95 1"/><polygon points="30 14 25 14 25 13 20 13 20 12 15 12 15 11 10 11 10 10 5 10 5 15 10 15 10 16 15 16 15 17 20 17 20 18 25 18 25 19 30 19 30 20 35 20 35 15 30 15 30 14"/><polygon points="60 14 55 14 55 13 50 13 50 12 45 12 45 11 40 11 40 10 35 10 35 15 40 15 40 16 45 16 45 17 50 17 50 18 55 18 55 19 60 19 60 20 65 20 65 15 60 15 60 14"/><polygon points="90 14 85 14 85 13 80 13 80 12 75 12 75 11 70 11 70 10 65 10 65 15 70 15 70 16 75 16 75 17 80 17 80 18 85 18 85 19 90 19 90 20 95 20 95 15 90 15 90 14"/><rect x="95" y="10" width="5" height="5"/><rect y="15" width="5" height="5"/><polygon points="35 24 30 24 30 23 25 23 25 22 20 22 20 21 15 21 15 20 10 20 10 25 15 25 15 26 20 26 20 27 25 27 25 28 30 28 30 29 35 29 35 30 40 30 40 25 35 25 35 24"/><polygon points="65 24 60 24 60 23 55 23 55 22 50 22 50 21 45 21 45 20 40 20 40 25 45 25 45 26 50 26 50 27 55 27 55 28 60 28 60 29 65 29 65 30 70 30 70 25 65 25 65 24"/><polygon points="95 24 90 24 90 23 85 23 85 22 80 22 80 21 75 21 75 20 70 20 70 25 75 25 75 26 80 26 80 27 85 27 85 28 90 28 90 29 95 29 95 30 100 30 100 25 95 25 95 24"/><polygon points="5 24 0 24 0 29 5 29 5 30 10 30 10 25 5 25 5 24"/><polygon points="40 34 35 34 35 33 30 33 30 32 25 32 25 31 20 31 20 30 15 30 15 35 20 35 20 36 25 36 25 37 30 37 30 38 35 38 35 39 40 39 40 40 45 40 45 35 40 35 40 34"/><polygon points="70 34 65 34 65 33 60 33 60 32 55 32 55 31 50 31 50 30 45 30 45 35 50 35 50 36 55 36 55 37 60 37 60 38 65 38 65 39 70 39 70 40 75 40 75 35 70 35 70 34"/><polygon points="95 33 90 33 90 32 85 32 85 31 80 31 80 30 75 30 75 35 80 35 80 36 85 36 85 37 90 37 90 38 95 38 95 39 100 39 100 34 95 34 95 33"/><polygon points="10 34 5 34 5 33 0 33 0 38 5 38 5 39 10 39 10 40 15 40 15 35 10 35 10 34"/><polygon points="45 44 40 44 40 43 35 43 35 42 30 42 30 41 25 41 25 40 20 40 20 45 25 45 25 46 30 46 30 47 35 47 35 48 40 48 40 49 45 49 45 50 50 50 50 45 45 45 45 44"/><polygon points="75 44 70 44 70 43 65 43 65 42 60 42 60 41 55 41 55 40 50 40 50 45 55 45 55 46 60 46 60 47 65 47 65 48 70 48 70 49 75 49 75 50 80 50 80 45 75 45 75 44"/><polygon points="95 42 90 42 90 41 85 41 85 40 80 40 80 45 85 45 85 46 90 46 90 47 95 47 95 48 100 48 100 43 95 43 95 42"/><polygon points="15 44 10 44 10 43 5 43 5 42 0 42 0 47 5 47 5 48 10 48 10 49 15 49 15 50 20 50 20 45 15 45 15 44"/><polygon points="50 54 45 54 45 53 40 53 40 52 35 52 35 51 30 51 30 50 25 50 25 55 30 55 30 56 35 56 35 57 40 57 40 58 45 58 45 59 50 59 50 60 55 60 55 55 50 55 50 54"/><polygon points="80 54 75 54 75 53 70 53 70 52 65 52 65 51 60 51 60 50 55 50 55 55 60 55 60 56 65 56 65 57 70 57 70 58 75 58 75 59 80 59 80 60 85 60 85 55 80 55 80 54"/><polygon points="95 51 90 51 90 50 85 50 85 55 90 55 90 56 95 56 95 57 100 57 100 52 95 52 95 51"/><polygon points="20 54 15 54 15 53 10 53 10 52 5 52 5 51 0 51 0 56 5 56 5 57 10 57 10 58 15 58 15 59 20 59 20 60 25 60 25 55 20 55 20 54"/><polygon points="25 64 20 64 20 63 15 63 15 62 10 62 10 61 5 61 5 60 0 60 0 65 5 65 5 66 10 66 10 67 15 67 15 68 20 68 20 69 25 69 25 70 30 70 30 65 25 65 25 64"/><polygon points="55 64 50 64 50 63 45 63 45 62 40 62 40 61 35 61 35 60 30 60 30 65 35 65 35 66 40 66 40 67 45 67 45 68 50 68 50 69 55 69 55 70 60 70 60 65 55 65 55 64"/><polygon points="85 64 80 64 80 63 75 63 75 62 70 62 70 61 65 61 65 60 60 60 60 65 65 65 65 66 70 66 70 67 75 67 75 68 80 68 80 69 85 69 85 70 90 70 90 65 85 65 85 64"/><polygon points="95 60 90 60 90 65 95 65 95 66 100 66 100 61 95 61 95 60"/><polygon points="30 74 25 74 25 73 20 73 20 72 15 72 15 71 10 71 10 70 5 70 5 75 10 75 10 76 15 76 15 77 20 77 20 78 25 78 25 79 30 79 30 80 35 80 35 75 30 75 30 74"/><polygon points="60 74 55 74 55 73 50 73 50 72 45 72 45 71 40 71 40 70 35 70 35 75 40 75 40 76 45 76 45 77 50 77 50 78 55 78 55 79 60 79 60 80 65 80 65 75 60 75 60 74"/><polygon points="90 74 85 74 85 73 80 73 80 72 75 72 75 71 70 71 70 70 65 70 65 75 70 75 70 76 75 76 75 77 80 77 80 78 85 78 85 79 90 79 90 80 95 80 95 75 90 75 90 74"/><rect x="95" y="70" width="5" height="5"/><rect y="75" width="5" height="5"/><polygon points="35 84 30 84 30 83 25 83 25 82 20 82 20 81 15 81 15 80 10 80 10 85 15 85 15 86 20 86 20 87 25 87 25 88 30 88 30 89 35 89 35 90 40 90 40 85 35 85 35 84"/><polygon points="65 84 60 84 60 83 55 83 55 82 50 82 50 81 45 81 45 80 40 80 40 85 45 85 45 86 50 86 50 87 55 87 55 88 60 88 60 89 65 89 65 90 70 90 70 85 65 85 65 84"/><polygon points="95 84 90 84 90 83 85 83 85 82 80 82 80 81 75 81 75 80 70 80 70 85 75 85 75 86 80 86 80 87 85 87 85 88 90 88 90 89 95 89 95 90 100 90 100 85 95 85 95 84"/><polygon points="5 84 0 84 0 89 5 89 5 90 10 90 10 85 5 85 5 84"/><polygon points="40 94 35 94 35 93 30 93 30 92 25 92 25 91 20 91 20 90 15 90 15 95 20 95 20 96 25 96 25 97 30 97 30 98 35 98 35 99 40 99 40 100 45 100 45 95 40 95 40 94"/><polygon points="70 94 65 94 65 93 60 93 60 92 55 92 55 91 50 91 50 90 45 90 45 95 50 95 50 96 55 96 55 97 60 97 60 98 65 98 65 99 70 99 70 100 75 100 75 95 70 95 70 94"/><polygon points="95 93 90 93 90 92 85 92 85 91 80 91 80 90 75 90 75 95 80 95 80 96 85 96 85 97 90 97 90 98 95 98 95 99 100 99 100 94 95 94 95 93"/><polygon points="10 94 5 94 5 93 0 93 0 98 5 98 5 99 10 99 10 100 15 100 15 95 10 95 10 94"/></svg>