<svg id="Layer_1" data-name="Layer 1" xmlns="http://www.w3.org/2000/svg" viewBox="0 0 100 100"><title>pattern</title><polygon points="95 0 95 1 90 1 90 2 85 2 85 3 80 3 80 4 75 4 70 4 70 3 65 3 65 2 60 2 60 1 55 1 55 0 50 0 45 0 45 1 40 1 40 2 35 2 35 3 30 3 30 4 25 4 20 4 20 3 15 3 15 2 10 2 10 1 5 1 5 0 0 0 0 6 5 6 5 7 10 7 10 8 15 8 15 9 20 9 20 10 25 10 30 10 30 9 35 9 35 8 40 8 40 7 45 7 45 6 50 6 55 6 55 7 60 7 60 8 65 8 65 9 70 9 70 10 75 10 80 10 80 9 85 9 85 8 90 8 90 7 95 7 95 6 100 6 100 0 95 0"/><polygon points="95 10 90 10 90 11 85 11 85 12 80 12 80 13 75 13 75 14 70 14 65 14 65 13 60 13 60 12 55 12 55 11 50 11 50 10 45 10 40 10 40 11 35 11 35 12 30 12 30 13 25 13 25 14 20 14 15 14 15 13 10 13 10 12 5 12 5 11 0 11 0 17 5 17 5 18 10 18 10 19 15 19 15 20 20 20 25 20 25 19 30 19 30 18 35 18 35 17 40 17 40 16 45 16 50 16 50 17 55 17 55 18 60 18 60 19 65 19 65 20 70 20 75 20 75 19 80 19 80 18 85 18 85 17 90 17 90 16 95 16 95 17 100 17 100 11 95 11 95 10"/><polygon points="95 90 90 90 90 91 85 91 85 92 80 92 80 93 75 93 75 94 70 94 65 94 65 93 60 93 60 92 55 92 55 91 50 91 50 90 45 90 40 90 40 91 35 91 35 92 30 92 30 93 25 93 25 94 20 94 15 94 15 93 10 93 10 92 5 92 5 91 0 91 0 97 5 97 5 98 10 98 10 99 15 99 15 100 20 100 25 100 25 99 30 99 30 98 35 98 35 97 40 97 40 96 45 96 50 96 50 97 55 97 55 98 60 98 60 99 65 99 65 100 70 100 75 100 75 99 80 99 80 98 85 98 85 97 90 97 90 96 95 96 95 97 100 97 100 91 95 91 95 90"/><polygon points="95 21 90 21 90 20 85 20 85 21 80 21 80 22 75 22 75 23 70 23 70 24 65 24 60 24 60 23 55 23 55 22 50 22 50 21 45 21 45 20 40 20 35 20 35 21 30 21 30 22 25 22 25 23 20 23 20 24 15 24 10 24 10 23 5 23 5 22 0 22 0 28 5 28 5 29 10 29 10 30 15 30 20 30 20 29 25 29 25 28 30 28 30 27 35 27 35 26 40 26 45 26 45 27 50 27 50 28 55 28 55 29 60 29 60 30 65 30 70 30 70 29 75 29 75 28 80 28 80 27 85 27 85 26 90 26 90 27 95 27 95 28 100 28 100 22 95 22 95 21"/><polygon points="95 81 90 81 90 80 85 80 85 81 80 81 80 82 75 82 75 83 70 83 70 84 65 84 60 84 60 83 55 83 55 82 50 82 50 81 45 81 45 80 40 80 35 80 35 81 30 81 30 82 25 82 25 83 20 83 20 84 15 84 10 84 10 83 5 83 5 82 0 82 0 88 5 88 5 89 10 89 10 90 15 90 20 90 20 89 25 89 25 88 30 88 30 87 35 87 35 86 40 86 45 86 45 87 50 87 50 88 55 88 55 89 60 89 60 90 65 90 70 90 70 89 75 89 75 88 80 88 80 87 85 87 85 86 90 86 90 87 95 87 95 88 100 88 100 82 95 82 95 81"/><polygon points="95 32 90 32 90 31 85 31 85 30 80 30 80 31 75 31 75 32 70 32 70 33 65 33 65 34 60 34 55 34 55 33 50 33 50 32 45 32 45 31 40 31 40 30 35 30 30 30 30 31 25 31 25 32 20 32 20 33 15 33 15 34 10 34 5 34 5 33 0 33 0 39 5 39 5 40 10 40 15 40 15 39 20 39 20 38 25 38 25 37 30 37 30 36 35 36 40 36 40 37 45 37 45 38 50 38 50 39 55 39 55 40 60 40 65 40 65 39 70 39 70 38 75 38 75 37 80 37 80 36 85 36 85 37 90 37 90 38 95 38 95 39 100 39 100 33 95 33 95 32"/><polygon points="95 72 90 72 90 71 85 71 85 70 80 70 80 71 75 71 75 72 70 72 70 73 65 73 65 74 60 74 55 74 55 73 50 73 50 72 45 72 45 71 40 71 40 70 35 70 30 70 30 71 25 71 25 72 20 72 20 73 15 73 15 74 10 74 5 74 5 73 0 73 0 79 5 79 5 80 10 80 15 80 15 79 20 79 20 78 25 78 25 77 30 77 30 76 35 76 40 76 40 77 45 77 45 78 50 78 50 79 55 79 55 80 60 80 65 80 65 79 70 79 70 78 75 78 75 77 80 77 80 76 85 76 85 77 90 77 90 78 95 78 95 79 100 79 100 73 95 73 95 72"/><polygon points="95 43 90 43 90 42 85 42 85 41 80 41 80 40 75 40 75 41 70 41 70 42 65 42 65 43 60 43 60 44 55 44 50 44 50 43 45 43 45 42 40 42 40 41 35 41 35 40 30 40 25 40 25 41 20 41 20 42 15 42 15 43 10 43 10 44 5 44 0 44 0 50 5 50 10 50 10 49 15 49 15 48 20 48 20 47 25 47 25 46 30 46 35 46 35 47 40 47 40 48 45 48 45 49 50 49 50 50 55 50 60 50 60 49 65 49 65 48 70 48 70 47 75 47 75 46 80 46 80 47 85 47 85 48 90 48 90 49 95 49 95 50 100 50 100 44 95 44 95 43"/><polygon points="95 63 90 63 90 62 85 62 85 61 80 61 80 60 75 60 75 61 70 61 70 62 65 62 65 63 60 63 60 64 55 64 50 64 50 63 45 63 45 62 40 62 40 61 35 61 35 60 30 60 25 60 25 61 20 61 20 62 15 62 15 63 10 63 10 64 5 64 0 64 0 70 5 70 10 70 10 69 15 69 15 68 20 68 20 67 25 67 25 66 30 66 35 66 35 67 40 67 40 68 45 68 45 69 50 69 50 70 55 70 60 70 60 69 65 69 65 68 70 68 70 67 75 67 75 66 80 66 80 67 85 67 85 68 90 68 90 69 95 69 95 70 100 70 100 64 95 64 95 63"/><polygon points="90 54 90 53 85 53 85 52 80 52 80 51 75 51 75 50 70 50 70 51 65 51 65 52 60 52 60 53 55 53 55 54 50 54 45 54 45 53 40 53 40 52 35 52 35 51 30 51 30 50 25 50 20 50 20 51 15 51 15 52 10 52 10 53 5 53 5 54 0 54 0 60 5 60 5 59 10 59 10 58 15 58 15 57 20 57 20 56 25 56 30 56 30 57 35 57 35 58 40 58 40 59 45 59 45 60 50 60 55 60 55 59 60 59 60 58 65 58 65 57 70 57 70 56 75 56 75 57 80 57 80 58 85 58 85 59 90 59 90 60 95 60 100 60 100 54 95 54 90 54"/></svg>