<svg id="Layer_1" data-name="Layer 1" xmlns="http://www.w3.org/2000/svg" viewBox="0 0 100 100"><title>pattern</title><polygon points="100 10 100 3 95 3 95 2 90 2 90 1 85 1 85 0 80 0 80 3 75 3 75 2 70 2 70 1 65 1 65 0 60 0 60 3 55 3 55 2 50 2 50 1 45 1 45 0 40 0 40 3 35 3 35 2 30 2 30 1 25 1 25 0 20 0 20 3 15 3 15 2 10 2 10 1 5 1 5 0 0 0 0 7 5 7 5 8 10 8 10 9 15 9 15 10 20 10 20 7 25 7 25 8 30 8 30 9 35 9 35 10 40 10 40 7 45 7 45 8 50 8 50 9 55 9 55 10 60 10 60 7 65 7 65 8 70 8 70 9 75 9 75 10 80 10 80 7 85 7 85 8 90 8 90 9 95 9 95 10 100 10"/><polygon points="75 13 75 12 70 12 70 11 65 11 65 10 60 10 60 13 55 13 55 12 50 12 50 11 45 11 45 10 40 10 40 13 35 13 35 12 30 12 30 11 25 11 25 10 20 10 20 13 15 13 15 12 10 12 10 11 5 11 5 10 0 10 0 17 5 17 5 18 10 18 10 19 15 19 15 20 20 20 20 17 25 17 25 18 30 18 30 19 35 19 35 20 40 20 40 17 45 17 45 18 50 18 50 19 55 19 55 20 60 20 60 17 65 17 65 18 70 18 70 19 75 19 75 20 80 20 80 17 85 17 85 18 90 18 90 19 95 19 95 20 100 20 100 13 95 13 95 12 90 12 90 11 85 11 85 10 80 10 80 13 75 13"/><polygon points="75 23 75 22 70 22 70 21 65 21 65 20 60 20 60 23 55 23 55 22 50 22 50 21 45 21 45 20 40 20 40 23 35 23 35 22 30 22 30 21 25 21 25 20 20 20 20 23 15 23 15 22 10 22 10 21 5 21 5 20 0 20 0 27 5 27 5 28 10 28 10 29 15 29 15 30 20 30 20 27 25 27 25 28 30 28 30 29 35 29 35 30 40 30 40 27 45 27 45 28 50 28 50 29 55 29 55 30 60 30 60 27 65 27 65 28 70 28 70 29 75 29 75 30 80 30 80 27 85 27 85 28 90 28 90 29 95 29 95 30 100 30 100 23 95 23 95 22 90 22 90 21 85 21 85 20 80 20 80 23 75 23"/><polygon points="75 33 75 32 70 32 70 31 65 31 65 30 60 30 60 33 55 33 55 32 50 32 50 31 45 31 45 30 40 30 40 33 35 33 35 32 30 32 30 31 25 31 25 30 20 30 20 33 15 33 15 32 10 32 10 31 5 31 5 30 0 30 0 37 5 37 5 38 10 38 10 39 15 39 15 40 20 40 20 37 25 37 25 38 30 38 30 39 35 39 35 40 40 40 40 37 45 37 45 38 50 38 50 39 55 39 55 40 60 40 60 37 65 37 65 38 70 38 70 39 75 39 75 40 80 40 80 37 85 37 85 38 90 38 90 39 95 39 95 40 100 40 100 33 95 33 95 32 90 32 90 31 85 31 85 30 80 30 80 33 75 33"/><polygon points="75 43 75 42 70 42 70 41 65 41 65 40 60 40 60 43 55 43 55 42 50 42 50 41 45 41 45 40 40 40 40 43 35 43 35 42 30 42 30 41 25 41 25 40 20 40 20 43 15 43 15 42 10 42 10 41 5 41 5 40 0 40 0 47 5 47 5 48 10 48 10 49 15 49 15 50 20 50 20 47 25 47 25 48 30 48 30 49 35 49 35 50 40 50 40 47 45 47 45 48 50 48 50 49 55 49 55 50 60 50 60 47 65 47 65 48 70 48 70 49 75 49 75 50 80 50 80 47 85 47 85 48 90 48 90 49 95 49 95 50 100 50 100 43 95 43 95 42 90 42 90 41 85 41 85 40 80 40 80 43 75 43"/><polygon points="75 53 75 52 70 52 70 51 65 51 65 50 60 50 60 53 55 53 55 52 50 52 50 51 45 51 45 50 40 50 40 53 35 53 35 52 30 52 30 51 25 51 25 50 20 50 20 53 15 53 15 52 10 52 10 51 5 51 5 50 0 50 0 57 5 57 5 58 10 58 10 59 15 59 15 60 20 60 20 57 25 57 25 58 30 58 30 59 35 59 35 60 40 60 40 57 45 57 45 58 50 58 50 59 55 59 55 60 60 60 60 57 65 57 65 58 70 58 70 59 75 59 75 60 80 60 80 57 85 57 85 58 90 58 90 59 95 59 95 60 100 60 100 53 95 53 95 52 90 52 90 51 85 51 85 50 80 50 80 53 75 53"/><polygon points="75 63 75 62 70 62 70 61 65 61 65 60 60 60 60 63 55 63 55 62 50 62 50 61 45 61 45 60 40 60 40 63 35 63 35 62 30 62 30 61 25 61 25 60 20 60 20 63 15 63 15 62 10 62 10 61 5 61 5 60 0 60 0 67 5 67 5 68 10 68 10 69 15 69 15 70 20 70 20 67 25 67 25 68 30 68 30 69 35 69 35 70 40 70 40 67 45 67 45 68 50 68 50 69 55 69 55 70 60 70 60 67 65 67 65 68 70 68 70 69 75 69 75 70 80 70 80 67 85 67 85 68 90 68 90 69 95 69 95 70 100 70 100 63 95 63 95 62 90 62 90 61 85 61 85 60 80 60 80 63 75 63"/><polygon points="75 73 75 72 70 72 70 71 65 71 65 70 60 70 60 73 55 73 55 72 50 72 50 71 45 71 45 70 40 70 40 73 35 73 35 72 30 72 30 71 25 71 25 70 20 70 20 73 15 73 15 72 10 72 10 71 5 71 5 70 0 70 0 77 5 77 5 78 10 78 10 79 15 79 15 80 20 80 20 77 25 77 25 78 30 78 30 79 35 79 35 80 40 80 40 77 45 77 45 78 50 78 50 79 55 79 55 80 60 80 60 77 65 77 65 78 70 78 70 79 75 79 75 80 80 80 80 77 85 77 85 78 90 78 90 79 95 79 95 80 100 80 100 73 95 73 95 72 90 72 90 71 85 71 85 70 80 70 80 73 75 73"/><polygon points="75 83 75 82 70 82 70 81 65 81 65 80 60 80 60 83 55 83 55 82 50 82 50 81 45 81 45 80 40 80 40 83 35 83 35 82 30 82 30 81 25 81 25 80 20 80 20 83 15 83 15 82 10 82 10 81 5 81 5 80 0 80 0 87 5 87 5 88 10 88 10 89 15 89 15 90 20 90 20 87 25 87 25 88 30 88 30 89 35 89 35 90 40 90 40 87 45 87 45 88 50 88 50 89 55 89 55 90 60 90 60 87 65 87 65 88 70 88 70 89 75 89 75 90 80 90 80 87 85 87 85 88 90 88 90 89 95 89 95 90 100 90 100 83 95 83 95 82 90 82 90 81 85 81 85 80 80 80 80 83 75 83"/><polygon points="75 93 75 92 70 92 70 91 65 91 65 90 60 90 60 93 55 93 55 92 50 92 50 91 45 91 45 90 40 90 40 93 35 93 35 92 30 92 30 91 25 91 25 90 20 90 20 93 15 93 15 92 10 92 10 91 5 91 5 90 0 90 0 97 5 97 5 98 10 98 10 99 15 99 15 100 20 100 20 97 25 97 25 98 30 98 30 99 35 99 35 100 40 100 40 97 45 97 45 98 50 98 50 99 55 99 55 100 60 100 60 97 65 97 65 98 70 98 70 99 75 99 75 100 80 100 80 97 85 97 85 98 90 98 90 99 95 99 95 100 100 100 100 93 95 93 95 92 90 92 90 91 85 91 85 90 80 90 80 93 75 93"/></svg>