<svg id="Layer_1" data-name="Layer 1" xmlns="http://www.w3.org/2000/svg" viewBox="0 0 100 100"><title>pattern</title><polygon points="9 98 8 98 8 97 7 97 7 96 8 96 8 95 9 95 9 94 10 94 10 93 9 93 9 92 8 92 8 91 7 91 7 90 8 90 8 89 9 89 9 88 10 88 10 87 9 87 9 86 8 86 8 85 7 85 7 84 8 84 8 83 9 83 9 82 10 82 10 81 9 81 9 80 8 80 8 79 7 79 7 78 8 78 8 77 9 77 9 76 10 76 10 75 9 75 9 74 8 74 8 73 7 73 7 72 8 72 8 71 9 71 9 70 10 70 10 69 9 69 9 68 8 68 8 67 7 67 7 66 8 66 8 65 9 65 9 64 10 64 10 63 9 63 9 62 8 62 8 61 7 61 7 60 8 60 8 59 9 59 9 58 10 58 10 57 9 57 9 56 8 56 8 55 7 55 7 54 8 54 8 53 9 53 9 52 10 52 10 51 9 51 9 50 8 50 8 49 7 49 7 48 8 48 8 47 9 47 9 46 10 46 10 45 9 45 9 44 8 44 8 43 7 43 7 42 8 42 8 41 9 41 9 40 10 40 10 39 9 39 9 38 8 38 8 37 7 37 7 36 8 36 8 35 9 35 9 34 10 34 10 33 9 33 9 32 8 32 8 31 7 31 7 30 8 30 8 29 9 29 9 28 10 28 10 27 9 27 9 26 8 26 8 25 7 25 7 24 8 24 8 23 9 23 9 22 10 22 10 21 9 21 9 20 8 20 8 19 7 19 7 18 8 18 8 17 9 17 9 16 10 16 10 15 9 15 9 14 8 14 8 13 7 13 7 12 8 12 8 11 9 11 9 10 10 10 10 9 9 9 9 8 8 8 8 7 7 7 7 6 8 6 8 5 9 5 9 4 10 4 10 3 9 3 9 2 8 2 8 1 7 1 7 0 0 0 0 1 1 1 1 2 2 2 2 3 3 3 3 4 2 4 2 5 1 5 1 6 0 6 0 7 1 7 1 8 2 8 2 9 3 9 3 10 2 10 2 11 1 11 1 12 0 12 0 13 1 13 1 14 2 14 2 15 3 15 3 16 2 16 2 17 1 17 1 18 0 18 0 19 1 19 1 20 2 20 2 21 3 21 3 22 2 22 2 23 1 23 1 24 0 24 0 25 1 25 1 26 2 26 2 27 3 27 3 28 2 28 2 29 1 29 1 30 0 30 0 31 1 31 1 32 2 32 2 33 3 33 3 34 2 34 2 35 1 35 1 36 0 36 0 37 1 37 1 38 2 38 2 39 3 39 3 40 2 40 2 41 1 41 1 42 0 42 0 43 1 43 1 44 2 44 2 45 3 45 3 46 2 46 2 47 1 47 1 48 0 48 0 49 1 49 1 50 2 50 2 51 3 51 3 52 2 52 2 53 1 53 1 54 0 54 0 55 1 55 1 56 2 56 2 57 3 57 3 58 2 58 2 59 1 59 1 60 0 60 0 61 1 61 1 62 2 62 2 63 3 63 3 64 2 64 2 65 1 65 1 66 0 66 0 67 1 67 1 68 2 68 2 69 3 69 3 70 2 70 2 71 1 71 1 72 0 72 0 73 1 73 1 74 2 74 2 75 3 75 3 76 2 76 2 77 1 77 1 78 0 78 0 79 1 79 1 80 2 80 2 81 3 81 3 82 2 82 2 83 1 83 1 84 0 84 0 85 1 85 1 86 2 86 2 87 3 87 3 88 2 88 2 89 1 89 1 90 0 90 0 91 1 91 1 92 2 92 2 93 3 93 3 94 2 94 2 95 1 95 1 96 0 96 0 97 1 97 1 98 2 98 2 99 3 99 3 100 10 100 10 99 9 99 9 98"/><polygon points="20 94 19 94 19 93 18 93 18 92 17 92 17 91 18 91 18 90 19 90 19 89 20 89 20 88 19 88 19 87 18 87 18 86 17 86 17 85 18 85 18 84 19 84 19 83 20 83 20 82 19 82 19 81 18 81 18 80 17 80 17 79 18 79 18 78 19 78 19 77 20 77 20 76 19 76 19 75 18 75 18 74 17 74 17 73 18 73 18 72 19 72 19 71 20 71 20 70 19 70 19 69 18 69 18 68 17 68 17 67 18 67 18 66 19 66 19 65 20 65 20 64 19 64 19 63 18 63 18 62 17 62 17 61 18 61 18 60 19 60 19 59 20 59 20 58 19 58 19 57 18 57 18 56 17 56 17 55 18 55 18 54 19 54 19 53 20 53 20 52 19 52 19 51 18 51 18 50 17 50 17 49 18 49 18 48 19 48 19 47 20 47 20 46 19 46 19 45 18 45 18 44 17 44 17 43 18 43 18 42 19 42 19 41 20 41 20 40 19 40 19 39 18 39 18 38 17 38 17 37 18 37 18 36 19 36 19 35 20 35 20 34 19 34 19 33 18 33 18 32 17 32 17 31 18 31 18 30 19 30 19 29 20 29 20 28 19 28 19 27 18 27 18 26 17 26 17 25 18 25 18 24 19 24 19 23 20 23 20 22 19 22 19 21 18 21 18 20 17 20 17 19 18 19 18 18 19 18 19 17 20 17 20 16 19 16 19 15 18 15 18 14 17 14 17 13 18 13 18 12 19 12 19 11 20 11 20 10 19 10 19 9 18 9 18 8 17 8 17 7 18 7 18 6 19 6 19 5 20 5 20 4 19 4 19 3 18 3 18 2 17 2 17 1 18 1 18 0 11 0 11 1 10 1 10 2 11 2 11 3 12 3 12 4 13 4 13 5 12 5 12 6 11 6 11 7 10 7 10 8 11 8 11 9 12 9 12 10 13 10 13 11 12 11 12 12 11 12 11 13 10 13 10 14 11 14 11 15 12 15 12 16 13 16 13 17 12 17 12 18 11 18 11 19 10 19 10 20 11 20 11 21 12 21 12 22 13 22 13 23 12 23 12 24 11 24 11 25 10 25 10 26 11 26 11 27 12 27 12 28 13 28 13 29 12 29 12 30 11 30 11 31 10 31 10 32 11 32 11 33 12 33 12 34 13 34 13 35 12 35 12 36 11 36 11 37 10 37 10 38 11 38 11 39 12 39 12 40 13 40 13 41 12 41 12 42 11 42 11 43 10 43 10 44 11 44 11 45 12 45 12 46 13 46 13 47 12 47 12 48 11 48 11 49 10 49 10 50 11 50 11 51 12 51 12 52 13 52 13 53 12 53 12 54 11 54 11 55 10 55 10 56 11 56 11 57 12 57 12 58 13 58 13 59 12 59 12 60 11 60 11 61 10 61 10 62 11 62 11 63 12 63 12 64 13 64 13 65 12 65 12 66 11 66 11 67 10 67 10 68 11 68 11 69 12 69 12 70 13 70 13 71 12 71 12 72 11 72 11 73 10 73 10 74 11 74 11 75 12 75 12 76 13 76 13 77 12 77 12 78 11 78 11 79 10 79 10 80 11 80 11 81 12 81 12 82 13 82 13 83 12 83 12 84 11 84 11 85 10 85 10 86 11 86 11 87 12 87 12 88 13 88 13 89 12 89 12 90 11 90 11 91 10 91 10 92 11 92 11 93 12 93 12 94 13 94 13 95 12 95 12 96 11 96 11 97 10 97 10 98 11 98 11 99 12 99 12 100 19 100 19 99 18 99 18 98 17 98 17 97 18 97 18 96 19 96 19 95 20 95 20 94"/><polygon points="30 95 29 95 29 94 28 94 28 93 27 93 27 92 28 92 28 91 29 91 29 90 30 90 30 89 29 89 29 88 28 88 28 87 27 87 27 86 28 86 28 85 29 85 29 84 30 84 30 83 29 83 29 82 28 82 28 81 27 81 27 80 28 80 28 79 29 79 29 78 30 78 30 77 29 77 29 76 28 76 28 75 27 75 27 74 28 74 28 73 29 73 29 72 30 72 30 71 29 71 29 70 28 70 28 69 27 69 27 68 28 68 28 67 29 67 29 66 30 66 30 65 29 65 29 64 28 64 28 63 27 63 27 62 28 62 28 61 29 61 29 60 30 60 30 59 29 59 29 58 28 58 28 57 27 57 27 56 28 56 28 55 29 55 29 54 30 54 30 53 29 53 29 52 28 52 28 51 27 51 27 50 28 50 28 49 29 49 29 48 30 48 30 47 29 47 29 46 28 46 28 45 27 45 27 44 28 44 28 43 29 43 29 42 30 42 30 41 29 41 29 40 28 40 28 39 27 39 27 38 28 38 28 37 29 37 29 36 30 36 30 35 29 35 29 34 28 34 28 33 27 33 27 32 28 32 28 31 29 31 29 30 30 30 30 29 29 29 29 28 28 28 28 27 27 27 27 26 28 26 28 25 29 25 29 24 30 24 30 23 29 23 29 22 28 22 28 21 27 21 27 20 28 20 28 19 29 19 29 18 30 18 30 17 29 17 29 16 28 16 28 15 27 15 27 14 28 14 28 13 29 13 29 12 30 12 30 11 29 11 29 10 28 10 28 9 27 9 27 8 28 8 28 7 29 7 29 6 30 6 30 5 29 5 29 4 28 4 28 3 27 3 27 2 28 2 28 1 29 1 29 0 22 0 22 1 21 1 21 2 20 2 20 3 21 3 21 4 22 4 22 5 23 5 23 6 22 6 22 7 21 7 21 8 20 8 20 9 21 9 21 10 22 10 22 11 23 11 23 12 22 12 22 13 21 13 21 14 20 14 20 15 21 15 21 16 22 16 22 17 23 17 23 18 22 18 22 19 21 19 21 20 20 20 20 21 21 21 21 22 22 22 22 23 23 23 23 24 22 24 22 25 21 25 21 26 20 26 20 27 21 27 21 28 22 28 22 29 23 29 23 30 22 30 22 31 21 31 21 32 20 32 20 33 21 33 21 34 22 34 22 35 23 35 23 36 22 36 22 37 21 37 21 38 20 38 20 39 21 39 21 40 22 40 22 41 23 41 23 42 22 42 22 43 21 43 21 44 20 44 20 45 21 45 21 46 22 46 22 47 23 47 23 48 22 48 22 49 21 49 21 50 20 50 20 51 21 51 21 52 22 52 22 53 23 53 23 54 22 54 22 55 21 55 21 56 20 56 20 57 21 57 21 58 22 58 22 59 23 59 23 60 22 60 22 61 21 61 21 62 20 62 20 63 21 63 21 64 22 64 22 65 23 65 23 66 22 66 22 67 21 67 21 68 20 68 20 69 21 69 21 70 22 70 22 71 23 71 23 72 22 72 22 73 21 73 21 74 20 74 20 75 21 75 21 76 22 76 22 77 23 77 23 78 22 78 22 79 21 79 21 80 20 80 20 81 21 81 21 82 22 82 22 83 23 83 23 84 22 84 22 85 21 85 21 86 20 86 20 87 21 87 21 88 22 88 22 89 23 89 23 90 22 90 22 91 21 91 21 92 20 92 20 93 21 93 21 94 22 94 22 95 23 95 23 96 22 96 22 97 21 97 21 98 20 98 20 99 21 99 21 100 28 100 28 99 27 99 27 98 28 98 28 97 29 97 29 96 30 96 30 95"/><polygon points="39 95 38 95 38 94 37 94 37 93 38 93 38 92 39 92 39 91 40 91 40 90 39 90 39 89 38 89 38 88 37 88 37 87 38 87 38 86 39 86 39 85 40 85 40 84 39 84 39 83 38 83 38 82 37 82 37 81 38 81 38 80 39 80 39 79 40 79 40 78 39 78 39 77 38 77 38 76 37 76 37 75 38 75 38 74 39 74 39 73 40 73 40 72 39 72 39 71 38 71 38 70 37 70 37 69 38 69 38 68 39 68 39 67 40 67 40 66 39 66 39 65 38 65 38 64 37 64 37 63 38 63 38 62 39 62 39 61 40 61 40 60 39 60 39 59 38 59 38 58 37 58 37 57 38 57 38 56 39 56 39 55 40 55 40 54 39 54 39 53 38 53 38 52 37 52 37 51 38 51 38 50 39 50 39 49 40 49 40 48 39 48 39 47 38 47 38 46 37 46 37 45 38 45 38 44 39 44 39 43 40 43 40 42 39 42 39 41 38 41 38 40 37 40 37 39 38 39 38 38 39 38 39 37 40 37 40 36 39 36 39 35 38 35 38 34 37 34 37 33 38 33 38 32 39 32 39 31 40 31 40 30 39 30 39 29 38 29 38 28 37 28 37 27 38 27 38 26 39 26 39 25 40 25 40 24 39 24 39 23 38 23 38 22 37 22 37 21 38 21 38 20 39 20 39 19 40 19 40 18 39 18 39 17 38 17 38 16 37 16 37 15 38 15 38 14 39 14 39 13 40 13 40 12 39 12 39 11 38 11 38 10 37 10 37 9 38 9 38 8 39 8 39 7 40 7 40 6 39 6 39 5 38 5 38 4 37 4 37 3 38 3 38 2 39 2 39 1 40 1 40 0 33 0 33 1 32 1 32 2 31 2 31 3 30 3 30 4 31 4 31 5 32 5 32 6 33 6 33 7 32 7 32 8 31 8 31 9 30 9 30 10 31 10 31 11 32 11 32 12 33 12 33 13 32 13 32 14 31 14 31 15 30 15 30 16 31 16 31 17 32 17 32 18 33 18 33 19 32 19 32 20 31 20 31 21 30 21 30 22 31 22 31 23 32 23 32 24 33 24 33 25 32 25 32 26 31 26 31 27 30 27 30 28 31 28 31 29 32 29 32 30 33 30 33 31 32 31 32 32 31 32 31 33 30 33 30 34 31 34 31 35 32 35 32 36 33 36 33 37 32 37 32 38 31 38 31 39 30 39 30 40 31 40 31 41 32 41 32 42 33 42 33 43 32 43 32 44 31 44 31 45 30 45 30 46 31 46 31 47 32 47 32 48 33 48 33 49 32 49 32 50 31 50 31 51 30 51 30 52 31 52 31 53 32 53 32 54 33 54 33 55 32 55 32 56 31 56 31 57 30 57 30 58 31 58 31 59 32 59 32 60 33 60 33 61 32 61 32 62 31 62 31 63 30 63 30 64 31 64 31 65 32 65 32 66 33 66 33 67 32 67 32 68 31 68 31 69 30 69 30 70 31 70 31 71 32 71 32 72 33 72 33 73 32 73 32 74 31 74 31 75 30 75 30 76 31 76 31 77 32 77 32 78 33 78 33 79 32 79 32 80 31 80 31 81 30 81 30 82 31 82 31 83 32 83 32 84 33 84 33 85 32 85 32 86 31 86 31 87 30 87 30 88 31 88 31 89 32 89 32 90 33 90 33 91 32 91 32 92 31 92 31 93 30 93 30 94 31 94 31 95 32 95 32 96 33 96 33 97 32 97 32 98 31 98 31 99 30 99 30 100 37 100 37 99 38 99 38 98 39 98 39 97 40 97 40 96 39 96 39 95"/><polygon points="49 96 48 96 48 95 47 95 47 94 48 94 48 93 49 93 49 92 50 92 50 91 49 91 49 90 48 90 48 89 47 89 47 88 48 88 48 87 49 87 49 86 50 86 50 85 49 85 49 84 48 84 48 83 47 83 47 82 48 82 48 81 49 81 49 80 50 80 50 79 49 79 49 78 48 78 48 77 47 77 47 76 48 76 48 75 49 75 49 74 50 74 50 73 49 73 49 72 48 72 48 71 47 71 47 70 48 70 48 69 49 69 49 68 50 68 50 67 49 67 49 66 48 66 48 65 47 65 47 64 48 64 48 63 49 63 49 62 50 62 50 61 49 61 49 60 48 60 48 59 47 59 47 58 48 58 48 57 49 57 49 56 50 56 50 55 49 55 49 54 48 54 48 53 47 53 47 52 48 52 48 51 49 51 49 50 50 50 50 49 49 49 49 48 48 48 48 47 47 47 47 46 48 46 48 45 49 45 49 44 50 44 50 43 49 43 49 42 48 42 48 41 47 41 47 40 48 40 48 39 49 39 49 38 50 38 50 37 49 37 49 36 48 36 48 35 47 35 47 34 48 34 48 33 49 33 49 32 50 32 50 31 49 31 49 30 48 30 48 29 47 29 47 28 48 28 48 27 49 27 49 26 50 26 50 25 49 25 49 24 48 24 48 23 47 23 47 22 48 22 48 21 49 21 49 20 50 20 50 19 49 19 49 18 48 18 48 17 47 17 47 16 48 16 48 15 49 15 49 14 50 14 50 13 49 13 49 12 48 12 48 11 47 11 47 10 48 10 48 9 49 9 49 8 50 8 50 7 49 7 49 6 48 6 48 5 47 5 47 4 48 4 48 3 49 3 49 2 50 2 50 1 49 1 49 0 42 0 42 1 43 1 43 2 42 2 42 3 41 3 41 4 40 4 40 5 41 5 41 6 42 6 42 7 43 7 43 8 42 8 42 9 41 9 41 10 40 10 40 11 41 11 41 12 42 12 42 13 43 13 43 14 42 14 42 15 41 15 41 16 40 16 40 17 41 17 41 18 42 18 42 19 43 19 43 20 42 20 42 21 41 21 41 22 40 22 40 23 41 23 41 24 42 24 42 25 43 25 43 26 42 26 42 27 41 27 41 28 40 28 40 29 41 29 41 30 42 30 42 31 43 31 43 32 42 32 42 33 41 33 41 34 40 34 40 35 41 35 41 36 42 36 42 37 43 37 43 38 42 38 42 39 41 39 41 40 40 40 40 41 41 41 41 42 42 42 42 43 43 43 43 44 42 44 42 45 41 45 41 46 40 46 40 47 41 47 41 48 42 48 42 49 43 49 43 50 42 50 42 51 41 51 41 52 40 52 40 53 41 53 41 54 42 54 42 55 43 55 43 56 42 56 42 57 41 57 41 58 40 58 40 59 41 59 41 60 42 60 42 61 43 61 43 62 42 62 42 63 41 63 41 64 40 64 40 65 41 65 41 66 42 66 42 67 43 67 43 68 42 68 42 69 41 69 41 70 40 70 40 71 41 71 41 72 42 72 42 73 43 73 43 74 42 74 42 75 41 75 41 76 40 76 40 77 41 77 41 78 42 78 42 79 43 79 43 80 42 80 42 81 41 81 41 82 40 82 40 83 41 83 41 84 42 84 42 85 43 85 43 86 42 86 42 87 41 87 41 88 40 88 40 89 41 89 41 90 42 90 42 91 43 91 43 92 42 92 42 93 41 93 41 94 40 94 40 95 41 95 41 96 42 96 42 97 43 97 43 98 42 98 42 99 41 99 41 100 48 100 48 99 49 99 49 98 50 98 50 97 49 97 49 96"/><polygon points="59 97 58 97 58 96 57 96 57 95 58 95 58 94 59 94 59 93 60 93 60 92 59 92 59 91 58 91 58 90 57 90 57 89 58 89 58 88 59 88 59 87 60 87 60 86 59 86 59 85 58 85 58 84 57 84 57 83 58 83 58 82 59 82 59 81 60 81 60 80 59 80 59 79 58 79 58 78 57 78 57 77 58 77 58 76 59 76 59 75 60 75 60 74 59 74 59 73 58 73 58 72 57 72 57 71 58 71 58 70 59 70 59 69 60 69 60 68 59 68 59 67 58 67 58 66 57 66 57 65 58 65 58 64 59 64 59 63 60 63 60 62 59 62 59 61 58 61 58 60 57 60 57 59 58 59 58 58 59 58 59 57 60 57 60 56 59 56 59 55 58 55 58 54 57 54 57 53 58 53 58 52 59 52 59 51 60 51 60 50 59 50 59 49 58 49 58 48 57 48 57 47 58 47 58 46 59 46 59 45 60 45 60 44 59 44 59 43 58 43 58 42 57 42 57 41 58 41 58 40 59 40 59 39 60 39 60 38 59 38 59 37 58 37 58 36 57 36 57 35 58 35 58 34 59 34 59 33 60 33 60 32 59 32 59 31 58 31 58 30 57 30 57 29 58 29 58 28 59 28 59 27 60 27 60 26 59 26 59 25 58 25 58 24 57 24 57 23 58 23 58 22 59 22 59 21 60 21 60 20 59 20 59 19 58 19 58 18 57 18 57 17 58 17 58 16 59 16 59 15 60 15 60 14 59 14 59 13 58 13 58 12 57 12 57 11 58 11 58 10 59 10 59 9 60 9 60 8 59 8 59 7 58 7 58 6 57 6 57 5 58 5 58 4 59 4 59 3 60 3 60 2 59 2 59 1 58 1 58 0 51 0 51 1 52 1 52 2 53 2 53 3 52 3 52 4 51 4 51 5 50 5 50 6 51 6 51 7 52 7 52 8 53 8 53 9 52 9 52 10 51 10 51 11 50 11 50 12 51 12 51 13 52 13 52 14 53 14 53 15 52 15 52 16 51 16 51 17 50 17 50 18 51 18 51 19 52 19 52 20 53 20 53 21 52 21 52 22 51 22 51 23 50 23 50 24 51 24 51 25 52 25 52 26 53 26 53 27 52 27 52 28 51 28 51 29 50 29 50 30 51 30 51 31 52 31 52 32 53 32 53 33 52 33 52 34 51 34 51 35 50 35 50 36 51 36 51 37 52 37 52 38 53 38 53 39 52 39 52 40 51 40 51 41 50 41 50 42 51 42 51 43 52 43 52 44 53 44 53 45 52 45 52 46 51 46 51 47 50 47 50 48 51 48 51 49 52 49 52 50 53 50 53 51 52 51 52 52 51 52 51 53 50 53 50 54 51 54 51 55 52 55 52 56 53 56 53 57 52 57 52 58 51 58 51 59 50 59 50 60 51 60 51 61 52 61 52 62 53 62 53 63 52 63 52 64 51 64 51 65 50 65 50 66 51 66 51 67 52 67 52 68 53 68 53 69 52 69 52 70 51 70 51 71 50 71 50 72 51 72 51 73 52 73 52 74 53 74 53 75 52 75 52 76 51 76 51 77 50 77 50 78 51 78 51 79 52 79 52 80 53 80 53 81 52 81 52 82 51 82 51 83 50 83 50 84 51 84 51 85 52 85 52 86 53 86 53 87 52 87 52 88 51 88 51 89 50 89 50 90 51 90 51 91 52 91 52 92 53 92 53 93 52 93 52 94 51 94 51 95 50 95 50 96 51 96 51 97 52 97 52 98 53 98 53 99 52 99 52 100 59 100 59 99 60 99 60 98 59 98 59 97"/><polygon points="69 98 68 98 68 97 67 97 67 96 68 96 68 95 69 95 69 94 70 94 70 93 69 93 69 92 68 92 68 91 67 91 67 90 68 90 68 89 69 89 69 88 70 88 70 87 69 87 69 86 68 86 68 85 67 85 67 84 68 84 68 83 69 83 69 82 70 82 70 81 69 81 69 80 68 80 68 79 67 79 67 78 68 78 68 77 69 77 69 76 70 76 70 75 69 75 69 74 68 74 68 73 67 73 67 72 68 72 68 71 69 71 69 70 70 70 70 69 69 69 69 68 68 68 68 67 67 67 67 66 68 66 68 65 69 65 69 64 70 64 70 63 69 63 69 62 68 62 68 61 67 61 67 60 68 60 68 59 69 59 69 58 70 58 70 57 69 57 69 56 68 56 68 55 67 55 67 54 68 54 68 53 69 53 69 52 70 52 70 51 69 51 69 50 68 50 68 49 67 49 67 48 68 48 68 47 69 47 69 46 70 46 70 45 69 45 69 44 68 44 68 43 67 43 67 42 68 42 68 41 69 41 69 40 70 40 70 39 69 39 69 38 68 38 68 37 67 37 67 36 68 36 68 35 69 35 69 34 70 34 70 33 69 33 69 32 68 32 68 31 67 31 67 30 68 30 68 29 69 29 69 28 70 28 70 27 69 27 69 26 68 26 68 25 67 25 67 24 68 24 68 23 69 23 69 22 70 22 70 21 69 21 69 20 68 20 68 19 67 19 67 18 68 18 68 17 69 17 69 16 70 16 70 15 69 15 69 14 68 14 68 13 67 13 67 12 68 12 68 11 69 11 69 10 70 10 70 9 69 9 69 8 68 8 68 7 67 7 67 6 68 6 68 5 69 5 69 4 70 4 70 3 69 3 69 2 68 2 68 1 67 1 67 0 60 0 60 1 61 1 61 2 62 2 62 3 63 3 63 4 62 4 62 5 61 5 61 6 60 6 60 7 61 7 61 8 62 8 62 9 63 9 63 10 62 10 62 11 61 11 61 12 60 12 60 13 61 13 61 14 62 14 62 15 63 15 63 16 62 16 62 17 61 17 61 18 60 18 60 19 61 19 61 20 62 20 62 21 63 21 63 22 62 22 62 23 61 23 61 24 60 24 60 25 61 25 61 26 62 26 62 27 63 27 63 28 62 28 62 29 61 29 61 30 60 30 60 31 61 31 61 32 62 32 62 33 63 33 63 34 62 34 62 35 61 35 61 36 60 36 60 37 61 37 61 38 62 38 62 39 63 39 63 40 62 40 62 41 61 41 61 42 60 42 60 43 61 43 61 44 62 44 62 45 63 45 63 46 62 46 62 47 61 47 61 48 60 48 60 49 61 49 61 50 62 50 62 51 63 51 63 52 62 52 62 53 61 53 61 54 60 54 60 55 61 55 61 56 62 56 62 57 63 57 63 58 62 58 62 59 61 59 61 60 60 60 60 61 61 61 61 62 62 62 62 63 63 63 63 64 62 64 62 65 61 65 61 66 60 66 60 67 61 67 61 68 62 68 62 69 63 69 63 70 62 70 62 71 61 71 61 72 60 72 60 73 61 73 61 74 62 74 62 75 63 75 63 76 62 76 62 77 61 77 61 78 60 78 60 79 61 79 61 80 62 80 62 81 63 81 63 82 62 82 62 83 61 83 61 84 60 84 60 85 61 85 61 86 62 86 62 87 63 87 63 88 62 88 62 89 61 89 61 90 60 90 60 91 61 91 61 92 62 92 62 93 63 93 63 94 62 94 62 95 61 95 61 96 60 96 60 97 61 97 61 98 62 98 62 99 63 99 63 100 70 100 70 99 69 99 69 98"/><polygon points="80 94 79 94 79 93 78 93 78 92 77 92 77 91 78 91 78 90 79 90 79 89 80 89 80 88 79 88 79 87 78 87 78 86 77 86 77 85 78 85 78 84 79 84 79 83 80 83 80 82 79 82 79 81 78 81 78 80 77 80 77 79 78 79 78 78 79 78 79 77 80 77 80 76 79 76 79 75 78 75 78 74 77 74 77 73 78 73 78 72 79 72 79 71 80 71 80 70 79 70 79 69 78 69 78 68 77 68 77 67 78 67 78 66 79 66 79 65 80 65 80 64 79 64 79 63 78 63 78 62 77 62 77 61 78 61 78 60 79 60 79 59 80 59 80 58 79 58 79 57 78 57 78 56 77 56 77 55 78 55 78 54 79 54 79 53 80 53 80 52 79 52 79 51 78 51 78 50 77 50 77 49 78 49 78 48 79 48 79 47 80 47 80 46 79 46 79 45 78 45 78 44 77 44 77 43 78 43 78 42 79 42 79 41 80 41 80 40 79 40 79 39 78 39 78 38 77 38 77 37 78 37 78 36 79 36 79 35 80 35 80 34 79 34 79 33 78 33 78 32 77 32 77 31 78 31 78 30 79 30 79 29 80 29 80 28 79 28 79 27 78 27 78 26 77 26 77 25 78 25 78 24 79 24 79 23 80 23 80 22 79 22 79 21 78 21 78 20 77 20 77 19 78 19 78 18 79 18 79 17 80 17 80 16 79 16 79 15 78 15 78 14 77 14 77 13 78 13 78 12 79 12 79 11 80 11 80 10 79 10 79 9 78 9 78 8 77 8 77 7 78 7 78 6 79 6 79 5 80 5 80 4 79 4 79 3 78 3 78 2 77 2 77 1 78 1 78 0 71 0 71 1 70 1 70 2 71 2 71 3 72 3 72 4 73 4 73 5 72 5 72 6 71 6 71 7 70 7 70 8 71 8 71 9 72 9 72 10 73 10 73 11 72 11 72 12 71 12 71 13 70 13 70 14 71 14 71 15 72 15 72 16 73 16 73 17 72 17 72 18 71 18 71 19 70 19 70 20 71 20 71 21 72 21 72 22 73 22 73 23 72 23 72 24 71 24 71 25 70 25 70 26 71 26 71 27 72 27 72 28 73 28 73 29 72 29 72 30 71 30 71 31 70 31 70 32 71 32 71 33 72 33 72 34 73 34 73 35 72 35 72 36 71 36 71 37 70 37 70 38 71 38 71 39 72 39 72 40 73 40 73 41 72 41 72 42 71 42 71 43 70 43 70 44 71 44 71 45 72 45 72 46 73 46 73 47 72 47 72 48 71 48 71 49 70 49 70 50 71 50 71 51 72 51 72 52 73 52 73 53 72 53 72 54 71 54 71 55 70 55 70 56 71 56 71 57 72 57 72 58 73 58 73 59 72 59 72 60 71 60 71 61 70 61 70 62 71 62 71 63 72 63 72 64 73 64 73 65 72 65 72 66 71 66 71 67 70 67 70 68 71 68 71 69 72 69 72 70 73 70 73 71 72 71 72 72 71 72 71 73 70 73 70 74 71 74 71 75 72 75 72 76 73 76 73 77 72 77 72 78 71 78 71 79 70 79 70 80 71 80 71 81 72 81 72 82 73 82 73 83 72 83 72 84 71 84 71 85 70 85 70 86 71 86 71 87 72 87 72 88 73 88 73 89 72 89 72 90 71 90 71 91 70 91 70 92 71 92 71 93 72 93 72 94 73 94 73 95 72 95 72 96 71 96 71 97 70 97 70 98 71 98 71 99 72 99 72 100 79 100 79 99 78 99 78 98 77 98 77 97 78 97 78 96 79 96 79 95 80 95 80 94"/><polygon points="90 95 89 95 89 94 88 94 88 93 87 93 87 92 88 92 88 91 89 91 89 90 90 90 90 89 89 89 89 88 88 88 88 87 87 87 87 86 88 86 88 85 89 85 89 84 90 84 90 83 89 83 89 82 88 82 88 81 87 81 87 80 88 80 88 79 89 79 89 78 90 78 90 77 89 77 89 76 88 76 88 75 87 75 87 74 88 74 88 73 89 73 89 72 90 72 90 71 89 71 89 70 88 70 88 69 87 69 87 68 88 68 88 67 89 67 89 66 90 66 90 65 89 65 89 64 88 64 88 63 87 63 87 62 88 62 88 61 89 61 89 60 90 60 90 59 89 59 89 58 88 58 88 57 87 57 87 56 88 56 88 55 89 55 89 54 90 54 90 53 89 53 89 52 88 52 88 51 87 51 87 50 88 50 88 49 89 49 89 48 90 48 90 47 89 47 89 46 88 46 88 45 87 45 87 44 88 44 88 43 89 43 89 42 90 42 90 41 89 41 89 40 88 40 88 39 87 39 87 38 88 38 88 37 89 37 89 36 90 36 90 35 89 35 89 34 88 34 88 33 87 33 87 32 88 32 88 31 89 31 89 30 90 30 90 29 89 29 89 28 88 28 88 27 87 27 87 26 88 26 88 25 89 25 89 24 90 24 90 23 89 23 89 22 88 22 88 21 87 21 87 20 88 20 88 19 89 19 89 18 90 18 90 17 89 17 89 16 88 16 88 15 87 15 87 14 88 14 88 13 89 13 89 12 90 12 90 11 89 11 89 10 88 10 88 9 87 9 87 8 88 8 88 7 89 7 89 6 90 6 90 5 89 5 89 4 88 4 88 3 87 3 87 2 88 2 88 1 89 1 89 0 82 0 82 1 81 1 81 2 80 2 80 3 81 3 81 4 82 4 82 5 83 5 83 6 82 6 82 7 81 7 81 8 80 8 80 9 81 9 81 10 82 10 82 11 83 11 83 12 82 12 82 13 81 13 81 14 80 14 80 15 81 15 81 16 82 16 82 17 83 17 83 18 82 18 82 19 81 19 81 20 80 20 80 21 81 21 81 22 82 22 82 23 83 23 83 24 82 24 82 25 81 25 81 26 80 26 80 27 81 27 81 28 82 28 82 29 83 29 83 30 82 30 82 31 81 31 81 32 80 32 80 33 81 33 81 34 82 34 82 35 83 35 83 36 82 36 82 37 81 37 81 38 80 38 80 39 81 39 81 40 82 40 82 41 83 41 83 42 82 42 82 43 81 43 81 44 80 44 80 45 81 45 81 46 82 46 82 47 83 47 83 48 82 48 82 49 81 49 81 50 80 50 80 51 81 51 81 52 82 52 82 53 83 53 83 54 82 54 82 55 81 55 81 56 80 56 80 57 81 57 81 58 82 58 82 59 83 59 83 60 82 60 82 61 81 61 81 62 80 62 80 63 81 63 81 64 82 64 82 65 83 65 83 66 82 66 82 67 81 67 81 68 80 68 80 69 81 69 81 70 82 70 82 71 83 71 83 72 82 72 82 73 81 73 81 74 80 74 80 75 81 75 81 76 82 76 82 77 83 77 83 78 82 78 82 79 81 79 81 80 80 80 80 81 81 81 81 82 82 82 82 83 83 83 83 84 82 84 82 85 81 85 81 86 80 86 80 87 81 87 81 88 82 88 82 89 83 89 83 90 82 90 82 91 81 91 81 92 80 92 80 93 81 93 81 94 82 94 82 95 83 95 83 96 82 96 82 97 81 97 81 98 80 98 80 99 81 99 81 100 88 100 88 99 87 99 87 98 88 98 88 97 89 97 89 96 90 96 90 95"/><polygon points="98 3 98 2 99 2 99 1 100 1 100 0 93 0 93 1 92 1 92 2 91 2 91 3 90 3 90 4 91 4 91 5 92 5 92 6 93 6 93 7 92 7 92 8 91 8 91 9 90 9 90 10 91 10 91 11 92 11 92 12 93 12 93 13 92 13 92 14 91 14 91 15 90 15 90 16 91 16 91 17 92 17 92 18 93 18 93 19 92 19 92 20 91 20 91 21 90 21 90 22 91 22 91 23 92 23 92 24 93 24 93 25 92 25 92 26 91 26 91 27 90 27 90 28 91 28 91 29 92 29 92 30 93 30 93 31 92 31 92 32 91 32 91 33 90 33 90 34 91 34 91 35 92 35 92 36 93 36 93 37 92 37 92 38 91 38 91 39 90 39 90 40 91 40 91 41 92 41 92 42 93 42 93 43 92 43 92 44 91 44 91 45 90 45 90 46 91 46 91 47 92 47 92 48 93 48 93 49 92 49 92 50 91 50 91 51 90 51 90 52 91 52 91 53 92 53 92 54 93 54 93 55 92 55 92 56 91 56 91 57 90 57 90 58 91 58 91 59 92 59 92 60 93 60 93 61 92 61 92 62 91 62 91 63 90 63 90 64 91 64 91 65 92 65 92 66 93 66 93 67 92 67 92 68 91 68 91 69 90 69 90 70 91 70 91 71 92 71 92 72 93 72 93 73 92 73 92 74 91 74 91 75 90 75 90 76 91 76 91 77 92 77 92 78 93 78 93 79 92 79 92 80 91 80 91 81 90 81 90 82 91 82 91 83 92 83 92 84 93 84 93 85 92 85 92 86 91 86 91 87 90 87 90 88 91 88 91 89 92 89 92 90 93 90 93 91 92 91 92 92 91 92 91 93 90 93 90 94 91 94 91 95 92 95 92 96 93 96 93 97 92 97 92 98 91 98 91 99 90 99 90 100 97 100 97 99 98 99 98 98 99 98 99 97 100 97 100 96 99 96 99 95 98 95 98 94 97 94 97 93 98 93 98 92 99 92 99 91 100 91 100 90 99 90 99 89 98 89 98 88 97 88 97 87 98 87 98 86 99 86 99 85 100 85 100 84 99 84 99 83 98 83 98 82 97 82 97 81 98 81 98 80 99 80 99 79 100 79 100 78 99 78 99 77 98 77 98 76 97 76 97 75 98 75 98 74 99 74 99 73 100 73 100 72 99 72 99 71 98 71 98 70 97 70 97 69 98 69 98 68 99 68 99 67 100 67 100 66 99 66 99 65 98 65 98 64 97 64 97 63 98 63 98 62 99 62 99 61 100 61 100 60 99 60 99 59 98 59 98 58 97 58 97 57 98 57 98 56 99 56 99 55 100 55 100 54 99 54 99 53 98 53 98 52 97 52 97 51 98 51 98 50 99 50 99 49 100 49 100 48 99 48 99 47 98 47 98 46 97 46 97 45 98 45 98 44 99 44 99 43 100 43 100 42 99 42 99 41 98 41 98 40 97 40 97 39 98 39 98 38 99 38 99 37 100 37 100 36 99 36 99 35 98 35 98 34 97 34 97 33 98 33 98 32 99 32 99 31 100 31 100 30 99 30 99 29 98 29 98 28 97 28 97 27 98 27 98 26 99 26 99 25 100 25 100 24 99 24 99 23 98 23 98 22 97 22 97 21 98 21 98 20 99 20 99 19 100 19 100 18 99 18 99 17 98 17 98 16 97 16 97 15 98 15 98 14 99 14 99 13 100 13 100 12 99 12 99 11 98 11 98 10 97 10 97 9 98 9 98 8 99 8 99 7 100 7 100 6 99 6 99 5 98 5 98 4 97 4 97 3 98 3"/></svg>