<svg id="Layer_1" data-name="Layer 1" xmlns="http://www.w3.org/2000/svg" viewBox="0 0 100 100"><title>pattern</title><polygon points="98 5 98 4 99 4 99 3 100 3 100 2 99 2 99 1 98 1 98 0 91 0 91 1 92 1 92 2 93 2 93 3 92 3 92 4 91 4 91 5 90 5 90 6 91 6 91 7 92 7 92 8 93 8 93 9 90 9 90 10 93 10 93 11 92 11 92 12 91 12 91 13 90 13 90 14 91 14 91 15 92 15 92 16 93 16 93 17 92 17 92 18 91 18 91 19 90 19 90 20 93 20 93 21 92 21 92 22 91 22 91 23 90 23 90 24 91 24 91 25 92 25 92 26 93 26 93 27 92 27 92 28 91 28 91 29 90 29 90 30 91 30 91 31 92 31 92 32 93 32 93 33 92 33 92 34 91 34 91 35 90 35 90 36 91 36 91 37 92 37 92 38 93 38 93 39 90 39 90 40 91 40 91 41 92 41 92 42 93 42 93 43 92 43 92 44 91 44 91 45 90 45 90 46 91 46 91 47 92 47 92 48 93 48 93 49 90 49 90 50 93 50 93 51 92 51 92 52 91 52 91 53 90 53 90 54 91 54 91 55 92 55 92 56 93 56 93 57 92 57 92 58 91 58 91 59 90 59 90 60 93 60 93 61 92 61 92 62 91 62 91 63 90 63 90 64 91 64 91 65 92 65 92 66 93 66 93 67 92 67 92 68 91 68 91 69 90 69 90 70 91 70 91 71 92 71 92 72 93 72 93 73 92 73 92 74 91 74 91 75 90 75 90 76 91 76 91 77 92 77 92 78 93 78 93 79 90 79 90 80 91 80 91 81 92 81 92 82 93 82 93 83 92 83 92 84 91 84 91 85 90 85 90 86 91 86 91 87 92 87 92 88 93 88 93 89 90 89 90 90 93 90 93 91 92 91 92 92 91 92 91 93 90 93 90 94 91 94 91 95 92 95 92 96 93 96 93 97 92 97 92 98 91 98 91 99 90 99 90 100 97 100 97 99 98 99 98 98 99 98 99 97 100 97 100 96 99 96 99 95 98 95 98 94 97 94 97 93 98 93 98 92 99 92 99 91 100 91 100 90 97 90 97 89 100 89 100 88 99 88 99 87 98 87 98 86 97 86 97 85 98 85 98 84 99 84 99 83 100 83 100 82 99 82 99 81 98 81 98 80 97 80 97 79 100 79 100 78 99 78 99 77 98 77 98 76 97 76 97 75 98 75 98 74 99 74 99 73 100 73 100 72 99 72 99 71 98 71 98 70 97 70 97 69 98 69 98 68 99 68 99 67 100 67 100 66 99 66 99 65 98 65 98 64 97 64 97 63 98 63 98 62 99 62 99 61 100 61 100 60 97 60 97 59 98 59 98 58 99 58 99 57 100 57 100 56 99 56 99 55 98 55 98 54 97 54 97 53 98 53 98 52 99 52 99 51 100 51 100 50 97 50 97 49 100 49 100 48 99 48 99 47 98 47 98 46 97 46 97 45 98 45 98 44 99 44 99 43 100 43 100 42 99 42 99 41 98 41 98 40 97 40 97 39 100 39 100 38 99 38 99 37 98 37 98 36 97 36 97 35 98 35 98 34 99 34 99 33 100 33 100 32 99 32 99 31 98 31 98 30 97 30 97 29 98 29 98 28 99 28 99 27 100 27 100 26 99 26 99 25 98 25 98 24 97 24 97 23 98 23 98 22 99 22 99 21 100 21 100 20 97 20 97 19 98 19 98 18 99 18 99 17 100 17 100 16 99 16 99 15 98 15 98 14 97 14 97 13 98 13 98 12 99 12 99 11 100 11 100 10 97 10 97 9 100 9 100 8 99 8 99 7 98 7 98 6 97 6 97 5 98 5"/><polygon points="90 97 89 97 89 96 88 96 88 95 87 95 87 94 88 94 88 93 89 93 89 92 90 92 90 91 87 91 87 90 88 90 88 89 87 89 87 88 90 88 90 87 89 87 89 86 88 86 88 85 87 85 87 84 88 84 88 83 89 83 89 82 90 82 90 81 89 81 89 80 88 80 88 79 87 79 87 78 90 78 90 77 89 77 89 76 88 76 88 75 87 75 87 74 88 74 88 73 89 73 89 72 90 72 90 71 89 71 89 70 88 70 88 69 89 69 89 68 90 68 90 67 89 67 89 66 88 66 88 65 87 65 87 64 88 64 88 63 89 63 89 62 90 62 90 61 87 61 87 60 88 60 88 59 89 59 89 58 90 58 90 57 89 57 89 56 88 56 88 55 87 55 87 54 88 54 88 53 89 53 89 52 90 52 90 51 87 51 87 50 88 50 88 49 87 49 87 48 90 48 90 47 89 47 89 46 88 46 88 45 87 45 87 44 88 44 88 43 89 43 89 42 90 42 90 41 89 41 89 40 88 40 88 39 87 39 87 38 90 38 90 37 89 37 89 36 88 36 88 35 87 35 87 34 88 34 88 33 89 33 89 32 90 32 90 31 89 31 89 30 88 30 88 29 89 29 89 28 90 28 90 27 89 27 89 26 88 26 88 25 87 25 87 24 88 24 88 23 89 23 89 22 90 22 90 21 87 21 87 20 88 20 88 19 89 19 89 18 90 18 90 17 89 17 89 16 88 16 88 15 87 15 87 14 88 14 88 13 89 13 89 12 90 12 90 11 87 11 87 10 88 10 88 9 87 9 87 8 90 8 90 7 89 7 89 6 88 6 88 5 87 5 87 4 88 4 88 3 89 3 89 2 90 2 90 1 89 1 89 0 82 0 82 1 83 1 83 2 82 2 82 3 81 3 81 4 80 4 80 5 81 5 81 6 82 6 82 7 83 7 83 8 80 8 80 9 81 9 81 10 80 10 80 11 83 11 83 12 82 12 82 13 81 13 81 14 80 14 80 15 81 15 81 16 82 16 82 17 83 17 83 18 82 18 82 19 81 19 81 20 80 20 80 21 83 21 83 22 82 22 82 23 81 23 81 24 80 24 80 25 81 25 81 26 82 26 82 27 83 27 83 28 82 28 82 29 81 29 81 30 82 30 82 31 83 31 83 32 82 32 82 33 81 33 81 34 80 34 80 35 81 35 81 36 82 36 82 37 83 37 83 38 80 38 80 39 81 39 81 40 82 40 82 41 83 41 83 42 82 42 82 43 81 43 81 44 80 44 80 45 81 45 81 46 82 46 82 47 83 47 83 48 80 48 80 49 81 49 81 50 80 50 80 51 83 51 83 52 82 52 82 53 81 53 81 54 80 54 80 55 81 55 81 56 82 56 82 57 83 57 83 58 82 58 82 59 81 59 81 60 80 60 80 61 83 61 83 62 82 62 82 63 81 63 81 64 80 64 80 65 81 65 81 66 82 66 82 67 83 67 83 68 82 68 82 69 81 69 81 70 82 70 82 71 83 71 83 72 82 72 82 73 81 73 81 74 80 74 80 75 81 75 81 76 82 76 82 77 83 77 83 78 80 78 80 79 81 79 81 80 82 80 82 81 83 81 83 82 82 82 82 83 81 83 81 84 80 84 80 85 81 85 81 86 82 86 82 87 83 87 83 88 80 88 80 89 81 89 81 90 80 90 80 91 83 91 83 92 82 92 82 93 81 93 81 94 80 94 80 95 81 95 81 96 82 96 82 97 83 97 83 98 82 98 82 99 81 99 81 100 88 100 88 99 89 99 89 98 90 98 90 97"/><polygon points="79 97 78 97 78 96 77 96 77 95 78 95 78 94 79 94 79 93 80 93 80 92 77 92 77 91 78 91 78 90 79 90 79 89 78 89 78 88 77 88 77 87 80 87 80 86 79 86 79 85 78 85 78 84 77 84 77 83 78 83 78 82 79 82 79 81 80 81 80 80 79 80 79 79 78 79 78 78 77 78 77 77 80 77 80 76 79 76 79 75 78 75 78 74 77 74 77 73 78 73 78 72 79 72 79 71 80 71 80 70 79 70 79 69 80 69 80 68 79 68 79 67 78 67 78 66 77 66 77 65 78 65 78 64 79 64 79 63 80 63 80 62 77 62 77 61 78 61 78 60 79 60 79 59 80 59 80 58 79 58 79 57 78 57 78 56 77 56 77 55 78 55 78 54 79 54 79 53 80 53 80 52 77 52 77 51 78 51 78 50 79 50 79 49 78 49 78 48 77 48 77 47 80 47 80 46 79 46 79 45 78 45 78 44 77 44 77 43 78 43 78 42 79 42 79 41 80 41 80 40 79 40 79 39 78 39 78 38 77 38 77 37 80 37 80 36 79 36 79 35 78 35 78 34 77 34 77 33 78 33 78 32 79 32 79 31 80 31 80 30 79 30 79 29 80 29 80 28 79 28 79 27 78 27 78 26 77 26 77 25 78 25 78 24 79 24 79 23 80 23 80 22 77 22 77 21 78 21 78 20 79 20 79 19 80 19 80 18 79 18 79 17 78 17 78 16 77 16 77 15 78 15 78 14 79 14 79 13 80 13 80 12 77 12 77 11 78 11 78 10 79 10 79 9 78 9 78 8 77 8 77 7 80 7 80 6 79 6 79 5 78 5 78 4 77 4 77 3 78 3 78 2 79 2 79 1 80 1 80 0 73 0 73 1 72 1 72 2 71 2 71 3 70 3 70 4 71 4 71 5 72 5 72 6 73 6 73 7 70 7 70 8 71 8 71 9 72 9 72 10 71 10 71 11 70 11 70 12 73 12 73 13 72 13 72 14 71 14 71 15 70 15 70 16 71 16 71 17 72 17 72 18 73 18 73 19 72 19 72 20 71 20 71 21 70 21 70 22 73 22 73 23 72 23 72 24 71 24 71 25 70 25 70 26 71 26 71 27 72 27 72 28 73 28 73 29 72 29 72 30 73 30 73 31 72 31 72 32 71 32 71 33 70 33 70 34 71 34 71 35 72 35 72 36 73 36 73 37 70 37 70 38 71 38 71 39 72 39 72 40 73 40 73 41 72 41 72 42 71 42 71 43 70 43 70 44 71 44 71 45 72 45 72 46 73 46 73 47 70 47 70 48 71 48 71 49 72 49 72 50 71 50 71 51 70 51 70 52 73 52 73 53 72 53 72 54 71 54 71 55 70 55 70 56 71 56 71 57 72 57 72 58 73 58 73 59 72 59 72 60 71 60 71 61 70 61 70 62 73 62 73 63 72 63 72 64 71 64 71 65 70 65 70 66 71 66 71 67 72 67 72 68 73 68 73 69 72 69 72 70 73 70 73 71 72 71 72 72 71 72 71 73 70 73 70 74 71 74 71 75 72 75 72 76 73 76 73 77 70 77 70 78 71 78 71 79 72 79 72 80 73 80 73 81 72 81 72 82 71 82 71 83 70 83 70 84 71 84 71 85 72 85 72 86 73 86 73 87 70 87 70 88 71 88 71 89 72 89 72 90 71 90 71 91 70 91 70 92 73 92 73 93 72 93 72 94 71 94 71 95 70 95 70 96 71 96 71 97 72 97 72 98 73 98 73 99 72 99 72 100 79 100 79 99 80 99 80 98 79 98 79 97"/><polygon points="69 98 68 98 68 97 67 97 67 96 68 96 68 95 69 95 69 94 70 94 70 93 67 93 67 92 68 92 68 91 69 91 69 90 70 90 70 89 69 89 69 88 68 88 68 87 67 87 67 86 70 86 70 85 69 85 69 84 68 84 68 83 67 83 67 82 68 82 68 81 69 81 69 80 70 80 70 79 69 79 69 78 68 78 68 77 67 77 67 76 70 76 70 75 69 75 69 74 68 74 68 73 67 73 67 72 68 72 68 71 69 71 69 70 70 70 70 69 69 69 69 68 68 68 68 67 67 67 67 66 68 66 68 65 69 65 69 64 70 64 70 63 67 63 67 62 68 62 68 61 69 61 69 60 70 60 70 59 69 59 69 58 68 58 68 57 67 57 67 56 68 56 68 55 69 55 69 54 70 54 70 53 67 53 67 52 68 52 68 51 69 51 69 50 70 50 70 49 69 49 69 48 68 48 68 47 67 47 67 46 70 46 70 45 69 45 69 44 68 44 68 43 67 43 67 42 68 42 68 41 69 41 69 40 70 40 70 39 69 39 69 38 68 38 68 37 67 37 67 36 70 36 70 35 69 35 69 34 68 34 68 33 67 33 67 32 68 32 68 31 69 31 69 30 70 30 70 29 69 29 69 28 68 28 68 27 67 27 67 26 68 26 68 25 69 25 69 24 70 24 70 23 67 23 67 22 68 22 68 21 69 21 69 20 70 20 70 19 69 19 69 18 68 18 68 17 67 17 67 16 68 16 68 15 69 15 69 14 70 14 70 13 67 13 67 12 68 12 68 11 69 11 69 10 70 10 70 9 69 9 69 8 68 8 68 7 67 7 67 6 70 6 70 5 69 5 69 4 68 4 68 3 67 3 67 2 68 2 68 1 69 1 69 0 62 0 62 1 61 1 61 2 60 2 60 3 61 3 61 4 62 4 62 5 63 5 63 6 60 6 60 7 61 7 61 8 62 8 62 9 63 9 63 10 62 10 62 11 61 11 61 12 60 12 60 13 63 13 63 14 62 14 62 15 61 15 61 16 60 16 60 17 61 17 61 18 62 18 62 19 63 19 63 20 62 20 62 21 61 21 61 22 60 22 60 23 63 23 63 24 62 24 62 25 61 25 61 26 60 26 60 27 61 27 61 28 62 28 62 29 63 29 63 30 62 30 62 31 61 31 61 32 60 32 60 33 61 33 61 34 62 34 62 35 63 35 63 36 60 36 60 37 61 37 61 38 62 38 62 39 63 39 63 40 62 40 62 41 61 41 61 42 60 42 60 43 61 43 61 44 62 44 62 45 63 45 63 46 60 46 60 47 61 47 61 48 62 48 62 49 63 49 63 50 62 50 62 51 61 51 61 52 60 52 60 53 63 53 63 54 62 54 62 55 61 55 61 56 60 56 60 57 61 57 61 58 62 58 62 59 63 59 63 60 62 60 62 61 61 61 61 62 60 62 60 63 63 63 63 64 62 64 62 65 61 65 61 66 60 66 60 67 61 67 61 68 62 68 62 69 63 69 63 70 62 70 62 71 61 71 61 72 60 72 60 73 61 73 61 74 62 74 62 75 63 75 63 76 60 76 60 77 61 77 61 78 62 78 62 79 63 79 63 80 62 80 62 81 61 81 61 82 60 82 60 83 61 83 61 84 62 84 62 85 63 85 63 86 60 86 60 87 61 87 61 88 62 88 62 89 63 89 63 90 62 90 62 91 61 91 61 92 60 92 60 93 63 93 63 94 62 94 62 95 61 95 61 96 60 96 60 97 61 97 61 98 62 98 62 99 63 99 63 100 70 100 70 99 69 99 69 98"/><polygon points="60 94 57 94 57 93 58 93 58 92 59 92 59 91 60 91 60 90 59 90 59 89 60 89 60 88 59 88 59 87 58 87 58 86 57 86 57 85 60 85 60 84 59 84 59 83 58 83 58 82 57 82 57 81 58 81 58 80 59 80 59 79 60 79 60 78 59 78 59 77 58 77 58 76 57 76 57 75 60 75 60 74 59 74 59 73 58 73 58 72 57 72 57 71 58 71 58 70 59 70 59 69 58 69 58 68 57 68 57 67 58 67 58 66 59 66 59 65 60 65 60 64 57 64 57 63 58 63 58 62 59 62 59 61 60 61 60 60 59 60 59 59 58 59 58 58 57 58 57 57 58 57 58 56 59 56 59 55 60 55 60 54 57 54 57 53 58 53 58 52 59 52 59 51 60 51 60 50 59 50 59 49 60 49 60 48 59 48 59 47 58 47 58 46 57 46 57 45 60 45 60 44 59 44 59 43 58 43 58 42 57 42 57 41 58 41 58 40 59 40 59 39 60 39 60 38 59 38 59 37 58 37 58 36 57 36 57 35 60 35 60 34 59 34 59 33 58 33 58 32 57 32 57 31 58 31 58 30 59 30 59 29 58 29 58 28 57 28 57 27 58 27 58 26 59 26 59 25 60 25 60 24 57 24 57 23 58 23 58 22 59 22 59 21 60 21 60 20 59 20 59 19 58 19 58 18 57 18 57 17 58 17 58 16 59 16 59 15 60 15 60 14 57 14 57 13 58 13 58 12 59 12 59 11 60 11 60 10 59 10 59 9 60 9 60 8 59 8 59 7 58 7 58 6 57 6 57 5 60 5 60 4 59 4 59 3 58 3 58 2 57 2 57 1 58 1 58 0 51 0 51 1 50 1 50 2 51 2 51 3 52 3 52 4 53 4 53 5 50 5 50 6 51 6 51 7 52 7 52 8 53 8 53 9 52 9 52 10 53 10 53 11 52 11 52 12 51 12 51 13 50 13 50 14 53 14 53 15 52 15 52 16 51 16 51 17 50 17 50 18 51 18 51 19 52 19 52 20 53 20 53 21 52 21 52 22 51 22 51 23 50 23 50 24 53 24 53 25 52 25 52 26 51 26 51 27 50 27 50 28 51 28 51 29 52 29 52 30 51 30 51 31 50 31 50 32 51 32 51 33 52 33 52 34 53 34 53 35 50 35 50 36 51 36 51 37 52 37 52 38 53 38 53 39 52 39 52 40 51 40 51 41 50 41 50 42 51 42 51 43 52 43 52 44 53 44 53 45 50 45 50 46 51 46 51 47 52 47 52 48 53 48 53 49 52 49 52 50 53 50 53 51 52 51 52 52 51 52 51 53 50 53 50 54 53 54 53 55 52 55 52 56 51 56 51 57 50 57 50 58 51 58 51 59 52 59 52 60 53 60 53 61 52 61 52 62 51 62 51 63 50 63 50 64 53 64 53 65 52 65 52 66 51 66 51 67 50 67 50 68 51 68 51 69 52 69 52 70 51 70 51 71 50 71 50 72 51 72 51 73 52 73 52 74 53 74 53 75 50 75 50 76 51 76 51 77 52 77 52 78 53 78 53 79 52 79 52 80 51 80 51 81 50 81 50 82 51 82 51 83 52 83 52 84 53 84 53 85 50 85 50 86 51 86 51 87 52 87 52 88 53 88 53 89 52 89 52 90 53 90 53 91 52 91 52 92 51 92 51 93 50 93 50 94 53 94 53 95 52 95 52 96 51 96 51 97 50 97 50 98 51 98 51 99 52 99 52 100 59 100 59 99 58 99 58 98 57 98 57 97 58 97 58 96 59 96 59 95 60 95 60 94"/><polygon points="50 95 47 95 47 94 48 94 48 93 49 93 49 92 50 92 50 91 49 91 49 90 48 90 48 89 49 89 49 88 50 88 50 87 49 87 49 86 48 86 48 85 47 85 47 84 50 84 50 83 49 83 49 82 48 82 48 81 47 81 47 80 48 80 48 79 49 79 49 78 50 78 50 77 49 77 49 76 48 76 48 75 47 75 47 74 50 74 50 73 49 73 49 72 48 72 48 71 47 71 47 70 48 70 48 69 47 69 47 68 48 68 48 67 49 67 49 66 50 66 50 65 47 65 47 64 48 64 48 63 49 63 49 62 50 62 50 61 49 61 49 60 48 60 48 59 47 59 47 58 48 58 48 57 49 57 49 56 50 56 50 55 47 55 47 54 48 54 48 53 49 53 49 52 50 52 50 51 49 51 49 50 48 50 48 49 49 49 49 48 50 48 50 47 49 47 49 46 48 46 48 45 47 45 47 44 50 44 50 43 49 43 49 42 48 42 48 41 47 41 47 40 48 40 48 39 49 39 49 38 50 38 50 37 49 37 49 36 48 36 48 35 47 35 47 34 50 34 50 33 49 33 49 32 48 32 48 31 47 31 47 30 48 30 48 29 47 29 47 28 48 28 48 27 49 27 49 26 50 26 50 25 47 25 47 24 48 24 48 23 49 23 49 22 50 22 50 21 49 21 49 20 48 20 48 19 47 19 47 18 48 18 48 17 49 17 49 16 50 16 50 15 47 15 47 14 48 14 48 13 49 13 49 12 50 12 50 11 49 11 49 10 48 10 48 9 49 9 49 8 50 8 50 7 49 7 49 6 48 6 48 5 47 5 47 4 50 4 50 3 49 3 49 2 48 2 48 1 47 1 47 0 40 0 40 1 41 1 41 2 42 2 42 3 43 3 43 4 40 4 40 5 41 5 41 6 42 6 42 7 43 7 43 8 42 8 42 9 41 9 41 10 42 10 42 11 43 11 43 12 42 12 42 13 41 13 41 14 40 14 40 15 43 15 43 16 42 16 42 17 41 17 41 18 40 18 40 19 41 19 41 20 42 20 42 21 43 21 43 22 42 22 42 23 41 23 41 24 40 24 40 25 43 25 43 26 42 26 42 27 41 27 41 28 40 28 40 29 41 29 41 30 40 30 40 31 41 31 41 32 42 32 42 33 43 33 43 34 40 34 40 35 41 35 41 36 42 36 42 37 43 37 43 38 42 38 42 39 41 39 41 40 40 40 40 41 41 41 41 42 42 42 42 43 43 43 43 44 40 44 40 45 41 45 41 46 42 46 42 47 43 47 43 48 42 48 42 49 41 49 41 50 42 50 42 51 43 51 43 52 42 52 42 53 41 53 41 54 40 54 40 55 43 55 43 56 42 56 42 57 41 57 41 58 40 58 40 59 41 59 41 60 42 60 42 61 43 61 43 62 42 62 42 63 41 63 41 64 40 64 40 65 43 65 43 66 42 66 42 67 41 67 41 68 40 68 40 69 41 69 41 70 40 70 40 71 41 71 41 72 42 72 42 73 43 73 43 74 40 74 40 75 41 75 41 76 42 76 42 77 43 77 43 78 42 78 42 79 41 79 41 80 40 80 40 81 41 81 41 82 42 82 42 83 43 83 43 84 40 84 40 85 41 85 41 86 42 86 42 87 43 87 43 88 42 88 42 89 41 89 41 90 42 90 42 91 43 91 43 92 42 92 42 93 41 93 41 94 40 94 40 95 43 95 43 96 42 96 42 97 41 97 41 98 40 98 40 99 41 99 41 100 48 100 48 99 47 99 47 98 48 98 48 97 49 97 49 96 50 96 50 95"/><polygon points="40 96 37 96 37 95 38 95 38 94 39 94 39 93 40 93 40 92 39 92 39 91 38 91 38 90 37 90 37 89 38 89 38 88 39 88 39 87 40 87 40 86 39 86 39 85 38 85 38 84 37 84 37 83 40 83 40 82 39 82 39 81 38 81 38 80 37 80 37 79 38 79 38 78 39 78 39 77 40 77 40 76 39 76 39 75 38 75 38 74 37 74 37 73 40 73 40 72 39 72 39 71 38 71 38 70 37 70 37 69 38 69 38 68 39 68 39 67 40 67 40 66 37 66 37 65 38 65 38 64 39 64 39 63 40 63 40 62 39 62 39 61 38 61 38 60 37 60 37 59 38 59 38 58 39 58 39 57 40 57 40 56 37 56 37 55 38 55 38 54 39 54 39 53 40 53 40 52 39 52 39 51 38 51 38 50 37 50 37 49 38 49 38 48 39 48 39 47 40 47 40 46 39 46 39 45 38 45 38 44 37 44 37 43 40 43 40 42 39 42 39 41 38 41 38 40 37 40 37 39 38 39 38 38 39 38 39 37 40 37 40 36 39 36 39 35 38 35 38 34 37 34 37 33 40 33 40 32 39 32 39 31 38 31 38 30 37 30 37 29 38 29 38 28 39 28 39 27 40 27 40 26 37 26 37 25 38 25 38 24 39 24 39 23 40 23 40 22 39 22 39 21 38 21 38 20 37 20 37 19 38 19 38 18 39 18 39 17 40 17 40 16 37 16 37 15 38 15 38 14 39 14 39 13 40 13 40 12 39 12 39 11 38 11 38 10 37 10 37 9 38 9 38 8 39 8 39 7 40 7 40 6 39 6 39 5 38 5 38 4 37 4 37 3 40 3 40 2 39 2 39 1 38 1 38 0 31 0 31 1 32 1 32 2 33 2 33 3 30 3 30 4 31 4 31 5 32 5 32 6 33 6 33 7 32 7 32 8 31 8 31 9 30 9 30 10 31 10 31 11 32 11 32 12 33 12 33 13 32 13 32 14 31 14 31 15 30 15 30 16 33 16 33 17 32 17 32 18 31 18 31 19 30 19 30 20 31 20 31 21 32 21 32 22 33 22 33 23 32 23 32 24 31 24 31 25 30 25 30 26 33 26 33 27 32 27 32 28 31 28 31 29 30 29 30 30 31 30 31 31 32 31 32 32 33 32 33 33 30 33 30 34 31 34 31 35 32 35 32 36 33 36 33 37 32 37 32 38 31 38 31 39 30 39 30 40 31 40 31 41 32 41 32 42 33 42 33 43 30 43 30 44 31 44 31 45 32 45 32 46 33 46 33 47 32 47 32 48 31 48 31 49 30 49 30 50 31 50 31 51 32 51 32 52 33 52 33 53 32 53 32 54 31 54 31 55 30 55 30 56 33 56 33 57 32 57 32 58 31 58 31 59 30 59 30 60 31 60 31 61 32 61 32 62 33 62 33 63 32 63 32 64 31 64 31 65 30 65 30 66 33 66 33 67 32 67 32 68 31 68 31 69 30 69 30 70 31 70 31 71 32 71 32 72 33 72 33 73 30 73 30 74 31 74 31 75 32 75 32 76 33 76 33 77 32 77 32 78 31 78 31 79 30 79 30 80 31 80 31 81 32 81 32 82 33 82 33 83 30 83 30 84 31 84 31 85 32 85 32 86 33 86 33 87 32 87 32 88 31 88 31 89 30 89 30 90 31 90 31 91 32 91 32 92 33 92 33 93 32 93 32 94 31 94 31 95 30 95 30 96 33 96 33 97 32 97 32 98 31 98 31 99 30 99 30 100 37 100 37 99 38 99 38 98 39 98 39 97 40 97 40 96"/><polygon points="30 97 27 97 27 96 28 96 28 95 29 95 29 94 30 94 30 93 29 93 29 92 28 92 28 91 27 91 27 90 28 90 28 89 27 89 27 88 28 88 28 87 29 87 29 86 30 86 30 85 29 85 29 84 28 84 28 83 27 83 27 82 30 82 30 81 29 81 29 80 28 80 28 79 27 79 27 78 28 78 28 77 29 77 29 76 30 76 30 75 29 75 29 74 28 74 28 73 27 73 27 72 30 72 30 71 29 71 29 70 28 70 28 69 29 69 29 68 30 68 30 67 27 67 27 66 28 66 28 65 29 65 29 64 30 64 30 63 29 63 29 62 28 62 28 61 27 61 27 60 28 60 28 59 29 59 29 58 30 58 30 57 27 57 27 56 28 56 28 55 29 55 29 54 30 54 30 53 29 53 29 52 28 52 28 51 27 51 27 50 28 50 28 49 27 49 27 48 28 48 28 47 29 47 29 46 30 46 30 45 29 45 29 44 28 44 28 43 27 43 27 42 30 42 30 41 29 41 29 40 28 40 28 39 27 39 27 38 28 38 28 37 29 37 29 36 30 36 30 35 29 35 29 34 28 34 28 33 27 33 27 32 30 32 30 31 29 31 29 30 28 30 28 29 29 29 29 28 30 28 30 27 27 27 27 26 28 26 28 25 29 25 29 24 30 24 30 23 29 23 29 22 28 22 28 21 27 21 27 20 28 20 28 19 29 19 29 18 30 18 30 17 27 17 27 16 28 16 28 15 29 15 29 14 30 14 30 13 29 13 29 12 28 12 28 11 27 11 27 10 28 10 28 9 27 9 27 8 28 8 28 7 29 7 29 6 30 6 30 5 29 5 29 4 28 4 28 3 27 3 27 2 30 2 30 1 29 1 29 0 22 0 22 1 23 1 23 2 20 2 20 3 21 3 21 4 22 4 22 5 23 5 23 6 22 6 22 7 21 7 21 8 20 8 20 9 21 9 21 10 20 10 20 11 21 11 21 12 22 12 22 13 23 13 23 14 22 14 22 15 21 15 21 16 20 16 20 17 23 17 23 18 22 18 22 19 21 19 21 20 20 20 20 21 21 21 21 22 22 22 22 23 23 23 23 24 22 24 22 25 21 25 21 26 20 26 20 27 23 27 23 28 22 28 22 29 21 29 21 30 22 30 22 31 23 31 23 32 20 32 20 33 21 33 21 34 22 34 22 35 23 35 23 36 22 36 22 37 21 37 21 38 20 38 20 39 21 39 21 40 22 40 22 41 23 41 23 42 20 42 20 43 21 43 21 44 22 44 22 45 23 45 23 46 22 46 22 47 21 47 21 48 20 48 20 49 21 49 21 50 20 50 20 51 21 51 21 52 22 52 22 53 23 53 23 54 22 54 22 55 21 55 21 56 20 56 20 57 23 57 23 58 22 58 22 59 21 59 21 60 20 60 20 61 21 61 21 62 22 62 22 63 23 63 23 64 22 64 22 65 21 65 21 66 20 66 20 67 23 67 23 68 22 68 22 69 21 69 21 70 22 70 22 71 23 71 23 72 20 72 20 73 21 73 21 74 22 74 22 75 23 75 23 76 22 76 22 77 21 77 21 78 20 78 20 79 21 79 21 80 22 80 22 81 23 81 23 82 20 82 20 83 21 83 21 84 22 84 22 85 23 85 23 86 22 86 22 87 21 87 21 88 20 88 20 89 21 89 21 90 20 90 20 91 21 91 21 92 22 92 22 93 23 93 23 94 22 94 22 95 21 95 21 96 20 96 20 97 23 97 23 98 22 98 22 99 21 99 21 100 28 100 28 99 29 99 29 98 30 98 30 97"/><polygon points="17 97 18 97 18 96 19 96 19 95 20 95 20 94 19 94 19 93 18 93 18 92 17 92 17 91 18 91 18 90 19 90 19 89 18 89 18 88 17 88 17 87 18 87 18 86 19 86 19 85 20 85 20 84 19 84 19 83 18 83 18 82 17 82 17 81 20 81 20 80 19 80 19 79 18 79 18 78 17 78 17 77 18 77 18 76 19 76 19 75 20 75 20 74 19 74 19 73 18 73 18 72 17 72 17 71 20 71 20 70 19 70 19 69 20 69 20 68 17 68 17 67 18 67 18 66 19 66 19 65 20 65 20 64 19 64 19 63 18 63 18 62 17 62 17 61 18 61 18 60 19 60 19 59 20 59 20 58 17 58 17 57 18 57 18 56 19 56 19 55 20 55 20 54 19 54 19 53 18 53 18 52 17 52 17 51 18 51 18 50 19 50 19 49 18 49 18 48 17 48 17 47 18 47 18 46 19 46 19 45 20 45 20 44 19 44 19 43 18 43 18 42 17 42 17 41 20 41 20 40 19 40 19 39 18 39 18 38 17 38 17 37 18 37 18 36 19 36 19 35 20 35 20 34 19 34 19 33 18 33 18 32 17 32 17 31 20 31 20 30 19 30 19 29 20 29 20 28 17 28 17 27 18 27 18 26 19 26 19 25 20 25 20 24 19 24 19 23 18 23 18 22 17 22 17 21 18 21 18 20 19 20 19 19 20 19 20 18 17 18 17 17 18 17 18 16 19 16 19 15 20 15 20 14 19 14 19 13 18 13 18 12 17 12 17 11 18 11 18 10 19 10 19 9 18 9 18 8 17 8 17 7 18 7 18 6 19 6 19 5 20 5 20 4 19 4 19 3 18 3 18 2 17 2 17 1 20 1 20 0 13 0 13 1 10 1 10 2 11 2 11 3 12 3 12 4 13 4 13 5 12 5 12 6 11 6 11 7 10 7 10 8 11 8 11 9 12 9 12 10 11 10 11 11 10 11 10 12 11 12 11 13 12 13 12 14 13 14 13 15 12 15 12 16 11 16 11 17 10 17 10 18 13 18 13 19 12 19 12 20 11 20 11 21 10 21 10 22 11 22 11 23 12 23 12 24 13 24 13 25 12 25 12 26 11 26 11 27 10 27 10 28 13 28 13 29 12 29 12 30 13 30 13 31 10 31 10 32 11 32 11 33 12 33 12 34 13 34 13 35 12 35 12 36 11 36 11 37 10 37 10 38 11 38 11 39 12 39 12 40 13 40 13 41 10 41 10 42 11 42 11 43 12 43 12 44 13 44 13 45 12 45 12 46 11 46 11 47 10 47 10 48 11 48 11 49 12 49 12 50 11 50 11 51 10 51 10 52 11 52 11 53 12 53 12 54 13 54 13 55 12 55 12 56 11 56 11 57 10 57 10 58 13 58 13 59 12 59 12 60 11 60 11 61 10 61 10 62 11 62 11 63 12 63 12 64 13 64 13 65 12 65 12 66 11 66 11 67 10 67 10 68 13 68 13 69 12 69 12 70 13 70 13 71 10 71 10 72 11 72 11 73 12 73 12 74 13 74 13 75 12 75 12 76 11 76 11 77 10 77 10 78 11 78 11 79 12 79 12 80 13 80 13 81 10 81 10 82 11 82 11 83 12 83 12 84 13 84 13 85 12 85 12 86 11 86 11 87 10 87 10 88 11 88 11 89 12 89 12 90 11 90 11 91 10 91 10 92 11 92 11 93 12 93 12 94 13 94 13 95 12 95 12 96 11 96 11 97 10 97 10 98 13 98 13 99 12 99 12 100 19 100 19 99 20 99 20 98 17 98 17 97"/><polygon points="7 98 8 98 8 97 9 97 9 96 10 96 10 95 9 95 9 94 8 94 8 93 7 93 7 92 8 92 8 91 9 91 9 90 10 90 10 89 9 89 9 88 8 88 8 87 7 87 7 86 8 86 8 85 9 85 9 84 10 84 10 83 9 83 9 82 8 82 8 81 7 81 7 80 10 80 10 79 9 79 9 78 8 78 8 77 7 77 7 76 8 76 8 75 9 75 9 74 10 74 10 73 9 73 9 72 8 72 8 71 7 71 7 70 10 70 10 69 7 69 7 68 8 68 8 67 9 67 9 66 10 66 10 65 9 65 9 64 8 64 8 63 7 63 7 62 8 62 8 61 9 61 9 60 10 60 10 59 7 59 7 58 8 58 8 57 9 57 9 56 10 56 10 55 9 55 9 54 8 54 8 53 7 53 7 52 8 52 8 51 9 51 9 50 10 50 10 49 9 49 9 48 8 48 8 47 7 47 7 46 8 46 8 45 9 45 9 44 10 44 10 43 9 43 9 42 8 42 8 41 7 41 7 40 10 40 10 39 9 39 9 38 8 38 8 37 7 37 7 36 8 36 8 35 9 35 9 34 10 34 10 33 9 33 9 32 8 32 8 31 7 31 7 30 10 30 10 29 7 29 7 28 8 28 8 27 9 27 9 26 10 26 10 25 9 25 9 24 8 24 8 23 7 23 7 22 8 22 8 21 9 21 9 20 10 20 10 19 7 19 7 18 8 18 8 17 9 17 9 16 10 16 10 15 9 15 9 14 8 14 8 13 7 13 7 12 8 12 8 11 9 11 9 10 10 10 10 9 9 9 9 8 8 8 8 7 7 7 7 6 8 6 8 5 9 5 9 4 10 4 10 3 9 3 9 2 8 2 8 1 7 1 7 0 0 0 0 1 1 1 1 2 2 2 2 3 3 3 3 4 2 4 2 5 1 5 1 6 0 6 0 7 1 7 1 8 2 8 2 9 3 9 3 10 2 10 2 11 1 11 1 12 0 12 0 13 1 13 1 14 2 14 2 15 3 15 3 16 2 16 2 17 1 17 1 18 0 18 0 19 3 19 3 20 2 20 2 21 1 21 1 22 0 22 0 23 1 23 1 24 2 24 2 25 3 25 3 26 2 26 2 27 1 27 1 28 0 28 0 29 3 29 3 30 0 30 0 31 1 31 1 32 2 32 2 33 3 33 3 34 2 34 2 35 1 35 1 36 0 36 0 37 1 37 1 38 2 38 2 39 3 39 3 40 0 40 0 41 1 41 1 42 2 42 2 43 3 43 3 44 2 44 2 45 1 45 1 46 0 46 0 47 1 47 1 48 2 48 2 49 3 49 3 50 2 50 2 51 1 51 1 52 0 52 0 53 1 53 1 54 2 54 2 55 3 55 3 56 2 56 2 57 1 57 1 58 0 58 0 59 3 59 3 60 2 60 2 61 1 61 1 62 0 62 0 63 1 63 1 64 2 64 2 65 3 65 3 66 2 66 2 67 1 67 1 68 0 68 0 69 3 69 3 70 0 70 0 71 1 71 1 72 2 72 2 73 3 73 3 74 2 74 2 75 1 75 1 76 0 76 0 77 1 77 1 78 2 78 2 79 3 79 3 80 0 80 0 81 1 81 1 82 2 82 2 83 3 83 3 84 2 84 2 85 1 85 1 86 0 86 0 87 1 87 1 88 2 88 2 89 3 89 3 90 2 90 2 91 1 91 1 92 0 92 0 93 1 93 1 94 2 94 2 95 3 95 3 96 2 96 2 97 1 97 1 98 0 98 0 99 3 99 3 100 10 100 10 99 7 99 7 98"/></svg>