<svg id="Layer_1" data-name="Layer 1" xmlns="http://www.w3.org/2000/svg" viewBox="0 0 100 100"><title>pattern</title><polygon points="9 75 8 75 8 70 7 70 7 65 8 65 8 60 9 60 9 55 10 55 10 50 9 50 9 45 8 45 8 40 7 40 7 35 8 35 8 30 9 30 9 25 10 25 10 20 9 20 9 15 8 15 8 10 7 10 7 5 8 5 8 0 1 0 1 5 0 5 0 10 1 10 1 15 2 15 2 20 3 20 3 25 2 25 2 30 1 30 1 35 0 35 0 40 1 40 1 45 2 45 2 50 3 50 3 55 2 55 2 60 1 60 1 65 0 65 0 70 1 70 1 75 2 75 2 80 3 80 3 85 2 85 2 90 1 90 1 95 0 95 0 100 7 100 7 95 8 95 8 90 9 90 9 85 10 85 10 80 9 80 9 75"/><polygon points="69 75 68 75 68 70 67 70 67 65 68 65 68 60 69 60 69 55 70 55 70 50 69 50 69 45 68 45 68 40 67 40 67 35 68 35 68 30 69 30 69 25 70 25 70 20 69 20 69 15 68 15 68 10 67 10 67 5 68 5 68 0 61 0 61 5 60 5 60 10 61 10 61 15 62 15 62 20 63 20 63 25 62 25 62 30 61 30 61 35 60 35 60 40 61 40 61 45 62 45 62 50 63 50 63 55 62 55 62 60 61 60 61 65 60 65 60 70 61 70 61 75 62 75 62 80 63 80 63 85 62 85 62 90 61 90 61 95 60 95 60 100 67 100 67 95 68 95 68 90 69 90 69 85 70 85 70 80 69 80 69 75"/><polygon points="19 80 18 80 18 75 17 75 17 70 18 70 18 65 19 65 19 60 20 60 20 55 19 55 19 50 18 50 18 45 17 45 17 40 18 40 18 35 19 35 19 30 20 30 20 25 19 25 19 20 18 20 18 15 17 15 17 10 18 10 18 5 19 5 19 0 12 0 12 5 11 5 11 10 10 10 10 15 11 15 11 20 12 20 12 25 13 25 13 30 12 30 12 35 11 35 11 40 10 40 10 45 11 45 11 50 12 50 12 55 13 55 13 60 12 60 12 65 11 65 11 70 10 70 10 75 11 75 11 80 12 80 12 85 13 85 13 90 12 90 12 95 11 95 11 100 18 100 18 95 19 95 19 90 20 90 20 85 19 85 19 80"/><polygon points="60 85 59 85 59 80 58 80 58 75 57 75 57 70 58 70 58 65 59 65 59 60 60 60 60 55 59 55 59 50 58 50 58 45 57 45 57 40 58 40 58 35 59 35 59 30 60 30 60 25 59 25 59 20 58 20 58 15 57 15 57 10 58 10 58 5 59 5 59 0 52 0 52 5 51 5 51 10 50 10 50 15 51 15 51 20 52 20 52 25 53 25 53 30 52 30 52 35 51 35 51 40 50 40 50 45 51 45 51 50 52 50 52 55 53 55 53 60 52 60 52 65 51 65 51 70 50 70 50 75 51 75 51 80 52 80 52 85 53 85 53 90 52 90 52 95 51 95 51 100 58 100 58 95 59 95 59 90 60 90 60 85"/><polygon points="29 85 28 85 28 80 27 80 27 75 28 75 28 70 29 70 29 65 30 65 30 60 29 60 29 55 28 55 28 50 27 50 27 45 28 45 28 40 29 40 29 35 30 35 30 30 29 30 29 25 28 25 28 20 27 20 27 15 28 15 28 10 29 10 29 5 30 5 30 0 23 0 23 5 22 5 22 10 21 10 21 15 20 15 20 20 21 20 21 25 22 25 22 30 23 30 23 35 22 35 22 40 21 40 21 45 20 45 20 50 21 50 21 55 22 55 22 60 23 60 23 65 22 65 22 70 21 70 21 75 20 75 20 80 21 80 21 85 22 85 22 90 23 90 23 95 22 95 22 100 29 100 29 95 30 95 30 90 29 90 29 85"/><polygon points="49 85 48 85 48 80 47 80 47 75 48 75 48 70 49 70 49 65 50 65 50 60 49 60 49 55 48 55 48 50 47 50 47 45 48 45 48 40 49 40 49 35 50 35 50 30 49 30 49 25 48 25 48 20 47 20 47 15 48 15 48 10 49 10 49 5 50 5 50 0 43 0 43 5 42 5 42 10 41 10 41 15 40 15 40 20 41 20 41 25 42 25 42 30 43 30 43 35 42 35 42 40 41 40 41 45 40 45 40 50 41 50 41 55 42 55 42 60 43 60 43 65 42 65 42 70 41 70 41 75 40 75 40 80 41 80 41 85 42 85 42 90 43 90 43 95 42 95 42 100 49 100 49 95 50 95 50 90 49 90 49 85"/><polygon points="39 90 38 90 38 85 37 85 37 80 38 80 38 75 39 75 39 70 40 70 40 65 39 65 39 60 38 60 38 55 37 55 37 50 38 50 38 45 39 45 39 40 40 40 40 35 39 35 39 30 38 30 38 25 37 25 37 20 38 20 38 15 39 15 39 10 40 10 40 5 39 5 39 0 32 0 32 5 33 5 33 10 32 10 32 15 31 15 31 20 30 20 30 25 31 25 31 30 32 30 32 35 33 35 33 40 32 40 32 45 31 45 31 50 30 50 30 55 31 55 31 60 32 60 32 65 33 65 33 70 32 70 32 75 31 75 31 80 30 80 30 85 31 85 31 90 32 90 32 95 33 95 33 100 40 100 40 95 39 95 39 90"/><polygon points="79 80 78 80 78 75 77 75 77 70 78 70 78 65 79 65 79 60 80 60 80 55 79 55 79 50 78 50 78 45 77 45 77 40 78 40 78 35 79 35 79 30 80 30 80 25 79 25 79 20 78 20 78 15 77 15 77 10 78 10 78 5 79 5 79 0 72 0 72 5 71 5 71 10 70 10 70 15 71 15 71 20 72 20 72 25 73 25 73 30 72 30 72 35 71 35 71 40 70 40 70 45 71 45 71 50 72 50 72 55 73 55 73 60 72 60 72 65 71 65 71 70 70 70 70 75 71 75 71 80 72 80 72 85 73 85 73 90 72 90 72 95 71 95 71 100 78 100 78 95 79 95 79 90 80 90 80 85 79 85 79 80"/><polygon points="89 85 88 85 88 80 87 80 87 75 88 75 88 70 89 70 89 65 90 65 90 60 89 60 89 55 88 55 88 50 87 50 87 45 88 45 88 40 89 40 89 35 90 35 90 30 89 30 89 25 88 25 88 20 87 20 87 15 88 15 88 10 89 10 89 5 90 5 90 0 83 0 83 5 82 5 82 10 81 10 81 15 80 15 80 20 81 20 81 25 82 25 82 30 83 30 83 35 82 35 82 40 81 40 81 45 80 45 80 50 81 50 81 55 82 55 82 60 83 60 83 65 82 65 82 70 81 70 81 75 80 75 80 80 81 80 81 85 82 85 82 90 83 90 83 95 82 95 82 100 89 100 89 95 90 95 90 90 89 90 89 85"/><polygon points="98 20 98 15 99 15 99 10 100 10 100 5 99 5 99 0 92 0 92 5 93 5 93 10 92 10 92 15 91 15 91 20 90 20 90 25 91 25 91 30 92 30 92 35 93 35 93 40 92 40 92 45 91 45 91 50 90 50 90 55 91 55 91 60 92 60 92 65 93 65 93 70 92 70 92 75 91 75 91 80 90 80 90 85 91 85 91 90 92 90 92 95 93 95 93 100 100 100 100 95 99 95 99 90 98 90 98 85 97 85 97 80 98 80 98 75 99 75 99 70 100 70 100 65 99 65 99 60 98 60 98 55 97 55 97 50 98 50 98 45 99 45 99 40 100 40 100 35 99 35 99 30 98 30 98 25 97 25 97 20 98 20"/></svg>