<svg id="Layer_1" data-name="Layer 1" xmlns="http://www.w3.org/2000/svg" viewBox="0 0 100 100"><title>pattern</title><rect width="8" height="10"/><rect x="10" width="10" height="8"/><rect x="50" width="10" height="8"/><polygon points="100 8 100 0 82 0 82 10 90 10 90 8 100 8"/><polygon points="82 100 100 100 100 92 90 92 90 90 82 90 82 100"/><polygon points="10 90 2 90 2 100 20 100 20 92 10 92 10 90"/><polygon points="22 80 32 80 32 90 30 90 30 82 20 82 20 80 12 80 12 90 22 90 22 100 30 100 30 98 40 98 40 100 48 100 48 90 40 90 40 88 50 88 50 80 48 80 48 70 40 70 40 72 30 72 30 70 22 70 22 80"/><rect x="50" y="92" width="10" height="8"/><polygon points="80 12 80 2 70 2 70 0 62 0 62 10 72 10 72 20 70 20 70 22 60 22 60 30 58 30 58 20 70 20 70 12 60 12 60 10 52 10 52 20 50 20 50 12 40 12 40 10 48 10 48 0 40 0 40 2 30 2 30 0 22 0 22 10 12 10 12 20 10 20 10 12 0 12 0 28 10 28 10 38 20 38 20 40 12 40 12 50 20 50 20 48 30 48 30 50 22 50 22 60 20 60 20 68 30 68 30 70 38 70 38 60 30 60 30 58 40 58 40 68 50 68 50 78 60 78 60 70 58 70 58 60 48 60 48 50 38 50 38 40 40 40 40 32 30 32 30 40 28 40 28 30 18 30 18 20 20 20 20 18 30 18 30 10 32 10 32 20 20 20 20 28 30 28 30 30 38 30 38 20 40 20 40 28 50 28 50 30 42 30 42 40 40 40 40 48 50 48 50 38 60 38 60 40 68 40 68 30 78 30 78 20 80 20 80 28 90 28 90 20 92 20 92 30 100 30 100 20 98 20 98 10 90 10 90 12 80 12"/><polygon points="52 50 50 50 50 58 60 58 60 50 62 50 62 60 70 60 70 62 60 62 60 70 62 70 62 80 72 80 72 90 70 90 70 82 60 82 60 80 52 80 52 90 62 90 62 100 70 100 70 98 80 98 80 88 90 88 90 90 98 90 98 80 88 80 88 70 80 70 80 72 70 72 70 70 78 70 78 60 80 60 80 52 70 52 70 42 60 42 60 40 52 40 52 50"/><polygon points="92 70 90 70 90 78 100 78 100 60 92 60 92 70"/><rect y="30" width="8" height="10"/><polygon points="90 68 90 58 100 58 100 50 98 50 98 40 100 40 100 32 90 32 90 30 82 30 82 40 90 40 90 42 80 42 80 32 70 32 70 40 72 40 72 50 82 50 82 60 80 60 80 68 90 68"/><polygon points="10 80 8 80 8 70 0 70 0 88 10 88 10 80"/><polygon points="10 52 10 60 8 60 8 50 10 50 10 42 0 42 0 68 10 68 10 78 20 78 20 70 18 70 18 60 20 60 20 52 10 52"/></svg>