<svg id="Layer_1" data-name="Layer 1" xmlns="http://www.w3.org/2000/svg" viewBox="0 0 100 100"><title>pattern</title><polygon points="99 1 99 2 98 2 98 1 97 1 97 0 96 0 96 1 95 1 95 2 94 2 94 1 93 1 93 0 92 0 92 1 91 1 91 2 90 2 90 1 89 1 89 0 88 0 88 1 87 1 87 2 86 2 86 1 85 1 85 0 84 0 84 1 83 1 83 2 82 2 82 1 81 1 81 0 80 0 80 1 79 1 79 2 78 2 78 1 77 1 77 0 76 0 76 1 75 1 75 2 74 2 74 1 73 1 73 0 72 0 72 1 71 1 71 2 70 2 70 1 69 1 69 0 68 0 68 1 67 1 67 2 66 2 66 1 65 1 65 0 64 0 64 1 63 1 63 2 62 2 62 1 61 1 61 0 60 0 60 1 59 1 59 2 58 2 58 1 57 1 57 0 56 0 56 1 55 1 55 2 54 2 54 1 53 1 53 0 52 0 52 1 51 1 51 2 50 2 50 1 49 1 49 0 48 0 48 1 47 1 47 2 46 2 46 1 45 1 45 0 44 0 44 1 43 1 43 2 42 2 42 1 41 1 41 0 40 0 40 1 39 1 39 2 38 2 38 1 37 1 37 0 36 0 36 1 35 1 35 2 34 2 34 1 33 1 33 0 32 0 32 1 31 1 31 2 30 2 30 1 29 1 29 0 28 0 28 1 27 1 27 2 26 2 26 1 25 1 25 0 24 0 24 1 23 1 23 2 22 2 22 1 21 1 21 0 20 0 20 1 19 1 19 2 18 2 18 1 17 1 17 0 16 0 16 1 15 1 15 2 14 2 14 1 13 1 13 0 12 0 12 1 11 1 11 2 10 2 10 1 9 1 9 0 8 0 8 1 7 1 7 2 6 2 6 1 5 1 5 0 4 0 4 1 3 1 3 2 2 2 2 1 1 1 1 0 0 0 0 8 1 8 1 9 2 9 2 10 3 10 3 9 4 9 4 8 5 8 5 9 6 9 6 10 7 10 7 9 8 9 8 8 9 8 9 9 10 9 10 10 11 10 11 9 12 9 12 8 13 8 13 9 14 9 14 10 15 10 15 9 16 9 16 8 17 8 17 9 18 9 18 10 19 10 19 9 20 9 20 8 21 8 21 9 22 9 22 10 23 10 23 9 24 9 24 8 25 8 25 9 26 9 26 10 27 10 27 9 28 9 28 8 29 8 29 9 30 9 30 10 31 10 31 9 32 9 32 8 33 8 33 9 34 9 34 10 35 10 35 9 36 9 36 8 37 8 37 9 38 9 38 10 39 10 39 9 40 9 40 8 41 8 41 9 42 9 42 10 43 10 43 9 44 9 44 8 45 8 45 9 46 9 46 10 47 10 47 9 48 9 48 8 49 8 49 9 50 9 50 10 51 10 51 9 52 9 52 8 53 8 53 9 54 9 54 10 55 10 55 9 56 9 56 8 57 8 57 9 58 9 58 10 59 10 59 9 60 9 60 8 61 8 61 9 62 9 62 10 63 10 63 9 64 9 64 8 65 8 65 9 66 9 66 10 67 10 67 9 68 9 68 8 69 8 69 9 70 9 70 10 71 10 71 9 72 9 72 8 73 8 73 9 74 9 74 10 75 10 75 9 76 9 76 8 77 8 77 9 78 9 78 10 79 10 79 9 80 9 80 8 81 8 81 9 82 9 82 10 83 10 83 9 84 9 84 8 85 8 85 9 86 9 86 10 87 10 87 9 88 9 88 8 89 8 89 9 90 9 90 10 91 10 91 9 92 9 92 8 93 8 93 9 94 9 94 10 95 10 95 9 96 9 96 8 97 8 97 9 98 9 98 10 99 10 99 9 100 9 100 1 99 1"/><polygon points="99 12 98 12 98 11 97 11 97 10 96 10 96 11 95 11 95 12 94 12 94 11 93 11 93 10 92 10 92 11 91 11 91 12 90 12 90 11 89 11 89 10 88 10 88 11 87 11 87 12 86 12 86 11 85 11 85 10 84 10 84 11 83 11 83 12 82 12 82 11 81 11 81 10 80 10 80 11 79 11 79 12 78 12 78 11 77 11 77 10 76 10 76 11 75 11 75 12 74 12 74 11 73 11 73 10 72 10 72 11 71 11 71 12 70 12 70 11 69 11 69 10 68 10 68 11 67 11 67 12 66 12 66 11 65 11 65 10 64 10 64 11 63 11 63 12 62 12 62 11 61 11 61 10 60 10 60 11 59 11 59 12 58 12 58 11 57 11 57 10 56 10 56 11 55 11 55 12 54 12 54 11 53 11 53 10 52 10 52 11 51 11 51 12 50 12 50 11 49 11 49 10 48 10 48 11 47 11 47 12 46 12 46 11 45 11 45 10 44 10 44 11 43 11 43 12 42 12 42 11 41 11 41 10 40 10 40 11 39 11 39 12 38 12 38 11 37 11 37 10 36 10 36 11 35 11 35 12 34 12 34 11 33 11 33 10 32 10 32 11 31 11 31 12 30 12 30 11 29 11 29 10 28 10 28 11 27 11 27 12 26 12 26 11 25 11 25 10 24 10 24 11 23 11 23 12 22 12 22 11 21 11 21 10 20 10 20 11 19 11 19 12 18 12 18 11 17 11 17 10 16 10 16 11 15 11 15 12 14 12 14 11 13 11 13 10 12 10 12 11 11 11 11 12 10 12 10 11 9 11 9 10 8 10 8 11 7 11 7 12 6 12 6 11 5 11 5 10 4 10 4 11 3 11 3 12 2 12 2 11 1 11 1 10 0 10 0 18 1 18 1 19 2 19 2 20 3 20 3 19 4 19 4 18 5 18 5 19 6 19 6 20 7 20 7 19 8 19 8 18 9 18 9 19 10 19 10 20 11 20 11 19 12 19 12 18 13 18 13 19 14 19 14 20 15 20 15 19 16 19 16 18 17 18 17 19 18 19 18 20 19 20 19 19 20 19 20 18 21 18 21 19 22 19 22 20 23 20 23 19 24 19 24 18 25 18 25 19 26 19 26 20 27 20 27 19 28 19 28 18 29 18 29 19 30 19 30 20 31 20 31 19 32 19 32 18 33 18 33 19 34 19 34 20 35 20 35 19 36 19 36 18 37 18 37 19 38 19 38 20 39 20 39 19 40 19 40 18 41 18 41 19 42 19 42 20 43 20 43 19 44 19 44 18 45 18 45 19 46 19 46 20 47 20 47 19 48 19 48 18 49 18 49 19 50 19 50 20 51 20 51 19 52 19 52 18 53 18 53 19 54 19 54 20 55 20 55 19 56 19 56 18 57 18 57 19 58 19 58 20 59 20 59 19 60 19 60 18 61 18 61 19 62 19 62 20 63 20 63 19 64 19 64 18 65 18 65 19 66 19 66 20 67 20 67 19 68 19 68 18 69 18 69 19 70 19 70 20 71 20 71 19 72 19 72 18 73 18 73 19 74 19 74 20 75 20 75 19 76 19 76 18 77 18 77 19 78 19 78 20 79 20 79 19 80 19 80 18 81 18 81 19 82 19 82 20 83 20 83 19 84 19 84 18 85 18 85 19 86 19 86 20 87 20 87 19 88 19 88 18 89 18 89 19 90 19 90 20 91 20 91 19 92 19 92 18 93 18 93 19 94 19 94 20 95 20 95 19 96 19 96 18 97 18 97 19 98 19 98 20 99 20 99 19 100 19 100 11 99 11 99 12"/><polygon points="99 31 98 31 98 30 97 30 97 31 96 31 96 32 95 32 95 31 94 31 94 30 93 30 93 31 92 31 92 32 91 32 91 31 90 31 90 30 89 30 89 31 88 31 88 32 87 32 87 31 86 31 86 30 85 30 85 31 84 31 84 32 83 32 83 31 82 31 82 30 81 30 81 31 80 31 80 32 79 32 79 31 78 31 78 30 77 30 77 31 76 31 76 32 75 32 75 31 74 31 74 30 73 30 73 31 72 31 72 32 71 32 71 31 70 31 70 30 69 30 69 31 68 31 68 32 67 32 67 31 66 31 66 30 65 30 65 31 64 31 64 32 63 32 63 31 62 31 62 30 61 30 61 31 60 31 60 32 59 32 59 31 58 31 58 30 57 30 57 31 56 31 56 32 55 32 55 31 54 31 54 30 53 30 53 31 52 31 52 32 51 32 51 31 50 31 50 30 49 30 49 31 48 31 48 32 47 32 47 31 46 31 46 30 45 30 45 31 44 31 44 32 43 32 43 31 42 31 42 30 41 30 41 31 40 31 40 32 39 32 39 31 38 31 38 30 37 30 37 31 36 31 36 32 35 32 35 31 34 31 34 30 33 30 33 31 32 31 32 32 31 32 31 31 30 31 30 30 29 30 29 31 28 31 28 32 27 32 27 31 26 31 26 30 25 30 25 31 24 31 24 32 23 32 23 31 22 31 22 30 21 30 21 31 20 31 20 32 19 32 19 31 18 31 18 30 17 30 17 31 16 31 16 32 15 32 15 31 14 31 14 30 13 30 13 31 12 31 12 32 11 32 11 31 10 31 10 30 9 30 9 31 8 31 8 32 7 32 7 31 6 31 6 30 5 30 5 31 4 31 4 32 3 32 3 31 2 31 2 30 1 30 1 31 0 31 0 39 1 39 1 38 2 38 2 39 3 39 3 40 4 40 4 39 5 39 5 38 6 38 6 39 7 39 7 40 8 40 8 39 9 39 9 38 10 38 10 39 11 39 11 40 12 40 12 39 13 39 13 38 14 38 14 39 15 39 15 40 16 40 16 39 17 39 17 38 18 38 18 39 19 39 19 40 20 40 20 39 21 39 21 38 22 38 22 39 23 39 23 40 24 40 24 39 25 39 25 38 26 38 26 39 27 39 27 40 28 40 28 39 29 39 29 38 30 38 30 39 31 39 31 40 32 40 32 39 33 39 33 38 34 38 34 39 35 39 35 40 36 40 36 39 37 39 37 38 38 38 38 39 39 39 39 40 40 40 40 39 41 39 41 38 42 38 42 39 43 39 43 40 44 40 44 39 45 39 45 38 46 38 46 39 47 39 47 40 48 40 48 39 49 39 49 38 50 38 50 39 51 39 51 40 52 40 52 39 53 39 53 38 54 38 54 39 55 39 55 40 56 40 56 39 57 39 57 38 58 38 58 39 59 39 59 40 60 40 60 39 61 39 61 38 62 38 62 39 63 39 63 40 64 40 64 39 65 39 65 38 66 38 66 39 67 39 67 40 68 40 68 39 69 39 69 38 70 38 70 39 71 39 71 40 72 40 72 39 73 39 73 38 74 38 74 39 75 39 75 40 76 40 76 39 77 39 77 38 78 38 78 39 79 39 79 40 80 40 80 39 81 39 81 38 82 38 82 39 83 39 83 40 84 40 84 39 85 39 85 38 86 38 86 39 87 39 87 40 88 40 88 39 89 39 89 38 90 38 90 39 91 39 91 40 92 40 92 39 93 39 93 38 94 38 94 39 95 39 95 40 96 40 96 39 97 39 97 38 98 38 98 39 99 39 99 40 100 40 100 32 99 32 99 31"/><polygon points="97 21 96 21 96 22 95 22 95 21 94 21 94 20 93 20 93 21 92 21 92 22 91 22 91 21 90 21 90 20 89 20 89 21 88 21 88 22 87 22 87 21 86 21 86 20 85 20 85 21 84 21 84 22 83 22 83 21 82 21 82 20 81 20 81 21 80 21 80 22 79 22 79 21 78 21 78 20 77 20 77 21 76 21 76 22 75 22 75 21 74 21 74 20 73 20 73 21 72 21 72 22 71 22 71 21 70 21 70 20 69 20 69 21 68 21 68 22 67 22 67 21 66 21 66 20 65 20 65 21 64 21 64 22 63 22 63 21 62 21 62 20 61 20 61 21 60 21 60 22 59 22 59 21 58 21 58 20 57 20 57 21 56 21 56 22 55 22 55 21 54 21 54 20 53 20 53 21 52 21 52 22 51 22 51 21 50 21 50 20 49 20 49 21 48 21 48 22 47 22 47 21 46 21 46 20 45 20 45 21 44 21 44 22 43 22 43 21 42 21 42 20 41 20 41 21 40 21 40 22 39 22 39 21 38 21 38 20 37 20 37 21 36 21 36 22 35 22 35 21 34 21 34 20 33 20 33 21 32 21 32 22 31 22 31 21 30 21 30 20 29 20 29 21 28 21 28 22 27 22 27 21 26 21 26 20 25 20 25 21 24 21 24 22 23 22 23 21 22 21 22 20 21 20 21 21 20 21 20 22 19 22 19 21 18 21 18 20 17 20 17 21 16 21 16 22 15 22 15 21 14 21 14 20 13 20 13 21 12 21 12 22 11 22 11 21 10 21 10 20 9 20 9 21 8 21 8 22 7 22 7 21 6 21 6 20 5 20 5 21 4 21 4 22 3 22 3 21 2 21 2 20 1 20 1 21 0 21 0 29 1 29 1 28 2 28 2 29 3 29 3 30 4 30 4 29 5 29 5 28 6 28 6 29 7 29 7 30 8 30 8 29 9 29 9 28 10 28 10 29 11 29 11 30 12 30 12 29 13 29 13 28 14 28 14 29 15 29 15 30 16 30 16 29 17 29 17 28 18 28 18 29 19 29 19 30 20 30 20 29 21 29 21 28 22 28 22 29 23 29 23 30 24 30 24 29 25 29 25 28 26 28 26 29 27 29 27 30 28 30 28 29 29 29 29 28 30 28 30 29 31 29 31 30 32 30 32 29 33 29 33 28 34 28 34 29 35 29 35 30 36 30 36 29 37 29 37 28 38 28 38 29 39 29 39 30 40 30 40 29 41 29 41 28 42 28 42 29 43 29 43 30 44 30 44 29 45 29 45 28 46 28 46 29 47 29 47 30 48 30 48 29 49 29 49 28 50 28 50 29 51 29 51 30 52 30 52 29 53 29 53 28 54 28 54 29 55 29 55 30 56 30 56 29 57 29 57 28 58 28 58 29 59 29 59 30 60 30 60 29 61 29 61 28 62 28 62 29 63 29 63 30 64 30 64 29 65 29 65 28 66 28 66 29 67 29 67 30 68 30 68 29 69 29 69 28 70 28 70 29 71 29 71 30 72 30 72 29 73 29 73 28 74 28 74 29 75 29 75 30 76 30 76 29 77 29 77 28 78 28 78 29 79 29 79 30 80 30 80 29 81 29 81 28 82 28 82 29 83 29 83 30 84 30 84 29 85 29 85 28 86 28 86 29 87 29 87 30 88 30 88 29 89 29 89 28 90 28 90 29 91 29 91 30 92 30 92 29 93 29 93 28 94 28 94 29 95 29 95 30 96 30 96 29 97 29 97 28 98 28 98 29 99 29 99 30 100 30 100 22 99 22 99 21 98 21 98 20 97 20 97 21"/><polygon points="95 41 95 42 94 42 94 41 93 41 93 40 92 40 92 41 91 41 91 42 90 42 90 41 89 41 89 40 88 40 88 41 87 41 87 42 86 42 86 41 85 41 85 40 84 40 84 41 83 41 83 42 82 42 82 41 81 41 81 40 80 40 80 41 79 41 79 42 78 42 78 41 77 41 77 40 76 40 76 41 75 41 75 42 74 42 74 41 73 41 73 40 72 40 72 41 71 41 71 42 70 42 70 41 69 41 69 40 68 40 68 41 67 41 67 42 66 42 66 41 65 41 65 40 64 40 64 41 63 41 63 42 62 42 62 41 61 41 61 40 60 40 60 41 59 41 59 42 58 42 58 41 57 41 57 40 56 40 56 41 55 41 55 42 54 42 54 41 53 41 53 40 52 40 52 41 51 41 51 42 50 42 50 41 49 41 49 40 48 40 48 41 47 41 47 42 46 42 46 41 45 41 45 40 44 40 44 41 43 41 43 42 42 42 42 41 41 41 41 40 40 40 40 41 39 41 39 42 38 42 38 41 37 41 37 40 36 40 36 41 35 41 35 42 34 42 34 41 33 41 33 40 32 40 32 41 31 41 31 42 30 42 30 41 29 41 29 40 28 40 28 41 27 41 27 42 26 42 26 41 25 41 25 40 24 40 24 41 23 41 23 42 22 42 22 41 21 41 21 40 20 40 20 41 19 41 19 42 18 42 18 41 17 41 17 40 16 40 16 41 15 41 15 42 14 42 14 41 13 41 13 40 12 40 12 41 11 41 11 42 10 42 10 41 9 41 9 40 8 40 8 41 7 41 7 42 6 42 6 41 5 41 5 40 4 40 4 41 3 41 3 42 2 42 2 41 1 41 1 40 0 40 0 48 1 48 1 49 2 49 2 50 3 50 3 49 4 49 4 48 5 48 5 49 6 49 6 50 7 50 7 49 8 49 8 48 9 48 9 49 10 49 10 50 11 50 11 49 12 49 12 48 13 48 13 49 14 49 14 50 15 50 15 49 16 49 16 48 17 48 17 49 18 49 18 50 19 50 19 49 20 49 20 48 21 48 21 49 22 49 22 50 23 50 23 49 24 49 24 48 25 48 25 49 26 49 26 50 27 50 27 49 28 49 28 48 29 48 29 49 30 49 30 50 31 50 31 49 32 49 32 48 33 48 33 49 34 49 34 50 35 50 35 49 36 49 36 48 37 48 37 49 38 49 38 50 39 50 39 49 40 49 40 48 41 48 41 49 42 49 42 50 43 50 43 49 44 49 44 48 45 48 45 49 46 49 46 50 47 50 47 49 48 49 48 48 49 48 49 49 50 49 50 50 51 50 51 49 52 49 52 48 53 48 53 49 54 49 54 50 55 50 55 49 56 49 56 48 57 48 57 49 58 49 58 50 59 50 59 49 60 49 60 48 61 48 61 49 62 49 62 50 63 50 63 49 64 49 64 48 65 48 65 49 66 49 66 50 67 50 67 49 68 49 68 48 69 48 69 49 70 49 70 50 71 50 71 49 72 49 72 48 73 48 73 49 74 49 74 50 75 50 75 49 76 49 76 48 77 48 77 49 78 49 78 50 79 50 79 49 80 49 80 48 81 48 81 49 82 49 82 50 83 50 83 49 84 49 84 48 85 48 85 49 86 49 86 50 87 50 87 49 88 49 88 48 89 48 89 49 90 49 90 50 91 50 91 49 92 49 92 48 93 48 93 49 94 49 94 50 95 50 95 49 96 49 96 48 97 48 97 49 98 49 98 50 99 50 99 49 100 49 100 41 99 41 99 42 98 42 98 41 97 41 97 40 96 40 96 41 95 41"/><polygon points="99 52 98 52 98 51 97 51 97 50 96 50 96 51 95 51 95 52 94 52 94 51 93 51 93 50 92 50 92 51 91 51 91 52 90 52 90 51 89 51 89 50 88 50 88 51 87 51 87 52 86 52 86 51 85 51 85 50 84 50 84 51 83 51 83 52 82 52 82 51 81 51 81 50 80 50 80 51 79 51 79 52 78 52 78 51 77 51 77 50 76 50 76 51 75 51 75 52 74 52 74 51 73 51 73 50 72 50 72 51 71 51 71 52 70 52 70 51 69 51 69 50 68 50 68 51 67 51 67 52 66 52 66 51 65 51 65 50 64 50 64 51 63 51 63 52 62 52 62 51 61 51 61 50 60 50 60 51 59 51 59 52 58 52 58 51 57 51 57 50 56 50 56 51 55 51 55 52 54 52 54 51 53 51 53 50 52 50 52 51 51 51 51 52 50 52 50 51 49 51 49 50 48 50 48 51 47 51 47 52 46 52 46 51 45 51 45 50 44 50 44 51 43 51 43 52 42 52 42 51 41 51 41 50 40 50 40 51 39 51 39 52 38 52 38 51 37 51 37 50 36 50 36 51 35 51 35 52 34 52 34 51 33 51 33 50 32 50 32 51 31 51 31 52 30 52 30 51 29 51 29 50 28 50 28 51 27 51 27 52 26 52 26 51 25 51 25 50 24 50 24 51 23 51 23 52 22 52 22 51 21 51 21 50 20 50 20 51 19 51 19 52 18 52 18 51 17 51 17 50 16 50 16 51 15 51 15 52 14 52 14 51 13 51 13 50 12 50 12 51 11 51 11 52 10 52 10 51 9 51 9 50 8 50 8 51 7 51 7 52 6 52 6 51 5 51 5 50 4 50 4 51 3 51 3 52 2 52 2 51 1 51 1 50 0 50 0 58 1 58 1 59 2 59 2 60 3 60 3 59 4 59 4 58 5 58 5 59 6 59 6 60 7 60 7 59 8 59 8 58 9 58 9 59 10 59 10 60 11 60 11 59 12 59 12 58 13 58 13 59 14 59 14 60 15 60 15 59 16 59 16 58 17 58 17 59 18 59 18 60 19 60 19 59 20 59 20 58 21 58 21 59 22 59 22 60 23 60 23 59 24 59 24 58 25 58 25 59 26 59 26 60 27 60 27 59 28 59 28 58 29 58 29 59 30 59 30 60 31 60 31 59 32 59 32 58 33 58 33 59 34 59 34 60 35 60 35 59 36 59 36 58 37 58 37 59 38 59 38 60 39 60 39 59 40 59 40 58 41 58 41 59 42 59 42 60 43 60 43 59 44 59 44 58 45 58 45 59 46 59 46 60 47 60 47 59 48 59 48 58 49 58 49 59 50 59 50 60 51 60 51 59 52 59 52 58 53 58 53 59 54 59 54 60 55 60 55 59 56 59 56 58 57 58 57 59 58 59 58 60 59 60 59 59 60 59 60 58 61 58 61 59 62 59 62 60 63 60 63 59 64 59 64 58 65 58 65 59 66 59 66 60 67 60 67 59 68 59 68 58 69 58 69 59 70 59 70 60 71 60 71 59 72 59 72 58 73 58 73 59 74 59 74 60 75 60 75 59 76 59 76 58 77 58 77 59 78 59 78 60 79 60 79 59 80 59 80 58 81 58 81 59 82 59 82 60 83 60 83 59 84 59 84 58 85 58 85 59 86 59 86 60 87 60 87 59 88 59 88 58 89 58 89 59 90 59 90 60 91 60 91 59 92 59 92 58 93 58 93 59 94 59 94 60 95 60 95 59 96 59 96 58 97 58 97 59 98 59 98 60 99 60 99 59 100 59 100 51 99 51 99 52"/><polygon points="99 71 98 71 98 70 97 70 97 71 96 71 96 72 95 72 95 71 94 71 94 70 93 70 93 71 92 71 92 72 91 72 91 71 90 71 90 70 89 70 89 71 88 71 88 72 87 72 87 71 86 71 86 70 85 70 85 71 84 71 84 72 83 72 83 71 82 71 82 70 81 70 81 71 80 71 80 72 79 72 79 71 78 71 78 70 77 70 77 71 76 71 76 72 75 72 75 71 74 71 74 70 73 70 73 71 72 71 72 72 71 72 71 71 70 71 70 70 69 70 69 71 68 71 68 72 67 72 67 71 66 71 66 70 65 70 65 71 64 71 64 72 63 72 63 71 62 71 62 70 61 70 61 71 60 71 60 72 59 72 59 71 58 71 58 70 57 70 57 71 56 71 56 72 55 72 55 71 54 71 54 70 53 70 53 71 52 71 52 72 51 72 51 71 50 71 50 70 49 70 49 71 48 71 48 72 47 72 47 71 46 71 46 70 45 70 45 71 44 71 44 72 43 72 43 71 42 71 42 70 41 70 41 71 40 71 40 72 39 72 39 71 38 71 38 70 37 70 37 71 36 71 36 72 35 72 35 71 34 71 34 70 33 70 33 71 32 71 32 72 31 72 31 71 30 71 30 70 29 70 29 71 28 71 28 72 27 72 27 71 26 71 26 70 25 70 25 71 24 71 24 72 23 72 23 71 22 71 22 70 21 70 21 71 20 71 20 72 19 72 19 71 18 71 18 70 17 70 17 71 16 71 16 72 15 72 15 71 14 71 14 70 13 70 13 71 12 71 12 72 11 72 11 71 10 71 10 70 9 70 9 71 8 71 8 72 7 72 7 71 6 71 6 70 5 70 5 71 4 71 4 72 3 72 3 71 2 71 2 70 1 70 1 71 0 71 0 79 1 79 1 78 2 78 2 79 3 79 3 80 4 80 4 79 5 79 5 78 6 78 6 79 7 79 7 80 8 80 8 79 9 79 9 78 10 78 10 79 11 79 11 80 12 80 12 79 13 79 13 78 14 78 14 79 15 79 15 80 16 80 16 79 17 79 17 78 18 78 18 79 19 79 19 80 20 80 20 79 21 79 21 78 22 78 22 79 23 79 23 80 24 80 24 79 25 79 25 78 26 78 26 79 27 79 27 80 28 80 28 79 29 79 29 78 30 78 30 79 31 79 31 80 32 80 32 79 33 79 33 78 34 78 34 79 35 79 35 80 36 80 36 79 37 79 37 78 38 78 38 79 39 79 39 80 40 80 40 79 41 79 41 78 42 78 42 79 43 79 43 80 44 80 44 79 45 79 45 78 46 78 46 79 47 79 47 80 48 80 48 79 49 79 49 78 50 78 50 79 51 79 51 80 52 80 52 79 53 79 53 78 54 78 54 79 55 79 55 80 56 80 56 79 57 79 57 78 58 78 58 79 59 79 59 80 60 80 60 79 61 79 61 78 62 78 62 79 63 79 63 80 64 80 64 79 65 79 65 78 66 78 66 79 67 79 67 80 68 80 68 79 69 79 69 78 70 78 70 79 71 79 71 80 72 80 72 79 73 79 73 78 74 78 74 79 75 79 75 80 76 80 76 79 77 79 77 78 78 78 78 79 79 79 79 80 80 80 80 79 81 79 81 78 82 78 82 79 83 79 83 80 84 80 84 79 85 79 85 78 86 78 86 79 87 79 87 80 88 80 88 79 89 79 89 78 90 78 90 79 91 79 91 80 92 80 92 79 93 79 93 78 94 78 94 79 95 79 95 80 96 80 96 79 97 79 97 78 98 78 98 79 99 79 99 80 100 80 100 72 99 72 99 71"/><polygon points="97 61 96 61 96 62 95 62 95 61 94 61 94 60 93 60 93 61 92 61 92 62 91 62 91 61 90 61 90 60 89 60 89 61 88 61 88 62 87 62 87 61 86 61 86 60 85 60 85 61 84 61 84 62 83 62 83 61 82 61 82 60 81 60 81 61 80 61 80 62 79 62 79 61 78 61 78 60 77 60 77 61 76 61 76 62 75 62 75 61 74 61 74 60 73 60 73 61 72 61 72 62 71 62 71 61 70 61 70 60 69 60 69 61 68 61 68 62 67 62 67 61 66 61 66 60 65 60 65 61 64 61 64 62 63 62 63 61 62 61 62 60 61 60 61 61 60 61 60 62 59 62 59 61 58 61 58 60 57 60 57 61 56 61 56 62 55 62 55 61 54 61 54 60 53 60 53 61 52 61 52 62 51 62 51 61 50 61 50 60 49 60 49 61 48 61 48 62 47 62 47 61 46 61 46 60 45 60 45 61 44 61 44 62 43 62 43 61 42 61 42 60 41 60 41 61 40 61 40 62 39 62 39 61 38 61 38 60 37 60 37 61 36 61 36 62 35 62 35 61 34 61 34 60 33 60 33 61 32 61 32 62 31 62 31 61 30 61 30 60 29 60 29 61 28 61 28 62 27 62 27 61 26 61 26 60 25 60 25 61 24 61 24 62 23 62 23 61 22 61 22 60 21 60 21 61 20 61 20 62 19 62 19 61 18 61 18 60 17 60 17 61 16 61 16 62 15 62 15 61 14 61 14 60 13 60 13 61 12 61 12 62 11 62 11 61 10 61 10 60 9 60 9 61 8 61 8 62 7 62 7 61 6 61 6 60 5 60 5 61 4 61 4 62 3 62 3 61 2 61 2 60 1 60 1 61 0 61 0 69 1 69 1 68 2 68 2 69 3 69 3 70 4 70 4 69 5 69 5 68 6 68 6 69 7 69 7 70 8 70 8 69 9 69 9 68 10 68 10 69 11 69 11 70 12 70 12 69 13 69 13 68 14 68 14 69 15 69 15 70 16 70 16 69 17 69 17 68 18 68 18 69 19 69 19 70 20 70 20 69 21 69 21 68 22 68 22 69 23 69 23 70 24 70 24 69 25 69 25 68 26 68 26 69 27 69 27 70 28 70 28 69 29 69 29 68 30 68 30 69 31 69 31 70 32 70 32 69 33 69 33 68 34 68 34 69 35 69 35 70 36 70 36 69 37 69 37 68 38 68 38 69 39 69 39 70 40 70 40 69 41 69 41 68 42 68 42 69 43 69 43 70 44 70 44 69 45 69 45 68 46 68 46 69 47 69 47 70 48 70 48 69 49 69 49 68 50 68 50 69 51 69 51 70 52 70 52 69 53 69 53 68 54 68 54 69 55 69 55 70 56 70 56 69 57 69 57 68 58 68 58 69 59 69 59 70 60 70 60 69 61 69 61 68 62 68 62 69 63 69 63 70 64 70 64 69 65 69 65 68 66 68 66 69 67 69 67 70 68 70 68 69 69 69 69 68 70 68 70 69 71 69 71 70 72 70 72 69 73 69 73 68 74 68 74 69 75 69 75 70 76 70 76 69 77 69 77 68 78 68 78 69 79 69 79 70 80 70 80 69 81 69 81 68 82 68 82 69 83 69 83 70 84 70 84 69 85 69 85 68 86 68 86 69 87 69 87 70 88 70 88 69 89 69 89 68 90 68 90 69 91 69 91 70 92 70 92 69 93 69 93 68 94 68 94 69 95 69 95 70 96 70 96 69 97 69 97 68 98 68 98 69 99 69 99 70 100 70 100 62 99 62 99 61 98 61 98 60 97 60 97 61"/><polygon points="95 81 95 82 94 82 94 81 93 81 93 80 92 80 92 81 91 81 91 82 90 82 90 81 89 81 89 80 88 80 88 81 87 81 87 82 86 82 86 81 85 81 85 80 84 80 84 81 83 81 83 82 82 82 82 81 81 81 81 80 80 80 80 81 79 81 79 82 78 82 78 81 77 81 77 80 76 80 76 81 75 81 75 82 74 82 74 81 73 81 73 80 72 80 72 81 71 81 71 82 70 82 70 81 69 81 69 80 68 80 68 81 67 81 67 82 66 82 66 81 65 81 65 80 64 80 64 81 63 81 63 82 62 82 62 81 61 81 61 80 60 80 60 81 59 81 59 82 58 82 58 81 57 81 57 80 56 80 56 81 55 81 55 82 54 82 54 81 53 81 53 80 52 80 52 81 51 81 51 82 50 82 50 81 49 81 49 80 48 80 48 81 47 81 47 82 46 82 46 81 45 81 45 80 44 80 44 81 43 81 43 82 42 82 42 81 41 81 41 80 40 80 40 81 39 81 39 82 38 82 38 81 37 81 37 80 36 80 36 81 35 81 35 82 34 82 34 81 33 81 33 80 32 80 32 81 31 81 31 82 30 82 30 81 29 81 29 80 28 80 28 81 27 81 27 82 26 82 26 81 25 81 25 80 24 80 24 81 23 81 23 82 22 82 22 81 21 81 21 80 20 80 20 81 19 81 19 82 18 82 18 81 17 81 17 80 16 80 16 81 15 81 15 82 14 82 14 81 13 81 13 80 12 80 12 81 11 81 11 82 10 82 10 81 9 81 9 80 8 80 8 81 7 81 7 82 6 82 6 81 5 81 5 80 4 80 4 81 3 81 3 82 2 82 2 81 1 81 1 80 0 80 0 88 1 88 1 89 2 89 2 90 3 90 3 89 4 89 4 88 5 88 5 89 6 89 6 90 7 90 7 89 8 89 8 88 9 88 9 89 10 89 10 90 11 90 11 89 12 89 12 88 13 88 13 89 14 89 14 90 15 90 15 89 16 89 16 88 17 88 17 89 18 89 18 90 19 90 19 89 20 89 20 88 21 88 21 89 22 89 22 90 23 90 23 89 24 89 24 88 25 88 25 89 26 89 26 90 27 90 27 89 28 89 28 88 29 88 29 89 30 89 30 90 31 90 31 89 32 89 32 88 33 88 33 89 34 89 34 90 35 90 35 89 36 89 36 88 37 88 37 89 38 89 38 90 39 90 39 89 40 89 40 88 41 88 41 89 42 89 42 90 43 90 43 89 44 89 44 88 45 88 45 89 46 89 46 90 47 90 47 89 48 89 48 88 49 88 49 89 50 89 50 90 51 90 51 89 52 89 52 88 53 88 53 89 54 89 54 90 55 90 55 89 56 89 56 88 57 88 57 89 58 89 58 90 59 90 59 89 60 89 60 88 61 88 61 89 62 89 62 90 63 90 63 89 64 89 64 88 65 88 65 89 66 89 66 90 67 90 67 89 68 89 68 88 69 88 69 89 70 89 70 90 71 90 71 89 72 89 72 88 73 88 73 89 74 89 74 90 75 90 75 89 76 89 76 88 77 88 77 89 78 89 78 90 79 90 79 89 80 89 80 88 81 88 81 89 82 89 82 90 83 90 83 89 84 89 84 88 85 88 85 89 86 89 86 90 87 90 87 89 88 89 88 88 89 88 89 89 90 89 90 90 91 90 91 89 92 89 92 88 93 88 93 89 94 89 94 90 95 90 95 89 96 89 96 88 97 88 97 89 98 89 98 90 99 90 99 89 100 89 100 81 99 81 99 82 98 82 98 81 97 81 97 80 96 80 96 81 95 81"/><polygon points="99 92 98 92 98 91 97 91 97 90 96 90 96 91 95 91 95 92 94 92 94 91 93 91 93 90 92 90 92 91 91 91 91 92 90 92 90 91 89 91 89 90 88 90 88 91 87 91 87 92 86 92 86 91 85 91 85 90 84 90 84 91 83 91 83 92 82 92 82 91 81 91 81 90 80 90 80 91 79 91 79 92 78 92 78 91 77 91 77 90 76 90 76 91 75 91 75 92 74 92 74 91 73 91 73 90 72 90 72 91 71 91 71 92 70 92 70 91 69 91 69 90 68 90 68 91 67 91 67 92 66 92 66 91 65 91 65 90 64 90 64 91 63 91 63 92 62 92 62 91 61 91 61 90 60 90 60 91 59 91 59 92 58 92 58 91 57 91 57 90 56 90 56 91 55 91 55 92 54 92 54 91 53 91 53 90 52 90 52 91 51 91 51 92 50 92 50 91 49 91 49 90 48 90 48 91 47 91 47 92 46 92 46 91 45 91 45 90 44 90 44 91 43 91 43 92 42 92 42 91 41 91 41 90 40 90 40 91 39 91 39 92 38 92 38 91 37 91 37 90 36 90 36 91 35 91 35 92 34 92 34 91 33 91 33 90 32 90 32 91 31 91 31 92 30 92 30 91 29 91 29 90 28 90 28 91 27 91 27 92 26 92 26 91 25 91 25 90 24 90 24 91 23 91 23 92 22 92 22 91 21 91 21 90 20 90 20 91 19 91 19 92 18 92 18 91 17 91 17 90 16 90 16 91 15 91 15 92 14 92 14 91 13 91 13 90 12 90 12 91 11 91 11 92 10 92 10 91 9 91 9 90 8 90 8 91 7 91 7 92 6 92 6 91 5 91 5 90 4 90 4 91 3 91 3 92 2 92 2 91 1 91 1 90 0 90 0 98 1 98 1 99 2 99 2 100 3 100 3 99 4 99 4 98 5 98 5 99 6 99 6 100 7 100 7 99 8 99 8 98 9 98 9 99 10 99 10 100 11 100 11 99 12 99 12 98 13 98 13 99 14 99 14 100 15 100 15 99 16 99 16 98 17 98 17 99 18 99 18 100 19 100 19 99 20 99 20 98 21 98 21 99 22 99 22 100 23 100 23 99 24 99 24 98 25 98 25 99 26 99 26 100 27 100 27 99 28 99 28 98 29 98 29 99 30 99 30 100 31 100 31 99 32 99 32 98 33 98 33 99 34 99 34 100 35 100 35 99 36 99 36 98 37 98 37 99 38 99 38 100 39 100 39 99 40 99 40 98 41 98 41 99 42 99 42 100 43 100 43 99 44 99 44 98 45 98 45 99 46 99 46 100 47 100 47 99 48 99 48 98 49 98 49 99 50 99 50 100 51 100 51 99 52 99 52 98 53 98 53 99 54 99 54 100 55 100 55 99 56 99 56 98 57 98 57 99 58 99 58 100 59 100 59 99 60 99 60 98 61 98 61 99 62 99 62 100 63 100 63 99 64 99 64 98 65 98 65 99 66 99 66 100 67 100 67 99 68 99 68 98 69 98 69 99 70 99 70 100 71 100 71 99 72 99 72 98 73 98 73 99 74 99 74 100 75 100 75 99 76 99 76 98 77 98 77 99 78 99 78 100 79 100 79 99 80 99 80 98 81 98 81 99 82 99 82 100 83 100 83 99 84 99 84 98 85 98 85 99 86 99 86 100 87 100 87 99 88 99 88 98 89 98 89 99 90 99 90 100 91 100 91 99 92 99 92 98 93 98 93 99 94 99 94 100 95 100 95 99 96 99 96 98 97 98 97 99 98 99 98 100 99 100 99 99 100 99 100 91 99 91 99 92"/></svg>