<svg id="Layer_1" data-name="Layer 1" xmlns="http://www.w3.org/2000/svg" viewBox="0 0 100 100"><title>pattern</title><polygon points="2 8 2 7 3 7 3 6 4 6 4 5 5 5 5 4 6 4 6 3 7 3 7 2 8 2 8 1 9 1 9 0 0 0 0 9 1 9 1 8 2 8"/><polygon points="12 2 13 2 13 3 14 3 14 4 15 4 15 5 16 5 16 6 17 6 17 7 18 7 18 8 19 8 19 9 21 9 21 8 22 8 22 7 23 7 23 6 24 6 24 5 25 5 25 4 26 4 26 3 27 3 27 2 28 2 28 1 29 1 29 0 11 0 11 1 12 1 12 2"/><polygon points="2 12 3 12 3 13 4 13 4 14 5 14 5 15 6 15 6 16 7 16 7 17 8 17 8 18 9 18 9 19 11 19 11 18 12 18 12 17 13 17 13 16 14 16 14 15 15 15 15 14 16 14 16 13 17 13 17 12 18 12 18 11 19 11 19 9 18 9 18 8 17 8 17 7 16 7 16 6 15 6 15 5 14 5 14 4 13 4 13 3 12 3 12 2 11 2 11 1 9 1 9 2 8 2 8 3 7 3 7 4 6 4 6 5 5 5 5 6 4 6 4 7 3 7 3 8 2 8 2 9 1 9 1 11 2 11 2 12"/><polygon points="28 2 28 3 27 3 27 4 26 4 26 5 25 5 25 6 24 6 24 7 23 7 23 8 22 8 22 9 21 9 21 11 22 11 22 12 23 12 23 13 24 13 24 14 25 14 25 15 26 15 26 16 27 16 27 17 28 17 28 18 29 18 29 19 31 19 31 18 32 18 32 17 33 17 33 16 34 16 34 15 35 15 35 14 36 14 36 13 37 13 37 12 38 12 38 11 39 11 39 9 38 9 38 8 37 8 37 7 36 7 36 6 35 6 35 5 34 5 34 4 33 4 33 3 32 3 32 2 31 2 31 1 29 1 29 2 28 2"/><polygon points="32 2 33 2 33 3 34 3 34 4 35 4 35 5 36 5 36 6 37 6 37 7 38 7 38 8 39 8 39 9 41 9 41 8 42 8 42 7 43 7 43 6 44 6 44 5 45 5 45 4 46 4 46 3 47 3 47 2 48 2 48 1 49 1 49 0 31 0 31 1 32 1 32 2"/><polygon points="48 2 48 3 47 3 47 4 46 4 46 5 45 5 45 6 44 6 44 7 43 7 43 8 42 8 42 9 41 9 41 11 42 11 42 12 43 12 43 13 44 13 44 14 45 14 45 15 46 15 46 16 47 16 47 17 48 17 48 18 49 18 49 19 51 19 51 18 52 18 52 17 53 17 53 16 54 16 54 15 55 15 55 14 56 14 56 13 57 13 57 12 58 12 58 11 59 11 59 9 58 9 58 8 57 8 57 7 56 7 56 6 55 6 55 5 54 5 54 4 53 4 53 3 52 3 52 2 51 2 51 1 49 1 49 2 48 2"/><polygon points="52 2 53 2 53 3 54 3 54 4 55 4 55 5 56 5 56 6 57 6 57 7 58 7 58 8 59 8 59 9 61 9 61 8 62 8 62 7 63 7 63 6 64 6 64 5 65 5 65 4 66 4 66 3 67 3 67 2 68 2 68 1 69 1 69 0 51 0 51 1 52 1 52 2"/><polygon points="68 2 68 3 67 3 67 4 66 4 66 5 65 5 65 6 64 6 64 7 63 7 63 8 62 8 62 9 61 9 61 11 62 11 62 12 63 12 63 13 64 13 64 14 65 14 65 15 66 15 66 16 67 16 67 17 68 17 68 18 69 18 69 19 71 19 71 18 72 18 72 17 73 17 73 16 74 16 74 15 75 15 75 14 76 14 76 13 77 13 77 12 78 12 78 11 79 11 79 9 78 9 78 8 77 8 77 7 76 7 76 6 75 6 75 5 74 5 74 4 73 4 73 3 72 3 72 2 71 2 71 1 69 1 69 2 68 2"/><polygon points="72 2 73 2 73 3 74 3 74 4 75 4 75 5 76 5 76 6 77 6 77 7 78 7 78 8 79 8 79 9 81 9 81 8 82 8 82 7 83 7 83 6 84 6 84 5 85 5 85 4 86 4 86 3 87 3 87 2 88 2 88 1 89 1 89 0 71 0 71 1 72 1 72 2"/><polygon points="79 11 79 12 78 12 78 13 77 13 77 14 76 14 76 15 75 15 75 16 74 16 74 17 73 17 73 18 72 18 72 19 71 19 71 21 72 21 72 22 73 22 73 23 74 23 74 24 75 24 75 25 76 25 76 26 77 26 77 27 78 27 78 28 79 28 79 29 81 29 81 28 82 28 82 27 83 27 83 26 84 26 84 25 85 25 85 24 86 24 86 23 87 23 87 22 88 22 88 21 89 21 89 19 88 19 88 18 87 18 87 17 86 17 86 16 85 16 85 15 84 15 84 14 83 14 83 13 82 13 82 12 81 12 81 11 79 11"/><polygon points="92 2 93 2 93 3 94 3 94 4 95 4 95 5 96 5 96 6 97 6 97 7 98 7 98 8 99 8 99 9 100 9 100 0 91 0 91 1 92 1 92 2"/><polygon points="99 9 98 9 98 8 97 8 97 7 96 7 96 6 95 6 95 5 94 5 94 4 93 4 93 3 92 3 92 2 91 2 91 1 89 1 89 2 88 2 88 3 87 3 87 4 86 4 86 5 85 5 85 6 84 6 84 7 83 7 83 8 82 8 82 9 81 9 81 11 82 11 82 12 83 12 83 13 84 13 84 14 85 14 85 15 86 15 86 16 87 16 87 17 88 17 88 18 89 18 89 19 91 19 91 18 92 18 92 17 93 17 93 16 94 16 94 15 95 15 95 14 96 14 96 13 97 13 97 12 98 12 98 11 99 11 99 9"/><polygon points="98 12 98 13 97 13 97 14 96 14 96 15 95 15 95 16 94 16 94 17 93 17 93 18 92 18 92 19 91 19 91 21 92 21 92 22 93 22 93 23 94 23 94 24 95 24 95 25 96 25 96 26 97 26 97 27 98 27 98 28 99 28 99 29 100 29 100 11 99 11 99 12 98 12"/><polygon points="2 28 2 27 3 27 3 26 4 26 4 25 5 25 5 24 6 24 6 23 7 23 7 22 8 22 8 21 9 21 9 19 8 19 8 18 7 18 7 17 6 17 6 16 5 16 5 15 4 15 4 14 3 14 3 13 2 13 2 12 1 12 1 11 0 11 0 29 1 29 1 28 2 28"/><polygon points="2 32 3 32 3 33 4 33 4 34 5 34 5 35 6 35 6 36 7 36 7 37 8 37 8 38 9 38 9 39 11 39 11 38 12 38 12 37 13 37 13 36 14 36 14 35 15 35 15 34 16 34 16 33 17 33 17 32 18 32 18 31 19 31 19 29 18 29 18 28 17 28 17 27 16 27 16 26 15 26 15 25 14 25 14 24 13 24 13 23 12 23 12 22 11 22 11 21 9 21 9 22 8 22 8 23 7 23 7 24 6 24 6 25 5 25 5 26 4 26 4 27 3 27 3 28 2 28 2 29 1 29 1 31 2 31 2 32"/><polygon points="21 29 21 28 22 28 22 27 23 27 23 26 24 26 24 25 25 25 25 24 26 24 26 23 27 23 27 22 28 22 28 21 29 21 29 19 28 19 28 18 27 18 27 17 26 17 26 16 25 16 25 15 24 15 24 14 23 14 23 13 22 13 22 12 21 12 21 11 19 11 19 12 18 12 18 13 17 13 17 14 16 14 16 15 15 15 15 16 14 16 14 17 13 17 13 18 12 18 12 19 11 19 11 21 12 21 12 22 13 22 13 23 14 23 14 24 15 24 15 25 16 25 16 26 17 26 17 27 18 27 18 28 19 28 19 29 21 29"/><polygon points="31 21 32 21 32 22 33 22 33 23 34 23 34 24 35 24 35 25 36 25 36 26 37 26 37 27 38 27 38 28 39 28 39 29 41 29 41 28 42 28 42 27 43 27 43 26 44 26 44 25 45 25 45 24 46 24 46 23 47 23 47 22 48 22 48 21 49 21 49 19 48 19 48 18 47 18 47 17 46 17 46 16 45 16 45 15 44 15 44 14 43 14 43 13 42 13 42 12 41 12 41 11 39 11 39 12 38 12 38 13 37 13 37 14 36 14 36 15 35 15 35 16 34 16 34 17 33 17 33 18 32 18 32 19 31 19 31 21"/><polygon points="31 39 31 38 32 38 32 37 33 37 33 36 34 36 34 35 35 35 35 34 36 34 36 33 37 33 37 32 38 32 38 31 39 31 39 29 38 29 38 28 37 28 37 27 36 27 36 26 35 26 35 25 34 25 34 24 33 24 33 23 32 23 32 22 31 22 31 21 29 21 29 22 28 22 28 23 27 23 27 24 26 24 26 25 25 25 25 26 24 26 24 27 23 27 23 28 22 28 22 29 21 29 21 31 22 31 22 32 23 32 23 33 24 33 24 34 25 34 25 35 26 35 26 36 27 36 27 37 28 37 28 38 29 38 29 39 31 39"/><polygon points="51 21 52 21 52 22 53 22 53 23 54 23 54 24 55 24 55 25 56 25 56 26 57 26 57 27 58 27 58 28 59 28 59 29 61 29 61 28 62 28 62 27 63 27 63 26 64 26 64 25 65 25 65 24 66 24 66 23 67 23 67 22 68 22 68 21 69 21 69 19 68 19 68 18 67 18 67 17 66 17 66 16 65 16 65 15 64 15 64 14 63 14 63 13 62 13 62 12 61 12 61 11 59 11 59 12 58 12 58 13 57 13 57 14 56 14 56 15 55 15 55 16 54 16 54 17 53 17 53 18 52 18 52 19 51 19 51 21"/><polygon points="59 31 59 32 58 32 58 33 57 33 57 34 56 34 56 35 55 35 55 36 54 36 54 37 53 37 53 38 52 38 52 39 51 39 51 41 52 41 52 42 53 42 53 43 54 43 54 44 55 44 55 45 56 45 56 46 57 46 57 47 58 47 58 48 59 48 59 49 61 49 61 48 62 48 62 47 63 47 63 46 64 46 64 45 65 45 65 44 66 44 66 43 67 43 67 42 68 42 68 41 69 41 69 39 68 39 68 38 67 38 67 37 66 37 66 36 65 36 65 35 64 35 64 34 63 34 63 33 62 33 62 32 61 32 61 31 59 31"/><polygon points="41 31 42 31 42 32 43 32 43 33 44 33 44 34 45 34 45 35 46 35 46 36 47 36 47 37 48 37 48 38 49 38 49 39 51 39 51 38 52 38 52 37 53 37 53 36 54 36 54 35 55 35 55 34 56 34 56 33 57 33 57 32 58 32 58 31 59 31 59 29 58 29 58 28 57 28 57 27 56 27 56 26 55 26 55 25 54 25 54 24 53 24 53 23 52 23 52 22 51 22 51 21 49 21 49 22 48 22 48 23 47 23 47 24 46 24 46 25 45 25 45 26 44 26 44 27 43 27 43 28 42 28 42 29 41 29 41 31"/><polygon points="69 21 69 22 68 22 68 23 67 23 67 24 66 24 66 25 65 25 65 26 64 26 64 27 63 27 63 28 62 28 62 29 61 29 61 31 62 31 62 32 63 32 63 33 64 33 64 34 65 34 65 35 66 35 66 36 67 36 67 37 68 37 68 38 69 38 69 39 71 39 71 38 72 38 72 37 73 37 73 36 74 36 74 35 75 35 75 34 76 34 76 33 77 33 77 32 78 32 78 31 79 31 79 29 78 29 78 28 77 28 77 27 76 27 76 26 75 26 75 25 74 25 74 24 73 24 73 23 72 23 72 22 71 22 71 21 69 21"/><polygon points="79 31 79 32 78 32 78 33 77 33 77 34 76 34 76 35 75 35 75 36 74 36 74 37 73 37 73 38 72 38 72 39 71 39 71 41 72 41 72 42 73 42 73 43 74 43 74 44 75 44 75 45 76 45 76 46 77 46 77 47 78 47 78 48 79 48 79 49 81 49 81 48 82 48 82 47 83 47 83 46 84 46 84 45 85 45 85 44 86 44 86 43 87 43 87 42 88 42 88 41 89 41 89 39 88 39 88 38 87 38 87 37 86 37 86 36 85 36 85 35 84 35 84 34 83 34 83 33 82 33 82 32 81 32 81 31 79 31"/><polygon points="98 28 97 28 97 27 96 27 96 26 95 26 95 25 94 25 94 24 93 24 93 23 92 23 92 22 91 22 91 21 89 21 89 22 88 22 88 23 87 23 87 24 86 24 86 25 85 25 85 26 84 26 84 27 83 27 83 28 82 28 82 29 81 29 81 31 82 31 82 32 83 32 83 33 84 33 84 34 85 34 85 35 86 35 86 36 87 36 87 37 88 37 88 38 89 38 89 39 91 39 91 38 92 38 92 37 93 37 93 36 94 36 94 35 95 35 95 34 96 34 96 33 97 33 97 32 98 32 98 31 99 31 99 29 98 29 98 28"/><polygon points="98 32 98 33 97 33 97 34 96 34 96 35 95 35 95 36 94 36 94 37 93 37 93 38 92 38 92 39 91 39 91 41 92 41 92 42 93 42 93 43 94 43 94 44 95 44 95 45 96 45 96 46 97 46 97 47 98 47 98 48 99 48 99 49 100 49 100 31 99 31 99 32 98 32"/><polygon points="2 48 2 47 3 47 3 46 4 46 4 45 5 45 5 44 6 44 6 43 7 43 7 42 8 42 8 41 9 41 9 39 8 39 8 38 7 38 7 37 6 37 6 36 5 36 5 35 4 35 4 34 3 34 3 33 2 33 2 32 1 32 1 31 0 31 0 49 1 49 1 48 2 48"/><polygon points="2 52 3 52 3 53 4 53 4 54 5 54 5 55 6 55 6 56 7 56 7 57 8 57 8 58 9 58 9 59 11 59 11 58 12 58 12 57 13 57 13 56 14 56 14 55 15 55 15 54 16 54 16 53 17 53 17 52 18 52 18 51 19 51 19 49 18 49 18 48 17 48 17 47 16 47 16 46 15 46 15 45 14 45 14 44 13 44 13 43 12 43 12 42 11 42 11 41 9 41 9 42 8 42 8 43 7 43 7 44 6 44 6 45 5 45 5 46 4 46 4 47 3 47 3 48 2 48 2 49 1 49 1 51 2 51 2 52"/><polygon points="21 49 21 48 22 48 22 47 23 47 23 46 24 46 24 45 25 45 25 44 26 44 26 43 27 43 27 42 28 42 28 41 29 41 29 39 28 39 28 38 27 38 27 37 26 37 26 36 25 36 25 35 24 35 24 34 23 34 23 33 22 33 22 32 21 32 21 31 19 31 19 32 18 32 18 33 17 33 17 34 16 34 16 35 15 35 15 36 14 36 14 37 13 37 13 38 12 38 12 39 11 39 11 41 12 41 12 42 13 42 13 43 14 43 14 44 15 44 15 45 16 45 16 46 17 46 17 47 18 47 18 48 19 48 19 49 21 49"/><polygon points="31 59 31 58 32 58 32 57 33 57 33 56 34 56 34 55 35 55 35 54 36 54 36 53 37 53 37 52 38 52 38 51 39 51 39 49 38 49 38 48 37 48 37 47 36 47 36 46 35 46 35 45 34 45 34 44 33 44 33 43 32 43 32 42 31 42 31 41 29 41 29 42 28 42 28 43 27 43 27 44 26 44 26 45 25 45 25 46 24 46 24 47 23 47 23 48 22 48 22 49 21 49 21 51 22 51 22 52 23 52 23 53 24 53 24 54 25 54 25 55 26 55 26 56 27 56 27 57 28 57 28 58 29 58 29 59 31 59"/><polygon points="41 49 41 48 42 48 42 47 43 47 43 46 44 46 44 45 45 45 45 44 46 44 46 43 47 43 47 42 48 42 48 41 49 41 49 39 48 39 48 38 47 38 47 37 46 37 46 36 45 36 45 35 44 35 44 34 43 34 43 33 42 33 42 32 41 32 41 31 39 31 39 32 38 32 38 33 37 33 37 34 36 34 36 35 35 35 35 36 34 36 34 37 33 37 33 38 32 38 32 39 31 39 31 41 32 41 32 42 33 42 33 43 34 43 34 44 35 44 35 45 36 45 36 46 37 46 37 47 38 47 38 48 39 48 39 49 41 49"/><polygon points="49 41 49 42 48 42 48 43 47 43 47 44 46 44 46 45 45 45 45 46 44 46 44 47 43 47 43 48 42 48 42 49 41 49 41 51 42 51 42 52 43 52 43 53 44 53 44 54 45 54 45 55 46 55 46 56 47 56 47 57 48 57 48 58 49 58 49 59 51 59 51 58 52 58 52 57 53 57 53 56 54 56 54 55 55 55 55 54 56 54 56 53 57 53 57 52 58 52 58 51 59 51 59 49 58 49 58 48 57 48 57 47 56 47 56 46 55 46 55 45 54 45 54 44 53 44 53 43 52 43 52 42 51 42 51 41 49 41"/><polygon points="59 51 59 52 58 52 58 53 57 53 57 54 56 54 56 55 55 55 55 56 54 56 54 57 53 57 53 58 52 58 52 59 51 59 51 61 52 61 52 62 53 62 53 63 54 63 54 64 55 64 55 65 56 65 56 66 57 66 57 67 58 67 58 68 59 68 59 69 61 69 61 68 62 68 62 67 63 67 63 66 64 66 64 65 65 65 65 64 66 64 66 63 67 63 67 62 68 62 68 61 69 61 69 59 68 59 68 58 67 58 67 57 66 57 66 56 65 56 65 55 64 55 64 54 63 54 63 53 62 53 62 52 61 52 61 51 59 51"/><polygon points="49 59 48 59 48 58 47 58 47 57 46 57 46 56 45 56 45 55 44 55 44 54 43 54 43 53 42 53 42 52 41 52 41 51 39 51 39 52 38 52 38 53 37 53 37 54 36 54 36 55 35 55 35 56 34 56 34 57 33 57 33 58 32 58 32 59 31 59 31 61 32 61 32 62 33 62 33 63 34 63 34 64 35 64 35 65 36 65 36 66 37 66 37 67 38 67 38 68 39 68 39 69 41 69 41 68 42 68 42 67 43 67 43 66 44 66 44 65 45 65 45 64 46 64 46 63 47 63 47 62 48 62 48 61 49 61 49 59"/><polygon points="69 41 69 42 68 42 68 43 67 43 67 44 66 44 66 45 65 45 65 46 64 46 64 47 63 47 63 48 62 48 62 49 61 49 61 51 62 51 62 52 63 52 63 53 64 53 64 54 65 54 65 55 66 55 66 56 67 56 67 57 68 57 68 58 69 58 69 59 71 59 71 58 72 58 72 57 73 57 73 56 74 56 74 55 75 55 75 54 76 54 76 53 77 53 77 52 78 52 78 51 79 51 79 49 78 49 78 48 77 48 77 47 76 47 76 46 75 46 75 45 74 45 74 44 73 44 73 43 72 43 72 42 71 42 71 41 69 41"/><polygon points="79 51 79 52 78 52 78 53 77 53 77 54 76 54 76 55 75 55 75 56 74 56 74 57 73 57 73 58 72 58 72 59 71 59 71 61 72 61 72 62 73 62 73 63 74 63 74 64 75 64 75 65 76 65 76 66 77 66 77 67 78 67 78 68 79 68 79 69 81 69 81 68 82 68 82 67 83 67 83 66 84 66 84 65 85 65 85 64 86 64 86 63 87 63 87 62 88 62 88 61 89 61 89 59 88 59 88 58 87 58 87 57 86 57 86 56 85 56 85 55 84 55 84 54 83 54 83 53 82 53 82 52 81 52 81 51 79 51"/><polygon points="98 48 97 48 97 47 96 47 96 46 95 46 95 45 94 45 94 44 93 44 93 43 92 43 92 42 91 42 91 41 89 41 89 42 88 42 88 43 87 43 87 44 86 44 86 45 85 45 85 46 84 46 84 47 83 47 83 48 82 48 82 49 81 49 81 51 82 51 82 52 83 52 83 53 84 53 84 54 85 54 85 55 86 55 86 56 87 56 87 57 88 57 88 58 89 58 89 59 91 59 91 58 92 58 92 57 93 57 93 56 94 56 94 55 95 55 95 54 96 54 96 53 97 53 97 52 98 52 98 51 99 51 99 49 98 49 98 48"/><polygon points="98 52 98 53 97 53 97 54 96 54 96 55 95 55 95 56 94 56 94 57 93 57 93 58 92 58 92 59 91 59 91 61 92 61 92 62 93 62 93 63 94 63 94 64 95 64 95 65 96 65 96 66 97 66 97 67 98 67 98 68 99 68 99 69 100 69 100 51 99 51 99 52 98 52"/><polygon points="2 68 2 67 3 67 3 66 4 66 4 65 5 65 5 64 6 64 6 63 7 63 7 62 8 62 8 61 9 61 9 59 8 59 8 58 7 58 7 57 6 57 6 56 5 56 5 55 4 55 4 54 3 54 3 53 2 53 2 52 1 52 1 51 0 51 0 69 1 69 1 68 2 68"/><polygon points="2 72 3 72 3 73 4 73 4 74 5 74 5 75 6 75 6 76 7 76 7 77 8 77 8 78 9 78 9 79 11 79 11 78 12 78 12 77 13 77 13 76 14 76 14 75 15 75 15 74 16 74 16 73 17 73 17 72 18 72 18 71 19 71 19 69 18 69 18 68 17 68 17 67 16 67 16 66 15 66 15 65 14 65 14 64 13 64 13 63 12 63 12 62 11 62 11 61 9 61 9 62 8 62 8 63 7 63 7 64 6 64 6 65 5 65 5 66 4 66 4 67 3 67 3 68 2 68 2 69 1 69 1 71 2 71 2 72"/><polygon points="21 69 21 68 22 68 22 67 23 67 23 66 24 66 24 65 25 65 25 64 26 64 26 63 27 63 27 62 28 62 28 61 29 61 29 59 28 59 28 58 27 58 27 57 26 57 26 56 25 56 25 55 24 55 24 54 23 54 23 53 22 53 22 52 21 52 21 51 19 51 19 52 18 52 18 53 17 53 17 54 16 54 16 55 15 55 15 56 14 56 14 57 13 57 13 58 12 58 12 59 11 59 11 61 12 61 12 62 13 62 13 63 14 63 14 64 15 64 15 65 16 65 16 66 17 66 17 67 18 67 18 68 19 68 19 69 21 69"/><polygon points="39 69 38 69 38 68 37 68 37 67 36 67 36 66 35 66 35 65 34 65 34 64 33 64 33 63 32 63 32 62 31 62 31 61 29 61 29 62 28 62 28 63 27 63 27 64 26 64 26 65 25 65 25 66 24 66 24 67 23 67 23 68 22 68 22 69 21 69 21 71 22 71 22 72 23 72 23 73 24 73 24 74 25 74 25 75 26 75 26 76 27 76 27 77 28 77 28 78 29 78 29 79 31 79 31 78 32 78 32 77 33 77 33 76 34 76 34 75 35 75 35 74 36 74 36 73 37 73 37 72 38 72 38 71 39 71 39 69"/><polygon points="29 79 28 79 28 78 27 78 27 77 26 77 26 76 25 76 25 75 24 75 24 74 23 74 23 73 22 73 22 72 21 72 21 71 19 71 19 72 18 72 18 73 17 73 17 74 16 74 16 75 15 75 15 76 14 76 14 77 13 77 13 78 12 78 12 79 11 79 11 81 12 81 12 82 13 82 13 83 14 83 14 84 15 84 15 85 16 85 16 86 17 86 17 87 18 87 18 88 19 88 19 89 21 89 21 88 22 88 22 87 23 87 23 86 24 86 24 85 25 85 25 84 26 84 26 83 27 83 27 82 28 82 28 81 29 81 29 79"/><polygon points="59 69 58 69 58 68 57 68 57 67 56 67 56 66 55 66 55 65 54 65 54 64 53 64 53 63 52 63 52 62 51 62 51 61 49 61 49 62 48 62 48 63 47 63 47 64 46 64 46 65 45 65 45 66 44 66 44 67 43 67 43 68 42 68 42 69 41 69 41 71 42 71 42 72 43 72 43 73 44 73 44 74 45 74 45 75 46 75 46 76 47 76 47 77 48 77 48 78 49 78 49 79 51 79 51 78 52 78 52 77 53 77 53 76 54 76 54 75 55 75 55 74 56 74 56 73 57 73 57 72 58 72 58 71 59 71 59 69"/><polygon points="49 79 48 79 48 78 47 78 47 77 46 77 46 76 45 76 45 75 44 75 44 74 43 74 43 73 42 73 42 72 41 72 41 71 39 71 39 72 38 72 38 73 37 73 37 74 36 74 36 75 35 75 35 76 34 76 34 77 33 77 33 78 32 78 32 79 31 79 31 81 32 81 32 82 33 82 33 83 34 83 34 84 35 84 35 85 36 85 36 86 37 86 37 87 38 87 38 88 39 88 39 89 41 89 41 88 42 88 42 87 43 87 43 86 44 86 44 85 45 85 45 84 46 84 46 83 47 83 47 82 48 82 48 81 49 81 49 79"/><polygon points="69 61 69 62 68 62 68 63 67 63 67 64 66 64 66 65 65 65 65 66 64 66 64 67 63 67 63 68 62 68 62 69 61 69 61 71 62 71 62 72 63 72 63 73 64 73 64 74 65 74 65 75 66 75 66 76 67 76 67 77 68 77 68 78 69 78 69 79 71 79 71 78 72 78 72 77 73 77 73 76 74 76 74 75 75 75 75 74 76 74 76 73 77 73 77 72 78 72 78 71 79 71 79 69 78 69 78 68 77 68 77 67 76 67 76 66 75 66 75 65 74 65 74 64 73 64 73 63 72 63 72 62 71 62 71 61 69 61"/><polygon points="79 71 79 72 78 72 78 73 77 73 77 74 76 74 76 75 75 75 75 76 74 76 74 77 73 77 73 78 72 78 72 79 71 79 71 81 72 81 72 82 73 82 73 83 74 83 74 84 75 84 75 85 76 85 76 86 77 86 77 87 78 87 78 88 79 88 79 89 81 89 81 88 82 88 82 87 83 87 83 86 84 86 84 85 85 85 85 84 86 84 86 83 87 83 87 82 88 82 88 81 89 81 89 79 88 79 88 78 87 78 87 77 86 77 86 76 85 76 85 75 84 75 84 74 83 74 83 73 82 73 82 72 81 72 81 71 79 71"/><polygon points="69 79 68 79 68 78 67 78 67 77 66 77 66 76 65 76 65 75 64 75 64 74 63 74 63 73 62 73 62 72 61 72 61 71 59 71 59 72 58 72 58 73 57 73 57 74 56 74 56 75 55 75 55 76 54 76 54 77 53 77 53 78 52 78 52 79 51 79 51 81 52 81 52 82 53 82 53 83 54 83 54 84 55 84 55 85 56 85 56 86 57 86 57 87 58 87 58 88 59 88 59 89 61 89 61 88 62 88 62 87 63 87 63 86 64 86 64 85 65 85 65 84 66 84 66 83 67 83 67 82 68 82 68 81 69 81 69 79"/><polygon points="98 68 97 68 97 67 96 67 96 66 95 66 95 65 94 65 94 64 93 64 93 63 92 63 92 62 91 62 91 61 89 61 89 62 88 62 88 63 87 63 87 64 86 64 86 65 85 65 85 66 84 66 84 67 83 67 83 68 82 68 82 69 81 69 81 71 82 71 82 72 83 72 83 73 84 73 84 74 85 74 85 75 86 75 86 76 87 76 87 77 88 77 88 78 89 78 89 79 91 79 91 78 92 78 92 77 93 77 93 76 94 76 94 75 95 75 95 74 96 74 96 73 97 73 97 72 98 72 98 71 99 71 99 69 98 69 98 68"/><polygon points="98 72 98 73 97 73 97 74 96 74 96 75 95 75 95 76 94 76 94 77 93 77 93 78 92 78 92 79 91 79 91 81 92 81 92 82 93 82 93 83 94 83 94 84 95 84 95 85 96 85 96 86 97 86 97 87 98 87 98 88 99 88 99 89 100 89 100 71 99 71 99 72 98 72"/><polygon points="2 88 2 87 3 87 3 86 4 86 4 85 5 85 5 84 6 84 6 83 7 83 7 82 8 82 8 81 9 81 9 79 8 79 8 78 7 78 7 77 6 77 6 76 5 76 5 75 4 75 4 74 3 74 3 73 2 73 2 72 1 72 1 71 0 71 0 89 1 89 1 88 2 88"/><polygon points="12 98 12 97 13 97 13 96 14 96 14 95 15 95 15 94 16 94 16 93 17 93 17 92 18 92 18 91 19 91 19 89 18 89 18 88 17 88 17 87 16 87 16 86 15 86 15 85 14 85 14 84 13 84 13 83 12 83 12 82 11 82 11 81 9 81 9 82 8 82 8 83 7 83 7 84 6 84 6 85 5 85 5 86 4 86 4 87 3 87 3 88 2 88 2 89 1 89 1 91 2 91 2 92 3 92 3 93 4 93 4 94 5 94 5 95 6 95 6 96 7 96 7 97 8 97 8 98 9 98 9 99 11 99 11 98 12 98"/><polygon points="8 98 7 98 7 97 6 97 6 96 5 96 5 95 4 95 4 94 3 94 3 93 2 93 2 92 1 92 1 91 0 91 0 100 9 100 9 99 8 99 8 98"/><polygon points="32 98 32 97 33 97 33 96 34 96 34 95 35 95 35 94 36 94 36 93 37 93 37 92 38 92 38 91 39 91 39 89 38 89 38 88 37 88 37 87 36 87 36 86 35 86 35 85 34 85 34 84 33 84 33 83 32 83 32 82 31 82 31 81 29 81 29 82 28 82 28 83 27 83 27 84 26 84 26 85 25 85 25 86 24 86 24 87 23 87 23 88 22 88 22 89 21 89 21 91 22 91 22 92 23 92 23 93 24 93 24 94 25 94 25 95 26 95 26 96 27 96 27 97 28 97 28 98 29 98 29 99 31 99 31 98 32 98"/><polygon points="28 98 27 98 27 97 26 97 26 96 25 96 25 95 24 95 24 94 23 94 23 93 22 93 22 92 21 92 21 91 19 91 19 92 18 92 18 93 17 93 17 94 16 94 16 95 15 95 15 96 14 96 14 97 13 97 13 98 12 98 12 99 11 99 11 100 29 100 29 99 28 99 28 98"/><polygon points="52 98 52 97 53 97 53 96 54 96 54 95 55 95 55 94 56 94 56 93 57 93 57 92 58 92 58 91 59 91 59 89 58 89 58 88 57 88 57 87 56 87 56 86 55 86 55 85 54 85 54 84 53 84 53 83 52 83 52 82 51 82 51 81 49 81 49 82 48 82 48 83 47 83 47 84 46 84 46 85 45 85 45 86 44 86 44 87 43 87 43 88 42 88 42 89 41 89 41 91 42 91 42 92 43 92 43 93 44 93 44 94 45 94 45 95 46 95 46 96 47 96 47 97 48 97 48 98 49 98 49 99 51 99 51 98 52 98"/><polygon points="48 98 47 98 47 97 46 97 46 96 45 96 45 95 44 95 44 94 43 94 43 93 42 93 42 92 41 92 41 91 39 91 39 92 38 92 38 93 37 93 37 94 36 94 36 95 35 95 35 96 34 96 34 97 33 97 33 98 32 98 32 99 31 99 31 100 49 100 49 99 48 99 48 98"/><polygon points="72 98 72 97 73 97 73 96 74 96 74 95 75 95 75 94 76 94 76 93 77 93 77 92 78 92 78 91 79 91 79 89 78 89 78 88 77 88 77 87 76 87 76 86 75 86 75 85 74 85 74 84 73 84 73 83 72 83 72 82 71 82 71 81 69 81 69 82 68 82 68 83 67 83 67 84 66 84 66 85 65 85 65 86 64 86 64 87 63 87 63 88 62 88 62 89 61 89 61 91 62 91 62 92 63 92 63 93 64 93 64 94 65 94 65 95 66 95 66 96 67 96 67 97 68 97 68 98 69 98 69 99 71 99 71 98 72 98"/><polygon points="68 98 67 98 67 97 66 97 66 96 65 96 65 95 64 95 64 94 63 94 63 93 62 93 62 92 61 92 61 91 59 91 59 92 58 92 58 93 57 93 57 94 56 94 56 95 55 95 55 96 54 96 54 97 53 97 53 98 52 98 52 99 51 99 51 100 69 100 69 99 68 99 68 98"/><polygon points="98 88 97 88 97 87 96 87 96 86 95 86 95 85 94 85 94 84 93 84 93 83 92 83 92 82 91 82 91 81 89 81 89 82 88 82 88 83 87 83 87 84 86 84 86 85 85 85 85 86 84 86 84 87 83 87 83 88 82 88 82 89 81 89 81 91 82 91 82 92 83 92 83 93 84 93 84 94 85 94 85 95 86 95 86 96 87 96 87 97 88 97 88 98 89 98 89 99 91 99 91 98 92 98 92 97 93 97 93 96 94 96 94 95 95 95 95 94 96 94 96 93 97 93 97 92 98 92 98 91 99 91 99 89 98 89 98 88"/><polygon points="98 92 98 93 97 93 97 94 96 94 96 95 95 95 95 96 94 96 94 97 93 97 93 98 92 98 92 99 91 99 91 100 100 100 100 91 99 91 99 92 98 92"/><polygon points="88 98 87 98 87 97 86 97 86 96 85 96 85 95 84 95 84 94 83 94 83 93 82 93 82 92 81 92 81 91 79 91 79 92 78 92 78 93 77 93 77 94 76 94 76 95 75 95 75 96 74 96 74 97 73 97 73 98 72 98 72 99 71 99 71 100 89 100 89 99 88 99 88 98"/></svg>