<svg id="Layer_1" data-name="Layer 1" xmlns="http://www.w3.org/2000/svg" viewBox="0 0 100 100"><title>pattern</title><rect width="1" height="5"/><rect x="1" y="5" width="1" height="5"/><rect x="2" y="10" width="1" height="5"/><rect x="3" y="15" width="1" height="5"/><rect x="4" y="20" width="1" height="5"/><rect x="5" y="25" width="1" height="5"/><rect x="6" y="30" width="1" height="5"/><rect x="7" y="35" width="1" height="5"/><rect x="8" y="40" width="1" height="5"/><rect x="9" y="45" width="1" height="5"/><rect x="9" y="95" width="1" height="5"/><rect x="8" y="90" width="1" height="5"/><rect x="7" y="85" width="1" height="5"/><rect x="6" y="80" width="1" height="5"/><rect x="5" y="75" width="1" height="5"/><rect x="4" y="70" width="1" height="5"/><rect x="3" y="65" width="1" height="5"/><rect x="2" y="60" width="1" height="5"/><rect x="1" y="55" width="1" height="5"/><rect y="50" width="1" height="5"/><rect x="10" width="1" height="5"/><rect x="11" y="5" width="1" height="5"/><rect x="12" y="10" width="1" height="5"/><rect x="13" y="15" width="1" height="5"/><rect x="14" y="20" width="1" height="5"/><rect x="15" y="25" width="1" height="5"/><rect x="16" y="30" width="1" height="5"/><rect x="17" y="35" width="1" height="5"/><rect x="18" y="40" width="1" height="5"/><rect x="19" y="45" width="1" height="5"/><rect x="19" y="95" width="1" height="5"/><rect x="18" y="90" width="1" height="5"/><rect x="17" y="85" width="1" height="5"/><rect x="16" y="80" width="1" height="5"/><rect x="15" y="75" width="1" height="5"/><rect x="14" y="70" width="1" height="5"/><rect x="13" y="65" width="1" height="5"/><rect x="12" y="60" width="1" height="5"/><rect x="11" y="55" width="1" height="5"/><rect x="10" y="50" width="1" height="5"/><rect x="20" width="1" height="5"/><rect x="21" y="5" width="1" height="5"/><rect x="22" y="10" width="1" height="5"/><rect x="23" y="15" width="1" height="5"/><rect x="24" y="20" width="1" height="5"/><rect x="25" y="25" width="1" height="5"/><rect x="26" y="30" width="1" height="5"/><rect x="27" y="35" width="1" height="5"/><rect x="28" y="40" width="1" height="5"/><rect x="29" y="45" width="1" height="5"/><rect x="29" y="95" width="1" height="5"/><rect x="28" y="90" width="1" height="5"/><rect x="27" y="85" width="1" height="5"/><rect x="26" y="80" width="1" height="5"/><rect x="25" y="75" width="1" height="5"/><rect x="24" y="70" width="1" height="5"/><rect x="23" y="65" width="1" height="5"/><rect x="22" y="60" width="1" height="5"/><rect x="21" y="55" width="1" height="5"/><rect x="20" y="50" width="1" height="5"/><rect x="30" width="1" height="5"/><rect x="31" y="5" width="1" height="5"/><rect x="32" y="10" width="1" height="5"/><rect x="33" y="15" width="1" height="5"/><rect x="34" y="20" width="1" height="5"/><rect x="35" y="25" width="1" height="5"/><rect x="36" y="30" width="1" height="5"/><rect x="37" y="35" width="1" height="5"/><rect x="38" y="40" width="1" height="5"/><rect x="39" y="45" width="1" height="5"/><rect x="39" y="95" width="1" height="5"/><rect x="38" y="90" width="1" height="5"/><rect x="37" y="85" width="1" height="5"/><rect x="36" y="80" width="1" height="5"/><rect x="35" y="75" width="1" height="5"/><rect x="34" y="70" width="1" height="5"/><rect x="33" y="65" width="1" height="5"/><rect x="32" y="60" width="1" height="5"/><rect x="31" y="55" width="1" height="5"/><rect x="30" y="50" width="1" height="5"/><rect x="40" width="1" height="5"/><rect x="41" y="5" width="1" height="5"/><rect x="42" y="10" width="1" height="5"/><rect x="43" y="15" width="1" height="5"/><rect x="44" y="20" width="1" height="5"/><rect x="45" y="25" width="1" height="5"/><rect x="46" y="30" width="1" height="5"/><rect x="47" y="35" width="1" height="5"/><rect x="48" y="40" width="1" height="5"/><rect x="49" y="45" width="1" height="5"/><rect x="49" y="95" width="1" height="5"/><rect x="48" y="90" width="1" height="5"/><rect x="47" y="85" width="1" height="5"/><rect x="46" y="80" width="1" height="5"/><rect x="45" y="75" width="1" height="5"/><rect x="44" y="70" width="1" height="5"/><rect x="43" y="65" width="1" height="5"/><rect x="42" y="60" width="1" height="5"/><rect x="41" y="55" width="1" height="5"/><rect x="40" y="50" width="1" height="5"/><rect x="50" width="1" height="5"/><rect x="51" y="5" width="1" height="5"/><rect x="52" y="10" width="1" height="5"/><rect x="53" y="15" width="1" height="5"/><rect x="54" y="20" width="1" height="5"/><rect x="55" y="25" width="1" height="5"/><rect x="56" y="30" width="1" height="5"/><rect x="57" y="35" width="1" height="5"/><rect x="58" y="40" width="1" height="5"/><rect x="59" y="45" width="1" height="5"/><rect x="59" y="95" width="1" height="5"/><rect x="58" y="90" width="1" height="5"/><rect x="57" y="85" width="1" height="5"/><rect x="56" y="80" width="1" height="5"/><rect x="55" y="75" width="1" height="5"/><rect x="54" y="70" width="1" height="5"/><rect x="53" y="65" width="1" height="5"/><rect x="52" y="60" width="1" height="5"/><rect x="51" y="55" width="1" height="5"/><rect x="50" y="50" width="1" height="5"/><rect x="60" width="1" height="5"/><rect x="61" y="5" width="1" height="5"/><rect x="62" y="10" width="1" height="5"/><rect x="63" y="15" width="1" height="5"/><rect x="64" y="20" width="1" height="5"/><rect x="65" y="25" width="1" height="5"/><rect x="66" y="30" width="1" height="5"/><rect x="67" y="35" width="1" height="5"/><rect x="68" y="40" width="1" height="5"/><rect x="69" y="45" width="1" height="5"/><rect x="69" y="95" width="1" height="5"/><rect x="68" y="90" width="1" height="5"/><rect x="67" y="85" width="1" height="5"/><rect x="66" y="80" width="1" height="5"/><rect x="65" y="75" width="1" height="5"/><rect x="64" y="70" width="1" height="5"/><rect x="63" y="65" width="1" height="5"/><rect x="62" y="60" width="1" height="5"/><rect x="61" y="55" width="1" height="5"/><rect x="60" y="50" width="1" height="5"/><rect x="70" width="1" height="5"/><rect x="71" y="5" width="1" height="5"/><rect x="72" y="10" width="1" height="5"/><rect x="73" y="15" width="1" height="5"/><rect x="74" y="20" width="1" height="5"/><rect x="75" y="25" width="1" height="5"/><rect x="76" y="30" width="1" height="5"/><rect x="77" y="35" width="1" height="5"/><rect x="78" y="40" width="1" height="5"/><rect x="79" y="45" width="1" height="5"/><rect x="79" y="95" width="1" height="5"/><rect x="78" y="90" width="1" height="5"/><rect x="77" y="85" width="1" height="5"/><rect x="76" y="80" width="1" height="5"/><rect x="75" y="75" width="1" height="5"/><rect x="74" y="70" width="1" height="5"/><rect x="73" y="65" width="1" height="5"/><rect x="72" y="60" width="1" height="5"/><rect x="71" y="55" width="1" height="5"/><rect x="70" y="50" width="1" height="5"/><rect x="80" width="1" height="5"/><rect x="81" y="5" width="1" height="5"/><rect x="82" y="10" width="1" height="5"/><rect x="83" y="15" width="1" height="5"/><rect x="84" y="20" width="1" height="5"/><rect x="85" y="25" width="1" height="5"/><rect x="86" y="30" width="1" height="5"/><rect x="87" y="35" width="1" height="5"/><rect x="88" y="40" width="1" height="5"/><rect x="89" y="45" width="1" height="5"/><rect x="89" y="95" width="1" height="5"/><rect x="88" y="90" width="1" height="5"/><rect x="87" y="85" width="1" height="5"/><rect x="86" y="80" width="1" height="5"/><rect x="85" y="75" width="1" height="5"/><rect x="84" y="70" width="1" height="5"/><rect x="83" y="65" width="1" height="5"/><rect x="82" y="60" width="1" height="5"/><rect x="81" y="55" width="1" height="5"/><rect x="80" y="50" width="1" height="5"/><rect x="90" width="1" height="5"/><rect x="91" y="5" width="1" height="5"/><rect x="92" y="10" width="1" height="5"/><rect x="93" y="15" width="1" height="5"/><rect x="94" y="20" width="1" height="5"/><rect x="95" y="25" width="1" height="5"/><rect x="96" y="30" width="1" height="5"/><rect x="97" y="35" width="1" height="5"/><rect x="98" y="40" width="1" height="5"/><rect x="99" y="45" width="1" height="5"/><rect x="99" y="95" width="1" height="5"/><rect x="98" y="90" width="1" height="5"/><rect x="97" y="85" width="1" height="5"/><rect x="96" y="80" width="1" height="5"/><rect x="95" y="75" width="1" height="5"/><rect x="94" y="70" width="1" height="5"/><rect x="93" y="65" width="1" height="5"/><rect x="92" y="60" width="1" height="5"/><rect x="91" y="55" width="1" height="5"/><rect x="90" y="50" width="1" height="5"/></svg>