<svg id="Layer_1" data-name="Layer 1" xmlns="http://www.w3.org/2000/svg" viewBox="0 0 100 100"><title>pattern</title><rect width="1" height="5"/><rect x="1" y="5" width="1" height="5"/><rect x="2" y="10" width="1" height="5"/><rect x="3" y="15" width="1" height="5"/><rect x="4" y="20" width="1" height="5"/><rect x="4" y="25" width="1" height="5"/><rect x="3" y="30" width="1" height="5"/><rect x="2" y="35" width="1" height="5"/><rect x="1" y="40" width="1" height="5"/><rect y="45" width="1" height="5"/><rect x="10" width="1" height="5"/><rect x="11" y="5" width="1" height="5"/><rect x="12" y="10" width="1" height="5"/><rect x="13" y="15" width="1" height="5"/><rect x="14" y="20" width="1" height="5"/><rect x="14" y="25" width="1" height="5"/><rect x="13" y="30" width="1" height="5"/><rect x="12" y="35" width="1" height="5"/><rect x="11" y="40" width="1" height="5"/><rect x="10" y="45" width="1" height="5"/><rect x="20" width="1" height="5"/><rect x="21" y="5" width="1" height="5"/><rect x="22" y="10" width="1" height="5"/><rect x="23" y="15" width="1" height="5"/><rect x="24" y="20" width="1" height="5"/><rect x="24" y="25" width="1" height="5"/><rect x="23" y="30" width="1" height="5"/><rect x="22" y="35" width="1" height="5"/><rect x="21" y="40" width="1" height="5"/><rect x="20" y="45" width="1" height="5"/><rect x="30" width="1" height="5"/><rect x="31" y="5" width="1" height="5"/><rect x="32" y="10" width="1" height="5"/><rect x="33" y="15" width="1" height="5"/><rect x="34" y="20" width="1" height="5"/><rect x="34" y="25" width="1" height="5"/><rect x="33" y="30" width="1" height="5"/><rect x="32" y="35" width="1" height="5"/><rect x="31" y="40" width="1" height="5"/><rect x="30" y="45" width="1" height="5"/><rect x="40" width="1" height="5"/><rect x="41" y="5" width="1" height="5"/><rect x="42" y="10" width="1" height="5"/><rect x="43" y="15" width="1" height="5"/><rect x="44" y="20" width="1" height="5"/><rect x="44" y="25" width="1" height="5"/><rect x="43" y="30" width="1" height="5"/><rect x="42" y="35" width="1" height="5"/><rect x="41" y="40" width="1" height="5"/><rect x="40" y="45" width="1" height="5"/><rect x="50" width="1" height="5"/><rect x="51" y="5" width="1" height="5"/><rect x="52" y="10" width="1" height="5"/><rect x="53" y="15" width="1" height="5"/><rect x="54" y="20" width="1" height="5"/><rect x="54" y="25" width="1" height="5"/><rect x="53" y="30" width="1" height="5"/><rect x="52" y="35" width="1" height="5"/><rect x="51" y="40" width="1" height="5"/><rect x="50" y="45" width="1" height="5"/><rect x="60" width="1" height="5"/><rect x="61" y="5" width="1" height="5"/><rect x="62" y="10" width="1" height="5"/><rect x="63" y="15" width="1" height="5"/><rect x="64" y="20" width="1" height="5"/><rect x="64" y="25" width="1" height="5"/><rect x="63" y="30" width="1" height="5"/><rect x="62" y="35" width="1" height="5"/><rect x="61" y="40" width="1" height="5"/><rect x="60" y="45" width="1" height="5"/><rect x="70" width="1" height="5"/><rect x="71" y="5" width="1" height="5"/><rect x="72" y="10" width="1" height="5"/><rect x="73" y="15" width="1" height="5"/><rect x="74" y="20" width="1" height="5"/><rect x="74" y="25" width="1" height="5"/><rect x="73" y="30" width="1" height="5"/><rect x="72" y="35" width="1" height="5"/><rect x="71" y="40" width="1" height="5"/><rect x="70" y="45" width="1" height="5"/><rect x="80" width="1" height="5"/><rect x="81" y="5" width="1" height="5"/><rect x="82" y="10" width="1" height="5"/><rect x="83" y="15" width="1" height="5"/><rect x="84" y="20" width="1" height="5"/><rect x="84" y="25" width="1" height="5"/><rect x="83" y="30" width="1" height="5"/><rect x="82" y="35" width="1" height="5"/><rect x="81" y="40" width="1" height="5"/><rect x="80" y="45" width="1" height="5"/><rect x="90" width="1" height="5"/><rect x="91" y="5" width="1" height="5"/><rect x="92" y="10" width="1" height="5"/><rect x="93" y="15" width="1" height="5"/><rect x="94" y="20" width="1" height="5"/><rect x="94" y="25" width="1" height="5"/><rect x="93" y="30" width="1" height="5"/><rect x="92" y="35" width="1" height="5"/><rect x="91" y="40" width="1" height="5"/><rect x="90" y="45" width="1" height="5"/><rect y="50" width="1" height="5"/><rect x="1" y="55" width="1" height="5"/><rect x="2" y="60" width="1" height="5"/><rect x="3" y="65" width="1" height="5"/><rect x="4" y="70" width="1" height="5"/><rect x="4" y="75" width="1" height="5"/><rect x="3" y="80" width="1" height="5"/><rect x="2" y="85" width="1" height="5"/><rect x="1" y="90" width="1" height="5"/><rect y="95" width="1" height="5"/><rect x="10" y="50" width="1" height="5"/><rect x="11" y="55" width="1" height="5"/><rect x="12" y="60" width="1" height="5"/><rect x="13" y="65" width="1" height="5"/><rect x="14" y="70" width="1" height="5"/><rect x="14" y="75" width="1" height="5"/><rect x="13" y="80" width="1" height="5"/><rect x="12" y="85" width="1" height="5"/><rect x="11" y="90" width="1" height="5"/><rect x="10" y="95" width="1" height="5"/><rect x="20" y="50" width="1" height="5"/><rect x="21" y="55" width="1" height="5"/><rect x="22" y="60" width="1" height="5"/><rect x="23" y="65" width="1" height="5"/><rect x="24" y="70" width="1" height="5"/><rect x="24" y="75" width="1" height="5"/><rect x="23" y="80" width="1" height="5"/><rect x="22" y="85" width="1" height="5"/><rect x="21" y="90" width="1" height="5"/><rect x="20" y="95" width="1" height="5"/><rect x="30" y="50" width="1" height="5"/><rect x="31" y="55" width="1" height="5"/><rect x="32" y="60" width="1" height="5"/><rect x="33" y="65" width="1" height="5"/><rect x="34" y="70" width="1" height="5"/><rect x="34" y="75" width="1" height="5"/><rect x="33" y="80" width="1" height="5"/><rect x="32" y="85" width="1" height="5"/><rect x="31" y="90" width="1" height="5"/><rect x="30" y="95" width="1" height="5"/><rect x="40" y="50" width="1" height="5"/><rect x="41" y="55" width="1" height="5"/><rect x="42" y="60" width="1" height="5"/><rect x="43" y="65" width="1" height="5"/><rect x="44" y="70" width="1" height="5"/><rect x="44" y="75" width="1" height="5"/><rect x="43" y="80" width="1" height="5"/><rect x="42" y="85" width="1" height="5"/><rect x="41" y="90" width="1" height="5"/><rect x="40" y="95" width="1" height="5"/><rect x="50" y="50" width="1" height="5"/><rect x="51" y="55" width="1" height="5"/><rect x="52" y="60" width="1" height="5"/><rect x="53" y="65" width="1" height="5"/><rect x="54" y="70" width="1" height="5"/><rect x="54" y="75" width="1" height="5"/><rect x="53" y="80" width="1" height="5"/><rect x="52" y="85" width="1" height="5"/><rect x="51" y="90" width="1" height="5"/><rect x="50" y="95" width="1" height="5"/><rect x="60" y="50" width="1" height="5"/><rect x="61" y="55" width="1" height="5"/><rect x="62" y="60" width="1" height="5"/><rect x="63" y="65" width="1" height="5"/><rect x="64" y="70" width="1" height="5"/><rect x="64" y="75" width="1" height="5"/><rect x="63" y="80" width="1" height="5"/><rect x="62" y="85" width="1" height="5"/><rect x="61" y="90" width="1" height="5"/><rect x="60" y="95" width="1" height="5"/><rect x="70" y="50" width="1" height="5"/><rect x="71" y="55" width="1" height="5"/><rect x="72" y="60" width="1" height="5"/><rect x="73" y="65" width="1" height="5"/><rect x="74" y="70" width="1" height="5"/><rect x="74" y="75" width="1" height="5"/><rect x="73" y="80" width="1" height="5"/><rect x="72" y="85" width="1" height="5"/><rect x="71" y="90" width="1" height="5"/><rect x="70" y="95" width="1" height="5"/><rect x="80" y="50" width="1" height="5"/><rect x="81" y="55" width="1" height="5"/><rect x="82" y="60" width="1" height="5"/><rect x="83" y="65" width="1" height="5"/><rect x="84" y="70" width="1" height="5"/><rect x="84" y="75" width="1" height="5"/><rect x="83" y="80" width="1" height="5"/><rect x="82" y="85" width="1" height="5"/><rect x="81" y="90" width="1" height="5"/><rect x="80" y="95" width="1" height="5"/><rect x="90" y="50" width="1" height="5"/><rect x="91" y="55" width="1" height="5"/><rect x="92" y="60" width="1" height="5"/><rect x="93" y="65" width="1" height="5"/><rect x="94" y="70" width="1" height="5"/><rect x="94" y="75" width="1" height="5"/><rect x="93" y="80" width="1" height="5"/><rect x="92" y="85" width="1" height="5"/><rect x="91" y="90" width="1" height="5"/><rect x="90" y="95" width="1" height="5"/></svg>