<svg id="Layer_1" data-name="Layer 1" xmlns="http://www.w3.org/2000/svg" viewBox="0 0 100 100"><title>pattern</title><rect y="99" width="1" height="1"/><rect x="1" y="98" width="1" height="1"/><rect x="2" y="97" width="1" height="1"/><rect x="3" y="96" width="1" height="1"/><rect x="4" y="95" width="1" height="1"/><rect x="5" y="94" width="1" height="1"/><rect x="6" y="93" width="1" height="1"/><rect x="7" y="92" width="1" height="1"/><rect x="8" y="91" width="1" height="1"/><rect x="9" y="90" width="1" height="1"/><rect y="89" width="1" height="1"/><rect x="1" y="88" width="1" height="1"/><rect x="2" y="87" width="1" height="1"/><rect x="3" y="86" width="1" height="1"/><rect x="4" y="85" width="1" height="1"/><rect x="5" y="84" width="1" height="1"/><rect x="6" y="83" width="1" height="1"/><rect x="7" y="82" width="1" height="1"/><rect x="8" y="81" width="1" height="1"/><rect x="9" y="80" width="1" height="1"/><rect y="79" width="1" height="1"/><rect x="1" y="78" width="1" height="1"/><rect x="2" y="77" width="1" height="1"/><rect x="3" y="76" width="1" height="1"/><rect x="4" y="75" width="1" height="1"/><rect x="5" y="74" width="1" height="1"/><rect x="6" y="73" width="1" height="1"/><rect x="7" y="72" width="1" height="1"/><rect x="8" y="71" width="1" height="1"/><rect x="9" y="70" width="1" height="1"/><rect y="69" width="1" height="1"/><rect x="1" y="68" width="1" height="1"/><rect x="2" y="67" width="1" height="1"/><rect x="3" y="66" width="1" height="1"/><rect x="4" y="65" width="1" height="1"/><rect x="5" y="64" width="1" height="1"/><rect x="6" y="63" width="1" height="1"/><rect x="7" y="62" width="1" height="1"/><rect x="8" y="61" width="1" height="1"/><rect x="9" y="60" width="1" height="1"/><rect y="59" width="1" height="1"/><rect x="1" y="58" width="1" height="1"/><rect x="2" y="57" width="1" height="1"/><rect x="3" y="56" width="1" height="1"/><rect x="4" y="55" width="1" height="1"/><rect x="5" y="54" width="1" height="1"/><rect x="6" y="53" width="1" height="1"/><rect x="7" y="52" width="1" height="1"/><rect x="8" y="51" width="1" height="1"/><rect x="9" y="50" width="1" height="1"/><rect y="49" width="1" height="1"/><rect x="1" y="48" width="1" height="1"/><rect x="2" y="47" width="1" height="1"/><rect x="3" y="46" width="1" height="1"/><rect x="4" y="45" width="1" height="1"/><rect x="5" y="44" width="1" height="1"/><rect x="6" y="43" width="1" height="1"/><rect x="7" y="42" width="1" height="1"/><rect x="8" y="41" width="1" height="1"/><rect x="9" y="40" width="1" height="1"/><rect y="39" width="1" height="1"/><rect x="1" y="38" width="1" height="1"/><rect x="2" y="37" width="1" height="1"/><rect x="3" y="36" width="1" height="1"/><rect x="4" y="35" width="1" height="1"/><rect x="5" y="34" width="1" height="1"/><rect x="6" y="33" width="1" height="1"/><rect x="7" y="32" width="1" height="1"/><rect x="8" y="31" width="1" height="1"/><rect x="9" y="30" width="1" height="1"/><rect y="29" width="1" height="1"/><rect x="1" y="28" width="1" height="1"/><rect x="2" y="27" width="1" height="1"/><rect x="3" y="26" width="1" height="1"/><rect x="4" y="25" width="1" height="1"/><rect x="5" y="24" width="1" height="1"/><rect x="6" y="23" width="1" height="1"/><rect x="7" y="22" width="1" height="1"/><rect x="8" y="21" width="1" height="1"/><rect x="9" y="20" width="1" height="1"/><rect y="19" width="1" height="1"/><rect x="1" y="18" width="1" height="1"/><rect x="2" y="17" width="1" height="1"/><rect x="3" y="16" width="1" height="1"/><rect x="4" y="15" width="1" height="1"/><rect x="5" y="14" width="1" height="1"/><rect x="6" y="13" width="1" height="1"/><rect x="7" y="12" width="1" height="1"/><rect x="8" y="11" width="1" height="1"/><rect x="9" y="10" width="1" height="1"/><rect y="9" width="1" height="1"/><rect x="1" y="8" width="1" height="1"/><rect x="2" y="7" width="1" height="1"/><rect x="3" y="6" width="1" height="1"/><rect x="4" y="5" width="1" height="1"/><rect x="5" y="4" width="1" height="1"/><rect x="6" y="3" width="1" height="1"/><rect x="7" y="2" width="1" height="1"/><rect x="8" y="1" width="1" height="1"/><rect x="9" width="1" height="1"/><rect x="10" y="99" width="1" height="1"/><rect x="11" y="98" width="1" height="1"/><rect x="12" y="97" width="1" height="1"/><rect x="13" y="96" width="1" height="1"/><rect x="14" y="95" width="1" height="1"/><rect x="15" y="94" width="1" height="1"/><rect x="16" y="93" width="1" height="1"/><rect x="17" y="92" width="1" height="1"/><rect x="18" y="91" width="1" height="1"/><rect x="19" y="90" width="1" height="1"/><rect x="10" y="89" width="1" height="1"/><rect x="11" y="88" width="1" height="1"/><rect x="12" y="87" width="1" height="1"/><rect x="13" y="86" width="1" height="1"/><rect x="14" y="85" width="1" height="1"/><rect x="15" y="84" width="1" height="1"/><rect x="16" y="83" width="1" height="1"/><rect x="17" y="82" width="1" height="1"/><rect x="18" y="81" width="1" height="1"/><rect x="19" y="80" width="1" height="1"/><rect x="10" y="79" width="1" height="1"/><rect x="11" y="78" width="1" height="1"/><rect x="12" y="77" width="1" height="1"/><rect x="13" y="76" width="1" height="1"/><rect x="14" y="75" width="1" height="1"/><rect x="15" y="74" width="1" height="1"/><rect x="16" y="73" width="1" height="1"/><rect x="17" y="72" width="1" height="1"/><rect x="18" y="71" width="1" height="1"/><rect x="19" y="70" width="1" height="1"/><rect x="10" y="69" width="1" height="1"/><rect x="11" y="68" width="1" height="1"/><rect x="12" y="67" width="1" height="1"/><rect x="13" y="66" width="1" height="1"/><rect x="14" y="65" width="1" height="1"/><rect x="15" y="64" width="1" height="1"/><rect x="16" y="63" width="1" height="1"/><rect x="17" y="62" width="1" height="1"/><rect x="18" y="61" width="1" height="1"/><rect x="19" y="60" width="1" height="1"/><rect x="10" y="59" width="1" height="1"/><rect x="11" y="58" width="1" height="1"/><rect x="12" y="57" width="1" height="1"/><rect x="13" y="56" width="1" height="1"/><rect x="14" y="55" width="1" height="1"/><rect x="15" y="54" width="1" height="1"/><rect x="16" y="53" width="1" height="1"/><rect x="17" y="52" width="1" height="1"/><rect x="18" y="51" width="1" height="1"/><rect x="19" y="50" width="1" height="1"/><rect x="10" y="49" width="1" height="1"/><rect x="11" y="48" width="1" height="1"/><rect x="12" y="47" width="1" height="1"/><rect x="13" y="46" width="1" height="1"/><rect x="14" y="45" width="1" height="1"/><rect x="15" y="44" width="1" height="1"/><rect x="16" y="43" width="1" height="1"/><rect x="17" y="42" width="1" height="1"/><rect x="18" y="41" width="1" height="1"/><rect x="19" y="40" width="1" height="1"/><rect x="10" y="39" width="1" height="1"/><rect x="11" y="38" width="1" height="1"/><rect x="12" y="37" width="1" height="1"/><rect x="13" y="36" width="1" height="1"/><rect x="14" y="35" width="1" height="1"/><rect x="15" y="34" width="1" height="1"/><rect x="16" y="33" width="1" height="1"/><rect x="17" y="32" width="1" height="1"/><rect x="18" y="31" width="1" height="1"/><rect x="19" y="30" width="1" height="1"/><rect x="10" y="29" width="1" height="1"/><rect x="11" y="28" width="1" height="1"/><rect x="12" y="27" width="1" height="1"/><rect x="13" y="26" width="1" height="1"/><rect x="14" y="25" width="1" height="1"/><rect x="15" y="24" width="1" height="1"/><rect x="16" y="23" width="1" height="1"/><rect x="17" y="22" width="1" height="1"/><rect x="18" y="21" width="1" height="1"/><rect x="19" y="20" width="1" height="1"/><rect x="10" y="19" width="1" height="1"/><rect x="11" y="18" width="1" height="1"/><rect x="12" y="17" width="1" height="1"/><rect x="13" y="16" width="1" height="1"/><rect x="14" y="15" width="1" height="1"/><rect x="15" y="14" width="1" height="1"/><rect x="16" y="13" width="1" height="1"/><rect x="17" y="12" width="1" height="1"/><rect x="18" y="11" width="1" height="1"/><rect x="19" y="10" width="1" height="1"/><rect x="10" y="9" width="1" height="1"/><rect x="11" y="8" width="1" height="1"/><rect x="12" y="7" width="1" height="1"/><rect x="13" y="6" width="1" height="1"/><rect x="14" y="5" width="1" height="1"/><rect x="15" y="4" width="1" height="1"/><rect x="16" y="3" width="1" height="1"/><rect x="17" y="2" width="1" height="1"/><rect x="18" y="1" width="1" height="1"/><rect x="19" width="1" height="1"/><rect x="20" y="99" width="1" height="1"/><rect x="21" y="98" width="1" height="1"/><rect x="22" y="97" width="1" height="1"/><rect x="23" y="96" width="1" height="1"/><rect x="24" y="95" width="1" height="1"/><rect x="25" y="94" width="1" height="1"/><rect x="26" y="93" width="1" height="1"/><rect x="27" y="92" width="1" height="1"/><rect x="28" y="91" width="1" height="1"/><rect x="29" y="90" width="1" height="1"/><rect x="20" y="89" width="1" height="1"/><rect x="21" y="88" width="1" height="1"/><rect x="22" y="87" width="1" height="1"/><rect x="23" y="86" width="1" height="1"/><rect x="24" y="85" width="1" height="1"/><rect x="25" y="84" width="1" height="1"/><rect x="26" y="83" width="1" height="1"/><rect x="27" y="82" width="1" height="1"/><rect x="28" y="81" width="1" height="1"/><rect x="29" y="80" width="1" height="1"/><rect x="20" y="79" width="1" height="1"/><rect x="21" y="78" width="1" height="1"/><rect x="22" y="77" width="1" height="1"/><rect x="23" y="76" width="1" height="1"/><rect x="24" y="75" width="1" height="1"/><rect x="25" y="74" width="1" height="1"/><rect x="26" y="73" width="1" height="1"/><rect x="27" y="72" width="1" height="1"/><rect x="28" y="71" width="1" height="1"/><rect x="29" y="70" width="1" height="1"/><rect x="20" y="69" width="1" height="1"/><rect x="21" y="68" width="1" height="1"/><rect x="22" y="67" width="1" height="1"/><rect x="23" y="66" width="1" height="1"/><rect x="24" y="65" width="1" height="1"/><rect x="25" y="64" width="1" height="1"/><rect x="26" y="63" width="1" height="1"/><rect x="27" y="62" width="1" height="1"/><rect x="28" y="61" width="1" height="1"/><rect x="29" y="60" width="1" height="1"/><rect x="20" y="59" width="1" height="1"/><rect x="21" y="58" width="1" height="1"/><rect x="22" y="57" width="1" height="1"/><rect x="23" y="56" width="1" height="1"/><rect x="24" y="55" width="1" height="1"/><rect x="25" y="54" width="1" height="1"/><rect x="26" y="53" width="1" height="1"/><rect x="27" y="52" width="1" height="1"/><rect x="28" y="51" width="1" height="1"/><rect x="29" y="50" width="1" height="1"/><rect x="20" y="49" width="1" height="1"/><rect x="21" y="48" width="1" height="1"/><rect x="22" y="47" width="1" height="1"/><rect x="23" y="46" width="1" height="1"/><rect x="24" y="45" width="1" height="1"/><rect x="25" y="44" width="1" height="1"/><rect x="26" y="43" width="1" height="1"/><rect x="27" y="42" width="1" height="1"/><rect x="28" y="41" width="1" height="1"/><rect x="29" y="40" width="1" height="1"/><rect x="20" y="39" width="1" height="1"/><rect x="21" y="38" width="1" height="1"/><rect x="22" y="37" width="1" height="1"/><rect x="23" y="36" width="1" height="1"/><rect x="24" y="35" width="1" height="1"/><rect x="25" y="34" width="1" height="1"/><rect x="26" y="33" width="1" height="1"/><rect x="27" y="32" width="1" height="1"/><rect x="28" y="31" width="1" height="1"/><rect x="29" y="30" width="1" height="1"/><rect x="20" y="29" width="1" height="1"/><rect x="21" y="28" width="1" height="1"/><rect x="22" y="27" width="1" height="1"/><rect x="23" y="26" width="1" height="1"/><rect x="24" y="25" width="1" height="1"/><rect x="25" y="24" width="1" height="1"/><rect x="26" y="23" width="1" height="1"/><rect x="27" y="22" width="1" height="1"/><rect x="28" y="21" width="1" height="1"/><rect x="29" y="20" width="1" height="1"/><rect x="20" y="19" width="1" height="1"/><rect x="21" y="18" width="1" height="1"/><rect x="22" y="17" width="1" height="1"/><rect x="23" y="16" width="1" height="1"/><rect x="24" y="15" width="1" height="1"/><rect x="25" y="14" width="1" height="1"/><rect x="26" y="13" width="1" height="1"/><rect x="27" y="12" width="1" height="1"/><rect x="28" y="11" width="1" height="1"/><rect x="29" y="10" width="1" height="1"/><rect x="20" y="9" width="1" height="1"/><rect x="21" y="8" width="1" height="1"/><rect x="22" y="7" width="1" height="1"/><rect x="23" y="6" width="1" height="1"/><rect x="24" y="5" width="1" height="1"/><rect x="25" y="4" width="1" height="1"/><rect x="26" y="3" width="1" height="1"/><rect x="27" y="2" width="1" height="1"/><rect x="28" y="1" width="1" height="1"/><rect x="29" width="1" height="1"/><rect x="30" y="99" width="1" height="1"/><rect x="31" y="98" width="1" height="1"/><rect x="32" y="97" width="1" height="1"/><rect x="33" y="96" width="1" height="1"/><rect x="34" y="95" width="1" height="1"/><rect x="35" y="94" width="1" height="1"/><rect x="36" y="93" width="1" height="1"/><rect x="37" y="92" width="1" height="1"/><rect x="38" y="91" width="1" height="1"/><rect x="39" y="90" width="1" height="1"/><rect x="30" y="89" width="1" height="1"/><rect x="31" y="88" width="1" height="1"/><rect x="32" y="87" width="1" height="1"/><rect x="33" y="86" width="1" height="1"/><rect x="34" y="85" width="1" height="1"/><rect x="35" y="84" width="1" height="1"/><rect x="36" y="83" width="1" height="1"/><rect x="37" y="82" width="1" height="1"/><rect x="38" y="81" width="1" height="1"/><rect x="39" y="80" width="1" height="1"/><rect x="30" y="79" width="1" height="1"/><rect x="31" y="78" width="1" height="1"/><rect x="32" y="77" width="1" height="1"/><rect x="33" y="76" width="1" height="1"/><rect x="34" y="75" width="1" height="1"/><rect x="35" y="74" width="1" height="1"/><rect x="36" y="73" width="1" height="1"/><rect x="37" y="72" width="1" height="1"/><rect x="38" y="71" width="1" height="1"/><rect x="39" y="70" width="1" height="1"/><rect x="30" y="69" width="1" height="1"/><rect x="31" y="68" width="1" height="1"/><rect x="32" y="67" width="1" height="1"/><rect x="33" y="66" width="1" height="1"/><rect x="34" y="65" width="1" height="1"/><rect x="35" y="64" width="1" height="1"/><rect x="36" y="63" width="1" height="1"/><rect x="37" y="62" width="1" height="1"/><rect x="38" y="61" width="1" height="1"/><rect x="39" y="60" width="1" height="1"/><rect x="30" y="59" width="1" height="1"/><rect x="31" y="58" width="1" height="1"/><rect x="32" y="57" width="1" height="1"/><rect x="33" y="56" width="1" height="1"/><rect x="34" y="55" width="1" height="1"/><rect x="35" y="54" width="1" height="1"/><rect x="36" y="53" width="1" height="1"/><rect x="37" y="52" width="1" height="1"/><rect x="38" y="51" width="1" height="1"/><rect x="39" y="50" width="1" height="1"/><rect x="30" y="49" width="1" height="1"/><rect x="31" y="48" width="1" height="1"/><rect x="32" y="47" width="1" height="1"/><rect x="33" y="46" width="1" height="1"/><rect x="34" y="45" width="1" height="1"/><rect x="35" y="44" width="1" height="1"/><rect x="36" y="43" width="1" height="1"/><rect x="37" y="42" width="1" height="1"/><rect x="38" y="41" width="1" height="1"/><rect x="39" y="40" width="1" height="1"/><rect x="30" y="39" width="1" height="1"/><rect x="31" y="38" width="1" height="1"/><rect x="32" y="37" width="1" height="1"/><rect x="33" y="36" width="1" height="1"/><rect x="34" y="35" width="1" height="1"/><rect x="35" y="34" width="1" height="1"/><rect x="36" y="33" width="1" height="1"/><rect x="37" y="32" width="1" height="1"/><rect x="38" y="31" width="1" height="1"/><rect x="39" y="30" width="1" height="1"/><rect x="30" y="29" width="1" height="1"/><rect x="31" y="28" width="1" height="1"/><rect x="32" y="27" width="1" height="1"/><rect x="33" y="26" width="1" height="1"/><rect x="34" y="25" width="1" height="1"/><rect x="35" y="24" width="1" height="1"/><rect x="36" y="23" width="1" height="1"/><rect x="37" y="22" width="1" height="1"/><rect x="38" y="21" width="1" height="1"/><rect x="39" y="20" width="1" height="1"/><rect x="30" y="19" width="1" height="1"/><rect x="31" y="18" width="1" height="1"/><rect x="32" y="17" width="1" height="1"/><rect x="33" y="16" width="1" height="1"/><rect x="34" y="15" width="1" height="1"/><rect x="35" y="14" width="1" height="1"/><rect x="36" y="13" width="1" height="1"/><rect x="37" y="12" width="1" height="1"/><rect x="38" y="11" width="1" height="1"/><rect x="39" y="10" width="1" height="1"/><rect x="30" y="9" width="1" height="1"/><rect x="31" y="8" width="1" height="1"/><rect x="32" y="7" width="1" height="1"/><rect x="33" y="6" width="1" height="1"/><rect x="34" y="5" width="1" height="1"/><rect x="35" y="4" width="1" height="1"/><rect x="36" y="3" width="1" height="1"/><rect x="37" y="2" width="1" height="1"/><rect x="38" y="1" width="1" height="1"/><rect x="39" width="1" height="1"/><rect x="40" y="99" width="1" height="1"/><rect x="41" y="98" width="1" height="1"/><rect x="42" y="97" width="1" height="1"/><rect x="43" y="96" width="1" height="1"/><rect x="44" y="95" width="1" height="1"/><rect x="45" y="94" width="1" height="1"/><rect x="46" y="93" width="1" height="1"/><rect x="47" y="92" width="1" height="1"/><rect x="48" y="91" width="1" height="1"/><rect x="49" y="90" width="1" height="1"/><rect x="40" y="89" width="1" height="1"/><rect x="41" y="88" width="1" height="1"/><rect x="42" y="87" width="1" height="1"/><rect x="43" y="86" width="1" height="1"/><rect x="44" y="85" width="1" height="1"/><rect x="45" y="84" width="1" height="1"/><rect x="46" y="83" width="1" height="1"/><rect x="47" y="82" width="1" height="1"/><rect x="48" y="81" width="1" height="1"/><rect x="49" y="80" width="1" height="1"/><rect x="40" y="79" width="1" height="1"/><rect x="41" y="78" width="1" height="1"/><rect x="42" y="77" width="1" height="1"/><rect x="43" y="76" width="1" height="1"/><rect x="44" y="75" width="1" height="1"/><rect x="45" y="74" width="1" height="1"/><rect x="46" y="73" width="1" height="1"/><rect x="47" y="72" width="1" height="1"/><rect x="48" y="71" width="1" height="1"/><rect x="49" y="70" width="1" height="1"/><rect x="40" y="69" width="1" height="1"/><rect x="41" y="68" width="1" height="1"/><rect x="42" y="67" width="1" height="1"/><rect x="43" y="66" width="1" height="1"/><rect x="44" y="65" width="1" height="1"/><rect x="45" y="64" width="1" height="1"/><rect x="46" y="63" width="1" height="1"/><rect x="47" y="62" width="1" height="1"/><rect x="48" y="61" width="1" height="1"/><rect x="49" y="60" width="1" height="1"/><rect x="40" y="59" width="1" height="1"/><rect x="41" y="58" width="1" height="1"/><rect x="42" y="57" width="1" height="1"/><rect x="43" y="56" width="1" height="1"/><rect x="44" y="55" width="1" height="1"/><rect x="45" y="54" width="1" height="1"/><rect x="46" y="53" width="1" height="1"/><rect x="47" y="52" width="1" height="1"/><rect x="48" y="51" width="1" height="1"/><rect x="49" y="50" width="1" height="1"/><rect x="40" y="49" width="1" height="1"/><rect x="41" y="48" width="1" height="1"/><rect x="42" y="47" width="1" height="1"/><rect x="43" y="46" width="1" height="1"/><rect x="44" y="45" width="1" height="1"/><rect x="45" y="44" width="1" height="1"/><rect x="46" y="43" width="1" height="1"/><rect x="47" y="42" width="1" height="1"/><rect x="48" y="41" width="1" height="1"/><rect x="49" y="40" width="1" height="1"/><rect x="40" y="39" width="1" height="1"/><rect x="41" y="38" width="1" height="1"/><rect x="42" y="37" width="1" height="1"/><rect x="43" y="36" width="1" height="1"/><rect x="44" y="35" width="1" height="1"/><rect x="45" y="34" width="1" height="1"/><rect x="46" y="33" width="1" height="1"/><rect x="47" y="32" width="1" height="1"/><rect x="48" y="31" width="1" height="1"/><rect x="49" y="30" width="1" height="1"/><rect x="40" y="29" width="1" height="1"/><rect x="41" y="28" width="1" height="1"/><rect x="42" y="27" width="1" height="1"/><rect x="43" y="26" width="1" height="1"/><rect x="44" y="25" width="1" height="1"/><rect x="45" y="24" width="1" height="1"/><rect x="46" y="23" width="1" height="1"/><rect x="47" y="22" width="1" height="1"/><rect x="48" y="21" width="1" height="1"/><rect x="49" y="20" width="1" height="1"/><rect x="40" y="19" width="1" height="1"/><rect x="41" y="18" width="1" height="1"/><rect x="42" y="17" width="1" height="1"/><rect x="43" y="16" width="1" height="1"/><rect x="44" y="15" width="1" height="1"/><rect x="45" y="14" width="1" height="1"/><rect x="46" y="13" width="1" height="1"/><rect x="47" y="12" width="1" height="1"/><rect x="48" y="11" width="1" height="1"/><rect x="49" y="10" width="1" height="1"/><rect x="40" y="9" width="1" height="1"/><rect x="41" y="8" width="1" height="1"/><rect x="42" y="7" width="1" height="1"/><rect x="43" y="6" width="1" height="1"/><rect x="44" y="5" width="1" height="1"/><rect x="45" y="4" width="1" height="1"/><rect x="46" y="3" width="1" height="1"/><rect x="47" y="2" width="1" height="1"/><rect x="48" y="1" width="1" height="1"/><rect x="49" width="1" height="1"/><rect x="50" y="99" width="1" height="1"/><rect x="51" y="98" width="1" height="1"/><rect x="52" y="97" width="1" height="1"/><rect x="53" y="96" width="1" height="1"/><rect x="54" y="95" width="1" height="1"/><rect x="55" y="94" width="1" height="1"/><rect x="56" y="93" width="1" height="1"/><rect x="57" y="92" width="1" height="1"/><rect x="58" y="91" width="1" height="1"/><rect x="59" y="90" width="1" height="1"/><rect x="50" y="89" width="1" height="1"/><rect x="51" y="88" width="1" height="1"/><rect x="52" y="87" width="1" height="1"/><rect x="53" y="86" width="1" height="1"/><rect x="54" y="85" width="1" height="1"/><rect x="55" y="84" width="1" height="1"/><rect x="56" y="83" width="1" height="1"/><rect x="57" y="82" width="1" height="1"/><rect x="58" y="81" width="1" height="1"/><rect x="59" y="80" width="1" height="1"/><rect x="50" y="79" width="1" height="1"/><rect x="51" y="78" width="1" height="1"/><rect x="52" y="77" width="1" height="1"/><rect x="53" y="76" width="1" height="1"/><rect x="54" y="75" width="1" height="1"/><rect x="55" y="74" width="1" height="1"/><rect x="56" y="73" width="1" height="1"/><rect x="57" y="72" width="1" height="1"/><rect x="58" y="71" width="1" height="1"/><rect x="59" y="70" width="1" height="1"/><rect x="50" y="69" width="1" height="1"/><rect x="51" y="68" width="1" height="1"/><rect x="52" y="67" width="1" height="1"/><rect x="53" y="66" width="1" height="1"/><rect x="54" y="65" width="1" height="1"/><rect x="55" y="64" width="1" height="1"/><rect x="56" y="63" width="1" height="1"/><rect x="57" y="62" width="1" height="1"/><rect x="58" y="61" width="1" height="1"/><rect x="59" y="60" width="1" height="1"/><rect x="50" y="59" width="1" height="1"/><rect x="51" y="58" width="1" height="1"/><rect x="52" y="57" width="1" height="1"/><rect x="53" y="56" width="1" height="1"/><rect x="54" y="55" width="1" height="1"/><rect x="55" y="54" width="1" height="1"/><rect x="56" y="53" width="1" height="1"/><rect x="57" y="52" width="1" height="1"/><rect x="58" y="51" width="1" height="1"/><rect x="59" y="50" width="1" height="1"/><rect x="50" y="49" width="1" height="1"/><rect x="51" y="48" width="1" height="1"/><rect x="52" y="47" width="1" height="1"/><rect x="53" y="46" width="1" height="1"/><rect x="54" y="45" width="1" height="1"/><rect x="55" y="44" width="1" height="1"/><rect x="56" y="43" width="1" height="1"/><rect x="57" y="42" width="1" height="1"/><rect x="58" y="41" width="1" height="1"/><rect x="59" y="40" width="1" height="1"/><rect x="50" y="39" width="1" height="1"/><rect x="51" y="38" width="1" height="1"/><rect x="52" y="37" width="1" height="1"/><rect x="53" y="36" width="1" height="1"/><rect x="54" y="35" width="1" height="1"/><rect x="55" y="34" width="1" height="1"/><rect x="56" y="33" width="1" height="1"/><rect x="57" y="32" width="1" height="1"/><rect x="58" y="31" width="1" height="1"/><rect x="59" y="30" width="1" height="1"/><rect x="50" y="29" width="1" height="1"/><rect x="51" y="28" width="1" height="1"/><rect x="52" y="27" width="1" height="1"/><rect x="53" y="26" width="1" height="1"/><rect x="54" y="25" width="1" height="1"/><rect x="55" y="24" width="1" height="1"/><rect x="56" y="23" width="1" height="1"/><rect x="57" y="22" width="1" height="1"/><rect x="58" y="21" width="1" height="1"/><rect x="59" y="20" width="1" height="1"/><rect x="50" y="19" width="1" height="1"/><rect x="51" y="18" width="1" height="1"/><rect x="52" y="17" width="1" height="1"/><rect x="53" y="16" width="1" height="1"/><rect x="54" y="15" width="1" height="1"/><rect x="55" y="14" width="1" height="1"/><rect x="56" y="13" width="1" height="1"/><rect x="57" y="12" width="1" height="1"/><rect x="58" y="11" width="1" height="1"/><rect x="59" y="10" width="1" height="1"/><rect x="50" y="9" width="1" height="1"/><rect x="51" y="8" width="1" height="1"/><rect x="52" y="7" width="1" height="1"/><rect x="53" y="6" width="1" height="1"/><rect x="54" y="5" width="1" height="1"/><rect x="55" y="4" width="1" height="1"/><rect x="56" y="3" width="1" height="1"/><rect x="57" y="2" width="1" height="1"/><rect x="58" y="1" width="1" height="1"/><rect x="59" width="1" height="1"/><rect x="60" y="99" width="1" height="1"/><rect x="61" y="98" width="1" height="1"/><rect x="62" y="97" width="1" height="1"/><rect x="63" y="96" width="1" height="1"/><rect x="64" y="95" width="1" height="1"/><rect x="65" y="94" width="1" height="1"/><rect x="66" y="93" width="1" height="1"/><rect x="67" y="92" width="1" height="1"/><rect x="68" y="91" width="1" height="1"/><rect x="69" y="90" width="1" height="1"/><rect x="60" y="89" width="1" height="1"/><rect x="61" y="88" width="1" height="1"/><rect x="62" y="87" width="1" height="1"/><rect x="63" y="86" width="1" height="1"/><rect x="64" y="85" width="1" height="1"/><rect x="65" y="84" width="1" height="1"/><rect x="66" y="83" width="1" height="1"/><rect x="67" y="82" width="1" height="1"/><rect x="68" y="81" width="1" height="1"/><rect x="69" y="80" width="1" height="1"/><rect x="60" y="79" width="1" height="1"/><rect x="61" y="78" width="1" height="1"/><rect x="62" y="77" width="1" height="1"/><rect x="63" y="76" width="1" height="1"/><rect x="64" y="75" width="1" height="1"/><rect x="65" y="74" width="1" height="1"/><rect x="66" y="73" width="1" height="1"/><rect x="67" y="72" width="1" height="1"/><rect x="68" y="71" width="1" height="1"/><rect x="69" y="70" width="1" height="1"/><rect x="60" y="69" width="1" height="1"/><rect x="61" y="68" width="1" height="1"/><rect x="62" y="67" width="1" height="1"/><rect x="63" y="66" width="1" height="1"/><rect x="64" y="65" width="1" height="1"/><rect x="65" y="64" width="1" height="1"/><rect x="66" y="63" width="1" height="1"/><rect x="67" y="62" width="1" height="1"/><rect x="68" y="61" width="1" height="1"/><rect x="69" y="60" width="1" height="1"/><rect x="60" y="59" width="1" height="1"/><rect x="61" y="58" width="1" height="1"/><rect x="62" y="57" width="1" height="1"/><rect x="63" y="56" width="1" height="1"/><rect x="64" y="55" width="1" height="1"/><rect x="65" y="54" width="1" height="1"/><rect x="66" y="53" width="1" height="1"/><rect x="67" y="52" width="1" height="1"/><rect x="68" y="51" width="1" height="1"/><rect x="69" y="50" width="1" height="1"/><rect x="60" y="49" width="1" height="1"/><rect x="61" y="48" width="1" height="1"/><rect x="62" y="47" width="1" height="1"/><rect x="63" y="46" width="1" height="1"/><rect x="64" y="45" width="1" height="1"/><rect x="65" y="44" width="1" height="1"/><rect x="66" y="43" width="1" height="1"/><rect x="67" y="42" width="1" height="1"/><rect x="68" y="41" width="1" height="1"/><rect x="69" y="40" width="1" height="1"/><rect x="60" y="39" width="1" height="1"/><rect x="61" y="38" width="1" height="1"/><rect x="62" y="37" width="1" height="1"/><rect x="63" y="36" width="1" height="1"/><rect x="64" y="35" width="1" height="1"/><rect x="65" y="34" width="1" height="1"/><rect x="66" y="33" width="1" height="1"/><rect x="67" y="32" width="1" height="1"/><rect x="68" y="31" width="1" height="1"/><rect x="69" y="30" width="1" height="1"/><rect x="60" y="29" width="1" height="1"/><rect x="61" y="28" width="1" height="1"/><rect x="62" y="27" width="1" height="1"/><rect x="63" y="26" width="1" height="1"/><rect x="64" y="25" width="1" height="1"/><rect x="65" y="24" width="1" height="1"/><rect x="66" y="23" width="1" height="1"/><rect x="67" y="22" width="1" height="1"/><rect x="68" y="21" width="1" height="1"/><rect x="69" y="20" width="1" height="1"/><rect x="60" y="19" width="1" height="1"/><rect x="61" y="18" width="1" height="1"/><rect x="62" y="17" width="1" height="1"/><rect x="63" y="16" width="1" height="1"/><rect x="64" y="15" width="1" height="1"/><rect x="65" y="14" width="1" height="1"/><rect x="66" y="13" width="1" height="1"/><rect x="67" y="12" width="1" height="1"/><rect x="68" y="11" width="1" height="1"/><rect x="69" y="10" width="1" height="1"/><rect x="60" y="9" width="1" height="1"/><rect x="61" y="8" width="1" height="1"/><rect x="62" y="7" width="1" height="1"/><rect x="63" y="6" width="1" height="1"/><rect x="64" y="5" width="1" height="1"/><rect x="65" y="4" width="1" height="1"/><rect x="66" y="3" width="1" height="1"/><rect x="67" y="2" width="1" height="1"/><rect x="68" y="1" width="1" height="1"/><rect x="69" width="1" height="1"/><rect x="70" y="99" width="1" height="1"/><rect x="71" y="98" width="1" height="1"/><rect x="72" y="97" width="1" height="1"/><rect x="73" y="96" width="1" height="1"/><rect x="74" y="95" width="1" height="1"/><rect x="75" y="94" width="1" height="1"/><rect x="76" y="93" width="1" height="1"/><rect x="77" y="92" width="1" height="1"/><rect x="78" y="91" width="1" height="1"/><rect x="79" y="90" width="1" height="1"/><rect x="70" y="89" width="1" height="1"/><rect x="71" y="88" width="1" height="1"/><rect x="72" y="87" width="1" height="1"/><rect x="73" y="86" width="1" height="1"/><rect x="74" y="85" width="1" height="1"/><rect x="75" y="84" width="1" height="1"/><rect x="76" y="83" width="1" height="1"/><rect x="77" y="82" width="1" height="1"/><rect x="78" y="81" width="1" height="1"/><rect x="79" y="80" width="1" height="1"/><rect x="70" y="79" width="1" height="1"/><rect x="71" y="78" width="1" height="1"/><rect x="72" y="77" width="1" height="1"/><rect x="73" y="76" width="1" height="1"/><rect x="74" y="75" width="1" height="1"/><rect x="75" y="74" width="1" height="1"/><rect x="76" y="73" width="1" height="1"/><rect x="77" y="72" width="1" height="1"/><rect x="78" y="71" width="1" height="1"/><rect x="79" y="70" width="1" height="1"/><rect x="70" y="69" width="1" height="1"/><rect x="71" y="68" width="1" height="1"/><rect x="72" y="67" width="1" height="1"/><rect x="73" y="66" width="1" height="1"/><rect x="74" y="65" width="1" height="1"/><rect x="75" y="64" width="1" height="1"/><rect x="76" y="63" width="1" height="1"/><rect x="77" y="62" width="1" height="1"/><rect x="78" y="61" width="1" height="1"/><rect x="79" y="60" width="1" height="1"/><rect x="70" y="59" width="1" height="1"/><rect x="71" y="58" width="1" height="1"/><rect x="72" y="57" width="1" height="1"/><rect x="73" y="56" width="1" height="1"/><rect x="74" y="55" width="1" height="1"/><rect x="75" y="54" width="1" height="1"/><rect x="76" y="53" width="1" height="1"/><rect x="77" y="52" width="1" height="1"/><rect x="78" y="51" width="1" height="1"/><rect x="79" y="50" width="1" height="1"/><rect x="70" y="49" width="1" height="1"/><rect x="71" y="48" width="1" height="1"/><rect x="72" y="47" width="1" height="1"/><rect x="73" y="46" width="1" height="1"/><rect x="74" y="45" width="1" height="1"/><rect x="75" y="44" width="1" height="1"/><rect x="76" y="43" width="1" height="1"/><rect x="77" y="42" width="1" height="1"/><rect x="78" y="41" width="1" height="1"/><rect x="79" y="40" width="1" height="1"/><rect x="70" y="39" width="1" height="1"/><rect x="71" y="38" width="1" height="1"/><rect x="72" y="37" width="1" height="1"/><rect x="73" y="36" width="1" height="1"/><rect x="74" y="35" width="1" height="1"/><rect x="75" y="34" width="1" height="1"/><rect x="76" y="33" width="1" height="1"/><rect x="77" y="32" width="1" height="1"/><rect x="78" y="31" width="1" height="1"/><rect x="79" y="30" width="1" height="1"/><rect x="70" y="29" width="1" height="1"/><rect x="71" y="28" width="1" height="1"/><rect x="72" y="27" width="1" height="1"/><rect x="73" y="26" width="1" height="1"/><rect x="74" y="25" width="1" height="1"/><rect x="75" y="24" width="1" height="1"/><rect x="76" y="23" width="1" height="1"/><rect x="77" y="22" width="1" height="1"/><rect x="78" y="21" width="1" height="1"/><rect x="79" y="20" width="1" height="1"/><rect x="70" y="19" width="1" height="1"/><rect x="71" y="18" width="1" height="1"/><rect x="72" y="17" width="1" height="1"/><rect x="73" y="16" width="1" height="1"/><rect x="74" y="15" width="1" height="1"/><rect x="75" y="14" width="1" height="1"/><rect x="76" y="13" width="1" height="1"/><rect x="77" y="12" width="1" height="1"/><rect x="78" y="11" width="1" height="1"/><rect x="79" y="10" width="1" height="1"/><rect x="70" y="9" width="1" height="1"/><rect x="71" y="8" width="1" height="1"/><rect x="72" y="7" width="1" height="1"/><rect x="73" y="6" width="1" height="1"/><rect x="74" y="5" width="1" height="1"/><rect x="75" y="4" width="1" height="1"/><rect x="76" y="3" width="1" height="1"/><rect x="77" y="2" width="1" height="1"/><rect x="78" y="1" width="1" height="1"/><rect x="79" width="1" height="1"/><rect x="80" y="99" width="1" height="1"/><rect x="81" y="98" width="1" height="1"/><rect x="82" y="97" width="1" height="1"/><rect x="83" y="96" width="1" height="1"/><rect x="84" y="95" width="1" height="1"/><rect x="85" y="94" width="1" height="1"/><rect x="86" y="93" width="1" height="1"/><rect x="87" y="92" width="1" height="1"/><rect x="88" y="91" width="1" height="1"/><rect x="89" y="90" width="1" height="1"/><rect x="80" y="89" width="1" height="1"/><rect x="81" y="88" width="1" height="1"/><rect x="82" y="87" width="1" height="1"/><rect x="83" y="86" width="1" height="1"/><rect x="84" y="85" width="1" height="1"/><rect x="85" y="84" width="1" height="1"/><rect x="86" y="83" width="1" height="1"/><rect x="87" y="82" width="1" height="1"/><rect x="88" y="81" width="1" height="1"/><rect x="89" y="80" width="1" height="1"/><rect x="80" y="79" width="1" height="1"/><rect x="81" y="78" width="1" height="1"/><rect x="82" y="77" width="1" height="1"/><rect x="83" y="76" width="1" height="1"/><rect x="84" y="75" width="1" height="1"/><rect x="85" y="74" width="1" height="1"/><rect x="86" y="73" width="1" height="1"/><rect x="87" y="72" width="1" height="1"/><rect x="88" y="71" width="1" height="1"/><rect x="89" y="70" width="1" height="1"/><rect x="80" y="69" width="1" height="1"/><rect x="81" y="68" width="1" height="1"/><rect x="82" y="67" width="1" height="1"/><rect x="83" y="66" width="1" height="1"/><rect x="84" y="65" width="1" height="1"/><rect x="85" y="64" width="1" height="1"/><rect x="86" y="63" width="1" height="1"/><rect x="87" y="62" width="1" height="1"/><rect x="88" y="61" width="1" height="1"/><rect x="89" y="60" width="1" height="1"/><rect x="80" y="59" width="1" height="1"/><rect x="81" y="58" width="1" height="1"/><rect x="82" y="57" width="1" height="1"/><rect x="83" y="56" width="1" height="1"/><rect x="84" y="55" width="1" height="1"/><rect x="85" y="54" width="1" height="1"/><rect x="86" y="53" width="1" height="1"/><rect x="87" y="52" width="1" height="1"/><rect x="88" y="51" width="1" height="1"/><rect x="89" y="50" width="1" height="1"/><rect x="80" y="49" width="1" height="1"/><rect x="81" y="48" width="1" height="1"/><rect x="82" y="47" width="1" height="1"/><rect x="83" y="46" width="1" height="1"/><rect x="84" y="45" width="1" height="1"/><rect x="85" y="44" width="1" height="1"/><rect x="86" y="43" width="1" height="1"/><rect x="87" y="42" width="1" height="1"/><rect x="88" y="41" width="1" height="1"/><rect x="89" y="40" width="1" height="1"/><rect x="80" y="39" width="1" height="1"/><rect x="81" y="38" width="1" height="1"/><rect x="82" y="37" width="1" height="1"/><rect x="83" y="36" width="1" height="1"/><rect x="84" y="35" width="1" height="1"/><rect x="85" y="34" width="1" height="1"/><rect x="86" y="33" width="1" height="1"/><rect x="87" y="32" width="1" height="1"/><rect x="88" y="31" width="1" height="1"/><rect x="89" y="30" width="1" height="1"/><rect x="80" y="29" width="1" height="1"/><rect x="81" y="28" width="1" height="1"/><rect x="82" y="27" width="1" height="1"/><rect x="83" y="26" width="1" height="1"/><rect x="84" y="25" width="1" height="1"/><rect x="85" y="24" width="1" height="1"/><rect x="86" y="23" width="1" height="1"/><rect x="87" y="22" width="1" height="1"/><rect x="88" y="21" width="1" height="1"/><rect x="89" y="20" width="1" height="1"/><rect x="80" y="19" width="1" height="1"/><rect x="81" y="18" width="1" height="1"/><rect x="82" y="17" width="1" height="1"/><rect x="83" y="16" width="1" height="1"/><rect x="84" y="15" width="1" height="1"/><rect x="85" y="14" width="1" height="1"/><rect x="86" y="13" width="1" height="1"/><rect x="87" y="12" width="1" height="1"/><rect x="88" y="11" width="1" height="1"/><rect x="89" y="10" width="1" height="1"/><rect x="80" y="9" width="1" height="1"/><rect x="81" y="8" width="1" height="1"/><rect x="82" y="7" width="1" height="1"/><rect x="83" y="6" width="1" height="1"/><rect x="84" y="5" width="1" height="1"/><rect x="85" y="4" width="1" height="1"/><rect x="86" y="3" width="1" height="1"/><rect x="87" y="2" width="1" height="1"/><rect x="88" y="1" width="1" height="1"/><rect x="89" width="1" height="1"/><rect x="90" y="99" width="1" height="1"/><rect x="91" y="98" width="1" height="1"/><rect x="92" y="97" width="1" height="1"/><rect x="93" y="96" width="1" height="1"/><rect x="94" y="95" width="1" height="1"/><rect x="95" y="94" width="1" height="1"/><rect x="96" y="93" width="1" height="1"/><rect x="97" y="92" width="1" height="1"/><rect x="98" y="91" width="1" height="1"/><rect x="99" y="90" width="1" height="1"/><rect x="90" y="89" width="1" height="1"/><rect x="91" y="88" width="1" height="1"/><rect x="92" y="87" width="1" height="1"/><rect x="93" y="86" width="1" height="1"/><rect x="94" y="85" width="1" height="1"/><rect x="95" y="84" width="1" height="1"/><rect x="96" y="83" width="1" height="1"/><rect x="97" y="82" width="1" height="1"/><rect x="98" y="81" width="1" height="1"/><rect x="99" y="80" width="1" height="1"/><rect x="90" y="79" width="1" height="1"/><rect x="91" y="78" width="1" height="1"/><rect x="92" y="77" width="1" height="1"/><rect x="93" y="76" width="1" height="1"/><rect x="94" y="75" width="1" height="1"/><rect x="95" y="74" width="1" height="1"/><rect x="96" y="73" width="1" height="1"/><rect x="97" y="72" width="1" height="1"/><rect x="98" y="71" width="1" height="1"/><rect x="99" y="70" width="1" height="1"/><rect x="90" y="69" width="1" height="1"/><rect x="91" y="68" width="1" height="1"/><rect x="92" y="67" width="1" height="1"/><rect x="93" y="66" width="1" height="1"/><rect x="94" y="65" width="1" height="1"/><rect x="95" y="64" width="1" height="1"/><rect x="96" y="63" width="1" height="1"/><rect x="97" y="62" width="1" height="1"/><rect x="98" y="61" width="1" height="1"/><rect x="99" y="60" width="1" height="1"/><rect x="90" y="59" width="1" height="1"/><rect x="91" y="58" width="1" height="1"/><rect x="92" y="57" width="1" height="1"/><rect x="93" y="56" width="1" height="1"/><rect x="94" y="55" width="1" height="1"/><rect x="95" y="54" width="1" height="1"/><rect x="96" y="53" width="1" height="1"/><rect x="97" y="52" width="1" height="1"/><rect x="98" y="51" width="1" height="1"/><rect x="99" y="50" width="1" height="1"/><rect x="90" y="49" width="1" height="1"/><rect x="91" y="48" width="1" height="1"/><rect x="92" y="47" width="1" height="1"/><rect x="93" y="46" width="1" height="1"/><rect x="94" y="45" width="1" height="1"/><rect x="95" y="44" width="1" height="1"/><rect x="96" y="43" width="1" height="1"/><rect x="97" y="42" width="1" height="1"/><rect x="98" y="41" width="1" height="1"/><rect x="99" y="40" width="1" height="1"/><rect x="90" y="39" width="1" height="1"/><rect x="91" y="38" width="1" height="1"/><rect x="92" y="37" width="1" height="1"/><rect x="93" y="36" width="1" height="1"/><rect x="94" y="35" width="1" height="1"/><rect x="95" y="34" width="1" height="1"/><rect x="96" y="33" width="1" height="1"/><rect x="97" y="32" width="1" height="1"/><rect x="98" y="31" width="1" height="1"/><rect x="99" y="30" width="1" height="1"/><rect x="90" y="29" width="1" height="1"/><rect x="91" y="28" width="1" height="1"/><rect x="92" y="27" width="1" height="1"/><rect x="93" y="26" width="1" height="1"/><rect x="94" y="25" width="1" height="1"/><rect x="95" y="24" width="1" height="1"/><rect x="96" y="23" width="1" height="1"/><rect x="97" y="22" width="1" height="1"/><rect x="98" y="21" width="1" height="1"/><rect x="99" y="20" width="1" height="1"/><rect x="90" y="19" width="1" height="1"/><rect x="91" y="18" width="1" height="1"/><rect x="92" y="17" width="1" height="1"/><rect x="93" y="16" width="1" height="1"/><rect x="94" y="15" width="1" height="1"/><rect x="95" y="14" width="1" height="1"/><rect x="96" y="13" width="1" height="1"/><rect x="97" y="12" width="1" height="1"/><rect x="98" y="11" width="1" height="1"/><rect x="99" y="10" width="1" height="1"/><rect x="90" y="9" width="1" height="1"/><rect x="91" y="8" width="1" height="1"/><rect x="92" y="7" width="1" height="1"/><rect x="93" y="6" width="1" height="1"/><rect x="94" y="5" width="1" height="1"/><rect x="95" y="4" width="1" height="1"/><rect x="96" y="3" width="1" height="1"/><rect x="97" y="2" width="1" height="1"/><rect x="98" y="1" width="1" height="1"/><rect x="99" width="1" height="1"/></svg>