<svg id="Layer_1" data-name="Layer 1" xmlns="http://www.w3.org/2000/svg" viewBox="0 0 100 100"><title>pattern</title><rect width="1" height="2"/><rect x="1" y="2" width="1" height="2"/><rect x="2" y="4" width="1" height="2"/><rect x="10" width="1" height="2"/><polygon points="12 6 13 6 13 4 14 4 14 3 12 3 12 2 11 2 11 4 10 4 10 5 12 5 12 6"/><rect x="13" y="6" width="1" height="2"/><rect x="14" y="8" width="1" height="2"/><polygon points="20 2 21 2 21 0 20 0 18 0 18 1 20 1 20 2"/><rect x="21" y="2" width="1" height="2"/><rect x="22" y="4" width="1" height="2"/><rect x="30" width="1" height="2"/><polygon points="32 6 33 6 33 4 34 4 34 3 32 3 32 2 31 2 31 4 30 4 30 5 32 5 32 6"/><rect x="33" y="6" width="1" height="2"/><rect x="34" y="8" width="1" height="2"/><polygon points="40 2 41 2 41 0 40 0 38 0 38 1 40 1 40 2"/><rect x="41" y="2" width="1" height="2"/><rect x="42" y="4" width="1" height="2"/><rect x="50" width="1" height="2"/><polygon points="52 6 53 6 53 4 54 4 54 3 52 3 52 2 51 2 51 4 50 4 50 5 52 5 52 6"/><rect x="53" y="6" width="1" height="2"/><rect x="54" y="8" width="1" height="2"/><polygon points="60 2 61 2 61 0 60 0 58 0 58 1 60 1 60 2"/><rect x="61" y="2" width="1" height="2"/><rect x="62" y="4" width="1" height="2"/><rect x="70" width="1" height="2"/><polygon points="72 6 73 6 73 4 74 4 74 3 72 3 72 2 71 2 71 4 70 4 70 5 72 5 72 6"/><rect x="73" y="6" width="1" height="2"/><rect x="74" y="8" width="1" height="2"/><polygon points="80 2 81 2 81 0 80 0 78 0 78 1 80 1 80 2"/><rect x="81" y="2" width="1" height="2"/><rect x="82" y="4" width="1" height="2"/><rect x="90" width="1" height="2"/><rect x="93" y="6" width="1" height="2"/><rect x="94" y="8" width="1" height="2"/><rect x="5" y="10" width="1" height="2"/><rect x="6" y="12" width="1" height="2"/><polygon points="8 18 9 18 9 16 10 16 10 15 8 15 8 14 7 14 7 16 6 16 6 17 8 17 8 18"/><rect x="9" y="18" width="1" height="2"/><polygon points="16 14 17 14 17 12 18 12 18 11 16 11 16 10 15 10 15 12 14 12 14 13 16 13 16 14"/><rect x="17" y="14" width="1" height="2"/><rect x="18" y="16" width="1" height="2"/><rect x="25" y="10" width="1" height="2"/><rect x="26" y="12" width="1" height="2"/><rect x="29" y="18" width="1" height="2"/><polygon points="36 14 37 14 37 12 38 12 38 11 36 11 36 10 35 10 35 12 34 12 34 13 36 13 36 14"/><rect x="37" y="14" width="1" height="2"/><rect x="38" y="16" width="1" height="2"/><rect x="45" y="10" width="1" height="2"/><rect x="46" y="12" width="1" height="2"/><rect x="49" y="18" width="1" height="2"/><polygon points="56 14 57 14 57 12 58 12 58 11 56 11 56 10 55 10 55 12 54 12 54 13 56 13 56 14"/><rect x="57" y="14" width="1" height="2"/><rect x="58" y="16" width="1" height="2"/><rect x="65" y="10" width="1" height="2"/><rect x="66" y="12" width="1" height="2"/><rect x="69" y="18" width="1" height="2"/><polygon points="76 14 77 14 77 12 78 12 78 11 76 11 76 10 75 10 75 12 74 12 74 13 76 13 76 14"/><rect x="77" y="14" width="1" height="2"/><rect x="78" y="16" width="1" height="2"/><rect x="85" y="10" width="1" height="2"/><rect x="86" y="12" width="1" height="2"/><rect x="89" y="18" width="1" height="2"/><rect x="97" y="14" width="1" height="2"/><rect x="98" y="16" width="1" height="2"/><rect x="1" y="22" width="1" height="2"/><rect x="2" y="24" width="1" height="2"/><rect x="10" y="20" width="1" height="2"/><rect x="13" y="26" width="1" height="2"/><rect x="14" y="28" width="1" height="2"/><rect x="21" y="22" width="1" height="2"/><rect x="22" y="24" width="1" height="2"/><polygon points="24 30 25 30 25 28 26 28 26 27 24 27 24 26 23 26 23 28 22 28 22 29 24 29 24 30"/><rect x="30" y="20" width="1" height="2"/><rect x="33" y="26" width="1" height="2"/><rect x="34" y="28" width="1" height="2"/><polygon points="40 22 41 22 41 20 42 20 42 19 40 19 40 18 39 18 39 20 38 20 38 21 40 21 40 22"/><rect x="41" y="22" width="1" height="2"/><rect x="42" y="24" width="1" height="2"/><polygon points="44 30 45 30 45 28 46 28 46 27 44 27 44 26 43 26 43 28 42 28 42 29 44 29 44 30"/><rect x="50" y="20" width="1" height="2"/><rect x="53" y="26" width="1" height="2"/><rect x="54" y="28" width="1" height="2"/><polygon points="60 22 61 22 61 20 62 20 62 19 60 19 60 18 59 18 59 20 58 20 58 21 60 21 60 22"/><rect x="61" y="22" width="1" height="2"/><rect x="62" y="24" width="1" height="2"/><polygon points="64 30 65 30 65 28 66 28 66 27 64 27 64 26 63 26 63 28 62 28 62 29 64 29 64 30"/><rect x="70" y="20" width="1" height="2"/><rect x="73" y="26" width="1" height="2"/><rect x="74" y="28" width="1" height="2"/><rect x="81" y="22" width="1" height="2"/><rect x="82" y="24" width="1" height="2"/><polygon points="84 26 83 26 83 28 82 28 82 29 84 29 84 30 85 30 85 28 86 28 86 27 84 27 84 26"/><rect x="90" y="20" width="1" height="2"/><polygon points="92 22 91 22 91 24 90 24 90 25 92 25 92 26 93 26 93 24 94 24 94 23 92 23 92 22"/><rect x="93" y="26" width="1" height="2"/><rect x="94" y="28" width="1" height="2"/><rect x="5" y="30" width="1" height="2"/><rect x="6" y="32" width="1" height="2"/><polygon points="8 38 9 38 9 36 10 36 10 35 8 35 8 34 7 34 7 36 6 36 6 37 8 37 8 38"/><rect x="9" y="38" width="1" height="2"/><polygon points="16 34 17 34 17 32 18 32 18 31 16 31 16 30 15 30 15 32 14 32 14 33 16 33 16 34"/><rect x="17" y="34" width="1" height="2"/><rect x="18" y="36" width="1" height="2"/><rect x="25" y="30" width="1" height="2"/><rect x="26" y="32" width="1" height="2"/><rect x="29" y="38" width="1" height="2"/><rect x="37" y="34" width="1" height="2"/><rect x="38" y="36" width="1" height="2"/><rect x="45" y="30" width="1" height="2"/><rect x="46" y="32" width="1" height="2"/><polygon points="48 38 49 38 49 36 50 36 50 35 48 35 48 34 47 34 47 36 46 36 46 37 48 37 48 38"/><rect x="49" y="38" width="1" height="2"/><rect x="57" y="34" width="1" height="2"/><rect x="58" y="36" width="1" height="2"/><polygon points="60 38 59 38 59 40 58 40 58 41 60 41 60 42 61 42 61 40 62 40 62 39 60 39 60 38"/><rect x="65" y="30" width="1" height="2"/><rect x="66" y="32" width="1" height="2"/><polygon points="68 34 67 34 67 36 66 36 66 37 68 37 68 38 69 38 69 36 70 36 70 35 68 35 68 34"/><rect x="69" y="38" width="1" height="2"/><polygon points="76 30 75 30 75 32 74 32 74 33 76 33 76 34 77 34 77 32 78 32 78 31 76 31 76 30"/><rect x="77" y="34" width="1" height="2"/><rect x="78" y="36" width="1" height="2"/><rect x="85" y="30" width="1" height="2"/><rect x="86" y="32" width="1" height="2"/><rect x="89" y="38" width="1" height="2"/><rect x="97" y="34" width="1" height="2"/><rect x="98" y="36" width="1" height="2"/><rect x="1" y="42" width="1" height="2"/><rect x="2" y="44" width="1" height="2"/><rect x="10" y="40" width="1" height="2"/><rect x="13" y="46" width="1" height="2"/><rect x="14" y="48" width="1" height="2"/><rect x="21" y="42" width="1" height="2"/><rect x="22" y="44" width="1" height="2"/><polygon points="24 50 25 50 25 48 26 48 26 47 24 47 24 46 23 46 23 48 22 48 22 49 24 49 24 50"/><rect x="30" y="40" width="1" height="2"/><polygon points="32 46 33 46 33 44 34 44 34 43 32 43 32 42 31 42 31 44 30 44 30 45 32 45 32 46"/><rect x="33" y="46" width="1" height="2"/><rect x="34" y="48" width="1" height="2"/><polygon points="40 42 41 42 41 40 42 40 42 39 40 39 40 38 39 38 39 40 38 40 38 41 40 41 40 42"/><rect x="41" y="42" width="1" height="2"/><rect x="42" y="44" width="1" height="2"/><rect x="50" y="40" width="1" height="2"/><polygon points="52 42 51 42 51 44 50 44 50 45 52 45 52 46 53 46 53 44 54 44 54 43 52 43 52 42"/><rect x="53" y="46" width="1" height="2"/><rect x="54" y="48" width="1" height="2"/><rect x="61" y="42" width="1" height="2"/><rect x="62" y="44" width="1" height="2"/><rect x="70" y="40" width="1" height="2"/><rect x="73" y="46" width="1" height="2"/><rect x="74" y="48" width="1" height="2"/><rect x="81" y="42" width="1" height="2"/><rect x="82" y="44" width="1" height="2"/><polygon points="84 46 83 46 83 48 82 48 82 49 84 49 84 50 85 50 85 48 86 48 86 47 84 47 84 46"/><rect x="90" y="40" width="1" height="2"/><polygon points="92 42 91 42 91 44 90 44 90 45 92 45 92 46 93 46 93 44 94 44 94 43 92 43 92 42"/><rect x="93" y="46" width="1" height="2"/><rect x="94" y="48" width="1" height="2"/><rect x="5" y="50" width="1" height="2"/><rect x="6" y="52" width="1" height="2"/><polygon points="8 58 9 58 9 56 10 56 10 55 8 55 8 54 7 54 7 56 6 56 6 57 8 57 8 58"/><rect x="9" y="58" width="1" height="2"/><polygon points="16 54 17 54 17 52 18 52 18 51 16 51 16 50 15 50 15 52 14 52 14 53 16 53 16 54"/><rect x="17" y="54" width="1" height="2"/><rect x="18" y="56" width="1" height="2"/><rect x="25" y="50" width="1" height="2"/><rect x="26" y="52" width="1" height="2"/><rect x="29" y="58" width="1" height="2"/><rect x="37" y="54" width="1" height="2"/><rect x="38" y="56" width="1" height="2"/><rect x="45" y="50" width="1" height="2"/><rect x="46" y="52" width="1" height="2"/><polygon points="48 54 47 54 47 56 46 56 46 57 48 57 48 58 49 58 49 56 50 56 50 55 48 55 48 54"/><rect x="49" y="58" width="1" height="2"/><rect x="57" y="54" width="1" height="2"/><rect x="58" y="56" width="1" height="2"/><polygon points="60 58 59 58 59 60 58 60 58 61 60 61 60 62 61 62 61 60 62 60 62 59 60 59 60 58"/><rect x="65" y="50" width="1" height="2"/><rect x="66" y="52" width="1" height="2"/><polygon points="68 54 67 54 67 56 66 56 66 57 68 57 68 58 69 58 69 56 70 56 70 55 68 55 68 54"/><rect x="69" y="58" width="1" height="2"/><polygon points="76 50 75 50 75 52 74 52 74 53 76 53 76 54 77 54 77 52 78 52 78 51 76 51 76 50"/><rect x="77" y="54" width="1" height="2"/><rect x="78" y="56" width="1" height="2"/><rect x="85" y="50" width="1" height="2"/><rect x="86" y="52" width="1" height="2"/><rect x="89" y="58" width="1" height="2"/><rect x="97" y="54" width="1" height="2"/><rect x="98" y="56" width="1" height="2"/><rect x="1" y="62" width="1" height="2"/><rect x="2" y="64" width="1" height="2"/><rect x="10" y="60" width="1" height="2"/><rect x="13" y="66" width="1" height="2"/><rect x="14" y="68" width="1" height="2"/><rect x="21" y="62" width="1" height="2"/><rect x="22" y="64" width="1" height="2"/><polygon points="24 70 25 70 25 68 26 68 26 67 24 67 24 66 23 66 23 68 22 68 22 69 24 69 24 70"/><rect x="30" y="60" width="1" height="2"/><polygon points="32 66 33 66 33 64 34 64 34 63 32 63 32 62 31 62 31 64 30 64 30 65 32 65 32 66"/><rect x="33" y="66" width="1" height="2"/><rect x="34" y="68" width="1" height="2"/><rect x="41" y="62" width="1" height="2"/><rect x="42" y="64" width="1" height="2"/><rect x="50" y="60" width="1" height="2"/><polygon points="52 62 51 62 51 64 50 64 50 65 52 65 52 66 53 66 53 64 54 64 54 63 52 63 52 62"/><rect x="53" y="66" width="1" height="2"/><rect x="54" y="68" width="1" height="2"/><rect x="61" y="62" width="1" height="2"/><rect x="62" y="64" width="1" height="2"/><rect x="70" y="60" width="1" height="2"/><rect x="73" y="66" width="1" height="2"/><rect x="74" y="68" width="1" height="2"/><rect x="81" y="62" width="1" height="2"/><rect x="82" y="64" width="1" height="2"/><polygon points="84 66 83 66 83 68 82 68 82 69 84 69 84 70 85 70 85 68 86 68 86 67 84 67 84 66"/><rect x="90" y="60" width="1" height="2"/><polygon points="92 62 91 62 91 64 90 64 90 65 92 65 92 66 93 66 93 64 94 64 94 63 92 63 92 62"/><rect x="93" y="66" width="1" height="2"/><rect x="94" y="68" width="1" height="2"/><rect x="5" y="70" width="1" height="2"/><rect x="6" y="72" width="1" height="2"/><polygon points="8 78 9 78 9 76 10 76 10 75 8 75 8 74 7 74 7 76 6 76 6 77 8 77 8 78"/><rect x="9" y="78" width="1" height="2"/><polygon points="16 74 17 74 17 72 18 72 18 71 16 71 16 70 15 70 15 72 14 72 14 73 16 73 16 74"/><rect x="17" y="74" width="1" height="2"/><rect x="18" y="76" width="1" height="2"/><polygon points="20 78 19 78 19 80 18 80 18 81 20 81 20 82 21 82 21 80 22 80 22 79 20 79 20 78"/><rect x="25" y="70" width="1" height="2"/><rect x="26" y="72" width="1" height="2"/><rect x="29" y="78" width="1" height="2"/><polygon points="36 70 35 70 35 72 34 72 34 73 36 73 36 74 37 74 37 72 38 72 38 71 36 71 36 70"/><rect x="37" y="74" width="1" height="2"/><rect x="38" y="76" width="1" height="2"/><polygon points="40 78 39 78 39 80 38 80 38 81 40 81 40 82 41 82 41 80 42 80 42 79 40 79 40 78"/><rect x="45" y="70" width="1" height="2"/><rect x="46" y="72" width="1" height="2"/><rect x="49" y="78" width="1" height="2"/><polygon points="56 70 55 70 55 72 54 72 54 73 56 73 56 74 57 74 57 72 58 72 58 71 56 71 56 70"/><rect x="57" y="74" width="1" height="2"/><rect x="58" y="76" width="1" height="2"/><polygon points="60 78 59 78 59 80 58 80 58 81 60 81 60 82 61 82 61 80 62 80 62 79 60 79 60 78"/><rect x="65" y="70" width="1" height="2"/><rect x="66" y="72" width="1" height="2"/><rect x="69" y="78" width="1" height="2"/><polygon points="76 70 75 70 75 72 74 72 74 73 76 73 76 74 77 74 77 72 78 72 78 71 76 71 76 70"/><rect x="77" y="74" width="1" height="2"/><rect x="78" y="76" width="1" height="2"/><rect x="85" y="70" width="1" height="2"/><rect x="86" y="72" width="1" height="2"/><rect x="89" y="78" width="1" height="2"/><rect x="97" y="74" width="1" height="2"/><rect x="98" y="76" width="1" height="2"/><rect x="1" y="82" width="1" height="2"/><rect x="2" y="84" width="1" height="2"/><rect x="10" y="80" width="1" height="2"/><rect x="13" y="86" width="1" height="2"/><rect x="14" y="88" width="1" height="2"/><rect x="21" y="82" width="1" height="2"/><rect x="22" y="84" width="1" height="2"/><polygon points="24 86 23 86 23 88 22 88 22 89 24 89 24 90 25 90 25 88 26 88 26 87 24 87 24 86"/><rect x="30" y="80" width="1" height="2"/><rect x="33" y="86" width="1" height="2"/><rect x="34" y="88" width="1" height="2"/><rect x="41" y="82" width="1" height="2"/><rect x="42" y="84" width="1" height="2"/><polygon points="44 86 43 86 43 88 42 88 42 89 44 89 44 90 45 90 45 88 46 88 46 87 44 87 44 86"/><rect x="50" y="80" width="1" height="2"/><rect x="53" y="86" width="1" height="2"/><rect x="54" y="88" width="1" height="2"/><rect x="61" y="82" width="1" height="2"/><rect x="62" y="84" width="1" height="2"/><polygon points="64 86 63 86 63 88 62 88 62 89 64 89 64 90 65 90 65 88 66 88 66 87 64 87 64 86"/><rect x="70" y="80" width="1" height="2"/><rect x="73" y="86" width="1" height="2"/><rect x="74" y="88" width="1" height="2"/><rect x="81" y="82" width="1" height="2"/><rect x="82" y="84" width="1" height="2"/><polygon points="84 86 83 86 83 88 82 88 82 89 84 89 84 90 85 90 85 88 86 88 86 87 84 87 84 86"/><rect x="90" y="80" width="1" height="2"/><polygon points="92 82 91 82 91 84 90 84 90 85 92 85 92 86 93 86 93 84 94 84 94 83 92 83 92 82"/><rect x="93" y="86" width="1" height="2"/><rect x="94" y="88" width="1" height="2"/><rect x="5" y="90" width="1" height="2"/><rect x="6" y="92" width="1" height="2"/><polygon points="8 94 7 94 7 96 6 96 6 97 8 97 8 98 9 98 9 96 10 96 10 95 8 95 8 94"/><rect x="9" y="98" width="1" height="2"/><rect x="17" y="94" width="1" height="2"/><rect x="18" y="96" width="1" height="2"/><polygon points="20 98 19 98 19 100 20 100 22 100 22 99 20 99 20 98"/><rect x="25" y="90" width="1" height="2"/><rect x="26" y="92" width="1" height="2"/><polygon points="28 94 27 94 27 96 26 96 26 97 28 97 28 98 29 98 29 96 30 96 30 95 28 95 28 94"/><rect x="29" y="98" width="1" height="2"/><rect x="37" y="94" width="1" height="2"/><rect x="38" y="96" width="1" height="2"/><polygon points="40 98 39 98 39 100 40 100 42 100 42 99 40 99 40 98"/><rect x="45" y="90" width="1" height="2"/><rect x="46" y="92" width="1" height="2"/><polygon points="48 94 47 94 47 96 46 96 46 97 48 97 48 98 49 98 49 96 50 96 50 95 48 95 48 94"/><rect x="49" y="98" width="1" height="2"/><rect x="57" y="94" width="1" height="2"/><rect x="58" y="96" width="1" height="2"/><polygon points="60 98 59 98 59 100 60 100 62 100 62 99 60 99 60 98"/><rect x="65" y="90" width="1" height="2"/><rect x="66" y="92" width="1" height="2"/><polygon points="68 94 67 94 67 96 66 96 66 97 68 97 68 98 69 98 69 96 70 96 70 95 68 95 68 94"/><rect x="69" y="98" width="1" height="2"/><rect x="77" y="94" width="1" height="2"/><rect x="78" y="96" width="1" height="2"/><polygon points="80 98 79 98 79 100 80 100 82 100 82 99 80 99 80 98"/><rect x="85" y="90" width="1" height="2"/><rect x="86" y="92" width="1" height="2"/><polygon points="88 94 87 94 87 96 86 96 86 97 88 97 88 98 89 98 89 96 90 96 90 95 88 95 88 94"/><rect x="89" y="98" width="1" height="2"/><rect x="97" y="94" width="1" height="2"/><rect x="98" y="96" width="1" height="2"/><rect x="99" y="98" width="1" height="2"/><rect x="98" width="2" height="1"/><rect x="96" y="1" width="2" height="1"/><rect x="94" y="2" width="2" height="1"/><polygon points="94 4 94 3 92 3 92 2 91 2 91 4 90 4 90 5 92 5 92 6 93 6 93 4 94 4"/><rect x="98" y="10" width="2" height="1"/><polygon points="94 12 94 13 96 13 96 14 97 14 97 12 98 12 98 11 96 11 96 10 95 10 95 12 94 12"/><rect x="92" y="13" width="2" height="1"/><rect x="90" y="14" width="2" height="1"/><polygon points="98 20 98 21 100 21 100 20 100 18 99 18 99 20 98 20"/><rect x="96" y="21" width="2" height="1"/><rect x="94" y="22" width="2" height="1"/><rect x="98" y="30" width="2" height="1"/><polygon points="94 32 94 33 96 33 96 34 97 34 97 32 98 32 98 31 96 31 96 30 95 30 95 32 94 32"/><rect x="92" y="33" width="2" height="1"/><rect x="90" y="34" width="2" height="1"/><polygon points="98 40 98 41 100 41 100 40 100 38 99 38 99 40 98 40"/><rect x="96" y="41" width="2" height="1"/><rect x="94" y="42" width="2" height="1"/><rect x="98" y="50" width="2" height="1"/><polygon points="94 52 94 53 96 53 96 54 97 54 97 52 98 52 98 51 96 51 96 50 95 50 95 52 94 52"/><rect x="92" y="53" width="2" height="1"/><rect x="90" y="54" width="2" height="1"/><polygon points="98 60 98 61 100 61 100 60 100 58 99 58 99 60 98 60"/><rect x="96" y="61" width="2" height="1"/><rect x="94" y="62" width="2" height="1"/><rect x="98" y="70" width="2" height="1"/><polygon points="94 72 94 73 96 73 96 74 97 74 97 72 98 72 98 71 96 71 96 70 95 70 95 72 94 72"/><rect x="92" y="73" width="2" height="1"/><rect x="90" y="74" width="2" height="1"/><polygon points="98 80 98 81 100 81 100 80 100 78 99 78 99 80 98 80"/><rect x="96" y="81" width="2" height="1"/><rect x="94" y="82" width="2" height="1"/><rect x="98" y="90" width="2" height="1"/><polygon points="94 92 94 93 96 93 96 94 97 94 97 92 98 92 98 91 96 91 96 90 95 90 95 92 94 92"/><rect x="92" y="93" width="2" height="1"/><rect x="90" y="94" width="2" height="1"/><rect x="88" y="5" width="2" height="1"/><rect x="86" y="6" width="2" height="1"/><polygon points="82 8 82 9 84 9 84 10 85 10 85 8 86 8 86 7 84 7 84 6 83 6 83 8 82 8"/><rect x="80" y="9" width="2" height="1"/><polygon points="86 16 86 17 88 17 88 18 89 18 89 16 90 16 90 15 88 15 88 14 87 14 87 16 86 16"/><rect x="84" y="17" width="2" height="1"/><rect x="82" y="18" width="2" height="1"/><rect x="88" y="25" width="2" height="1"/><rect x="86" y="26" width="2" height="1"/><rect x="80" y="29" width="2" height="1"/><polygon points="86 36 86 37 88 37 88 38 89 38 89 36 90 36 90 35 88 35 88 34 87 34 87 36 86 36"/><rect x="84" y="37" width="2" height="1"/><rect x="82" y="38" width="2" height="1"/><rect x="88" y="45" width="2" height="1"/><rect x="86" y="46" width="2" height="1"/><rect x="80" y="49" width="2" height="1"/><polygon points="86 56 86 57 88 57 88 58 89 58 89 56 90 56 90 55 88 55 88 54 87 54 87 56 86 56"/><rect x="84" y="57" width="2" height="1"/><rect x="82" y="58" width="2" height="1"/><rect x="88" y="65" width="2" height="1"/><rect x="86" y="66" width="2" height="1"/><rect x="80" y="69" width="2" height="1"/><polygon points="86 76 86 77 88 77 88 78 89 78 89 76 90 76 90 75 88 75 88 74 87 74 87 76 86 76"/><rect x="84" y="77" width="2" height="1"/><rect x="82" y="78" width="2" height="1"/><rect x="88" y="85" width="2" height="1"/><rect x="86" y="86" width="2" height="1"/><rect x="80" y="89" width="2" height="1"/><rect x="84" y="97" width="2" height="1"/><rect x="82" y="98" width="2" height="1"/><rect x="76" y="1" width="2" height="1"/><rect x="74" y="2" width="2" height="1"/><rect x="78" y="10" width="2" height="1"/><rect x="72" y="13" width="2" height="1"/><rect x="70" y="14" width="2" height="1"/><polygon points="78 20 78 21 80 21 80 22 81 22 81 20 82 20 82 19 80 19 80 18 79 18 79 20 78 20"/><rect x="76" y="21" width="2" height="1"/><rect x="74" y="22" width="2" height="1"/><polygon points="70 24 70 25 72 25 72 26 73 26 73 24 74 24 74 23 72 23 72 22 71 22 71 24 70 24"/><rect x="78" y="30" width="2" height="1"/><rect x="72" y="33" width="2" height="1"/><rect x="70" y="34" width="2" height="1"/><polygon points="78 40 78 41 80 41 80 42 81 42 81 40 82 40 82 39 80 39 80 38 79 38 79 40 78 40"/><rect x="76" y="41" width="2" height="1"/><rect x="74" y="42" width="2" height="1"/><polygon points="70 44 70 45 72 45 72 46 73 46 73 44 74 44 74 43 72 43 72 42 71 42 71 44 70 44"/><rect x="78" y="50" width="2" height="1"/><rect x="72" y="53" width="2" height="1"/><rect x="70" y="54" width="2" height="1"/><polygon points="78 60 78 61 80 61 80 62 81 62 81 60 82 60 82 59 80 59 80 58 79 58 79 60 78 60"/><rect x="76" y="61" width="2" height="1"/><rect x="74" y="62" width="2" height="1"/><polygon points="70 64 70 65 72 65 72 66 73 66 73 64 74 64 74 63 72 63 72 62 71 62 71 64 70 64"/><rect x="78" y="70" width="2" height="1"/><rect x="72" y="73" width="2" height="1"/><rect x="70" y="74" width="2" height="1"/><polygon points="78 80 78 81 80 81 80 82 81 82 81 80 82 80 82 79 80 79 80 78 79 78 79 80 78 80"/><rect x="76" y="81" width="2" height="1"/><rect x="74" y="82" width="2" height="1"/><polygon points="74 84 74 83 72 83 72 82 71 82 71 84 70 84 70 85 72 85 72 86 73 86 73 84 74 84"/><rect x="78" y="90" width="2" height="1"/><polygon points="78 92 78 91 76 91 76 90 75 90 75 92 74 92 74 93 76 93 76 94 77 94 77 92 78 92"/><rect x="72" y="93" width="2" height="1"/><rect x="70" y="94" width="2" height="1"/><rect x="68" y="5" width="2" height="1"/><rect x="66" y="6" width="2" height="1"/><polygon points="62 8 62 9 64 9 64 10 65 10 65 8 66 8 66 7 64 7 64 6 63 6 63 8 62 8"/><rect x="60" y="9" width="2" height="1"/><polygon points="66 16 66 17 68 17 68 18 69 18 69 16 70 16 70 15 68 15 68 14 67 14 67 16 66 16"/><rect x="64" y="17" width="2" height="1"/><rect x="62" y="18" width="2" height="1"/><rect x="68" y="25" width="2" height="1"/><rect x="66" y="26" width="2" height="1"/><rect x="60" y="29" width="2" height="1"/><rect x="64" y="37" width="2" height="1"/><rect x="62" y="38" width="2" height="1"/><rect x="68" y="45" width="2" height="1"/><rect x="66" y="46" width="2" height="1"/><polygon points="62 48 62 49 64 49 64 50 65 50 65 48 66 48 66 47 64 47 64 46 63 46 63 48 62 48"/><rect x="60" y="49" width="2" height="1"/><rect x="64" y="57" width="2" height="1"/><rect x="62" y="58" width="2" height="1"/><rect x="68" y="65" width="2" height="1"/><rect x="66" y="66" width="2" height="1"/><polygon points="66 68 66 67 64 67 64 66 63 66 63 68 62 68 62 69 64 69 64 70 65 70 65 68 66 68"/><rect x="60" y="69" width="2" height="1"/><polygon points="70 76 70 75 68 75 68 74 67 74 67 76 66 76 66 77 68 77 68 78 69 78 69 76 70 76"/><rect x="64" y="77" width="2" height="1"/><rect x="62" y="78" width="2" height="1"/><rect x="68" y="85" width="2" height="1"/><rect x="66" y="86" width="2" height="1"/><rect x="60" y="89" width="2" height="1"/><rect x="64" y="97" width="2" height="1"/><rect x="62" y="98" width="2" height="1"/><rect x="56" y="1" width="2" height="1"/><rect x="54" y="2" width="2" height="1"/><rect x="58" y="10" width="2" height="1"/><rect x="52" y="13" width="2" height="1"/><rect x="50" y="14" width="2" height="1"/><rect x="56" y="21" width="2" height="1"/><rect x="54" y="22" width="2" height="1"/><polygon points="50 24 50 25 52 25 52 26 53 26 53 24 54 24 54 23 52 23 52 22 51 22 51 24 50 24"/><rect x="58" y="30" width="2" height="1"/><polygon points="54 32 54 33 56 33 56 34 57 34 57 32 58 32 58 31 56 31 56 30 55 30 55 32 54 32"/><rect x="52" y="33" width="2" height="1"/><rect x="50" y="34" width="2" height="1"/><rect x="56" y="41" width="2" height="1"/><rect x="54" y="42" width="2" height="1"/><rect x="58" y="50" width="2" height="1"/><polygon points="54 52 54 53 56 53 56 54 57 54 57 52 58 52 58 51 56 51 56 50 55 50 55 52 54 52"/><rect x="52" y="53" width="2" height="1"/><rect x="50" y="54" width="2" height="1"/><rect x="56" y="61" width="2" height="1"/><rect x="54" y="62" width="2" height="1"/><rect x="58" y="70" width="2" height="1"/><rect x="52" y="73" width="2" height="1"/><rect x="50" y="74" width="2" height="1"/><rect x="56" y="81" width="2" height="1"/><rect x="54" y="82" width="2" height="1"/><polygon points="54 84 54 83 52 83 52 82 51 82 51 84 50 84 50 85 52 85 52 86 53 86 53 84 54 84"/><rect x="58" y="90" width="2" height="1"/><polygon points="58 92 58 91 56 91 56 90 55 90 55 92 54 92 54 93 56 93 56 94 57 94 57 92 58 92"/><rect x="52" y="93" width="2" height="1"/><rect x="50" y="94" width="2" height="1"/><rect x="48" y="5" width="2" height="1"/><rect x="46" y="6" width="2" height="1"/><polygon points="42 8 42 9 44 9 44 10 45 10 45 8 46 8 46 7 44 7 44 6 43 6 43 8 42 8"/><rect x="40" y="9" width="2" height="1"/><polygon points="46 16 46 17 48 17 48 18 49 18 49 16 50 16 50 15 48 15 48 14 47 14 47 16 46 16"/><rect x="44" y="17" width="2" height="1"/><rect x="42" y="18" width="2" height="1"/><rect x="48" y="25" width="2" height="1"/><rect x="46" y="26" width="2" height="1"/><rect x="40" y="29" width="2" height="1"/><rect x="44" y="37" width="2" height="1"/><rect x="42" y="38" width="2" height="1"/><rect x="48" y="45" width="2" height="1"/><rect x="46" y="46" width="2" height="1"/><polygon points="46 48 46 47 44 47 44 46 43 46 43 48 42 48 42 49 44 49 44 50 45 50 45 48 46 48"/><rect x="40" y="49" width="2" height="1"/><rect x="44" y="57" width="2" height="1"/><rect x="42" y="58" width="2" height="1"/><polygon points="42 60 42 59 40 59 40 58 39 58 39 60 38 60 38 61 40 61 40 62 41 62 41 60 42 60"/><rect x="48" y="65" width="2" height="1"/><rect x="46" y="66" width="2" height="1"/><polygon points="46 68 46 67 44 67 44 66 43 66 43 68 42 68 42 69 44 69 44 70 45 70 45 68 46 68"/><rect x="40" y="69" width="2" height="1"/><polygon points="50 76 50 75 48 75 48 74 47 74 47 76 46 76 46 77 48 77 48 78 49 78 49 76 50 76"/><rect x="44" y="77" width="2" height="1"/><rect x="42" y="78" width="2" height="1"/><rect x="48" y="85" width="2" height="1"/><rect x="46" y="86" width="2" height="1"/><rect x="40" y="89" width="2" height="1"/><rect x="44" y="97" width="2" height="1"/><rect x="42" y="98" width="2" height="1"/><rect x="36" y="1" width="2" height="1"/><rect x="34" y="2" width="2" height="1"/><rect x="38" y="10" width="2" height="1"/><rect x="32" y="13" width="2" height="1"/><rect x="30" y="14" width="2" height="1"/><rect x="36" y="21" width="2" height="1"/><rect x="34" y="22" width="2" height="1"/><polygon points="30 24 30 25 32 25 32 26 33 26 33 24 34 24 34 23 32 23 32 22 31 22 31 24 30 24"/><rect x="38" y="30" width="2" height="1"/><polygon points="34 32 34 33 36 33 36 34 37 34 37 32 38 32 38 31 36 31 36 30 35 30 35 32 34 32"/><rect x="32" y="33" width="2" height="1"/><rect x="30" y="34" width="2" height="1"/><rect x="36" y="41" width="2" height="1"/><rect x="34" y="42" width="2" height="1"/><rect x="38" y="50" width="2" height="1"/><polygon points="38 52 38 51 36 51 36 50 35 50 35 52 34 52 34 53 36 53 36 54 37 54 37 52 38 52"/><rect x="32" y="53" width="2" height="1"/><rect x="30" y="54" width="2" height="1"/><rect x="36" y="61" width="2" height="1"/><rect x="34" y="62" width="2" height="1"/><rect x="38" y="70" width="2" height="1"/><rect x="32" y="73" width="2" height="1"/><rect x="30" y="74" width="2" height="1"/><rect x="36" y="81" width="2" height="1"/><rect x="34" y="82" width="2" height="1"/><polygon points="34 84 34 83 32 83 32 82 31 82 31 84 30 84 30 85 32 85 32 86 33 86 33 84 34 84"/><rect x="38" y="90" width="2" height="1"/><polygon points="38 92 38 91 36 91 36 90 35 90 35 92 34 92 34 93 36 93 36 94 37 94 37 92 38 92"/><rect x="32" y="93" width="2" height="1"/><rect x="30" y="94" width="2" height="1"/><rect x="28" y="5" width="2" height="1"/><rect x="26" y="6" width="2" height="1"/><polygon points="22 8 22 9 24 9 24 10 25 10 25 8 26 8 26 7 24 7 24 6 23 6 23 8 22 8"/><rect x="20" y="9" width="2" height="1"/><polygon points="26 16 26 17 28 17 28 18 29 18 29 16 30 16 30 15 28 15 28 14 27 14 27 16 26 16"/><rect x="24" y="17" width="2" height="1"/><rect x="22" y="18" width="2" height="1"/><polygon points="22 20 22 19 20 19 20 18 19 18 19 20 18 20 18 21 20 21 20 22 21 22 21 20 22 20"/><rect x="28" y="25" width="2" height="1"/><rect x="26" y="26" width="2" height="1"/><rect x="20" y="29" width="2" height="1"/><polygon points="30 36 30 35 28 35 28 34 27 34 27 36 26 36 26 37 28 37 28 38 29 38 29 36 30 36"/><rect x="24" y="37" width="2" height="1"/><rect x="22" y="38" width="2" height="1"/><polygon points="22 40 22 39 20 39 20 38 19 38 19 40 18 40 18 41 20 41 20 42 21 42 21 40 22 40"/><rect x="28" y="45" width="2" height="1"/><rect x="26" y="46" width="2" height="1"/><rect x="20" y="49" width="2" height="1"/><polygon points="30 56 30 55 28 55 28 54 27 54 27 56 26 56 26 57 28 57 28 58 29 58 29 56 30 56"/><rect x="24" y="57" width="2" height="1"/><rect x="22" y="58" width="2" height="1"/><polygon points="22 60 22 59 20 59 20 58 19 58 19 60 18 60 18 61 20 61 20 62 21 62 21 60 22 60"/><rect x="28" y="65" width="2" height="1"/><rect x="26" y="66" width="2" height="1"/><rect x="20" y="69" width="2" height="1"/><polygon points="30 76 30 75 28 75 28 74 27 74 27 76 26 76 26 77 28 77 28 78 29 78 29 76 30 76"/><rect x="24" y="77" width="2" height="1"/><rect x="22" y="78" width="2" height="1"/><rect x="28" y="85" width="2" height="1"/><rect x="26" y="86" width="2" height="1"/><rect x="20" y="89" width="2" height="1"/><rect x="24" y="97" width="2" height="1"/><rect x="22" y="98" width="2" height="1"/><rect x="16" y="1" width="2" height="1"/><rect x="14" y="2" width="2" height="1"/><rect x="18" y="10" width="2" height="1"/><rect x="12" y="13" width="2" height="1"/><rect x="10" y="14" width="2" height="1"/><rect x="16" y="21" width="2" height="1"/><rect x="14" y="22" width="2" height="1"/><polygon points="14 24 14 23 12 23 12 22 11 22 11 24 10 24 10 25 12 25 12 26 13 26 13 24 14 24"/><rect x="18" y="30" width="2" height="1"/><rect x="12" y="33" width="2" height="1"/><rect x="10" y="34" width="2" height="1"/><rect x="16" y="41" width="2" height="1"/><rect x="14" y="42" width="2" height="1"/><polygon points="14 44 14 43 12 43 12 42 11 42 11 44 10 44 10 45 12 45 12 46 13 46 13 44 14 44"/><rect x="18" y="50" width="2" height="1"/><rect x="12" y="53" width="2" height="1"/><rect x="10" y="54" width="2" height="1"/><rect x="16" y="61" width="2" height="1"/><rect x="14" y="62" width="2" height="1"/><polygon points="14 64 14 63 12 63 12 62 11 62 11 64 10 64 10 65 12 65 12 66 13 66 13 64 14 64"/><rect x="18" y="70" width="2" height="1"/><rect x="12" y="73" width="2" height="1"/><rect x="10" y="74" width="2" height="1"/><rect x="16" y="81" width="2" height="1"/><rect x="14" y="82" width="2" height="1"/><polygon points="14 84 14 83 12 83 12 82 11 82 11 84 10 84 10 85 12 85 12 86 13 86 13 84 14 84"/><rect x="18" y="90" width="2" height="1"/><polygon points="18 92 18 91 16 91 16 90 15 90 15 92 14 92 14 93 16 93 16 94 17 94 17 92 18 92"/><rect x="12" y="93" width="2" height="1"/><rect x="10" y="94" width="2" height="1"/><rect x="8" y="5" width="2" height="1"/><rect x="6" y="6" width="2" height="1"/><polygon points="6 8 6 7 4 7 4 6 3 6 3 8 2 8 2 9 4 9 4 10 5 10 5 8 6 8"/><rect y="9" width="2" height="1"/><rect x="4" y="17" width="2" height="1"/><rect x="2" y="18" width="2" height="1"/><polygon points="2 20 2 19 0 19 0 20 0 22 1 22 1 20 2 20"/><rect x="8" y="25" width="2" height="1"/><rect x="6" y="26" width="2" height="1"/><polygon points="6 28 6 27 4 27 4 26 3 26 3 28 2 28 2 29 4 29 4 30 5 30 5 28 6 28"/><rect y="29" width="2" height="1"/><rect x="4" y="37" width="2" height="1"/><rect x="2" y="38" width="2" height="1"/><polygon points="2 40 2 39 0 39 0 40 0 42 1 42 1 40 2 40"/><rect x="8" y="45" width="2" height="1"/><rect x="6" y="46" width="2" height="1"/><polygon points="6 48 6 47 4 47 4 46 3 46 3 48 2 48 2 49 4 49 4 50 5 50 5 48 6 48"/><rect y="49" width="2" height="1"/><rect x="4" y="57" width="2" height="1"/><rect x="2" y="58" width="2" height="1"/><polygon points="2 60 2 59 0 59 0 60 0 62 1 62 1 60 2 60"/><rect x="8" y="65" width="2" height="1"/><rect x="6" y="66" width="2" height="1"/><polygon points="6 68 6 67 4 67 4 66 3 66 3 68 2 68 2 69 4 69 4 70 5 70 5 68 6 68"/><rect y="69" width="2" height="1"/><rect x="4" y="77" width="2" height="1"/><rect x="2" y="78" width="2" height="1"/><polygon points="2 80 2 79 0 79 0 80 0 82 1 82 1 80 2 80"/><rect x="8" y="85" width="2" height="1"/><rect x="6" y="86" width="2" height="1"/><polygon points="6 88 6 87 4 87 4 86 3 86 3 88 2 88 2 89 4 89 4 90 5 90 5 88 6 88"/><rect y="89" width="2" height="1"/><rect x="4" y="97" width="2" height="1"/><rect x="2" y="98" width="2" height="1"/><rect y="99" width="2" height="1"/></svg>