<svg id="Layer_1" data-name="Layer 1" xmlns="http://www.w3.org/2000/svg" viewBox="0 0 100 100"><title>pattern</title><polygon points="11 20 12 20 12 19 20 19 20 18 12 18 12 10 11 10 11 18 10 18 10 19 11 19 11 20"/><polygon points="12 30 13 30 13 29 20 29 20 28 13 28 13 20 12 20 12 28 10 28 10 29 12 29 12 30"/><polygon points="13 40 14 40 14 39 20 39 20 38 14 38 14 30 13 30 13 38 10 38 10 39 13 39 13 40"/><polygon points="14 50 15 50 15 49 20 49 20 48 15 48 15 40 14 40 14 48 10 48 10 49 14 49 14 50"/><polygon points="15 60 16 60 16 59 20 59 20 58 16 58 16 50 15 50 15 58 10 58 10 59 15 59 15 60"/><polygon points="16 70 17 70 17 69 20 69 20 68 17 68 17 60 16 60 16 68 10 68 10 69 16 69 16 70"/><polygon points="17 80 18 80 18 79 20 79 20 78 18 78 18 70 17 70 17 78 10 78 10 79 17 79 17 80"/><polygon points="22 30 23 30 23 28 30 28 30 27 23 27 23 20 22 20 22 27 20 27 20 28 22 28 22 30"/><polygon points="23 40 24 40 24 38 30 38 30 37 24 37 24 30 23 30 23 37 20 37 20 38 23 38 23 40"/><polygon points="24 50 25 50 25 48 30 48 30 47 25 47 25 40 24 40 24 47 20 47 20 48 24 48 24 50"/><polygon points="25 60 26 60 26 58 30 58 30 57 26 57 26 50 25 50 25 57 20 57 20 58 25 58 25 60"/><polygon points="26 70 27 70 27 68 30 68 30 67 27 67 27 60 26 60 26 67 20 67 20 68 26 68 26 70"/><polygon points="33 40 34 40 34 37 40 37 40 36 34 36 34 30 33 30 33 36 30 36 30 37 33 37 33 40"/><polygon points="34 50 35 50 35 47 40 47 40 46 35 46 35 40 34 40 34 46 30 46 30 47 34 47 34 50"/><polygon points="35 60 36 60 36 57 40 57 40 56 36 56 36 50 35 50 35 56 30 56 30 57 35 57 35 60"/><polygon points="44 50 45 50 45 46 50 46 50 45 45 45 45 40 44 40 44 45 40 45 40 46 44 46 44 50"/><polygon points="55 40 54 40 54 44 50 44 50 45 54 45 54 50 55 50 55 45 60 45 60 44 55 44 55 40"/><polygon points="56 50 55 50 55 54 50 54 50 55 55 55 55 60 56 60 56 55 60 55 60 54 56 54 56 50"/><polygon points="64 30 63 30 63 33 60 33 60 34 63 34 63 40 64 40 64 34 70 34 70 33 64 33 64 30"/><polygon points="65 40 64 40 64 43 60 43 60 44 64 44 64 50 65 50 65 44 70 44 70 43 65 43 65 40"/><polygon points="66 50 65 50 65 53 60 53 60 54 65 54 65 60 66 60 66 54 70 54 70 53 66 53 66 50"/><polygon points="67 60 66 60 66 63 60 63 60 64 66 64 66 70 67 70 67 64 70 64 70 63 67 63 67 60"/><polygon points="73 20 72 20 72 22 70 22 70 23 72 23 72 30 73 30 73 23 80 23 80 22 73 22 73 20"/><polygon points="74 30 73 30 73 32 70 32 70 33 73 33 73 40 74 40 74 33 80 33 80 32 74 32 74 30"/><polygon points="75 40 74 40 74 42 70 42 70 43 74 43 74 50 75 50 75 43 80 43 80 42 75 42 75 40"/><polygon points="76 50 75 50 75 52 70 52 70 53 75 53 75 60 76 60 76 53 80 53 80 52 76 52 76 50"/><polygon points="77 60 76 60 76 62 70 62 70 63 76 63 76 70 77 70 77 63 80 63 80 62 77 62 77 60"/><polygon points="78 70 77 70 77 72 70 72 70 73 77 73 77 80 78 80 78 73 80 73 80 72 78 72 78 70"/><polygon points="82 10 81 10 81 11 80 11 80 12 81 12 81 20 82 20 82 12 90 12 90 11 82 11 82 10"/><polygon points="83 20 82 20 82 21 80 21 80 22 82 22 82 30 83 30 83 22 90 22 90 21 83 21 83 20"/><polygon points="84 30 83 30 83 31 80 31 80 32 83 32 83 40 84 40 84 32 90 32 90 31 84 31 84 30"/><polygon points="85 40 84 40 84 41 80 41 80 42 84 42 84 50 85 50 85 42 90 42 90 41 85 41 85 40"/><polygon points="86 50 85 50 85 51 80 51 80 52 85 52 85 60 86 60 86 52 90 52 90 51 86 51 86 50"/><polygon points="87 60 86 60 86 61 80 61 80 62 86 62 86 70 87 70 87 62 90 62 90 61 87 61 87 60"/><polygon points="88 70 87 70 87 71 80 71 80 72 87 72 87 80 88 80 88 72 90 72 90 71 88 71 88 70"/><polygon points="89 80 88 80 88 81 80 81 80 82 88 82 88 90 89 90 89 82 90 82 90 81 89 81 89 80"/><polygon points="20 89 20 88 19 88 19 80 18 80 18 88 10 88 10 89 18 89 18 90 19 90 19 89 20 89"/><polygon points="30 88 30 87 29 87 29 80 28 80 28 87 20 87 20 88 28 88 28 90 29 90 29 88 30 88"/><polygon points="40 87 40 86 39 86 39 80 38 80 38 86 30 86 30 87 38 87 38 90 39 90 39 87 40 87"/><polygon points="50 86 50 85 49 85 49 80 48 80 48 85 40 85 40 86 48 86 48 90 49 90 49 86 50 86"/><polygon points="60 85 60 84 59 84 59 80 58 80 58 84 50 84 50 85 58 85 58 90 59 90 59 85 60 85"/><polygon points="70 84 70 83 69 83 69 80 68 80 68 83 60 83 60 84 68 84 68 90 69 90 69 84 70 84"/><polygon points="80 83 80 82 79 82 79 80 78 80 78 82 70 82 70 83 78 83 78 90 79 90 79 83 80 83"/><polygon points="30 78 30 77 28 77 28 70 27 70 27 77 20 77 20 78 27 78 27 80 28 80 28 78 30 78"/><polygon points="40 77 40 76 38 76 38 70 37 70 37 76 30 76 30 77 37 77 37 80 38 80 38 77 40 77"/><polygon points="50 76 50 75 48 75 48 70 47 70 47 75 40 75 40 76 47 76 47 80 48 80 48 76 50 76"/><polygon points="60 75 60 74 58 74 58 70 57 70 57 74 50 74 50 75 57 75 57 80 58 80 58 75 60 75"/><polygon points="70 74 70 73 68 73 68 70 67 70 67 73 60 73 60 74 67 74 67 80 68 80 68 74 70 74"/><polygon points="40 67 40 66 37 66 37 60 36 60 36 66 30 66 30 67 36 67 36 70 37 70 37 67 40 67"/><polygon points="50 66 50 65 47 65 47 60 46 60 46 65 40 65 40 66 46 66 46 70 47 70 47 66 50 66"/><polygon points="60 65 60 64 57 64 57 60 56 60 56 64 50 64 50 65 56 65 56 70 57 70 57 65 60 65"/><polygon points="50 56 50 55 46 55 46 50 45 50 45 55 40 55 40 56 45 56 45 60 46 60 46 56 50 56"/><polygon points="40 35 40 36 43 36 43 40 44 40 44 36 50 36 50 35 44 35 44 30 43 30 43 35 40 35"/><polygon points="50 34 50 35 53 35 53 40 54 40 54 35 60 35 60 34 54 34 54 30 53 30 53 34 50 34"/><polygon points="30 26 30 27 32 27 32 30 33 30 33 27 40 27 40 26 33 26 33 20 32 20 32 26 30 26"/><polygon points="40 25 40 26 42 26 42 30 43 30 43 26 50 26 50 25 43 25 43 20 42 20 42 25 40 25"/><polygon points="50 24 50 25 52 25 52 30 53 30 53 25 60 25 60 24 53 24 53 20 52 20 52 24 50 24"/><polygon points="60 23 60 24 62 24 62 30 63 30 63 24 70 24 70 23 63 23 63 20 62 20 62 23 60 23"/><polygon points="20 17 20 18 21 18 21 20 22 20 22 18 30 18 30 17 22 17 22 10 21 10 21 17 20 17"/><polygon points="30 16 30 17 31 17 31 20 32 20 32 17 40 17 40 16 32 16 32 10 31 10 31 16 30 16"/><polygon points="40 15 40 16 41 16 41 20 42 20 42 16 50 16 50 15 42 15 42 10 41 10 41 15 40 15"/><polygon points="50 14 50 15 51 15 51 20 52 20 52 15 60 15 60 14 52 14 52 10 51 10 51 14 50 14"/><polygon points="60 13 60 14 61 14 61 20 62 20 62 14 70 14 70 13 62 13 62 10 61 10 61 13 60 13"/><polygon points="70 12 70 13 71 13 71 20 72 20 72 13 80 13 80 12 72 12 72 10 71 10 71 12 70 12"/><path d="M100,1V0H90V1H81V0H80V2H71V0H70V3H61V0H60V4H51V0H50V5H41V0H40V6H31V0H30V7H21V0H20V8H11V0H10V9H1V0H0V10H1v9H0v1H2v9H0v1H3v9H0v1H4v9H0v1H5v9H0v1H6v9H0v1H7v9H0v1H8v9H0v1H9v9H0v1H10V99h9v1h1V98h9v2h1V97h9v3h1V96h9v4h1V95h9v5h1V94h9v6h1V93h9v7h1V92h9v8h1V91h9v9h1V90H99V81h1V80H98V71h2V70H97V61h3V60H96V51h4V50H95V41h5V40H94V31h6V30H93V21h7V20H92V11h8V10H91V1ZM91,11v9H90v1h2v9H90v1h3v9H90v1h4v9H90v1h5v9H90v1h6v9H90v1h7v9H90v1h8v9H89v1H80V90H79v2H70V90H69v3H60V90H59v4H50V90H49v5H40V90H39v6H30V90H29v7H20V90H19v8H10V89H9V80h1V79H8V70h2V69H7V60h3V59H6V50h4V49H5V40h5V39H4V30h6V29H3V20h7V19H2V10h9V9h9v1h1V8h9v2h1V7h9v3h1V6h9v4h1V5h9v5h1V4h9v6h1V3h9v7h1V2h9v9Z"/></svg>