<svg id="Layer_1" data-name="Layer 1" xmlns="http://www.w3.org/2000/svg" viewBox="0 0 100 100"><title>pattern</title><rect x="7" y="10" width="1" height="5"/><rect x="8" y="30" width="1" height="5"/><polygon points="8 39 9 39 9 38 8 38 8 37 8 35 7 35 7 36 6 36 6 37 7 37 7 38 7 40 8 40 8 39"/><rect x="6" y="40" width="1" height="5"/><rect x="16" y="5" width="1" height="5"/><polygon points="17 15 18 15 18 13 18 12 19 12 19 11 18 11 18 10 17 10 17 12 17 13 16 13 16 14 17 14 17 15"/><rect x="18" y="15" width="1" height="5"/><polygon points="19 32 19 31 20 31 21 31 21 30 20 30 20 25 20 21 21 21 21 20 20 20 19 20 19 21 18 21 18 22 19 22 19 25 19 30 18 30 18 31 18 32 17 32 17 33 18 33 18 35 19 35 19 32"/><rect x="17" y="35" width="1" height="5"/><rect x="27" y="10" width="1" height="5"/><rect x="28" y="30" width="1" height="5"/><polygon points="28 39 29 39 29 38 28 38 28 37 28 35 27 35 27 36 26 36 26 37 27 37 27 38 27 40 28 40 28 39"/><rect x="26" y="40" width="1" height="5"/><rect x="36" y="5" width="1" height="5"/><polygon points="37 15 38 15 38 13 38 12 39 12 39 11 38 11 38 10 37 10 37 12 37 13 36 13 36 14 37 14 37 15"/><rect x="38" y="15" width="1" height="5"/><polygon points="39 25 39 30 38 30 38 31 38 32 37 32 37 33 38 33 38 35 39 35 39 32 39 31 40 31 41 31 41 30 40 30 40 25 40 21 41 21 41 20 40 20 39 20 39 21 38 21 38 22 39 22 39 25"/><rect x="37" y="35" width="1" height="5"/><rect x="47" y="10" width="1" height="5"/><rect x="48" y="30" width="1" height="5"/><rect x="46" y="40" width="1" height="5"/><rect x="56" y="5" width="1" height="5"/><polygon points="57 15 58 15 58 13 58 12 59 12 59 11 58 11 58 10 57 10 57 12 57 13 56 13 56 14 57 14 57 15"/><rect x="58" y="15" width="1" height="5"/><polygon points="59 25 59 30 58 30 58 31 58 32 57 32 57 33 58 33 58 35 59 35 59 32 59 31 60 31 61 31 61 30 60 30 60 25 60 21 61 21 61 20 60 20 59 20 59 21 58 21 58 22 59 22 59 25"/><rect x="57" y="35" width="1" height="5"/><polygon points="56 43 56 44 55 44 55 45 54 45 54 46 55 46 55 50 55 54 55 55 56 55 56 54 57 54 57 53 56 53 56 50 56 45 57 45 57 44 57 43 58 43 58 42 57 42 57 40 56 40 56 43"/><rect x="67" y="10" width="1" height="5"/><rect x="68" y="30" width="1" height="5"/><rect x="66" y="40" width="1" height="5"/><rect x="76" y="5" width="1" height="5"/><polygon points="77 15 78 15 78 13 78 12 79 12 79 11 78 11 78 10 77 10 77 12 77 13 76 13 76 14 77 14 77 15"/><rect x="78" y="15" width="1" height="5"/><rect x="77" y="35" width="1" height="5"/><polygon points="76 43 76 44 75 44 75 45 74 45 74 46 75 46 75 50 75 54 75 55 76 55 76 54 77 54 77 53 76 53 76 50 76 45 77 45 77 44 77 43 78 43 78 42 77 42 77 40 76 40 76 43"/><rect x="87" y="10" width="1" height="5"/><rect x="88" y="30" width="1" height="5"/><rect x="86" y="40" width="1" height="5"/><rect x="96" y="5" width="1" height="5"/><rect x="98" y="15" width="1" height="5"/><rect x="97" y="35" width="1" height="5"/><polygon points="96 43 96 44 95 44 95 45 94 45 94 46 95 46 95 50 95 54 95 55 96 55 96 54 97 54 97 53 96 53 96 50 96 45 97 45 97 44 97 43 98 43 98 42 97 42 97 40 96 40 96 43"/><rect x="7" y="60" width="1" height="5"/><rect x="8" y="80" width="1" height="5"/><polygon points="8 89 9 89 9 88 8 88 8 87 8 85 7 85 7 86 6 86 6 87 7 87 7 88 7 90 8 90 8 89"/><rect x="6" y="90" width="1" height="5"/><rect x="16" y="55" width="1" height="5"/><polygon points="17 65 18 65 18 63 18 62 19 62 19 61 18 61 18 60 17 60 17 62 17 63 16 63 16 64 17 64 17 65"/><rect x="18" y="65" width="1" height="5"/><rect x="17" y="85" width="1" height="5"/><polygon points="17 90 16 90 16 93 16 94 15 94 15 95 14 95 14 96 15 96 15 100 16 100 16 95 17 95 17 94 17 93 18 93 18 92 17 92 17 90"/><rect x="27" y="60" width="1" height="5"/><polygon points="30 75 30 70 31 70 31 69 30 69 29 69 29 68 29 65 28 65 28 67 27 67 27 68 28 68 28 69 28 70 29 70 29 75 29 78 28 78 28 79 29 79 29 80 30 80 31 80 31 79 30 79 30 75"/><rect x="28" y="80" width="1" height="5"/><rect x="26" y="90" width="1" height="5"/><rect x="36" y="55" width="1" height="5"/><polygon points="38 60 37 60 37 62 37 63 36 63 36 64 37 64 37 65 38 65 38 63 38 62 39 62 39 61 38 61 38 60"/><rect x="38" y="65" width="1" height="5"/><rect x="37" y="85" width="1" height="5"/><polygon points="37 90 36 90 36 93 36 94 35 94 35 95 34 95 34 96 35 96 35 100 36 100 36 95 37 95 37 94 37 93 38 93 38 92 37 92 37 90"/><rect x="47" y="60" width="1" height="5"/><polygon points="50 75 50 70 51 70 51 69 50 69 49 69 49 68 49 65 48 65 48 67 47 67 47 68 48 68 48 69 48 70 49 70 49 75 49 78 48 78 48 79 49 79 49 80 50 80 51 80 51 79 50 79 50 75"/><rect x="48" y="80" width="1" height="5"/><rect x="46" y="90" width="1" height="5"/><rect x="56" y="55" width="1" height="5"/><polygon points="58 60 57 60 57 62 57 63 56 63 56 64 57 64 57 65 58 65 58 63 58 62 59 62 59 61 58 61 58 60"/><rect x="58" y="65" width="1" height="5"/><rect x="57" y="85" width="1" height="5"/><polygon points="57 90 56 90 56 93 56 94 55 94 55 95 54 95 54 96 55 96 55 100 56 100 56 95 57 95 57 94 57 93 58 93 58 92 57 92 57 90"/><rect x="67" y="60" width="1" height="5"/><polygon points="70 75 70 70 71 70 71 69 70 69 69 69 69 68 69 65 68 65 68 67 67 67 67 68 68 68 68 69 68 70 69 70 69 75 69 78 68 78 68 79 69 79 69 80 70 80 71 80 71 79 70 79 70 75"/><rect x="68" y="80" width="1" height="5"/><rect x="66" y="90" width="1" height="5"/><rect x="76" y="55" width="1" height="5"/><rect x="78" y="65" width="1" height="5"/><rect x="77" y="85" width="1" height="5"/><polygon points="77 90 76 90 76 93 76 94 75 94 75 95 74 95 74 96 75 96 75 100 76 100 76 95 77 95 77 94 77 93 78 93 78 92 77 92 77 90"/><rect x="87" y="60" width="1" height="5"/><rect x="88" y="80" width="1" height="5"/><rect x="86" y="90" width="1" height="5"/><rect x="96" y="55" width="1" height="5"/><rect x="98" y="65" width="1" height="5"/><rect x="97" y="85" width="1" height="5"/><polygon points="96 93 96 94 95 94 95 95 94 95 94 96 95 96 95 100 96 100 96 95 97 95 97 94 97 93 98 93 98 92 97 92 97 90 96 90 96 93"/><rect width="1" height="1"/><rect x="1" y="1" width="1" height="1"/><rect x="2" y="2" width="1" height="1"/><rect x="3" y="3" width="1" height="1"/><polygon points="8 8 8 7 7 7 7 6 7 5 6 5 6 0 5 0 5 4 4 4 4 5 5 5 5 6 6 6 6 7 6 10 7 10 7 8 8 8"/><rect x="8" y="8" width="1" height="1"/><polygon points="10 10 11 10 11 9 10 9 9 9 9 10 10 10"/><rect x="18" y="1" width="1" height="1"/><rect x="17" y="2" width="1" height="1"/><polygon points="16 4 17 4 17 3 16 3 16 0 15 0 15 4 15 5 16 5 16 4"/><rect x="14" y="5" width="1" height="1"/><rect x="13" y="6" width="1" height="1"/><rect x="12" y="7" width="1" height="1"/><rect x="11" y="8" width="1" height="1"/><polygon points="21 1 21 0 20 0 19 0 19 1 20 1 21 1"/><rect x="21" y="1" width="1" height="1"/><rect x="22" y="2" width="1" height="1"/><rect x="23" y="3" width="1" height="1"/><polygon points="25 5 25 6 26 6 26 7 26 10 27 10 27 8 28 8 28 7 27 7 27 6 27 5 26 5 26 0 25 0 25 4 24 4 24 5 25 5"/><rect x="28" y="8" width="1" height="1"/><polygon points="30 10 31 10 31 9 30 9 29 9 29 10 30 10"/><rect x="38" y="1" width="1" height="1"/><rect x="37" y="2" width="1" height="1"/><polygon points="36 4 37 4 37 3 36 3 36 0 35 0 35 4 35 5 36 5 36 4"/><rect x="34" y="5" width="1" height="1"/><rect x="33" y="6" width="1" height="1"/><rect x="32" y="7" width="1" height="1"/><rect x="31" y="8" width="1" height="1"/><polygon points="41 1 41 0 40 0 39 0 39 1 40 1 41 1"/><rect x="41" y="1" width="1" height="1"/><rect x="42" y="2" width="1" height="1"/><rect x="43" y="3" width="1" height="1"/><polygon points="45 5 45 6 46 6 46 7 46 10 47 10 47 8 48 8 48 7 47 7 47 6 47 5 46 5 46 0 45 0 45 4 44 4 44 5 45 5"/><rect x="48" y="8" width="1" height="1"/><polygon points="50 10 51 10 51 9 50 9 49 9 49 10 50 10"/><rect x="58" y="1" width="1" height="1"/><rect x="57" y="2" width="1" height="1"/><polygon points="56 4 57 4 57 3 56 3 56 0 55 0 55 4 55 5 56 5 56 4"/><rect x="54" y="5" width="1" height="1"/><rect x="53" y="6" width="1" height="1"/><rect x="52" y="7" width="1" height="1"/><rect x="51" y="8" width="1" height="1"/><polygon points="61 1 61 0 60 0 59 0 59 1 60 1 61 1"/><rect x="61" y="1" width="1" height="1"/><rect x="62" y="2" width="1" height="1"/><rect x="63" y="3" width="1" height="1"/><polygon points="65 5 65 6 66 6 66 7 66 10 67 10 67 8 68 8 68 7 67 7 67 6 67 5 66 5 66 0 65 0 65 4 64 4 64 5 65 5"/><rect x="68" y="8" width="1" height="1"/><polygon points="70 10 71 10 71 9 70 9 69 9 69 10 70 10"/><rect x="78" y="1" width="1" height="1"/><rect x="77" y="2" width="1" height="1"/><polygon points="76 4 77 4 77 3 76 3 76 0 75 0 75 4 75 5 76 5 76 4"/><rect x="74" y="5" width="1" height="1"/><rect x="73" y="6" width="1" height="1"/><rect x="72" y="7" width="1" height="1"/><rect x="71" y="8" width="1" height="1"/><polygon points="81 1 81 0 80 0 79 0 79 1 80 1 81 1"/><rect x="81" y="1" width="1" height="1"/><rect x="82" y="2" width="1" height="1"/><rect x="83" y="3" width="1" height="1"/><polygon points="85 5 85 6 86 6 86 7 86 10 87 10 87 8 88 8 88 7 87 7 87 6 87 5 86 5 86 0 85 0 85 4 84 4 84 5 85 5"/><rect x="88" y="8" width="1" height="1"/><polygon points="90 10 91 10 91 9 90 9 89 9 89 10 90 10"/><rect x="99" width="1" height="1"/><rect x="98" y="1" width="1" height="1"/><rect x="97" y="2" width="1" height="1"/><polygon points="97 4 97 3 96 3 96 0 95 0 95 4 95 5 96 5 96 4 97 4"/><rect x="94" y="5" width="1" height="1"/><rect x="93" y="6" width="1" height="1"/><rect x="92" y="7" width="1" height="1"/><rect x="91" y="8" width="1" height="1"/><rect y="10" width="1" height="1"/><rect x="1" y="11" width="1" height="1"/><rect x="2" y="12" width="1" height="1"/><rect x="3" y="13" width="1" height="1"/><rect x="4" y="14" width="1" height="1"/><rect x="5" y="15" width="1" height="1"/><rect x="6" y="16" width="1" height="1"/><rect x="15" y="14" width="1" height="1"/><rect x="14" y="15" width="1" height="1"/><rect x="13" y="16" width="1" height="1"/><rect x="12" y="17" width="1" height="1"/><rect x="11" y="18" width="1" height="1"/><polygon points="21 11 21 10 20 10 19 10 19 11 20 11 21 11"/><rect x="21" y="11" width="1" height="1"/><rect x="22" y="12" width="1" height="1"/><rect x="23" y="13" width="1" height="1"/><rect x="24" y="14" width="1" height="1"/><rect x="25" y="15" width="1" height="1"/><rect x="26" y="16" width="1" height="1"/><polygon points="28 18 28 19 28 20 29 20 29 25 29 28 28 28 28 29 29 29 29 30 30 30 31 30 31 29 30 29 30 25 30 20 31 20 31 19 30 19 29 19 29 18 29 15 28 15 28 17 27 17 27 18 28 18"/><rect x="35" y="14" width="1" height="1"/><rect x="34" y="15" width="1" height="1"/><rect x="33" y="16" width="1" height="1"/><rect x="32" y="17" width="1" height="1"/><rect x="31" y="18" width="1" height="1"/><polygon points="41 11 41 10 40 10 39 10 39 11 40 11 41 11"/><rect x="41" y="11" width="1" height="1"/><rect x="42" y="12" width="1" height="1"/><rect x="43" y="13" width="1" height="1"/><rect x="44" y="14" width="1" height="1"/><rect x="45" y="15" width="1" height="1"/><rect x="46" y="16" width="1" height="1"/><polygon points="48 18 48 19 48 20 49 20 49 25 49 28 48 28 48 29 49 29 49 30 50 30 51 30 51 29 50 29 50 25 50 20 51 20 51 19 50 19 49 19 49 18 49 15 48 15 48 17 47 17 47 18 48 18"/><rect x="55" y="14" width="1" height="1"/><rect x="54" y="15" width="1" height="1"/><rect x="53" y="16" width="1" height="1"/><rect x="52" y="17" width="1" height="1"/><rect x="51" y="18" width="1" height="1"/><polygon points="61 11 61 10 60 10 59 10 59 11 60 11 61 11"/><rect x="61" y="11" width="1" height="1"/><rect x="62" y="12" width="1" height="1"/><rect x="63" y="13" width="1" height="1"/><rect x="64" y="14" width="1" height="1"/><rect x="65" y="15" width="1" height="1"/><rect x="66" y="16" width="1" height="1"/><polygon points="68 18 68 19 68 20 69 20 69 25 69 28 68 28 68 29 69 29 69 30 70 30 71 30 71 29 70 29 70 25 70 20 71 20 71 19 70 19 69 19 69 18 69 15 68 15 68 17 67 17 67 18 68 18"/><rect x="75" y="14" width="1" height="1"/><rect x="74" y="15" width="1" height="1"/><rect x="73" y="16" width="1" height="1"/><rect x="72" y="17" width="1" height="1"/><rect x="71" y="18" width="1" height="1"/><polygon points="81 11 81 10 80 10 79 10 79 11 80 11 81 11"/><rect x="81" y="11" width="1" height="1"/><rect x="82" y="12" width="1" height="1"/><rect x="83" y="13" width="1" height="1"/><rect x="84" y="14" width="1" height="1"/><rect x="85" y="15" width="1" height="1"/><rect x="86" y="16" width="1" height="1"/><polygon points="87 17 87 18 88 18 88 19 88 20 89 20 89 25 89 28 88 28 88 29 89 29 89 30 90 30 91 30 91 29 90 29 90 25 90 20 91 20 91 19 90 19 89 19 89 18 89 15 88 15 88 17 87 17"/><rect x="99" y="10" width="1" height="1"/><polygon points="97 13 96 13 96 14 97 14 97 15 98 15 98 13 98 12 99 12 99 11 98 11 98 10 97 10 97 12 97 13"/><rect x="95" y="14" width="1" height="1"/><rect x="94" y="15" width="1" height="1"/><rect x="93" y="16" width="1" height="1"/><rect x="92" y="17" width="1" height="1"/><rect x="91" y="18" width="1" height="1"/><rect y="20" width="1" height="1"/><rect x="1" y="21" width="1" height="1"/><rect x="2" y="22" width="1" height="1"/><rect x="3" y="23" width="1" height="1"/><rect x="4" y="24" width="1" height="1"/><rect x="5" y="25" width="1" height="1"/><rect x="6" y="26" width="1" height="1"/><rect x="7" y="27" width="1" height="1"/><rect x="17" y="22" width="1" height="1"/><rect x="16" y="23" width="1" height="1"/><rect x="15" y="24" width="1" height="1"/><rect x="14" y="25" width="1" height="1"/><rect x="13" y="26" width="1" height="1"/><rect x="12" y="27" width="1" height="1"/><rect x="11" y="28" width="1" height="1"/><polygon points="11 30 11 29 10 29 10 25 10 20 11 20 11 19 10 19 9 19 9 18 9 15 8 15 8 17 7 17 7 18 8 18 8 19 8 20 9 20 9 25 9 28 8 28 8 29 9 29 9 30 10 30 11 30"/><rect x="21" y="21" width="1" height="1"/><rect x="22" y="22" width="1" height="1"/><rect x="23" y="23" width="1" height="1"/><rect x="24" y="24" width="1" height="1"/><rect x="25" y="25" width="1" height="1"/><rect x="26" y="26" width="1" height="1"/><rect x="27" y="27" width="1" height="1"/><rect x="37" y="22" width="1" height="1"/><rect x="36" y="23" width="1" height="1"/><rect x="35" y="24" width="1" height="1"/><rect x="34" y="25" width="1" height="1"/><rect x="33" y="26" width="1" height="1"/><rect x="32" y="27" width="1" height="1"/><rect x="31" y="28" width="1" height="1"/><rect x="41" y="21" width="1" height="1"/><rect x="42" y="22" width="1" height="1"/><rect x="43" y="23" width="1" height="1"/><rect x="44" y="24" width="1" height="1"/><rect x="45" y="25" width="1" height="1"/><rect x="46" y="26" width="1" height="1"/><rect x="47" y="27" width="1" height="1"/><rect x="57" y="22" width="1" height="1"/><rect x="56" y="23" width="1" height="1"/><rect x="55" y="24" width="1" height="1"/><rect x="54" y="25" width="1" height="1"/><rect x="53" y="26" width="1" height="1"/><rect x="52" y="27" width="1" height="1"/><rect x="51" y="28" width="1" height="1"/><rect x="61" y="21" width="1" height="1"/><rect x="62" y="22" width="1" height="1"/><rect x="63" y="23" width="1" height="1"/><rect x="64" y="24" width="1" height="1"/><rect x="65" y="25" width="1" height="1"/><rect x="66" y="26" width="1" height="1"/><rect x="67" y="27" width="1" height="1"/><rect x="77" y="22" width="1" height="1"/><rect x="76" y="23" width="1" height="1"/><rect x="75" y="24" width="1" height="1"/><rect x="74" y="25" width="1" height="1"/><rect x="73" y="26" width="1" height="1"/><rect x="72" y="27" width="1" height="1"/><rect x="71" y="28" width="1" height="1"/><rect x="81" y="21" width="1" height="1"/><rect x="82" y="22" width="1" height="1"/><rect x="83" y="23" width="1" height="1"/><rect x="84" y="24" width="1" height="1"/><rect x="85" y="25" width="1" height="1"/><rect x="86" y="26" width="1" height="1"/><rect x="87" y="27" width="1" height="1"/><polygon points="98 21 98 22 99 22 99 25 99 30 98 30 98 31 98 32 97 32 97 33 98 33 98 35 99 35 99 32 99 31 100 31 100 30 100 25 100 21 100 20 99 20 99 21 98 21"/><rect x="97" y="22" width="1" height="1"/><rect x="96" y="23" width="1" height="1"/><rect x="95" y="24" width="1" height="1"/><rect x="94" y="25" width="1" height="1"/><rect x="93" y="26" width="1" height="1"/><rect x="92" y="27" width="1" height="1"/><rect x="91" y="28" width="1" height="1"/><rect y="30" width="1" height="1"/><rect x="1" y="31" width="1" height="1"/><rect x="2" y="32" width="1" height="1"/><rect x="3" y="33" width="1" height="1"/><rect x="4" y="34" width="1" height="1"/><rect x="5" y="35" width="1" height="1"/><polygon points="9 39 9 40 10 40 11 40 11 39 10 39 9 39"/><rect x="16" y="33" width="1" height="1"/><rect x="15" y="34" width="1" height="1"/><rect x="14" y="35" width="1" height="1"/><rect x="13" y="36" width="1" height="1"/><rect x="12" y="37" width="1" height="1"/><rect x="11" y="38" width="1" height="1"/><rect x="21" y="31" width="1" height="1"/><rect x="22" y="32" width="1" height="1"/><rect x="23" y="33" width="1" height="1"/><rect x="24" y="34" width="1" height="1"/><rect x="25" y="35" width="1" height="1"/><polygon points="29 39 29 40 30 40 31 40 31 39 30 39 29 39"/><rect x="36" y="33" width="1" height="1"/><rect x="35" y="34" width="1" height="1"/><rect x="34" y="35" width="1" height="1"/><rect x="33" y="36" width="1" height="1"/><rect x="32" y="37" width="1" height="1"/><rect x="31" y="38" width="1" height="1"/><rect x="41" y="31" width="1" height="1"/><rect x="42" y="32" width="1" height="1"/><rect x="43" y="33" width="1" height="1"/><rect x="44" y="34" width="1" height="1"/><rect x="45" y="35" width="1" height="1"/><polygon points="47 37 47 38 47 40 48 40 48 39 49 39 49 38 48 38 48 37 48 35 47 35 47 36 46 36 46 37 47 37"/><polygon points="50 40 51 40 51 39 50 39 49 39 49 40 50 40"/><rect x="56" y="33" width="1" height="1"/><rect x="55" y="34" width="1" height="1"/><rect x="54" y="35" width="1" height="1"/><rect x="53" y="36" width="1" height="1"/><rect x="52" y="37" width="1" height="1"/><rect x="51" y="38" width="1" height="1"/><rect x="61" y="31" width="1" height="1"/><rect x="62" y="32" width="1" height="1"/><rect x="63" y="33" width="1" height="1"/><rect x="64" y="34" width="1" height="1"/><rect x="65" y="35" width="1" height="1"/><polygon points="68 38 68 37 68 35 67 35 67 36 66 36 66 37 67 37 67 38 67 40 68 40 68 39 69 39 69 38 68 38"/><polygon points="69 39 69 40 70 40 71 40 71 39 70 39 69 39"/><rect x="76" y="33" width="1" height="1"/><rect x="75" y="34" width="1" height="1"/><rect x="74" y="35" width="1" height="1"/><rect x="73" y="36" width="1" height="1"/><rect x="72" y="37" width="1" height="1"/><rect x="71" y="38" width="1" height="1"/><polygon points="80 30 80 25 80 21 81 21 81 20 80 20 79 20 79 21 78 21 78 22 79 22 79 25 79 30 78 30 78 31 78 32 77 32 77 33 78 33 78 35 79 35 79 32 79 31 80 31 81 31 81 30 80 30"/><rect x="81" y="31" width="1" height="1"/><rect x="82" y="32" width="1" height="1"/><rect x="83" y="33" width="1" height="1"/><rect x="84" y="34" width="1" height="1"/><rect x="85" y="35" width="1" height="1"/><polygon points="88 38 88 37 88 35 87 35 87 36 86 36 86 37 87 37 87 38 87 40 88 40 88 39 89 39 89 38 88 38"/><polygon points="89 39 89 40 90 40 91 40 91 39 90 39 89 39"/><rect x="96" y="33" width="1" height="1"/><rect x="95" y="34" width="1" height="1"/><rect x="94" y="35" width="1" height="1"/><rect x="93" y="36" width="1" height="1"/><rect x="92" y="37" width="1" height="1"/><rect x="91" y="38" width="1" height="1"/><rect y="40" width="1" height="1"/><rect x="1" y="41" width="1" height="1"/><rect x="2" y="42" width="1" height="1"/><rect x="3" y="43" width="1" height="1"/><rect x="4" y="44" width="1" height="1"/><rect x="7" y="47" width="1" height="1"/><rect x="8" y="48" width="1" height="1"/><polygon points="10 50 11 50 11 49 10 49 9 49 9 50 10 50"/><rect x="18" y="41" width="1" height="1"/><rect x="13" y="46" width="1" height="1"/><rect x="12" y="47" width="1" height="1"/><rect x="11" y="48" width="1" height="1"/><polygon points="21 41 21 40 20 40 19 40 19 41 20 41 21 41"/><rect x="21" y="41" width="1" height="1"/><rect x="22" y="42" width="1" height="1"/><rect x="23" y="43" width="1" height="1"/><rect x="24" y="44" width="1" height="1"/><rect x="27" y="47" width="1" height="1"/><rect x="28" y="48" width="1" height="1"/><polygon points="30 50 31 50 31 49 30 49 29 49 29 50 30 50"/><rect x="38" y="41" width="1" height="1"/><rect x="33" y="46" width="1" height="1"/><rect x="32" y="47" width="1" height="1"/><rect x="31" y="48" width="1" height="1"/><polygon points="41 41 41 40 40 40 39 40 39 41 40 41 41 41"/><rect x="41" y="41" width="1" height="1"/><rect x="42" y="42" width="1" height="1"/><rect x="43" y="43" width="1" height="1"/><rect x="44" y="44" width="1" height="1"/><rect x="47" y="47" width="1" height="1"/><rect x="48" y="48" width="1" height="1"/><polygon points="50 50 51 50 51 49 50 49 49 49 49 50 50 50"/><rect x="58" y="41" width="1" height="1"/><rect x="53" y="46" width="1" height="1"/><rect x="52" y="47" width="1" height="1"/><rect x="51" y="48" width="1" height="1"/><polygon points="61 41 61 40 60 40 59 40 59 41 60 41 61 41"/><rect x="61" y="41" width="1" height="1"/><rect x="62" y="42" width="1" height="1"/><rect x="63" y="43" width="1" height="1"/><rect x="64" y="44" width="1" height="1"/><polygon points="65 46 65 50 65 54 64 54 64 55 65 55 65 56 66 56 66 57 66 60 67 60 67 58 68 58 68 57 67 57 67 56 67 55 66 55 66 50 66 47 67 47 67 46 66 46 66 45 65 45 65 46"/><rect x="67" y="47" width="1" height="1"/><rect x="68" y="48" width="1" height="1"/><polygon points="70 50 71 50 71 49 70 49 69 49 69 50 70 50"/><rect x="78" y="41" width="1" height="1"/><rect x="73" y="46" width="1" height="1"/><rect x="72" y="47" width="1" height="1"/><rect x="71" y="48" width="1" height="1"/><polygon points="81 41 81 40 80 40 79 40 79 41 80 41 81 41"/><rect x="81" y="41" width="1" height="1"/><rect x="82" y="42" width="1" height="1"/><rect x="83" y="43" width="1" height="1"/><rect x="84" y="44" width="1" height="1"/><polygon points="85 46 85 50 85 54 84 54 84 55 85 55 85 56 86 56 86 57 86 60 87 60 87 58 88 58 88 57 87 57 87 56 87 55 86 55 86 50 86 47 87 47 87 46 86 46 86 45 85 45 85 46"/><rect x="87" y="47" width="1" height="1"/><rect x="88" y="48" width="1" height="1"/><polygon points="90 50 91 50 91 49 90 49 89 49 89 50 90 50"/><rect x="99" y="40" width="1" height="1"/><rect x="98" y="41" width="1" height="1"/><rect x="93" y="46" width="1" height="1"/><rect x="92" y="47" width="1" height="1"/><rect x="91" y="48" width="1" height="1"/><rect y="50" width="1" height="1"/><rect x="1" y="51" width="1" height="1"/><rect x="2" y="52" width="1" height="1"/><rect x="3" y="53" width="1" height="1"/><polygon points="8 58 8 57 7 57 7 56 7 55 6 55 6 50 6 47 7 47 7 46 6 46 6 45 5 45 5 46 5 50 5 54 4 54 4 55 5 55 5 56 6 56 6 57 6 60 7 60 7 58 8 58"/><rect x="8" y="58" width="1" height="1"/><polygon points="9 59 9 60 10 60 11 60 11 59 10 59 9 59"/><rect x="18" y="51" width="1" height="1"/><rect x="17" y="52" width="1" height="1"/><polygon points="17 54 17 53 16 53 16 50 16 45 17 45 17 44 17 43 18 43 18 42 17 42 17 40 16 40 16 43 16 44 15 44 15 45 14 45 14 46 15 46 15 50 15 54 15 55 16 55 16 54 17 54"/><rect x="14" y="55" width="1" height="1"/><rect x="13" y="56" width="1" height="1"/><rect x="12" y="57" width="1" height="1"/><rect x="11" y="58" width="1" height="1"/><polygon points="20 50 19 50 19 51 20 51 21 51 21 50 20 50"/><rect x="21" y="51" width="1" height="1"/><rect x="22" y="52" width="1" height="1"/><rect x="23" y="53" width="1" height="1"/><polygon points="28 58 28 57 27 57 27 56 27 55 26 55 26 50 26 47 27 47 27 46 26 46 26 45 25 45 25 46 25 50 25 54 24 54 24 55 25 55 25 56 26 56 26 57 26 60 27 60 27 58 28 58"/><rect x="28" y="58" width="1" height="1"/><polygon points="29 59 29 60 30 60 31 60 31 59 30 59 29 59"/><rect x="38" y="51" width="1" height="1"/><rect x="37" y="52" width="1" height="1"/><polygon points="37 54 37 53 36 53 36 50 36 45 37 45 37 44 37 43 38 43 38 42 37 42 37 40 36 40 36 43 36 44 35 44 35 45 34 45 34 46 35 46 35 50 35 54 35 55 36 55 36 54 37 54"/><rect x="34" y="55" width="1" height="1"/><rect x="33" y="56" width="1" height="1"/><rect x="32" y="57" width="1" height="1"/><rect x="31" y="58" width="1" height="1"/><polygon points="40 50 39 50 39 51 40 51 41 51 41 50 40 50"/><rect x="41" y="51" width="1" height="1"/><rect x="42" y="52" width="1" height="1"/><rect x="43" y="53" width="1" height="1"/><polygon points="47 57 47 56 47 55 46 55 46 50 46 47 47 47 47 46 46 46 46 45 45 45 45 46 45 50 45 54 44 54 44 55 45 55 45 56 46 56 46 57 46 60 47 60 47 58 48 58 48 57 47 57"/><rect x="48" y="58" width="1" height="1"/><polygon points="49 59 49 60 50 60 51 60 51 59 50 59 49 59"/><rect x="58" y="51" width="1" height="1"/><rect x="57" y="52" width="1" height="1"/><rect x="54" y="55" width="1" height="1"/><rect x="53" y="56" width="1" height="1"/><rect x="52" y="57" width="1" height="1"/><rect x="51" y="58" width="1" height="1"/><polygon points="60 50 59 50 59 51 60 51 61 51 61 50 60 50"/><rect x="61" y="51" width="1" height="1"/><rect x="62" y="52" width="1" height="1"/><rect x="63" y="53" width="1" height="1"/><rect x="68" y="58" width="1" height="1"/><polygon points="69 59 69 60 70 60 71 60 71 59 70 59 69 59"/><rect x="78" y="51" width="1" height="1"/><rect x="77" y="52" width="1" height="1"/><rect x="74" y="55" width="1" height="1"/><rect x="73" y="56" width="1" height="1"/><rect x="72" y="57" width="1" height="1"/><rect x="71" y="58" width="1" height="1"/><polygon points="80 50 79 50 79 51 80 51 81 51 81 50 80 50"/><rect x="81" y="51" width="1" height="1"/><rect x="82" y="52" width="1" height="1"/><rect x="83" y="53" width="1" height="1"/><rect x="88" y="58" width="1" height="1"/><polygon points="89 59 89 60 90 60 91 60 91 59 90 59 89 59"/><rect x="99" y="50" width="1" height="1"/><rect x="98" y="51" width="1" height="1"/><rect x="97" y="52" width="1" height="1"/><rect x="94" y="55" width="1" height="1"/><rect x="93" y="56" width="1" height="1"/><rect x="92" y="57" width="1" height="1"/><rect x="91" y="58" width="1" height="1"/><rect y="60" width="1" height="1"/><rect x="1" y="61" width="1" height="1"/><rect x="2" y="62" width="1" height="1"/><rect x="3" y="63" width="1" height="1"/><rect x="4" y="64" width="1" height="1"/><rect x="5" y="65" width="1" height="1"/><rect x="6" y="66" width="1" height="1"/><rect x="15" y="64" width="1" height="1"/><rect x="14" y="65" width="1" height="1"/><rect x="13" y="66" width="1" height="1"/><rect x="12" y="67" width="1" height="1"/><rect x="11" y="68" width="1" height="1"/><polygon points="21 61 21 60 20 60 19 60 19 61 20 61 21 61"/><rect x="21" y="61" width="1" height="1"/><rect x="22" y="62" width="1" height="1"/><rect x="23" y="63" width="1" height="1"/><rect x="24" y="64" width="1" height="1"/><rect x="25" y="65" width="1" height="1"/><rect x="26" y="66" width="1" height="1"/><rect x="35" y="64" width="1" height="1"/><rect x="34" y="65" width="1" height="1"/><rect x="33" y="66" width="1" height="1"/><rect x="32" y="67" width="1" height="1"/><rect x="31" y="68" width="1" height="1"/><polygon points="40 60 39 60 39 61 40 61 41 61 41 60 40 60"/><rect x="41" y="61" width="1" height="1"/><rect x="42" y="62" width="1" height="1"/><rect x="43" y="63" width="1" height="1"/><rect x="44" y="64" width="1" height="1"/><rect x="45" y="65" width="1" height="1"/><rect x="46" y="66" width="1" height="1"/><rect x="55" y="64" width="1" height="1"/><rect x="54" y="65" width="1" height="1"/><rect x="53" y="66" width="1" height="1"/><rect x="52" y="67" width="1" height="1"/><rect x="51" y="68" width="1" height="1"/><polygon points="60 60 59 60 59 61 60 61 61 61 61 60 60 60"/><rect x="61" y="61" width="1" height="1"/><rect x="62" y="62" width="1" height="1"/><rect x="63" y="63" width="1" height="1"/><rect x="64" y="64" width="1" height="1"/><rect x="65" y="65" width="1" height="1"/><rect x="66" y="66" width="1" height="1"/><polygon points="77 63 76 63 76 64 77 64 77 65 78 65 78 63 78 62 79 62 79 61 78 61 78 60 77 60 77 62 77 63"/><rect x="75" y="64" width="1" height="1"/><rect x="74" y="65" width="1" height="1"/><rect x="73" y="66" width="1" height="1"/><rect x="72" y="67" width="1" height="1"/><rect x="71" y="68" width="1" height="1"/><polygon points="81 61 81 60 80 60 79 60 79 61 80 61 81 61"/><rect x="81" y="61" width="1" height="1"/><rect x="82" y="62" width="1" height="1"/><rect x="83" y="63" width="1" height="1"/><rect x="84" y="64" width="1" height="1"/><rect x="85" y="65" width="1" height="1"/><rect x="86" y="66" width="1" height="1"/><polygon points="87 67 87 68 88 68 88 69 88 70 89 70 89 75 89 78 88 78 88 79 89 79 89 80 90 80 91 80 91 79 90 79 90 75 90 70 91 70 91 69 90 69 89 69 89 68 89 65 88 65 88 67 87 67"/><rect x="99" y="60" width="1" height="1"/><polygon points="97 63 96 63 96 64 97 64 97 65 98 65 98 63 98 62 99 62 99 61 98 61 98 60 97 60 97 62 97 63"/><rect x="95" y="64" width="1" height="1"/><rect x="94" y="65" width="1" height="1"/><rect x="93" y="66" width="1" height="1"/><rect x="92" y="67" width="1" height="1"/><rect x="91" y="68" width="1" height="1"/><rect y="70" width="1" height="1"/><rect x="1" y="71" width="1" height="1"/><rect x="2" y="72" width="1" height="1"/><rect x="3" y="73" width="1" height="1"/><rect x="4" y="74" width="1" height="1"/><rect x="5" y="75" width="1" height="1"/><rect x="6" y="76" width="1" height="1"/><rect x="7" y="77" width="1" height="1"/><rect x="17" y="72" width="1" height="1"/><rect x="16" y="73" width="1" height="1"/><rect x="15" y="74" width="1" height="1"/><rect x="14" y="75" width="1" height="1"/><rect x="13" y="76" width="1" height="1"/><rect x="12" y="77" width="1" height="1"/><rect x="11" y="78" width="1" height="1"/><polygon points="11 80 11 79 10 79 10 75 10 70 11 70 11 69 10 69 9 69 9 68 9 65 8 65 8 67 7 67 7 68 8 68 8 69 8 70 9 70 9 75 9 78 8 78 8 79 9 79 9 80 10 80 11 80"/><rect x="21" y="71" width="1" height="1"/><rect x="22" y="72" width="1" height="1"/><rect x="23" y="73" width="1" height="1"/><rect x="24" y="74" width="1" height="1"/><rect x="25" y="75" width="1" height="1"/><rect x="26" y="76" width="1" height="1"/><rect x="27" y="77" width="1" height="1"/><rect x="37" y="72" width="1" height="1"/><rect x="36" y="73" width="1" height="1"/><rect x="35" y="74" width="1" height="1"/><rect x="34" y="75" width="1" height="1"/><rect x="33" y="76" width="1" height="1"/><rect x="32" y="77" width="1" height="1"/><rect x="31" y="78" width="1" height="1"/><rect x="41" y="71" width="1" height="1"/><rect x="42" y="72" width="1" height="1"/><rect x="43" y="73" width="1" height="1"/><rect x="44" y="74" width="1" height="1"/><rect x="45" y="75" width="1" height="1"/><rect x="46" y="76" width="1" height="1"/><rect x="47" y="77" width="1" height="1"/><rect x="57" y="72" width="1" height="1"/><rect x="56" y="73" width="1" height="1"/><rect x="55" y="74" width="1" height="1"/><rect x="54" y="75" width="1" height="1"/><rect x="53" y="76" width="1" height="1"/><rect x="52" y="77" width="1" height="1"/><rect x="51" y="78" width="1" height="1"/><rect x="61" y="71" width="1" height="1"/><rect x="62" y="72" width="1" height="1"/><rect x="63" y="73" width="1" height="1"/><rect x="64" y="74" width="1" height="1"/><rect x="65" y="75" width="1" height="1"/><rect x="66" y="76" width="1" height="1"/><rect x="67" y="77" width="1" height="1"/><rect x="77" y="72" width="1" height="1"/><rect x="76" y="73" width="1" height="1"/><rect x="75" y="74" width="1" height="1"/><rect x="74" y="75" width="1" height="1"/><rect x="73" y="76" width="1" height="1"/><rect x="72" y="77" width="1" height="1"/><rect x="71" y="78" width="1" height="1"/><rect x="81" y="71" width="1" height="1"/><rect x="82" y="72" width="1" height="1"/><rect x="83" y="73" width="1" height="1"/><rect x="84" y="74" width="1" height="1"/><rect x="85" y="75" width="1" height="1"/><rect x="86" y="76" width="1" height="1"/><rect x="87" y="77" width="1" height="1"/><polygon points="98 71 98 72 99 72 99 75 99 80 98 80 98 81 98 82 97 82 97 83 98 83 98 85 99 85 99 82 99 81 100 81 100 80 100 75 100 71 100 70 99 70 99 71 98 71"/><rect x="97" y="72" width="1" height="1"/><rect x="96" y="73" width="1" height="1"/><rect x="95" y="74" width="1" height="1"/><rect x="94" y="75" width="1" height="1"/><rect x="93" y="76" width="1" height="1"/><rect x="92" y="77" width="1" height="1"/><rect x="91" y="78" width="1" height="1"/><rect y="80" width="1" height="1"/><rect x="1" y="81" width="1" height="1"/><rect x="2" y="82" width="1" height="1"/><rect x="3" y="83" width="1" height="1"/><rect x="4" y="84" width="1" height="1"/><rect x="5" y="85" width="1" height="1"/><polygon points="9 89 9 90 10 90 11 90 11 89 10 89 9 89"/><rect x="16" y="83" width="1" height="1"/><rect x="15" y="84" width="1" height="1"/><rect x="14" y="85" width="1" height="1"/><rect x="13" y="86" width="1" height="1"/><rect x="12" y="87" width="1" height="1"/><rect x="11" y="88" width="1" height="1"/><polygon points="20 80 20 75 20 71 21 71 21 70 20 70 19 70 19 71 18 71 18 72 19 72 19 75 19 80 18 80 18 81 18 82 17 82 17 83 18 83 18 85 19 85 19 82 19 81 20 81 21 81 21 80 20 80"/><rect x="21" y="81" width="1" height="1"/><rect x="22" y="82" width="1" height="1"/><rect x="23" y="83" width="1" height="1"/><rect x="24" y="84" width="1" height="1"/><rect x="25" y="85" width="1" height="1"/><polygon points="28 88 28 87 28 85 27 85 27 86 26 86 26 87 27 87 27 88 27 90 28 90 28 89 29 89 29 88 28 88"/><polygon points="29 89 29 90 30 90 31 90 31 89 30 89 29 89"/><rect x="36" y="83" width="1" height="1"/><rect x="35" y="84" width="1" height="1"/><rect x="34" y="85" width="1" height="1"/><rect x="33" y="86" width="1" height="1"/><rect x="32" y="87" width="1" height="1"/><rect x="31" y="88" width="1" height="1"/><polygon points="40 80 40 75 40 71 41 71 41 70 40 70 39 70 39 71 38 71 38 72 39 72 39 75 39 80 38 80 38 81 38 82 37 82 37 83 38 83 38 85 39 85 39 82 39 81 40 81 41 81 41 80 40 80"/><rect x="41" y="81" width="1" height="1"/><rect x="42" y="82" width="1" height="1"/><rect x="43" y="83" width="1" height="1"/><rect x="44" y="84" width="1" height="1"/><rect x="45" y="85" width="1" height="1"/><polygon points="48 88 48 87 48 85 47 85 47 86 46 86 46 87 47 87 47 88 47 90 48 90 48 89 49 89 49 88 48 88"/><polygon points="49 89 49 90 50 90 51 90 51 89 50 89 49 89"/><rect x="56" y="83" width="1" height="1"/><rect x="55" y="84" width="1" height="1"/><rect x="54" y="85" width="1" height="1"/><rect x="53" y="86" width="1" height="1"/><rect x="52" y="87" width="1" height="1"/><rect x="51" y="88" width="1" height="1"/><polygon points="60 80 60 75 60 71 61 71 61 70 60 70 59 70 59 71 58 71 58 72 59 72 59 75 59 80 58 80 58 81 58 82 57 82 57 83 58 83 58 85 59 85 59 82 59 81 60 81 61 81 61 80 60 80"/><rect x="61" y="81" width="1" height="1"/><rect x="62" y="82" width="1" height="1"/><rect x="63" y="83" width="1" height="1"/><rect x="64" y="84" width="1" height="1"/><rect x="65" y="85" width="1" height="1"/><polygon points="68 88 68 87 68 85 67 85 67 86 66 86 66 87 67 87 67 88 67 90 68 90 68 89 69 89 69 88 68 88"/><polygon points="69 89 69 90 70 90 71 90 71 89 70 89 69 89"/><rect x="76" y="83" width="1" height="1"/><rect x="75" y="84" width="1" height="1"/><rect x="74" y="85" width="1" height="1"/><rect x="73" y="86" width="1" height="1"/><rect x="72" y="87" width="1" height="1"/><rect x="71" y="88" width="1" height="1"/><polygon points="80 80 80 75 80 71 81 71 81 70 80 70 79 70 79 71 78 71 78 72 79 72 79 75 79 80 78 80 78 81 78 82 77 82 77 83 78 83 78 85 79 85 79 82 79 81 80 81 81 81 81 80 80 80"/><rect x="81" y="81" width="1" height="1"/><rect x="82" y="82" width="1" height="1"/><rect x="83" y="83" width="1" height="1"/><rect x="84" y="84" width="1" height="1"/><rect x="85" y="85" width="1" height="1"/><polygon points="88 88 88 87 88 85 87 85 87 86 86 86 86 87 87 87 87 88 87 90 88 90 88 89 89 89 89 88 88 88"/><polygon points="89 89 89 90 90 90 91 90 91 89 90 89 89 89"/><rect x="96" y="83" width="1" height="1"/><rect x="95" y="84" width="1" height="1"/><rect x="94" y="85" width="1" height="1"/><rect x="93" y="86" width="1" height="1"/><rect x="92" y="87" width="1" height="1"/><rect x="91" y="88" width="1" height="1"/><rect y="90" width="1" height="1"/><rect x="1" y="91" width="1" height="1"/><rect x="2" y="92" width="1" height="1"/><rect x="3" y="93" width="1" height="1"/><rect x="4" y="94" width="1" height="1"/><polygon points="6 96 6 95 5 95 5 96 5 100 6 100 6 97 7 97 7 96 6 96"/><rect x="7" y="97" width="1" height="1"/><rect x="8" y="98" width="1" height="1"/><polygon points="9 99 9 100 10 100 11 100 11 99 10 99 9 99"/><rect x="18" y="91" width="1" height="1"/><rect x="13" y="96" width="1" height="1"/><rect x="12" y="97" width="1" height="1"/><rect x="11" y="98" width="1" height="1"/><polygon points="20 90 19 90 19 91 20 91 21 91 21 90 20 90"/><rect x="21" y="91" width="1" height="1"/><rect x="22" y="92" width="1" height="1"/><rect x="23" y="93" width="1" height="1"/><rect x="24" y="94" width="1" height="1"/><polygon points="26 96 26 95 25 95 25 96 25 100 26 100 26 97 27 97 27 96 26 96"/><rect x="27" y="97" width="1" height="1"/><rect x="28" y="98" width="1" height="1"/><polygon points="29 99 29 100 30 100 31 100 31 99 30 99 29 99"/><rect x="38" y="91" width="1" height="1"/><rect x="33" y="96" width="1" height="1"/><rect x="32" y="97" width="1" height="1"/><rect x="31" y="98" width="1" height="1"/><polygon points="40 90 39 90 39 91 40 91 41 91 41 90 40 90"/><rect x="41" y="91" width="1" height="1"/><rect x="42" y="92" width="1" height="1"/><rect x="43" y="93" width="1" height="1"/><rect x="44" y="94" width="1" height="1"/><polygon points="46 96 46 95 45 95 45 96 45 100 46 100 46 97 47 97 47 96 46 96"/><rect x="47" y="97" width="1" height="1"/><rect x="48" y="98" width="1" height="1"/><polygon points="49 99 49 100 50 100 51 100 51 99 50 99 49 99"/><rect x="58" y="91" width="1" height="1"/><rect x="53" y="96" width="1" height="1"/><rect x="52" y="97" width="1" height="1"/><rect x="51" y="98" width="1" height="1"/><polygon points="60 90 59 90 59 91 60 91 61 91 61 90 60 90"/><rect x="61" y="91" width="1" height="1"/><rect x="62" y="92" width="1" height="1"/><rect x="63" y="93" width="1" height="1"/><rect x="64" y="94" width="1" height="1"/><polygon points="66 96 66 95 65 95 65 96 65 100 66 100 66 97 67 97 67 96 66 96"/><rect x="67" y="97" width="1" height="1"/><rect x="68" y="98" width="1" height="1"/><polygon points="69 99 69 100 70 100 71 100 71 99 70 99 69 99"/><rect x="78" y="91" width="1" height="1"/><rect x="73" y="96" width="1" height="1"/><rect x="72" y="97" width="1" height="1"/><rect x="71" y="98" width="1" height="1"/><polygon points="80 90 79 90 79 91 80 91 81 91 81 90 80 90"/><rect x="81" y="91" width="1" height="1"/><rect x="82" y="92" width="1" height="1"/><rect x="83" y="93" width="1" height="1"/><rect x="84" y="94" width="1" height="1"/><polygon points="86 96 86 95 85 95 85 96 85 100 86 100 86 97 87 97 87 96 86 96"/><rect x="87" y="97" width="1" height="1"/><rect x="88" y="98" width="1" height="1"/><polygon points="89 99 89 100 90 100 91 100 91 99 90 99 89 99"/><rect x="99" y="90" width="1" height="1"/><rect x="98" y="91" width="1" height="1"/><rect x="93" y="96" width="1" height="1"/><rect x="92" y="97" width="1" height="1"/><rect x="91" y="98" width="1" height="1"/></svg>