<svg id="Layer_1" data-name="Layer 1" xmlns="http://www.w3.org/2000/svg" viewBox="0 0 100 100"><title>pattern</title><rect x="1" y="5" width="1" height="5"/><rect x="3" y="15" width="1" height="5"/><polygon points="5 25 10 25 10 24 5 24 5 23 5 20 4 20 4 23 0 23 0 24 4 24 4 25 4 30 5 30 5 25"/><polygon points="4 34 5 34 5 33 4 33 4 30 3 30 3 33 0 33 0 34 3 34 3 35 4 35 4 34"/><rect x="2" y="35" width="1" height="5"/><polygon points="2 44 5 44 5 43 2 43 2 40 1 40 1 43 0 43 0 44 1 44 1 45 2 45 2 44"/><polygon points="15 27 20 27 20 26 15 26 15 25 15 20 14 20 14 25 10 25 10 26 14 26 14 30 15 30 15 27"/><polygon points="13 36 15 36 15 35 14 35 14 30 13 30 13 35 12 35 10 35 10 36 12 36 12 40 13 40 13 36"/><rect x="20" width="1" height="5"/><rect x="22" y="10" width="1" height="5"/><polygon points="25 28 30 28 30 27 25 27 25 25 25 20 24 20 24 25 24 27 20 27 20 28 24 28 24 30 25 30 25 28"/><rect x="23" y="30" width="1" height="5"/><polygon points="23 38 25 38 30 38 30 37 25 37 23 37 23 35 22 35 22 37 20 37 20 38 22 38 22 40 23 40 23 38"/><rect x="21" y="40" width="1" height="5"/><rect x="30" width="1" height="5"/><polygon points="31 10 32 10 32 7 35 7 35 6 32 6 32 5 31 5 31 6 30 6 30 7 31 7 31 10"/><rect x="32" y="10" width="1" height="5"/><polygon points="33 20 34 20 34 17 35 17 35 16 34 16 34 15 33 15 33 16 30 16 30 17 33 17 33 20"/><polygon points="34 30 35 30 35 27 35 26 40 26 40 25 35 25 35 20 34 20 34 25 34 26 30 26 30 27 34 27 34 30"/><rect x="33" y="30" width="1" height="5"/><polygon points="33 37 35 37 35 36 33 36 33 35 32 35 32 36 30 36 30 37 32 37 32 40 33 40 33 37"/><rect x="31" y="40" width="1" height="5"/><polygon points="41 10 42 10 42 5 45 5 45 4 41 4 41 0 40 0 40 4 40 5 41 5 41 10"/><polygon points="44 30 45 30 45 25 45 24 50 24 54 24 54 25 54 30 55 30 55 25 60 25 60 24 55 24 55 23 55 20 54 20 54 23 50 23 45 23 45 20 44 20 44 24 40 24 40 25 44 25 44 30"/><polygon points="42 40 43 40 43 35 44 35 45 35 45 34 44 34 44 30 43 30 43 34 40 34 40 35 42 35 42 40"/><polygon points="40 50 40 54 40 55 41 55 41 60 42 60 42 55 45 55 45 54 41 54 41 50 41 45 42 45 45 45 45 44 42 44 42 40 41 40 41 44 40 44 40 45 35 45 35 46 40 46 40 50"/><polygon points="50 5 51 5 51 4 55 4 55 3 51 3 51 0 50 0 50 3 45 3 45 4 50 4 50 5"/><rect x="51" y="5" width="1" height="5"/><rect x="53" y="15" width="1" height="5"/><polygon points="53 33 50 33 45 33 45 34 50 34 53 34 53 35 54 35 54 34 55 34 55 33 54 33 54 30 53 30 53 33"/><rect x="52" y="35" width="1" height="5"/><polygon points="51 43 50 43 45 43 45 44 50 44 51 44 51 45 52 45 52 44 55 44 55 43 52 43 52 40 51 40 51 43"/><polygon points="63 35 62 35 60 35 60 36 62 36 62 40 63 40 63 36 65 36 65 35 64 35 64 30 63 30 63 35"/><rect x="70" width="1" height="5"/><rect x="72" y="10" width="1" height="5"/><polygon points="74 27 70 27 70 28 74 28 74 30 75 30 75 28 80 28 80 27 75 27 75 25 75 20 74 20 74 25 74 27"/><rect x="73" y="30" width="1" height="5"/><polygon points="72 37 70 37 70 38 72 38 72 40 73 40 73 38 75 38 80 38 80 37 75 37 73 37 73 35 72 35 72 37"/><rect x="71" y="40" width="1" height="5"/><rect x="80" width="1" height="5"/><polygon points="81 10 82 10 82 7 85 7 85 6 82 6 82 5 81 5 81 6 80 6 80 7 81 7 81 10"/><rect x="82" y="10" width="1" height="5"/><polygon points="84 26 80 26 80 27 84 27 84 30 85 30 85 27 85 26 90 26 90 25 85 25 85 20 84 20 84 25 84 26"/><rect x="83" y="30" width="1" height="5"/><polygon points="82 36 80 36 80 37 82 37 82 40 83 40 83 37 85 37 85 36 83 36 83 35 82 35 82 36"/><rect x="81" y="40" width="1" height="5"/><polygon points="80 46 80 47 75 47 71 47 71 45 70 45 70 46 65 46 65 47 70 47 70 48 70 50 70 55 71 55 71 50 71 48 75 48 80 48 80 50 80 55 81 55 81 50 81 47 85 47 85 46 81 46 81 45 80 45 80 46"/><polygon points="93 34 90 34 90 35 92 35 92 40 93 40 93 35 94 35 95 35 95 34 94 34 94 30 93 30 93 34"/><polygon points="91 44 90 44 90 45 85 45 85 46 90 46 90 50 90 54 90 55 91 55 91 60 92 60 92 55 95 55 95 54 91 54 91 50 91 45 92 45 95 45 95 44 92 44 92 40 91 40 91 44"/><rect x="1" y="55" width="1" height="5"/><rect x="3" y="65" width="1" height="5"/><polygon points="5 75 10 75 10 74 5 74 5 73 5 70 4 70 4 73 0 73 0 74 4 74 4 75 4 80 5 80 5 75"/><polygon points="4 84 5 84 5 83 4 83 4 80 3 80 3 83 0 83 0 84 3 84 3 85 4 85 4 84"/><rect x="2" y="85" width="1" height="5"/><rect y="95" width="1" height="5"/><polygon points="15 77 20 77 20 76 15 76 15 75 15 70 14 70 14 75 10 75 10 76 14 76 14 80 15 80 15 77"/><rect x="22" y="60" width="1" height="5"/><polygon points="25 78 30 78 30 77 25 77 25 75 25 70 24 70 24 75 24 77 20 77 20 78 24 78 24 80 25 80 25 78"/><rect x="23" y="80" width="1" height="5"/><polygon points="23 88 25 88 30 88 30 87 25 87 23 87 23 85 22 85 22 87 20 87 20 88 22 88 22 90 23 90 23 88"/><rect x="21" y="90" width="1" height="5"/><rect x="32" y="60" width="1" height="5"/><polygon points="34 65 33 65 33 66 30 66 30 67 33 67 33 70 34 70 34 67 35 67 35 66 34 66 34 65"/><polygon points="35 70 34 70 34 75 34 76 30 76 30 77 34 77 34 80 35 80 35 77 35 76 40 76 40 75 35 75 35 70"/><rect x="33" y="80" width="1" height="5"/><polygon points="33 85 32 85 32 86 30 86 30 87 32 87 32 90 33 90 33 87 35 87 35 86 33 86 33 85"/><rect x="31" y="90" width="1" height="5"/><polygon points="31 95 30 95 30 96 30 97 25 97 21 97 21 95 20 95 20 96 15 96 15 97 20 97 20 98 20 100 21 100 21 98 25 98 30 98 30 100 31 100 31 97 35 97 35 96 31 96 31 95"/><polygon points="44 80 43 80 43 84 40 84 40 85 42 85 42 90 43 90 43 85 44 85 45 85 45 84 44 84 44 80"/><polygon points="42 90 41 90 41 94 40 94 40 95 35 95 35 96 40 96 40 100 41 100 41 95 42 95 45 95 45 94 42 94 42 90"/><rect x="51" y="55" width="1" height="5"/><rect x="53" y="65" width="1" height="5"/><rect x="52" y="85" width="1" height="5"/><rect x="50" y="95" width="1" height="5"/><rect x="72" y="60" width="1" height="5"/><polygon points="74 77 70 77 70 78 74 78 74 80 75 80 75 78 80 78 80 77 75 77 75 75 75 70 74 70 74 75 74 77"/><rect x="73" y="80" width="1" height="5"/><polygon points="73 88 75 88 80 88 80 87 75 87 73 87 73 85 72 85 72 87 70 87 70 88 72 88 72 90 73 90 73 88"/><rect x="71" y="90" width="1" height="5"/><polygon points="82 55 81 55 81 56 80 56 80 57 81 57 81 60 82 60 82 57 85 57 85 56 82 56 82 55"/><rect x="82" y="60" width="1" height="5"/><polygon points="84 76 80 76 80 77 84 77 84 80 85 80 85 77 85 76 90 76 90 75 85 75 85 70 84 70 84 75 84 76"/><rect x="83" y="80" width="1" height="5"/><polygon points="82 86 80 86 80 87 82 87 82 90 83 90 83 87 85 87 85 86 83 86 83 85 82 85 82 86"/><rect x="81" y="90" width="1" height="5"/><polygon points="81 95 80 95 80 96 80 97 75 97 71 97 71 95 70 95 70 96 65 96 65 97 70 97 70 98 70 100 71 100 71 98 75 98 80 98 80 100 81 100 81 97 85 97 85 96 81 96 81 95"/><polygon points="93 84 90 84 90 85 92 85 92 90 93 90 93 85 94 85 95 85 95 84 94 84 94 80 93 80 93 84"/><polygon points="91 94 90 94 90 95 85 95 85 96 90 96 90 100 91 100 91 95 92 95 95 95 95 94 92 94 92 90 91 90 91 94"/><rect x="95" y="3" width="5" height="1"/><polygon points="95 5 95 4 91 4 91 0 90 0 90 4 90 5 91 5 91 10 92 10 92 5 95 5"/><rect x="85" y="5" width="5" height="1"/><polygon points="71 8 71 10 72 10 72 8 75 8 80 8 80 7 75 7 72 7 72 5 71 5 71 7 70 7 70 8 71 8"/><rect x="65" y="6" width="5" height="1"/><polygon points="60 5 60 6 61 6 61 10 62 10 62 6 65 6 65 5 62 5 61 5 61 0 60 0 60 4 55 4 55 5 60 5"/><rect x="95" y="13" width="5" height="1"/><polygon points="90 14 90 15 92 15 93 15 93 20 94 20 94 15 95 15 95 14 93 14 93 10 92 10 92 14 90 14"/><rect x="85" y="15" width="5" height="1"/><polygon points="80 16 80 17 83 17 83 20 84 20 84 17 85 17 85 16 84 16 84 15 83 15 83 16 80 16"/><polygon points="73 18 73 20 74 20 74 18 75 18 80 18 80 17 75 17 74 17 74 15 73 15 73 17 70 17 70 18 73 18"/><rect x="65" y="16" width="5" height="1"/><polygon points="63 16 63 20 64 20 64 16 65 16 65 15 64 15 63 15 63 10 62 10 62 15 60 15 60 16 63 16"/><rect x="55" y="14" width="5" height="1"/><polygon points="52 14 52 15 53 15 53 14 55 14 55 13 53 13 53 10 52 10 52 13 50 13 45 13 45 14 50 14 52 14"/><polygon points="90 24 90 25 94 25 94 30 95 30 95 25 95 24 100 24 100 23 95 23 95 20 94 20 94 24 90 24"/><polygon points="64 26 64 30 65 30 65 27 70 27 70 26 65 26 65 25 65 20 64 20 64 25 60 25 60 26 64 26"/><rect x="95" y="33" width="5" height="1"/><rect x="85" y="35" width="5" height="1"/><rect x="65" y="36" width="5" height="1"/><rect x="55" y="34" width="5" height="1"/><rect x="95" y="43" width="5" height="1"/><polygon points="62 45 62 40 61 40 61 45 60 45 60 46 60 50 60 54 55 54 55 55 60 55 60 56 61 56 61 60 62 60 62 56 65 56 65 55 62 55 61 55 61 50 61 46 65 46 65 45 62 45"/><rect x="55" y="44" width="5" height="1"/><rect x="95" y="53" width="5" height="1"/><rect x="85" y="55" width="5" height="1"/><polygon points="70 57 70 58 71 58 71 60 72 60 72 58 75 58 80 58 80 57 75 57 72 57 72 55 71 55 71 57 70 57"/><rect x="65" y="56" width="5" height="1"/><polygon points="51 53 51 50 51 45 50 45 50 50 50 53 45 53 45 54 50 54 50 55 51 55 51 54 55 54 55 53 51 53"/><rect x="95" y="63" width="5" height="1"/><polygon points="90 64 90 65 92 65 93 65 93 70 94 70 94 65 95 65 95 64 93 64 93 60 92 60 92 64 90 64"/><rect x="85" y="65" width="5" height="1"/><polygon points="80 66 80 67 83 67 83 70 84 70 84 67 85 67 85 66 84 66 84 65 83 65 83 66 80 66"/><polygon points="70 67 70 68 73 68 73 70 74 70 74 68 75 68 80 68 80 67 75 67 74 67 74 65 73 65 73 67 70 67"/><rect x="65" y="66" width="5" height="1"/><polygon points="60 65 60 66 63 66 63 70 64 70 64 66 65 66 65 65 64 65 63 65 63 60 62 60 62 65 60 65"/><rect x="55" y="64" width="5" height="1"/><polygon points="53 63 53 60 52 60 52 63 50 63 45 63 45 64 50 64 52 64 52 65 53 65 53 64 55 64 55 63 53 63"/><polygon points="90 74 90 75 94 75 94 80 95 80 95 75 95 74 100 74 100 73 95 73 95 70 94 70 94 74 90 74"/><polygon points="65 76 65 75 65 70 64 70 64 75 60 75 60 76 64 76 64 80 65 80 65 77 70 77 70 76 65 76"/><polygon points="55 74 55 73 55 70 54 70 54 73 50 73 45 73 45 70 44 70 44 74 40 74 40 75 44 75 44 80 45 80 45 75 45 74 50 74 54 74 54 75 54 80 55 80 55 75 60 75 60 74 55 74"/><rect x="95" y="83" width="5" height="1"/><rect x="85" y="85" width="5" height="1"/><rect x="65" y="86" width="5" height="1"/><polygon points="64 85 64 80 63 80 63 85 62 85 60 85 60 86 62 86 62 90 63 90 63 86 65 86 65 85 64 85"/><rect x="55" y="84" width="5" height="1"/><polygon points="54 83 54 80 53 80 53 83 50 83 45 83 45 84 50 84 53 84 53 85 54 85 54 84 55 84 55 83 54 83"/><rect x="95" y="93" width="5" height="1"/><polygon points="62 95 62 90 61 90 61 95 60 95 60 96 60 100 61 100 61 96 65 96 65 95 62 95"/><rect x="55" y="94" width="5" height="1"/><polygon points="52 93 52 90 51 90 51 93 50 93 45 93 45 94 50 94 51 94 51 95 52 95 52 94 55 94 55 93 52 93"/><rect x="35" y="5" width="5" height="1"/><polygon points="21 8 21 10 22 10 22 8 25 8 30 8 30 7 25 7 22 7 22 5 21 5 21 7 20 7 20 8 21 8"/><rect x="15" y="6" width="5" height="1"/><polygon points="10 5 10 6 11 6 11 10 12 10 12 6 15 6 15 5 12 5 11 5 11 0 10 0 10 4 5 4 5 5 10 5"/><polygon points="5 4 5 3 1 3 1 0 0 0 0 3 0 4 0 5 1 5 1 4 5 4"/><polygon points="43 15 43 20 44 20 44 15 45 15 45 14 43 14 43 10 42 10 42 14 40 14 40 15 42 15 43 15"/><rect x="35" y="15" width="5" height="1"/><polygon points="23 18 23 20 24 20 24 18 25 18 30 18 30 17 25 17 24 17 24 15 23 15 23 17 20 17 20 18 23 18"/><rect x="15" y="16" width="5" height="1"/><polygon points="15 16 15 15 14 15 13 15 13 10 12 10 12 15 10 15 10 16 13 16 13 20 14 20 14 16 15 16"/><rect x="5" y="14" width="5" height="1"/><polygon points="5 14 5 13 3 13 3 10 2 10 2 13 0 13 0 14 2 14 2 15 3 15 3 14 5 14"/><rect x="35" y="35" width="5" height="1"/><rect x="15" y="36" width="5" height="1"/><rect x="5" y="34" width="5" height="1"/><polygon points="20 47 20 48 20 50 20 55 21 55 21 50 21 48 25 48 30 48 30 50 30 55 31 55 31 50 31 47 35 47 35 46 31 46 31 45 30 45 30 46 30 47 25 47 21 47 21 45 20 45 20 46 15 46 15 47 20 47"/><rect x="5" y="44" width="5" height="1"/><rect x="35" y="55" width="5" height="1"/><polygon points="35 57 35 56 32 56 32 55 31 55 31 56 30 56 30 57 31 57 31 60 32 60 32 57 35 57"/><polygon points="25 58 30 58 30 57 25 57 22 57 22 55 21 55 21 57 20 57 20 58 21 58 21 60 22 60 22 58 25 58"/><rect x="15" y="56" width="5" height="1"/><polygon points="15 56 15 55 12 55 11 55 11 50 11 46 15 46 15 45 12 45 12 40 11 40 11 45 10 45 10 46 10 50 10 54 5 54 5 55 10 55 10 56 11 56 11 60 12 60 12 56 15 56"/><polygon points="5 54 5 53 1 53 1 50 1 45 0 45 0 50 0 53 0 54 0 55 1 55 1 54 5 54"/><polygon points="45 65 45 64 43 64 43 60 42 60 42 64 40 64 40 65 42 65 43 65 43 70 44 70 44 65 45 65"/><rect x="35" y="65" width="5" height="1"/><polygon points="25 68 30 68 30 67 25 67 24 67 24 65 23 65 23 67 20 67 20 68 23 68 23 70 24 70 24 68 25 68"/><rect x="15" y="66" width="5" height="1"/><polygon points="15 66 15 65 14 65 13 65 13 60 12 60 12 65 10 65 10 66 13 66 13 70 14 70 14 66 15 66"/><rect x="5" y="64" width="5" height="1"/><polygon points="5 64 5 63 3 63 3 60 2 60 2 63 0 63 0 64 2 64 2 65 3 65 3 64 5 64"/><rect x="35" y="85" width="5" height="1"/><rect x="15" y="86" width="5" height="1"/><polygon points="14 85 14 80 13 80 13 85 12 85 10 85 10 86 12 86 12 90 13 90 13 86 15 86 15 85 14 85"/><rect x="5" y="84" width="5" height="1"/><polygon points="12 95 12 90 11 90 11 95 10 95 10 96 10 100 11 100 11 96 15 96 15 95 12 95"/><rect x="5" y="94" width="5" height="1"/><polygon points="2 93 2 90 1 90 1 93 0 93 0 94 1 94 1 95 2 95 2 94 5 94 5 93 2 93"/></svg>