<svg id="Layer_1" data-name="Layer 1" xmlns="http://www.w3.org/2000/svg" viewBox="0 0 100 100"><title>pattern</title><rect width="1" height="5"/><rect x="1" y="5" width="1" height="5"/><rect x="3" y="5" width="1" height="5"/><rect x="4" width="1" height="5"/><rect x="6" width="1" height="5"/><rect x="7" y="5" width="1" height="5"/><rect x="9" width="1" height="5"/><rect x="10" y="5" width="1" height="5"/><rect x="12" y="5" width="1" height="5"/><rect x="13" width="1" height="5"/><rect x="15" width="1" height="5"/><rect x="16" y="5" width="1" height="5"/><rect x="18" width="1" height="5"/><rect x="19" y="5" width="1" height="5"/><rect x="21" y="5" width="1" height="5"/><rect x="22" width="1" height="5"/><rect x="24" width="1" height="5"/><rect x="25" y="5" width="1" height="5"/><rect x="27" width="1" height="5"/><rect x="28" y="5" width="1" height="5"/><rect x="30" y="5" width="1" height="5"/><rect x="31" width="1" height="5"/><rect x="33" width="1" height="5"/><rect x="34" y="5" width="1" height="5"/><rect x="36" width="1" height="5"/><rect x="37" y="5" width="1" height="5"/><rect x="39" y="5" width="1" height="5"/><rect x="40" width="1" height="5"/><rect x="42" width="1" height="5"/><rect x="43" y="5" width="1" height="5"/><rect x="45" width="1" height="5"/><rect x="46" y="5" width="1" height="5"/><rect x="48" y="5" width="1" height="5"/><rect x="49" width="1" height="5"/><rect x="51" width="1" height="5"/><rect x="52" y="5" width="1" height="5"/><rect x="54" width="1" height="5"/><rect x="55" y="5" width="1" height="5"/><rect x="57" y="5" width="1" height="5"/><rect x="58" width="1" height="5"/><rect x="60" width="1" height="5"/><rect x="61" y="5" width="1" height="5"/><rect x="63" width="1" height="5"/><rect x="64" y="5" width="1" height="5"/><rect x="66" y="5" width="1" height="5"/><rect x="67" width="1" height="5"/><rect x="69" width="1" height="5"/><rect x="70" y="5" width="1" height="5"/><rect x="72" width="1" height="5"/><rect x="73" y="5" width="1" height="5"/><rect x="75" y="5" width="1" height="5"/><rect x="76" width="1" height="5"/><rect x="78" width="1" height="5"/><rect x="79" y="5" width="1" height="5"/><rect x="81" width="1" height="5"/><rect x="82" y="5" width="1" height="5"/><rect x="84" y="5" width="1" height="5"/><rect x="85" width="1" height="5"/><rect x="87" width="1" height="5"/><rect x="88" y="5" width="1" height="5"/><rect x="90" width="1" height="5"/><rect x="91" y="5" width="1" height="5"/><rect x="93" y="5" width="1" height="5"/><rect x="94" width="1" height="5"/><rect x="96" width="1" height="5"/><rect x="97" y="5" width="1" height="5"/><rect x="99" width="1" height="5"/><rect y="10" width="1" height="5"/><rect x="1" y="15" width="1" height="5"/><rect x="3" y="15" width="1" height="5"/><rect x="4" y="10" width="1" height="5"/><rect x="6" y="10" width="1" height="5"/><rect x="7" y="15" width="1" height="5"/><rect x="9" y="10" width="1" height="5"/><rect x="10" y="15" width="1" height="5"/><rect x="12" y="15" width="1" height="5"/><rect x="13" y="10" width="1" height="5"/><rect x="15" y="10" width="1" height="5"/><rect x="16" y="15" width="1" height="5"/><rect x="18" y="10" width="1" height="5"/><rect x="19" y="15" width="1" height="5"/><rect x="21" y="15" width="1" height="5"/><rect x="22" y="10" width="1" height="5"/><rect x="24" y="10" width="1" height="5"/><rect x="25" y="15" width="1" height="5"/><rect x="27" y="10" width="1" height="5"/><rect x="28" y="15" width="1" height="5"/><rect x="30" y="15" width="1" height="5"/><rect x="31" y="10" width="1" height="5"/><rect x="33" y="10" width="1" height="5"/><rect x="34" y="15" width="1" height="5"/><rect x="36" y="10" width="1" height="5"/><rect x="37" y="15" width="1" height="5"/><rect x="39" y="15" width="1" height="5"/><rect x="40" y="10" width="1" height="5"/><rect x="42" y="10" width="1" height="5"/><rect x="43" y="15" width="1" height="5"/><rect x="45" y="10" width="1" height="5"/><rect x="46" y="15" width="1" height="5"/><rect x="48" y="15" width="1" height="5"/><rect x="49" y="10" width="1" height="5"/><rect x="51" y="10" width="1" height="5"/><rect x="52" y="15" width="1" height="5"/><rect x="54" y="10" width="1" height="5"/><rect x="55" y="15" width="1" height="5"/><rect x="57" y="15" width="1" height="5"/><rect x="58" y="10" width="1" height="5"/><rect x="60" y="10" width="1" height="5"/><rect x="61" y="15" width="1" height="5"/><rect x="63" y="10" width="1" height="5"/><rect x="64" y="15" width="1" height="5"/><rect x="66" y="15" width="1" height="5"/><rect x="67" y="10" width="1" height="5"/><rect x="69" y="10" width="1" height="5"/><rect x="70" y="15" width="1" height="5"/><rect x="72" y="10" width="1" height="5"/><rect x="73" y="15" width="1" height="5"/><rect x="75" y="15" width="1" height="5"/><rect x="76" y="10" width="1" height="5"/><rect x="78" y="10" width="1" height="5"/><rect x="79" y="15" width="1" height="5"/><rect x="81" y="10" width="1" height="5"/><rect x="82" y="15" width="1" height="5"/><rect x="84" y="15" width="1" height="5"/><rect x="85" y="10" width="1" height="5"/><rect x="87" y="10" width="1" height="5"/><rect x="88" y="15" width="1" height="5"/><rect x="90" y="10" width="1" height="5"/><rect x="91" y="15" width="1" height="5"/><rect x="93" y="15" width="1" height="5"/><rect x="94" y="10" width="1" height="5"/><rect x="96" y="10" width="1" height="5"/><rect x="97" y="15" width="1" height="5"/><rect x="99" y="10" width="1" height="5"/><rect y="20" width="1" height="5"/><rect x="1" y="25" width="1" height="5"/><rect x="3" y="25" width="1" height="5"/><rect x="4" y="20" width="1" height="5"/><rect x="6" y="20" width="1" height="5"/><rect x="7" y="25" width="1" height="5"/><rect x="9" y="20" width="1" height="5"/><rect x="10" y="25" width="1" height="5"/><rect x="12" y="25" width="1" height="5"/><rect x="13" y="20" width="1" height="5"/><rect x="15" y="20" width="1" height="5"/><rect x="16" y="25" width="1" height="5"/><rect x="18" y="20" width="1" height="5"/><rect x="19" y="25" width="1" height="5"/><rect x="21" y="25" width="1" height="5"/><rect x="22" y="20" width="1" height="5"/><rect x="24" y="20" width="1" height="5"/><rect x="25" y="25" width="1" height="5"/><rect x="27" y="20" width="1" height="5"/><rect x="28" y="25" width="1" height="5"/><rect x="30" y="25" width="1" height="5"/><rect x="31" y="20" width="1" height="5"/><rect x="33" y="20" width="1" height="5"/><rect x="34" y="25" width="1" height="5"/><rect x="36" y="20" width="1" height="5"/><rect x="37" y="25" width="1" height="5"/><rect x="39" y="25" width="1" height="5"/><rect x="40" y="20" width="1" height="5"/><rect x="42" y="20" width="1" height="5"/><rect x="43" y="25" width="1" height="5"/><rect x="45" y="20" width="1" height="5"/><rect x="46" y="25" width="1" height="5"/><rect x="48" y="25" width="1" height="5"/><rect x="49" y="20" width="1" height="5"/><rect x="51" y="20" width="1" height="5"/><rect x="52" y="25" width="1" height="5"/><rect x="54" y="20" width="1" height="5"/><rect x="55" y="25" width="1" height="5"/><rect x="57" y="25" width="1" height="5"/><rect x="58" y="20" width="1" height="5"/><rect x="60" y="20" width="1" height="5"/><rect x="61" y="25" width="1" height="5"/><rect x="63" y="20" width="1" height="5"/><rect x="64" y="25" width="1" height="5"/><rect x="66" y="25" width="1" height="5"/><rect x="67" y="20" width="1" height="5"/><rect x="69" y="20" width="1" height="5"/><rect x="70" y="25" width="1" height="5"/><rect x="72" y="20" width="1" height="5"/><rect x="73" y="25" width="1" height="5"/><rect x="75" y="25" width="1" height="5"/><rect x="76" y="20" width="1" height="5"/><rect x="78" y="20" width="1" height="5"/><rect x="79" y="25" width="1" height="5"/><rect x="81" y="20" width="1" height="5"/><rect x="82" y="25" width="1" height="5"/><rect x="84" y="25" width="1" height="5"/><rect x="85" y="20" width="1" height="5"/><rect x="87" y="20" width="1" height="5"/><rect x="88" y="25" width="1" height="5"/><rect x="90" y="20" width="1" height="5"/><rect x="91" y="25" width="1" height="5"/><rect x="93" y="25" width="1" height="5"/><rect x="94" y="20" width="1" height="5"/><rect x="96" y="20" width="1" height="5"/><rect x="97" y="25" width="1" height="5"/><rect x="99" y="20" width="1" height="5"/><rect y="30" width="1" height="5"/><rect x="1" y="35" width="1" height="5"/><rect x="3" y="35" width="1" height="5"/><rect x="4" y="30" width="1" height="5"/><rect x="6" y="30" width="1" height="5"/><rect x="7" y="35" width="1" height="5"/><rect x="9" y="30" width="1" height="5"/><rect x="10" y="35" width="1" height="5"/><rect x="12" y="35" width="1" height="5"/><rect x="13" y="30" width="1" height="5"/><rect x="15" y="30" width="1" height="5"/><rect x="16" y="35" width="1" height="5"/><rect x="18" y="30" width="1" height="5"/><rect x="19" y="35" width="1" height="5"/><rect x="21" y="35" width="1" height="5"/><rect x="22" y="30" width="1" height="5"/><rect x="24" y="30" width="1" height="5"/><rect x="25" y="35" width="1" height="5"/><rect x="27" y="30" width="1" height="5"/><rect x="28" y="35" width="1" height="5"/><rect x="30" y="35" width="1" height="5"/><rect x="31" y="30" width="1" height="5"/><rect x="33" y="30" width="1" height="5"/><rect x="34" y="35" width="1" height="5"/><rect x="36" y="30" width="1" height="5"/><rect x="37" y="35" width="1" height="5"/><rect x="39" y="35" width="1" height="5"/><rect x="40" y="30" width="1" height="5"/><rect x="42" y="30" width="1" height="5"/><rect x="43" y="35" width="1" height="5"/><rect x="45" y="30" width="1" height="5"/><rect x="46" y="35" width="1" height="5"/><rect x="48" y="35" width="1" height="5"/><rect x="49" y="30" width="1" height="5"/><rect x="51" y="30" width="1" height="5"/><rect x="52" y="35" width="1" height="5"/><rect x="54" y="30" width="1" height="5"/><rect x="55" y="35" width="1" height="5"/><rect x="57" y="35" width="1" height="5"/><rect x="58" y="30" width="1" height="5"/><rect x="60" y="30" width="1" height="5"/><rect x="61" y="35" width="1" height="5"/><rect x="63" y="30" width="1" height="5"/><rect x="64" y="35" width="1" height="5"/><rect x="66" y="35" width="1" height="5"/><rect x="67" y="30" width="1" height="5"/><rect x="69" y="30" width="1" height="5"/><rect x="70" y="35" width="1" height="5"/><rect x="72" y="30" width="1" height="5"/><rect x="73" y="35" width="1" height="5"/><rect x="75" y="35" width="1" height="5"/><rect x="76" y="30" width="1" height="5"/><rect x="78" y="30" width="1" height="5"/><rect x="79" y="35" width="1" height="5"/><rect x="81" y="30" width="1" height="5"/><rect x="82" y="35" width="1" height="5"/><rect x="84" y="35" width="1" height="5"/><rect x="85" y="30" width="1" height="5"/><rect x="87" y="30" width="1" height="5"/><rect x="88" y="35" width="1" height="5"/><rect x="90" y="30" width="1" height="5"/><rect x="91" y="35" width="1" height="5"/><rect x="93" y="35" width="1" height="5"/><rect x="94" y="30" width="1" height="5"/><rect x="96" y="30" width="1" height="5"/><rect x="97" y="35" width="1" height="5"/><rect x="99" y="30" width="1" height="5"/><rect y="40" width="1" height="5"/><rect x="1" y="45" width="1" height="5"/><rect x="3" y="45" width="1" height="5"/><rect x="4" y="40" width="1" height="5"/><rect x="6" y="40" width="1" height="5"/><rect x="7" y="45" width="1" height="5"/><rect x="9" y="40" width="1" height="5"/><rect x="10" y="45" width="1" height="5"/><rect x="12" y="45" width="1" height="5"/><rect x="13" y="40" width="1" height="5"/><rect x="15" y="40" width="1" height="5"/><rect x="16" y="45" width="1" height="5"/><rect x="18" y="40" width="1" height="5"/><rect x="19" y="45" width="1" height="5"/><rect x="21" y="45" width="1" height="5"/><rect x="22" y="40" width="1" height="5"/><rect x="24" y="40" width="1" height="5"/><rect x="25" y="45" width="1" height="5"/><rect x="27" y="40" width="1" height="5"/><rect x="28" y="45" width="1" height="5"/><rect x="30" y="45" width="1" height="5"/><rect x="31" y="40" width="1" height="5"/><rect x="33" y="40" width="1" height="5"/><rect x="34" y="45" width="1" height="5"/><rect x="36" y="40" width="1" height="5"/><rect x="37" y="45" width="1" height="5"/><rect x="39" y="45" width="1" height="5"/><rect x="40" y="40" width="1" height="5"/><rect x="42" y="40" width="1" height="5"/><rect x="43" y="45" width="1" height="5"/><rect x="45" y="40" width="1" height="5"/><rect x="46" y="45" width="1" height="5"/><rect x="48" y="45" width="1" height="5"/><rect x="49" y="40" width="1" height="5"/><rect x="51" y="40" width="1" height="5"/><rect x="52" y="45" width="1" height="5"/><rect x="54" y="40" width="1" height="5"/><rect x="55" y="45" width="1" height="5"/><rect x="57" y="45" width="1" height="5"/><rect x="58" y="40" width="1" height="5"/><rect x="60" y="40" width="1" height="5"/><rect x="61" y="45" width="1" height="5"/><rect x="63" y="40" width="1" height="5"/><rect x="64" y="45" width="1" height="5"/><rect x="66" y="45" width="1" height="5"/><rect x="67" y="40" width="1" height="5"/><rect x="69" y="40" width="1" height="5"/><rect x="70" y="45" width="1" height="5"/><rect x="72" y="40" width="1" height="5"/><rect x="73" y="45" width="1" height="5"/><rect x="75" y="45" width="1" height="5"/><rect x="76" y="40" width="1" height="5"/><rect x="78" y="40" width="1" height="5"/><rect x="79" y="45" width="1" height="5"/><rect x="81" y="40" width="1" height="5"/><rect x="82" y="45" width="1" height="5"/><rect x="84" y="45" width="1" height="5"/><rect x="85" y="40" width="1" height="5"/><rect x="87" y="40" width="1" height="5"/><rect x="88" y="45" width="1" height="5"/><rect x="90" y="40" width="1" height="5"/><rect x="91" y="45" width="1" height="5"/><rect x="93" y="45" width="1" height="5"/><rect x="94" y="40" width="1" height="5"/><rect x="96" y="40" width="1" height="5"/><rect x="97" y="45" width="1" height="5"/><rect x="99" y="40" width="1" height="5"/><rect y="50" width="1" height="5"/><rect x="1" y="55" width="1" height="5"/><rect x="3" y="55" width="1" height="5"/><rect x="4" y="50" width="1" height="5"/><rect x="6" y="50" width="1" height="5"/><rect x="7" y="55" width="1" height="5"/><rect x="9" y="50" width="1" height="5"/><rect x="10" y="55" width="1" height="5"/><rect x="12" y="55" width="1" height="5"/><rect x="13" y="50" width="1" height="5"/><rect x="15" y="50" width="1" height="5"/><rect x="16" y="55" width="1" height="5"/><rect x="18" y="50" width="1" height="5"/><rect x="19" y="55" width="1" height="5"/><rect x="21" y="55" width="1" height="5"/><rect x="22" y="50" width="1" height="5"/><rect x="24" y="50" width="1" height="5"/><rect x="25" y="55" width="1" height="5"/><rect x="27" y="50" width="1" height="5"/><rect x="28" y="55" width="1" height="5"/><rect x="30" y="55" width="1" height="5"/><rect x="31" y="50" width="1" height="5"/><rect x="33" y="50" width="1" height="5"/><rect x="34" y="55" width="1" height="5"/><rect x="36" y="50" width="1" height="5"/><rect x="37" y="55" width="1" height="5"/><rect x="39" y="55" width="1" height="5"/><rect x="40" y="50" width="1" height="5"/><rect x="42" y="50" width="1" height="5"/><rect x="43" y="55" width="1" height="5"/><rect x="45" y="50" width="1" height="5"/><rect x="46" y="55" width="1" height="5"/><rect x="48" y="55" width="1" height="5"/><rect x="49" y="50" width="1" height="5"/><rect x="51" y="50" width="1" height="5"/><rect x="52" y="55" width="1" height="5"/><rect x="54" y="50" width="1" height="5"/><rect x="55" y="55" width="1" height="5"/><rect x="57" y="55" width="1" height="5"/><rect x="58" y="50" width="1" height="5"/><rect x="60" y="50" width="1" height="5"/><rect x="61" y="55" width="1" height="5"/><rect x="63" y="50" width="1" height="5"/><rect x="64" y="55" width="1" height="5"/><rect x="66" y="55" width="1" height="5"/><rect x="67" y="50" width="1" height="5"/><rect x="69" y="50" width="1" height="5"/><rect x="70" y="55" width="1" height="5"/><rect x="72" y="50" width="1" height="5"/><rect x="73" y="55" width="1" height="5"/><rect x="75" y="55" width="1" height="5"/><rect x="76" y="50" width="1" height="5"/><rect x="78" y="50" width="1" height="5"/><rect x="79" y="55" width="1" height="5"/><rect x="81" y="50" width="1" height="5"/><rect x="82" y="55" width="1" height="5"/><rect x="84" y="55" width="1" height="5"/><rect x="85" y="50" width="1" height="5"/><rect x="87" y="50" width="1" height="5"/><rect x="88" y="55" width="1" height="5"/><rect x="90" y="50" width="1" height="5"/><rect x="91" y="55" width="1" height="5"/><rect x="93" y="55" width="1" height="5"/><rect x="94" y="50" width="1" height="5"/><rect x="96" y="50" width="1" height="5"/><rect x="97" y="55" width="1" height="5"/><rect x="99" y="50" width="1" height="5"/><rect y="60" width="1" height="5"/><rect x="1" y="65" width="1" height="5"/><rect x="3" y="65" width="1" height="5"/><rect x="4" y="60" width="1" height="5"/><rect x="6" y="60" width="1" height="5"/><rect x="7" y="65" width="1" height="5"/><rect x="9" y="60" width="1" height="5"/><rect x="10" y="65" width="1" height="5"/><rect x="12" y="65" width="1" height="5"/><rect x="13" y="60" width="1" height="5"/><rect x="15" y="60" width="1" height="5"/><rect x="16" y="65" width="1" height="5"/><rect x="18" y="60" width="1" height="5"/><rect x="19" y="65" width="1" height="5"/><rect x="21" y="65" width="1" height="5"/><rect x="22" y="60" width="1" height="5"/><rect x="24" y="60" width="1" height="5"/><rect x="25" y="65" width="1" height="5"/><rect x="27" y="60" width="1" height="5"/><rect x="28" y="65" width="1" height="5"/><rect x="30" y="65" width="1" height="5"/><rect x="31" y="60" width="1" height="5"/><rect x="33" y="60" width="1" height="5"/><rect x="34" y="65" width="1" height="5"/><rect x="36" y="60" width="1" height="5"/><rect x="37" y="65" width="1" height="5"/><rect x="39" y="65" width="1" height="5"/><rect x="40" y="60" width="1" height="5"/><rect x="42" y="60" width="1" height="5"/><rect x="43" y="65" width="1" height="5"/><rect x="45" y="60" width="1" height="5"/><rect x="46" y="65" width="1" height="5"/><rect x="48" y="65" width="1" height="5"/><rect x="49" y="60" width="1" height="5"/><rect x="51" y="60" width="1" height="5"/><rect x="52" y="65" width="1" height="5"/><rect x="54" y="60" width="1" height="5"/><rect x="55" y="65" width="1" height="5"/><rect x="57" y="65" width="1" height="5"/><rect x="58" y="60" width="1" height="5"/><rect x="60" y="60" width="1" height="5"/><rect x="61" y="65" width="1" height="5"/><rect x="63" y="60" width="1" height="5"/><rect x="64" y="65" width="1" height="5"/><rect x="66" y="65" width="1" height="5"/><rect x="67" y="60" width="1" height="5"/><rect x="69" y="60" width="1" height="5"/><rect x="70" y="65" width="1" height="5"/><rect x="72" y="60" width="1" height="5"/><rect x="73" y="65" width="1" height="5"/><rect x="75" y="65" width="1" height="5"/><rect x="76" y="60" width="1" height="5"/><rect x="78" y="60" width="1" height="5"/><rect x="79" y="65" width="1" height="5"/><rect x="81" y="60" width="1" height="5"/><rect x="82" y="65" width="1" height="5"/><rect x="84" y="65" width="1" height="5"/><rect x="85" y="60" width="1" height="5"/><rect x="87" y="60" width="1" height="5"/><rect x="88" y="65" width="1" height="5"/><rect x="90" y="60" width="1" height="5"/><rect x="91" y="65" width="1" height="5"/><rect x="93" y="65" width="1" height="5"/><rect x="94" y="60" width="1" height="5"/><rect x="96" y="60" width="1" height="5"/><rect x="97" y="65" width="1" height="5"/><rect x="99" y="60" width="1" height="5"/><rect y="70" width="1" height="5"/><rect x="1" y="75" width="1" height="5"/><rect x="3" y="75" width="1" height="5"/><rect x="4" y="70" width="1" height="5"/><rect x="6" y="70" width="1" height="5"/><rect x="7" y="75" width="1" height="5"/><rect x="9" y="70" width="1" height="5"/><rect x="10" y="75" width="1" height="5"/><rect x="12" y="75" width="1" height="5"/><rect x="13" y="70" width="1" height="5"/><rect x="15" y="70" width="1" height="5"/><rect x="16" y="75" width="1" height="5"/><rect x="18" y="70" width="1" height="5"/><rect x="19" y="75" width="1" height="5"/><rect x="21" y="75" width="1" height="5"/><rect x="22" y="70" width="1" height="5"/><rect x="24" y="70" width="1" height="5"/><rect x="25" y="75" width="1" height="5"/><rect x="27" y="70" width="1" height="5"/><rect x="28" y="75" width="1" height="5"/><rect x="30" y="75" width="1" height="5"/><rect x="31" y="70" width="1" height="5"/><rect x="33" y="70" width="1" height="5"/><rect x="34" y="75" width="1" height="5"/><rect x="36" y="70" width="1" height="5"/><rect x="37" y="75" width="1" height="5"/><rect x="39" y="75" width="1" height="5"/><rect x="40" y="70" width="1" height="5"/><rect x="42" y="70" width="1" height="5"/><rect x="43" y="75" width="1" height="5"/><rect x="45" y="70" width="1" height="5"/><rect x="46" y="75" width="1" height="5"/><rect x="48" y="75" width="1" height="5"/><rect x="49" y="70" width="1" height="5"/><rect x="51" y="70" width="1" height="5"/><rect x="52" y="75" width="1" height="5"/><rect x="54" y="70" width="1" height="5"/><rect x="55" y="75" width="1" height="5"/><rect x="57" y="75" width="1" height="5"/><rect x="58" y="70" width="1" height="5"/><rect x="60" y="70" width="1" height="5"/><rect x="61" y="75" width="1" height="5"/><rect x="63" y="70" width="1" height="5"/><rect x="64" y="75" width="1" height="5"/><rect x="66" y="75" width="1" height="5"/><rect x="67" y="70" width="1" height="5"/><rect x="69" y="70" width="1" height="5"/><rect x="70" y="75" width="1" height="5"/><rect x="72" y="70" width="1" height="5"/><rect x="73" y="75" width="1" height="5"/><rect x="75" y="75" width="1" height="5"/><rect x="76" y="70" width="1" height="5"/><rect x="78" y="70" width="1" height="5"/><rect x="79" y="75" width="1" height="5"/><rect x="81" y="70" width="1" height="5"/><rect x="82" y="75" width="1" height="5"/><rect x="84" y="75" width="1" height="5"/><rect x="85" y="70" width="1" height="5"/><rect x="87" y="70" width="1" height="5"/><rect x="88" y="75" width="1" height="5"/><rect x="90" y="70" width="1" height="5"/><rect x="91" y="75" width="1" height="5"/><rect x="93" y="75" width="1" height="5"/><rect x="94" y="70" width="1" height="5"/><rect x="96" y="70" width="1" height="5"/><rect x="97" y="75" width="1" height="5"/><rect x="99" y="70" width="1" height="5"/><rect y="80" width="1" height="5"/><rect x="1" y="85" width="1" height="5"/><rect x="3" y="85" width="1" height="5"/><rect x="4" y="80" width="1" height="5"/><rect x="6" y="80" width="1" height="5"/><rect x="7" y="85" width="1" height="5"/><rect x="9" y="80" width="1" height="5"/><rect x="10" y="85" width="1" height="5"/><rect x="12" y="85" width="1" height="5"/><rect x="13" y="80" width="1" height="5"/><rect x="15" y="80" width="1" height="5"/><rect x="16" y="85" width="1" height="5"/><rect x="18" y="80" width="1" height="5"/><rect x="19" y="85" width="1" height="5"/><rect x="21" y="85" width="1" height="5"/><rect x="22" y="80" width="1" height="5"/><rect x="24" y="80" width="1" height="5"/><rect x="25" y="85" width="1" height="5"/><rect x="27" y="80" width="1" height="5"/><rect x="28" y="85" width="1" height="5"/><rect x="30" y="85" width="1" height="5"/><rect x="31" y="80" width="1" height="5"/><rect x="33" y="80" width="1" height="5"/><rect x="34" y="85" width="1" height="5"/><rect x="36" y="80" width="1" height="5"/><rect x="37" y="85" width="1" height="5"/><rect x="39" y="85" width="1" height="5"/><rect x="40" y="80" width="1" height="5"/><rect x="42" y="80" width="1" height="5"/><rect x="43" y="85" width="1" height="5"/><rect x="45" y="80" width="1" height="5"/><rect x="46" y="85" width="1" height="5"/><rect x="48" y="85" width="1" height="5"/><rect x="49" y="80" width="1" height="5"/><rect x="51" y="80" width="1" height="5"/><rect x="52" y="85" width="1" height="5"/><rect x="54" y="80" width="1" height="5"/><rect x="55" y="85" width="1" height="5"/><rect x="57" y="85" width="1" height="5"/><rect x="58" y="80" width="1" height="5"/><rect x="60" y="80" width="1" height="5"/><rect x="61" y="85" width="1" height="5"/><rect x="63" y="80" width="1" height="5"/><rect x="64" y="85" width="1" height="5"/><rect x="66" y="85" width="1" height="5"/><rect x="67" y="80" width="1" height="5"/><rect x="69" y="80" width="1" height="5"/><rect x="70" y="85" width="1" height="5"/><rect x="72" y="80" width="1" height="5"/><rect x="73" y="85" width="1" height="5"/><rect x="75" y="85" width="1" height="5"/><rect x="76" y="80" width="1" height="5"/><rect x="78" y="80" width="1" height="5"/><rect x="79" y="85" width="1" height="5"/><rect x="81" y="80" width="1" height="5"/><rect x="82" y="85" width="1" height="5"/><rect x="84" y="85" width="1" height="5"/><rect x="85" y="80" width="1" height="5"/><rect x="87" y="80" width="1" height="5"/><rect x="88" y="85" width="1" height="5"/><rect x="90" y="80" width="1" height="5"/><rect x="91" y="85" width="1" height="5"/><rect x="93" y="85" width="1" height="5"/><rect x="94" y="80" width="1" height="5"/><rect x="96" y="80" width="1" height="5"/><rect x="97" y="85" width="1" height="5"/><rect x="99" y="80" width="1" height="5"/><rect y="90" width="1" height="5"/><rect x="1" y="95" width="1" height="5"/><rect x="3" y="95" width="1" height="5"/><rect x="4" y="90" width="1" height="5"/><rect x="6" y="90" width="1" height="5"/><rect x="7" y="95" width="1" height="5"/><rect x="9" y="90" width="1" height="5"/><rect x="10" y="95" width="1" height="5"/><rect x="12" y="95" width="1" height="5"/><rect x="13" y="90" width="1" height="5"/><rect x="15" y="90" width="1" height="5"/><rect x="16" y="95" width="1" height="5"/><rect x="18" y="90" width="1" height="5"/><rect x="19" y="95" width="1" height="5"/><rect x="21" y="95" width="1" height="5"/><rect x="22" y="90" width="1" height="5"/><rect x="24" y="90" width="1" height="5"/><rect x="25" y="95" width="1" height="5"/><rect x="27" y="90" width="1" height="5"/><rect x="28" y="95" width="1" height="5"/><rect x="30" y="95" width="1" height="5"/><rect x="31" y="90" width="1" height="5"/><rect x="33" y="90" width="1" height="5"/><rect x="34" y="95" width="1" height="5"/><rect x="36" y="90" width="1" height="5"/><rect x="37" y="95" width="1" height="5"/><rect x="39" y="95" width="1" height="5"/><rect x="40" y="90" width="1" height="5"/><rect x="42" y="90" width="1" height="5"/><rect x="43" y="95" width="1" height="5"/><rect x="45" y="90" width="1" height="5"/><rect x="46" y="95" width="1" height="5"/><rect x="48" y="95" width="1" height="5"/><rect x="49" y="90" width="1" height="5"/><rect x="51" y="90" width="1" height="5"/><rect x="52" y="95" width="1" height="5"/><rect x="54" y="90" width="1" height="5"/><rect x="55" y="95" width="1" height="5"/><rect x="57" y="95" width="1" height="5"/><rect x="58" y="90" width="1" height="5"/><rect x="60" y="90" width="1" height="5"/><rect x="61" y="95" width="1" height="5"/><rect x="63" y="90" width="1" height="5"/><rect x="64" y="95" width="1" height="5"/><rect x="66" y="95" width="1" height="5"/><rect x="67" y="90" width="1" height="5"/><rect x="69" y="90" width="1" height="5"/><rect x="70" y="95" width="1" height="5"/><rect x="72" y="90" width="1" height="5"/><rect x="73" y="95" width="1" height="5"/><rect x="75" y="95" width="1" height="5"/><rect x="76" y="90" width="1" height="5"/><rect x="78" y="90" width="1" height="5"/><rect x="79" y="95" width="1" height="5"/><rect x="81" y="90" width="1" height="5"/><rect x="82" y="95" width="1" height="5"/><rect x="84" y="95" width="1" height="5"/><rect x="85" y="90" width="1" height="5"/><rect x="87" y="90" width="1" height="5"/><rect x="88" y="95" width="1" height="5"/><rect x="90" y="90" width="1" height="5"/><rect x="91" y="95" width="1" height="5"/><rect x="93" y="95" width="1" height="5"/><rect x="94" y="90" width="1" height="5"/><rect x="96" y="90" width="1" height="5"/><rect x="97" y="95" width="1" height="5"/><rect x="99" y="90" width="1" height="5"/></svg>