<svg id="Layer_1" data-name="Layer 1" xmlns="http://www.w3.org/2000/svg" viewBox="0 0 100 100"><title>pattern</title><polygon points="2 8 1 8 1 10 1 12 2 12 2 10 2 8"/><polygon points="5 8 4 8 4 10 4 12 5 12 5 10 5 8"/><rect x="5" y="6" width="1" height="2"/><rect x="2" y="6" width="1" height="2"/><rect x="6" y="2" width="2" height="1"/><rect x="6" y="5" width="2" height="1"/><polygon points="12 5 12 4 10 4 8 4 8 5 10 5 12 5"/><rect x="12" y="5" width="2" height="1"/><polygon points="15 10 15 12 16 12 16 10 16 8 15 8 15 10"/><rect x="14" y="6" width="1" height="2"/><rect x="14" y="12" width="1" height="2"/><rect x="12" y="14" width="2" height="1"/><polygon points="8 15 8 16 10 16 12 16 12 15 10 15 8 15"/><rect x="6" y="14" width="2" height="1"/><rect x="5" y="12" width="1" height="2"/><rect x="4" y="3" width="2" height="1"/><rect x="3" y="4" width="1" height="2"/><polygon points="12 2 12 1 10 1 8 1 8 2 10 2 12 2"/><rect x="12" y="2" width="2" height="1"/><polygon points="18 10 18 12 19 12 19 10 19 8 18 8 18 10"/><rect x="17" y="6" width="1" height="2"/><rect x="16" y="4" width="1" height="2"/><rect x="14" y="3" width="2" height="1"/><rect x="17" y="12" width="1" height="2"/><rect x="12" y="17" width="2" height="1"/><rect x="14" y="16" width="2" height="1"/><rect x="16" y="14" width="1" height="2"/><polygon points="8 18 8 19 10 19 12 19 12 18 10 18 8 18"/><rect x="6" y="17" width="2" height="1"/><rect x="2" y="12" width="1" height="2"/><rect x="3" y="14" width="1" height="2"/><rect x="4" y="16" width="2" height="1"/><polygon points="22 8 21 8 21 10 21 12 22 12 22 10 22 8"/><polygon points="25 8 24 8 24 10 24 12 25 12 25 10 25 8"/><rect x="25" y="6" width="1" height="2"/><rect x="22" y="6" width="1" height="2"/><rect x="26" y="2" width="2" height="1"/><rect x="26" y="5" width="2" height="1"/><polygon points="32 5 32 4 30 4 28 4 28 5 30 5 32 5"/><rect x="32" y="5" width="2" height="1"/><polygon points="35 10 35 12 36 12 36 10 36 8 35 8 35 10"/><rect x="34" y="6" width="1" height="2"/><rect x="34" y="12" width="1" height="2"/><rect x="32" y="14" width="2" height="1"/><polygon points="28 15 28 16 30 16 32 16 32 15 30 15 28 15"/><rect x="26" y="14" width="2" height="1"/><rect x="25" y="12" width="1" height="2"/><rect x="24" y="3" width="2" height="1"/><rect x="23" y="4" width="1" height="2"/><polygon points="32 2 32 1 30 1 28 1 28 2 30 2 32 2"/><rect x="32" y="2" width="2" height="1"/><polygon points="38 10 38 12 39 12 39 10 39 8 38 8 38 10"/><rect x="37" y="6" width="1" height="2"/><rect x="36" y="4" width="1" height="2"/><rect x="34" y="3" width="2" height="1"/><rect x="37" y="12" width="1" height="2"/><rect x="32" y="17" width="2" height="1"/><rect x="34" y="16" width="2" height="1"/><rect x="36" y="14" width="1" height="2"/><polygon points="28 18 28 19 30 19 32 19 32 18 30 18 28 18"/><rect x="26" y="17" width="2" height="1"/><rect x="22" y="12" width="1" height="2"/><rect x="23" y="14" width="1" height="2"/><rect x="24" y="16" width="2" height="1"/><polygon points="42 8 41 8 41 10 41 12 42 12 42 10 42 8"/><polygon points="45 8 44 8 44 10 44 12 45 12 45 10 45 8"/><rect x="45" y="6" width="1" height="2"/><rect x="42" y="6" width="1" height="2"/><rect x="46" y="2" width="2" height="1"/><rect x="46" y="5" width="2" height="1"/><polygon points="52 5 52 4 50 4 48 4 48 5 50 5 52 5"/><rect x="52" y="5" width="2" height="1"/><polygon points="55 10 55 12 56 12 56 10 56 8 55 8 55 10"/><rect x="54" y="6" width="1" height="2"/><rect x="54" y="12" width="1" height="2"/><rect x="52" y="14" width="2" height="1"/><polygon points="48 15 48 16 50 16 52 16 52 15 50 15 48 15"/><rect x="46" y="14" width="2" height="1"/><rect x="45" y="12" width="1" height="2"/><rect x="44" y="3" width="2" height="1"/><rect x="43" y="4" width="1" height="2"/><polygon points="52 2 52 1 50 1 48 1 48 2 50 2 52 2"/><rect x="52" y="2" width="2" height="1"/><polygon points="58 10 58 12 59 12 59 10 59 8 58 8 58 10"/><rect x="57" y="6" width="1" height="2"/><rect x="56" y="4" width="1" height="2"/><rect x="54" y="3" width="2" height="1"/><rect x="57" y="12" width="1" height="2"/><rect x="52" y="17" width="2" height="1"/><rect x="54" y="16" width="2" height="1"/><rect x="56" y="14" width="1" height="2"/><polygon points="48 18 48 19 50 19 52 19 52 18 50 18 48 18"/><rect x="46" y="17" width="2" height="1"/><rect x="42" y="12" width="1" height="2"/><rect x="43" y="14" width="1" height="2"/><rect x="44" y="16" width="2" height="1"/><polygon points="62 8 61 8 61 10 61 12 62 12 62 10 62 8"/><polygon points="65 8 64 8 64 10 64 12 65 12 65 10 65 8"/><rect x="65" y="6" width="1" height="2"/><rect x="62" y="6" width="1" height="2"/><rect x="66" y="2" width="2" height="1"/><rect x="66" y="5" width="2" height="1"/><polygon points="72 5 72 4 70 4 68 4 68 5 70 5 72 5"/><rect x="72" y="5" width="2" height="1"/><polygon points="75 10 75 12 76 12 76 10 76 8 75 8 75 10"/><rect x="74" y="6" width="1" height="2"/><rect x="74" y="12" width="1" height="2"/><rect x="72" y="14" width="2" height="1"/><polygon points="68 15 68 16 70 16 72 16 72 15 70 15 68 15"/><rect x="66" y="14" width="2" height="1"/><rect x="65" y="12" width="1" height="2"/><rect x="64" y="3" width="2" height="1"/><rect x="63" y="4" width="1" height="2"/><polygon points="72 2 72 1 70 1 68 1 68 2 70 2 72 2"/><rect x="72" y="2" width="2" height="1"/><polygon points="78 10 78 12 79 12 79 10 79 8 78 8 78 10"/><rect x="77" y="6" width="1" height="2"/><rect x="76" y="4" width="1" height="2"/><rect x="74" y="3" width="2" height="1"/><rect x="77" y="12" width="1" height="2"/><rect x="72" y="17" width="2" height="1"/><rect x="74" y="16" width="2" height="1"/><rect x="76" y="14" width="1" height="2"/><polygon points="68 18 68 19 70 19 72 19 72 18 70 18 68 18"/><rect x="66" y="17" width="2" height="1"/><rect x="62" y="12" width="1" height="2"/><rect x="63" y="14" width="1" height="2"/><rect x="64" y="16" width="2" height="1"/><polygon points="82 8 81 8 81 10 81 12 82 12 82 10 82 8"/><polygon points="85 8 84 8 84 10 84 12 85 12 85 10 85 8"/><rect x="85" y="6" width="1" height="2"/><rect x="82" y="6" width="1" height="2"/><rect x="86" y="2" width="2" height="1"/><rect x="86" y="5" width="2" height="1"/><polygon points="92 5 92 4 90 4 88 4 88 5 90 5 92 5"/><rect x="92" y="5" width="2" height="1"/><polygon points="95 10 95 12 96 12 96 10 96 8 95 8 95 10"/><rect x="94" y="6" width="1" height="2"/><rect x="94" y="12" width="1" height="2"/><rect x="92" y="14" width="2" height="1"/><polygon points="88 15 88 16 90 16 92 16 92 15 90 15 88 15"/><rect x="86" y="14" width="2" height="1"/><rect x="85" y="12" width="1" height="2"/><rect x="84" y="3" width="2" height="1"/><rect x="83" y="4" width="1" height="2"/><polygon points="92 2 92 1 90 1 88 1 88 2 90 2 92 2"/><rect x="92" y="2" width="2" height="1"/><polygon points="98 8 98 10 98 12 99 12 99 10 99 8 98 8"/><rect x="97" y="6" width="1" height="2"/><rect x="96" y="4" width="1" height="2"/><rect x="94" y="3" width="2" height="1"/><rect x="97" y="12" width="1" height="2"/><rect x="92" y="17" width="2" height="1"/><rect x="94" y="16" width="2" height="1"/><rect x="96" y="14" width="1" height="2"/><polygon points="88 18 88 19 90 19 92 19 92 18 90 18 88 18"/><rect x="86" y="17" width="2" height="1"/><rect x="82" y="12" width="1" height="2"/><rect x="83" y="14" width="1" height="2"/><rect x="84" y="16" width="2" height="1"/><polygon points="2 28 1 28 1 30 1 32 2 32 2 30 2 28"/><polygon points="5 28 4 28 4 30 4 32 5 32 5 30 5 28"/><rect x="5" y="26" width="1" height="2"/><rect x="2" y="26" width="1" height="2"/><rect x="6" y="22" width="2" height="1"/><rect x="6" y="25" width="2" height="1"/><polygon points="12 25 12 24 10 24 8 24 8 25 10 25 12 25"/><rect x="12" y="25" width="2" height="1"/><polygon points="15 30 15 32 16 32 16 30 16 28 15 28 15 30"/><rect x="14" y="26" width="1" height="2"/><rect x="14" y="32" width="1" height="2"/><rect x="12" y="34" width="2" height="1"/><polygon points="8 35 8 36 10 36 12 36 12 35 10 35 8 35"/><rect x="6" y="34" width="2" height="1"/><rect x="5" y="32" width="1" height="2"/><rect x="4" y="23" width="2" height="1"/><rect x="3" y="24" width="1" height="2"/><polygon points="12 22 12 21 10 21 8 21 8 22 10 22 12 22"/><rect x="12" y="22" width="2" height="1"/><polygon points="18 30 18 32 19 32 19 30 19 28 18 28 18 30"/><rect x="17" y="26" width="1" height="2"/><rect x="16" y="24" width="1" height="2"/><rect x="14" y="23" width="2" height="1"/><rect x="17" y="32" width="1" height="2"/><rect x="12" y="37" width="2" height="1"/><rect x="14" y="36" width="2" height="1"/><rect x="16" y="34" width="1" height="2"/><polygon points="8 38 8 39 10 39 12 39 12 38 10 38 8 38"/><rect x="6" y="37" width="2" height="1"/><rect x="2" y="32" width="1" height="2"/><rect x="3" y="34" width="1" height="2"/><rect x="4" y="36" width="2" height="1"/><polygon points="22 28 21 28 21 30 21 32 22 32 22 30 22 28"/><polygon points="25 28 24 28 24 30 24 32 25 32 25 30 25 28"/><rect x="25" y="26" width="1" height="2"/><rect x="22" y="26" width="1" height="2"/><rect x="26" y="22" width="2" height="1"/><rect x="26" y="25" width="2" height="1"/><polygon points="32 25 32 24 30 24 28 24 28 25 30 25 32 25"/><rect x="32" y="25" width="2" height="1"/><polygon points="35 30 35 32 36 32 36 30 36 28 35 28 35 30"/><rect x="34" y="26" width="1" height="2"/><rect x="34" y="32" width="1" height="2"/><rect x="32" y="34" width="2" height="1"/><polygon points="28 35 28 36 30 36 32 36 32 35 30 35 28 35"/><rect x="26" y="34" width="2" height="1"/><rect x="25" y="32" width="1" height="2"/><rect x="24" y="23" width="2" height="1"/><rect x="23" y="24" width="1" height="2"/><polygon points="32 22 32 21 30 21 28 21 28 22 30 22 32 22"/><rect x="32" y="22" width="2" height="1"/><polygon points="38 30 38 32 39 32 39 30 39 28 38 28 38 30"/><rect x="37" y="26" width="1" height="2"/><rect x="36" y="24" width="1" height="2"/><rect x="34" y="23" width="2" height="1"/><rect x="37" y="32" width="1" height="2"/><rect x="32" y="37" width="2" height="1"/><rect x="34" y="36" width="2" height="1"/><rect x="36" y="34" width="1" height="2"/><polygon points="28 38 28 39 30 39 32 39 32 38 30 38 28 38"/><rect x="26" y="37" width="2" height="1"/><rect x="22" y="32" width="1" height="2"/><rect x="23" y="34" width="1" height="2"/><rect x="24" y="36" width="2" height="1"/><polygon points="42 28 41 28 41 30 41 32 42 32 42 30 42 28"/><polygon points="45 28 44 28 44 30 44 32 45 32 45 30 45 28"/><rect x="45" y="26" width="1" height="2"/><rect x="42" y="26" width="1" height="2"/><rect x="46" y="22" width="2" height="1"/><rect x="46" y="25" width="2" height="1"/><polygon points="52 25 52 24 50 24 48 24 48 25 50 25 52 25"/><rect x="52" y="25" width="2" height="1"/><polygon points="55 30 55 32 56 32 56 30 56 28 55 28 55 30"/><rect x="54" y="26" width="1" height="2"/><rect x="54" y="32" width="1" height="2"/><rect x="52" y="34" width="2" height="1"/><polygon points="48 35 48 36 50 36 52 36 52 35 50 35 48 35"/><rect x="46" y="34" width="2" height="1"/><rect x="45" y="32" width="1" height="2"/><rect x="44" y="23" width="2" height="1"/><rect x="43" y="24" width="1" height="2"/><polygon points="52 22 52 21 50 21 48 21 48 22 50 22 52 22"/><rect x="52" y="22" width="2" height="1"/><polygon points="58 30 58 32 59 32 59 30 59 28 58 28 58 30"/><rect x="57" y="26" width="1" height="2"/><rect x="56" y="24" width="1" height="2"/><rect x="54" y="23" width="2" height="1"/><rect x="57" y="32" width="1" height="2"/><rect x="52" y="37" width="2" height="1"/><rect x="54" y="36" width="2" height="1"/><rect x="56" y="34" width="1" height="2"/><polygon points="48 38 48 39 50 39 52 39 52 38 50 38 48 38"/><rect x="46" y="37" width="2" height="1"/><rect x="42" y="32" width="1" height="2"/><rect x="43" y="34" width="1" height="2"/><rect x="44" y="36" width="2" height="1"/><polygon points="62 28 61 28 61 30 61 32 62 32 62 30 62 28"/><polygon points="65 28 64 28 64 30 64 32 65 32 65 30 65 28"/><rect x="65" y="26" width="1" height="2"/><rect x="62" y="26" width="1" height="2"/><rect x="66" y="22" width="2" height="1"/><rect x="66" y="25" width="2" height="1"/><polygon points="72 25 72 24 70 24 68 24 68 25 70 25 72 25"/><rect x="72" y="25" width="2" height="1"/><polygon points="75 30 75 32 76 32 76 30 76 28 75 28 75 30"/><rect x="74" y="26" width="1" height="2"/><rect x="74" y="32" width="1" height="2"/><rect x="72" y="34" width="2" height="1"/><polygon points="68 35 68 36 70 36 72 36 72 35 70 35 68 35"/><rect x="66" y="34" width="2" height="1"/><rect x="65" y="32" width="1" height="2"/><rect x="64" y="23" width="2" height="1"/><rect x="63" y="24" width="1" height="2"/><polygon points="72 22 72 21 70 21 68 21 68 22 70 22 72 22"/><rect x="72" y="22" width="2" height="1"/><polygon points="78 30 78 32 79 32 79 30 79 28 78 28 78 30"/><rect x="77" y="26" width="1" height="2"/><rect x="76" y="24" width="1" height="2"/><rect x="74" y="23" width="2" height="1"/><rect x="77" y="32" width="1" height="2"/><rect x="72" y="37" width="2" height="1"/><rect x="74" y="36" width="2" height="1"/><rect x="76" y="34" width="1" height="2"/><polygon points="68 38 68 39 70 39 72 39 72 38 70 38 68 38"/><rect x="66" y="37" width="2" height="1"/><rect x="62" y="32" width="1" height="2"/><rect x="63" y="34" width="1" height="2"/><rect x="64" y="36" width="2" height="1"/><polygon points="82 28 81 28 81 30 81 32 82 32 82 30 82 28"/><polygon points="85 28 84 28 84 30 84 32 85 32 85 30 85 28"/><rect x="85" y="26" width="1" height="2"/><rect x="82" y="26" width="1" height="2"/><rect x="86" y="22" width="2" height="1"/><rect x="86" y="25" width="2" height="1"/><polygon points="92 25 92 24 90 24 88 24 88 25 90 25 92 25"/><rect x="92" y="25" width="2" height="1"/><polygon points="95 30 95 32 96 32 96 30 96 28 95 28 95 30"/><rect x="94" y="26" width="1" height="2"/><rect x="94" y="32" width="1" height="2"/><rect x="92" y="34" width="2" height="1"/><polygon points="88 35 88 36 90 36 92 36 92 35 90 35 88 35"/><rect x="86" y="34" width="2" height="1"/><rect x="85" y="32" width="1" height="2"/><rect x="84" y="23" width="2" height="1"/><rect x="83" y="24" width="1" height="2"/><polygon points="92 22 92 21 90 21 88 21 88 22 90 22 92 22"/><rect x="92" y="22" width="2" height="1"/><polygon points="98 30 98 32 99 32 99 30 99 28 98 28 98 30"/><rect x="97" y="26" width="1" height="2"/><rect x="96" y="24" width="1" height="2"/><rect x="94" y="23" width="2" height="1"/><rect x="97" y="32" width="1" height="2"/><rect x="92" y="37" width="2" height="1"/><rect x="94" y="36" width="2" height="1"/><rect x="96" y="34" width="1" height="2"/><polygon points="88 38 88 39 90 39 92 39 92 38 90 38 88 38"/><rect x="86" y="37" width="2" height="1"/><rect x="82" y="32" width="1" height="2"/><rect x="83" y="34" width="1" height="2"/><rect x="84" y="36" width="2" height="1"/><polygon points="2 48 1 48 1 50 1 52 2 52 2 50 2 48"/><polygon points="5 48 4 48 4 50 4 52 5 52 5 50 5 48"/><rect x="5" y="46" width="1" height="2"/><rect x="2" y="46" width="1" height="2"/><rect x="6" y="42" width="2" height="1"/><rect x="6" y="45" width="2" height="1"/><polygon points="12 45 12 44 10 44 8 44 8 45 10 45 12 45"/><rect x="12" y="45" width="2" height="1"/><polygon points="15 50 15 52 16 52 16 50 16 48 15 48 15 50"/><rect x="14" y="46" width="1" height="2"/><rect x="14" y="52" width="1" height="2"/><rect x="12" y="54" width="2" height="1"/><polygon points="8 55 8 56 10 56 12 56 12 55 10 55 8 55"/><rect x="6" y="54" width="2" height="1"/><rect x="5" y="52" width="1" height="2"/><rect x="4" y="43" width="2" height="1"/><rect x="3" y="44" width="1" height="2"/><polygon points="12 42 12 41 10 41 8 41 8 42 10 42 12 42"/><rect x="12" y="42" width="2" height="1"/><polygon points="18 50 18 52 19 52 19 50 19 48 18 48 18 50"/><rect x="17" y="46" width="1" height="2"/><rect x="16" y="44" width="1" height="2"/><rect x="14" y="43" width="2" height="1"/><rect x="17" y="52" width="1" height="2"/><rect x="12" y="57" width="2" height="1"/><rect x="14" y="56" width="2" height="1"/><rect x="16" y="54" width="1" height="2"/><polygon points="8 58 8 59 10 59 12 59 12 58 10 58 8 58"/><rect x="6" y="57" width="2" height="1"/><rect x="2" y="52" width="1" height="2"/><rect x="3" y="54" width="1" height="2"/><rect x="4" y="56" width="2" height="1"/><polygon points="22 48 21 48 21 50 21 52 22 52 22 50 22 48"/><polygon points="25 48 24 48 24 50 24 52 25 52 25 50 25 48"/><rect x="25" y="46" width="1" height="2"/><rect x="22" y="46" width="1" height="2"/><rect x="26" y="42" width="2" height="1"/><rect x="26" y="45" width="2" height="1"/><polygon points="32 45 32 44 30 44 28 44 28 45 30 45 32 45"/><rect x="32" y="45" width="2" height="1"/><polygon points="35 50 35 52 36 52 36 50 36 48 35 48 35 50"/><rect x="34" y="46" width="1" height="2"/><rect x="34" y="52" width="1" height="2"/><rect x="32" y="54" width="2" height="1"/><polygon points="28 55 28 56 30 56 32 56 32 55 30 55 28 55"/><rect x="26" y="54" width="2" height="1"/><rect x="25" y="52" width="1" height="2"/><rect x="24" y="43" width="2" height="1"/><rect x="23" y="44" width="1" height="2"/><polygon points="32 42 32 41 30 41 28 41 28 42 30 42 32 42"/><rect x="32" y="42" width="2" height="1"/><polygon points="38 50 38 52 39 52 39 50 39 48 38 48 38 50"/><rect x="37" y="46" width="1" height="2"/><rect x="36" y="44" width="1" height="2"/><rect x="34" y="43" width="2" height="1"/><rect x="37" y="52" width="1" height="2"/><rect x="32" y="57" width="2" height="1"/><rect x="34" y="56" width="2" height="1"/><rect x="36" y="54" width="1" height="2"/><polygon points="28 58 28 59 30 59 32 59 32 58 30 58 28 58"/><rect x="26" y="57" width="2" height="1"/><rect x="22" y="52" width="1" height="2"/><rect x="23" y="54" width="1" height="2"/><rect x="24" y="56" width="2" height="1"/><polygon points="42 48 41 48 41 50 41 52 42 52 42 50 42 48"/><polygon points="45 48 44 48 44 50 44 52 45 52 45 50 45 48"/><rect x="45" y="46" width="1" height="2"/><rect x="42" y="46" width="1" height="2"/><rect x="46" y="42" width="2" height="1"/><rect x="46" y="45" width="2" height="1"/><polygon points="52 45 52 44 50 44 48 44 48 45 50 45 52 45"/><rect x="52" y="45" width="2" height="1"/><polygon points="55 50 55 52 56 52 56 50 56 48 55 48 55 50"/><rect x="54" y="46" width="1" height="2"/><rect x="54" y="52" width="1" height="2"/><rect x="52" y="54" width="2" height="1"/><polygon points="48 55 48 56 50 56 52 56 52 55 50 55 48 55"/><rect x="46" y="54" width="2" height="1"/><rect x="45" y="52" width="1" height="2"/><rect x="44" y="43" width="2" height="1"/><rect x="43" y="44" width="1" height="2"/><polygon points="52 42 52 41 50 41 48 41 48 42 50 42 52 42"/><rect x="52" y="42" width="2" height="1"/><polygon points="58 50 58 52 59 52 59 50 59 48 58 48 58 50"/><rect x="57" y="46" width="1" height="2"/><rect x="56" y="44" width="1" height="2"/><rect x="54" y="43" width="2" height="1"/><rect x="57" y="52" width="1" height="2"/><rect x="52" y="57" width="2" height="1"/><rect x="54" y="56" width="2" height="1"/><rect x="56" y="54" width="1" height="2"/><polygon points="48 58 48 59 50 59 52 59 52 58 50 58 48 58"/><rect x="46" y="57" width="2" height="1"/><rect x="42" y="52" width="1" height="2"/><rect x="43" y="54" width="1" height="2"/><rect x="44" y="56" width="2" height="1"/><polygon points="62 48 61 48 61 50 61 52 62 52 62 50 62 48"/><polygon points="65 48 64 48 64 50 64 52 65 52 65 50 65 48"/><rect x="65" y="46" width="1" height="2"/><rect x="62" y="46" width="1" height="2"/><rect x="66" y="42" width="2" height="1"/><rect x="66" y="45" width="2" height="1"/><polygon points="72 45 72 44 70 44 68 44 68 45 70 45 72 45"/><rect x="72" y="45" width="2" height="1"/><polygon points="75 50 75 52 76 52 76 50 76 48 75 48 75 50"/><rect x="74" y="46" width="1" height="2"/><rect x="74" y="52" width="1" height="2"/><rect x="72" y="54" width="2" height="1"/><polygon points="68 55 68 56 70 56 72 56 72 55 70 55 68 55"/><rect x="66" y="54" width="2" height="1"/><rect x="65" y="52" width="1" height="2"/><rect x="64" y="43" width="2" height="1"/><rect x="63" y="44" width="1" height="2"/><polygon points="72 42 72 41 70 41 68 41 68 42 70 42 72 42"/><rect x="72" y="42" width="2" height="1"/><polygon points="78 50 78 52 79 52 79 50 79 48 78 48 78 50"/><rect x="77" y="46" width="1" height="2"/><rect x="76" y="44" width="1" height="2"/><rect x="74" y="43" width="2" height="1"/><rect x="77" y="52" width="1" height="2"/><rect x="72" y="57" width="2" height="1"/><rect x="74" y="56" width="2" height="1"/><rect x="76" y="54" width="1" height="2"/><polygon points="68 58 68 59 70 59 72 59 72 58 70 58 68 58"/><rect x="66" y="57" width="2" height="1"/><rect x="62" y="52" width="1" height="2"/><rect x="63" y="54" width="1" height="2"/><rect x="64" y="56" width="2" height="1"/><polygon points="82 48 81 48 81 50 81 52 82 52 82 50 82 48"/><polygon points="85 48 84 48 84 50 84 52 85 52 85 50 85 48"/><rect x="85" y="46" width="1" height="2"/><rect x="82" y="46" width="1" height="2"/><rect x="86" y="42" width="2" height="1"/><rect x="86" y="45" width="2" height="1"/><polygon points="92 45 92 44 90 44 88 44 88 45 90 45 92 45"/><rect x="92" y="45" width="2" height="1"/><polygon points="95 50 95 52 96 52 96 50 96 48 95 48 95 50"/><rect x="94" y="46" width="1" height="2"/><rect x="94" y="52" width="1" height="2"/><rect x="92" y="54" width="2" height="1"/><polygon points="88 55 88 56 90 56 92 56 92 55 90 55 88 55"/><rect x="86" y="54" width="2" height="1"/><rect x="85" y="52" width="1" height="2"/><rect x="84" y="43" width="2" height="1"/><rect x="83" y="44" width="1" height="2"/><polygon points="92 42 92 41 90 41 88 41 88 42 90 42 92 42"/><rect x="92" y="42" width="2" height="1"/><polygon points="98 50 98 52 99 52 99 50 99 48 98 48 98 50"/><rect x="97" y="46" width="1" height="2"/><rect x="96" y="44" width="1" height="2"/><rect x="94" y="43" width="2" height="1"/><rect x="97" y="52" width="1" height="2"/><rect x="92" y="57" width="2" height="1"/><rect x="94" y="56" width="2" height="1"/><rect x="96" y="54" width="1" height="2"/><polygon points="88 58 88 59 90 59 92 59 92 58 90 58 88 58"/><rect x="86" y="57" width="2" height="1"/><rect x="82" y="52" width="1" height="2"/><rect x="83" y="54" width="1" height="2"/><rect x="84" y="56" width="2" height="1"/><polygon points="2 68 1 68 1 70 1 72 2 72 2 70 2 68"/><polygon points="5 68 4 68 4 70 4 72 5 72 5 70 5 68"/><rect x="5" y="66" width="1" height="2"/><rect x="2" y="66" width="1" height="2"/><rect x="6" y="62" width="2" height="1"/><rect x="6" y="65" width="2" height="1"/><polygon points="12 65 12 64 10 64 8 64 8 65 10 65 12 65"/><rect x="12" y="65" width="2" height="1"/><polygon points="15 70 15 72 16 72 16 70 16 68 15 68 15 70"/><rect x="14" y="66" width="1" height="2"/><rect x="14" y="72" width="1" height="2"/><rect x="12" y="74" width="2" height="1"/><polygon points="8 75 8 76 10 76 12 76 12 75 10 75 8 75"/><rect x="6" y="74" width="2" height="1"/><rect x="5" y="72" width="1" height="2"/><rect x="4" y="63" width="2" height="1"/><rect x="3" y="64" width="1" height="2"/><polygon points="12 62 12 61 10 61 8 61 8 62 10 62 12 62"/><rect x="12" y="62" width="2" height="1"/><polygon points="18 70 18 72 19 72 19 70 19 68 18 68 18 70"/><rect x="17" y="66" width="1" height="2"/><rect x="16" y="64" width="1" height="2"/><rect x="14" y="63" width="2" height="1"/><rect x="17" y="72" width="1" height="2"/><rect x="12" y="77" width="2" height="1"/><rect x="14" y="76" width="2" height="1"/><rect x="16" y="74" width="1" height="2"/><polygon points="8 78 8 79 10 79 12 79 12 78 10 78 8 78"/><rect x="6" y="77" width="2" height="1"/><rect x="2" y="72" width="1" height="2"/><rect x="3" y="74" width="1" height="2"/><rect x="4" y="76" width="2" height="1"/><polygon points="22 68 21 68 21 70 21 72 22 72 22 70 22 68"/><polygon points="25 68 24 68 24 70 24 72 25 72 25 70 25 68"/><rect x="25" y="66" width="1" height="2"/><rect x="22" y="66" width="1" height="2"/><rect x="26" y="62" width="2" height="1"/><rect x="26" y="65" width="2" height="1"/><polygon points="32 65 32 64 30 64 28 64 28 65 30 65 32 65"/><rect x="32" y="65" width="2" height="1"/><polygon points="35 70 35 72 36 72 36 70 36 68 35 68 35 70"/><rect x="34" y="66" width="1" height="2"/><rect x="34" y="72" width="1" height="2"/><rect x="32" y="74" width="2" height="1"/><polygon points="28 75 28 76 30 76 32 76 32 75 30 75 28 75"/><rect x="26" y="74" width="2" height="1"/><rect x="25" y="72" width="1" height="2"/><rect x="24" y="63" width="2" height="1"/><rect x="23" y="64" width="1" height="2"/><polygon points="32 62 32 61 30 61 28 61 28 62 30 62 32 62"/><rect x="32" y="62" width="2" height="1"/><polygon points="38 70 38 72 39 72 39 70 39 68 38 68 38 70"/><rect x="37" y="66" width="1" height="2"/><rect x="36" y="64" width="1" height="2"/><rect x="34" y="63" width="2" height="1"/><rect x="37" y="72" width="1" height="2"/><rect x="32" y="77" width="2" height="1"/><rect x="34" y="76" width="2" height="1"/><rect x="36" y="74" width="1" height="2"/><polygon points="28 78 28 79 30 79 32 79 32 78 30 78 28 78"/><rect x="26" y="77" width="2" height="1"/><rect x="22" y="72" width="1" height="2"/><rect x="23" y="74" width="1" height="2"/><rect x="24" y="76" width="2" height="1"/><polygon points="42 68 41 68 41 70 41 72 42 72 42 70 42 68"/><polygon points="45 68 44 68 44 70 44 72 45 72 45 70 45 68"/><rect x="45" y="66" width="1" height="2"/><rect x="42" y="66" width="1" height="2"/><rect x="46" y="62" width="2" height="1"/><rect x="46" y="65" width="2" height="1"/><polygon points="52 65 52 64 50 64 48 64 48 65 50 65 52 65"/><rect x="52" y="65" width="2" height="1"/><polygon points="55 70 55 72 56 72 56 70 56 68 55 68 55 70"/><rect x="54" y="66" width="1" height="2"/><rect x="54" y="72" width="1" height="2"/><rect x="52" y="74" width="2" height="1"/><polygon points="48 75 48 76 50 76 52 76 52 75 50 75 48 75"/><rect x="46" y="74" width="2" height="1"/><rect x="45" y="72" width="1" height="2"/><rect x="44" y="63" width="2" height="1"/><rect x="43" y="64" width="1" height="2"/><polygon points="52 62 52 61 50 61 48 61 48 62 50 62 52 62"/><rect x="52" y="62" width="2" height="1"/><polygon points="58 70 58 72 59 72 59 70 59 68 58 68 58 70"/><rect x="57" y="66" width="1" height="2"/><rect x="56" y="64" width="1" height="2"/><rect x="54" y="63" width="2" height="1"/><rect x="57" y="72" width="1" height="2"/><rect x="52" y="77" width="2" height="1"/><rect x="54" y="76" width="2" height="1"/><rect x="56" y="74" width="1" height="2"/><polygon points="48 78 48 79 50 79 52 79 52 78 50 78 48 78"/><rect x="46" y="77" width="2" height="1"/><rect x="42" y="72" width="1" height="2"/><rect x="43" y="74" width="1" height="2"/><rect x="44" y="76" width="2" height="1"/><polygon points="62 68 61 68 61 70 61 72 62 72 62 70 62 68"/><polygon points="65 68 64 68 64 70 64 72 65 72 65 70 65 68"/><rect x="65" y="66" width="1" height="2"/><rect x="62" y="66" width="1" height="2"/><rect x="66" y="62" width="2" height="1"/><rect x="66" y="65" width="2" height="1"/><polygon points="72 65 72 64 70 64 68 64 68 65 70 65 72 65"/><rect x="72" y="65" width="2" height="1"/><polygon points="75 70 75 72 76 72 76 70 76 68 75 68 75 70"/><rect x="74" y="66" width="1" height="2"/><rect x="74" y="72" width="1" height="2"/><rect x="72" y="74" width="2" height="1"/><polygon points="68 75 68 76 70 76 72 76 72 75 70 75 68 75"/><rect x="66" y="74" width="2" height="1"/><rect x="65" y="72" width="1" height="2"/><rect x="64" y="63" width="2" height="1"/><rect x="63" y="64" width="1" height="2"/><polygon points="72 62 72 61 70 61 68 61 68 62 70 62 72 62"/><rect x="72" y="62" width="2" height="1"/><polygon points="78 70 78 72 79 72 79 70 79 68 78 68 78 70"/><rect x="77" y="66" width="1" height="2"/><rect x="76" y="64" width="1" height="2"/><rect x="74" y="63" width="2" height="1"/><rect x="77" y="72" width="1" height="2"/><rect x="72" y="77" width="2" height="1"/><rect x="74" y="76" width="2" height="1"/><rect x="76" y="74" width="1" height="2"/><polygon points="68 78 68 79 70 79 72 79 72 78 70 78 68 78"/><rect x="66" y="77" width="2" height="1"/><rect x="62" y="72" width="1" height="2"/><rect x="63" y="74" width="1" height="2"/><rect x="64" y="76" width="2" height="1"/><polygon points="82 68 81 68 81 70 81 72 82 72 82 70 82 68"/><polygon points="85 68 84 68 84 70 84 72 85 72 85 70 85 68"/><rect x="85" y="66" width="1" height="2"/><rect x="82" y="66" width="1" height="2"/><rect x="86" y="62" width="2" height="1"/><rect x="86" y="65" width="2" height="1"/><polygon points="92 65 92 64 90 64 88 64 88 65 90 65 92 65"/><rect x="92" y="65" width="2" height="1"/><polygon points="95 70 95 72 96 72 96 70 96 68 95 68 95 70"/><rect x="94" y="66" width="1" height="2"/><rect x="94" y="72" width="1" height="2"/><rect x="92" y="74" width="2" height="1"/><polygon points="88 75 88 76 90 76 92 76 92 75 90 75 88 75"/><rect x="86" y="74" width="2" height="1"/><rect x="85" y="72" width="1" height="2"/><rect x="84" y="63" width="2" height="1"/><rect x="83" y="64" width="1" height="2"/><polygon points="92 62 92 61 90 61 88 61 88 62 90 62 92 62"/><rect x="92" y="62" width="2" height="1"/><polygon points="98 70 98 72 99 72 99 70 99 68 98 68 98 70"/><rect x="97" y="66" width="1" height="2"/><rect x="96" y="64" width="1" height="2"/><rect x="94" y="63" width="2" height="1"/><rect x="97" y="72" width="1" height="2"/><rect x="92" y="77" width="2" height="1"/><rect x="94" y="76" width="2" height="1"/><rect x="96" y="74" width="1" height="2"/><polygon points="88 78 88 79 90 79 92 79 92 78 90 78 88 78"/><rect x="86" y="77" width="2" height="1"/><rect x="82" y="72" width="1" height="2"/><rect x="83" y="74" width="1" height="2"/><rect x="84" y="76" width="2" height="1"/><polygon points="2 88 1 88 1 90 1 92 2 92 2 90 2 88"/><polygon points="5 88 4 88 4 90 4 92 5 92 5 90 5 88"/><rect x="5" y="86" width="1" height="2"/><rect x="2" y="86" width="1" height="2"/><rect x="6" y="82" width="2" height="1"/><rect x="6" y="85" width="2" height="1"/><polygon points="12 85 12 84 10 84 8 84 8 85 10 85 12 85"/><rect x="12" y="85" width="2" height="1"/><polygon points="15 90 15 92 16 92 16 90 16 88 15 88 15 90"/><rect x="14" y="86" width="1" height="2"/><rect x="14" y="92" width="1" height="2"/><rect x="12" y="94" width="2" height="1"/><polygon points="8 95 8 96 10 96 12 96 12 95 10 95 8 95"/><rect x="6" y="94" width="2" height="1"/><rect x="5" y="92" width="1" height="2"/><rect x="4" y="83" width="2" height="1"/><rect x="3" y="84" width="1" height="2"/><polygon points="12 82 12 81 10 81 8 81 8 82 10 82 12 82"/><rect x="12" y="82" width="2" height="1"/><polygon points="18 90 18 92 19 92 19 90 19 88 18 88 18 90"/><rect x="17" y="86" width="1" height="2"/><rect x="16" y="84" width="1" height="2"/><rect x="14" y="83" width="2" height="1"/><rect x="17" y="92" width="1" height="2"/><rect x="12" y="97" width="2" height="1"/><rect x="14" y="96" width="2" height="1"/><rect x="16" y="94" width="1" height="2"/><polygon points="8 98 8 99 10 99 12 99 12 98 10 98 8 98"/><rect x="6" y="97" width="2" height="1"/><rect x="2" y="92" width="1" height="2"/><rect x="3" y="94" width="1" height="2"/><rect x="4" y="96" width="2" height="1"/><polygon points="22 88 21 88 21 90 21 92 22 92 22 90 22 88"/><polygon points="25 88 24 88 24 90 24 92 25 92 25 90 25 88"/><rect x="25" y="86" width="1" height="2"/><rect x="22" y="86" width="1" height="2"/><rect x="26" y="82" width="2" height="1"/><rect x="26" y="85" width="2" height="1"/><polygon points="32 85 32 84 30 84 28 84 28 85 30 85 32 85"/><rect x="32" y="85" width="2" height="1"/><polygon points="35 90 35 92 36 92 36 90 36 88 35 88 35 90"/><rect x="34" y="86" width="1" height="2"/><rect x="34" y="92" width="1" height="2"/><rect x="32" y="94" width="2" height="1"/><polygon points="28 95 28 96 30 96 32 96 32 95 30 95 28 95"/><rect x="26" y="94" width="2" height="1"/><rect x="25" y="92" width="1" height="2"/><rect x="24" y="83" width="2" height="1"/><rect x="23" y="84" width="1" height="2"/><polygon points="32 82 32 81 30 81 28 81 28 82 30 82 32 82"/><rect x="32" y="82" width="2" height="1"/><polygon points="38 90 38 92 39 92 39 90 39 88 38 88 38 90"/><rect x="37" y="86" width="1" height="2"/><rect x="36" y="84" width="1" height="2"/><rect x="34" y="83" width="2" height="1"/><rect x="37" y="92" width="1" height="2"/><rect x="32" y="97" width="2" height="1"/><rect x="34" y="96" width="2" height="1"/><rect x="36" y="94" width="1" height="2"/><polygon points="28 98 28 99 30 99 32 99 32 98 30 98 28 98"/><rect x="26" y="97" width="2" height="1"/><rect x="22" y="92" width="1" height="2"/><rect x="23" y="94" width="1" height="2"/><rect x="24" y="96" width="2" height="1"/><polygon points="42 88 41 88 41 90 41 92 42 92 42 90 42 88"/><polygon points="45 88 44 88 44 90 44 92 45 92 45 90 45 88"/><rect x="45" y="86" width="1" height="2"/><rect x="42" y="86" width="1" height="2"/><rect x="46" y="82" width="2" height="1"/><rect x="46" y="85" width="2" height="1"/><polygon points="52 85 52 84 50 84 48 84 48 85 50 85 52 85"/><rect x="52" y="85" width="2" height="1"/><polygon points="55 90 55 92 56 92 56 90 56 88 55 88 55 90"/><rect x="54" y="86" width="1" height="2"/><rect x="54" y="92" width="1" height="2"/><rect x="52" y="94" width="2" height="1"/><polygon points="48 95 48 96 50 96 52 96 52 95 50 95 48 95"/><rect x="46" y="94" width="2" height="1"/><rect x="45" y="92" width="1" height="2"/><rect x="44" y="83" width="2" height="1"/><rect x="43" y="84" width="1" height="2"/><polygon points="52 82 52 81 50 81 48 81 48 82 50 82 52 82"/><rect x="52" y="82" width="2" height="1"/><polygon points="58 90 58 92 59 92 59 90 59 88 58 88 58 90"/><rect x="57" y="86" width="1" height="2"/><rect x="56" y="84" width="1" height="2"/><rect x="54" y="83" width="2" height="1"/><rect x="57" y="92" width="1" height="2"/><rect x="52" y="97" width="2" height="1"/><rect x="54" y="96" width="2" height="1"/><rect x="56" y="94" width="1" height="2"/><polygon points="48 98 48 99 50 99 52 99 52 98 50 98 48 98"/><rect x="46" y="97" width="2" height="1"/><rect x="42" y="92" width="1" height="2"/><rect x="43" y="94" width="1" height="2"/><rect x="44" y="96" width="2" height="1"/><polygon points="62 88 61 88 61 90 61 92 62 92 62 90 62 88"/><polygon points="65 88 64 88 64 90 64 92 65 92 65 90 65 88"/><rect x="65" y="86" width="1" height="2"/><rect x="62" y="86" width="1" height="2"/><rect x="66" y="82" width="2" height="1"/><rect x="66" y="85" width="2" height="1"/><polygon points="72 85 72 84 70 84 68 84 68 85 70 85 72 85"/><rect x="72" y="85" width="2" height="1"/><polygon points="75 90 75 92 76 92 76 90 76 88 75 88 75 90"/><rect x="74" y="86" width="1" height="2"/><rect x="74" y="92" width="1" height="2"/><rect x="72" y="94" width="2" height="1"/><polygon points="68 95 68 96 70 96 72 96 72 95 70 95 68 95"/><rect x="66" y="94" width="2" height="1"/><rect x="65" y="92" width="1" height="2"/><rect x="64" y="83" width="2" height="1"/><rect x="63" y="84" width="1" height="2"/><polygon points="72 82 72 81 70 81 68 81 68 82 70 82 72 82"/><rect x="72" y="82" width="2" height="1"/><polygon points="78 90 78 92 79 92 79 90 79 88 78 88 78 90"/><rect x="77" y="86" width="1" height="2"/><rect x="76" y="84" width="1" height="2"/><rect x="74" y="83" width="2" height="1"/><rect x="77" y="92" width="1" height="2"/><rect x="72" y="97" width="2" height="1"/><rect x="74" y="96" width="2" height="1"/><rect x="76" y="94" width="1" height="2"/><polygon points="68 98 68 99 70 99 72 99 72 98 70 98 68 98"/><rect x="66" y="97" width="2" height="1"/><rect x="62" y="92" width="1" height="2"/><rect x="63" y="94" width="1" height="2"/><rect x="64" y="96" width="2" height="1"/><polygon points="82 88 81 88 81 90 81 92 82 92 82 90 82 88"/><polygon points="85 88 84 88 84 90 84 92 85 92 85 90 85 88"/><rect x="85" y="86" width="1" height="2"/><rect x="82" y="86" width="1" height="2"/><rect x="86" y="82" width="2" height="1"/><rect x="86" y="85" width="2" height="1"/><polygon points="92 85 92 84 90 84 88 84 88 85 90 85 92 85"/><rect x="92" y="85" width="2" height="1"/><polygon points="95 90 95 92 96 92 96 90 96 88 95 88 95 90"/><rect x="94" y="86" width="1" height="2"/><rect x="94" y="92" width="1" height="2"/><rect x="92" y="94" width="2" height="1"/><polygon points="88 95 88 96 90 96 92 96 92 95 90 95 88 95"/><rect x="86" y="94" width="2" height="1"/><rect x="85" y="92" width="1" height="2"/><rect x="84" y="83" width="2" height="1"/><rect x="83" y="84" width="1" height="2"/><polygon points="92 82 92 81 90 81 88 81 88 82 90 82 92 82"/><rect x="92" y="82" width="2" height="1"/><polygon points="98 90 98 92 99 92 99 90 99 88 98 88 98 90"/><rect x="97" y="86" width="1" height="2"/><rect x="96" y="84" width="1" height="2"/><rect x="94" y="83" width="2" height="1"/><rect x="97" y="92" width="1" height="2"/><rect x="92" y="97" width="2" height="1"/><rect x="94" y="96" width="2" height="1"/><rect x="96" y="94" width="1" height="2"/><polygon points="88 98 88 99 90 99 92 99 92 98 90 98 88 98"/><rect x="86" y="97" width="2" height="1"/><rect x="82" y="92" width="1" height="2"/><rect x="83" y="94" width="1" height="2"/><rect x="84" y="96" width="2" height="1"/><rect x="8" y="8" width="4" height="4"/><rect x="28" y="8" width="4" height="4"/><rect x="48" y="8" width="4" height="4"/><rect x="68" y="8" width="4" height="4"/><rect x="88" y="8" width="4" height="4"/><rect x="8" y="28" width="4" height="4"/><rect x="28" y="28" width="4" height="4"/><rect x="48" y="28" width="4" height="4"/><rect x="68" y="28" width="4" height="4"/><rect x="88" y="28" width="4" height="4"/><rect x="8" y="48" width="4" height="4"/><rect x="28" y="48" width="4" height="4"/><rect x="48" y="48" width="4" height="4"/><rect x="68" y="48" width="4" height="4"/><rect x="88" y="48" width="4" height="4"/><rect x="8" y="68" width="4" height="4"/><rect x="28" y="68" width="4" height="4"/><rect x="48" y="68" width="4" height="4"/><rect x="68" y="68" width="4" height="4"/><rect x="88" y="68" width="4" height="4"/><rect x="8" y="88" width="4" height="4"/><rect x="28" y="88" width="4" height="4"/><rect x="48" y="88" width="4" height="4"/><rect x="68" y="88" width="4" height="4"/><rect x="88" y="88" width="4" height="4"/></svg>