<svg id="Layer_1" data-name="Layer 1" xmlns="http://www.w3.org/2000/svg" viewBox="0 0 100 100"><title>pattern</title><path d="M14,9H12V8h1V7h1V6h1V4H14V3H13V2H12V1h2V0H6V1H8V2H7V3H6V4H5V6H6V7H7V8H8V9H6v1h8ZM12,4H11V3h1Z"/><rect x="2" y="2" width="2" height="1"/><rect x="4" y="1" width="2" height="1"/><rect x="2" y="7" width="2" height="1"/><rect x="4" y="8" width="2" height="1"/><rect x="1" y="3" width="1" height="1"/><rect x="1" y="6" width="1" height="1"/><rect y="4" width="1" height="2"/><rect x="16" y="7" width="2" height="1"/><rect x="14" y="8" width="2" height="1"/><rect x="16" y="2" width="2" height="1"/><rect x="14" y="1" width="2" height="1"/><rect x="18" y="6" width="1" height="1"/><rect x="18" y="3" width="1" height="1"/><rect x="19" y="4" width="2" height="2"/><rect x="2" y="11" width="2" height="1"/><rect x="4" y="10" width="2" height="1"/><rect x="2" y="16" width="2" height="1"/><rect x="4" y="17" width="2" height="1"/><rect x="1" y="12" width="1" height="1"/><rect x="1" y="15" width="1" height="1"/><rect y="13" width="1" height="2"/><rect x="16" y="16" width="2" height="1"/><rect x="14" y="17" width="2" height="1"/><rect x="16" y="11" width="2" height="1"/><rect x="14" y="10" width="2" height="1"/><rect x="18" y="15" width="1" height="1"/><rect x="18" y="12" width="1" height="1"/><path d="M14,27H12V26h1V25h1V24h1V22H14V21H13V20H12V19h2V18H6v1H8v1H7v1H6v1H5v2H6v1H7v1H8v1H6v1h8Zm-2-5H11V21h1Z"/><rect x="2" y="20" width="2" height="1"/><rect x="4" y="19" width="2" height="1"/><rect x="2" y="25" width="2" height="1"/><rect x="4" y="26" width="2" height="1"/><rect x="1" y="21" width="1" height="1"/><rect x="1" y="24" width="1" height="1"/><rect y="22" width="1" height="2"/><rect x="16" y="25" width="2" height="1"/><rect x="14" y="26" width="2" height="1"/><rect x="16" y="20" width="2" height="1"/><rect x="14" y="19" width="2" height="1"/><rect x="18" y="24" width="1" height="1"/><rect x="18" y="21" width="1" height="1"/><rect x="2" y="29" width="2" height="1"/><rect x="4" y="28" width="2" height="1"/><rect x="2" y="34" width="2" height="1"/><rect x="4" y="35" width="2" height="1"/><rect x="1" y="30" width="1" height="1"/><rect x="1" y="33" width="1" height="1"/><rect y="31" width="1" height="2"/><rect x="16" y="34" width="2" height="1"/><rect x="14" y="35" width="2" height="1"/><rect x="16" y="29" width="2" height="1"/><rect x="14" y="28" width="2" height="1"/><rect x="18" y="33" width="1" height="1"/><rect x="18" y="30" width="1" height="1"/><path d="M14,45H12V44h1V43h1V42h1V40H14V39H13V38H12V37h2V36H6v1H8v1H7v1H6v1H5v2H6v1H7v1H8v1H6v1h8Zm-2-5H11V39h1Z"/><rect x="2" y="38" width="2" height="1"/><rect x="4" y="37" width="2" height="1"/><rect x="2" y="43" width="2" height="1"/><rect x="4" y="44" width="2" height="1"/><rect x="1" y="39" width="1" height="1"/><rect x="1" y="42" width="1" height="1"/><rect y="40" width="1" height="2"/><rect x="16" y="43" width="2" height="1"/><rect x="14" y="44" width="2" height="1"/><rect x="16" y="38" width="2" height="1"/><rect x="14" y="37" width="2" height="1"/><rect x="18" y="42" width="1" height="1"/><rect x="18" y="39" width="1" height="1"/><rect x="2" y="47" width="2" height="1"/><rect x="4" y="46" width="2" height="1"/><rect x="2" y="52" width="2" height="1"/><rect x="4" y="53" width="2" height="1"/><rect x="1" y="48" width="1" height="1"/><rect x="1" y="51" width="1" height="1"/><rect y="49" width="1" height="2"/><rect x="16" y="52" width="2" height="1"/><rect x="14" y="53" width="2" height="1"/><rect x="16" y="47" width="2" height="1"/><rect x="14" y="46" width="2" height="1"/><rect x="18" y="51" width="1" height="1"/><rect x="18" y="48" width="1" height="1"/><path d="M14,63H12V62h1V61h1V60h1V58H14V57H13V56H12V55h2V54H6v1H8v1H7v1H6v1H5v2H6v1H7v1H8v1H6v1h8Zm-2-5H11V57h1Z"/><rect x="2" y="56" width="2" height="1"/><rect x="4" y="55" width="2" height="1"/><rect x="2" y="61" width="2" height="1"/><rect x="4" y="62" width="2" height="1"/><rect x="1" y="57" width="1" height="1"/><rect x="1" y="60" width="1" height="1"/><rect y="58" width="1" height="2"/><rect x="16" y="61" width="2" height="1"/><rect x="14" y="62" width="2" height="1"/><rect x="16" y="56" width="2" height="1"/><rect x="14" y="55" width="2" height="1"/><rect x="18" y="60" width="1" height="1"/><rect x="18" y="57" width="1" height="1"/><rect x="2" y="65" width="2" height="1"/><rect x="4" y="64" width="2" height="1"/><rect x="2" y="70" width="2" height="1"/><rect x="4" y="71" width="2" height="1"/><rect x="1" y="66" width="1" height="1"/><rect x="1" y="69" width="1" height="1"/><rect y="67" width="1" height="2"/><rect x="16" y="70" width="2" height="1"/><rect x="14" y="71" width="2" height="1"/><rect x="16" y="65" width="2" height="1"/><rect x="14" y="64" width="2" height="1"/><rect x="18" y="69" width="1" height="1"/><rect x="18" y="66" width="1" height="1"/><path d="M14,81H12V80h1V79h1V78h1V76H14V75H13V74H12V73h2V72H6v1H8v1H7v1H6v1H5v2H6v1H7v1H8v1H6v1h8Zm-2-5H11V75h1Z"/><rect x="2" y="74" width="2" height="1"/><rect x="4" y="73" width="2" height="1"/><rect x="2" y="79" width="2" height="1"/><rect x="4" y="80" width="2" height="1"/><rect x="1" y="75" width="1" height="1"/><rect x="1" y="78" width="1" height="1"/><rect y="76" width="1" height="2"/><rect x="16" y="79" width="2" height="1"/><rect x="14" y="80" width="2" height="1"/><rect x="16" y="74" width="2" height="1"/><rect x="14" y="73" width="2" height="1"/><rect x="18" y="78" width="1" height="1"/><rect x="18" y="75" width="1" height="1"/><rect x="2" y="83" width="2" height="1"/><rect x="4" y="82" width="2" height="1"/><rect x="2" y="88" width="2" height="1"/><rect x="4" y="89" width="2" height="1"/><rect x="1" y="84" width="1" height="1"/><rect x="1" y="87" width="1" height="1"/><rect y="85" width="1" height="2"/><rect x="16" y="88" width="2" height="1"/><rect x="14" y="89" width="2" height="1"/><rect x="16" y="83" width="2" height="1"/><rect x="14" y="82" width="2" height="1"/><rect x="18" y="87" width="1" height="1"/><rect x="18" y="84" width="1" height="1"/><rect x="2" y="92" width="2" height="1"/><rect x="4" y="91" width="2" height="1"/><rect x="2" y="97" width="2" height="1"/><rect x="4" y="98" width="2" height="1"/><rect x="1" y="93" width="1" height="1"/><rect x="1" y="96" width="1" height="1"/><rect y="94" width="1" height="2"/><rect x="16" y="97" width="2" height="1"/><rect x="14" y="98" width="2" height="1"/><rect x="16" y="92" width="2" height="1"/><rect x="14" y="91" width="2" height="1"/><rect x="18" y="96" width="1" height="1"/><rect x="18" y="93" width="1" height="1"/><rect x="26" width="8" height="1"/><path d="M28,10v1H27v1H26v1H25v2h1v1h1v1h1v1H26v1h8V18H32V17h1V16h1V15h1V13H34V12H33V11H32V10h2V9H26v1Zm4,3H31V12h1Z"/><rect x="22" y="2" width="2" height="1"/><rect x="24" y="1" width="2" height="1"/><rect x="22" y="7" width="2" height="1"/><rect x="24" y="8" width="2" height="1"/><rect x="21" y="3" width="1" height="1"/><rect x="21" y="6" width="1" height="1"/><rect x="36" y="7" width="2" height="1"/><rect x="34" y="8" width="2" height="1"/><rect x="36" y="2" width="2" height="1"/><rect x="34" y="1" width="2" height="1"/><rect x="38" y="6" width="1" height="1"/><rect x="38" y="3" width="1" height="1"/><rect x="39" y="4" width="2" height="2"/><rect x="22" y="11" width="2" height="1"/><rect x="24" y="10" width="2" height="1"/><rect x="22" y="16" width="2" height="1"/><rect x="24" y="17" width="2" height="1"/><rect x="21" y="12" width="1" height="1"/><rect x="21" y="15" width="1" height="1"/><rect x="19" y="13" width="2" height="2"/><rect x="36" y="16" width="2" height="1"/><rect x="34" y="17" width="2" height="1"/><rect x="36" y="11" width="2" height="1"/><rect x="34" y="10" width="2" height="1"/><rect x="38" y="15" width="1" height="1"/><rect x="38" y="12" width="1" height="1"/><rect x="39" y="13" width="2" height="2"/><rect x="22" y="20" width="2" height="1"/><rect x="24" y="19" width="2" height="1"/><rect x="22" y="25" width="2" height="1"/><rect x="24" y="26" width="2" height="1"/><rect x="21" y="21" width="1" height="1"/><rect x="21" y="24" width="1" height="1"/><rect x="19" y="22" width="2" height="2"/><rect x="36" y="25" width="2" height="1"/><rect x="34" y="26" width="2" height="1"/><rect x="36" y="20" width="2" height="1"/><rect x="34" y="19" width="2" height="1"/><rect x="38" y="24" width="1" height="1"/><rect x="38" y="21" width="1" height="1"/><path d="M34,36H32V35h1V34h1V33h1V31H34V30H33V29H32V28h2V27H26v1h2v1H27v1H26v1H25v2h1v1h1v1h1v1H26v1h8Zm-2-5H31V30h1Z"/><rect x="22" y="29" width="2" height="1"/><rect x="24" y="28" width="2" height="1"/><rect x="22" y="34" width="2" height="1"/><rect x="24" y="35" width="2" height="1"/><rect x="21" y="30" width="1" height="1"/><rect x="21" y="33" width="1" height="1"/><rect x="19" y="31" width="2" height="2"/><rect x="36" y="34" width="2" height="1"/><rect x="34" y="35" width="2" height="1"/><rect x="36" y="29" width="2" height="1"/><rect x="34" y="28" width="2" height="1"/><rect x="38" y="33" width="1" height="1"/><rect x="38" y="30" width="1" height="1"/><rect x="22" y="38" width="2" height="1"/><rect x="24" y="37" width="2" height="1"/><rect x="22" y="43" width="2" height="1"/><rect x="24" y="44" width="2" height="1"/><rect x="21" y="39" width="1" height="1"/><rect x="21" y="42" width="1" height="1"/><rect x="19" y="40" width="2" height="2"/><rect x="36" y="43" width="2" height="1"/><rect x="34" y="44" width="2" height="1"/><rect x="36" y="38" width="2" height="1"/><rect x="34" y="37" width="2" height="1"/><rect x="38" y="42" width="1" height="1"/><rect x="38" y="39" width="1" height="1"/><path d="M34,54H32V53h1V52h1V51h1V49H34V48H33V47H32V46h2V45H26v1h2v1H27v1H26v1H25v2h1v1h1v1h1v1H26v1h8Zm-2-5H31V48h1Z"/><rect x="22" y="47" width="2" height="1"/><rect x="24" y="46" width="2" height="1"/><rect x="22" y="52" width="2" height="1"/><rect x="24" y="53" width="2" height="1"/><rect x="21" y="48" width="1" height="1"/><rect x="21" y="51" width="1" height="1"/><rect x="19" y="49" width="2" height="2"/><rect x="36" y="52" width="2" height="1"/><rect x="34" y="53" width="2" height="1"/><rect x="36" y="47" width="2" height="1"/><rect x="34" y="46" width="2" height="1"/><rect x="38" y="51" width="1" height="1"/><rect x="38" y="48" width="1" height="1"/><rect x="22" y="56" width="2" height="1"/><rect x="24" y="55" width="2" height="1"/><rect x="22" y="61" width="2" height="1"/><rect x="24" y="62" width="2" height="1"/><rect x="21" y="57" width="1" height="1"/><rect x="21" y="60" width="1" height="1"/><rect x="19" y="58" width="2" height="2"/><rect x="36" y="61" width="2" height="1"/><rect x="34" y="62" width="2" height="1"/><rect x="36" y="56" width="2" height="1"/><rect x="34" y="55" width="2" height="1"/><rect x="38" y="60" width="1" height="1"/><rect x="38" y="57" width="1" height="1"/><path d="M34,72H32V71h1V70h1V69h1V67H34V66H33V65H32V64h2V63H26v1h2v1H27v1H26v1H25v2h1v1h1v1h1v1H26v1h8Zm-2-5H31V66h1Z"/><rect x="22" y="65" width="2" height="1"/><rect x="24" y="64" width="2" height="1"/><rect x="22" y="70" width="2" height="1"/><rect x="24" y="71" width="2" height="1"/><rect x="21" y="66" width="1" height="1"/><rect x="21" y="69" width="1" height="1"/><rect x="19" y="67" width="2" height="2"/><rect x="36" y="70" width="2" height="1"/><rect x="34" y="71" width="2" height="1"/><rect x="36" y="65" width="2" height="1"/><rect x="34" y="64" width="2" height="1"/><rect x="38" y="69" width="1" height="1"/><rect x="38" y="66" width="1" height="1"/><rect x="39" y="67" width="2" height="2"/><rect x="22" y="74" width="2" height="1"/><rect x="24" y="73" width="2" height="1"/><rect x="22" y="79" width="2" height="1"/><rect x="24" y="80" width="2" height="1"/><rect x="21" y="75" width="1" height="1"/><rect x="21" y="78" width="1" height="1"/><rect x="19" y="76" width="2" height="2"/><rect x="36" y="79" width="2" height="1"/><rect x="34" y="80" width="2" height="1"/><rect x="36" y="74" width="2" height="1"/><rect x="34" y="73" width="2" height="1"/><rect x="38" y="78" width="1" height="1"/><rect x="38" y="75" width="1" height="1"/><path d="M32,90V89h1V88h1V87h1V85H34V84H33V83H32V82h2V81H26v1h2v1H27v1H26v1H25v2h1v1h1v1h1v1H26v1h8V90Zm0-5H31V84h1Z"/><rect x="22" y="83" width="2" height="1"/><rect x="24" y="82" width="2" height="1"/><rect x="22" y="88" width="2" height="1"/><rect x="24" y="89" width="2" height="1"/><rect x="21" y="84" width="1" height="1"/><rect x="21" y="87" width="1" height="1"/><rect x="19" y="85" width="2" height="2"/><rect x="36" y="88" width="2" height="1"/><rect x="34" y="89" width="2" height="1"/><rect x="36" y="83" width="2" height="1"/><rect x="34" y="82" width="2" height="1"/><rect x="38" y="87" width="1" height="1"/><rect x="38" y="84" width="1" height="1"/><rect x="39" y="85" width="2" height="2"/><rect x="26" y="99" width="8" height="1"/><rect x="22" y="92" width="2" height="1"/><rect x="24" y="91" width="2" height="1"/><rect x="22" y="97" width="2" height="1"/><rect x="24" y="98" width="2" height="1"/><rect x="21" y="93" width="1" height="1"/><rect x="21" y="96" width="1" height="1"/><rect x="19" y="94" width="2" height="2"/><rect x="36" y="97" width="2" height="1"/><rect x="34" y="98" width="2" height="1"/><rect x="36" y="92" width="2" height="1"/><rect x="34" y="91" width="2" height="1"/><rect x="38" y="96" width="1" height="1"/><rect x="38" y="93" width="1" height="1"/><rect x="42" y="2" width="2" height="1"/><rect x="44" y="1" width="2" height="1"/><rect x="42" y="7" width="2" height="1"/><rect x="44" y="8" width="2" height="1"/><rect x="41" y="3" width="1" height="1"/><rect x="41" y="6" width="1" height="1"/><rect x="56" y="7" width="2" height="1"/><rect x="54" y="8" width="2" height="1"/><rect x="56" y="2" width="2" height="1"/><rect x="54" y="1" width="2" height="1"/><rect x="58" y="6" width="1" height="1"/><rect x="58" y="3" width="1" height="1"/><rect x="59" y="4" width="2" height="2"/><path d="M48,19v1H47v1H46v1H45v2h1v1h1v1h1v1H46v1h8V27H52V26h1V25h1V24h1V22H54V21H53V20H52V19h2V18H46v1Zm4,3H51V21h1Z"/><rect x="42" y="11" width="2" height="1"/><rect x="44" y="10" width="2" height="1"/><rect x="42" y="16" width="2" height="1"/><rect x="44" y="17" width="2" height="1"/><rect x="41" y="12" width="1" height="1"/><rect x="41" y="15" width="1" height="1"/><rect x="56" y="16" width="2" height="1"/><rect x="54" y="17" width="2" height="1"/><rect x="56" y="11" width="2" height="1"/><rect x="54" y="10" width="2" height="1"/><rect x="58" y="15" width="1" height="1"/><rect x="58" y="12" width="1" height="1"/><rect x="42" y="20" width="2" height="1"/><rect x="44" y="19" width="2" height="1"/><rect x="42" y="25" width="2" height="1"/><rect x="44" y="26" width="2" height="1"/><rect x="41" y="21" width="1" height="1"/><rect x="41" y="24" width="1" height="1"/><rect x="39" y="22" width="2" height="2"/><rect x="56" y="25" width="2" height="1"/><rect x="54" y="26" width="2" height="1"/><rect x="56" y="20" width="2" height="1"/><rect x="54" y="19" width="2" height="1"/><rect x="58" y="24" width="1" height="1"/><rect x="58" y="21" width="1" height="1"/><rect x="59" y="22" width="2" height="2"/><path d="M46,37h2v1H47v1H46v1H45v2h1v1h1v1h1v1H46v1h8V45H52V44h1V43h1V42h1V40H54V39H53V38H52V37h2V36H46Zm6,3H51V39h1Z"/><rect x="42" y="29" width="2" height="1"/><rect x="44" y="28" width="2" height="1"/><rect x="42" y="34" width="2" height="1"/><rect x="44" y="35" width="2" height="1"/><rect x="41" y="30" width="1" height="1"/><rect x="41" y="33" width="1" height="1"/><rect x="39" y="31" width="2" height="2"/><rect x="56" y="34" width="2" height="1"/><rect x="54" y="35" width="2" height="1"/><rect x="56" y="29" width="2" height="1"/><rect x="54" y="28" width="2" height="1"/><rect x="58" y="33" width="1" height="1"/><rect x="58" y="30" width="1" height="1"/><rect x="59" y="31" width="2" height="2"/><rect x="42" y="38" width="2" height="1"/><rect x="44" y="37" width="2" height="1"/><rect x="42" y="43" width="2" height="1"/><rect x="44" y="44" width="2" height="1"/><rect x="41" y="39" width="1" height="1"/><rect x="41" y="42" width="1" height="1"/><rect x="39" y="40" width="2" height="2"/><rect x="56" y="43" width="2" height="1"/><rect x="54" y="44" width="2" height="1"/><rect x="56" y="38" width="2" height="1"/><rect x="54" y="37" width="2" height="1"/><rect x="58" y="42" width="1" height="1"/><rect x="58" y="39" width="1" height="1"/><rect x="59" y="40" width="2" height="2"/><path d="M46,55h2v1H47v1H46v1H45v2h1v1h1v1h1v1H46v1h8V63H52V62h1V61h1V60h1V58H54V57H53V56H52V55h2V54H46Zm6,3H51V57h1Z"/><rect x="42" y="47" width="2" height="1"/><rect x="44" y="46" width="2" height="1"/><rect x="42" y="52" width="2" height="1"/><rect x="44" y="53" width="2" height="1"/><rect x="41" y="48" width="1" height="1"/><rect x="41" y="51" width="1" height="1"/><rect x="39" y="49" width="2" height="2"/><rect x="56" y="52" width="2" height="1"/><rect x="54" y="53" width="2" height="1"/><rect x="56" y="47" width="2" height="1"/><rect x="54" y="46" width="2" height="1"/><rect x="58" y="51" width="1" height="1"/><rect x="58" y="48" width="1" height="1"/><rect x="59" y="49" width="2" height="2"/><rect x="42" y="56" width="2" height="1"/><rect x="44" y="55" width="2" height="1"/><rect x="42" y="61" width="2" height="1"/><rect x="44" y="62" width="2" height="1"/><rect x="41" y="57" width="1" height="1"/><rect x="41" y="60" width="1" height="1"/><rect x="39" y="58" width="2" height="2"/><rect x="56" y="61" width="2" height="1"/><rect x="54" y="62" width="2" height="1"/><rect x="56" y="56" width="2" height="1"/><rect x="54" y="55" width="2" height="1"/><rect x="58" y="60" width="1" height="1"/><rect x="58" y="57" width="1" height="1"/><rect x="59" y="58" width="2" height="2"/><rect x="42" y="65" width="2" height="1"/><rect x="44" y="64" width="2" height="1"/><rect x="42" y="70" width="2" height="1"/><rect x="44" y="71" width="2" height="1"/><rect x="41" y="66" width="1" height="1"/><rect x="41" y="69" width="1" height="1"/><rect x="56" y="70" width="2" height="1"/><rect x="54" y="71" width="2" height="1"/><rect x="56" y="65" width="2" height="1"/><rect x="54" y="64" width="2" height="1"/><rect x="58" y="69" width="1" height="1"/><rect x="58" y="66" width="1" height="1"/><rect x="59" y="67" width="2" height="2"/><path d="M52,81V80h1V79h1V78h1V76H54V75H53V74H52V73h2V72H46v1h2v1H47v1H46v1H45v2h1v1h1v1h1v1H46v1h8V81Zm0-5H51V75h1Z"/><rect x="42" y="74" width="2" height="1"/><rect x="44" y="73" width="2" height="1"/><rect x="42" y="79" width="2" height="1"/><rect x="44" y="80" width="2" height="1"/><rect x="41" y="75" width="1" height="1"/><rect x="41" y="78" width="1" height="1"/><rect x="39" y="76" width="2" height="2"/><rect x="56" y="79" width="2" height="1"/><rect x="54" y="80" width="2" height="1"/><rect x="56" y="74" width="2" height="1"/><rect x="54" y="73" width="2" height="1"/><rect x="58" y="78" width="1" height="1"/><rect x="58" y="75" width="1" height="1"/><rect x="59" y="76" width="2" height="2"/><rect x="42" y="83" width="2" height="1"/><rect x="44" y="82" width="2" height="1"/><rect x="42" y="88" width="2" height="1"/><rect x="44" y="89" width="2" height="1"/><rect x="41" y="84" width="1" height="1"/><rect x="41" y="87" width="1" height="1"/><rect x="56" y="88" width="2" height="1"/><rect x="54" y="89" width="2" height="1"/><rect x="56" y="83" width="2" height="1"/><rect x="54" y="82" width="2" height="1"/><rect x="58" y="87" width="1" height="1"/><rect x="58" y="84" width="1" height="1"/><rect x="42" y="92" width="2" height="1"/><rect x="44" y="91" width="2" height="1"/><rect x="42" y="97" width="2" height="1"/><rect x="44" y="98" width="2" height="1"/><rect x="41" y="93" width="1" height="1"/><rect x="41" y="96" width="1" height="1"/><rect x="39" y="94" width="2" height="2"/><rect x="56" y="97" width="2" height="1"/><rect x="54" y="98" width="2" height="1"/><rect x="56" y="92" width="2" height="1"/><rect x="54" y="91" width="2" height="1"/><rect x="58" y="96" width="1" height="1"/><rect x="58" y="93" width="1" height="1"/><rect x="66" width="8" height="1"/><path d="M68,10v1H67v1H66v1H65v2h1v1h1v1h1v1H66v1h8V18H72V17h1V16h1V15h1V13H74V12H73V11H72V10h2V9H66v1Zm4,3H71V12h1Z"/><rect x="62" y="2" width="2" height="1"/><rect x="64" y="1" width="2" height="1"/><rect x="62" y="7" width="2" height="1"/><rect x="64" y="8" width="2" height="1"/><rect x="61" y="3" width="1" height="1"/><rect x="61" y="6" width="1" height="1"/><rect x="76" y="7" width="2" height="1"/><rect x="74" y="8" width="2" height="1"/><rect x="76" y="2" width="2" height="1"/><rect x="74" y="1" width="2" height="1"/><rect x="78" y="6" width="1" height="1"/><rect x="78" y="3" width="1" height="1"/><rect x="79" y="4" width="2" height="2"/><rect x="62" y="11" width="2" height="1"/><rect x="64" y="10" width="2" height="1"/><rect x="62" y="16" width="2" height="1"/><rect x="64" y="17" width="2" height="1"/><rect x="61" y="12" width="1" height="1"/><rect x="61" y="15" width="1" height="1"/><rect x="59" y="13" width="2" height="2"/><rect x="76" y="16" width="2" height="1"/><rect x="74" y="17" width="2" height="1"/><rect x="76" y="11" width="2" height="1"/><rect x="74" y="10" width="2" height="1"/><rect x="78" y="15" width="1" height="1"/><rect x="78" y="12" width="1" height="1"/><rect x="79" y="13" width="2" height="2"/><path d="M66,28h2v1H67v1H66v1H65v2h1v1h1v1h1v1H66v1h8V36H72V35h1V34h1V33h1V31H74V30H73V29H72V28h2V27H66Zm6,3H71V30h1Z"/><rect x="62" y="20" width="2" height="1"/><rect x="64" y="19" width="2" height="1"/><rect x="62" y="25" width="2" height="1"/><rect x="64" y="26" width="2" height="1"/><rect x="61" y="21" width="1" height="1"/><rect x="61" y="24" width="1" height="1"/><rect x="76" y="25" width="2" height="1"/><rect x="74" y="26" width="2" height="1"/><rect x="76" y="20" width="2" height="1"/><rect x="74" y="19" width="2" height="1"/><rect x="78" y="24" width="1" height="1"/><rect x="78" y="21" width="1" height="1"/><rect x="79" y="22" width="2" height="2"/><rect x="62" y="29" width="2" height="1"/><rect x="64" y="28" width="2" height="1"/><rect x="62" y="34" width="2" height="1"/><rect x="64" y="35" width="2" height="1"/><rect x="61" y="30" width="1" height="1"/><rect x="61" y="33" width="1" height="1"/><rect x="76" y="34" width="2" height="1"/><rect x="74" y="35" width="2" height="1"/><rect x="76" y="29" width="2" height="1"/><rect x="74" y="28" width="2" height="1"/><rect x="78" y="33" width="1" height="1"/><rect x="78" y="30" width="1" height="1"/><rect x="79" y="31" width="2" height="2"/><path d="M66,46h2v1H67v1H66v1H65v2h1v1h1v1h1v1H66v1h8V54H72V53h1V52h1V51h1V49H74V48H73V47H72V46h2V45H66Zm6,3H71V48h1Z"/><rect x="62" y="38" width="2" height="1"/><rect x="64" y="37" width="2" height="1"/><rect x="62" y="43" width="2" height="1"/><rect x="64" y="44" width="2" height="1"/><rect x="61" y="39" width="1" height="1"/><rect x="61" y="42" width="1" height="1"/><rect x="76" y="43" width="2" height="1"/><rect x="74" y="44" width="2" height="1"/><rect x="76" y="38" width="2" height="1"/><rect x="74" y="37" width="2" height="1"/><rect x="78" y="42" width="1" height="1"/><rect x="78" y="39" width="1" height="1"/><rect x="79" y="40" width="2" height="2"/><rect x="62" y="47" width="2" height="1"/><rect x="64" y="46" width="2" height="1"/><rect x="62" y="52" width="2" height="1"/><rect x="64" y="53" width="2" height="1"/><rect x="61" y="48" width="1" height="1"/><rect x="61" y="51" width="1" height="1"/><rect x="76" y="52" width="2" height="1"/><rect x="74" y="53" width="2" height="1"/><rect x="76" y="47" width="2" height="1"/><rect x="74" y="46" width="2" height="1"/><rect x="78" y="51" width="1" height="1"/><rect x="78" y="48" width="1" height="1"/><rect x="79" y="49" width="2" height="2"/><path d="M66,64h2v1H67v1H66v1H65v2h1v1h1v1h1v1H66v1h8V72H72V71h1V70h1V69h1V67H74V66H73V65H72V64h2V63H66Zm6,3H71V66h1Z"/><rect x="62" y="56" width="2" height="1"/><rect x="64" y="55" width="2" height="1"/><rect x="62" y="61" width="2" height="1"/><rect x="64" y="62" width="2" height="1"/><rect x="61" y="57" width="1" height="1"/><rect x="61" y="60" width="1" height="1"/><rect x="76" y="61" width="2" height="1"/><rect x="74" y="62" width="2" height="1"/><rect x="76" y="56" width="2" height="1"/><rect x="74" y="55" width="2" height="1"/><rect x="78" y="60" width="1" height="1"/><rect x="78" y="57" width="1" height="1"/><rect x="79" y="58" width="2" height="2"/><rect x="62" y="65" width="2" height="1"/><rect x="64" y="64" width="2" height="1"/><rect x="62" y="70" width="2" height="1"/><rect x="64" y="71" width="2" height="1"/><rect x="61" y="66" width="1" height="1"/><rect x="61" y="69" width="1" height="1"/><rect x="76" y="70" width="2" height="1"/><rect x="74" y="71" width="2" height="1"/><rect x="76" y="65" width="2" height="1"/><rect x="74" y="64" width="2" height="1"/><rect x="78" y="69" width="1" height="1"/><rect x="78" y="66" width="1" height="1"/><rect x="79" y="67" width="2" height="2"/><rect x="62" y="74" width="2" height="1"/><rect x="64" y="73" width="2" height="1"/><rect x="62" y="79" width="2" height="1"/><rect x="64" y="80" width="2" height="1"/><rect x="61" y="75" width="1" height="1"/><rect x="61" y="78" width="1" height="1"/><rect x="76" y="79" width="2" height="1"/><rect x="74" y="80" width="2" height="1"/><rect x="76" y="74" width="2" height="1"/><rect x="74" y="73" width="2" height="1"/><rect x="78" y="78" width="1" height="1"/><rect x="78" y="75" width="1" height="1"/><rect x="79" y="76" width="2" height="2"/><path d="M72,90V89h1V88h1V87h1V85H74V84H73V83H72V82h2V81H66v1h2v1H67v1H66v1H65v2h1v1h1v1h1v1H66v1h8V90Zm0-5H71V84h1Z"/><rect x="62" y="83" width="2" height="1"/><rect x="64" y="82" width="2" height="1"/><rect x="62" y="88" width="2" height="1"/><rect x="64" y="89" width="2" height="1"/><rect x="61" y="84" width="1" height="1"/><rect x="61" y="87" width="1" height="1"/><rect x="59" y="85" width="2" height="2"/><rect x="76" y="88" width="2" height="1"/><rect x="74" y="89" width="2" height="1"/><rect x="76" y="83" width="2" height="1"/><rect x="74" y="82" width="2" height="1"/><rect x="78" y="87" width="1" height="1"/><rect x="78" y="84" width="1" height="1"/><rect x="79" y="85" width="2" height="2"/><rect x="66" y="99" width="8" height="1"/><rect x="62" y="92" width="2" height="1"/><rect x="64" y="91" width="2" height="1"/><rect x="62" y="97" width="2" height="1"/><rect x="64" y="98" width="2" height="1"/><rect x="61" y="93" width="1" height="1"/><rect x="61" y="96" width="1" height="1"/><rect x="59" y="94" width="2" height="2"/><rect x="76" y="97" width="2" height="1"/><rect x="74" y="98" width="2" height="1"/><rect x="76" y="92" width="2" height="1"/><rect x="74" y="91" width="2" height="1"/><rect x="78" y="96" width="1" height="1"/><rect x="78" y="93" width="1" height="1"/><path d="M92,9V8h1V7h1V6h1V4H94V3H93V2H92V1h2V0H86V1h2V2H87V3H86V4H85V6h1V7h1V8h1V9H86v1h8V9Zm0-5H91V3h1Z"/><rect x="82" y="2" width="2" height="1"/><rect x="84" y="1" width="2" height="1"/><rect x="82" y="7" width="2" height="1"/><rect x="84" y="8" width="2" height="1"/><rect x="81" y="3" width="1" height="1"/><rect x="81" y="6" width="1" height="1"/><rect x="96" y="7" width="2" height="1"/><rect x="94" y="8" width="2" height="1"/><rect x="96" y="2" width="2" height="1"/><rect x="94" y="1" width="2" height="1"/><rect x="98" y="6" width="1" height="1"/><rect x="98" y="3" width="1" height="1"/><rect x="99" y="4" width="1" height="2"/><path d="M86,19h2v1H87v1H86v1H85v2h1v1h1v1h1v1H86v1h8V27H92V26h1V25h1V24h1V22H94V21H93V20H92V19h2V18H86Zm6,3H91V21h1Z"/><rect x="82" y="11" width="2" height="1"/><rect x="84" y="10" width="2" height="1"/><rect x="82" y="16" width="2" height="1"/><rect x="84" y="17" width="2" height="1"/><rect x="81" y="12" width="1" height="1"/><rect x="81" y="15" width="1" height="1"/><rect x="96" y="16" width="2" height="1"/><rect x="94" y="17" width="2" height="1"/><rect x="96" y="11" width="2" height="1"/><rect x="94" y="10" width="2" height="1"/><rect x="98" y="15" width="1" height="1"/><rect x="98" y="12" width="1" height="1"/><rect x="99" y="13" width="1" height="2"/><rect x="82" y="20" width="2" height="1"/><rect x="84" y="19" width="2" height="1"/><rect x="82" y="25" width="2" height="1"/><rect x="84" y="26" width="2" height="1"/><rect x="81" y="21" width="1" height="1"/><rect x="81" y="24" width="1" height="1"/><rect x="96" y="25" width="2" height="1"/><rect x="94" y="26" width="2" height="1"/><rect x="96" y="20" width="2" height="1"/><rect x="94" y="19" width="2" height="1"/><rect x="98" y="24" width="1" height="1"/><rect x="98" y="21" width="1" height="1"/><rect x="99" y="22" width="1" height="2"/><path d="M86,37h2v1H87v1H86v1H85v2h1v1h1v1h1v1H86v1h8V45H92V44h1V43h1V42h1V40H94V39H93V38H92V37h2V36H86Zm6,3H91V39h1Z"/><rect x="82" y="29" width="2" height="1"/><rect x="84" y="28" width="2" height="1"/><rect x="82" y="34" width="2" height="1"/><rect x="84" y="35" width="2" height="1"/><rect x="81" y="30" width="1" height="1"/><rect x="81" y="33" width="1" height="1"/><rect x="96" y="34" width="2" height="1"/><rect x="94" y="35" width="2" height="1"/><rect x="96" y="29" width="2" height="1"/><rect x="94" y="28" width="2" height="1"/><rect x="98" y="33" width="1" height="1"/><rect x="98" y="30" width="1" height="1"/><rect x="99" y="31" width="1" height="2"/><rect x="82" y="38" width="2" height="1"/><rect x="84" y="37" width="2" height="1"/><rect x="82" y="43" width="2" height="1"/><rect x="84" y="44" width="2" height="1"/><rect x="81" y="39" width="1" height="1"/><rect x="81" y="42" width="1" height="1"/><rect x="96" y="43" width="2" height="1"/><rect x="94" y="44" width="2" height="1"/><rect x="96" y="38" width="2" height="1"/><rect x="94" y="37" width="2" height="1"/><rect x="98" y="42" width="1" height="1"/><rect x="98" y="39" width="1" height="1"/><rect x="99" y="40" width="1" height="2"/><path d="M86,55h2v1H87v1H86v1H85v2h1v1h1v1h1v1H86v1h8V63H92V62h1V61h1V60h1V58H94V57H93V56H92V55h2V54H86Zm6,3H91V57h1Z"/><rect x="82" y="47" width="2" height="1"/><rect x="84" y="46" width="2" height="1"/><rect x="82" y="52" width="2" height="1"/><rect x="84" y="53" width="2" height="1"/><rect x="81" y="48" width="1" height="1"/><rect x="81" y="51" width="1" height="1"/><rect x="96" y="52" width="2" height="1"/><rect x="94" y="53" width="2" height="1"/><rect x="96" y="47" width="2" height="1"/><rect x="94" y="46" width="2" height="1"/><rect x="98" y="51" width="1" height="1"/><rect x="98" y="48" width="1" height="1"/><rect x="99" y="49" width="1" height="2"/><rect x="82" y="56" width="2" height="1"/><rect x="84" y="55" width="2" height="1"/><rect x="82" y="61" width="2" height="1"/><rect x="84" y="62" width="2" height="1"/><rect x="81" y="57" width="1" height="1"/><rect x="81" y="60" width="1" height="1"/><rect x="96" y="61" width="2" height="1"/><rect x="94" y="62" width="2" height="1"/><rect x="96" y="56" width="2" height="1"/><rect x="94" y="55" width="2" height="1"/><rect x="98" y="60" width="1" height="1"/><rect x="98" y="57" width="1" height="1"/><rect x="99" y="58" width="1" height="2"/><path d="M86,73h2v1H87v1H86v1H85v2h1v1h1v1h1v1H86v1h8V81H92V80h1V79h1V78h1V76H94V75H93V74H92V73h2V72H86Zm6,3H91V75h1Z"/><rect x="82" y="65" width="2" height="1"/><rect x="84" y="64" width="2" height="1"/><rect x="82" y="70" width="2" height="1"/><rect x="84" y="71" width="2" height="1"/><rect x="81" y="66" width="1" height="1"/><rect x="81" y="69" width="1" height="1"/><rect x="96" y="70" width="2" height="1"/><rect x="94" y="71" width="2" height="1"/><rect x="96" y="65" width="2" height="1"/><rect x="94" y="64" width="2" height="1"/><rect x="98" y="69" width="1" height="1"/><rect x="98" y="66" width="1" height="1"/><rect x="99" y="67" width="1" height="2"/><rect x="82" y="74" width="2" height="1"/><rect x="84" y="73" width="2" height="1"/><rect x="82" y="79" width="2" height="1"/><rect x="84" y="80" width="2" height="1"/><rect x="81" y="75" width="1" height="1"/><rect x="81" y="78" width="1" height="1"/><rect x="96" y="79" width="2" height="1"/><rect x="94" y="80" width="2" height="1"/><rect x="96" y="74" width="2" height="1"/><rect x="94" y="73" width="2" height="1"/><rect x="98" y="78" width="1" height="1"/><rect x="98" y="75" width="1" height="1"/><rect x="99" y="76" width="1" height="2"/><path d="M86,91h2v1H87v1H86v1H85v2h1v1h1v1h1v1H86v1h8V99H92V98h1V97h1V96h1V94H94V93H93V92H92V91h2V90H86Zm6,3H91V93h1Z"/><rect x="82" y="83" width="2" height="1"/><rect x="84" y="82" width="2" height="1"/><rect x="82" y="88" width="2" height="1"/><rect x="84" y="89" width="2" height="1"/><rect x="81" y="84" width="1" height="1"/><rect x="81" y="87" width="1" height="1"/><rect x="96" y="88" width="2" height="1"/><rect x="94" y="89" width="2" height="1"/><rect x="96" y="83" width="2" height="1"/><rect x="94" y="82" width="2" height="1"/><rect x="98" y="87" width="1" height="1"/><rect x="98" y="84" width="1" height="1"/><rect x="99" y="85" width="1" height="2"/><rect x="82" y="92" width="2" height="1"/><rect x="84" y="91" width="2" height="1"/><rect x="82" y="97" width="2" height="1"/><rect x="84" y="98" width="2" height="1"/><rect x="81" y="93" width="1" height="1"/><rect x="81" y="96" width="1" height="1"/><rect x="79" y="94" width="2" height="2"/><rect x="96" y="97" width="2" height="1"/><rect x="94" y="98" width="2" height="1"/><rect x="96" y="92" width="2" height="1"/><rect x="94" y="91" width="2" height="1"/><rect x="98" y="96" width="1" height="1"/><rect x="98" y="93" width="1" height="1"/><rect x="99" y="94" width="1" height="2"/><rect x="8" y="11" width="4" height="1"/><rect x="12" y="12" width="1" height="1"/><rect x="13" y="13" width="1" height="2"/><rect x="12" y="15" width="1" height="1"/><rect x="7" y="15" width="1" height="1"/><rect x="6" y="13" width="1" height="2"/><rect x="7" y="12" width="1" height="1"/><rect x="8" y="16" width="4" height="1"/><rect x="28" y="2" width="4" height="1"/><rect x="32" y="3" width="1" height="1"/><rect x="33" y="4" width="1" height="2"/><rect x="32" y="6" width="1" height="1"/><rect x="27" y="6" width="1" height="1"/><rect x="26" y="4" width="1" height="2"/><rect x="27" y="3" width="1" height="1"/><rect x="28" y="7" width="4" height="1"/><path d="M48,2H47V3H46V4H45V6h1V7h1V8h1V9H46v1h8V9H52V8h1V7h1V6h1V4H54V3H53V2H52V1h2V0H46V1h2Zm4,2H51V3h1Z"/><rect x="48" y="11" width="4" height="1"/><rect x="52" y="12" width="1" height="1"/><rect x="53" y="13" width="1" height="2"/><rect x="52" y="15" width="1" height="1"/><rect x="47" y="15" width="1" height="1"/><rect x="46" y="13" width="1" height="2"/><rect x="47" y="12" width="1" height="1"/><rect x="48" y="16" width="4" height="1"/><rect x="68" y="2" width="4" height="1"/><rect x="72" y="3" width="1" height="1"/><rect x="73" y="4" width="1" height="2"/><rect x="72" y="6" width="1" height="1"/><rect x="67" y="6" width="1" height="1"/><rect x="66" y="4" width="1" height="2"/><rect x="67" y="3" width="1" height="1"/><rect x="68" y="7" width="4" height="1"/><rect x="88" y="11" width="4" height="1"/><rect x="92" y="12" width="1" height="1"/><rect x="93" y="13" width="1" height="2"/><rect x="92" y="15" width="1" height="1"/><rect x="87" y="15" width="1" height="1"/><rect x="86" y="13" width="1" height="2"/><rect x="87" y="12" width="1" height="1"/><rect x="88" y="16" width="4" height="1"/><rect x="8" y="29" width="4" height="1"/><rect x="12" y="30" width="1" height="1"/><rect x="13" y="31" width="1" height="2"/><rect x="12" y="33" width="1" height="1"/><rect x="7" y="33" width="1" height="1"/><rect x="6" y="31" width="1" height="2"/><rect x="7" y="30" width="1" height="1"/><rect x="8" y="34" width="4" height="1"/><rect x="28" y="20" width="4" height="1"/><rect x="32" y="21" width="1" height="1"/><rect x="33" y="22" width="1" height="2"/><rect x="32" y="24" width="1" height="1"/><rect x="27" y="24" width="1" height="1"/><rect x="26" y="22" width="1" height="2"/><rect x="27" y="21" width="1" height="1"/><rect x="28" y="25" width="4" height="1"/><rect x="48" y="29" width="4" height="1"/><rect x="52" y="30" width="1" height="1"/><rect x="53" y="31" width="1" height="2"/><rect x="52" y="33" width="1" height="1"/><rect x="47" y="33" width="1" height="1"/><rect x="46" y="31" width="1" height="2"/><rect x="47" y="30" width="1" height="1"/><rect x="48" y="34" width="4" height="1"/><rect x="68" y="20" width="4" height="1"/><rect x="72" y="21" width="1" height="1"/><rect x="73" y="22" width="1" height="2"/><rect x="72" y="24" width="1" height="1"/><rect x="67" y="24" width="1" height="1"/><rect x="66" y="22" width="1" height="2"/><rect x="67" y="21" width="1" height="1"/><rect x="68" y="25" width="4" height="1"/><rect x="88" y="29" width="4" height="1"/><rect x="92" y="30" width="1" height="1"/><rect x="93" y="31" width="1" height="2"/><rect x="92" y="33" width="1" height="1"/><rect x="87" y="33" width="1" height="1"/><rect x="86" y="31" width="1" height="2"/><rect x="87" y="30" width="1" height="1"/><rect x="88" y="34" width="4" height="1"/><rect x="8" y="47" width="4" height="1"/><rect x="12" y="48" width="1" height="1"/><rect x="13" y="49" width="1" height="2"/><rect x="12" y="51" width="1" height="1"/><rect x="7" y="51" width="1" height="1"/><rect x="6" y="49" width="1" height="2"/><rect x="7" y="48" width="1" height="1"/><rect x="8" y="52" width="4" height="1"/><rect x="28" y="38" width="4" height="1"/><rect x="32" y="39" width="1" height="1"/><rect x="33" y="40" width="1" height="2"/><rect x="32" y="42" width="1" height="1"/><rect x="27" y="42" width="1" height="1"/><rect x="26" y="40" width="1" height="2"/><rect x="27" y="39" width="1" height="1"/><rect x="28" y="43" width="4" height="1"/><rect x="48" y="47" width="4" height="1"/><rect x="52" y="48" width="1" height="1"/><rect x="53" y="49" width="1" height="2"/><rect x="52" y="51" width="1" height="1"/><rect x="47" y="51" width="1" height="1"/><rect x="46" y="49" width="1" height="2"/><rect x="47" y="48" width="1" height="1"/><rect x="48" y="52" width="4" height="1"/><rect x="68" y="38" width="4" height="1"/><rect x="72" y="39" width="1" height="1"/><rect x="73" y="40" width="1" height="2"/><rect x="72" y="42" width="1" height="1"/><rect x="67" y="42" width="1" height="1"/><rect x="66" y="40" width="1" height="2"/><rect x="67" y="39" width="1" height="1"/><rect x="68" y="43" width="4" height="1"/><rect x="88" y="47" width="4" height="1"/><rect x="92" y="48" width="1" height="1"/><rect x="93" y="49" width="1" height="2"/><rect x="92" y="51" width="1" height="1"/><rect x="87" y="51" width="1" height="1"/><rect x="86" y="49" width="1" height="2"/><rect x="87" y="48" width="1" height="1"/><rect x="88" y="52" width="4" height="1"/><rect x="8" y="65" width="4" height="1"/><rect x="12" y="66" width="1" height="1"/><rect x="13" y="67" width="1" height="2"/><rect x="12" y="69" width="1" height="1"/><rect x="7" y="69" width="1" height="1"/><rect x="6" y="67" width="1" height="2"/><rect x="7" y="66" width="1" height="1"/><rect x="8" y="70" width="4" height="1"/><rect x="28" y="56" width="4" height="1"/><rect x="32" y="57" width="1" height="1"/><rect x="33" y="58" width="1" height="2"/><rect x="32" y="60" width="1" height="1"/><rect x="27" y="60" width="1" height="1"/><rect x="26" y="58" width="1" height="2"/><rect x="27" y="57" width="1" height="1"/><rect x="28" y="61" width="4" height="1"/><rect x="48" y="65" width="4" height="1"/><rect x="52" y="66" width="1" height="1"/><rect x="53" y="67" width="1" height="2"/><rect x="52" y="69" width="1" height="1"/><rect x="47" y="69" width="1" height="1"/><rect x="46" y="67" width="1" height="2"/><rect x="47" y="66" width="1" height="1"/><rect x="48" y="70" width="4" height="1"/><rect x="68" y="56" width="4" height="1"/><rect x="72" y="57" width="1" height="1"/><rect x="73" y="58" width="1" height="2"/><rect x="72" y="60" width="1" height="1"/><rect x="67" y="60" width="1" height="1"/><rect x="66" y="58" width="1" height="2"/><rect x="67" y="57" width="1" height="1"/><rect x="68" y="61" width="4" height="1"/><rect x="88" y="65" width="4" height="1"/><rect x="92" y="66" width="1" height="1"/><rect x="93" y="67" width="1" height="2"/><rect x="92" y="69" width="1" height="1"/><rect x="87" y="69" width="1" height="1"/><rect x="86" y="67" width="1" height="2"/><rect x="87" y="66" width="1" height="1"/><rect x="88" y="70" width="4" height="1"/><rect x="8" y="83" width="4" height="1"/><rect x="12" y="84" width="1" height="1"/><rect x="13" y="85" width="1" height="2"/><rect x="12" y="87" width="1" height="1"/><rect x="7" y="87" width="1" height="1"/><rect x="6" y="85" width="1" height="2"/><rect x="7" y="84" width="1" height="1"/><rect x="8" y="88" width="4" height="1"/><rect x="28" y="74" width="4" height="1"/><rect x="32" y="75" width="1" height="1"/><rect x="33" y="76" width="1" height="2"/><rect x="32" y="78" width="1" height="1"/><rect x="27" y="78" width="1" height="1"/><rect x="26" y="76" width="1" height="2"/><rect x="27" y="75" width="1" height="1"/><rect x="28" y="79" width="4" height="1"/><rect x="48" y="83" width="4" height="1"/><rect x="52" y="84" width="1" height="1"/><rect x="53" y="85" width="1" height="2"/><rect x="52" y="87" width="1" height="1"/><rect x="47" y="87" width="1" height="1"/><rect x="46" y="85" width="1" height="2"/><rect x="47" y="84" width="1" height="1"/><rect x="48" y="88" width="4" height="1"/><rect x="68" y="74" width="4" height="1"/><rect x="72" y="75" width="1" height="1"/><rect x="73" y="76" width="1" height="2"/><rect x="72" y="78" width="1" height="1"/><rect x="67" y="78" width="1" height="1"/><rect x="66" y="76" width="1" height="2"/><rect x="67" y="75" width="1" height="1"/><rect x="68" y="79" width="4" height="1"/><rect x="88" y="83" width="4" height="1"/><rect x="92" y="84" width="1" height="1"/><rect x="93" y="85" width="1" height="2"/><rect x="92" y="87" width="1" height="1"/><rect x="87" y="87" width="1" height="1"/><rect x="86" y="85" width="1" height="2"/><rect x="87" y="84" width="1" height="1"/><rect x="88" y="88" width="4" height="1"/><path d="M12,98h1V97h1V96h1V94H14V93H13V92H12V91h2V90H6v1H8v1H7v1H6v1H5v2H6v1H7v1H8v1H6v1h8V99H12Zm0-4H11V93h1Z"/><rect x="28" y="92" width="4" height="1"/><rect x="32" y="93" width="1" height="1"/><rect x="33" y="94" width="1" height="2"/><rect x="32" y="96" width="1" height="1"/><rect x="27" y="96" width="1" height="1"/><rect x="26" y="94" width="1" height="2"/><rect x="27" y="93" width="1" height="1"/><rect x="28" y="97" width="4" height="1"/><path d="M52,98h1V97h1V96h1V94H54V93H53V92H52V91h2V90H46v1h2v1H47v1H46v1H45v2h1v1h1v1h1v1H46v1h8V99H52Zm0-4H51V93h1Z"/><rect x="68" y="92" width="4" height="1"/><rect x="72" y="93" width="1" height="1"/><rect x="73" y="94" width="1" height="2"/><rect x="72" y="96" width="1" height="1"/><rect x="67" y="96" width="1" height="1"/><rect x="66" y="94" width="1" height="2"/><rect x="67" y="93" width="1" height="1"/><rect x="68" y="97" width="4" height="1"/></svg>