<svg id="Layer_1" data-name="Layer 1" xmlns="http://www.w3.org/2000/svg" viewBox="0 0 100 100"><title>pattern</title><rect width="1" height="5"/><rect x="6" y="5" width="1" height="5"/><rect x="1" y="5" width="2" height="5"/><rect x="7" width="2" height="5"/><rect x="3" width="3" height="5"/><rect x="9" y="5" width="3" height="5"/><rect x="12" width="1" height="5"/><rect x="18" y="5" width="1" height="5"/><rect x="13" y="5" width="2" height="5"/><rect x="19" width="2" height="5"/><rect x="15" width="3" height="5"/><rect x="21" y="5" width="3" height="5"/><rect x="24" width="1" height="5"/><rect x="30" y="5" width="1" height="5"/><rect x="25" y="5" width="2" height="5"/><rect x="31" width="2" height="5"/><rect x="27" width="3" height="5"/><rect x="33" y="5" width="3" height="5"/><rect x="36" width="1" height="5"/><rect x="42" y="5" width="1" height="5"/><rect x="37" y="5" width="2" height="5"/><rect x="43" width="2" height="5"/><rect x="39" width="3" height="5"/><rect x="45" y="5" width="3" height="5"/><rect x="48" width="1" height="5"/><rect x="54" y="5" width="1" height="5"/><rect x="49" y="5" width="2" height="5"/><rect x="55" width="2" height="5"/><rect x="51" width="3" height="5"/><rect x="57" y="5" width="3" height="5"/><rect x="60" width="1" height="5"/><rect x="66" y="5" width="1" height="5"/><rect x="61" y="5" width="2" height="5"/><rect x="67" width="2" height="5"/><rect x="63" width="3" height="5"/><rect x="69" y="5" width="3" height="5"/><rect x="72" width="1" height="5"/><rect x="78" y="5" width="1" height="5"/><rect x="73" y="5" width="2" height="5"/><rect x="79" width="2" height="5"/><rect x="75" width="3" height="5"/><rect x="81" y="5" width="3" height="5"/><rect x="84" width="1" height="5"/><rect x="90" y="5" width="1" height="5"/><rect x="85" y="5" width="2" height="5"/><rect x="91" width="2" height="5"/><rect x="87" width="3" height="5"/><rect x="93" y="5" width="3" height="5"/><rect x="96" width="1" height="5"/><rect x="99" width="1" height="5"/><rect x="97" y="5" width="2" height="5"/><rect y="10" width="1" height="5"/><rect x="6" y="15" width="1" height="5"/><rect x="1" y="15" width="2" height="5"/><rect x="7" y="10" width="2" height="5"/><rect x="3" y="10" width="3" height="5"/><rect x="9" y="15" width="3" height="5"/><rect x="12" y="10" width="1" height="5"/><rect x="18" y="15" width="1" height="5"/><rect x="13" y="15" width="2" height="5"/><rect x="19" y="10" width="2" height="5"/><rect x="15" y="10" width="3" height="5"/><rect x="21" y="15" width="3" height="5"/><rect x="24" y="10" width="1" height="5"/><rect x="30" y="15" width="1" height="5"/><rect x="25" y="15" width="2" height="5"/><rect x="31" y="10" width="2" height="5"/><rect x="27" y="10" width="3" height="5"/><rect x="33" y="15" width="3" height="5"/><rect x="36" y="10" width="1" height="5"/><rect x="42" y="15" width="1" height="5"/><rect x="37" y="15" width="2" height="5"/><rect x="43" y="10" width="2" height="5"/><rect x="39" y="10" width="3" height="5"/><rect x="45" y="15" width="3" height="5"/><rect x="48" y="10" width="1" height="5"/><rect x="54" y="15" width="1" height="5"/><rect x="49" y="15" width="2" height="5"/><rect x="55" y="10" width="2" height="5"/><rect x="51" y="10" width="3" height="5"/><rect x="57" y="15" width="3" height="5"/><rect x="60" y="10" width="1" height="5"/><rect x="66" y="15" width="1" height="5"/><rect x="61" y="15" width="2" height="5"/><rect x="67" y="10" width="2" height="5"/><rect x="63" y="10" width="3" height="5"/><rect x="69" y="15" width="3" height="5"/><rect x="72" y="10" width="1" height="5"/><rect x="78" y="15" width="1" height="5"/><rect x="73" y="15" width="2" height="5"/><rect x="79" y="10" width="2" height="5"/><rect x="75" y="10" width="3" height="5"/><rect x="81" y="15" width="3" height="5"/><rect x="84" y="10" width="1" height="5"/><rect x="90" y="15" width="1" height="5"/><rect x="85" y="15" width="2" height="5"/><rect x="91" y="10" width="2" height="5"/><rect x="87" y="10" width="3" height="5"/><rect x="93" y="15" width="3" height="5"/><rect x="96" y="10" width="1" height="5"/><rect x="99" y="10" width="1" height="5"/><rect x="97" y="15" width="2" height="5"/><rect y="20" width="1" height="5"/><rect x="6" y="25" width="1" height="5"/><rect x="1" y="25" width="2" height="5"/><rect x="7" y="20" width="2" height="5"/><rect x="3" y="20" width="3" height="5"/><rect x="9" y="25" width="3" height="5"/><rect x="12" y="20" width="1" height="5"/><rect x="18" y="25" width="1" height="5"/><rect x="13" y="25" width="2" height="5"/><rect x="19" y="20" width="2" height="5"/><rect x="15" y="20" width="3" height="5"/><rect x="21" y="25" width="3" height="5"/><rect x="24" y="20" width="1" height="5"/><rect x="30" y="25" width="1" height="5"/><rect x="25" y="25" width="2" height="5"/><rect x="31" y="20" width="2" height="5"/><rect x="27" y="20" width="3" height="5"/><rect x="33" y="25" width="3" height="5"/><rect x="36" y="20" width="1" height="5"/><rect x="42" y="25" width="1" height="5"/><rect x="37" y="25" width="2" height="5"/><rect x="43" y="20" width="2" height="5"/><rect x="39" y="20" width="3" height="5"/><rect x="45" y="25" width="3" height="5"/><rect x="48" y="20" width="1" height="5"/><rect x="54" y="25" width="1" height="5"/><rect x="49" y="25" width="2" height="5"/><rect x="55" y="20" width="2" height="5"/><rect x="51" y="20" width="3" height="5"/><rect x="57" y="25" width="3" height="5"/><rect x="60" y="20" width="1" height="5"/><rect x="66" y="25" width="1" height="5"/><rect x="61" y="25" width="2" height="5"/><rect x="67" y="20" width="2" height="5"/><rect x="63" y="20" width="3" height="5"/><rect x="69" y="25" width="3" height="5"/><rect x="72" y="20" width="1" height="5"/><rect x="78" y="25" width="1" height="5"/><rect x="73" y="25" width="2" height="5"/><rect x="79" y="20" width="2" height="5"/><rect x="75" y="20" width="3" height="5"/><rect x="81" y="25" width="3" height="5"/><rect x="84" y="20" width="1" height="5"/><rect x="90" y="25" width="1" height="5"/><rect x="85" y="25" width="2" height="5"/><rect x="91" y="20" width="2" height="5"/><rect x="87" y="20" width="3" height="5"/><rect x="93" y="25" width="3" height="5"/><rect x="96" y="20" width="1" height="5"/><rect x="99" y="20" width="1" height="5"/><rect x="97" y="25" width="2" height="5"/><rect y="30" width="1" height="5"/><rect x="6" y="35" width="1" height="5"/><rect x="1" y="35" width="2" height="5"/><rect x="7" y="30" width="2" height="5"/><rect x="3" y="30" width="3" height="5"/><rect x="9" y="35" width="3" height="5"/><rect x="12" y="30" width="1" height="5"/><rect x="18" y="35" width="1" height="5"/><rect x="13" y="35" width="2" height="5"/><rect x="19" y="30" width="2" height="5"/><rect x="15" y="30" width="3" height="5"/><rect x="21" y="35" width="3" height="5"/><rect x="24" y="30" width="1" height="5"/><rect x="30" y="35" width="1" height="5"/><rect x="25" y="35" width="2" height="5"/><rect x="31" y="30" width="2" height="5"/><rect x="27" y="30" width="3" height="5"/><rect x="33" y="35" width="3" height="5"/><rect x="36" y="30" width="1" height="5"/><rect x="42" y="35" width="1" height="5"/><rect x="37" y="35" width="2" height="5"/><rect x="43" y="30" width="2" height="5"/><rect x="39" y="30" width="3" height="5"/><rect x="45" y="35" width="3" height="5"/><rect x="48" y="30" width="1" height="5"/><rect x="54" y="35" width="1" height="5"/><rect x="49" y="35" width="2" height="5"/><rect x="55" y="30" width="2" height="5"/><rect x="51" y="30" width="3" height="5"/><rect x="57" y="35" width="3" height="5"/><rect x="60" y="30" width="1" height="5"/><rect x="66" y="35" width="1" height="5"/><rect x="61" y="35" width="2" height="5"/><rect x="67" y="30" width="2" height="5"/><rect x="63" y="30" width="3" height="5"/><rect x="69" y="35" width="3" height="5"/><rect x="72" y="30" width="1" height="5"/><rect x="78" y="35" width="1" height="5"/><rect x="73" y="35" width="2" height="5"/><rect x="79" y="30" width="2" height="5"/><rect x="75" y="30" width="3" height="5"/><rect x="81" y="35" width="3" height="5"/><rect x="84" y="30" width="1" height="5"/><rect x="90" y="35" width="1" height="5"/><rect x="85" y="35" width="2" height="5"/><rect x="91" y="30" width="2" height="5"/><rect x="87" y="30" width="3" height="5"/><rect x="93" y="35" width="3" height="5"/><rect x="96" y="30" width="1" height="5"/><rect x="99" y="30" width="1" height="5"/><rect x="97" y="35" width="2" height="5"/><rect y="40" width="1" height="5"/><rect x="6" y="45" width="1" height="5"/><rect x="1" y="45" width="2" height="5"/><rect x="7" y="40" width="2" height="5"/><rect x="3" y="40" width="3" height="5"/><rect x="9" y="45" width="3" height="5"/><rect x="12" y="40" width="1" height="5"/><rect x="18" y="45" width="1" height="5"/><rect x="13" y="45" width="2" height="5"/><rect x="19" y="40" width="2" height="5"/><rect x="15" y="40" width="3" height="5"/><rect x="21" y="45" width="3" height="5"/><rect x="24" y="40" width="1" height="5"/><rect x="30" y="45" width="1" height="5"/><rect x="25" y="45" width="2" height="5"/><rect x="31" y="40" width="2" height="5"/><rect x="27" y="40" width="3" height="5"/><rect x="33" y="45" width="3" height="5"/><rect x="36" y="40" width="1" height="5"/><rect x="42" y="45" width="1" height="5"/><rect x="37" y="45" width="2" height="5"/><rect x="43" y="40" width="2" height="5"/><rect x="39" y="40" width="3" height="5"/><rect x="45" y="45" width="3" height="5"/><rect x="48" y="40" width="1" height="5"/><rect x="54" y="45" width="1" height="5"/><rect x="49" y="45" width="2" height="5"/><rect x="55" y="40" width="2" height="5"/><rect x="51" y="40" width="3" height="5"/><rect x="57" y="45" width="3" height="5"/><rect x="60" y="40" width="1" height="5"/><rect x="66" y="45" width="1" height="5"/><rect x="61" y="45" width="2" height="5"/><rect x="67" y="40" width="2" height="5"/><rect x="63" y="40" width="3" height="5"/><rect x="69" y="45" width="3" height="5"/><rect x="72" y="40" width="1" height="5"/><rect x="78" y="45" width="1" height="5"/><rect x="73" y="45" width="2" height="5"/><rect x="79" y="40" width="2" height="5"/><rect x="75" y="40" width="3" height="5"/><rect x="81" y="45" width="3" height="5"/><rect x="84" y="40" width="1" height="5"/><rect x="90" y="45" width="1" height="5"/><rect x="85" y="45" width="2" height="5"/><rect x="91" y="40" width="2" height="5"/><rect x="87" y="40" width="3" height="5"/><rect x="93" y="45" width="3" height="5"/><rect x="96" y="40" width="1" height="5"/><rect x="99" y="40" width="1" height="5"/><rect x="97" y="45" width="2" height="5"/><rect y="50" width="1" height="5"/><rect x="6" y="55" width="1" height="5"/><rect x="1" y="55" width="2" height="5"/><rect x="7" y="50" width="2" height="5"/><rect x="3" y="50" width="3" height="5"/><rect x="9" y="55" width="3" height="5"/><rect x="12" y="50" width="1" height="5"/><rect x="18" y="55" width="1" height="5"/><rect x="13" y="55" width="2" height="5"/><rect x="19" y="50" width="2" height="5"/><rect x="15" y="50" width="3" height="5"/><rect x="21" y="55" width="3" height="5"/><rect x="24" y="50" width="1" height="5"/><rect x="30" y="55" width="1" height="5"/><rect x="25" y="55" width="2" height="5"/><rect x="31" y="50" width="2" height="5"/><rect x="27" y="50" width="3" height="5"/><rect x="33" y="55" width="3" height="5"/><rect x="36" y="50" width="1" height="5"/><rect x="42" y="55" width="1" height="5"/><rect x="37" y="55" width="2" height="5"/><rect x="43" y="50" width="2" height="5"/><rect x="39" y="50" width="3" height="5"/><rect x="45" y="55" width="3" height="5"/><rect x="48" y="50" width="1" height="5"/><rect x="54" y="55" width="1" height="5"/><rect x="49" y="55" width="2" height="5"/><rect x="55" y="50" width="2" height="5"/><rect x="51" y="50" width="3" height="5"/><rect x="57" y="55" width="3" height="5"/><rect x="60" y="50" width="1" height="5"/><rect x="66" y="55" width="1" height="5"/><rect x="61" y="55" width="2" height="5"/><rect x="67" y="50" width="2" height="5"/><rect x="63" y="50" width="3" height="5"/><rect x="69" y="55" width="3" height="5"/><rect x="72" y="50" width="1" height="5"/><rect x="78" y="55" width="1" height="5"/><rect x="73" y="55" width="2" height="5"/><rect x="79" y="50" width="2" height="5"/><rect x="75" y="50" width="3" height="5"/><rect x="81" y="55" width="3" height="5"/><rect x="84" y="50" width="1" height="5"/><rect x="90" y="55" width="1" height="5"/><rect x="85" y="55" width="2" height="5"/><rect x="91" y="50" width="2" height="5"/><rect x="87" y="50" width="3" height="5"/><rect x="93" y="55" width="3" height="5"/><rect x="96" y="50" width="1" height="5"/><rect x="99" y="50" width="1" height="5"/><rect x="97" y="55" width="2" height="5"/><rect y="60" width="1" height="5"/><rect x="6" y="65" width="1" height="5"/><rect x="1" y="65" width="2" height="5"/><rect x="7" y="60" width="2" height="5"/><rect x="3" y="60" width="3" height="5"/><rect x="9" y="65" width="3" height="5"/><rect x="12" y="60" width="1" height="5"/><rect x="18" y="65" width="1" height="5"/><rect x="13" y="65" width="2" height="5"/><rect x="19" y="60" width="2" height="5"/><rect x="15" y="60" width="3" height="5"/><rect x="21" y="65" width="3" height="5"/><rect x="24" y="60" width="1" height="5"/><rect x="30" y="65" width="1" height="5"/><rect x="25" y="65" width="2" height="5"/><rect x="31" y="60" width="2" height="5"/><rect x="27" y="60" width="3" height="5"/><rect x="33" y="65" width="3" height="5"/><rect x="36" y="60" width="1" height="5"/><rect x="42" y="65" width="1" height="5"/><rect x="37" y="65" width="2" height="5"/><rect x="43" y="60" width="2" height="5"/><rect x="39" y="60" width="3" height="5"/><rect x="45" y="65" width="3" height="5"/><rect x="48" y="60" width="1" height="5"/><rect x="54" y="65" width="1" height="5"/><rect x="49" y="65" width="2" height="5"/><rect x="55" y="60" width="2" height="5"/><rect x="51" y="60" width="3" height="5"/><rect x="57" y="65" width="3" height="5"/><rect x="60" y="60" width="1" height="5"/><rect x="66" y="65" width="1" height="5"/><rect x="61" y="65" width="2" height="5"/><rect x="67" y="60" width="2" height="5"/><rect x="63" y="60" width="3" height="5"/><rect x="69" y="65" width="3" height="5"/><rect x="72" y="60" width="1" height="5"/><rect x="78" y="65" width="1" height="5"/><rect x="73" y="65" width="2" height="5"/><rect x="79" y="60" width="2" height="5"/><rect x="75" y="60" width="3" height="5"/><rect x="81" y="65" width="3" height="5"/><rect x="84" y="60" width="1" height="5"/><rect x="90" y="65" width="1" height="5"/><rect x="85" y="65" width="2" height="5"/><rect x="91" y="60" width="2" height="5"/><rect x="87" y="60" width="3" height="5"/><rect x="93" y="65" width="3" height="5"/><rect x="96" y="60" width="1" height="5"/><rect x="99" y="60" width="1" height="5"/><rect x="97" y="65" width="2" height="5"/><rect y="70" width="1" height="5"/><rect x="6" y="75" width="1" height="5"/><rect x="1" y="75" width="2" height="5"/><rect x="7" y="70" width="2" height="5"/><rect x="3" y="70" width="3" height="5"/><rect x="9" y="75" width="3" height="5"/><rect x="12" y="70" width="1" height="5"/><rect x="18" y="75" width="1" height="5"/><rect x="13" y="75" width="2" height="5"/><rect x="19" y="70" width="2" height="5"/><rect x="15" y="70" width="3" height="5"/><rect x="21" y="75" width="3" height="5"/><rect x="24" y="70" width="1" height="5"/><rect x="30" y="75" width="1" height="5"/><rect x="25" y="75" width="2" height="5"/><rect x="31" y="70" width="2" height="5"/><rect x="27" y="70" width="3" height="5"/><rect x="33" y="75" width="3" height="5"/><rect x="36" y="70" width="1" height="5"/><rect x="42" y="75" width="1" height="5"/><rect x="37" y="75" width="2" height="5"/><rect x="43" y="70" width="2" height="5"/><rect x="39" y="70" width="3" height="5"/><rect x="45" y="75" width="3" height="5"/><rect x="48" y="70" width="1" height="5"/><rect x="54" y="75" width="1" height="5"/><rect x="49" y="75" width="2" height="5"/><rect x="55" y="70" width="2" height="5"/><rect x="51" y="70" width="3" height="5"/><rect x="57" y="75" width="3" height="5"/><rect x="60" y="70" width="1" height="5"/><rect x="66" y="75" width="1" height="5"/><rect x="61" y="75" width="2" height="5"/><rect x="67" y="70" width="2" height="5"/><rect x="63" y="70" width="3" height="5"/><rect x="69" y="75" width="3" height="5"/><rect x="72" y="70" width="1" height="5"/><rect x="78" y="75" width="1" height="5"/><rect x="73" y="75" width="2" height="5"/><rect x="79" y="70" width="2" height="5"/><rect x="75" y="70" width="3" height="5"/><rect x="81" y="75" width="3" height="5"/><rect x="84" y="70" width="1" height="5"/><rect x="90" y="75" width="1" height="5"/><rect x="85" y="75" width="2" height="5"/><rect x="91" y="70" width="2" height="5"/><rect x="87" y="70" width="3" height="5"/><rect x="93" y="75" width="3" height="5"/><rect x="96" y="70" width="1" height="5"/><rect x="99" y="70" width="1" height="5"/><rect x="97" y="75" width="2" height="5"/><rect y="80" width="1" height="5"/><rect x="6" y="85" width="1" height="5"/><rect x="1" y="85" width="2" height="5"/><rect x="7" y="80" width="2" height="5"/><rect x="3" y="80" width="3" height="5"/><rect x="9" y="85" width="3" height="5"/><rect x="12" y="80" width="1" height="5"/><rect x="18" y="85" width="1" height="5"/><rect x="13" y="85" width="2" height="5"/><rect x="19" y="80" width="2" height="5"/><rect x="15" y="80" width="3" height="5"/><rect x="21" y="85" width="3" height="5"/><rect x="24" y="80" width="1" height="5"/><rect x="30" y="85" width="1" height="5"/><rect x="25" y="85" width="2" height="5"/><rect x="31" y="80" width="2" height="5"/><rect x="27" y="80" width="3" height="5"/><rect x="33" y="85" width="3" height="5"/><rect x="36" y="80" width="1" height="5"/><rect x="42" y="85" width="1" height="5"/><rect x="37" y="85" width="2" height="5"/><rect x="43" y="80" width="2" height="5"/><rect x="39" y="80" width="3" height="5"/><rect x="45" y="85" width="3" height="5"/><rect x="48" y="80" width="1" height="5"/><rect x="54" y="85" width="1" height="5"/><rect x="49" y="85" width="2" height="5"/><rect x="55" y="80" width="2" height="5"/><rect x="51" y="80" width="3" height="5"/><rect x="57" y="85" width="3" height="5"/><rect x="60" y="80" width="1" height="5"/><rect x="66" y="85" width="1" height="5"/><rect x="61" y="85" width="2" height="5"/><rect x="67" y="80" width="2" height="5"/><rect x="63" y="80" width="3" height="5"/><rect x="69" y="85" width="3" height="5"/><rect x="72" y="80" width="1" height="5"/><rect x="78" y="85" width="1" height="5"/><rect x="73" y="85" width="2" height="5"/><rect x="79" y="80" width="2" height="5"/><rect x="75" y="80" width="3" height="5"/><rect x="81" y="85" width="3" height="5"/><rect x="84" y="80" width="1" height="5"/><rect x="90" y="85" width="1" height="5"/><rect x="85" y="85" width="2" height="5"/><rect x="91" y="80" width="2" height="5"/><rect x="87" y="80" width="3" height="5"/><rect x="93" y="85" width="3" height="5"/><rect x="96" y="80" width="1" height="5"/><rect x="99" y="80" width="1" height="5"/><rect x="97" y="85" width="2" height="5"/><rect y="90" width="1" height="5"/><rect x="6" y="95" width="1" height="5"/><rect x="1" y="95" width="2" height="5"/><rect x="7" y="90" width="2" height="5"/><rect x="3" y="90" width="3" height="5"/><rect x="9" y="95" width="3" height="5"/><rect x="12" y="90" width="1" height="5"/><rect x="18" y="95" width="1" height="5"/><rect x="13" y="95" width="2" height="5"/><rect x="19" y="90" width="2" height="5"/><rect x="15" y="90" width="3" height="5"/><rect x="21" y="95" width="3" height="5"/><rect x="24" y="90" width="1" height="5"/><rect x="30" y="95" width="1" height="5"/><rect x="25" y="95" width="2" height="5"/><rect x="31" y="90" width="2" height="5"/><rect x="27" y="90" width="3" height="5"/><rect x="33" y="95" width="3" height="5"/><rect x="36" y="90" width="1" height="5"/><rect x="42" y="95" width="1" height="5"/><rect x="37" y="95" width="2" height="5"/><rect x="43" y="90" width="2" height="5"/><rect x="39" y="90" width="3" height="5"/><rect x="45" y="95" width="3" height="5"/><rect x="48" y="90" width="1" height="5"/><rect x="54" y="95" width="1" height="5"/><rect x="49" y="95" width="2" height="5"/><rect x="55" y="90" width="2" height="5"/><rect x="51" y="90" width="3" height="5"/><rect x="57" y="95" width="3" height="5"/><rect x="60" y="90" width="1" height="5"/><rect x="66" y="95" width="1" height="5"/><rect x="61" y="95" width="2" height="5"/><rect x="67" y="90" width="2" height="5"/><rect x="63" y="90" width="3" height="5"/><rect x="69" y="95" width="3" height="5"/><rect x="72" y="90" width="1" height="5"/><rect x="78" y="95" width="1" height="5"/><rect x="73" y="95" width="2" height="5"/><rect x="79" y="90" width="2" height="5"/><rect x="75" y="90" width="3" height="5"/><rect x="81" y="95" width="3" height="5"/><rect x="84" y="90" width="1" height="5"/><rect x="90" y="95" width="1" height="5"/><rect x="85" y="95" width="2" height="5"/><rect x="91" y="90" width="2" height="5"/><rect x="87" y="90" width="3" height="5"/><rect x="93" y="95" width="3" height="5"/><rect x="96" y="90" width="1" height="5"/><rect x="99" y="90" width="1" height="5"/><rect x="97" y="95" width="2" height="5"/></svg>