<svg id="Layer_1" data-name="Layer 1" xmlns="http://www.w3.org/2000/svg" viewBox="0 0 100 100"><title>pattern</title><polygon points="99 3 99 2 98 2 98 1 97 1 97 0 96 0 96 1 95 1 95 2 94 2 94 3 93 3 93 4 92 4 92 3 91 3 91 2 90 2 90 1 89 1 89 0 88 0 88 1 87 1 87 2 86 2 86 3 85 3 85 4 84 4 84 3 83 3 83 2 82 2 82 1 81 1 81 0 80 0 80 1 79 1 79 2 78 2 78 3 77 3 77 4 76 4 76 3 75 3 75 2 74 2 74 1 73 1 73 0 72 0 72 1 71 1 71 2 70 2 70 3 69 3 69 4 68 4 68 3 67 3 67 2 66 2 66 1 65 1 65 0 64 0 64 1 63 1 63 2 62 2 62 3 61 3 61 4 60 4 60 3 59 3 59 2 58 2 58 1 57 1 57 0 56 0 56 1 55 1 55 2 54 2 54 3 53 3 53 4 52 4 52 3 51 3 51 2 50 2 50 1 49 1 49 0 48 0 48 1 47 1 47 2 46 2 46 3 45 3 45 4 44 4 44 3 43 3 43 2 42 2 42 1 41 1 41 0 40 0 40 1 39 1 39 2 38 2 38 3 37 3 37 4 36 4 36 3 35 3 35 2 34 2 34 1 33 1 33 0 32 0 32 1 31 1 31 2 30 2 30 3 29 3 29 4 28 4 28 3 27 3 27 2 26 2 26 1 25 1 25 0 24 0 24 1 23 1 23 2 22 2 22 3 21 3 21 4 20 4 20 3 19 3 19 2 18 2 18 1 17 1 17 0 16 0 16 1 15 1 15 2 14 2 14 3 13 3 13 4 12 4 12 3 11 3 11 2 10 2 10 1 9 1 9 0 8 0 8 1 7 1 7 2 6 2 6 3 5 3 5 4 4 4 4 3 3 3 3 2 2 2 2 1 1 1 1 0 0 0 0 6 1 6 1 7 2 7 2 8 3 8 3 9 4 9 4 10 5 10 5 9 6 9 6 8 7 8 7 7 8 7 8 6 9 6 9 7 10 7 10 8 11 8 11 9 12 9 12 10 13 10 13 9 14 9 14 8 15 8 15 7 16 7 16 6 17 6 17 7 18 7 18 8 19 8 19 9 20 9 20 10 21 10 21 9 22 9 22 8 23 8 23 7 24 7 24 6 25 6 25 7 26 7 26 8 27 8 27 9 28 9 28 10 29 10 29 9 30 9 30 8 31 8 31 7 32 7 32 6 33 6 33 7 34 7 34 8 35 8 35 9 36 9 36 10 37 10 37 9 38 9 38 8 39 8 39 7 40 7 40 6 41 6 41 7 42 7 42 8 43 8 43 9 44 9 44 10 45 10 45 9 46 9 46 8 47 8 47 7 48 7 48 6 49 6 49 7 50 7 50 8 51 8 51 9 52 9 52 10 53 10 53 9 54 9 54 8 55 8 55 7 56 7 56 6 57 6 57 7 58 7 58 8 59 8 59 9 60 9 60 10 61 10 61 9 62 9 62 8 63 8 63 7 64 7 64 6 65 6 65 7 66 7 66 8 67 8 67 9 68 9 68 10 69 10 69 9 70 9 70 8 71 8 71 7 72 7 72 6 73 6 73 7 74 7 74 8 75 8 75 9 76 9 76 10 77 10 77 9 78 9 78 8 79 8 79 7 80 7 80 6 81 6 81 7 82 7 82 8 83 8 83 9 84 9 84 10 85 10 85 9 86 9 86 8 87 8 87 7 88 7 88 6 89 6 89 7 90 7 90 8 91 8 91 9 92 9 92 10 93 10 93 9 94 9 94 8 95 8 95 7 96 7 96 6 97 6 97 7 98 7 98 8 99 8 99 9 100 9 100 3 99 3"/><polygon points="99 12 98 12 98 11 97 11 97 10 96 10 96 11 95 11 95 12 94 12 94 13 93 13 93 14 92 14 92 13 91 13 91 12 90 12 90 11 89 11 89 10 88 10 88 11 87 11 87 12 86 12 86 13 85 13 85 14 84 14 84 13 83 13 83 12 82 12 82 11 81 11 81 10 80 10 80 11 79 11 79 12 78 12 78 13 77 13 77 14 76 14 76 13 75 13 75 12 74 12 74 11 73 11 73 10 72 10 72 11 71 11 71 12 70 12 70 13 69 13 69 14 68 14 68 13 67 13 67 12 66 12 66 11 65 11 65 10 64 10 64 11 63 11 63 12 62 12 62 13 61 13 61 14 60 14 60 13 59 13 59 12 58 12 58 11 57 11 57 10 56 10 56 11 55 11 55 12 54 12 54 13 53 13 53 14 52 14 52 13 51 13 51 12 50 12 50 11 49 11 49 10 48 10 48 11 47 11 47 12 46 12 46 13 45 13 45 14 44 14 44 13 43 13 43 12 42 12 42 11 41 11 41 10 40 10 40 11 39 11 39 12 38 12 38 13 37 13 37 14 36 14 36 13 35 13 35 12 34 12 34 11 33 11 33 10 32 10 32 11 31 11 31 12 30 12 30 13 29 13 29 14 28 14 28 13 27 13 27 12 26 12 26 11 25 11 25 10 24 10 24 11 23 11 23 12 22 12 22 13 21 13 21 14 20 14 20 13 19 13 19 12 18 12 18 11 17 11 17 10 16 10 16 11 15 11 15 12 14 12 14 13 13 13 13 14 12 14 12 13 11 13 11 12 10 12 10 11 9 11 9 10 8 10 8 11 7 11 7 12 6 12 6 13 5 13 5 14 4 14 4 13 3 13 3 12 2 12 2 11 1 11 1 10 0 10 0 16 1 16 1 17 2 17 2 18 3 18 3 19 4 19 4 20 5 20 5 19 6 19 6 18 7 18 7 17 8 17 8 16 9 16 9 17 10 17 10 18 11 18 11 19 12 19 12 20 13 20 13 19 14 19 14 18 15 18 15 17 16 17 16 16 17 16 17 17 18 17 18 18 19 18 19 19 20 19 20 20 21 20 21 19 22 19 22 18 23 18 23 17 24 17 24 16 25 16 25 17 26 17 26 18 27 18 27 19 28 19 28 20 29 20 29 19 30 19 30 18 31 18 31 17 32 17 32 16 33 16 33 17 34 17 34 18 35 18 35 19 36 19 36 20 37 20 37 19 38 19 38 18 39 18 39 17 40 17 40 16 41 16 41 17 42 17 42 18 43 18 43 19 44 19 44 20 45 20 45 19 46 19 46 18 47 18 47 17 48 17 48 16 49 16 49 17 50 17 50 18 51 18 51 19 52 19 52 20 53 20 53 19 54 19 54 18 55 18 55 17 56 17 56 16 57 16 57 17 58 17 58 18 59 18 59 19 60 19 60 20 61 20 61 19 62 19 62 18 63 18 63 17 64 17 64 16 65 16 65 17 66 17 66 18 67 18 67 19 68 19 68 20 69 20 69 19 70 19 70 18 71 18 71 17 72 17 72 16 73 16 73 17 74 17 74 18 75 18 75 19 76 19 76 20 77 20 77 19 78 19 78 18 79 18 79 17 80 17 80 16 81 16 81 17 82 17 82 18 83 18 83 19 84 19 84 20 85 20 85 19 86 19 86 18 87 18 87 17 88 17 88 16 89 16 89 17 90 17 90 18 91 18 91 19 92 19 92 20 93 20 93 19 94 19 94 18 95 18 95 17 96 17 96 16 97 16 97 17 98 17 98 18 99 18 99 19 100 19 100 13 99 13 99 12"/><polygon points="99 22 98 22 98 21 97 21 97 20 96 20 96 21 95 21 95 22 94 22 94 23 93 23 93 24 92 24 92 23 91 23 91 22 90 22 90 21 89 21 89 20 88 20 88 21 87 21 87 22 86 22 86 23 85 23 85 24 84 24 84 23 83 23 83 22 82 22 82 21 81 21 81 20 80 20 80 21 79 21 79 22 78 22 78 23 77 23 77 24 76 24 76 23 75 23 75 22 74 22 74 21 73 21 73 20 72 20 72 21 71 21 71 22 70 22 70 23 69 23 69 24 68 24 68 23 67 23 67 22 66 22 66 21 65 21 65 20 64 20 64 21 63 21 63 22 62 22 62 23 61 23 61 24 60 24 60 23 59 23 59 22 58 22 58 21 57 21 57 20 56 20 56 21 55 21 55 22 54 22 54 23 53 23 53 24 52 24 52 23 51 23 51 22 50 22 50 21 49 21 49 20 48 20 48 21 47 21 47 22 46 22 46 23 45 23 45 24 44 24 44 23 43 23 43 22 42 22 42 21 41 21 41 20 40 20 40 21 39 21 39 22 38 22 38 23 37 23 37 24 36 24 36 23 35 23 35 22 34 22 34 21 33 21 33 20 32 20 32 21 31 21 31 22 30 22 30 23 29 23 29 24 28 24 28 23 27 23 27 22 26 22 26 21 25 21 25 20 24 20 24 21 23 21 23 22 22 22 22 23 21 23 21 24 20 24 20 23 19 23 19 22 18 22 18 21 17 21 17 20 16 20 16 21 15 21 15 22 14 22 14 23 13 23 13 24 12 24 12 23 11 23 11 22 10 22 10 21 9 21 9 20 8 20 8 21 7 21 7 22 6 22 6 23 5 23 5 24 4 24 4 23 3 23 3 22 2 22 2 21 1 21 1 20 0 20 0 26 1 26 1 27 2 27 2 28 3 28 3 29 4 29 4 30 5 30 5 29 6 29 6 28 7 28 7 27 8 27 8 26 9 26 9 27 10 27 10 28 11 28 11 29 12 29 12 30 13 30 13 29 14 29 14 28 15 28 15 27 16 27 16 26 17 26 17 27 18 27 18 28 19 28 19 29 20 29 20 30 21 30 21 29 22 29 22 28 23 28 23 27 24 27 24 26 25 26 25 27 26 27 26 28 27 28 27 29 28 29 28 30 29 30 29 29 30 29 30 28 31 28 31 27 32 27 32 26 33 26 33 27 34 27 34 28 35 28 35 29 36 29 36 30 37 30 37 29 38 29 38 28 39 28 39 27 40 27 40 26 41 26 41 27 42 27 42 28 43 28 43 29 44 29 44 30 45 30 45 29 46 29 46 28 47 28 47 27 48 27 48 26 49 26 49 27 50 27 50 28 51 28 51 29 52 29 52 30 53 30 53 29 54 29 54 28 55 28 55 27 56 27 56 26 57 26 57 27 58 27 58 28 59 28 59 29 60 29 60 30 61 30 61 29 62 29 62 28 63 28 63 27 64 27 64 26 65 26 65 27 66 27 66 28 67 28 67 29 68 29 68 30 69 30 69 29 70 29 70 28 71 28 71 27 72 27 72 26 73 26 73 27 74 27 74 28 75 28 75 29 76 29 76 30 77 30 77 29 78 29 78 28 79 28 79 27 80 27 80 26 81 26 81 27 82 27 82 28 83 28 83 29 84 29 84 30 85 30 85 29 86 29 86 28 87 28 87 27 88 27 88 26 89 26 89 27 90 27 90 28 91 28 91 29 92 29 92 30 93 30 93 29 94 29 94 28 95 28 95 27 96 27 96 26 97 26 97 27 98 27 98 28 99 28 99 29 100 29 100 23 99 23 99 22"/><polygon points="99 32 98 32 98 31 97 31 97 30 96 30 96 31 95 31 95 32 94 32 94 33 93 33 93 34 92 34 92 33 91 33 91 32 90 32 90 31 89 31 89 30 88 30 88 31 87 31 87 32 86 32 86 33 85 33 85 34 84 34 84 33 83 33 83 32 82 32 82 31 81 31 81 30 80 30 80 31 79 31 79 32 78 32 78 33 77 33 77 34 76 34 76 33 75 33 75 32 74 32 74 31 73 31 73 30 72 30 72 31 71 31 71 32 70 32 70 33 69 33 69 34 68 34 68 33 67 33 67 32 66 32 66 31 65 31 65 30 64 30 64 31 63 31 63 32 62 32 62 33 61 33 61 34 60 34 60 33 59 33 59 32 58 32 58 31 57 31 57 30 56 30 56 31 55 31 55 32 54 32 54 33 53 33 53 34 52 34 52 33 51 33 51 32 50 32 50 31 49 31 49 30 48 30 48 31 47 31 47 32 46 32 46 33 45 33 45 34 44 34 44 33 43 33 43 32 42 32 42 31 41 31 41 30 40 30 40 31 39 31 39 32 38 32 38 33 37 33 37 34 36 34 36 33 35 33 35 32 34 32 34 31 33 31 33 30 32 30 32 31 31 31 31 32 30 32 30 33 29 33 29 34 28 34 28 33 27 33 27 32 26 32 26 31 25 31 25 30 24 30 24 31 23 31 23 32 22 32 22 33 21 33 21 34 20 34 20 33 19 33 19 32 18 32 18 31 17 31 17 30 16 30 16 31 15 31 15 32 14 32 14 33 13 33 13 34 12 34 12 33 11 33 11 32 10 32 10 31 9 31 9 30 8 30 8 31 7 31 7 32 6 32 6 33 5 33 5 34 4 34 4 33 3 33 3 32 2 32 2 31 1 31 1 30 0 30 0 36 1 36 1 37 2 37 2 38 3 38 3 39 4 39 4 40 5 40 5 39 6 39 6 38 7 38 7 37 8 37 8 36 9 36 9 37 10 37 10 38 11 38 11 39 12 39 12 40 13 40 13 39 14 39 14 38 15 38 15 37 16 37 16 36 17 36 17 37 18 37 18 38 19 38 19 39 20 39 20 40 21 40 21 39 22 39 22 38 23 38 23 37 24 37 24 36 25 36 25 37 26 37 26 38 27 38 27 39 28 39 28 40 29 40 29 39 30 39 30 38 31 38 31 37 32 37 32 36 33 36 33 37 34 37 34 38 35 38 35 39 36 39 36 40 37 40 37 39 38 39 38 38 39 38 39 37 40 37 40 36 41 36 41 37 42 37 42 38 43 38 43 39 44 39 44 40 45 40 45 39 46 39 46 38 47 38 47 37 48 37 48 36 49 36 49 37 50 37 50 38 51 38 51 39 52 39 52 40 53 40 53 39 54 39 54 38 55 38 55 37 56 37 56 36 57 36 57 37 58 37 58 38 59 38 59 39 60 39 60 40 61 40 61 39 62 39 62 38 63 38 63 37 64 37 64 36 65 36 65 37 66 37 66 38 67 38 67 39 68 39 68 40 69 40 69 39 70 39 70 38 71 38 71 37 72 37 72 36 73 36 73 37 74 37 74 38 75 38 75 39 76 39 76 40 77 40 77 39 78 39 78 38 79 38 79 37 80 37 80 36 81 36 81 37 82 37 82 38 83 38 83 39 84 39 84 40 85 40 85 39 86 39 86 38 87 38 87 37 88 37 88 36 89 36 89 37 90 37 90 38 91 38 91 39 92 39 92 40 93 40 93 39 94 39 94 38 95 38 95 37 96 37 96 36 97 36 97 37 98 37 98 38 99 38 99 39 100 39 100 33 99 33 99 32"/><polygon points="99 42 98 42 98 41 97 41 97 40 96 40 96 41 95 41 95 42 94 42 94 43 93 43 93 44 92 44 92 43 91 43 91 42 90 42 90 41 89 41 89 40 88 40 88 41 87 41 87 42 86 42 86 43 85 43 85 44 84 44 84 43 83 43 83 42 82 42 82 41 81 41 81 40 80 40 80 41 79 41 79 42 78 42 78 43 77 43 77 44 76 44 76 43 75 43 75 42 74 42 74 41 73 41 73 40 72 40 72 41 71 41 71 42 70 42 70 43 69 43 69 44 68 44 68 43 67 43 67 42 66 42 66 41 65 41 65 40 64 40 64 41 63 41 63 42 62 42 62 43 61 43 61 44 60 44 60 43 59 43 59 42 58 42 58 41 57 41 57 40 56 40 56 41 55 41 55 42 54 42 54 43 53 43 53 44 52 44 52 43 51 43 51 42 50 42 50 41 49 41 49 40 48 40 48 41 47 41 47 42 46 42 46 43 45 43 45 44 44 44 44 43 43 43 43 42 42 42 42 41 41 41 41 40 40 40 40 41 39 41 39 42 38 42 38 43 37 43 37 44 36 44 36 43 35 43 35 42 34 42 34 41 33 41 33 40 32 40 32 41 31 41 31 42 30 42 30 43 29 43 29 44 28 44 28 43 27 43 27 42 26 42 26 41 25 41 25 40 24 40 24 41 23 41 23 42 22 42 22 43 21 43 21 44 20 44 20 43 19 43 19 42 18 42 18 41 17 41 17 40 16 40 16 41 15 41 15 42 14 42 14 43 13 43 13 44 12 44 12 43 11 43 11 42 10 42 10 41 9 41 9 40 8 40 8 41 7 41 7 42 6 42 6 43 5 43 5 44 4 44 4 43 3 43 3 42 2 42 2 41 1 41 1 40 0 40 0 46 1 46 1 47 2 47 2 48 3 48 3 49 4 49 4 50 5 50 5 49 6 49 6 48 7 48 7 47 8 47 8 46 9 46 9 47 10 47 10 48 11 48 11 49 12 49 12 50 13 50 13 49 14 49 14 48 15 48 15 47 16 47 16 46 17 46 17 47 18 47 18 48 19 48 19 49 20 49 20 50 21 50 21 49 22 49 22 48 23 48 23 47 24 47 24 46 25 46 25 47 26 47 26 48 27 48 27 49 28 49 28 50 29 50 29 49 30 49 30 48 31 48 31 47 32 47 32 46 33 46 33 47 34 47 34 48 35 48 35 49 36 49 36 50 37 50 37 49 38 49 38 48 39 48 39 47 40 47 40 46 41 46 41 47 42 47 42 48 43 48 43 49 44 49 44 50 45 50 45 49 46 49 46 48 47 48 47 47 48 47 48 46 49 46 49 47 50 47 50 48 51 48 51 49 52 49 52 50 53 50 53 49 54 49 54 48 55 48 55 47 56 47 56 46 57 46 57 47 58 47 58 48 59 48 59 49 60 49 60 50 61 50 61 49 62 49 62 48 63 48 63 47 64 47 64 46 65 46 65 47 66 47 66 48 67 48 67 49 68 49 68 50 69 50 69 49 70 49 70 48 71 48 71 47 72 47 72 46 73 46 73 47 74 47 74 48 75 48 75 49 76 49 76 50 77 50 77 49 78 49 78 48 79 48 79 47 80 47 80 46 81 46 81 47 82 47 82 48 83 48 83 49 84 49 84 50 85 50 85 49 86 49 86 48 87 48 87 47 88 47 88 46 89 46 89 47 90 47 90 48 91 48 91 49 92 49 92 50 93 50 93 49 94 49 94 48 95 48 95 47 96 47 96 46 97 46 97 47 98 47 98 48 99 48 99 49 100 49 100 43 99 43 99 42"/><polygon points="99 52 98 52 98 51 97 51 97 50 96 50 96 51 95 51 95 52 94 52 94 53 93 53 93 54 92 54 92 53 91 53 91 52 90 52 90 51 89 51 89 50 88 50 88 51 87 51 87 52 86 52 86 53 85 53 85 54 84 54 84 53 83 53 83 52 82 52 82 51 81 51 81 50 80 50 80 51 79 51 79 52 78 52 78 53 77 53 77 54 76 54 76 53 75 53 75 52 74 52 74 51 73 51 73 50 72 50 72 51 71 51 71 52 70 52 70 53 69 53 69 54 68 54 68 53 67 53 67 52 66 52 66 51 65 51 65 50 64 50 64 51 63 51 63 52 62 52 62 53 61 53 61 54 60 54 60 53 59 53 59 52 58 52 58 51 57 51 57 50 56 50 56 51 55 51 55 52 54 52 54 53 53 53 53 54 52 54 52 53 51 53 51 52 50 52 50 51 49 51 49 50 48 50 48 51 47 51 47 52 46 52 46 53 45 53 45 54 44 54 44 53 43 53 43 52 42 52 42 51 41 51 41 50 40 50 40 51 39 51 39 52 38 52 38 53 37 53 37 54 36 54 36 53 35 53 35 52 34 52 34 51 33 51 33 50 32 50 32 51 31 51 31 52 30 52 30 53 29 53 29 54 28 54 28 53 27 53 27 52 26 52 26 51 25 51 25 50 24 50 24 51 23 51 23 52 22 52 22 53 21 53 21 54 20 54 20 53 19 53 19 52 18 52 18 51 17 51 17 50 16 50 16 51 15 51 15 52 14 52 14 53 13 53 13 54 12 54 12 53 11 53 11 52 10 52 10 51 9 51 9 50 8 50 8 51 7 51 7 52 6 52 6 53 5 53 5 54 4 54 4 53 3 53 3 52 2 52 2 51 1 51 1 50 0 50 0 56 1 56 1 57 2 57 2 58 3 58 3 59 4 59 4 60 5 60 5 59 6 59 6 58 7 58 7 57 8 57 8 56 9 56 9 57 10 57 10 58 11 58 11 59 12 59 12 60 13 60 13 59 14 59 14 58 15 58 15 57 16 57 16 56 17 56 17 57 18 57 18 58 19 58 19 59 20 59 20 60 21 60 21 59 22 59 22 58 23 58 23 57 24 57 24 56 25 56 25 57 26 57 26 58 27 58 27 59 28 59 28 60 29 60 29 59 30 59 30 58 31 58 31 57 32 57 32 56 33 56 33 57 34 57 34 58 35 58 35 59 36 59 36 60 37 60 37 59 38 59 38 58 39 58 39 57 40 57 40 56 41 56 41 57 42 57 42 58 43 58 43 59 44 59 44 60 45 60 45 59 46 59 46 58 47 58 47 57 48 57 48 56 49 56 49 57 50 57 50 58 51 58 51 59 52 59 52 60 53 60 53 59 54 59 54 58 55 58 55 57 56 57 56 56 57 56 57 57 58 57 58 58 59 58 59 59 60 59 60 60 61 60 61 59 62 59 62 58 63 58 63 57 64 57 64 56 65 56 65 57 66 57 66 58 67 58 67 59 68 59 68 60 69 60 69 59 70 59 70 58 71 58 71 57 72 57 72 56 73 56 73 57 74 57 74 58 75 58 75 59 76 59 76 60 77 60 77 59 78 59 78 58 79 58 79 57 80 57 80 56 81 56 81 57 82 57 82 58 83 58 83 59 84 59 84 60 85 60 85 59 86 59 86 58 87 58 87 57 88 57 88 56 89 56 89 57 90 57 90 58 91 58 91 59 92 59 92 60 93 60 93 59 94 59 94 58 95 58 95 57 96 57 96 56 97 56 97 57 98 57 98 58 99 58 99 59 100 59 100 53 99 53 99 52"/><polygon points="99 62 98 62 98 61 97 61 97 60 96 60 96 61 95 61 95 62 94 62 94 63 93 63 93 64 92 64 92 63 91 63 91 62 90 62 90 61 89 61 89 60 88 60 88 61 87 61 87 62 86 62 86 63 85 63 85 64 84 64 84 63 83 63 83 62 82 62 82 61 81 61 81 60 80 60 80 61 79 61 79 62 78 62 78 63 77 63 77 64 76 64 76 63 75 63 75 62 74 62 74 61 73 61 73 60 72 60 72 61 71 61 71 62 70 62 70 63 69 63 69 64 68 64 68 63 67 63 67 62 66 62 66 61 65 61 65 60 64 60 64 61 63 61 63 62 62 62 62 63 61 63 61 64 60 64 60 63 59 63 59 62 58 62 58 61 57 61 57 60 56 60 56 61 55 61 55 62 54 62 54 63 53 63 53 64 52 64 52 63 51 63 51 62 50 62 50 61 49 61 49 60 48 60 48 61 47 61 47 62 46 62 46 63 45 63 45 64 44 64 44 63 43 63 43 62 42 62 42 61 41 61 41 60 40 60 40 61 39 61 39 62 38 62 38 63 37 63 37 64 36 64 36 63 35 63 35 62 34 62 34 61 33 61 33 60 32 60 32 61 31 61 31 62 30 62 30 63 29 63 29 64 28 64 28 63 27 63 27 62 26 62 26 61 25 61 25 60 24 60 24 61 23 61 23 62 22 62 22 63 21 63 21 64 20 64 20 63 19 63 19 62 18 62 18 61 17 61 17 60 16 60 16 61 15 61 15 62 14 62 14 63 13 63 13 64 12 64 12 63 11 63 11 62 10 62 10 61 9 61 9 60 8 60 8 61 7 61 7 62 6 62 6 63 5 63 5 64 4 64 4 63 3 63 3 62 2 62 2 61 1 61 1 60 0 60 0 66 1 66 1 67 2 67 2 68 3 68 3 69 4 69 4 70 5 70 5 69 6 69 6 68 7 68 7 67 8 67 8 66 9 66 9 67 10 67 10 68 11 68 11 69 12 69 12 70 13 70 13 69 14 69 14 68 15 68 15 67 16 67 16 66 17 66 17 67 18 67 18 68 19 68 19 69 20 69 20 70 21 70 21 69 22 69 22 68 23 68 23 67 24 67 24 66 25 66 25 67 26 67 26 68 27 68 27 69 28 69 28 70 29 70 29 69 30 69 30 68 31 68 31 67 32 67 32 66 33 66 33 67 34 67 34 68 35 68 35 69 36 69 36 70 37 70 37 69 38 69 38 68 39 68 39 67 40 67 40 66 41 66 41 67 42 67 42 68 43 68 43 69 44 69 44 70 45 70 45 69 46 69 46 68 47 68 47 67 48 67 48 66 49 66 49 67 50 67 50 68 51 68 51 69 52 69 52 70 53 70 53 69 54 69 54 68 55 68 55 67 56 67 56 66 57 66 57 67 58 67 58 68 59 68 59 69 60 69 60 70 61 70 61 69 62 69 62 68 63 68 63 67 64 67 64 66 65 66 65 67 66 67 66 68 67 68 67 69 68 69 68 70 69 70 69 69 70 69 70 68 71 68 71 67 72 67 72 66 73 66 73 67 74 67 74 68 75 68 75 69 76 69 76 70 77 70 77 69 78 69 78 68 79 68 79 67 80 67 80 66 81 66 81 67 82 67 82 68 83 68 83 69 84 69 84 70 85 70 85 69 86 69 86 68 87 68 87 67 88 67 88 66 89 66 89 67 90 67 90 68 91 68 91 69 92 69 92 70 93 70 93 69 94 69 94 68 95 68 95 67 96 67 96 66 97 66 97 67 98 67 98 68 99 68 99 69 100 69 100 63 99 63 99 62"/><polygon points="99 72 98 72 98 71 97 71 97 70 96 70 96 71 95 71 95 72 94 72 94 73 93 73 93 74 92 74 92 73 91 73 91 72 90 72 90 71 89 71 89 70 88 70 88 71 87 71 87 72 86 72 86 73 85 73 85 74 84 74 84 73 83 73 83 72 82 72 82 71 81 71 81 70 80 70 80 71 79 71 79 72 78 72 78 73 77 73 77 74 76 74 76 73 75 73 75 72 74 72 74 71 73 71 73 70 72 70 72 71 71 71 71 72 70 72 70 73 69 73 69 74 68 74 68 73 67 73 67 72 66 72 66 71 65 71 65 70 64 70 64 71 63 71 63 72 62 72 62 73 61 73 61 74 60 74 60 73 59 73 59 72 58 72 58 71 57 71 57 70 56 70 56 71 55 71 55 72 54 72 54 73 53 73 53 74 52 74 52 73 51 73 51 72 50 72 50 71 49 71 49 70 48 70 48 71 47 71 47 72 46 72 46 73 45 73 45 74 44 74 44 73 43 73 43 72 42 72 42 71 41 71 41 70 40 70 40 71 39 71 39 72 38 72 38 73 37 73 37 74 36 74 36 73 35 73 35 72 34 72 34 71 33 71 33 70 32 70 32 71 31 71 31 72 30 72 30 73 29 73 29 74 28 74 28 73 27 73 27 72 26 72 26 71 25 71 25 70 24 70 24 71 23 71 23 72 22 72 22 73 21 73 21 74 20 74 20 73 19 73 19 72 18 72 18 71 17 71 17 70 16 70 16 71 15 71 15 72 14 72 14 73 13 73 13 74 12 74 12 73 11 73 11 72 10 72 10 71 9 71 9 70 8 70 8 71 7 71 7 72 6 72 6 73 5 73 5 74 4 74 4 73 3 73 3 72 2 72 2 71 1 71 1 70 0 70 0 76 1 76 1 77 2 77 2 78 3 78 3 79 4 79 4 80 5 80 5 79 6 79 6 78 7 78 7 77 8 77 8 76 9 76 9 77 10 77 10 78 11 78 11 79 12 79 12 80 13 80 13 79 14 79 14 78 15 78 15 77 16 77 16 76 17 76 17 77 18 77 18 78 19 78 19 79 20 79 20 80 21 80 21 79 22 79 22 78 23 78 23 77 24 77 24 76 25 76 25 77 26 77 26 78 27 78 27 79 28 79 28 80 29 80 29 79 30 79 30 78 31 78 31 77 32 77 32 76 33 76 33 77 34 77 34 78 35 78 35 79 36 79 36 80 37 80 37 79 38 79 38 78 39 78 39 77 40 77 40 76 41 76 41 77 42 77 42 78 43 78 43 79 44 79 44 80 45 80 45 79 46 79 46 78 47 78 47 77 48 77 48 76 49 76 49 77 50 77 50 78 51 78 51 79 52 79 52 80 53 80 53 79 54 79 54 78 55 78 55 77 56 77 56 76 57 76 57 77 58 77 58 78 59 78 59 79 60 79 60 80 61 80 61 79 62 79 62 78 63 78 63 77 64 77 64 76 65 76 65 77 66 77 66 78 67 78 67 79 68 79 68 80 69 80 69 79 70 79 70 78 71 78 71 77 72 77 72 76 73 76 73 77 74 77 74 78 75 78 75 79 76 79 76 80 77 80 77 79 78 79 78 78 79 78 79 77 80 77 80 76 81 76 81 77 82 77 82 78 83 78 83 79 84 79 84 80 85 80 85 79 86 79 86 78 87 78 87 77 88 77 88 76 89 76 89 77 90 77 90 78 91 78 91 79 92 79 92 80 93 80 93 79 94 79 94 78 95 78 95 77 96 77 96 76 97 76 97 77 98 77 98 78 99 78 99 79 100 79 100 73 99 73 99 72"/><polygon points="99 82 98 82 98 81 97 81 97 80 96 80 96 81 95 81 95 82 94 82 94 83 93 83 93 84 92 84 92 83 91 83 91 82 90 82 90 81 89 81 89 80 88 80 88 81 87 81 87 82 86 82 86 83 85 83 85 84 84 84 84 83 83 83 83 82 82 82 82 81 81 81 81 80 80 80 80 81 79 81 79 82 78 82 78 83 77 83 77 84 76 84 76 83 75 83 75 82 74 82 74 81 73 81 73 80 72 80 72 81 71 81 71 82 70 82 70 83 69 83 69 84 68 84 68 83 67 83 67 82 66 82 66 81 65 81 65 80 64 80 64 81 63 81 63 82 62 82 62 83 61 83 61 84 60 84 60 83 59 83 59 82 58 82 58 81 57 81 57 80 56 80 56 81 55 81 55 82 54 82 54 83 53 83 53 84 52 84 52 83 51 83 51 82 50 82 50 81 49 81 49 80 48 80 48 81 47 81 47 82 46 82 46 83 45 83 45 84 44 84 44 83 43 83 43 82 42 82 42 81 41 81 41 80 40 80 40 81 39 81 39 82 38 82 38 83 37 83 37 84 36 84 36 83 35 83 35 82 34 82 34 81 33 81 33 80 32 80 32 81 31 81 31 82 30 82 30 83 29 83 29 84 28 84 28 83 27 83 27 82 26 82 26 81 25 81 25 80 24 80 24 81 23 81 23 82 22 82 22 83 21 83 21 84 20 84 20 83 19 83 19 82 18 82 18 81 17 81 17 80 16 80 16 81 15 81 15 82 14 82 14 83 13 83 13 84 12 84 12 83 11 83 11 82 10 82 10 81 9 81 9 80 8 80 8 81 7 81 7 82 6 82 6 83 5 83 5 84 4 84 4 83 3 83 3 82 2 82 2 81 1 81 1 80 0 80 0 86 1 86 1 87 2 87 2 88 3 88 3 89 4 89 4 90 5 90 5 89 6 89 6 88 7 88 7 87 8 87 8 86 9 86 9 87 10 87 10 88 11 88 11 89 12 89 12 90 13 90 13 89 14 89 14 88 15 88 15 87 16 87 16 86 17 86 17 87 18 87 18 88 19 88 19 89 20 89 20 90 21 90 21 89 22 89 22 88 23 88 23 87 24 87 24 86 25 86 25 87 26 87 26 88 27 88 27 89 28 89 28 90 29 90 29 89 30 89 30 88 31 88 31 87 32 87 32 86 33 86 33 87 34 87 34 88 35 88 35 89 36 89 36 90 37 90 37 89 38 89 38 88 39 88 39 87 40 87 40 86 41 86 41 87 42 87 42 88 43 88 43 89 44 89 44 90 45 90 45 89 46 89 46 88 47 88 47 87 48 87 48 86 49 86 49 87 50 87 50 88 51 88 51 89 52 89 52 90 53 90 53 89 54 89 54 88 55 88 55 87 56 87 56 86 57 86 57 87 58 87 58 88 59 88 59 89 60 89 60 90 61 90 61 89 62 89 62 88 63 88 63 87 64 87 64 86 65 86 65 87 66 87 66 88 67 88 67 89 68 89 68 90 69 90 69 89 70 89 70 88 71 88 71 87 72 87 72 86 73 86 73 87 74 87 74 88 75 88 75 89 76 89 76 90 77 90 77 89 78 89 78 88 79 88 79 87 80 87 80 86 81 86 81 87 82 87 82 88 83 88 83 89 84 89 84 90 85 90 85 89 86 89 86 88 87 88 87 87 88 87 88 86 89 86 89 87 90 87 90 88 91 88 91 89 92 89 92 90 93 90 93 89 94 89 94 88 95 88 95 87 96 87 96 86 97 86 97 87 98 87 98 88 99 88 99 89 100 89 100 83 99 83 99 82"/><polygon points="99 92 98 92 98 91 97 91 97 90 96 90 96 91 95 91 95 92 94 92 94 93 93 93 93 94 92 94 92 93 91 93 91 92 90 92 90 91 89 91 89 90 88 90 88 91 87 91 87 92 86 92 86 93 85 93 85 94 84 94 84 93 83 93 83 92 82 92 82 91 81 91 81 90 80 90 80 91 79 91 79 92 78 92 78 93 77 93 77 94 76 94 76 93 75 93 75 92 74 92 74 91 73 91 73 90 72 90 72 91 71 91 71 92 70 92 70 93 69 93 69 94 68 94 68 93 67 93 67 92 66 92 66 91 65 91 65 90 64 90 64 91 63 91 63 92 62 92 62 93 61 93 61 94 60 94 60 93 59 93 59 92 58 92 58 91 57 91 57 90 56 90 56 91 55 91 55 92 54 92 54 93 53 93 53 94 52 94 52 93 51 93 51 92 50 92 50 91 49 91 49 90 48 90 48 91 47 91 47 92 46 92 46 93 45 93 45 94 44 94 44 93 43 93 43 92 42 92 42 91 41 91 41 90 40 90 40 91 39 91 39 92 38 92 38 93 37 93 37 94 36 94 36 93 35 93 35 92 34 92 34 91 33 91 33 90 32 90 32 91 31 91 31 92 30 92 30 93 29 93 29 94 28 94 28 93 27 93 27 92 26 92 26 91 25 91 25 90 24 90 24 91 23 91 23 92 22 92 22 93 21 93 21 94 20 94 20 93 19 93 19 92 18 92 18 91 17 91 17 90 16 90 16 91 15 91 15 92 14 92 14 93 13 93 13 94 12 94 12 93 11 93 11 92 10 92 10 91 9 91 9 90 8 90 8 91 7 91 7 92 6 92 6 93 5 93 5 94 4 94 4 93 3 93 3 92 2 92 2 91 1 91 1 90 0 90 0 96 1 96 1 97 2 97 2 98 3 98 3 99 4 99 4 100 5 100 5 99 6 99 6 98 7 98 7 97 8 97 8 96 9 96 9 97 10 97 10 98 11 98 11 99 12 99 12 100 13 100 13 99 14 99 14 98 15 98 15 97 16 97 16 96 17 96 17 97 18 97 18 98 19 98 19 99 20 99 20 100 21 100 21 99 22 99 22 98 23 98 23 97 24 97 24 96 25 96 25 97 26 97 26 98 27 98 27 99 28 99 28 100 29 100 29 99 30 99 30 98 31 98 31 97 32 97 32 96 33 96 33 97 34 97 34 98 35 98 35 99 36 99 36 100 37 100 37 99 38 99 38 98 39 98 39 97 40 97 40 96 41 96 41 97 42 97 42 98 43 98 43 99 44 99 44 100 45 100 45 99 46 99 46 98 47 98 47 97 48 97 48 96 49 96 49 97 50 97 50 98 51 98 51 99 52 99 52 100 53 100 53 99 54 99 54 98 55 98 55 97 56 97 56 96 57 96 57 97 58 97 58 98 59 98 59 99 60 99 60 100 61 100 61 99 62 99 62 98 63 98 63 97 64 97 64 96 65 96 65 97 66 97 66 98 67 98 67 99 68 99 68 100 69 100 69 99 70 99 70 98 71 98 71 97 72 97 72 96 73 96 73 97 74 97 74 98 75 98 75 99 76 99 76 100 77 100 77 99 78 99 78 98 79 98 79 97 80 97 80 96 81 96 81 97 82 97 82 98 83 98 83 99 84 99 84 100 85 100 85 99 86 99 86 98 87 98 87 97 88 97 88 96 89 96 89 97 90 97 90 98 91 98 91 99 92 99 92 100 93 100 93 99 94 99 94 98 95 98 95 97 96 97 96 96 97 96 97 97 98 97 98 98 99 98 99 99 100 99 100 93 99 93 99 92"/></svg>