<svg id="Layer_1" data-name="Layer 1" xmlns="http://www.w3.org/2000/svg" viewBox="0 0 100 100"><title>pattern</title><polygon points="95 0 95 1 90 1 90 2 85 2 85 3 80 3 80 4 75 4 70 4 70 3 65 3 65 2 60 2 60 1 55 1 55 0 50 0 45 0 45 1 40 1 40 2 35 2 35 3 30 3 30 4 25 4 20 4 20 3 15 3 15 2 10 2 10 1 5 1 5 0 0 0 0 6 5 6 5 7 10 7 10 8 15 8 15 9 20 9 20 10 25 10 30 10 30 9 35 9 35 8 40 8 40 7 45 7 45 6 50 6 55 6 55 7 60 7 60 8 65 8 65 9 70 9 70 10 75 10 80 10 80 9 85 9 85 8 90 8 90 7 95 7 95 6 100 6 100 0 95 0"/><polygon points="95 11 90 11 90 12 85 12 85 13 80 13 80 14 75 14 70 14 70 13 65 13 65 12 60 12 60 11 55 11 55 10 50 10 45 10 45 11 40 11 40 12 35 12 35 13 30 13 30 14 25 14 20 14 20 13 15 13 15 12 10 12 10 11 5 11 5 10 0 10 0 16 5 16 5 17 10 17 10 18 15 18 15 19 20 19 20 20 25 20 30 20 30 19 35 19 35 18 40 18 40 17 45 17 45 16 50 16 55 16 55 17 60 17 60 18 65 18 65 19 70 19 70 20 75 20 80 20 80 19 85 19 85 18 90 18 90 17 95 17 95 16 100 16 100 10 95 10 95 11"/><polygon points="95 21 90 21 90 22 85 22 85 23 80 23 80 24 75 24 70 24 70 23 65 23 65 22 60 22 60 21 55 21 55 20 50 20 45 20 45 21 40 21 40 22 35 22 35 23 30 23 30 24 25 24 20 24 20 23 15 23 15 22 10 22 10 21 5 21 5 20 0 20 0 26 5 26 5 27 10 27 10 28 15 28 15 29 20 29 20 30 25 30 30 30 30 29 35 29 35 28 40 28 40 27 45 27 45 26 50 26 55 26 55 27 60 27 60 28 65 28 65 29 70 29 70 30 75 30 80 30 80 29 85 29 85 28 90 28 90 27 95 27 95 26 100 26 100 20 95 20 95 21"/><polygon points="95 31 90 31 90 32 85 32 85 33 80 33 80 34 75 34 70 34 70 33 65 33 65 32 60 32 60 31 55 31 55 30 50 30 45 30 45 31 40 31 40 32 35 32 35 33 30 33 30 34 25 34 20 34 20 33 15 33 15 32 10 32 10 31 5 31 5 30 0 30 0 36 5 36 5 37 10 37 10 38 15 38 15 39 20 39 20 40 25 40 30 40 30 39 35 39 35 38 40 38 40 37 45 37 45 36 50 36 55 36 55 37 60 37 60 38 65 38 65 39 70 39 70 40 75 40 80 40 80 39 85 39 85 38 90 38 90 37 95 37 95 36 100 36 100 30 95 30 95 31"/><polygon points="95 41 90 41 90 42 85 42 85 43 80 43 80 44 75 44 70 44 70 43 65 43 65 42 60 42 60 41 55 41 55 40 50 40 45 40 45 41 40 41 40 42 35 42 35 43 30 43 30 44 25 44 20 44 20 43 15 43 15 42 10 42 10 41 5 41 5 40 0 40 0 46 5 46 5 47 10 47 10 48 15 48 15 49 20 49 20 50 25 50 30 50 30 49 35 49 35 48 40 48 40 47 45 47 45 46 50 46 55 46 55 47 60 47 60 48 65 48 65 49 70 49 70 50 75 50 80 50 80 49 85 49 85 48 90 48 90 47 95 47 95 46 100 46 100 40 95 40 95 41"/><polygon points="95 51 90 51 90 52 85 52 85 53 80 53 80 54 75 54 70 54 70 53 65 53 65 52 60 52 60 51 55 51 55 50 50 50 45 50 45 51 40 51 40 52 35 52 35 53 30 53 30 54 25 54 20 54 20 53 15 53 15 52 10 52 10 51 5 51 5 50 0 50 0 56 5 56 5 57 10 57 10 58 15 58 15 59 20 59 20 60 25 60 30 60 30 59 35 59 35 58 40 58 40 57 45 57 45 56 50 56 55 56 55 57 60 57 60 58 65 58 65 59 70 59 70 60 75 60 80 60 80 59 85 59 85 58 90 58 90 57 95 57 95 56 100 56 100 50 95 50 95 51"/><polygon points="95 61 90 61 90 62 85 62 85 63 80 63 80 64 75 64 70 64 70 63 65 63 65 62 60 62 60 61 55 61 55 60 50 60 45 60 45 61 40 61 40 62 35 62 35 63 30 63 30 64 25 64 20 64 20 63 15 63 15 62 10 62 10 61 5 61 5 60 0 60 0 66 5 66 5 67 10 67 10 68 15 68 15 69 20 69 20 70 25 70 30 70 30 69 35 69 35 68 40 68 40 67 45 67 45 66 50 66 55 66 55 67 60 67 60 68 65 68 65 69 70 69 70 70 75 70 80 70 80 69 85 69 85 68 90 68 90 67 95 67 95 66 100 66 100 60 95 60 95 61"/><polygon points="95 71 90 71 90 72 85 72 85 73 80 73 80 74 75 74 70 74 70 73 65 73 65 72 60 72 60 71 55 71 55 70 50 70 45 70 45 71 40 71 40 72 35 72 35 73 30 73 30 74 25 74 20 74 20 73 15 73 15 72 10 72 10 71 5 71 5 70 0 70 0 76 5 76 5 77 10 77 10 78 15 78 15 79 20 79 20 80 25 80 30 80 30 79 35 79 35 78 40 78 40 77 45 77 45 76 50 76 55 76 55 77 60 77 60 78 65 78 65 79 70 79 70 80 75 80 80 80 80 79 85 79 85 78 90 78 90 77 95 77 95 76 100 76 100 70 95 70 95 71"/><polygon points="95 81 90 81 90 82 85 82 85 83 80 83 80 84 75 84 70 84 70 83 65 83 65 82 60 82 60 81 55 81 55 80 50 80 45 80 45 81 40 81 40 82 35 82 35 83 30 83 30 84 25 84 20 84 20 83 15 83 15 82 10 82 10 81 5 81 5 80 0 80 0 86 5 86 5 87 10 87 10 88 15 88 15 89 20 89 20 90 25 90 30 90 30 89 35 89 35 88 40 88 40 87 45 87 45 86 50 86 55 86 55 87 60 87 60 88 65 88 65 89 70 89 70 90 75 90 80 90 80 89 85 89 85 88 90 88 90 87 95 87 95 86 100 86 100 80 95 80 95 81"/><polygon points="95 91 90 91 90 92 85 92 85 93 80 93 80 94 75 94 70 94 70 93 65 93 65 92 60 92 60 91 55 91 55 90 50 90 45 90 45 91 40 91 40 92 35 92 35 93 30 93 30 94 25 94 20 94 20 93 15 93 15 92 10 92 10 91 5 91 5 90 0 90 0 96 5 96 5 97 10 97 10 98 15 98 15 99 20 99 20 100 25 100 30 100 30 99 35 99 35 98 40 98 40 97 45 97 45 96 50 96 55 96 55 97 60 97 60 98 65 98 65 99 70 99 70 100 75 100 80 100 80 99 85 99 85 98 90 98 90 97 95 97 95 96 100 96 100 90 95 90 95 91"/></svg>