<svg id="Layer_1" data-name="Layer 1" xmlns="http://www.w3.org/2000/svg" viewBox="0 0 100 100"><title>pattern</title><polygon points="19 4 19 3 18 3 18 2 17 2 17 1 16 1 16 0 15 0 14 0 14 1 13 1 13 2 12 2 12 3 11 3 11 4 10 4 9 4 9 3 8 3 8 2 7 2 7 1 6 1 6 0 5 0 4 0 4 1 3 1 3 2 2 2 2 3 1 3 1 4 0 4 0 5 0 6 1 6 1 7 2 7 2 8 3 8 3 9 4 9 4 10 4 11 3 11 3 12 2 12 2 13 1 13 1 14 0 14 0 15 0 16 1 16 1 17 2 17 2 18 3 18 3 19 4 19 4 20 5 20 6 20 6 19 7 19 7 18 8 18 8 17 9 17 9 16 10 16 11 16 11 17 12 17 12 18 13 18 13 19 14 19 14 20 15 20 16 20 16 19 17 19 17 18 18 18 18 17 19 17 19 16 20 16 20 15 20 14 19 14 19 13 18 13 18 12 17 12 17 11 16 11 16 10 16 9 17 9 17 8 18 8 18 7 19 7 19 6 20 6 20 5 20 4 19 4"/><polygon points="39 4 39 3 38 3 38 2 37 2 37 1 36 1 36 0 35 0 34 0 34 1 33 1 33 2 32 2 32 3 31 3 31 4 30 4 29 4 29 3 28 3 28 2 27 2 27 1 26 1 26 0 25 0 24 0 24 1 23 1 23 2 22 2 22 3 21 3 21 4 20 4 20 5 20 6 21 6 21 7 22 7 22 8 23 8 23 9 24 9 24 10 24 11 23 11 23 12 22 12 22 13 21 13 21 14 20 14 20 15 20 16 21 16 21 17 22 17 22 18 23 18 23 19 24 19 24 20 25 20 26 20 26 19 27 19 27 18 28 18 28 17 29 17 29 16 30 16 31 16 31 17 32 17 32 18 33 18 33 19 34 19 34 20 35 20 36 20 36 19 37 19 37 18 38 18 38 17 39 17 39 16 40 16 40 15 40 14 39 14 39 13 38 13 38 12 37 12 37 11 36 11 36 10 36 9 37 9 37 8 38 8 38 7 39 7 39 6 40 6 40 5 40 4 39 4"/><polygon points="59 4 59 3 58 3 58 2 57 2 57 1 56 1 56 0 55 0 54 0 54 1 53 1 53 2 52 2 52 3 51 3 51 4 50 4 49 4 49 3 48 3 48 2 47 2 47 1 46 1 46 0 45 0 44 0 44 1 43 1 43 2 42 2 42 3 41 3 41 4 40 4 40 5 40 6 41 6 41 7 42 7 42 8 43 8 43 9 44 9 44 10 44 11 43 11 43 12 42 12 42 13 41 13 41 14 40 14 40 15 40 16 41 16 41 17 42 17 42 18 43 18 43 19 44 19 44 20 45 20 46 20 46 19 47 19 47 18 48 18 48 17 49 17 49 16 50 16 51 16 51 17 52 17 52 18 53 18 53 19 54 19 54 20 55 20 56 20 56 19 57 19 57 18 58 18 58 17 59 17 59 16 60 16 60 15 60 14 59 14 59 13 58 13 58 12 57 12 57 11 56 11 56 10 56 9 57 9 57 8 58 8 58 7 59 7 59 6 60 6 60 5 60 4 59 4"/><polygon points="79 4 79 3 78 3 78 2 77 2 77 1 76 1 76 0 75 0 74 0 74 1 73 1 73 2 72 2 72 3 71 3 71 4 70 4 69 4 69 3 68 3 68 2 67 2 67 1 66 1 66 0 65 0 64 0 64 1 63 1 63 2 62 2 62 3 61 3 61 4 60 4 60 5 60 6 61 6 61 7 62 7 62 8 63 8 63 9 64 9 64 10 64 11 63 11 63 12 62 12 62 13 61 13 61 14 60 14 60 15 60 16 61 16 61 17 62 17 62 18 63 18 63 19 64 19 64 20 65 20 66 20 66 19 67 19 67 18 68 18 68 17 69 17 69 16 70 16 71 16 71 17 72 17 72 18 73 18 73 19 74 19 74 20 75 20 76 20 76 19 77 19 77 18 78 18 78 17 79 17 79 16 80 16 80 15 80 14 79 14 79 13 78 13 78 12 77 12 77 11 76 11 76 10 76 9 77 9 77 8 78 8 78 7 79 7 79 6 80 6 80 5 80 4 79 4"/><polygon points="99 4 99 3 98 3 98 2 97 2 97 1 96 1 96 0 95 0 94 0 94 1 93 1 93 2 92 2 92 3 91 3 91 4 90 4 89 4 89 3 88 3 88 2 87 2 87 1 86 1 86 0 85 0 84 0 84 1 83 1 83 2 82 2 82 3 81 3 81 4 80 4 80 5 80 6 81 6 81 7 82 7 82 8 83 8 83 9 84 9 84 10 84 11 83 11 83 12 82 12 82 13 81 13 81 14 80 14 80 15 80 16 81 16 81 17 82 17 82 18 83 18 83 19 84 19 84 20 85 20 86 20 86 19 87 19 87 18 88 18 88 17 89 17 89 16 90 16 91 16 91 17 92 17 92 18 93 18 93 19 94 19 94 20 95 20 96 20 96 19 97 19 97 18 98 18 98 17 99 17 99 16 100 16 100 15 100 14 99 14 99 13 98 13 98 12 97 12 97 11 96 11 96 10 96 9 97 9 97 8 98 8 98 7 99 7 99 6 100 6 100 5 100 4 99 4"/><polygon points="19 24 19 23 18 23 18 22 17 22 17 21 16 21 16 20 15 20 14 20 14 21 13 21 13 22 12 22 12 23 11 23 11 24 10 24 9 24 9 23 8 23 8 22 7 22 7 21 6 21 6 20 5 20 4 20 4 21 3 21 3 22 2 22 2 23 1 23 1 24 0 24 0 25 0 26 1 26 1 27 2 27 2 28 3 28 3 29 4 29 4 30 4 31 3 31 3 32 2 32 2 33 1 33 1 34 0 34 0 35 0 36 1 36 1 37 2 37 2 38 3 38 3 39 4 39 4 40 5 40 6 40 6 39 7 39 7 38 8 38 8 37 9 37 9 36 10 36 11 36 11 37 12 37 12 38 13 38 13 39 14 39 14 40 15 40 16 40 16 39 17 39 17 38 18 38 18 37 19 37 19 36 20 36 20 35 20 34 19 34 19 33 18 33 18 32 17 32 17 31 16 31 16 30 16 29 17 29 17 28 18 28 18 27 19 27 19 26 20 26 20 25 20 24 19 24"/><polygon points="39 24 39 23 38 23 38 22 37 22 37 21 36 21 36 20 35 20 34 20 34 21 33 21 33 22 32 22 32 23 31 23 31 24 30 24 29 24 29 23 28 23 28 22 27 22 27 21 26 21 26 20 25 20 24 20 24 21 23 21 23 22 22 22 22 23 21 23 21 24 20 24 20 25 20 26 21 26 21 27 22 27 22 28 23 28 23 29 24 29 24 30 24 31 23 31 23 32 22 32 22 33 21 33 21 34 20 34 20 35 20 36 21 36 21 37 22 37 22 38 23 38 23 39 24 39 24 40 25 40 26 40 26 39 27 39 27 38 28 38 28 37 29 37 29 36 30 36 31 36 31 37 32 37 32 38 33 38 33 39 34 39 34 40 35 40 36 40 36 39 37 39 37 38 38 38 38 37 39 37 39 36 40 36 40 35 40 34 39 34 39 33 38 33 38 32 37 32 37 31 36 31 36 30 36 29 37 29 37 28 38 28 38 27 39 27 39 26 40 26 40 25 40 24 39 24"/><polygon points="59 24 59 23 58 23 58 22 57 22 57 21 56 21 56 20 55 20 54 20 54 21 53 21 53 22 52 22 52 23 51 23 51 24 50 24 49 24 49 23 48 23 48 22 47 22 47 21 46 21 46 20 45 20 44 20 44 21 43 21 43 22 42 22 42 23 41 23 41 24 40 24 40 25 40 26 41 26 41 27 42 27 42 28 43 28 43 29 44 29 44 30 44 31 43 31 43 32 42 32 42 33 41 33 41 34 40 34 40 35 40 36 41 36 41 37 42 37 42 38 43 38 43 39 44 39 44 40 45 40 46 40 46 39 47 39 47 38 48 38 48 37 49 37 49 36 50 36 51 36 51 37 52 37 52 38 53 38 53 39 54 39 54 40 55 40 56 40 56 39 57 39 57 38 58 38 58 37 59 37 59 36 60 36 60 35 60 34 59 34 59 33 58 33 58 32 57 32 57 31 56 31 56 30 56 29 57 29 57 28 58 28 58 27 59 27 59 26 60 26 60 25 60 24 59 24"/><polygon points="79 24 79 23 78 23 78 22 77 22 77 21 76 21 76 20 75 20 74 20 74 21 73 21 73 22 72 22 72 23 71 23 71 24 70 24 69 24 69 23 68 23 68 22 67 22 67 21 66 21 66 20 65 20 64 20 64 21 63 21 63 22 62 22 62 23 61 23 61 24 60 24 60 25 60 26 61 26 61 27 62 27 62 28 63 28 63 29 64 29 64 30 64 31 63 31 63 32 62 32 62 33 61 33 61 34 60 34 60 35 60 36 61 36 61 37 62 37 62 38 63 38 63 39 64 39 64 40 65 40 66 40 66 39 67 39 67 38 68 38 68 37 69 37 69 36 70 36 71 36 71 37 72 37 72 38 73 38 73 39 74 39 74 40 75 40 76 40 76 39 77 39 77 38 78 38 78 37 79 37 79 36 80 36 80 35 80 34 79 34 79 33 78 33 78 32 77 32 77 31 76 31 76 30 76 29 77 29 77 28 78 28 78 27 79 27 79 26 80 26 80 25 80 24 79 24"/><polygon points="99 24 99 23 98 23 98 22 97 22 97 21 96 21 96 20 95 20 94 20 94 21 93 21 93 22 92 22 92 23 91 23 91 24 90 24 89 24 89 23 88 23 88 22 87 22 87 21 86 21 86 20 85 20 84 20 84 21 83 21 83 22 82 22 82 23 81 23 81 24 80 24 80 25 80 26 81 26 81 27 82 27 82 28 83 28 83 29 84 29 84 30 84 31 83 31 83 32 82 32 82 33 81 33 81 34 80 34 80 35 80 36 81 36 81 37 82 37 82 38 83 38 83 39 84 39 84 40 85 40 86 40 86 39 87 39 87 38 88 38 88 37 89 37 89 36 90 36 91 36 91 37 92 37 92 38 93 38 93 39 94 39 94 40 95 40 96 40 96 39 97 39 97 38 98 38 98 37 99 37 99 36 100 36 100 35 100 34 99 34 99 33 98 33 98 32 97 32 97 31 96 31 96 30 96 29 97 29 97 28 98 28 98 27 99 27 99 26 100 26 100 25 100 24 99 24"/><polygon points="19 44 19 43 18 43 18 42 17 42 17 41 16 41 16 40 15 40 14 40 14 41 13 41 13 42 12 42 12 43 11 43 11 44 10 44 9 44 9 43 8 43 8 42 7 42 7 41 6 41 6 40 5 40 4 40 4 41 3 41 3 42 2 42 2 43 1 43 1 44 0 44 0 45 0 46 1 46 1 47 2 47 2 48 3 48 3 49 4 49 4 50 4 51 3 51 3 52 2 52 2 53 1 53 1 54 0 54 0 55 0 56 1 56 1 57 2 57 2 58 3 58 3 59 4 59 4 60 5 60 6 60 6 59 7 59 7 58 8 58 8 57 9 57 9 56 10 56 11 56 11 57 12 57 12 58 13 58 13 59 14 59 14 60 15 60 16 60 16 59 17 59 17 58 18 58 18 57 19 57 19 56 20 56 20 55 20 54 19 54 19 53 18 53 18 52 17 52 17 51 16 51 16 50 16 49 17 49 17 48 18 48 18 47 19 47 19 46 20 46 20 45 20 44 19 44"/><polygon points="39 44 39 43 38 43 38 42 37 42 37 41 36 41 36 40 35 40 34 40 34 41 33 41 33 42 32 42 32 43 31 43 31 44 30 44 29 44 29 43 28 43 28 42 27 42 27 41 26 41 26 40 25 40 24 40 24 41 23 41 23 42 22 42 22 43 21 43 21 44 20 44 20 45 20 46 21 46 21 47 22 47 22 48 23 48 23 49 24 49 24 50 24 51 23 51 23 52 22 52 22 53 21 53 21 54 20 54 20 55 20 56 21 56 21 57 22 57 22 58 23 58 23 59 24 59 24 60 25 60 26 60 26 59 27 59 27 58 28 58 28 57 29 57 29 56 30 56 31 56 31 57 32 57 32 58 33 58 33 59 34 59 34 60 35 60 36 60 36 59 37 59 37 58 38 58 38 57 39 57 39 56 40 56 40 55 40 54 39 54 39 53 38 53 38 52 37 52 37 51 36 51 36 50 36 49 37 49 37 48 38 48 38 47 39 47 39 46 40 46 40 45 40 44 39 44"/><polygon points="59 44 59 43 58 43 58 42 57 42 57 41 56 41 56 40 55 40 54 40 54 41 53 41 53 42 52 42 52 43 51 43 51 44 50 44 49 44 49 43 48 43 48 42 47 42 47 41 46 41 46 40 45 40 44 40 44 41 43 41 43 42 42 42 42 43 41 43 41 44 40 44 40 45 40 46 41 46 41 47 42 47 42 48 43 48 43 49 44 49 44 50 44 51 43 51 43 52 42 52 42 53 41 53 41 54 40 54 40 55 40 56 41 56 41 57 42 57 42 58 43 58 43 59 44 59 44 60 45 60 46 60 46 59 47 59 47 58 48 58 48 57 49 57 49 56 50 56 51 56 51 57 52 57 52 58 53 58 53 59 54 59 54 60 55 60 56 60 56 59 57 59 57 58 58 58 58 57 59 57 59 56 60 56 60 55 60 54 59 54 59 53 58 53 58 52 57 52 57 51 56 51 56 50 56 49 57 49 57 48 58 48 58 47 59 47 59 46 60 46 60 45 60 44 59 44"/><polygon points="79 44 79 43 78 43 78 42 77 42 77 41 76 41 76 40 75 40 74 40 74 41 73 41 73 42 72 42 72 43 71 43 71 44 70 44 69 44 69 43 68 43 68 42 67 42 67 41 66 41 66 40 65 40 64 40 64 41 63 41 63 42 62 42 62 43 61 43 61 44 60 44 60 45 60 46 61 46 61 47 62 47 62 48 63 48 63 49 64 49 64 50 64 51 63 51 63 52 62 52 62 53 61 53 61 54 60 54 60 55 60 56 61 56 61 57 62 57 62 58 63 58 63 59 64 59 64 60 65 60 66 60 66 59 67 59 67 58 68 58 68 57 69 57 69 56 70 56 71 56 71 57 72 57 72 58 73 58 73 59 74 59 74 60 75 60 76 60 76 59 77 59 77 58 78 58 78 57 79 57 79 56 80 56 80 55 80 54 79 54 79 53 78 53 78 52 77 52 77 51 76 51 76 50 76 49 77 49 77 48 78 48 78 47 79 47 79 46 80 46 80 45 80 44 79 44"/><polygon points="99 44 99 43 98 43 98 42 97 42 97 41 96 41 96 40 95 40 94 40 94 41 93 41 93 42 92 42 92 43 91 43 91 44 90 44 89 44 89 43 88 43 88 42 87 42 87 41 86 41 86 40 85 40 84 40 84 41 83 41 83 42 82 42 82 43 81 43 81 44 80 44 80 45 80 46 81 46 81 47 82 47 82 48 83 48 83 49 84 49 84 50 84 51 83 51 83 52 82 52 82 53 81 53 81 54 80 54 80 55 80 56 81 56 81 57 82 57 82 58 83 58 83 59 84 59 84 60 85 60 86 60 86 59 87 59 87 58 88 58 88 57 89 57 89 56 90 56 91 56 91 57 92 57 92 58 93 58 93 59 94 59 94 60 95 60 96 60 96 59 97 59 97 58 98 58 98 57 99 57 99 56 100 56 100 55 100 54 99 54 99 53 98 53 98 52 97 52 97 51 96 51 96 50 96 49 97 49 97 48 98 48 98 47 99 47 99 46 100 46 100 45 100 44 99 44"/><polygon points="19 64 19 63 18 63 18 62 17 62 17 61 16 61 16 60 15 60 14 60 14 61 13 61 13 62 12 62 12 63 11 63 11 64 10 64 9 64 9 63 8 63 8 62 7 62 7 61 6 61 6 60 5 60 4 60 4 61 3 61 3 62 2 62 2 63 1 63 1 64 0 64 0 65 0 66 1 66 1 67 2 67 2 68 3 68 3 69 4 69 4 70 4 71 3 71 3 72 2 72 2 73 1 73 1 74 0 74 0 75 0 76 1 76 1 77 2 77 2 78 3 78 3 79 4 79 4 80 5 80 6 80 6 79 7 79 7 78 8 78 8 77 9 77 9 76 10 76 11 76 11 77 12 77 12 78 13 78 13 79 14 79 14 80 15 80 16 80 16 79 17 79 17 78 18 78 18 77 19 77 19 76 20 76 20 75 20 74 19 74 19 73 18 73 18 72 17 72 17 71 16 71 16 70 16 69 17 69 17 68 18 68 18 67 19 67 19 66 20 66 20 65 20 64 19 64"/><polygon points="39 64 39 63 38 63 38 62 37 62 37 61 36 61 36 60 35 60 34 60 34 61 33 61 33 62 32 62 32 63 31 63 31 64 30 64 29 64 29 63 28 63 28 62 27 62 27 61 26 61 26 60 25 60 24 60 24 61 23 61 23 62 22 62 22 63 21 63 21 64 20 64 20 65 20 66 21 66 21 67 22 67 22 68 23 68 23 69 24 69 24 70 24 71 23 71 23 72 22 72 22 73 21 73 21 74 20 74 20 75 20 76 21 76 21 77 22 77 22 78 23 78 23 79 24 79 24 80 25 80 26 80 26 79 27 79 27 78 28 78 28 77 29 77 29 76 30 76 31 76 31 77 32 77 32 78 33 78 33 79 34 79 34 80 35 80 36 80 36 79 37 79 37 78 38 78 38 77 39 77 39 76 40 76 40 75 40 74 39 74 39 73 38 73 38 72 37 72 37 71 36 71 36 70 36 69 37 69 37 68 38 68 38 67 39 67 39 66 40 66 40 65 40 64 39 64"/><polygon points="59 64 59 63 58 63 58 62 57 62 57 61 56 61 56 60 55 60 54 60 54 61 53 61 53 62 52 62 52 63 51 63 51 64 50 64 49 64 49 63 48 63 48 62 47 62 47 61 46 61 46 60 45 60 44 60 44 61 43 61 43 62 42 62 42 63 41 63 41 64 40 64 40 65 40 66 41 66 41 67 42 67 42 68 43 68 43 69 44 69 44 70 44 71 43 71 43 72 42 72 42 73 41 73 41 74 40 74 40 75 40 76 41 76 41 77 42 77 42 78 43 78 43 79 44 79 44 80 45 80 46 80 46 79 47 79 47 78 48 78 48 77 49 77 49 76 50 76 51 76 51 77 52 77 52 78 53 78 53 79 54 79 54 80 55 80 56 80 56 79 57 79 57 78 58 78 58 77 59 77 59 76 60 76 60 75 60 74 59 74 59 73 58 73 58 72 57 72 57 71 56 71 56 70 56 69 57 69 57 68 58 68 58 67 59 67 59 66 60 66 60 65 60 64 59 64"/><polygon points="79 64 79 63 78 63 78 62 77 62 77 61 76 61 76 60 75 60 74 60 74 61 73 61 73 62 72 62 72 63 71 63 71 64 70 64 69 64 69 63 68 63 68 62 67 62 67 61 66 61 66 60 65 60 64 60 64 61 63 61 63 62 62 62 62 63 61 63 61 64 60 64 60 65 60 66 61 66 61 67 62 67 62 68 63 68 63 69 64 69 64 70 64 71 63 71 63 72 62 72 62 73 61 73 61 74 60 74 60 75 60 76 61 76 61 77 62 77 62 78 63 78 63 79 64 79 64 80 65 80 66 80 66 79 67 79 67 78 68 78 68 77 69 77 69 76 70 76 71 76 71 77 72 77 72 78 73 78 73 79 74 79 74 80 75 80 76 80 76 79 77 79 77 78 78 78 78 77 79 77 79 76 80 76 80 75 80 74 79 74 79 73 78 73 78 72 77 72 77 71 76 71 76 70 76 69 77 69 77 68 78 68 78 67 79 67 79 66 80 66 80 65 80 64 79 64"/><polygon points="99 64 99 63 98 63 98 62 97 62 97 61 96 61 96 60 95 60 94 60 94 61 93 61 93 62 92 62 92 63 91 63 91 64 90 64 89 64 89 63 88 63 88 62 87 62 87 61 86 61 86 60 85 60 84 60 84 61 83 61 83 62 82 62 82 63 81 63 81 64 80 64 80 65 80 66 81 66 81 67 82 67 82 68 83 68 83 69 84 69 84 70 84 71 83 71 83 72 82 72 82 73 81 73 81 74 80 74 80 75 80 76 81 76 81 77 82 77 82 78 83 78 83 79 84 79 84 80 85 80 86 80 86 79 87 79 87 78 88 78 88 77 89 77 89 76 90 76 91 76 91 77 92 77 92 78 93 78 93 79 94 79 94 80 95 80 96 80 96 79 97 79 97 78 98 78 98 77 99 77 99 76 100 76 100 75 100 74 99 74 99 73 98 73 98 72 97 72 97 71 96 71 96 70 96 69 97 69 97 68 98 68 98 67 99 67 99 66 100 66 100 65 100 64 99 64"/><polygon points="19 84 19 83 18 83 18 82 17 82 17 81 16 81 16 80 15 80 14 80 14 81 13 81 13 82 12 82 12 83 11 83 11 84 10 84 9 84 9 83 8 83 8 82 7 82 7 81 6 81 6 80 5 80 4 80 4 81 3 81 3 82 2 82 2 83 1 83 1 84 0 84 0 85 0 86 1 86 1 87 2 87 2 88 3 88 3 89 4 89 4 90 4 91 3 91 3 92 2 92 2 93 1 93 1 94 0 94 0 95 0 96 1 96 1 97 2 97 2 98 3 98 3 99 4 99 4 100 5 100 6 100 6 99 7 99 7 98 8 98 8 97 9 97 9 96 10 96 11 96 11 97 12 97 12 98 13 98 13 99 14 99 14 100 15 100 16 100 16 99 17 99 17 98 18 98 18 97 19 97 19 96 20 96 20 95 20 94 19 94 19 93 18 93 18 92 17 92 17 91 16 91 16 90 16 89 17 89 17 88 18 88 18 87 19 87 19 86 20 86 20 85 20 84 19 84"/><polygon points="39 84 39 83 38 83 38 82 37 82 37 81 36 81 36 80 35 80 34 80 34 81 33 81 33 82 32 82 32 83 31 83 31 84 30 84 29 84 29 83 28 83 28 82 27 82 27 81 26 81 26 80 25 80 24 80 24 81 23 81 23 82 22 82 22 83 21 83 21 84 20 84 20 85 20 86 21 86 21 87 22 87 22 88 23 88 23 89 24 89 24 90 24 91 23 91 23 92 22 92 22 93 21 93 21 94 20 94 20 95 20 96 21 96 21 97 22 97 22 98 23 98 23 99 24 99 24 100 25 100 26 100 26 99 27 99 27 98 28 98 28 97 29 97 29 96 30 96 31 96 31 97 32 97 32 98 33 98 33 99 34 99 34 100 35 100 36 100 36 99 37 99 37 98 38 98 38 97 39 97 39 96 40 96 40 95 40 94 39 94 39 93 38 93 38 92 37 92 37 91 36 91 36 90 36 89 37 89 37 88 38 88 38 87 39 87 39 86 40 86 40 85 40 84 39 84"/><polygon points="59 84 59 83 58 83 58 82 57 82 57 81 56 81 56 80 55 80 54 80 54 81 53 81 53 82 52 82 52 83 51 83 51 84 50 84 49 84 49 83 48 83 48 82 47 82 47 81 46 81 46 80 45 80 44 80 44 81 43 81 43 82 42 82 42 83 41 83 41 84 40 84 40 85 40 86 41 86 41 87 42 87 42 88 43 88 43 89 44 89 44 90 44 91 43 91 43 92 42 92 42 93 41 93 41 94 40 94 40 95 40 96 41 96 41 97 42 97 42 98 43 98 43 99 44 99 44 100 45 100 46 100 46 99 47 99 47 98 48 98 48 97 49 97 49 96 50 96 51 96 51 97 52 97 52 98 53 98 53 99 54 99 54 100 55 100 56 100 56 99 57 99 57 98 58 98 58 97 59 97 59 96 60 96 60 95 60 94 59 94 59 93 58 93 58 92 57 92 57 91 56 91 56 90 56 89 57 89 57 88 58 88 58 87 59 87 59 86 60 86 60 85 60 84 59 84"/><polygon points="79 84 79 83 78 83 78 82 77 82 77 81 76 81 76 80 75 80 74 80 74 81 73 81 73 82 72 82 72 83 71 83 71 84 70 84 69 84 69 83 68 83 68 82 67 82 67 81 66 81 66 80 65 80 64 80 64 81 63 81 63 82 62 82 62 83 61 83 61 84 60 84 60 85 60 86 61 86 61 87 62 87 62 88 63 88 63 89 64 89 64 90 64 91 63 91 63 92 62 92 62 93 61 93 61 94 60 94 60 95 60 96 61 96 61 97 62 97 62 98 63 98 63 99 64 99 64 100 65 100 66 100 66 99 67 99 67 98 68 98 68 97 69 97 69 96 70 96 71 96 71 97 72 97 72 98 73 98 73 99 74 99 74 100 75 100 76 100 76 99 77 99 77 98 78 98 78 97 79 97 79 96 80 96 80 95 80 94 79 94 79 93 78 93 78 92 77 92 77 91 76 91 76 90 76 89 77 89 77 88 78 88 78 87 79 87 79 86 80 86 80 85 80 84 79 84"/><polygon points="99 84 99 83 98 83 98 82 97 82 97 81 96 81 96 80 95 80 94 80 94 81 93 81 93 82 92 82 92 83 91 83 91 84 90 84 89 84 89 83 88 83 88 82 87 82 87 81 86 81 86 80 85 80 84 80 84 81 83 81 83 82 82 82 82 83 81 83 81 84 80 84 80 85 80 86 81 86 81 87 82 87 82 88 83 88 83 89 84 89 84 90 84 91 83 91 83 92 82 92 82 93 81 93 81 94 80 94 80 95 80 96 81 96 81 97 82 97 82 98 83 98 83 99 84 99 84 100 85 100 86 100 86 99 87 99 87 98 88 98 88 97 89 97 89 96 90 96 91 96 91 97 92 97 92 98 93 98 93 99 94 99 94 100 95 100 96 100 96 99 97 99 97 98 98 98 98 97 99 97 99 96 100 96 100 95 100 94 99 94 99 93 98 93 98 92 97 92 97 91 96 91 96 90 96 89 97 89 97 88 98 88 98 87 99 87 99 86 100 86 100 85 100 84 99 84"/></svg>