<svg id="Layer_1" data-name="Layer 1" xmlns="http://www.w3.org/2000/svg" viewBox="0 0 100 100"><title>pattern</title><polygon points="20 7 30 7 30 10 40 10 40 7 50 7 50 10 60 10 60 7 70 7 70 10 80 10 80 7 90 7 90 10 100 10 100 3 90 3 90 0 80 0 80 3 70 3 70 0 60 0 60 3 50 3 50 0 40 0 40 3 30 3 30 0 20 0 20 3 10 3 10 0 0 0 0 7 10 7 10 10 20 10 20 7"/><polygon points="80 10 80 13 70 13 70 10 60 10 60 13 50 13 50 10 40 10 40 13 30 13 30 10 20 10 20 13 10 13 10 10 0 10 0 17 10 17 10 20 20 20 20 17 30 17 30 20 40 20 40 17 50 17 50 20 60 20 60 17 70 17 70 20 80 20 80 17 90 17 90 20 100 20 100 13 90 13 90 10 80 10"/><polygon points="80 23 70 23 70 20 60 20 60 23 50 23 50 20 40 20 40 23 30 23 30 20 20 20 20 23 10 23 10 20 0 20 0 27 10 27 10 30 20 30 20 27 30 27 30 30 40 30 40 27 50 27 50 30 60 30 60 27 70 27 70 30 80 30 80 27 90 27 90 30 100 30 100 23 90 23 90 20 80 20 80 23"/><polygon points="80 33 70 33 70 30 60 30 60 33 50 33 50 30 40 30 40 33 30 33 30 30 20 30 20 33 10 33 10 30 0 30 0 37 10 37 10 40 20 40 20 37 30 37 30 40 40 40 40 37 50 37 50 40 60 40 60 37 70 37 70 40 80 40 80 37 90 37 90 40 100 40 100 33 90 33 90 30 80 30 80 33"/><polygon points="80 43 70 43 70 40 60 40 60 43 50 43 50 40 40 40 40 43 30 43 30 40 20 40 20 43 10 43 10 40 0 40 0 47 10 47 10 50 20 50 20 47 30 47 30 50 40 50 40 47 50 47 50 50 60 50 60 47 70 47 70 50 80 50 80 47 90 47 90 50 100 50 100 43 90 43 90 40 80 40 80 43"/><polygon points="80 53 70 53 70 50 60 50 60 53 50 53 50 50 40 50 40 53 30 53 30 50 20 50 20 53 10 53 10 50 0 50 0 57 10 57 10 60 20 60 20 57 30 57 30 60 40 60 40 57 50 57 50 60 60 60 60 57 70 57 70 60 80 60 80 57 90 57 90 60 100 60 100 53 90 53 90 50 80 50 80 53"/><polygon points="80 63 70 63 70 60 60 60 60 63 50 63 50 60 40 60 40 63 30 63 30 60 20 60 20 63 10 63 10 60 0 60 0 67 10 67 10 70 20 70 20 67 30 67 30 70 40 70 40 67 50 67 50 70 60 70 60 67 70 67 70 70 80 70 80 67 90 67 90 70 100 70 100 63 90 63 90 60 80 60 80 63"/><polygon points="80 73 70 73 70 70 60 70 60 73 50 73 50 70 40 70 40 73 30 73 30 70 20 70 20 73 10 73 10 70 0 70 0 77 10 77 10 80 20 80 20 77 30 77 30 80 40 80 40 77 50 77 50 80 60 80 60 77 70 77 70 80 80 80 80 77 90 77 90 80 100 80 100 73 90 73 90 70 80 70 80 73"/><polygon points="80 83 70 83 70 80 60 80 60 83 50 83 50 80 40 80 40 83 30 83 30 80 20 80 20 83 10 83 10 80 0 80 0 87 10 87 10 90 20 90 20 87 30 87 30 90 40 90 40 87 50 87 50 90 60 90 60 87 70 87 70 90 80 90 80 87 90 87 90 90 100 90 100 83 90 83 90 80 80 80 80 83"/><polygon points="80 93 70 93 70 90 60 90 60 93 50 93 50 90 40 90 40 93 30 93 30 90 20 90 20 93 10 93 10 90 0 90 0 97 10 97 10 100 20 100 20 97 30 97 30 100 40 100 40 97 50 97 50 100 60 100 60 97 70 97 70 100 80 100 80 97 90 97 90 100 100 100 100 93 90 93 90 90 80 90 80 93"/></svg>