<svg id="Layer_1" data-name="Layer 1" xmlns="http://www.w3.org/2000/svg" viewBox="0 0 100 100"><title>pattern</title><rect width="5" height="5"/><rect x="6" y="1" width="3" height="3"/><rect x="1" y="6" width="3" height="3"/><rect x="5" y="5" width="5" height="5"/><rect x="10" width="5" height="5"/><rect x="16" y="1" width="3" height="3"/><rect x="11" y="6" width="3" height="3"/><rect x="15" y="5" width="5" height="5"/><rect x="20" width="5" height="5"/><rect x="26" y="1" width="3" height="3"/><rect x="21" y="6" width="3" height="3"/><rect x="25" y="5" width="5" height="5"/><rect x="30" width="5" height="5"/><rect x="36" y="1" width="3" height="3"/><rect x="31" y="6" width="3" height="3"/><rect x="35" y="5" width="5" height="5"/><rect x="40" width="5" height="5"/><rect x="46" y="1" width="3" height="3"/><rect x="41" y="6" width="3" height="3"/><rect x="45" y="5" width="5" height="5"/><rect x="50" width="5" height="5"/><rect x="56" y="1" width="3" height="3"/><rect x="51" y="6" width="3" height="3"/><rect x="55" y="5" width="5" height="5"/><rect x="60" width="5" height="5"/><rect x="66" y="1" width="3" height="3"/><rect x="61" y="6" width="3" height="3"/><rect x="65" y="5" width="5" height="5"/><rect x="70" width="5" height="5"/><rect x="76" y="1" width="3" height="3"/><rect x="71" y="6" width="3" height="3"/><rect x="75" y="5" width="5" height="5"/><rect x="80" width="5" height="5"/><rect x="86" y="1" width="3" height="3"/><rect x="81" y="6" width="3" height="3"/><rect x="85" y="5" width="5" height="5"/><rect x="90" width="5" height="5"/><rect x="96" y="1" width="3" height="3"/><rect x="91" y="6" width="3" height="3"/><rect x="95" y="5" width="5" height="5"/><rect y="10" width="5" height="5"/><rect x="6" y="11" width="3" height="3"/><rect x="1" y="16" width="3" height="3"/><rect x="5" y="15" width="5" height="5"/><rect x="10" y="10" width="5" height="5"/><rect x="16" y="11" width="3" height="3"/><rect x="11" y="16" width="3" height="3"/><rect x="15" y="15" width="5" height="5"/><rect x="20" y="10" width="5" height="5"/><rect x="26" y="11" width="3" height="3"/><rect x="21" y="16" width="3" height="3"/><rect x="25" y="15" width="5" height="5"/><rect x="30" y="10" width="5" height="5"/><rect x="36" y="11" width="3" height="3"/><rect x="31" y="16" width="3" height="3"/><rect x="35" y="15" width="5" height="5"/><rect x="40" y="10" width="5" height="5"/><rect x="46" y="11" width="3" height="3"/><rect x="41" y="16" width="3" height="3"/><rect x="45" y="15" width="5" height="5"/><rect x="50" y="10" width="5" height="5"/><rect x="56" y="11" width="3" height="3"/><rect x="51" y="16" width="3" height="3"/><rect x="55" y="15" width="5" height="5"/><rect x="60" y="10" width="5" height="5"/><rect x="66" y="11" width="3" height="3"/><rect x="61" y="16" width="3" height="3"/><rect x="65" y="15" width="5" height="5"/><rect x="70" y="10" width="5" height="5"/><rect x="76" y="11" width="3" height="3"/><rect x="71" y="16" width="3" height="3"/><rect x="75" y="15" width="5" height="5"/><rect x="80" y="10" width="5" height="5"/><rect x="86" y="11" width="3" height="3"/><rect x="81" y="16" width="3" height="3"/><rect x="85" y="15" width="5" height="5"/><rect x="90" y="10" width="5" height="5"/><rect x="96" y="11" width="3" height="3"/><rect x="91" y="16" width="3" height="3"/><rect x="95" y="15" width="5" height="5"/><rect y="20" width="5" height="5"/><rect x="6" y="21" width="3" height="3"/><rect x="1" y="26" width="3" height="3"/><rect x="5" y="25" width="5" height="5"/><rect x="10" y="20" width="5" height="5"/><rect x="16" y="21" width="3" height="3"/><rect x="11" y="26" width="3" height="3"/><rect x="15" y="25" width="5" height="5"/><rect x="20" y="20" width="5" height="5"/><rect x="26" y="21" width="3" height="3"/><rect x="21" y="26" width="3" height="3"/><rect x="25" y="25" width="5" height="5"/><rect x="30" y="20" width="5" height="5"/><rect x="36" y="21" width="3" height="3"/><rect x="31" y="26" width="3" height="3"/><rect x="35" y="25" width="5" height="5"/><rect x="40" y="20" width="5" height="5"/><rect x="46" y="21" width="3" height="3"/><rect x="41" y="26" width="3" height="3"/><rect x="45" y="25" width="5" height="5"/><rect x="50" y="20" width="5" height="5"/><rect x="56" y="21" width="3" height="3"/><rect x="51" y="26" width="3" height="3"/><rect x="55" y="25" width="5" height="5"/><rect x="60" y="20" width="5" height="5"/><rect x="66" y="21" width="3" height="3"/><rect x="61" y="26" width="3" height="3"/><rect x="65" y="25" width="5" height="5"/><rect x="70" y="20" width="5" height="5"/><rect x="76" y="21" width="3" height="3"/><rect x="71" y="26" width="3" height="3"/><rect x="75" y="25" width="5" height="5"/><rect x="80" y="20" width="5" height="5"/><rect x="86" y="21" width="3" height="3"/><rect x="81" y="26" width="3" height="3"/><rect x="85" y="25" width="5" height="5"/><rect x="90" y="20" width="5" height="5"/><rect x="96" y="21" width="3" height="3"/><rect x="91" y="26" width="3" height="3"/><rect x="95" y="25" width="5" height="5"/><rect y="30" width="5" height="5"/><rect x="6" y="31" width="3" height="3"/><rect x="1" y="36" width="3" height="3"/><rect x="5" y="35" width="5" height="5"/><rect x="10" y="30" width="5" height="5"/><rect x="16" y="31" width="3" height="3"/><rect x="11" y="36" width="3" height="3"/><rect x="15" y="35" width="5" height="5"/><rect x="20" y="30" width="5" height="5"/><rect x="26" y="31" width="3" height="3"/><rect x="21" y="36" width="3" height="3"/><rect x="25" y="35" width="5" height="5"/><rect x="30" y="30" width="5" height="5"/><rect x="36" y="31" width="3" height="3"/><rect x="31" y="36" width="3" height="3"/><rect x="35" y="35" width="5" height="5"/><rect x="40" y="30" width="5" height="5"/><rect x="46" y="31" width="3" height="3"/><rect x="41" y="36" width="3" height="3"/><rect x="45" y="35" width="5" height="5"/><rect x="50" y="30" width="5" height="5"/><rect x="56" y="31" width="3" height="3"/><rect x="51" y="36" width="3" height="3"/><rect x="55" y="35" width="5" height="5"/><rect x="60" y="30" width="5" height="5"/><rect x="66" y="31" width="3" height="3"/><rect x="61" y="36" width="3" height="3"/><rect x="65" y="35" width="5" height="5"/><rect x="70" y="30" width="5" height="5"/><rect x="76" y="31" width="3" height="3"/><rect x="71" y="36" width="3" height="3"/><rect x="75" y="35" width="5" height="5"/><rect x="80" y="30" width="5" height="5"/><rect x="86" y="31" width="3" height="3"/><rect x="81" y="36" width="3" height="3"/><rect x="85" y="35" width="5" height="5"/><rect x="90" y="30" width="5" height="5"/><rect x="96" y="31" width="3" height="3"/><rect x="91" y="36" width="3" height="3"/><rect x="95" y="35" width="5" height="5"/><rect y="40" width="5" height="5"/><rect x="6" y="41" width="3" height="3"/><rect x="1" y="46" width="3" height="3"/><rect x="5" y="45" width="5" height="5"/><rect x="10" y="40" width="5" height="5"/><rect x="16" y="41" width="3" height="3"/><rect x="11" y="46" width="3" height="3"/><rect x="15" y="45" width="5" height="5"/><rect x="20" y="40" width="5" height="5"/><rect x="26" y="41" width="3" height="3"/><rect x="21" y="46" width="3" height="3"/><rect x="25" y="45" width="5" height="5"/><rect x="30" y="40" width="5" height="5"/><rect x="36" y="41" width="3" height="3"/><rect x="31" y="46" width="3" height="3"/><rect x="35" y="45" width="5" height="5"/><rect x="40" y="40" width="5" height="5"/><rect x="46" y="41" width="3" height="3"/><rect x="41" y="46" width="3" height="3"/><rect x="45" y="45" width="5" height="5"/><rect x="50" y="40" width="5" height="5"/><rect x="56" y="41" width="3" height="3"/><rect x="51" y="46" width="3" height="3"/><rect x="55" y="45" width="5" height="5"/><rect x="60" y="40" width="5" height="5"/><rect x="66" y="41" width="3" height="3"/><rect x="61" y="46" width="3" height="3"/><rect x="65" y="45" width="5" height="5"/><rect x="70" y="40" width="5" height="5"/><rect x="76" y="41" width="3" height="3"/><rect x="71" y="46" width="3" height="3"/><rect x="75" y="45" width="5" height="5"/><rect x="80" y="40" width="5" height="5"/><rect x="86" y="41" width="3" height="3"/><rect x="81" y="46" width="3" height="3"/><rect x="85" y="45" width="5" height="5"/><rect x="90" y="40" width="5" height="5"/><rect x="96" y="41" width="3" height="3"/><rect x="91" y="46" width="3" height="3"/><rect x="95" y="45" width="5" height="5"/><rect y="50" width="5" height="5"/><rect x="6" y="51" width="3" height="3"/><rect x="1" y="56" width="3" height="3"/><rect x="5" y="55" width="5" height="5"/><rect x="10" y="50" width="5" height="5"/><rect x="16" y="51" width="3" height="3"/><rect x="11" y="56" width="3" height="3"/><rect x="15" y="55" width="5" height="5"/><rect x="20" y="50" width="5" height="5"/><rect x="26" y="51" width="3" height="3"/><rect x="21" y="56" width="3" height="3"/><rect x="25" y="55" width="5" height="5"/><rect x="30" y="50" width="5" height="5"/><rect x="36" y="51" width="3" height="3"/><rect x="31" y="56" width="3" height="3"/><rect x="35" y="55" width="5" height="5"/><rect x="40" y="50" width="5" height="5"/><rect x="46" y="51" width="3" height="3"/><rect x="41" y="56" width="3" height="3"/><rect x="45" y="55" width="5" height="5"/><rect x="50" y="50" width="5" height="5"/><rect x="56" y="51" width="3" height="3"/><rect x="51" y="56" width="3" height="3"/><rect x="55" y="55" width="5" height="5"/><rect x="60" y="50" width="5" height="5"/><rect x="66" y="51" width="3" height="3"/><rect x="61" y="56" width="3" height="3"/><rect x="65" y="55" width="5" height="5"/><rect x="70" y="50" width="5" height="5"/><rect x="76" y="51" width="3" height="3"/><rect x="71" y="56" width="3" height="3"/><rect x="75" y="55" width="5" height="5"/><rect x="80" y="50" width="5" height="5"/><rect x="86" y="51" width="3" height="3"/><rect x="81" y="56" width="3" height="3"/><rect x="85" y="55" width="5" height="5"/><rect x="90" y="50" width="5" height="5"/><rect x="96" y="51" width="3" height="3"/><rect x="91" y="56" width="3" height="3"/><rect x="95" y="55" width="5" height="5"/><rect y="60" width="5" height="5"/><rect x="6" y="61" width="3" height="3"/><rect x="1" y="66" width="3" height="3"/><rect x="5" y="65" width="5" height="5"/><rect x="10" y="60" width="5" height="5"/><rect x="16" y="61" width="3" height="3"/><rect x="11" y="66" width="3" height="3"/><rect x="15" y="65" width="5" height="5"/><rect x="20" y="60" width="5" height="5"/><rect x="26" y="61" width="3" height="3"/><rect x="21" y="66" width="3" height="3"/><rect x="25" y="65" width="5" height="5"/><rect x="30" y="60" width="5" height="5"/><rect x="36" y="61" width="3" height="3"/><rect x="31" y="66" width="3" height="3"/><rect x="35" y="65" width="5" height="5"/><rect x="40" y="60" width="5" height="5"/><rect x="46" y="61" width="3" height="3"/><rect x="41" y="66" width="3" height="3"/><rect x="45" y="65" width="5" height="5"/><rect x="50" y="60" width="5" height="5"/><rect x="56" y="61" width="3" height="3"/><rect x="51" y="66" width="3" height="3"/><rect x="55" y="65" width="5" height="5"/><rect x="60" y="60" width="5" height="5"/><rect x="66" y="61" width="3" height="3"/><rect x="61" y="66" width="3" height="3"/><rect x="65" y="65" width="5" height="5"/><rect x="70" y="60" width="5" height="5"/><rect x="76" y="61" width="3" height="3"/><rect x="71" y="66" width="3" height="3"/><rect x="75" y="65" width="5" height="5"/><rect x="80" y="60" width="5" height="5"/><rect x="86" y="61" width="3" height="3"/><rect x="81" y="66" width="3" height="3"/><rect x="85" y="65" width="5" height="5"/><rect x="90" y="60" width="5" height="5"/><rect x="96" y="61" width="3" height="3"/><rect x="91" y="66" width="3" height="3"/><rect x="95" y="65" width="5" height="5"/><rect y="70" width="5" height="5"/><rect x="6" y="71" width="3" height="3"/><rect x="1" y="76" width="3" height="3"/><rect x="5" y="75" width="5" height="5"/><rect x="10" y="70" width="5" height="5"/><rect x="16" y="71" width="3" height="3"/><rect x="11" y="76" width="3" height="3"/><rect x="15" y="75" width="5" height="5"/><rect x="20" y="70" width="5" height="5"/><rect x="26" y="71" width="3" height="3"/><rect x="21" y="76" width="3" height="3"/><rect x="25" y="75" width="5" height="5"/><rect x="30" y="70" width="5" height="5"/><rect x="36" y="71" width="3" height="3"/><rect x="31" y="76" width="3" height="3"/><rect x="35" y="75" width="5" height="5"/><rect x="40" y="70" width="5" height="5"/><rect x="46" y="71" width="3" height="3"/><rect x="41" y="76" width="3" height="3"/><rect x="45" y="75" width="5" height="5"/><rect x="50" y="70" width="5" height="5"/><rect x="56" y="71" width="3" height="3"/><rect x="51" y="76" width="3" height="3"/><rect x="55" y="75" width="5" height="5"/><rect x="60" y="70" width="5" height="5"/><rect x="66" y="71" width="3" height="3"/><rect x="61" y="76" width="3" height="3"/><rect x="65" y="75" width="5" height="5"/><rect x="70" y="70" width="5" height="5"/><rect x="76" y="71" width="3" height="3"/><rect x="71" y="76" width="3" height="3"/><rect x="75" y="75" width="5" height="5"/><rect x="80" y="70" width="5" height="5"/><rect x="86" y="71" width="3" height="3"/><rect x="81" y="76" width="3" height="3"/><rect x="85" y="75" width="5" height="5"/><rect x="90" y="70" width="5" height="5"/><rect x="96" y="71" width="3" height="3"/><rect x="91" y="76" width="3" height="3"/><rect x="95" y="75" width="5" height="5"/><rect y="80" width="5" height="5"/><rect x="6" y="81" width="3" height="3"/><rect x="1" y="86" width="3" height="3"/><rect x="5" y="85" width="5" height="5"/><rect x="10" y="80" width="5" height="5"/><rect x="16" y="81" width="3" height="3"/><rect x="11" y="86" width="3" height="3"/><rect x="15" y="85" width="5" height="5"/><rect x="20" y="80" width="5" height="5"/><rect x="26" y="81" width="3" height="3"/><rect x="21" y="86" width="3" height="3"/><rect x="25" y="85" width="5" height="5"/><rect x="30" y="80" width="5" height="5"/><rect x="36" y="81" width="3" height="3"/><rect x="31" y="86" width="3" height="3"/><rect x="35" y="85" width="5" height="5"/><rect x="40" y="80" width="5" height="5"/><rect x="46" y="81" width="3" height="3"/><rect x="41" y="86" width="3" height="3"/><rect x="45" y="85" width="5" height="5"/><rect x="50" y="80" width="5" height="5"/><rect x="56" y="81" width="3" height="3"/><rect x="51" y="86" width="3" height="3"/><rect x="55" y="85" width="5" height="5"/><rect x="60" y="80" width="5" height="5"/><rect x="66" y="81" width="3" height="3"/><rect x="61" y="86" width="3" height="3"/><rect x="65" y="85" width="5" height="5"/><rect x="70" y="80" width="5" height="5"/><rect x="76" y="81" width="3" height="3"/><rect x="71" y="86" width="3" height="3"/><rect x="75" y="85" width="5" height="5"/><rect x="80" y="80" width="5" height="5"/><rect x="86" y="81" width="3" height="3"/><rect x="81" y="86" width="3" height="3"/><rect x="85" y="85" width="5" height="5"/><rect x="90" y="80" width="5" height="5"/><rect x="96" y="81" width="3" height="3"/><rect x="91" y="86" width="3" height="3"/><rect x="95" y="85" width="5" height="5"/><rect y="90" width="5" height="5"/><rect x="6" y="91" width="3" height="3"/><rect x="1" y="96" width="3" height="3"/><rect x="5" y="95" width="5" height="5"/><rect x="10" y="90" width="5" height="5"/><rect x="16" y="91" width="3" height="3"/><rect x="11" y="96" width="3" height="3"/><rect x="15" y="95" width="5" height="5"/><rect x="20" y="90" width="5" height="5"/><rect x="26" y="91" width="3" height="3"/><rect x="21" y="96" width="3" height="3"/><rect x="25" y="95" width="5" height="5"/><rect x="30" y="90" width="5" height="5"/><rect x="36" y="91" width="3" height="3"/><rect x="31" y="96" width="3" height="3"/><rect x="35" y="95" width="5" height="5"/><rect x="40" y="90" width="5" height="5"/><rect x="46" y="91" width="3" height="3"/><rect x="41" y="96" width="3" height="3"/><rect x="45" y="95" width="5" height="5"/><rect x="50" y="90" width="5" height="5"/><rect x="56" y="91" width="3" height="3"/><rect x="51" y="96" width="3" height="3"/><rect x="55" y="95" width="5" height="5"/><rect x="60" y="90" width="5" height="5"/><rect x="66" y="91" width="3" height="3"/><rect x="61" y="96" width="3" height="3"/><rect x="65" y="95" width="5" height="5"/><rect x="70" y="90" width="5" height="5"/><rect x="76" y="91" width="3" height="3"/><rect x="71" y="96" width="3" height="3"/><rect x="75" y="95" width="5" height="5"/><rect x="80" y="90" width="5" height="5"/><rect x="86" y="91" width="3" height="3"/><rect x="81" y="96" width="3" height="3"/><rect x="85" y="95" width="5" height="5"/><rect x="90" y="90" width="5" height="5"/><rect x="96" y="91" width="3" height="3"/><rect x="91" y="96" width="3" height="3"/><rect x="95" y="95" width="5" height="5"/></svg>