<svg id="Layer_1" data-name="Layer 1" xmlns="http://www.w3.org/2000/svg" viewBox="0 0 100 100"><title>pattern</title><polygon points="1 7 2 7 2 6 3 6 3 5 4 5 4 4 5 4 5 3 6 3 6 2 7 2 7 1 8 1 8 0 0 0 0 8 1 8 1 7"/><polygon points="99 1 99 2 98 2 98 3 97 3 97 4 96 4 96 5 95 5 95 6 94 6 94 7 93 7 93 8 92 8 92 9 91 9 91 10 90 10 90 11 89 11 89 12 88 12 88 13 87 13 87 14 86 14 86 15 85 15 85 16 84 16 84 17 83 17 83 18 82 18 82 19 81 19 81 20 80 20 80 21 79 21 79 22 78 22 78 23 77 23 77 24 76 24 76 25 75 25 75 26 74 26 74 27 73 27 73 28 72 28 72 29 71 29 71 30 70 30 70 31 69 31 69 32 68 32 68 33 67 33 67 34 66 34 66 35 65 35 65 36 64 36 64 37 63 37 63 38 62 38 62 39 61 39 61 40 60 40 60 41 59 41 59 42 58 42 58 43 57 43 57 44 56 44 56 45 55 45 55 46 54 46 54 47 53 47 53 48 52 48 52 49 51 49 51 50 52 50 52 51 53 51 53 52 54 52 54 53 55 53 55 54 56 54 56 55 57 55 57 56 58 56 58 57 59 57 59 58 60 58 60 59 61 59 61 60 62 60 62 61 63 61 63 62 64 62 64 63 65 63 65 64 66 64 66 65 67 65 67 66 68 66 68 67 69 67 69 68 70 68 70 69 71 69 71 70 72 70 72 71 73 71 73 72 74 72 74 73 75 73 75 74 76 74 76 75 77 75 77 76 78 76 78 77 79 77 79 78 80 78 80 79 81 79 81 80 82 80 82 81 83 81 83 82 84 82 84 83 85 83 85 84 86 84 86 85 87 85 87 86 88 86 88 87 89 87 89 88 90 88 90 89 91 89 91 90 92 90 92 91 93 91 93 92 94 92 94 93 95 93 95 94 96 94 96 95 97 95 97 96 98 96 98 97 99 97 99 98 100 98 100 90 99 90 99 89 98 89 98 88 97 88 97 87 96 87 96 86 95 86 95 85 94 85 94 84 93 84 93 83 92 83 92 82 91 82 91 81 90 81 90 80 89 80 89 79 88 79 88 78 87 78 87 77 86 77 86 76 85 76 85 75 84 75 84 74 83 74 83 73 82 73 82 72 81 72 81 71 80 71 80 70 79 70 79 69 78 69 78 68 77 68 77 67 76 67 76 66 75 66 75 65 74 65 74 64 73 64 73 63 72 63 72 62 71 62 71 61 70 61 70 60 69 60 69 59 68 59 68 58 67 58 67 57 66 57 66 56 65 56 65 55 64 55 64 54 63 54 63 53 62 53 62 52 61 52 61 51 60 51 60 50 59 50 59 49 60 49 60 48 61 48 61 47 62 47 62 46 63 46 63 45 64 45 64 44 65 44 65 43 66 43 66 42 67 42 67 41 68 41 68 40 69 40 69 39 70 39 70 38 71 38 71 37 72 37 72 36 73 36 73 35 74 35 74 34 75 34 75 33 76 33 76 32 77 32 77 31 78 31 78 30 79 30 79 29 80 29 80 28 81 28 81 27 82 27 82 26 83 26 83 25 84 25 84 24 85 24 85 23 86 23 86 22 87 22 87 21 88 21 88 20 89 20 89 19 90 19 90 18 91 18 91 17 92 17 92 16 93 16 93 15 94 15 94 14 95 14 95 13 96 13 96 12 97 12 97 11 98 11 98 10 99 10 99 9 100 9 100 1 99 1"/><polygon points="1 17 2 17 2 16 3 16 3 15 4 15 4 14 5 14 5 13 6 13 6 12 7 12 7 11 8 11 8 10 9 10 9 9 10 9 10 8 11 8 11 7 12 7 12 6 13 6 13 5 14 5 14 4 15 4 15 3 16 3 16 2 17 2 17 1 18 1 18 0 10 0 10 1 9 1 9 2 8 2 8 3 7 3 7 4 6 4 6 5 5 5 5 6 4 6 4 7 3 7 3 8 2 8 2 9 1 9 1 10 0 10 0 18 1 18 1 17"/><polygon points="99 12 98 12 98 13 97 13 97 14 96 14 96 15 95 15 95 16 94 16 94 17 93 17 93 18 92 18 92 19 91 19 91 20 90 20 90 21 89 21 89 22 88 22 88 23 87 23 87 24 86 24 86 25 85 25 85 26 84 26 84 27 83 27 83 28 82 28 82 29 81 29 81 30 80 30 80 31 79 31 79 32 78 32 78 33 77 33 77 34 76 34 76 35 75 35 75 36 74 36 74 37 73 37 73 38 72 38 72 39 71 39 71 40 70 40 70 41 69 41 69 42 68 42 68 43 67 43 67 44 66 44 66 45 65 45 65 46 64 46 64 47 63 47 63 48 62 48 62 49 61 49 61 50 62 50 62 51 63 51 63 52 64 52 64 53 65 53 65 54 66 54 66 55 67 55 67 56 68 56 68 57 69 57 69 58 70 58 70 59 71 59 71 60 72 60 72 61 73 61 73 62 74 62 74 63 75 63 75 64 76 64 76 65 77 65 77 66 78 66 78 67 79 67 79 68 80 68 80 69 81 69 81 70 82 70 82 71 83 71 83 72 84 72 84 73 85 73 85 74 86 74 86 75 87 75 87 76 88 76 88 77 89 77 89 78 90 78 90 79 91 79 91 80 92 80 92 81 93 81 93 82 94 82 94 83 95 83 95 84 96 84 96 85 97 85 97 86 98 86 98 87 99 87 99 88 100 88 100 80 99 80 99 79 98 79 98 78 97 78 97 77 96 77 96 76 95 76 95 75 94 75 94 74 93 74 93 73 92 73 92 72 91 72 91 71 90 71 90 70 89 70 89 69 88 69 88 68 87 68 87 67 86 67 86 66 85 66 85 65 84 65 84 64 83 64 83 63 82 63 82 62 81 62 81 61 80 61 80 60 79 60 79 59 78 59 78 58 77 58 77 57 76 57 76 56 75 56 75 55 74 55 74 54 73 54 73 53 72 53 72 52 71 52 71 51 70 51 70 50 69 50 69 49 70 49 70 48 71 48 71 47 72 47 72 46 73 46 73 45 74 45 74 44 75 44 75 43 76 43 76 42 77 42 77 41 78 41 78 40 79 40 79 39 80 39 80 38 81 38 81 37 82 37 82 36 83 36 83 35 84 35 84 34 85 34 85 33 86 33 86 32 87 32 87 31 88 31 88 30 89 30 89 29 90 29 90 28 91 28 91 27 92 27 92 26 93 26 93 25 94 25 94 24 95 24 95 23 96 23 96 22 97 22 97 21 98 21 98 20 99 20 99 19 100 19 100 11 99 11 99 12"/><polygon points="1 27 2 27 2 26 3 26 3 25 4 25 4 24 5 24 5 23 6 23 6 22 7 22 7 21 8 21 8 20 9 20 9 19 10 19 10 18 11 18 11 17 12 17 12 16 13 16 13 15 14 15 14 14 15 14 15 13 16 13 16 12 17 12 17 11 18 11 18 10 19 10 19 9 20 9 20 8 21 8 21 7 22 7 22 6 23 6 23 5 24 5 24 4 25 4 25 3 26 3 26 2 27 2 27 1 28 1 28 0 20 0 20 1 19 1 19 2 18 2 18 3 17 3 17 4 16 4 16 5 15 5 15 6 14 6 14 7 13 7 13 8 12 8 12 9 11 9 11 10 10 10 10 11 9 11 9 12 8 12 8 13 7 13 7 14 6 14 6 15 5 15 5 16 4 16 4 17 3 17 3 18 2 18 2 19 1 19 1 20 0 20 0 28 1 28 1 27"/><polygon points="99 22 98 22 98 23 97 23 97 24 96 24 96 25 95 25 95 26 94 26 94 27 93 27 93 28 92 28 92 29 91 29 91 30 90 30 90 31 89 31 89 32 88 32 88 33 87 33 87 34 86 34 86 35 85 35 85 36 84 36 84 37 83 37 83 38 82 38 82 39 81 39 81 40 80 40 80 41 79 41 79 42 78 42 78 43 77 43 77 44 76 44 76 45 75 45 75 46 74 46 74 47 73 47 73 48 72 48 72 49 71 49 71 50 72 50 72 51 73 51 73 52 74 52 74 53 75 53 75 54 76 54 76 55 77 55 77 56 78 56 78 57 79 57 79 58 80 58 80 59 81 59 81 60 82 60 82 61 83 61 83 62 84 62 84 63 85 63 85 64 86 64 86 65 87 65 87 66 88 66 88 67 89 67 89 68 90 68 90 69 91 69 91 70 92 70 92 71 93 71 93 72 94 72 94 73 95 73 95 74 96 74 96 75 97 75 97 76 98 76 98 77 99 77 99 78 100 78 100 70 99 70 99 69 98 69 98 68 97 68 97 67 96 67 96 66 95 66 95 65 94 65 94 64 93 64 93 63 92 63 92 62 91 62 91 61 90 61 90 60 89 60 89 59 88 59 88 58 87 58 87 57 86 57 86 56 85 56 85 55 84 55 84 54 83 54 83 53 82 53 82 52 81 52 81 51 80 51 80 50 79 50 79 49 80 49 80 48 81 48 81 47 82 47 82 46 83 46 83 45 84 45 84 44 85 44 85 43 86 43 86 42 87 42 87 41 88 41 88 40 89 40 89 39 90 39 90 38 91 38 91 37 92 37 92 36 93 36 93 35 94 35 94 34 95 34 95 33 96 33 96 32 97 32 97 31 98 31 98 30 99 30 99 29 100 29 100 21 99 21 99 22"/><polygon points="1 37 2 37 2 36 3 36 3 35 4 35 4 34 5 34 5 33 6 33 6 32 7 32 7 31 8 31 8 30 9 30 9 29 10 29 10 28 11 28 11 27 12 27 12 26 13 26 13 25 14 25 14 24 15 24 15 23 16 23 16 22 17 22 17 21 18 21 18 20 19 20 19 19 20 19 20 18 21 18 21 17 22 17 22 16 23 16 23 15 24 15 24 14 25 14 25 13 26 13 26 12 27 12 27 11 28 11 28 10 29 10 29 9 30 9 30 8 31 8 31 7 32 7 32 6 33 6 33 5 34 5 34 4 35 4 35 3 36 3 36 2 37 2 37 1 38 1 38 0 30 0 30 1 29 1 29 2 28 2 28 3 27 3 27 4 26 4 26 5 25 5 25 6 24 6 24 7 23 7 23 8 22 8 22 9 21 9 21 10 20 10 20 11 19 11 19 12 18 12 18 13 17 13 17 14 16 14 16 15 15 15 15 16 14 16 14 17 13 17 13 18 12 18 12 19 11 19 11 20 10 20 10 21 9 21 9 22 8 22 8 23 7 23 7 24 6 24 6 25 5 25 5 26 4 26 4 27 3 27 3 28 2 28 2 29 1 29 1 30 0 30 0 38 1 38 1 37"/><polygon points="99 32 98 32 98 33 97 33 97 34 96 34 96 35 95 35 95 36 94 36 94 37 93 37 93 38 92 38 92 39 91 39 91 40 90 40 90 41 89 41 89 42 88 42 88 43 87 43 87 44 86 44 86 45 85 45 85 46 84 46 84 47 83 47 83 48 82 48 82 49 81 49 81 50 82 50 82 51 83 51 83 52 84 52 84 53 85 53 85 54 86 54 86 55 87 55 87 56 88 56 88 57 89 57 89 58 90 58 90 59 91 59 91 60 92 60 92 61 93 61 93 62 94 62 94 63 95 63 95 64 96 64 96 65 97 65 97 66 98 66 98 67 99 67 99 68 100 68 100 60 99 60 99 59 98 59 98 58 97 58 97 57 96 57 96 56 95 56 95 55 94 55 94 54 93 54 93 53 92 53 92 52 91 52 91 51 90 51 90 50 89 50 89 49 90 49 90 48 91 48 91 47 92 47 92 46 93 46 93 45 94 45 94 44 95 44 95 43 96 43 96 42 97 42 97 41 98 41 98 40 99 40 99 39 100 39 100 31 99 31 99 32"/><polygon points="1 47 2 47 2 46 3 46 3 45 4 45 4 44 5 44 5 43 6 43 6 42 7 42 7 41 8 41 8 40 9 40 9 39 10 39 10 38 11 38 11 37 12 37 12 36 13 36 13 35 14 35 14 34 15 34 15 33 16 33 16 32 17 32 17 31 18 31 18 30 19 30 19 29 20 29 20 28 21 28 21 27 22 27 22 26 23 26 23 25 24 25 24 24 25 24 25 23 26 23 26 22 27 22 27 21 28 21 28 20 29 20 29 19 30 19 30 18 31 18 31 17 32 17 32 16 33 16 33 15 34 15 34 14 35 14 35 13 36 13 36 12 37 12 37 11 38 11 38 10 39 10 39 9 40 9 40 8 41 8 41 7 42 7 42 6 43 6 43 5 44 5 44 4 45 4 45 3 46 3 46 2 47 2 47 1 48 1 48 0 40 0 40 1 39 1 39 2 38 2 38 3 37 3 37 4 36 4 36 5 35 5 35 6 34 6 34 7 33 7 33 8 32 8 32 9 31 9 31 10 30 10 30 11 29 11 29 12 28 12 28 13 27 13 27 14 26 14 26 15 25 15 25 16 24 16 24 17 23 17 23 18 22 18 22 19 21 19 21 20 20 20 20 21 19 21 19 22 18 22 18 23 17 23 17 24 16 24 16 25 15 25 15 26 14 26 14 27 13 27 13 28 12 28 12 29 11 29 11 30 10 30 10 31 9 31 9 32 8 32 8 33 7 33 7 34 6 34 6 35 5 35 5 36 4 36 4 37 3 37 3 38 2 38 2 39 1 39 1 40 0 40 0 48 1 48 1 47"/><polygon points="99 42 98 42 98 43 97 43 97 44 96 44 96 45 95 45 95 46 94 46 94 47 93 47 93 48 92 48 92 49 91 49 91 50 92 50 92 51 93 51 93 52 94 52 94 53 95 53 95 54 96 54 96 55 97 55 97 56 98 56 98 57 99 57 99 58 100 58 100 50 99 50 99 49 100 49 100 41 99 41 99 42"/><polygon points="98 98 97 98 97 97 96 97 96 96 95 96 95 95 94 95 94 94 93 94 93 93 92 93 92 92 91 92 91 91 90 91 90 90 89 90 89 89 88 89 88 88 87 88 87 87 86 87 86 86 85 86 85 85 84 85 84 84 83 84 83 83 82 83 82 82 81 82 81 81 80 81 80 80 79 80 79 79 78 79 78 78 77 78 77 77 76 77 76 76 75 76 75 75 74 75 74 74 73 74 73 73 72 73 72 72 71 72 71 71 70 71 70 70 69 70 69 69 68 69 68 68 67 68 67 67 66 67 66 66 65 66 65 65 64 65 64 64 63 64 63 63 62 63 62 62 61 62 61 61 60 61 60 60 59 60 59 59 58 59 58 58 57 58 57 57 56 57 56 56 55 56 55 55 54 55 54 54 53 54 53 53 52 53 52 52 51 52 51 51 50 51 50 50 49 50 49 49 50 49 50 48 51 48 51 47 52 47 52 46 53 46 53 45 54 45 54 44 55 44 55 43 56 43 56 42 57 42 57 41 58 41 58 40 59 40 59 39 60 39 60 38 61 38 61 37 62 37 62 36 63 36 63 35 64 35 64 34 65 34 65 33 66 33 66 32 67 32 67 31 68 31 68 30 69 30 69 29 70 29 70 28 71 28 71 27 72 27 72 26 73 26 73 25 74 25 74 24 75 24 75 23 76 23 76 22 77 22 77 21 78 21 78 20 79 20 79 19 80 19 80 18 81 18 81 17 82 17 82 16 83 16 83 15 84 15 84 14 85 14 85 13 86 13 86 12 87 12 87 11 88 11 88 10 89 10 89 9 90 9 90 8 91 8 91 7 92 7 92 6 93 6 93 5 94 5 94 4 95 4 95 3 96 3 96 2 97 2 97 1 98 1 98 0 90 0 90 1 89 1 89 2 88 2 88 3 87 3 87 4 86 4 86 5 85 5 85 6 84 6 84 7 83 7 83 8 82 8 82 9 81 9 81 10 80 10 80 11 79 11 79 12 78 12 78 13 77 13 77 14 76 14 76 15 75 15 75 16 74 16 74 17 73 17 73 18 72 18 72 19 71 19 71 20 70 20 70 21 69 21 69 22 68 22 68 23 67 23 67 24 66 24 66 25 65 25 65 26 64 26 64 27 63 27 63 28 62 28 62 29 61 29 61 30 60 30 60 31 59 31 59 32 58 32 58 33 57 33 57 34 56 34 56 35 55 35 55 36 54 36 54 37 53 37 53 38 52 38 52 39 51 39 51 40 50 40 50 41 49 41 49 42 48 42 48 43 47 43 47 44 46 44 46 45 45 45 45 46 44 46 44 47 43 47 43 48 42 48 42 49 41 49 41 50 42 50 42 51 43 51 43 52 44 52 44 53 45 53 45 54 46 54 46 55 47 55 47 56 48 56 48 57 49 57 49 58 50 58 50 59 51 59 51 60 52 60 52 61 53 61 53 62 54 62 54 63 55 63 55 64 56 64 56 65 57 65 57 66 58 66 58 67 59 67 59 68 60 68 60 69 61 69 61 70 62 70 62 71 63 71 63 72 64 72 64 73 65 73 65 74 66 74 66 75 67 75 67 76 68 76 68 77 69 77 69 78 70 78 70 79 71 79 71 80 72 80 72 81 73 81 73 82 74 82 74 83 75 83 75 84 76 84 76 85 77 85 77 86 78 86 78 87 79 87 79 88 80 88 80 89 81 89 81 90 82 90 82 91 83 91 83 92 84 92 84 93 85 93 85 94 86 94 86 95 87 95 87 96 88 96 88 97 89 97 89 98 90 98 90 99 91 99 91 100 99 100 99 99 98 99 98 98"/><polygon points="88 98 87 98 87 97 86 97 86 96 85 96 85 95 84 95 84 94 83 94 83 93 82 93 82 92 81 92 81 91 80 91 80 90 79 90 79 89 78 89 78 88 77 88 77 87 76 87 76 86 75 86 75 85 74 85 74 84 73 84 73 83 72 83 72 82 71 82 71 81 70 81 70 80 69 80 69 79 68 79 68 78 67 78 67 77 66 77 66 76 65 76 65 75 64 75 64 74 63 74 63 73 62 73 62 72 61 72 61 71 60 71 60 70 59 70 59 69 58 69 58 68 57 68 57 67 56 67 56 66 55 66 55 65 54 65 54 64 53 64 53 63 52 63 52 62 51 62 51 61 50 61 50 60 49 60 49 59 48 59 48 58 47 58 47 57 46 57 46 56 45 56 45 55 44 55 44 54 43 54 43 53 42 53 42 52 41 52 41 51 40 51 40 50 39 50 39 49 40 49 40 48 41 48 41 47 42 47 42 46 43 46 43 45 44 45 44 44 45 44 45 43 46 43 46 42 47 42 47 41 48 41 48 40 49 40 49 39 50 39 50 38 51 38 51 37 52 37 52 36 53 36 53 35 54 35 54 34 55 34 55 33 56 33 56 32 57 32 57 31 58 31 58 30 59 30 59 29 60 29 60 28 61 28 61 27 62 27 62 26 63 26 63 25 64 25 64 24 65 24 65 23 66 23 66 22 67 22 67 21 68 21 68 20 69 20 69 19 70 19 70 18 71 18 71 17 72 17 72 16 73 16 73 15 74 15 74 14 75 14 75 13 76 13 76 12 77 12 77 11 78 11 78 10 79 10 79 9 80 9 80 8 81 8 81 7 82 7 82 6 83 6 83 5 84 5 84 4 85 4 85 3 86 3 86 2 87 2 87 1 88 1 88 0 80 0 80 1 79 1 79 2 78 2 78 3 77 3 77 4 76 4 76 5 75 5 75 6 74 6 74 7 73 7 73 8 72 8 72 9 71 9 71 10 70 10 70 11 69 11 69 12 68 12 68 13 67 13 67 14 66 14 66 15 65 15 65 16 64 16 64 17 63 17 63 18 62 18 62 19 61 19 61 20 60 20 60 21 59 21 59 22 58 22 58 23 57 23 57 24 56 24 56 25 55 25 55 26 54 26 54 27 53 27 53 28 52 28 52 29 51 29 51 30 50 30 50 31 49 31 49 32 48 32 48 33 47 33 47 34 46 34 46 35 45 35 45 36 44 36 44 37 43 37 43 38 42 38 42 39 41 39 41 40 40 40 40 41 39 41 39 42 38 42 38 43 37 43 37 44 36 44 36 45 35 45 35 46 34 46 34 47 33 47 33 48 32 48 32 49 31 49 31 50 32 50 32 51 33 51 33 52 34 52 34 53 35 53 35 54 36 54 36 55 37 55 37 56 38 56 38 57 39 57 39 58 40 58 40 59 41 59 41 60 42 60 42 61 43 61 43 62 44 62 44 63 45 63 45 64 46 64 46 65 47 65 47 66 48 66 48 67 49 67 49 68 50 68 50 69 51 69 51 70 52 70 52 71 53 71 53 72 54 72 54 73 55 73 55 74 56 74 56 75 57 75 57 76 58 76 58 77 59 77 59 78 60 78 60 79 61 79 61 80 62 80 62 81 63 81 63 82 64 82 64 83 65 83 65 84 66 84 66 85 67 85 67 86 68 86 68 87 69 87 69 88 70 88 70 89 71 89 71 90 72 90 72 91 73 91 73 92 74 92 74 93 75 93 75 94 76 94 76 95 77 95 77 96 78 96 78 97 79 97 79 98 80 98 80 99 81 99 81 100 89 100 89 99 88 99 88 98"/><polygon points="78 98 77 98 77 97 76 97 76 96 75 96 75 95 74 95 74 94 73 94 73 93 72 93 72 92 71 92 71 91 70 91 70 90 69 90 69 89 68 89 68 88 67 88 67 87 66 87 66 86 65 86 65 85 64 85 64 84 63 84 63 83 62 83 62 82 61 82 61 81 60 81 60 80 59 80 59 79 58 79 58 78 57 78 57 77 56 77 56 76 55 76 55 75 54 75 54 74 53 74 53 73 52 73 52 72 51 72 51 71 50 71 50 70 49 70 49 69 48 69 48 68 47 68 47 67 46 67 46 66 45 66 45 65 44 65 44 64 43 64 43 63 42 63 42 62 41 62 41 61 40 61 40 60 39 60 39 59 38 59 38 58 37 58 37 57 36 57 36 56 35 56 35 55 34 55 34 54 33 54 33 53 32 53 32 52 31 52 31 51 30 51 30 50 29 50 29 49 30 49 30 48 31 48 31 47 32 47 32 46 33 46 33 45 34 45 34 44 35 44 35 43 36 43 36 42 37 42 37 41 38 41 38 40 39 40 39 39 40 39 40 38 41 38 41 37 42 37 42 36 43 36 43 35 44 35 44 34 45 34 45 33 46 33 46 32 47 32 47 31 48 31 48 30 49 30 49 29 50 29 50 28 51 28 51 27 52 27 52 26 53 26 53 25 54 25 54 24 55 24 55 23 56 23 56 22 57 22 57 21 58 21 58 20 59 20 59 19 60 19 60 18 61 18 61 17 62 17 62 16 63 16 63 15 64 15 64 14 65 14 65 13 66 13 66 12 67 12 67 11 68 11 68 10 69 10 69 9 70 9 70 8 71 8 71 7 72 7 72 6 73 6 73 5 74 5 74 4 75 4 75 3 76 3 76 2 77 2 77 1 78 1 78 0 70 0 70 1 69 1 69 2 68 2 68 3 67 3 67 4 66 4 66 5 65 5 65 6 64 6 64 7 63 7 63 8 62 8 62 9 61 9 61 10 60 10 60 11 59 11 59 12 58 12 58 13 57 13 57 14 56 14 56 15 55 15 55 16 54 16 54 17 53 17 53 18 52 18 52 19 51 19 51 20 50 20 50 21 49 21 49 22 48 22 48 23 47 23 47 24 46 24 46 25 45 25 45 26 44 26 44 27 43 27 43 28 42 28 42 29 41 29 41 30 40 30 40 31 39 31 39 32 38 32 38 33 37 33 37 34 36 34 36 35 35 35 35 36 34 36 34 37 33 37 33 38 32 38 32 39 31 39 31 40 30 40 30 41 29 41 29 42 28 42 28 43 27 43 27 44 26 44 26 45 25 45 25 46 24 46 24 47 23 47 23 48 22 48 22 49 21 49 21 50 22 50 22 51 23 51 23 52 24 52 24 53 25 53 25 54 26 54 26 55 27 55 27 56 28 56 28 57 29 57 29 58 30 58 30 59 31 59 31 60 32 60 32 61 33 61 33 62 34 62 34 63 35 63 35 64 36 64 36 65 37 65 37 66 38 66 38 67 39 67 39 68 40 68 40 69 41 69 41 70 42 70 42 71 43 71 43 72 44 72 44 73 45 73 45 74 46 74 46 75 47 75 47 76 48 76 48 77 49 77 49 78 50 78 50 79 51 79 51 80 52 80 52 81 53 81 53 82 54 82 54 83 55 83 55 84 56 84 56 85 57 85 57 86 58 86 58 87 59 87 59 88 60 88 60 89 61 89 61 90 62 90 62 91 63 91 63 92 64 92 64 93 65 93 65 94 66 94 66 95 67 95 67 96 68 96 68 97 69 97 69 98 70 98 70 99 71 99 71 100 79 100 79 99 78 99 78 98"/><polygon points="68 98 67 98 67 97 66 97 66 96 65 96 65 95 64 95 64 94 63 94 63 93 62 93 62 92 61 92 61 91 60 91 60 90 59 90 59 89 58 89 58 88 57 88 57 87 56 87 56 86 55 86 55 85 54 85 54 84 53 84 53 83 52 83 52 82 51 82 51 81 50 81 50 80 49 80 49 79 48 79 48 78 47 78 47 77 46 77 46 76 45 76 45 75 44 75 44 74 43 74 43 73 42 73 42 72 41 72 41 71 40 71 40 70 39 70 39 69 38 69 38 68 37 68 37 67 36 67 36 66 35 66 35 65 34 65 34 64 33 64 33 63 32 63 32 62 31 62 31 61 30 61 30 60 29 60 29 59 28 59 28 58 27 58 27 57 26 57 26 56 25 56 25 55 24 55 24 54 23 54 23 53 22 53 22 52 21 52 21 51 20 51 20 50 19 50 19 49 20 49 20 48 21 48 21 47 22 47 22 46 23 46 23 45 24 45 24 44 25 44 25 43 26 43 26 42 27 42 27 41 28 41 28 40 29 40 29 39 30 39 30 38 31 38 31 37 32 37 32 36 33 36 33 35 34 35 34 34 35 34 35 33 36 33 36 32 37 32 37 31 38 31 38 30 39 30 39 29 40 29 40 28 41 28 41 27 42 27 42 26 43 26 43 25 44 25 44 24 45 24 45 23 46 23 46 22 47 22 47 21 48 21 48 20 49 20 49 19 50 19 50 18 51 18 51 17 52 17 52 16 53 16 53 15 54 15 54 14 55 14 55 13 56 13 56 12 57 12 57 11 58 11 58 10 59 10 59 9 60 9 60 8 61 8 61 7 62 7 62 6 63 6 63 5 64 5 64 4 65 4 65 3 66 3 66 2 67 2 67 1 68 1 68 0 60 0 60 1 59 1 59 2 58 2 58 3 57 3 57 4 56 4 56 5 55 5 55 6 54 6 54 7 53 7 53 8 52 8 52 9 51 9 51 10 50 10 50 11 49 11 49 12 48 12 48 13 47 13 47 14 46 14 46 15 45 15 45 16 44 16 44 17 43 17 43 18 42 18 42 19 41 19 41 20 40 20 40 21 39 21 39 22 38 22 38 23 37 23 37 24 36 24 36 25 35 25 35 26 34 26 34 27 33 27 33 28 32 28 32 29 31 29 31 30 30 30 30 31 29 31 29 32 28 32 28 33 27 33 27 34 26 34 26 35 25 35 25 36 24 36 24 37 23 37 23 38 22 38 22 39 21 39 21 40 20 40 20 41 19 41 19 42 18 42 18 43 17 43 17 44 16 44 16 45 15 45 15 46 14 46 14 47 13 47 13 48 12 48 12 49 11 49 11 50 12 50 12 51 13 51 13 52 14 52 14 53 15 53 15 54 16 54 16 55 17 55 17 56 18 56 18 57 19 57 19 58 20 58 20 59 21 59 21 60 22 60 22 61 23 61 23 62 24 62 24 63 25 63 25 64 26 64 26 65 27 65 27 66 28 66 28 67 29 67 29 68 30 68 30 69 31 69 31 70 32 70 32 71 33 71 33 72 34 72 34 73 35 73 35 74 36 74 36 75 37 75 37 76 38 76 38 77 39 77 39 78 40 78 40 79 41 79 41 80 42 80 42 81 43 81 43 82 44 82 44 83 45 83 45 84 46 84 46 85 47 85 47 86 48 86 48 87 49 87 49 88 50 88 50 89 51 89 51 90 52 90 52 91 53 91 53 92 54 92 54 93 55 93 55 94 56 94 56 95 57 95 57 96 58 96 58 97 59 97 59 98 60 98 60 99 61 99 61 100 69 100 69 99 68 99 68 98"/><polygon points="58 98 57 98 57 97 56 97 56 96 55 96 55 95 54 95 54 94 53 94 53 93 52 93 52 92 51 92 51 91 50 91 50 90 49 90 49 89 48 89 48 88 47 88 47 87 46 87 46 86 45 86 45 85 44 85 44 84 43 84 43 83 42 83 42 82 41 82 41 81 40 81 40 80 39 80 39 79 38 79 38 78 37 78 37 77 36 77 36 76 35 76 35 75 34 75 34 74 33 74 33 73 32 73 32 72 31 72 31 71 30 71 30 70 29 70 29 69 28 69 28 68 27 68 27 67 26 67 26 66 25 66 25 65 24 65 24 64 23 64 23 63 22 63 22 62 21 62 21 61 20 61 20 60 19 60 19 59 18 59 18 58 17 58 17 57 16 57 16 56 15 56 15 55 14 55 14 54 13 54 13 53 12 53 12 52 11 52 11 51 10 51 10 50 9 50 9 49 10 49 10 48 11 48 11 47 12 47 12 46 13 46 13 45 14 45 14 44 15 44 15 43 16 43 16 42 17 42 17 41 18 41 18 40 19 40 19 39 20 39 20 38 21 38 21 37 22 37 22 36 23 36 23 35 24 35 24 34 25 34 25 33 26 33 26 32 27 32 27 31 28 31 28 30 29 30 29 29 30 29 30 28 31 28 31 27 32 27 32 26 33 26 33 25 34 25 34 24 35 24 35 23 36 23 36 22 37 22 37 21 38 21 38 20 39 20 39 19 40 19 40 18 41 18 41 17 42 17 42 16 43 16 43 15 44 15 44 14 45 14 45 13 46 13 46 12 47 12 47 11 48 11 48 10 49 10 49 9 50 9 50 8 51 8 51 7 52 7 52 6 53 6 53 5 54 5 54 4 55 4 55 3 56 3 56 2 57 2 57 1 58 1 58 0 50 0 50 1 49 1 49 2 48 2 48 3 47 3 47 4 46 4 46 5 45 5 45 6 44 6 44 7 43 7 43 8 42 8 42 9 41 9 41 10 40 10 40 11 39 11 39 12 38 12 38 13 37 13 37 14 36 14 36 15 35 15 35 16 34 16 34 17 33 17 33 18 32 18 32 19 31 19 31 20 30 20 30 21 29 21 29 22 28 22 28 23 27 23 27 24 26 24 26 25 25 25 25 26 24 26 24 27 23 27 23 28 22 28 22 29 21 29 21 30 20 30 20 31 19 31 19 32 18 32 18 33 17 33 17 34 16 34 16 35 15 35 15 36 14 36 14 37 13 37 13 38 12 38 12 39 11 39 11 40 10 40 10 41 9 41 9 42 8 42 8 43 7 43 7 44 6 44 6 45 5 45 5 46 4 46 4 47 3 47 3 48 2 48 2 49 1 49 1 50 2 50 2 51 3 51 3 52 4 52 4 53 5 53 5 54 6 54 6 55 7 55 7 56 8 56 8 57 9 57 9 58 10 58 10 59 11 59 11 60 12 60 12 61 13 61 13 62 14 62 14 63 15 63 15 64 16 64 16 65 17 65 17 66 18 66 18 67 19 67 19 68 20 68 20 69 21 69 21 70 22 70 22 71 23 71 23 72 24 72 24 73 25 73 25 74 26 74 26 75 27 75 27 76 28 76 28 77 29 77 29 78 30 78 30 79 31 79 31 80 32 80 32 81 33 81 33 82 34 82 34 83 35 83 35 84 36 84 36 85 37 85 37 86 38 86 38 87 39 87 39 88 40 88 40 89 41 89 41 90 42 90 42 91 43 91 43 92 44 92 44 93 45 93 45 94 46 94 46 95 47 95 47 96 48 96 48 97 49 97 49 98 50 98 50 99 51 99 51 100 59 100 59 99 58 99 58 98"/><polygon points="48 98 47 98 47 97 46 97 46 96 45 96 45 95 44 95 44 94 43 94 43 93 42 93 42 92 41 92 41 91 40 91 40 90 39 90 39 89 38 89 38 88 37 88 37 87 36 87 36 86 35 86 35 85 34 85 34 84 33 84 33 83 32 83 32 82 31 82 31 81 30 81 30 80 29 80 29 79 28 79 28 78 27 78 27 77 26 77 26 76 25 76 25 75 24 75 24 74 23 74 23 73 22 73 22 72 21 72 21 71 20 71 20 70 19 70 19 69 18 69 18 68 17 68 17 67 16 67 16 66 15 66 15 65 14 65 14 64 13 64 13 63 12 63 12 62 11 62 11 61 10 61 10 60 9 60 9 59 8 59 8 58 7 58 7 57 6 57 6 56 5 56 5 55 4 55 4 54 3 54 3 53 2 53 2 52 1 52 1 51 0 51 0 59 1 59 1 60 2 60 2 61 3 61 3 62 4 62 4 63 5 63 5 64 6 64 6 65 7 65 7 66 8 66 8 67 9 67 9 68 10 68 10 69 11 69 11 70 12 70 12 71 13 71 13 72 14 72 14 73 15 73 15 74 16 74 16 75 17 75 17 76 18 76 18 77 19 77 19 78 20 78 20 79 21 79 21 80 22 80 22 81 23 81 23 82 24 82 24 83 25 83 25 84 26 84 26 85 27 85 27 86 28 86 28 87 29 87 29 88 30 88 30 89 31 89 31 90 32 90 32 91 33 91 33 92 34 92 34 93 35 93 35 94 36 94 36 95 37 95 37 96 38 96 38 97 39 97 39 98 40 98 40 99 41 99 41 100 49 100 49 99 48 99 48 98"/><polygon points="38 98 37 98 37 97 36 97 36 96 35 96 35 95 34 95 34 94 33 94 33 93 32 93 32 92 31 92 31 91 30 91 30 90 29 90 29 89 28 89 28 88 27 88 27 87 26 87 26 86 25 86 25 85 24 85 24 84 23 84 23 83 22 83 22 82 21 82 21 81 20 81 20 80 19 80 19 79 18 79 18 78 17 78 17 77 16 77 16 76 15 76 15 75 14 75 14 74 13 74 13 73 12 73 12 72 11 72 11 71 10 71 10 70 9 70 9 69 8 69 8 68 7 68 7 67 6 67 6 66 5 66 5 65 4 65 4 64 3 64 3 63 2 63 2 62 1 62 1 61 0 61 0 69 1 69 1 70 2 70 2 71 3 71 3 72 4 72 4 73 5 73 5 74 6 74 6 75 7 75 7 76 8 76 8 77 9 77 9 78 10 78 10 79 11 79 11 80 12 80 12 81 13 81 13 82 14 82 14 83 15 83 15 84 16 84 16 85 17 85 17 86 18 86 18 87 19 87 19 88 20 88 20 89 21 89 21 90 22 90 22 91 23 91 23 92 24 92 24 93 25 93 25 94 26 94 26 95 27 95 27 96 28 96 28 97 29 97 29 98 30 98 30 99 31 99 31 100 39 100 39 99 38 99 38 98"/><polygon points="28 98 27 98 27 97 26 97 26 96 25 96 25 95 24 95 24 94 23 94 23 93 22 93 22 92 21 92 21 91 20 91 20 90 19 90 19 89 18 89 18 88 17 88 17 87 16 87 16 86 15 86 15 85 14 85 14 84 13 84 13 83 12 83 12 82 11 82 11 81 10 81 10 80 9 80 9 79 8 79 8 78 7 78 7 77 6 77 6 76 5 76 5 75 4 75 4 74 3 74 3 73 2 73 2 72 1 72 1 71 0 71 0 79 1 79 1 80 2 80 2 81 3 81 3 82 4 82 4 83 5 83 5 84 6 84 6 85 7 85 7 86 8 86 8 87 9 87 9 88 10 88 10 89 11 89 11 90 12 90 12 91 13 91 13 92 14 92 14 93 15 93 15 94 16 94 16 95 17 95 17 96 18 96 18 97 19 97 19 98 20 98 20 99 21 99 21 100 29 100 29 99 28 99 28 98"/><polygon points="18 98 17 98 17 97 16 97 16 96 15 96 15 95 14 95 14 94 13 94 13 93 12 93 12 92 11 92 11 91 10 91 10 90 9 90 9 89 8 89 8 88 7 88 7 87 6 87 6 86 5 86 5 85 4 85 4 84 3 84 3 83 2 83 2 82 1 82 1 81 0 81 0 89 1 89 1 90 2 90 2 91 3 91 3 92 4 92 4 93 5 93 5 94 6 94 6 95 7 95 7 96 8 96 8 97 9 97 9 98 10 98 10 99 11 99 11 100 19 100 19 99 18 99 18 98"/><polygon points="8 98 7 98 7 97 6 97 6 96 5 96 5 95 4 95 4 94 3 94 3 93 2 93 2 92 1 92 1 91 0 91 0 99 1 99 1 100 9 100 9 99 8 99 8 98"/></svg>