<svg id="Layer_1" data-name="Layer 1" xmlns="http://www.w3.org/2000/svg" viewBox="0 0 100 100"><title>pattern</title><rect x="1" width="8" height="10"/><rect x="11" width="8" height="10" transform="translate(10 20) rotate(-90)"/><rect x="21" width="8" height="10"/><rect x="31" width="8" height="10" transform="translate(30 40) rotate(-90)"/><rect x="41" width="8" height="10"/><rect x="51" width="8" height="10" transform="translate(50 60) rotate(-90)"/><rect x="61" width="8" height="10"/><rect x="71" width="8" height="10" transform="translate(70 80) rotate(-90)"/><rect x="81" width="8" height="10"/><rect x="91" width="8" height="10" transform="translate(90 100) rotate(-90)"/><rect x="1" y="10" width="8" height="10" transform="translate(-10 20) rotate(-90)"/><rect x="11" y="10" width="8" height="10"/><rect x="21" y="10" width="8" height="10" transform="translate(10 40) rotate(-90)"/><rect x="31" y="10" width="8" height="10"/><rect x="41" y="10" width="8" height="10" transform="translate(30 60) rotate(-90)"/><rect x="51" y="10" width="8" height="10"/><rect x="61" y="10" width="8" height="10" transform="translate(50 80) rotate(-90)"/><rect x="71" y="10" width="8" height="10"/><rect x="91" y="10" width="8" height="10"/><rect x="81" y="10" width="8" height="10" transform="translate(70 100) rotate(-90)"/><rect x="1" y="20" width="8" height="10"/><rect x="11" y="20" width="8" height="10" transform="translate(-10 40) rotate(-90)"/><rect x="21" y="20" width="8" height="10"/><rect x="31" y="20" width="8" height="10" transform="translate(10 60) rotate(-90)"/><rect x="41" y="20" width="8" height="10"/><rect x="51" y="20" width="8" height="10" transform="translate(30 80) rotate(-90)"/><rect x="61" y="20" width="8" height="10"/><rect x="71" y="20" width="8" height="10" transform="translate(50 100) rotate(-90)"/><rect x="81" y="20" width="8" height="10"/><rect x="91" y="20" width="8" height="10" transform="translate(70 120) rotate(-90)"/><rect x="1" y="30" width="8" height="10" transform="translate(-30 40) rotate(-90)"/><rect x="11" y="30" width="8" height="10"/><rect x="21" y="30" width="8" height="10" transform="translate(-10 60) rotate(-90)"/><rect x="31" y="30" width="8" height="10"/><rect x="41" y="30" width="8" height="10" transform="translate(10 80) rotate(-90)"/><rect x="51" y="30" width="8" height="10"/><rect x="61" y="30" width="8" height="10" transform="translate(30 100) rotate(-90)"/><rect x="71" y="30" width="8" height="10"/><rect x="91" y="30" width="8" height="10"/><rect x="81" y="30" width="8" height="10" transform="translate(50 120) rotate(-90)"/><rect x="1" y="40" width="8" height="10"/><rect x="11" y="40" width="8" height="10" transform="translate(-30 60) rotate(-90)"/><rect x="21" y="40" width="8" height="10"/><rect x="31" y="40" width="8" height="10" transform="translate(-10 80) rotate(-90)"/><rect x="41" y="40" width="8" height="10"/><rect x="51" y="40" width="8" height="10" transform="translate(10 100) rotate(-90)"/><rect x="61" y="40" width="8" height="10"/><rect x="71" y="40" width="8" height="10" transform="translate(30 120) rotate(-90)"/><rect x="81" y="40" width="8" height="10"/><rect x="91" y="40" width="8" height="10" transform="translate(50 140) rotate(-90)"/><rect x="1" y="50" width="8" height="10" transform="translate(-50 60) rotate(-90)"/><rect x="11" y="50" width="8" height="10"/><rect x="21" y="50" width="8" height="10" transform="translate(-30 80) rotate(-90)"/><rect x="31" y="50" width="8" height="10"/><rect x="41" y="50" width="8" height="10" transform="translate(-10 100) rotate(-90)"/><rect x="51" y="50" width="8" height="10"/><rect x="61" y="50" width="8" height="10" transform="translate(10 120) rotate(-90)"/><rect x="71" y="50" width="8" height="10"/><rect x="91" y="50" width="8" height="10"/><rect x="81" y="50" width="8" height="10" transform="translate(30 140) rotate(-90)"/><rect x="1" y="60" width="8" height="10"/><rect x="11" y="60" width="8" height="10" transform="translate(-50 80) rotate(-90)"/><rect x="21" y="60" width="8" height="10"/><rect x="31" y="60" width="8" height="10" transform="translate(-30 100) rotate(-90)"/><rect x="41" y="60" width="8" height="10"/><rect x="51" y="60" width="8" height="10" transform="translate(-10 120) rotate(-90)"/><rect x="61" y="60" width="8" height="10"/><rect x="71" y="60" width="8" height="10" transform="translate(10 140) rotate(-90)"/><rect x="81" y="60" width="8" height="10"/><rect x="91" y="60" width="8" height="10" transform="translate(30 160) rotate(-90)"/><rect x="1" y="70" width="8" height="10" transform="translate(-70 80) rotate(-90)"/><rect x="11" y="70" width="8" height="10"/><rect x="21" y="70" width="8" height="10" transform="translate(-50 100) rotate(-90)"/><rect x="31" y="70" width="8" height="10"/><rect x="41" y="70" width="8" height="10" transform="translate(-30 120) rotate(-90)"/><rect x="51" y="70" width="8" height="10"/><rect x="61" y="70" width="8" height="10" transform="translate(-10 140) rotate(-90)"/><rect x="71" y="70" width="8" height="10"/><rect x="91" y="70" width="8" height="10"/><rect x="81" y="70" width="8" height="10" transform="translate(10 160) rotate(-90)"/><rect x="1" y="80" width="8" height="10"/><rect x="11" y="80" width="8" height="10" transform="translate(-70 100) rotate(-90)"/><rect x="21" y="80" width="8" height="10"/><rect x="31" y="80" width="8" height="10" transform="translate(-50 120) rotate(-90)"/><rect x="41" y="80" width="8" height="10"/><rect x="51" y="80" width="8" height="10" transform="translate(-30 140) rotate(-90)"/><rect x="61" y="80" width="8" height="10"/><rect x="71" y="80" width="8" height="10" transform="translate(-10 160) rotate(-90)"/><rect x="81" y="80" width="8" height="10"/><rect x="91" y="80" width="8" height="10" transform="translate(10 180) rotate(-90)"/><rect x="1" y="90" width="8" height="10" transform="translate(-90 100) rotate(-90)"/><rect x="11" y="90" width="8" height="10"/><rect x="21" y="90" width="8" height="10" transform="translate(-70 120) rotate(-90)"/><rect x="31" y="90" width="8" height="10"/><rect x="41" y="90" width="8" height="10" transform="translate(-50 140) rotate(-90)"/><rect x="51" y="90" width="8" height="10"/><rect x="61" y="90" width="8" height="10" transform="translate(-30 160) rotate(-90)"/><rect x="71" y="90" width="8" height="10"/><rect x="91" y="90" width="8" height="10"/><rect x="81" y="90" width="8" height="10" transform="translate(-10 180) rotate(-90)"/></svg>