<svg id="Layer_1" data-name="Layer 1" xmlns="http://www.w3.org/2000/svg" viewBox="0 0 100 100"><title>pattern</title><polygon points="2 8 2 7 3 7 3 6 4 6 4 5 5 5 5 4 6 4 6 3 7 3 7 2 8 2 8 1 9 1 9 0 0 0 0 9 1 9 1 8 2 8"/><polygon points="99 1 99 2 98 2 98 3 97 3 97 4 96 4 96 5 95 5 95 6 94 6 94 7 93 7 93 8 92 8 92 9 91 9 91 11 92 11 92 12 93 12 93 13 94 13 94 14 95 14 95 15 96 15 96 16 97 16 97 17 98 17 98 18 99 18 99 19 100 19 100 1 99 1"/><polygon points="98 18 97 18 97 17 96 17 96 16 95 16 95 15 94 15 94 14 93 14 93 13 92 13 92 12 91 12 91 11 90 11 90 9 91 9 91 8 92 8 92 7 93 7 93 6 94 6 94 5 95 5 95 4 96 4 96 3 97 3 97 2 98 2 98 1 99 1 99 0 90 0 90 1 89 1 89 2 88 2 88 3 87 3 87 4 86 4 86 5 85 5 85 6 84 6 84 7 83 7 83 8 82 8 82 9 81 9 81 11 82 11 82 12 83 12 83 13 84 13 84 14 85 14 85 15 86 15 86 16 87 16 87 17 88 17 88 18 89 18 89 19 90 19 90 21 89 21 89 22 88 22 88 23 87 23 87 24 86 24 86 25 85 25 85 26 84 26 84 27 83 27 83 28 82 28 82 29 81 29 81 31 82 31 82 32 83 32 83 33 84 33 84 34 85 34 85 35 86 35 86 36 87 36 87 37 88 37 88 38 89 38 89 39 90 39 90 41 89 41 89 42 88 42 88 43 87 43 87 44 86 44 86 45 85 45 85 46 84 46 84 47 83 47 83 48 82 48 82 49 81 49 81 51 82 51 82 52 83 52 83 53 84 53 84 54 85 54 85 55 86 55 86 56 87 56 87 57 88 57 88 58 89 58 89 59 90 59 90 61 89 61 89 62 88 62 88 63 87 63 87 64 86 64 86 65 85 65 85 66 84 66 84 67 83 67 83 68 82 68 82 69 81 69 81 71 82 71 82 72 83 72 83 73 84 73 84 74 85 74 85 75 86 75 86 76 87 76 87 77 88 77 88 78 89 78 89 79 90 79 90 81 89 81 89 82 88 82 88 83 87 83 87 84 86 84 86 85 85 85 85 86 84 86 84 87 83 87 83 88 82 88 82 89 81 89 81 91 82 91 82 92 83 92 83 93 84 93 84 94 85 94 85 95 86 95 86 96 87 96 87 97 88 97 88 98 89 98 89 99 90 99 90 100 99 100 99 99 98 99 98 98 97 98 97 97 96 97 96 96 95 96 95 95 94 95 94 94 93 94 93 93 92 93 92 92 91 92 91 91 90 91 90 89 91 89 91 88 92 88 92 87 93 87 93 86 94 86 94 85 95 85 95 84 96 84 96 83 97 83 97 82 98 82 98 81 99 81 99 79 98 79 98 78 97 78 97 77 96 77 96 76 95 76 95 75 94 75 94 74 93 74 93 73 92 73 92 72 91 72 91 71 90 71 90 69 91 69 91 68 92 68 92 67 93 67 93 66 94 66 94 65 95 65 95 64 96 64 96 63 97 63 97 62 98 62 98 61 99 61 99 59 98 59 98 58 97 58 97 57 96 57 96 56 95 56 95 55 94 55 94 54 93 54 93 53 92 53 92 52 91 52 91 51 90 51 90 49 91 49 91 48 92 48 92 47 93 47 93 46 94 46 94 45 95 45 95 44 96 44 96 43 97 43 97 42 98 42 98 41 99 41 99 39 98 39 98 38 97 38 97 37 96 37 96 36 95 36 95 35 94 35 94 34 93 34 93 33 92 33 92 32 91 32 91 31 90 31 90 29 91 29 91 28 92 28 92 27 93 27 93 26 94 26 94 25 95 25 95 24 96 24 96 23 97 23 97 22 98 22 98 21 99 21 99 19 98 19 98 18"/><polygon points="2 28 2 27 3 27 3 26 4 26 4 25 5 25 5 24 6 24 6 23 7 23 7 22 8 22 8 21 9 21 9 19 8 19 8 18 7 18 7 17 6 17 6 16 5 16 5 15 4 15 4 14 3 14 3 13 2 13 2 12 1 12 1 11 0 11 0 29 1 29 1 28 2 28"/><polygon points="98 22 98 23 97 23 97 24 96 24 96 25 95 25 95 26 94 26 94 27 93 27 93 28 92 28 92 29 91 29 91 31 92 31 92 32 93 32 93 33 94 33 94 34 95 34 95 35 96 35 96 36 97 36 97 37 98 37 98 38 99 38 99 39 100 39 100 21 99 21 99 22 98 22"/><polygon points="2 48 2 47 3 47 3 46 4 46 4 45 5 45 5 44 6 44 6 43 7 43 7 42 8 42 8 41 9 41 9 39 8 39 8 38 7 38 7 37 6 37 6 36 5 36 5 35 4 35 4 34 3 34 3 33 2 33 2 32 1 32 1 31 0 31 0 49 1 49 1 48 2 48"/><polygon points="98 42 98 43 97 43 97 44 96 44 96 45 95 45 95 46 94 46 94 47 93 47 93 48 92 48 92 49 91 49 91 51 92 51 92 52 93 52 93 53 94 53 94 54 95 54 95 55 96 55 96 56 97 56 97 57 98 57 98 58 99 58 99 59 100 59 100 41 99 41 99 42 98 42"/><polygon points="2 68 2 67 3 67 3 66 4 66 4 65 5 65 5 64 6 64 6 63 7 63 7 62 8 62 8 61 9 61 9 59 8 59 8 58 7 58 7 57 6 57 6 56 5 56 5 55 4 55 4 54 3 54 3 53 2 53 2 52 1 52 1 51 0 51 0 69 1 69 1 68 2 68"/><polygon points="98 62 98 63 97 63 97 64 96 64 96 65 95 65 95 66 94 66 94 67 93 67 93 68 92 68 92 69 91 69 91 71 92 71 92 72 93 72 93 73 94 73 94 74 95 74 95 75 96 75 96 76 97 76 97 77 98 77 98 78 99 78 99 79 100 79 100 61 99 61 99 62 98 62"/><polygon points="2 88 2 87 3 87 3 86 4 86 4 85 5 85 5 84 6 84 6 83 7 83 7 82 8 82 8 81 9 81 9 79 8 79 8 78 7 78 7 77 6 77 6 76 5 76 5 75 4 75 4 74 3 74 3 73 2 73 2 72 1 72 1 71 0 71 0 89 1 89 1 88 2 88"/><polygon points="98 82 98 83 97 83 97 84 96 84 96 85 95 85 95 86 94 86 94 87 93 87 93 88 92 88 92 89 91 89 91 91 92 91 92 92 93 92 93 93 94 93 94 94 95 94 95 95 96 95 96 96 97 96 97 97 98 97 98 98 99 98 99 99 100 99 100 81 99 81 99 82 98 82"/><polygon points="88 98 87 98 87 97 86 97 86 96 85 96 85 95 84 95 84 94 83 94 83 93 82 93 82 92 81 92 81 91 80 91 80 89 81 89 81 88 82 88 82 87 83 87 83 86 84 86 84 85 85 85 85 84 86 84 86 83 87 83 87 82 88 82 88 81 89 81 89 79 88 79 88 78 87 78 87 77 86 77 86 76 85 76 85 75 84 75 84 74 83 74 83 73 82 73 82 72 81 72 81 71 80 71 80 69 81 69 81 68 82 68 82 67 83 67 83 66 84 66 84 65 85 65 85 64 86 64 86 63 87 63 87 62 88 62 88 61 89 61 89 59 88 59 88 58 87 58 87 57 86 57 86 56 85 56 85 55 84 55 84 54 83 54 83 53 82 53 82 52 81 52 81 51 80 51 80 49 81 49 81 48 82 48 82 47 83 47 83 46 84 46 84 45 85 45 85 44 86 44 86 43 87 43 87 42 88 42 88 41 89 41 89 39 88 39 88 38 87 38 87 37 86 37 86 36 85 36 85 35 84 35 84 34 83 34 83 33 82 33 82 32 81 32 81 31 80 31 80 29 81 29 81 28 82 28 82 27 83 27 83 26 84 26 84 25 85 25 85 24 86 24 86 23 87 23 87 22 88 22 88 21 89 21 89 19 88 19 88 18 87 18 87 17 86 17 86 16 85 16 85 15 84 15 84 14 83 14 83 13 82 13 82 12 81 12 81 11 80 11 80 9 81 9 81 8 82 8 82 7 83 7 83 6 84 6 84 5 85 5 85 4 86 4 86 3 87 3 87 2 88 2 88 1 89 1 89 0 80 0 80 1 79 1 79 2 78 2 78 3 77 3 77 4 76 4 76 5 75 5 75 6 74 6 74 7 73 7 73 8 72 8 72 9 71 9 71 11 72 11 72 12 73 12 73 13 74 13 74 14 75 14 75 15 76 15 76 16 77 16 77 17 78 17 78 18 79 18 79 19 80 19 80 21 79 21 79 22 78 22 78 23 77 23 77 24 76 24 76 25 75 25 75 26 74 26 74 27 73 27 73 28 72 28 72 29 71 29 71 31 72 31 72 32 73 32 73 33 74 33 74 34 75 34 75 35 76 35 76 36 77 36 77 37 78 37 78 38 79 38 79 39 80 39 80 41 79 41 79 42 78 42 78 43 77 43 77 44 76 44 76 45 75 45 75 46 74 46 74 47 73 47 73 48 72 48 72 49 71 49 71 51 72 51 72 52 73 52 73 53 74 53 74 54 75 54 75 55 76 55 76 56 77 56 77 57 78 57 78 58 79 58 79 59 80 59 80 61 79 61 79 62 78 62 78 63 77 63 77 64 76 64 76 65 75 65 75 66 74 66 74 67 73 67 73 68 72 68 72 69 71 69 71 71 72 71 72 72 73 72 73 73 74 73 74 74 75 74 75 75 76 75 76 76 77 76 77 77 78 77 78 78 79 78 79 79 80 79 80 81 79 81 79 82 78 82 78 83 77 83 77 84 76 84 76 85 75 85 75 86 74 86 74 87 73 87 73 88 72 88 72 89 71 89 71 91 72 91 72 92 73 92 73 93 74 93 74 94 75 94 75 95 76 95 76 96 77 96 77 97 78 97 78 98 79 98 79 99 80 99 80 100 89 100 89 99 88 99 88 98"/><polygon points="78 98 77 98 77 97 76 97 76 96 75 96 75 95 74 95 74 94 73 94 73 93 72 93 72 92 71 92 71 91 70 91 70 89 71 89 71 88 72 88 72 87 73 87 73 86 74 86 74 85 75 85 75 84 76 84 76 83 77 83 77 82 78 82 78 81 79 81 79 79 78 79 78 78 77 78 77 77 76 77 76 76 75 76 75 75 74 75 74 74 73 74 73 73 72 73 72 72 71 72 71 71 70 71 70 69 71 69 71 68 72 68 72 67 73 67 73 66 74 66 74 65 75 65 75 64 76 64 76 63 77 63 77 62 78 62 78 61 79 61 79 59 78 59 78 58 77 58 77 57 76 57 76 56 75 56 75 55 74 55 74 54 73 54 73 53 72 53 72 52 71 52 71 51 70 51 70 49 71 49 71 48 72 48 72 47 73 47 73 46 74 46 74 45 75 45 75 44 76 44 76 43 77 43 77 42 78 42 78 41 79 41 79 39 78 39 78 38 77 38 77 37 76 37 76 36 75 36 75 35 74 35 74 34 73 34 73 33 72 33 72 32 71 32 71 31 70 31 70 29 71 29 71 28 72 28 72 27 73 27 73 26 74 26 74 25 75 25 75 24 76 24 76 23 77 23 77 22 78 22 78 21 79 21 79 19 78 19 78 18 77 18 77 17 76 17 76 16 75 16 75 15 74 15 74 14 73 14 73 13 72 13 72 12 71 12 71 11 70 11 70 9 71 9 71 8 72 8 72 7 73 7 73 6 74 6 74 5 75 5 75 4 76 4 76 3 77 3 77 2 78 2 78 1 79 1 79 0 70 0 70 1 69 1 69 2 68 2 68 3 67 3 67 4 66 4 66 5 65 5 65 6 64 6 64 7 63 7 63 8 62 8 62 9 61 9 61 11 62 11 62 12 63 12 63 13 64 13 64 14 65 14 65 15 66 15 66 16 67 16 67 17 68 17 68 18 69 18 69 19 70 19 70 21 69 21 69 22 68 22 68 23 67 23 67 24 66 24 66 25 65 25 65 26 64 26 64 27 63 27 63 28 62 28 62 29 61 29 61 31 62 31 62 32 63 32 63 33 64 33 64 34 65 34 65 35 66 35 66 36 67 36 67 37 68 37 68 38 69 38 69 39 70 39 70 41 69 41 69 42 68 42 68 43 67 43 67 44 66 44 66 45 65 45 65 46 64 46 64 47 63 47 63 48 62 48 62 49 61 49 61 51 62 51 62 52 63 52 63 53 64 53 64 54 65 54 65 55 66 55 66 56 67 56 67 57 68 57 68 58 69 58 69 59 70 59 70 61 69 61 69 62 68 62 68 63 67 63 67 64 66 64 66 65 65 65 65 66 64 66 64 67 63 67 63 68 62 68 62 69 61 69 61 71 62 71 62 72 63 72 63 73 64 73 64 74 65 74 65 75 66 75 66 76 67 76 67 77 68 77 68 78 69 78 69 79 70 79 70 81 69 81 69 82 68 82 68 83 67 83 67 84 66 84 66 85 65 85 65 86 64 86 64 87 63 87 63 88 62 88 62 89 61 89 61 91 62 91 62 92 63 92 63 93 64 93 64 94 65 94 65 95 66 95 66 96 67 96 67 97 68 97 68 98 69 98 69 99 70 99 70 100 79 100 79 99 78 99 78 98"/><polygon points="68 98 67 98 67 97 66 97 66 96 65 96 65 95 64 95 64 94 63 94 63 93 62 93 62 92 61 92 61 91 60 91 60 89 61 89 61 88 62 88 62 87 63 87 63 86 64 86 64 85 65 85 65 84 66 84 66 83 67 83 67 82 68 82 68 81 69 81 69 79 68 79 68 78 67 78 67 77 66 77 66 76 65 76 65 75 64 75 64 74 63 74 63 73 62 73 62 72 61 72 61 71 60 71 60 69 61 69 61 68 62 68 62 67 63 67 63 66 64 66 64 65 65 65 65 64 66 64 66 63 67 63 67 62 68 62 68 61 69 61 69 59 68 59 68 58 67 58 67 57 66 57 66 56 65 56 65 55 64 55 64 54 63 54 63 53 62 53 62 52 61 52 61 51 60 51 60 49 61 49 61 48 62 48 62 47 63 47 63 46 64 46 64 45 65 45 65 44 66 44 66 43 67 43 67 42 68 42 68 41 69 41 69 39 68 39 68 38 67 38 67 37 66 37 66 36 65 36 65 35 64 35 64 34 63 34 63 33 62 33 62 32 61 32 61 31 60 31 60 29 61 29 61 28 62 28 62 27 63 27 63 26 64 26 64 25 65 25 65 24 66 24 66 23 67 23 67 22 68 22 68 21 69 21 69 19 68 19 68 18 67 18 67 17 66 17 66 16 65 16 65 15 64 15 64 14 63 14 63 13 62 13 62 12 61 12 61 11 60 11 60 9 61 9 61 8 62 8 62 7 63 7 63 6 64 6 64 5 65 5 65 4 66 4 66 3 67 3 67 2 68 2 68 1 69 1 69 0 60 0 60 1 59 1 59 2 58 2 58 3 57 3 57 4 56 4 56 5 55 5 55 6 54 6 54 7 53 7 53 8 52 8 52 9 51 9 51 11 52 11 52 12 53 12 53 13 54 13 54 14 55 14 55 15 56 15 56 16 57 16 57 17 58 17 58 18 59 18 59 19 60 19 60 21 59 21 59 22 58 22 58 23 57 23 57 24 56 24 56 25 55 25 55 26 54 26 54 27 53 27 53 28 52 28 52 29 51 29 51 31 52 31 52 32 53 32 53 33 54 33 54 34 55 34 55 35 56 35 56 36 57 36 57 37 58 37 58 38 59 38 59 39 60 39 60 41 59 41 59 42 58 42 58 43 57 43 57 44 56 44 56 45 55 45 55 46 54 46 54 47 53 47 53 48 52 48 52 49 51 49 51 51 52 51 52 52 53 52 53 53 54 53 54 54 55 54 55 55 56 55 56 56 57 56 57 57 58 57 58 58 59 58 59 59 60 59 60 61 59 61 59 62 58 62 58 63 57 63 57 64 56 64 56 65 55 65 55 66 54 66 54 67 53 67 53 68 52 68 52 69 51 69 51 71 52 71 52 72 53 72 53 73 54 73 54 74 55 74 55 75 56 75 56 76 57 76 57 77 58 77 58 78 59 78 59 79 60 79 60 81 59 81 59 82 58 82 58 83 57 83 57 84 56 84 56 85 55 85 55 86 54 86 54 87 53 87 53 88 52 88 52 89 51 89 51 91 52 91 52 92 53 92 53 93 54 93 54 94 55 94 55 95 56 95 56 96 57 96 57 97 58 97 58 98 59 98 59 99 60 99 60 100 69 100 69 99 68 99 68 98"/><polygon points="58 98 57 98 57 97 56 97 56 96 55 96 55 95 54 95 54 94 53 94 53 93 52 93 52 92 51 92 51 91 50 91 50 89 51 89 51 88 52 88 52 87 53 87 53 86 54 86 54 85 55 85 55 84 56 84 56 83 57 83 57 82 58 82 58 81 59 81 59 79 58 79 58 78 57 78 57 77 56 77 56 76 55 76 55 75 54 75 54 74 53 74 53 73 52 73 52 72 51 72 51 71 50 71 50 69 51 69 51 68 52 68 52 67 53 67 53 66 54 66 54 65 55 65 55 64 56 64 56 63 57 63 57 62 58 62 58 61 59 61 59 59 58 59 58 58 57 58 57 57 56 57 56 56 55 56 55 55 54 55 54 54 53 54 53 53 52 53 52 52 51 52 51 51 50 51 50 49 51 49 51 48 52 48 52 47 53 47 53 46 54 46 54 45 55 45 55 44 56 44 56 43 57 43 57 42 58 42 58 41 59 41 59 39 58 39 58 38 57 38 57 37 56 37 56 36 55 36 55 35 54 35 54 34 53 34 53 33 52 33 52 32 51 32 51 31 50 31 50 29 51 29 51 28 52 28 52 27 53 27 53 26 54 26 54 25 55 25 55 24 56 24 56 23 57 23 57 22 58 22 58 21 59 21 59 19 58 19 58 18 57 18 57 17 56 17 56 16 55 16 55 15 54 15 54 14 53 14 53 13 52 13 52 12 51 12 51 11 50 11 50 9 51 9 51 8 52 8 52 7 53 7 53 6 54 6 54 5 55 5 55 4 56 4 56 3 57 3 57 2 58 2 58 1 59 1 59 0 50 0 50 1 49 1 49 2 48 2 48 3 47 3 47 4 46 4 46 5 45 5 45 6 44 6 44 7 43 7 43 8 42 8 42 9 41 9 41 11 42 11 42 12 43 12 43 13 44 13 44 14 45 14 45 15 46 15 46 16 47 16 47 17 48 17 48 18 49 18 49 19 50 19 50 21 49 21 49 22 48 22 48 23 47 23 47 24 46 24 46 25 45 25 45 26 44 26 44 27 43 27 43 28 42 28 42 29 41 29 41 31 42 31 42 32 43 32 43 33 44 33 44 34 45 34 45 35 46 35 46 36 47 36 47 37 48 37 48 38 49 38 49 39 50 39 50 41 49 41 49 42 48 42 48 43 47 43 47 44 46 44 46 45 45 45 45 46 44 46 44 47 43 47 43 48 42 48 42 49 41 49 41 51 42 51 42 52 43 52 43 53 44 53 44 54 45 54 45 55 46 55 46 56 47 56 47 57 48 57 48 58 49 58 49 59 50 59 50 61 49 61 49 62 48 62 48 63 47 63 47 64 46 64 46 65 45 65 45 66 44 66 44 67 43 67 43 68 42 68 42 69 41 69 41 71 42 71 42 72 43 72 43 73 44 73 44 74 45 74 45 75 46 75 46 76 47 76 47 77 48 77 48 78 49 78 49 79 50 79 50 81 49 81 49 82 48 82 48 83 47 83 47 84 46 84 46 85 45 85 45 86 44 86 44 87 43 87 43 88 42 88 42 89 41 89 41 91 42 91 42 92 43 92 43 93 44 93 44 94 45 94 45 95 46 95 46 96 47 96 47 97 48 97 48 98 49 98 49 99 50 99 50 100 59 100 59 99 58 99 58 98"/><polygon points="48 98 47 98 47 97 46 97 46 96 45 96 45 95 44 95 44 94 43 94 43 93 42 93 42 92 41 92 41 91 40 91 40 89 41 89 41 88 42 88 42 87 43 87 43 86 44 86 44 85 45 85 45 84 46 84 46 83 47 83 47 82 48 82 48 81 49 81 49 79 48 79 48 78 47 78 47 77 46 77 46 76 45 76 45 75 44 75 44 74 43 74 43 73 42 73 42 72 41 72 41 71 40 71 40 69 41 69 41 68 42 68 42 67 43 67 43 66 44 66 44 65 45 65 45 64 46 64 46 63 47 63 47 62 48 62 48 61 49 61 49 59 48 59 48 58 47 58 47 57 46 57 46 56 45 56 45 55 44 55 44 54 43 54 43 53 42 53 42 52 41 52 41 51 40 51 40 49 41 49 41 48 42 48 42 47 43 47 43 46 44 46 44 45 45 45 45 44 46 44 46 43 47 43 47 42 48 42 48 41 49 41 49 39 48 39 48 38 47 38 47 37 46 37 46 36 45 36 45 35 44 35 44 34 43 34 43 33 42 33 42 32 41 32 41 31 40 31 40 29 41 29 41 28 42 28 42 27 43 27 43 26 44 26 44 25 45 25 45 24 46 24 46 23 47 23 47 22 48 22 48 21 49 21 49 19 48 19 48 18 47 18 47 17 46 17 46 16 45 16 45 15 44 15 44 14 43 14 43 13 42 13 42 12 41 12 41 11 40 11 40 9 41 9 41 8 42 8 42 7 43 7 43 6 44 6 44 5 45 5 45 4 46 4 46 3 47 3 47 2 48 2 48 1 49 1 49 0 40 0 40 1 39 1 39 2 38 2 38 3 37 3 37 4 36 4 36 5 35 5 35 6 34 6 34 7 33 7 33 8 32 8 32 9 31 9 31 11 32 11 32 12 33 12 33 13 34 13 34 14 35 14 35 15 36 15 36 16 37 16 37 17 38 17 38 18 39 18 39 19 40 19 40 21 39 21 39 22 38 22 38 23 37 23 37 24 36 24 36 25 35 25 35 26 34 26 34 27 33 27 33 28 32 28 32 29 31 29 31 31 32 31 32 32 33 32 33 33 34 33 34 34 35 34 35 35 36 35 36 36 37 36 37 37 38 37 38 38 39 38 39 39 40 39 40 41 39 41 39 42 38 42 38 43 37 43 37 44 36 44 36 45 35 45 35 46 34 46 34 47 33 47 33 48 32 48 32 49 31 49 31 51 32 51 32 52 33 52 33 53 34 53 34 54 35 54 35 55 36 55 36 56 37 56 37 57 38 57 38 58 39 58 39 59 40 59 40 61 39 61 39 62 38 62 38 63 37 63 37 64 36 64 36 65 35 65 35 66 34 66 34 67 33 67 33 68 32 68 32 69 31 69 31 71 32 71 32 72 33 72 33 73 34 73 34 74 35 74 35 75 36 75 36 76 37 76 37 77 38 77 38 78 39 78 39 79 40 79 40 81 39 81 39 82 38 82 38 83 37 83 37 84 36 84 36 85 35 85 35 86 34 86 34 87 33 87 33 88 32 88 32 89 31 89 31 91 32 91 32 92 33 92 33 93 34 93 34 94 35 94 35 95 36 95 36 96 37 96 37 97 38 97 38 98 39 98 39 99 40 99 40 100 49 100 49 99 48 99 48 98"/><polygon points="38 98 37 98 37 97 36 97 36 96 35 96 35 95 34 95 34 94 33 94 33 93 32 93 32 92 31 92 31 91 30 91 30 89 31 89 31 88 32 88 32 87 33 87 33 86 34 86 34 85 35 85 35 84 36 84 36 83 37 83 37 82 38 82 38 81 39 81 39 79 38 79 38 78 37 78 37 77 36 77 36 76 35 76 35 75 34 75 34 74 33 74 33 73 32 73 32 72 31 72 31 71 30 71 30 69 31 69 31 68 32 68 32 67 33 67 33 66 34 66 34 65 35 65 35 64 36 64 36 63 37 63 37 62 38 62 38 61 39 61 39 59 38 59 38 58 37 58 37 57 36 57 36 56 35 56 35 55 34 55 34 54 33 54 33 53 32 53 32 52 31 52 31 51 30 51 30 49 31 49 31 48 32 48 32 47 33 47 33 46 34 46 34 45 35 45 35 44 36 44 36 43 37 43 37 42 38 42 38 41 39 41 39 39 38 39 38 38 37 38 37 37 36 37 36 36 35 36 35 35 34 35 34 34 33 34 33 33 32 33 32 32 31 32 31 31 30 31 30 29 31 29 31 28 32 28 32 27 33 27 33 26 34 26 34 25 35 25 35 24 36 24 36 23 37 23 37 22 38 22 38 21 39 21 39 19 38 19 38 18 37 18 37 17 36 17 36 16 35 16 35 15 34 15 34 14 33 14 33 13 32 13 32 12 31 12 31 11 30 11 30 9 31 9 31 8 32 8 32 7 33 7 33 6 34 6 34 5 35 5 35 4 36 4 36 3 37 3 37 2 38 2 38 1 39 1 39 0 30 0 30 1 29 1 29 2 28 2 28 3 27 3 27 4 26 4 26 5 25 5 25 6 24 6 24 7 23 7 23 8 22 8 22 9 21 9 21 11 22 11 22 12 23 12 23 13 24 13 24 14 25 14 25 15 26 15 26 16 27 16 27 17 28 17 28 18 29 18 29 19 30 19 30 21 29 21 29 22 28 22 28 23 27 23 27 24 26 24 26 25 25 25 25 26 24 26 24 27 23 27 23 28 22 28 22 29 21 29 21 31 22 31 22 32 23 32 23 33 24 33 24 34 25 34 25 35 26 35 26 36 27 36 27 37 28 37 28 38 29 38 29 39 30 39 30 41 29 41 29 42 28 42 28 43 27 43 27 44 26 44 26 45 25 45 25 46 24 46 24 47 23 47 23 48 22 48 22 49 21 49 21 51 22 51 22 52 23 52 23 53 24 53 24 54 25 54 25 55 26 55 26 56 27 56 27 57 28 57 28 58 29 58 29 59 30 59 30 61 29 61 29 62 28 62 28 63 27 63 27 64 26 64 26 65 25 65 25 66 24 66 24 67 23 67 23 68 22 68 22 69 21 69 21 71 22 71 22 72 23 72 23 73 24 73 24 74 25 74 25 75 26 75 26 76 27 76 27 77 28 77 28 78 29 78 29 79 30 79 30 81 29 81 29 82 28 82 28 83 27 83 27 84 26 84 26 85 25 85 25 86 24 86 24 87 23 87 23 88 22 88 22 89 21 89 21 91 22 91 22 92 23 92 23 93 24 93 24 94 25 94 25 95 26 95 26 96 27 96 27 97 28 97 28 98 29 98 29 99 30 99 30 100 39 100 39 99 38 99 38 98"/><polygon points="28 98 27 98 27 97 26 97 26 96 25 96 25 95 24 95 24 94 23 94 23 93 22 93 22 92 21 92 21 91 20 91 20 89 21 89 21 88 22 88 22 87 23 87 23 86 24 86 24 85 25 85 25 84 26 84 26 83 27 83 27 82 28 82 28 81 29 81 29 79 28 79 28 78 27 78 27 77 26 77 26 76 25 76 25 75 24 75 24 74 23 74 23 73 22 73 22 72 21 72 21 71 20 71 20 69 21 69 21 68 22 68 22 67 23 67 23 66 24 66 24 65 25 65 25 64 26 64 26 63 27 63 27 62 28 62 28 61 29 61 29 59 28 59 28 58 27 58 27 57 26 57 26 56 25 56 25 55 24 55 24 54 23 54 23 53 22 53 22 52 21 52 21 51 20 51 20 49 21 49 21 48 22 48 22 47 23 47 23 46 24 46 24 45 25 45 25 44 26 44 26 43 27 43 27 42 28 42 28 41 29 41 29 39 28 39 28 38 27 38 27 37 26 37 26 36 25 36 25 35 24 35 24 34 23 34 23 33 22 33 22 32 21 32 21 31 20 31 20 29 21 29 21 28 22 28 22 27 23 27 23 26 24 26 24 25 25 25 25 24 26 24 26 23 27 23 27 22 28 22 28 21 29 21 29 19 28 19 28 18 27 18 27 17 26 17 26 16 25 16 25 15 24 15 24 14 23 14 23 13 22 13 22 12 21 12 21 11 20 11 20 9 21 9 21 8 22 8 22 7 23 7 23 6 24 6 24 5 25 5 25 4 26 4 26 3 27 3 27 2 28 2 28 1 29 1 29 0 20 0 20 1 19 1 19 2 18 2 18 3 17 3 17 4 16 4 16 5 15 5 15 6 14 6 14 7 13 7 13 8 12 8 12 9 11 9 11 11 12 11 12 12 13 12 13 13 14 13 14 14 15 14 15 15 16 15 16 16 17 16 17 17 18 17 18 18 19 18 19 19 20 19 20 21 19 21 19 22 18 22 18 23 17 23 17 24 16 24 16 25 15 25 15 26 14 26 14 27 13 27 13 28 12 28 12 29 11 29 11 31 12 31 12 32 13 32 13 33 14 33 14 34 15 34 15 35 16 35 16 36 17 36 17 37 18 37 18 38 19 38 19 39 20 39 20 41 19 41 19 42 18 42 18 43 17 43 17 44 16 44 16 45 15 45 15 46 14 46 14 47 13 47 13 48 12 48 12 49 11 49 11 51 12 51 12 52 13 52 13 53 14 53 14 54 15 54 15 55 16 55 16 56 17 56 17 57 18 57 18 58 19 58 19 59 20 59 20 61 19 61 19 62 18 62 18 63 17 63 17 64 16 64 16 65 15 65 15 66 14 66 14 67 13 67 13 68 12 68 12 69 11 69 11 71 12 71 12 72 13 72 13 73 14 73 14 74 15 74 15 75 16 75 16 76 17 76 17 77 18 77 18 78 19 78 19 79 20 79 20 81 19 81 19 82 18 82 18 83 17 83 17 84 16 84 16 85 15 85 15 86 14 86 14 87 13 87 13 88 12 88 12 89 11 89 11 91 12 91 12 92 13 92 13 93 14 93 14 94 15 94 15 95 16 95 16 96 17 96 17 97 18 97 18 98 19 98 19 99 20 99 20 100 29 100 29 99 28 99 28 98"/><polygon points="18 98 17 98 17 97 16 97 16 96 15 96 15 95 14 95 14 94 13 94 13 93 12 93 12 92 11 92 11 91 10 91 10 89 11 89 11 88 12 88 12 87 13 87 13 86 14 86 14 85 15 85 15 84 16 84 16 83 17 83 17 82 18 82 18 81 19 81 19 79 18 79 18 78 17 78 17 77 16 77 16 76 15 76 15 75 14 75 14 74 13 74 13 73 12 73 12 72 11 72 11 71 10 71 10 69 11 69 11 68 12 68 12 67 13 67 13 66 14 66 14 65 15 65 15 64 16 64 16 63 17 63 17 62 18 62 18 61 19 61 19 59 18 59 18 58 17 58 17 57 16 57 16 56 15 56 15 55 14 55 14 54 13 54 13 53 12 53 12 52 11 52 11 51 10 51 10 49 11 49 11 48 12 48 12 47 13 47 13 46 14 46 14 45 15 45 15 44 16 44 16 43 17 43 17 42 18 42 18 41 19 41 19 39 18 39 18 38 17 38 17 37 16 37 16 36 15 36 15 35 14 35 14 34 13 34 13 33 12 33 12 32 11 32 11 31 10 31 10 29 11 29 11 28 12 28 12 27 13 27 13 26 14 26 14 25 15 25 15 24 16 24 16 23 17 23 17 22 18 22 18 21 19 21 19 19 18 19 18 18 17 18 17 17 16 17 16 16 15 16 15 15 14 15 14 14 13 14 13 13 12 13 12 12 11 12 11 11 10 11 10 9 11 9 11 8 12 8 12 7 13 7 13 6 14 6 14 5 15 5 15 4 16 4 16 3 17 3 17 2 18 2 18 1 19 1 19 0 10 0 10 1 9 1 9 2 8 2 8 3 7 3 7 4 6 4 6 5 5 5 5 6 4 6 4 7 3 7 3 8 2 8 2 9 1 9 1 11 2 11 2 12 3 12 3 13 4 13 4 14 5 14 5 15 6 15 6 16 7 16 7 17 8 17 8 18 9 18 9 19 10 19 10 21 9 21 9 22 8 22 8 23 7 23 7 24 6 24 6 25 5 25 5 26 4 26 4 27 3 27 3 28 2 28 2 29 1 29 1 31 2 31 2 32 3 32 3 33 4 33 4 34 5 34 5 35 6 35 6 36 7 36 7 37 8 37 8 38 9 38 9 39 10 39 10 41 9 41 9 42 8 42 8 43 7 43 7 44 6 44 6 45 5 45 5 46 4 46 4 47 3 47 3 48 2 48 2 49 1 49 1 51 2 51 2 52 3 52 3 53 4 53 4 54 5 54 5 55 6 55 6 56 7 56 7 57 8 57 8 58 9 58 9 59 10 59 10 61 9 61 9 62 8 62 8 63 7 63 7 64 6 64 6 65 5 65 5 66 4 66 4 67 3 67 3 68 2 68 2 69 1 69 1 71 2 71 2 72 3 72 3 73 4 73 4 74 5 74 5 75 6 75 6 76 7 76 7 77 8 77 8 78 9 78 9 79 10 79 10 81 9 81 9 82 8 82 8 83 7 83 7 84 6 84 6 85 5 85 5 86 4 86 4 87 3 87 3 88 2 88 2 89 1 89 1 91 2 91 2 92 3 92 3 93 4 93 4 94 5 94 5 95 6 95 6 96 7 96 7 97 8 97 8 98 9 98 9 99 10 99 10 100 19 100 19 99 18 99 18 98"/><polygon points="8 98 7 98 7 97 6 97 6 96 5 96 5 95 4 95 4 94 3 94 3 93 2 93 2 92 1 92 1 91 0 91 0 100 9 100 9 99 8 99 8 98"/></svg>