<svg id="Layer_1" data-name="Layer 1" xmlns="http://www.w3.org/2000/svg" viewBox="0 0 100 100"><title>pattern</title><polygon points="9 20 8 20 8 30 7 30 7 40 6 40 6 50 5 50 5 60 4 60 4 70 3 70 3 80 2 80 2 90 1 90 1 100 0 100 0 90 0 80 0 70 0 60 0 50 0 40 0 30 0 20 0 10 0 0 10 0 10 10 9 10 9 20"/><polygon points="90 100 90 90 91 90 91 80 92 80 92 70 93 70 93 60 94 60 94 50 95 50 95 40 96 40 96 30 97 30 97 20 98 20 98 10 99 10 99 0 100 0 100 10 100 20 100 30 100 40 100 50 100 60 100 70 100 80 100 90 100 100 90 100"/><polygon points="20 20 19 20 19 30 18 30 18 40 17 40 17 50 16 50 16 60 15 60 15 70 14 70 14 80 13 80 13 90 12 90 12 100 2 100 2 90 3 90 3 80 4 80 4 70 5 70 5 60 6 60 6 50 7 50 7 40 8 40 8 30 9 30 9 20 10 20 10 10 11 10 11 0 21 0 21 10 20 10 20 20"/><polygon points="42 20 41 20 41 30 40 30 40 40 39 40 39 50 38 50 38 60 37 60 37 70 36 70 36 80 35 80 35 90 34 90 34 100 24 100 24 90 25 90 25 80 26 80 26 70 27 70 27 60 28 60 28 50 29 50 29 40 30 40 30 30 31 30 31 20 32 20 32 10 33 10 33 0 43 0 43 10 42 10 42 20"/><polygon points="64 20 63 20 63 30 62 30 62 40 61 40 61 50 60 50 60 60 59 60 59 70 58 70 58 80 57 80 57 90 56 90 56 100 46 100 46 90 47 90 47 80 48 80 48 70 49 70 49 60 50 60 50 50 51 50 51 40 52 40 52 30 53 30 53 20 54 20 54 10 55 10 55 0 65 0 65 10 64 10 64 20"/><polygon points="86 20 85 20 85 30 84 30 84 40 83 40 83 50 82 50 82 60 81 60 81 70 80 70 80 80 79 80 79 90 78 90 78 100 68 100 68 90 69 90 69 80 70 80 70 70 71 70 71 60 72 60 72 50 73 50 73 40 74 40 74 30 75 30 75 20 76 20 76 10 77 10 77 0 87 0 87 10 86 10 86 20"/><polygon points="31 20 30 20 30 30 29 30 29 40 28 40 28 50 27 50 27 60 26 60 26 70 25 70 25 80 24 80 24 90 23 90 23 100 13 100 13 90 14 90 14 80 15 80 15 70 16 70 16 60 17 60 17 50 18 50 18 40 19 40 19 30 20 30 20 20 21 20 21 10 22 10 22 0 32 0 32 10 31 10 31 20"/><polygon points="53 20 52 20 52 30 51 30 51 40 50 40 50 50 49 50 49 60 48 60 48 70 47 70 47 80 46 80 46 90 45 90 45 100 35 100 35 90 36 90 36 80 37 80 37 70 38 70 38 60 39 60 39 50 40 50 40 40 41 40 41 30 42 30 42 20 43 20 43 10 44 10 44 0 54 0 54 10 53 10 53 20"/><polygon points="75 20 74 20 74 30 73 30 73 40 72 40 72 50 71 50 71 60 70 60 70 70 69 70 69 80 68 80 68 90 67 90 67 100 57 100 57 90 58 90 58 80 59 80 59 70 60 70 60 60 61 60 61 50 62 50 62 40 63 40 63 30 64 30 64 20 65 20 65 10 66 10 66 0 76 0 76 10 75 10 75 20"/><polygon points="97 20 96 20 96 30 95 30 95 40 94 40 94 50 93 50 93 60 92 60 92 70 91 70 91 80 90 80 90 90 89 90 89 100 79 100 79 90 80 90 80 80 81 80 81 70 82 70 82 60 83 60 83 50 84 50 84 40 85 40 85 30 86 30 86 20 87 20 87 10 88 10 88 0 98 0 98 10 97 10 97 20"/></svg>