<svg id="Layer_1" data-name="Layer 1" xmlns="http://www.w3.org/2000/svg" viewBox="0 0 100 100"><title>pattern</title><polygon points="2 8 2 7 3 7 3 6 4 6 4 5 5 5 5 4 6 4 6 3 7 3 7 2 8 2 8 1 9 1 9 0 0 0 0 9 1 9 1 8 2 8"/><polygon points="100 10 100 1 99 1 99 2 98 2 98 3 97 3 97 4 96 4 96 5 95 5 95 6 94 6 94 7 93 7 93 8 92 8 92 9 91 9 91 10 90 10 90 11 89 11 89 12 88 12 88 13 87 13 87 14 86 14 86 15 85 15 85 16 84 16 84 17 83 17 83 18 82 18 82 19 81 19 81 20 80 20 80 21 79 21 79 22 78 22 78 23 77 23 77 24 76 24 76 25 75 25 75 26 74 26 74 27 73 27 73 28 72 28 72 29 71 29 71 30 70 30 70 31 69 31 69 32 68 32 68 33 67 33 67 34 66 34 66 35 65 35 65 36 64 36 64 37 63 37 63 38 62 38 62 39 61 39 61 40 60 40 60 41 59 41 59 42 58 42 58 43 57 43 57 44 56 44 56 45 55 45 55 46 54 46 54 47 53 47 53 48 52 48 52 49 51 49 51 50 50 50 50 51 49 51 49 52 48 52 48 53 47 53 47 54 46 54 46 55 45 55 45 56 44 56 44 57 43 57 43 58 42 58 42 59 41 59 41 60 40 60 40 61 39 61 39 62 38 62 38 63 37 63 37 64 36 64 36 65 35 65 35 66 34 66 34 67 33 67 33 68 32 68 32 69 31 69 31 70 30 70 30 71 29 71 29 72 28 72 28 73 27 73 27 74 26 74 26 75 25 75 25 76 24 76 24 77 23 77 23 78 22 78 22 79 21 79 21 80 20 80 20 81 19 81 19 82 18 82 18 83 17 83 17 84 16 84 16 85 15 85 15 86 14 86 14 87 13 87 13 88 12 88 12 89 11 89 11 90 10 90 10 91 9 91 9 92 8 92 8 93 7 93 7 94 6 94 6 95 5 95 5 96 4 96 4 97 3 97 3 98 2 98 2 99 1 99 1 100 10 100 10 99 11 99 11 98 12 98 12 97 13 97 13 96 14 96 14 95 15 95 15 94 16 94 16 93 17 93 17 92 18 92 18 91 19 91 19 90 20 90 20 89 21 89 21 88 22 88 22 87 23 87 23 86 24 86 24 85 25 85 25 84 26 84 26 83 27 83 27 82 28 82 28 81 29 81 29 80 30 80 30 79 31 79 31 78 32 78 32 77 33 77 33 76 34 76 34 75 35 75 35 74 36 74 36 73 37 73 37 72 38 72 38 71 39 71 39 70 40 70 40 69 41 69 41 68 42 68 42 67 43 67 43 66 44 66 44 65 45 65 45 64 46 64 46 63 47 63 47 62 48 62 48 61 49 61 49 60 50 60 50 59 51 59 51 58 52 58 52 57 53 57 53 56 54 56 54 55 55 55 55 54 56 54 56 53 57 53 57 52 58 52 58 51 59 51 59 50 60 50 60 49 61 49 61 48 62 48 62 47 63 47 63 46 64 46 64 45 65 45 65 44 66 44 66 43 67 43 67 42 68 42 68 41 69 41 69 40 70 40 70 39 71 39 71 38 72 38 72 37 73 37 73 36 74 36 74 35 75 35 75 34 76 34 76 33 77 33 77 32 78 32 78 31 79 31 79 30 80 30 80 29 81 29 81 28 82 28 82 27 83 27 83 26 84 26 84 25 85 25 85 24 86 24 86 23 87 23 87 22 88 22 88 21 89 21 89 20 90 20 90 19 91 19 91 18 92 18 92 17 93 17 93 16 94 16 94 15 95 15 95 14 96 14 96 13 97 13 97 12 98 12 98 11 99 11 99 10 100 10"/><polygon points="2 18 2 17 3 17 3 16 4 16 4 15 5 15 5 14 6 14 6 13 7 13 7 12 8 12 8 11 9 11 9 10 10 10 10 9 11 9 11 8 12 8 12 7 13 7 13 6 14 6 14 5 15 5 15 4 16 4 16 3 17 3 17 2 18 2 18 1 19 1 19 0 10 0 10 1 9 1 9 2 8 2 8 3 7 3 7 4 6 4 6 5 5 5 5 6 4 6 4 7 3 7 3 8 2 8 2 9 1 9 1 10 0 10 0 19 1 19 1 18 2 18"/><polygon points="98 12 98 13 97 13 97 14 96 14 96 15 95 15 95 16 94 16 94 17 93 17 93 18 92 18 92 19 91 19 91 20 90 20 90 21 89 21 89 22 88 22 88 23 87 23 87 24 86 24 86 25 85 25 85 26 84 26 84 27 83 27 83 28 82 28 82 29 81 29 81 30 80 30 80 31 79 31 79 32 78 32 78 33 77 33 77 34 76 34 76 35 75 35 75 36 74 36 74 37 73 37 73 38 72 38 72 39 71 39 71 40 70 40 70 41 69 41 69 42 68 42 68 43 67 43 67 44 66 44 66 45 65 45 65 46 64 46 64 47 63 47 63 48 62 48 62 49 61 49 61 50 60 50 60 51 59 51 59 52 58 52 58 53 57 53 57 54 56 54 56 55 55 55 55 56 54 56 54 57 53 57 53 58 52 58 52 59 51 59 51 60 50 60 50 61 49 61 49 62 48 62 48 63 47 63 47 64 46 64 46 65 45 65 45 66 44 66 44 67 43 67 43 68 42 68 42 69 41 69 41 70 40 70 40 71 39 71 39 72 38 72 38 73 37 73 37 74 36 74 36 75 35 75 35 76 34 76 34 77 33 77 33 78 32 78 32 79 31 79 31 80 30 80 30 81 29 81 29 82 28 82 28 83 27 83 27 84 26 84 26 85 25 85 25 86 24 86 24 87 23 87 23 88 22 88 22 89 21 89 21 90 20 90 20 91 19 91 19 92 18 92 18 93 17 93 17 94 16 94 16 95 15 95 15 96 14 96 14 97 13 97 13 98 12 98 12 99 11 99 11 100 20 100 20 99 21 99 21 98 22 98 22 97 23 97 23 96 24 96 24 95 25 95 25 94 26 94 26 93 27 93 27 92 28 92 28 91 29 91 29 90 30 90 30 89 31 89 31 88 32 88 32 87 33 87 33 86 34 86 34 85 35 85 35 84 36 84 36 83 37 83 37 82 38 82 38 81 39 81 39 80 40 80 40 79 41 79 41 78 42 78 42 77 43 77 43 76 44 76 44 75 45 75 45 74 46 74 46 73 47 73 47 72 48 72 48 71 49 71 49 70 50 70 50 69 51 69 51 68 52 68 52 67 53 67 53 66 54 66 54 65 55 65 55 64 56 64 56 63 57 63 57 62 58 62 58 61 59 61 59 60 60 60 60 59 61 59 61 58 62 58 62 57 63 57 63 56 64 56 64 55 65 55 65 54 66 54 66 53 67 53 67 52 68 52 68 51 69 51 69 50 70 50 70 49 71 49 71 48 72 48 72 47 73 47 73 46 74 46 74 45 75 45 75 44 76 44 76 43 77 43 77 42 78 42 78 41 79 41 79 40 80 40 80 39 81 39 81 38 82 38 82 37 83 37 83 36 84 36 84 35 85 35 85 34 86 34 86 33 87 33 87 32 88 32 88 31 89 31 89 30 90 30 90 29 91 29 91 28 92 28 92 27 93 27 93 26 94 26 94 25 95 25 95 24 96 24 96 23 97 23 97 22 98 22 98 21 99 21 99 20 100 20 100 11 99 11 99 12 98 12"/><polygon points="2 28 2 27 3 27 3 26 4 26 4 25 5 25 5 24 6 24 6 23 7 23 7 22 8 22 8 21 9 21 9 20 10 20 10 19 11 19 11 18 12 18 12 17 13 17 13 16 14 16 14 15 15 15 15 14 16 14 16 13 17 13 17 12 18 12 18 11 19 11 19 10 20 10 20 9 21 9 21 8 22 8 22 7 23 7 23 6 24 6 24 5 25 5 25 4 26 4 26 3 27 3 27 2 28 2 28 1 29 1 29 0 20 0 20 1 19 1 19 2 18 2 18 3 17 3 17 4 16 4 16 5 15 5 15 6 14 6 14 7 13 7 13 8 12 8 12 9 11 9 11 10 10 10 10 11 9 11 9 12 8 12 8 13 7 13 7 14 6 14 6 15 5 15 5 16 4 16 4 17 3 17 3 18 2 18 2 19 1 19 1 20 0 20 0 29 1 29 1 28 2 28"/><polygon points="98 22 98 23 97 23 97 24 96 24 96 25 95 25 95 26 94 26 94 27 93 27 93 28 92 28 92 29 91 29 91 30 90 30 90 31 89 31 89 32 88 32 88 33 87 33 87 34 86 34 86 35 85 35 85 36 84 36 84 37 83 37 83 38 82 38 82 39 81 39 81 40 80 40 80 41 79 41 79 42 78 42 78 43 77 43 77 44 76 44 76 45 75 45 75 46 74 46 74 47 73 47 73 48 72 48 72 49 71 49 71 50 70 50 70 51 69 51 69 52 68 52 68 53 67 53 67 54 66 54 66 55 65 55 65 56 64 56 64 57 63 57 63 58 62 58 62 59 61 59 61 60 60 60 60 61 59 61 59 62 58 62 58 63 57 63 57 64 56 64 56 65 55 65 55 66 54 66 54 67 53 67 53 68 52 68 52 69 51 69 51 70 50 70 50 71 49 71 49 72 48 72 48 73 47 73 47 74 46 74 46 75 45 75 45 76 44 76 44 77 43 77 43 78 42 78 42 79 41 79 41 80 40 80 40 81 39 81 39 82 38 82 38 83 37 83 37 84 36 84 36 85 35 85 35 86 34 86 34 87 33 87 33 88 32 88 32 89 31 89 31 90 30 90 30 91 29 91 29 92 28 92 28 93 27 93 27 94 26 94 26 95 25 95 25 96 24 96 24 97 23 97 23 98 22 98 22 99 21 99 21 100 30 100 30 99 31 99 31 98 32 98 32 97 33 97 33 96 34 96 34 95 35 95 35 94 36 94 36 93 37 93 37 92 38 92 38 91 39 91 39 90 40 90 40 89 41 89 41 88 42 88 42 87 43 87 43 86 44 86 44 85 45 85 45 84 46 84 46 83 47 83 47 82 48 82 48 81 49 81 49 80 50 80 50 79 51 79 51 78 52 78 52 77 53 77 53 76 54 76 54 75 55 75 55 74 56 74 56 73 57 73 57 72 58 72 58 71 59 71 59 70 60 70 60 69 61 69 61 68 62 68 62 67 63 67 63 66 64 66 64 65 65 65 65 64 66 64 66 63 67 63 67 62 68 62 68 61 69 61 69 60 70 60 70 59 71 59 71 58 72 58 72 57 73 57 73 56 74 56 74 55 75 55 75 54 76 54 76 53 77 53 77 52 78 52 78 51 79 51 79 50 80 50 80 49 81 49 81 48 82 48 82 47 83 47 83 46 84 46 84 45 85 45 85 44 86 44 86 43 87 43 87 42 88 42 88 41 89 41 89 40 90 40 90 39 91 39 91 38 92 38 92 37 93 37 93 36 94 36 94 35 95 35 95 34 96 34 96 33 97 33 97 32 98 32 98 31 99 31 99 30 100 30 100 21 99 21 99 22 98 22"/><polygon points="2 38 2 37 3 37 3 36 4 36 4 35 5 35 5 34 6 34 6 33 7 33 7 32 8 32 8 31 9 31 9 30 10 30 10 29 11 29 11 28 12 28 12 27 13 27 13 26 14 26 14 25 15 25 15 24 16 24 16 23 17 23 17 22 18 22 18 21 19 21 19 20 20 20 20 19 21 19 21 18 22 18 22 17 23 17 23 16 24 16 24 15 25 15 25 14 26 14 26 13 27 13 27 12 28 12 28 11 29 11 29 10 30 10 30 9 31 9 31 8 32 8 32 7 33 7 33 6 34 6 34 5 35 5 35 4 36 4 36 3 37 3 37 2 38 2 38 1 39 1 39 0 30 0 30 1 29 1 29 2 28 2 28 3 27 3 27 4 26 4 26 5 25 5 25 6 24 6 24 7 23 7 23 8 22 8 22 9 21 9 21 10 20 10 20 11 19 11 19 12 18 12 18 13 17 13 17 14 16 14 16 15 15 15 15 16 14 16 14 17 13 17 13 18 12 18 12 19 11 19 11 20 10 20 10 21 9 21 9 22 8 22 8 23 7 23 7 24 6 24 6 25 5 25 5 26 4 26 4 27 3 27 3 28 2 28 2 29 1 29 1 30 0 30 0 39 1 39 1 38 2 38"/><polygon points="98 32 98 33 97 33 97 34 96 34 96 35 95 35 95 36 94 36 94 37 93 37 93 38 92 38 92 39 91 39 91 40 90 40 90 41 89 41 89 42 88 42 88 43 87 43 87 44 86 44 86 45 85 45 85 46 84 46 84 47 83 47 83 48 82 48 82 49 81 49 81 50 80 50 80 51 79 51 79 52 78 52 78 53 77 53 77 54 76 54 76 55 75 55 75 56 74 56 74 57 73 57 73 58 72 58 72 59 71 59 71 60 70 60 70 61 69 61 69 62 68 62 68 63 67 63 67 64 66 64 66 65 65 65 65 66 64 66 64 67 63 67 63 68 62 68 62 69 61 69 61 70 60 70 60 71 59 71 59 72 58 72 58 73 57 73 57 74 56 74 56 75 55 75 55 76 54 76 54 77 53 77 53 78 52 78 52 79 51 79 51 80 50 80 50 81 49 81 49 82 48 82 48 83 47 83 47 84 46 84 46 85 45 85 45 86 44 86 44 87 43 87 43 88 42 88 42 89 41 89 41 90 40 90 40 91 39 91 39 92 38 92 38 93 37 93 37 94 36 94 36 95 35 95 35 96 34 96 34 97 33 97 33 98 32 98 32 99 31 99 31 100 40 100 40 99 41 99 41 98 42 98 42 97 43 97 43 96 44 96 44 95 45 95 45 94 46 94 46 93 47 93 47 92 48 92 48 91 49 91 49 90 50 90 50 89 51 89 51 88 52 88 52 87 53 87 53 86 54 86 54 85 55 85 55 84 56 84 56 83 57 83 57 82 58 82 58 81 59 81 59 80 60 80 60 79 61 79 61 78 62 78 62 77 63 77 63 76 64 76 64 75 65 75 65 74 66 74 66 73 67 73 67 72 68 72 68 71 69 71 69 70 70 70 70 69 71 69 71 68 72 68 72 67 73 67 73 66 74 66 74 65 75 65 75 64 76 64 76 63 77 63 77 62 78 62 78 61 79 61 79 60 80 60 80 59 81 59 81 58 82 58 82 57 83 57 83 56 84 56 84 55 85 55 85 54 86 54 86 53 87 53 87 52 88 52 88 51 89 51 89 50 90 50 90 49 91 49 91 48 92 48 92 47 93 47 93 46 94 46 94 45 95 45 95 44 96 44 96 43 97 43 97 42 98 42 98 41 99 41 99 40 100 40 100 31 99 31 99 32 98 32"/><polygon points="2 48 2 47 3 47 3 46 4 46 4 45 5 45 5 44 6 44 6 43 7 43 7 42 8 42 8 41 9 41 9 40 10 40 10 39 11 39 11 38 12 38 12 37 13 37 13 36 14 36 14 35 15 35 15 34 16 34 16 33 17 33 17 32 18 32 18 31 19 31 19 30 20 30 20 29 21 29 21 28 22 28 22 27 23 27 23 26 24 26 24 25 25 25 25 24 26 24 26 23 27 23 27 22 28 22 28 21 29 21 29 20 30 20 30 19 31 19 31 18 32 18 32 17 33 17 33 16 34 16 34 15 35 15 35 14 36 14 36 13 37 13 37 12 38 12 38 11 39 11 39 10 40 10 40 9 41 9 41 8 42 8 42 7 43 7 43 6 44 6 44 5 45 5 45 4 46 4 46 3 47 3 47 2 48 2 48 1 49 1 49 0 40 0 40 1 39 1 39 2 38 2 38 3 37 3 37 4 36 4 36 5 35 5 35 6 34 6 34 7 33 7 33 8 32 8 32 9 31 9 31 10 30 10 30 11 29 11 29 12 28 12 28 13 27 13 27 14 26 14 26 15 25 15 25 16 24 16 24 17 23 17 23 18 22 18 22 19 21 19 21 20 20 20 20 21 19 21 19 22 18 22 18 23 17 23 17 24 16 24 16 25 15 25 15 26 14 26 14 27 13 27 13 28 12 28 12 29 11 29 11 30 10 30 10 31 9 31 9 32 8 32 8 33 7 33 7 34 6 34 6 35 5 35 5 36 4 36 4 37 3 37 3 38 2 38 2 39 1 39 1 40 0 40 0 49 1 49 1 48 2 48"/><polygon points="98 42 98 43 97 43 97 44 96 44 96 45 95 45 95 46 94 46 94 47 93 47 93 48 92 48 92 49 91 49 91 50 90 50 90 51 89 51 89 52 88 52 88 53 87 53 87 54 86 54 86 55 85 55 85 56 84 56 84 57 83 57 83 58 82 58 82 59 81 59 81 60 80 60 80 61 79 61 79 62 78 62 78 63 77 63 77 64 76 64 76 65 75 65 75 66 74 66 74 67 73 67 73 68 72 68 72 69 71 69 71 70 70 70 70 71 69 71 69 72 68 72 68 73 67 73 67 74 66 74 66 75 65 75 65 76 64 76 64 77 63 77 63 78 62 78 62 79 61 79 61 80 60 80 60 81 59 81 59 82 58 82 58 83 57 83 57 84 56 84 56 85 55 85 55 86 54 86 54 87 53 87 53 88 52 88 52 89 51 89 51 90 50 90 50 91 49 91 49 92 48 92 48 93 47 93 47 94 46 94 46 95 45 95 45 96 44 96 44 97 43 97 43 98 42 98 42 99 41 99 41 100 50 100 50 99 51 99 51 98 52 98 52 97 53 97 53 96 54 96 54 95 55 95 55 94 56 94 56 93 57 93 57 92 58 92 58 91 59 91 59 90 60 90 60 89 61 89 61 88 62 88 62 87 63 87 63 86 64 86 64 85 65 85 65 84 66 84 66 83 67 83 67 82 68 82 68 81 69 81 69 80 70 80 70 79 71 79 71 78 72 78 72 77 73 77 73 76 74 76 74 75 75 75 75 74 76 74 76 73 77 73 77 72 78 72 78 71 79 71 79 70 80 70 80 69 81 69 81 68 82 68 82 67 83 67 83 66 84 66 84 65 85 65 85 64 86 64 86 63 87 63 87 62 88 62 88 61 89 61 89 60 90 60 90 59 91 59 91 58 92 58 92 57 93 57 93 56 94 56 94 55 95 55 95 54 96 54 96 53 97 53 97 52 98 52 98 51 99 51 99 50 100 50 100 41 99 41 99 42 98 42"/><polygon points="2 58 2 57 3 57 3 56 4 56 4 55 5 55 5 54 6 54 6 53 7 53 7 52 8 52 8 51 9 51 9 50 10 50 10 49 11 49 11 48 12 48 12 47 13 47 13 46 14 46 14 45 15 45 15 44 16 44 16 43 17 43 17 42 18 42 18 41 19 41 19 40 20 40 20 39 21 39 21 38 22 38 22 37 23 37 23 36 24 36 24 35 25 35 25 34 26 34 26 33 27 33 27 32 28 32 28 31 29 31 29 30 30 30 30 29 31 29 31 28 32 28 32 27 33 27 33 26 34 26 34 25 35 25 35 24 36 24 36 23 37 23 37 22 38 22 38 21 39 21 39 20 40 20 40 19 41 19 41 18 42 18 42 17 43 17 43 16 44 16 44 15 45 15 45 14 46 14 46 13 47 13 47 12 48 12 48 11 49 11 49 10 50 10 50 9 51 9 51 8 52 8 52 7 53 7 53 6 54 6 54 5 55 5 55 4 56 4 56 3 57 3 57 2 58 2 58 1 59 1 59 0 50 0 50 1 49 1 49 2 48 2 48 3 47 3 47 4 46 4 46 5 45 5 45 6 44 6 44 7 43 7 43 8 42 8 42 9 41 9 41 10 40 10 40 11 39 11 39 12 38 12 38 13 37 13 37 14 36 14 36 15 35 15 35 16 34 16 34 17 33 17 33 18 32 18 32 19 31 19 31 20 30 20 30 21 29 21 29 22 28 22 28 23 27 23 27 24 26 24 26 25 25 25 25 26 24 26 24 27 23 27 23 28 22 28 22 29 21 29 21 30 20 30 20 31 19 31 19 32 18 32 18 33 17 33 17 34 16 34 16 35 15 35 15 36 14 36 14 37 13 37 13 38 12 38 12 39 11 39 11 40 10 40 10 41 9 41 9 42 8 42 8 43 7 43 7 44 6 44 6 45 5 45 5 46 4 46 4 47 3 47 3 48 2 48 2 49 1 49 1 50 0 50 0 59 1 59 1 58 2 58"/><polygon points="98 52 98 53 97 53 97 54 96 54 96 55 95 55 95 56 94 56 94 57 93 57 93 58 92 58 92 59 91 59 91 60 90 60 90 61 89 61 89 62 88 62 88 63 87 63 87 64 86 64 86 65 85 65 85 66 84 66 84 67 83 67 83 68 82 68 82 69 81 69 81 70 80 70 80 71 79 71 79 72 78 72 78 73 77 73 77 74 76 74 76 75 75 75 75 76 74 76 74 77 73 77 73 78 72 78 72 79 71 79 71 80 70 80 70 81 69 81 69 82 68 82 68 83 67 83 67 84 66 84 66 85 65 85 65 86 64 86 64 87 63 87 63 88 62 88 62 89 61 89 61 90 60 90 60 91 59 91 59 92 58 92 58 93 57 93 57 94 56 94 56 95 55 95 55 96 54 96 54 97 53 97 53 98 52 98 52 99 51 99 51 100 60 100 60 99 61 99 61 98 62 98 62 97 63 97 63 96 64 96 64 95 65 95 65 94 66 94 66 93 67 93 67 92 68 92 68 91 69 91 69 90 70 90 70 89 71 89 71 88 72 88 72 87 73 87 73 86 74 86 74 85 75 85 75 84 76 84 76 83 77 83 77 82 78 82 78 81 79 81 79 80 80 80 80 79 81 79 81 78 82 78 82 77 83 77 83 76 84 76 84 75 85 75 85 74 86 74 86 73 87 73 87 72 88 72 88 71 89 71 89 70 90 70 90 69 91 69 91 68 92 68 92 67 93 67 93 66 94 66 94 65 95 65 95 64 96 64 96 63 97 63 97 62 98 62 98 61 99 61 99 60 100 60 100 51 99 51 99 52 98 52"/><polygon points="2 68 2 67 3 67 3 66 4 66 4 65 5 65 5 64 6 64 6 63 7 63 7 62 8 62 8 61 9 61 9 60 10 60 10 59 11 59 11 58 12 58 12 57 13 57 13 56 14 56 14 55 15 55 15 54 16 54 16 53 17 53 17 52 18 52 18 51 19 51 19 50 20 50 20 49 21 49 21 48 22 48 22 47 23 47 23 46 24 46 24 45 25 45 25 44 26 44 26 43 27 43 27 42 28 42 28 41 29 41 29 40 30 40 30 39 31 39 31 38 32 38 32 37 33 37 33 36 34 36 34 35 35 35 35 34 36 34 36 33 37 33 37 32 38 32 38 31 39 31 39 30 40 30 40 29 41 29 41 28 42 28 42 27 43 27 43 26 44 26 44 25 45 25 45 24 46 24 46 23 47 23 47 22 48 22 48 21 49 21 49 20 50 20 50 19 51 19 51 18 52 18 52 17 53 17 53 16 54 16 54 15 55 15 55 14 56 14 56 13 57 13 57 12 58 12 58 11 59 11 59 10 60 10 60 9 61 9 61 8 62 8 62 7 63 7 63 6 64 6 64 5 65 5 65 4 66 4 66 3 67 3 67 2 68 2 68 1 69 1 69 0 60 0 60 1 59 1 59 2 58 2 58 3 57 3 57 4 56 4 56 5 55 5 55 6 54 6 54 7 53 7 53 8 52 8 52 9 51 9 51 10 50 10 50 11 49 11 49 12 48 12 48 13 47 13 47 14 46 14 46 15 45 15 45 16 44 16 44 17 43 17 43 18 42 18 42 19 41 19 41 20 40 20 40 21 39 21 39 22 38 22 38 23 37 23 37 24 36 24 36 25 35 25 35 26 34 26 34 27 33 27 33 28 32 28 32 29 31 29 31 30 30 30 30 31 29 31 29 32 28 32 28 33 27 33 27 34 26 34 26 35 25 35 25 36 24 36 24 37 23 37 23 38 22 38 22 39 21 39 21 40 20 40 20 41 19 41 19 42 18 42 18 43 17 43 17 44 16 44 16 45 15 45 15 46 14 46 14 47 13 47 13 48 12 48 12 49 11 49 11 50 10 50 10 51 9 51 9 52 8 52 8 53 7 53 7 54 6 54 6 55 5 55 5 56 4 56 4 57 3 57 3 58 2 58 2 59 1 59 1 60 0 60 0 69 1 69 1 68 2 68"/><polygon points="98 62 98 63 97 63 97 64 96 64 96 65 95 65 95 66 94 66 94 67 93 67 93 68 92 68 92 69 91 69 91 70 90 70 90 71 89 71 89 72 88 72 88 73 87 73 87 74 86 74 86 75 85 75 85 76 84 76 84 77 83 77 83 78 82 78 82 79 81 79 81 80 80 80 80 81 79 81 79 82 78 82 78 83 77 83 77 84 76 84 76 85 75 85 75 86 74 86 74 87 73 87 73 88 72 88 72 89 71 89 71 90 70 90 70 91 69 91 69 92 68 92 68 93 67 93 67 94 66 94 66 95 65 95 65 96 64 96 64 97 63 97 63 98 62 98 62 99 61 99 61 100 70 100 70 99 71 99 71 98 72 98 72 97 73 97 73 96 74 96 74 95 75 95 75 94 76 94 76 93 77 93 77 92 78 92 78 91 79 91 79 90 80 90 80 89 81 89 81 88 82 88 82 87 83 87 83 86 84 86 84 85 85 85 85 84 86 84 86 83 87 83 87 82 88 82 88 81 89 81 89 80 90 80 90 79 91 79 91 78 92 78 92 77 93 77 93 76 94 76 94 75 95 75 95 74 96 74 96 73 97 73 97 72 98 72 98 71 99 71 99 70 100 70 100 61 99 61 99 62 98 62"/><polygon points="2 78 2 77 3 77 3 76 4 76 4 75 5 75 5 74 6 74 6 73 7 73 7 72 8 72 8 71 9 71 9 70 10 70 10 69 11 69 11 68 12 68 12 67 13 67 13 66 14 66 14 65 15 65 15 64 16 64 16 63 17 63 17 62 18 62 18 61 19 61 19 60 20 60 20 59 21 59 21 58 22 58 22 57 23 57 23 56 24 56 24 55 25 55 25 54 26 54 26 53 27 53 27 52 28 52 28 51 29 51 29 50 30 50 30 49 31 49 31 48 32 48 32 47 33 47 33 46 34 46 34 45 35 45 35 44 36 44 36 43 37 43 37 42 38 42 38 41 39 41 39 40 40 40 40 39 41 39 41 38 42 38 42 37 43 37 43 36 44 36 44 35 45 35 45 34 46 34 46 33 47 33 47 32 48 32 48 31 49 31 49 30 50 30 50 29 51 29 51 28 52 28 52 27 53 27 53 26 54 26 54 25 55 25 55 24 56 24 56 23 57 23 57 22 58 22 58 21 59 21 59 20 60 20 60 19 61 19 61 18 62 18 62 17 63 17 63 16 64 16 64 15 65 15 65 14 66 14 66 13 67 13 67 12 68 12 68 11 69 11 69 10 70 10 70 9 71 9 71 8 72 8 72 7 73 7 73 6 74 6 74 5 75 5 75 4 76 4 76 3 77 3 77 2 78 2 78 1 79 1 79 0 70 0 70 1 69 1 69 2 68 2 68 3 67 3 67 4 66 4 66 5 65 5 65 6 64 6 64 7 63 7 63 8 62 8 62 9 61 9 61 10 60 10 60 11 59 11 59 12 58 12 58 13 57 13 57 14 56 14 56 15 55 15 55 16 54 16 54 17 53 17 53 18 52 18 52 19 51 19 51 20 50 20 50 21 49 21 49 22 48 22 48 23 47 23 47 24 46 24 46 25 45 25 45 26 44 26 44 27 43 27 43 28 42 28 42 29 41 29 41 30 40 30 40 31 39 31 39 32 38 32 38 33 37 33 37 34 36 34 36 35 35 35 35 36 34 36 34 37 33 37 33 38 32 38 32 39 31 39 31 40 30 40 30 41 29 41 29 42 28 42 28 43 27 43 27 44 26 44 26 45 25 45 25 46 24 46 24 47 23 47 23 48 22 48 22 49 21 49 21 50 20 50 20 51 19 51 19 52 18 52 18 53 17 53 17 54 16 54 16 55 15 55 15 56 14 56 14 57 13 57 13 58 12 58 12 59 11 59 11 60 10 60 10 61 9 61 9 62 8 62 8 63 7 63 7 64 6 64 6 65 5 65 5 66 4 66 4 67 3 67 3 68 2 68 2 69 1 69 1 70 0 70 0 79 1 79 1 78 2 78"/><polygon points="98 72 98 73 97 73 97 74 96 74 96 75 95 75 95 76 94 76 94 77 93 77 93 78 92 78 92 79 91 79 91 80 90 80 90 81 89 81 89 82 88 82 88 83 87 83 87 84 86 84 86 85 85 85 85 86 84 86 84 87 83 87 83 88 82 88 82 89 81 89 81 90 80 90 80 91 79 91 79 92 78 92 78 93 77 93 77 94 76 94 76 95 75 95 75 96 74 96 74 97 73 97 73 98 72 98 72 99 71 99 71 100 80 100 80 99 81 99 81 98 82 98 82 97 83 97 83 96 84 96 84 95 85 95 85 94 86 94 86 93 87 93 87 92 88 92 88 91 89 91 89 90 90 90 90 89 91 89 91 88 92 88 92 87 93 87 93 86 94 86 94 85 95 85 95 84 96 84 96 83 97 83 97 82 98 82 98 81 99 81 99 80 100 80 100 71 99 71 99 72 98 72"/><polygon points="2 88 2 87 3 87 3 86 4 86 4 85 5 85 5 84 6 84 6 83 7 83 7 82 8 82 8 81 9 81 9 80 10 80 10 79 11 79 11 78 12 78 12 77 13 77 13 76 14 76 14 75 15 75 15 74 16 74 16 73 17 73 17 72 18 72 18 71 19 71 19 70 20 70 20 69 21 69 21 68 22 68 22 67 23 67 23 66 24 66 24 65 25 65 25 64 26 64 26 63 27 63 27 62 28 62 28 61 29 61 29 60 30 60 30 59 31 59 31 58 32 58 32 57 33 57 33 56 34 56 34 55 35 55 35 54 36 54 36 53 37 53 37 52 38 52 38 51 39 51 39 50 40 50 40 49 41 49 41 48 42 48 42 47 43 47 43 46 44 46 44 45 45 45 45 44 46 44 46 43 47 43 47 42 48 42 48 41 49 41 49 40 50 40 50 39 51 39 51 38 52 38 52 37 53 37 53 36 54 36 54 35 55 35 55 34 56 34 56 33 57 33 57 32 58 32 58 31 59 31 59 30 60 30 60 29 61 29 61 28 62 28 62 27 63 27 63 26 64 26 64 25 65 25 65 24 66 24 66 23 67 23 67 22 68 22 68 21 69 21 69 20 70 20 70 19 71 19 71 18 72 18 72 17 73 17 73 16 74 16 74 15 75 15 75 14 76 14 76 13 77 13 77 12 78 12 78 11 79 11 79 10 80 10 80 9 81 9 81 8 82 8 82 7 83 7 83 6 84 6 84 5 85 5 85 4 86 4 86 3 87 3 87 2 88 2 88 1 89 1 89 0 80 0 80 1 79 1 79 2 78 2 78 3 77 3 77 4 76 4 76 5 75 5 75 6 74 6 74 7 73 7 73 8 72 8 72 9 71 9 71 10 70 10 70 11 69 11 69 12 68 12 68 13 67 13 67 14 66 14 66 15 65 15 65 16 64 16 64 17 63 17 63 18 62 18 62 19 61 19 61 20 60 20 60 21 59 21 59 22 58 22 58 23 57 23 57 24 56 24 56 25 55 25 55 26 54 26 54 27 53 27 53 28 52 28 52 29 51 29 51 30 50 30 50 31 49 31 49 32 48 32 48 33 47 33 47 34 46 34 46 35 45 35 45 36 44 36 44 37 43 37 43 38 42 38 42 39 41 39 41 40 40 40 40 41 39 41 39 42 38 42 38 43 37 43 37 44 36 44 36 45 35 45 35 46 34 46 34 47 33 47 33 48 32 48 32 49 31 49 31 50 30 50 30 51 29 51 29 52 28 52 28 53 27 53 27 54 26 54 26 55 25 55 25 56 24 56 24 57 23 57 23 58 22 58 22 59 21 59 21 60 20 60 20 61 19 61 19 62 18 62 18 63 17 63 17 64 16 64 16 65 15 65 15 66 14 66 14 67 13 67 13 68 12 68 12 69 11 69 11 70 10 70 10 71 9 71 9 72 8 72 8 73 7 73 7 74 6 74 6 75 5 75 5 76 4 76 4 77 3 77 3 78 2 78 2 79 1 79 1 80 0 80 0 89 1 89 1 88 2 88"/><polygon points="98 82 98 83 97 83 97 84 96 84 96 85 95 85 95 86 94 86 94 87 93 87 93 88 92 88 92 89 91 89 91 90 90 90 90 91 89 91 89 92 88 92 88 93 87 93 87 94 86 94 86 95 85 95 85 96 84 96 84 97 83 97 83 98 82 98 82 99 81 99 81 100 90 100 90 99 91 99 91 98 92 98 92 97 93 97 93 96 94 96 94 95 95 95 95 94 96 94 96 93 97 93 97 92 98 92 98 91 99 91 99 90 100 90 100 81 99 81 99 82 98 82"/><polygon points="2 98 2 97 3 97 3 96 4 96 4 95 5 95 5 94 6 94 6 93 7 93 7 92 8 92 8 91 9 91 9 90 10 90 10 89 11 89 11 88 12 88 12 87 13 87 13 86 14 86 14 85 15 85 15 84 16 84 16 83 17 83 17 82 18 82 18 81 19 81 19 80 20 80 20 79 21 79 21 78 22 78 22 77 23 77 23 76 24 76 24 75 25 75 25 74 26 74 26 73 27 73 27 72 28 72 28 71 29 71 29 70 30 70 30 69 31 69 31 68 32 68 32 67 33 67 33 66 34 66 34 65 35 65 35 64 36 64 36 63 37 63 37 62 38 62 38 61 39 61 39 60 40 60 40 59 41 59 41 58 42 58 42 57 43 57 43 56 44 56 44 55 45 55 45 54 46 54 46 53 47 53 47 52 48 52 48 51 49 51 49 50 50 50 50 49 51 49 51 48 52 48 52 47 53 47 53 46 54 46 54 45 55 45 55 44 56 44 56 43 57 43 57 42 58 42 58 41 59 41 59 40 60 40 60 39 61 39 61 38 62 38 62 37 63 37 63 36 64 36 64 35 65 35 65 34 66 34 66 33 67 33 67 32 68 32 68 31 69 31 69 30 70 30 70 29 71 29 71 28 72 28 72 27 73 27 73 26 74 26 74 25 75 25 75 24 76 24 76 23 77 23 77 22 78 22 78 21 79 21 79 20 80 20 80 19 81 19 81 18 82 18 82 17 83 17 83 16 84 16 84 15 85 15 85 14 86 14 86 13 87 13 87 12 88 12 88 11 89 11 89 10 90 10 90 9 91 9 91 8 92 8 92 7 93 7 93 6 94 6 94 5 95 5 95 4 96 4 96 3 97 3 97 2 98 2 98 1 99 1 99 0 90 0 90 1 89 1 89 2 88 2 88 3 87 3 87 4 86 4 86 5 85 5 85 6 84 6 84 7 83 7 83 8 82 8 82 9 81 9 81 10 80 10 80 11 79 11 79 12 78 12 78 13 77 13 77 14 76 14 76 15 75 15 75 16 74 16 74 17 73 17 73 18 72 18 72 19 71 19 71 20 70 20 70 21 69 21 69 22 68 22 68 23 67 23 67 24 66 24 66 25 65 25 65 26 64 26 64 27 63 27 63 28 62 28 62 29 61 29 61 30 60 30 60 31 59 31 59 32 58 32 58 33 57 33 57 34 56 34 56 35 55 35 55 36 54 36 54 37 53 37 53 38 52 38 52 39 51 39 51 40 50 40 50 41 49 41 49 42 48 42 48 43 47 43 47 44 46 44 46 45 45 45 45 46 44 46 44 47 43 47 43 48 42 48 42 49 41 49 41 50 40 50 40 51 39 51 39 52 38 52 38 53 37 53 37 54 36 54 36 55 35 55 35 56 34 56 34 57 33 57 33 58 32 58 32 59 31 59 31 60 30 60 30 61 29 61 29 62 28 62 28 63 27 63 27 64 26 64 26 65 25 65 25 66 24 66 24 67 23 67 23 68 22 68 22 69 21 69 21 70 20 70 20 71 19 71 19 72 18 72 18 73 17 73 17 74 16 74 16 75 15 75 15 76 14 76 14 77 13 77 13 78 12 78 12 79 11 79 11 80 10 80 10 81 9 81 9 82 8 82 8 83 7 83 7 84 6 84 6 85 5 85 5 86 4 86 4 87 3 87 3 88 2 88 2 89 1 89 1 90 0 90 0 99 1 99 1 98 2 98"/><polygon points="98 92 98 93 97 93 97 94 96 94 96 95 95 95 95 96 94 96 94 97 93 97 93 98 92 98 92 99 91 99 91 100 100 100 100 91 99 91 99 92 98 92"/></svg>